<svg id="Слой_1" data-name="Слой 1" xmlns="http://www.w3.org/2000/svg" viewBox="0 0 576 576"><defs><style>.cls-1{fill:#e1e2e2;}.cls-2{fill:#201f1f;}</style></defs><title>back</title><circle class="cls-1" cx="288" cy="288" r="288"/><path class="cls-2" d="M317.27,531.72l70.41,77.44a8.65,8.65,0,0,0,12.82,0l70.41-77.44a8.67,8.67,0,0,0-6.41-14.5H430.64C441.21,468.75,484.74,432,536.18,432c59.25,0,108,48.75,108,108a36,36,0,0,0,72,0c0-98.75-81.25-180-180-180-91,0-167.21,69.06-178.54,157.22h-34A8.67,8.67,0,0,0,317.27,531.72Z" transform="translate(-212 -212)"/></svg>