<svg xmlns="http://www.w3.org/2000/svg" viewBox="0 0 127.971 164.097"><defs><style>.a{fill:#cbcbca;stroke:#1d1e20;stroke-width:3px;}.a,.b{stroke-miterlimit:10;}.b{fill:#cc1111;stroke:#1c1e20;stroke-width:0.75px;}</style></defs><title>bant</title><path class="a" d="M3.976,72.6h120a0,0,0,0,1,0,0v76a14,14,0,0,1-14,14h-92a14,14,0,0,1-14-14v-76A0,0,0,0,1,3.976,72.6Z"/><path class="a" d="M17.976,42.6h92a14,14,0,0,1,14,14v16a0,0,0,0,1,0,0h-120a0,0,0,0,1,0,0v-16A14,14,0,0,1,17.976,42.6Z"/><polygon class="b" points="93.976 102.597 93.976 122.597 73.976 122.597 73.976 142.597 53.976 142.597 53.976 122.597 33.976 122.597 33.976 102.597 53.976 102.597 53.976 92.597 73.976 92.597 73.976 102.597 93.976 102.597"/><path class="b" d="M102.066,5.114c-4.98-5.77-15.25-6.07-20.86-1.99-5.52,4.02-3.77,10.26-9.43,23.72a80.475,80.475,0,0,1-7.8,14.26,70.176,70.176,0,0,0,16.88-3.71c9.18-3.24,19.3-6.82,22.85-15.92C103.886,21.014,107.476,11.4,102.066,5.114Zm-9.35,16.62c-1.34,3.49-3.92,5.33-13.01,10.64-4.08,2.39-8.9,5.15-14.36,8.14a40.326,40.326,0,0,0,9.2-12.03c4.86-9.87,3.02-17.49,7.79-19.64,3.06-1.38,7.42.11,9.6,2.85C95,15.534,93.046,20.884,92.716,21.734Z"/><path class="b" d="M63.976,41.1c4.119-1.94,23.751-10.66,44.75-2.149a51.889,51.889,0,0,1,18.432,12.807,24.481,24.481,0,0,0-16.182,7.616,56.435,56.435,0,0,0-16.01-12.289A57.7,57.7,0,0,0,63.976,41.1Z"/><path class="b" d="M24.255,21.474c3.55,9.1,13.67,12.68,22.85,15.92a70.176,70.176,0,0,0,16.88,3.71,80.475,80.475,0,0,1-7.8-14.26c-5.66-13.46-3.91-19.7-9.43-23.72-5.61-4.08-15.88-3.78-20.86,1.99C20.485,11.4,24.075,21.014,24.255,21.474Zm11.77-9.78c2.18-2.74,6.54-4.23,9.6-2.85,4.77,2.15,2.93,9.77,7.79,19.64a40.326,40.326,0,0,0,9.2,12.03c-5.46-2.99-10.28-5.75-14.36-8.14-9.09-5.31-11.67-7.15-13.01-10.64C34.915,20.884,32.965,15.534,36.025,11.694Z"/><path class="b" d="M63.976,41.1c-4.117-1.94-23.74-10.655-44.731-2.149A51.879,51.879,0,0,0,.812,51.762,24.526,24.526,0,0,1,9.38,53.926,24.543,24.543,0,0,1,17,59.378a56.406,56.406,0,0,1,16.01-12.289A57.7,57.7,0,0,1,63.976,41.1Z"/></svg>