<svg xmlns="http://www.w3.org/2000/svg" viewBox="0 0 128.426 105"><defs><style>.a{fill:#cccccc;}</style></defs><title>cup</title><path class="a" d="M99.213,15V30a35.779,35.779,0,0,1-.35,5,35,35,0,0,1-13.93,23.21c-.73.53-1.48,1.04-2.25,1.52a35.007,35.007,0,0,1-36.94,0c-.77-.48-1.52-.99-2.25-1.52A35,35,0,0,1,29.563,35a35.779,35.779,0,0,1-.35-5V15c0-4.47,4.58-8.49,11.83-11.24A67.094,67.094,0,0,1,64.213,0a67.094,67.094,0,0,1,23.17,3.76C94.633,6.51,99.213,10.53,99.213,15Z"/><path class="a" d="M99.213,105h-70c0-4.47,4.58-8.49,11.83-11.24a52.186,52.186,0,0,1,8.18-2.31c-.01-.15-.01-.3-.01-.45a15,15,0,0,1,10-14.14V64.64a34.9,34.9,0,0,0,10,0V76.86a15,15,0,0,1,10,14.14c0,.15,0,.3-.01.45a52.186,52.186,0,0,1,8.18,2.31C94.633,96.51,99.213,100.53,99.213,105Z"/><path class="a" d="M45.743,59.73c-8.1,6.67-23.14,3.3-34.39-7.95C-.357,40.07-3.527,24.24,4.283,16.43c5.65-5.65,15.49-5.56,24.93-.65v2.34c-5.76-1.88-11.08-1.4-14.32,1.84-5.86,5.86-2.7,18.52,7.07,28.29,6.87,6.87,15.17,10.47,21.53,9.96C44.223,58.74,44.973,59.25,45.743,59.73Z"/><path class="a" d="M117.073,51.78c-11.25,11.25-26.29,14.62-34.39,7.95.77-.48,1.52-.99,2.25-1.52,6.36.51,14.66-3.09,21.53-9.96,9.77-9.77,12.93-22.43,7.07-28.29-3.24-3.24-8.56-3.72-14.32-1.84V15.78c9.44-4.91,19.28-5,24.93.65C131.953,24.24,128.783,40.07,117.073,51.78Z"/></svg>