<svg id="Слой_1" data-name="Слой 1" xmlns="http://www.w3.org/2000/svg" viewBox="0 0 150 200.24"><defs><style>.cls-1{fill:#313131;}.cls-2{fill:#ccc;}</style></defs><title>documents</title><path class="cls-1" d="M499.46,403.9a2.55,2.55,0,0,0-2.54,2.42v.12a2.54,2.54,0,0,0,5.08,0v-.12A2.55,2.55,0,0,0,499.46,403.9Zm62.8-3.78H501.4a10.09,10.09,0,0,1,7.18,6.2h11.36A1.66,1.66,0,0,1,521.6,408v13.83a1.66,1.66,0,0,1-1.66,1.66h-41.4a1.66,1.66,0,0,1-1.66-1.66V408a1.66,1.66,0,0,1,1.66-1.66H489.9a10.09,10.09,0,0,1,7.18-6.2H437.74A12.75,12.75,0,0,0,425,412.87V587.38a12.74,12.74,0,0,0,12.74,12.74H562.26A12.74,12.74,0,0,0,575,587.38V412.87A12.75,12.75,0,0,0,562.26,400.12Zm-8.14,30a.88.88,0,0,1,.88.88v8.24a.87.87,0,0,1-.88.88H445.88a.87.87,0,0,1-.88-.88V431a.88.88,0,0,1,.88-.88Zm-108.24,40H554.12a.88.88,0,0,1,.88.88v8.24a.87.87,0,0,1-.88.88H445.88a.87.87,0,0,1-.88-.88V471A.88.88,0,0,1,445.88,470.12ZM445,459.24V451a.88.88,0,0,1,.88-.88H554.12a.88.88,0,0,1,.88.88v8.24a.87.87,0,0,1-.88.88H445.88A.87.87,0,0,1,445,459.24Zm.88,30.88H554.12a.88.88,0,0,1,.88.88v8.24a.87.87,0,0,1-.88.88H445.88a.87.87,0,0,1-.88-.88V491A.88.88,0,0,1,445.88,490.12Zm0,20H554.12a.88.88,0,0,1,.88.88v8.24a.87.87,0,0,1-.88.88H445.88a.87.87,0,0,1-.88-.88V511A.88.88,0,0,1,445.88,510.12Zm0,20H554.12a.88.88,0,0,1,.88.88v8.24a.87.87,0,0,1-.88.88H445.88a.87.87,0,0,1-.88-.88V531A.88.88,0,0,1,445.88,530.12Zm0,20H554.12a.88.88,0,0,1,.88.88v8.24a.87.87,0,0,1-.88.88H445.88a.87.87,0,0,1-.88-.88V551A.88.88,0,0,1,445.88,550.12Zm0,20H554.12a.88.88,0,0,1,.88.88v8.24a.87.87,0,0,1-.88.88H445.88a.87.87,0,0,1-.88-.88V571A.88.88,0,0,1,445.88,570.12Zm51-163.68a2.54,2.54,0,0,0,5.08,0v-.12a2.54,2.54,0,0,0-5.08,0Z" transform="translate(-425 -399.88)"/><path class="cls-2" d="M561.17,410.12H521.6v11.69a1.66,1.66,0,0,1-1.66,1.66h-41.4a1.66,1.66,0,0,1-1.66-1.66V410.12H438.83A3.84,3.84,0,0,0,435,414V586.29a3.83,3.83,0,0,0,3.83,3.83H561.17a3.83,3.83,0,0,0,3.83-3.83V414A3.84,3.84,0,0,0,561.17,410.12ZM555,579.24a.87.87,0,0,1-.88.88H445.88a.87.87,0,0,1-.88-.88V571a.88.88,0,0,1,.88-.88H554.12a.88.88,0,0,1,.88.88Zm0-20a.87.87,0,0,1-.88.88H445.88a.87.87,0,0,1-.88-.88V551a.88.88,0,0,1,.88-.88H554.12a.88.88,0,0,1,.88.88Zm0-20a.87.87,0,0,1-.88.88H445.88a.87.87,0,0,1-.88-.88V531a.88.88,0,0,1,.88-.88H554.12a.88.88,0,0,1,.88.88Zm0-20a.87.87,0,0,1-.88.88H445.88a.87.87,0,0,1-.88-.88V511a.88.88,0,0,1,.88-.88H554.12a.88.88,0,0,1,.88.88Zm0-20a.87.87,0,0,1-.88.88H445.88a.87.87,0,0,1-.88-.88V491a.88.88,0,0,1,.88-.88H554.12a.88.88,0,0,1,.88.88Zm0-20a.87.87,0,0,1-.88.88H445.88a.87.87,0,0,1-.88-.88V471a.88.88,0,0,1,.88-.88H554.12a.88.88,0,0,1,.88.88Zm0-20a.87.87,0,0,1-.88.88H445.88a.87.87,0,0,1-.88-.88V451a.88.88,0,0,1,.88-.88H554.12a.88.88,0,0,1,.88.88Zm0-20a.87.87,0,0,1-.88.88H445.88a.87.87,0,0,1-.88-.88V431a.88.88,0,0,1,.88-.88H554.12a.88.88,0,0,1,.88.88Z" transform="translate(-425 -399.88)"/><path class="cls-2" d="M496.92,406.44v-.12H502v.12a2.54,2.54,0,0,1-5.08,0Z" transform="translate(-425 -399.88)"/><path class="cls-2" d="M501.4,400.12h-4.32a9.84,9.84,0,0,1,4.32,0Z" transform="translate(-425 -399.88)"/><path class="cls-2" d="M502,406.32v.12a2.54,2.54,0,0,1-5.08,0v-.12a2.54,2.54,0,0,1,5.08,0Z" transform="translate(-425 -399.88)"/><path class="cls-1" d="M502,406.32v.12a2.54,2.54,0,0,1-5.08,0v-.12a2.54,2.54,0,0,1,5.08,0Z" transform="translate(-425 -399.88)"/></svg>