<svg id="Main" xmlns="http://www.w3.org/2000/svg" viewBox="0 0 817.846 354.575"><defs><style>.cls-1,.cls-2{fill:#e1dfdf;}.cls-1{stroke:#1d1e20;stroke-miterlimit:10;stroke-width:38px;}.cls-3{fill:#366ce1;}.cls-4{fill:#1c1e20;}.cls-4,.cls-5{opacity:0.62;}.cls-5,.cls-6{fill:#121221;}</style></defs><title>html_js_css</title><path class="cls-1" d="M110.02,416.664h200v200l-100,50-100-50Z" transform="translate(-91.02 -333.332)"/><path class="cls-2" d="M148.517,464.784v76.88h61.52v47.83c-.01,0-.01.01-.02.01q-17.94-8.97-35.88-17.93v-25.65h-25.62v41.86q30.75,15.375,61.5,30.76c.01,0,.01-.01.02-.01v48.12c-.01,0-.01.01-.02.01q-50.01-24.99-100-50v-200h100.02v48.12Z" transform="translate(-91.02 -333.332)"/><rect class="cls-2" x="83.116" y="157.082" width="35.9" height="25.63"/><path class="cls-3" d="M210.037,589.494v29.04c-.01,0-.01.01-.02.01q-30.75-15.375-61.5-30.76v-41.86h25.62v25.65q17.94,8.97,35.88,17.93C210.027,589.5,210.027,589.494,210.037,589.494Z" transform="translate(-91.02 -333.332)"/><polygon class="cls-3" points="83.116 157.082 83.116 182.712 119.016 182.712 119.016 208.332 57.496 208.332 57.496 131.452 119.016 131.452 119.016 157.082 83.116 157.082"/><path class="cls-4" d="M148.48,464.784v76.88H210v47.83c-.01,0-.01.01-.02.01q-17.94-8.97-35.88-17.93v-25.65H148.48v41.86q30.75,15.375,61.5,30.76c.01,0,.01-.01.02-.01v48.12c-.01,0-.01.01-.02.01q-50.01-24.99-100-50v-200H210v48.12Z" transform="translate(-91.02 -333.332)"/><rect class="cls-4" x="83.08" y="157.082" width="35.9" height="25.63"/><path class="cls-2" d="M210,416.664v249.99q49.98-24.99,99.98-49.99v-200Z" transform="translate(-91.02 -333.332)"/><path class="cls-5" d="M210,589.494v29.04c-.01,0-.01.01-.02.01q-30.75-15.375-61.5-30.76v-41.86H174.1v25.65q17.94,8.97,35.88,17.93C209.99,589.5,209.99,589.494,210,589.494Z" transform="translate(-91.02 -333.332)"/><polygon class="cls-5" points="83.08 157.082 83.08 182.712 118.98 182.712 118.98 208.332 57.46 208.332 57.46 131.452 118.98 131.452 118.98 157.082 83.08 157.082"/><rect class="cls-3" x="118.98" y="131.452" width="61.48" height="25.63"/><path class="cls-3" d="M210,516.044h61.48v71.74q-30.735,15.375-61.48,30.75v-29.04q17.925-8.97,35.86-17.92v-29.91H210Z" transform="translate(-91.02 -333.332)"/><path class="cls-6" d="M257.948,333.344v46.975h-9.785V344.446q-6.834,3.426-13.672,6.84h-.008q-6.846-3.426-13.695-6.851v35.884H211V333.344h9.785v.008l13.7,6.847,13.676-6.836.023-.011v-.008Z" transform="translate(-91.02 -333.332)"/><polygon class="cls-6" points="154.68 18.525 154.68 18.529 154.676 18.525 154.68 18.525"/><polygon class="cls-6" points="154.672 18.525 154.676 18.525 154.672 18.529 154.672 18.525"/><polygon class="cls-6" points="118.006 0.012 118.006 9.797 99.441 9.797 99.441 46.987 89.657 46.987 89.657 9.797 71.031 9.797 71.031 0.012 118.006 0.012"/><polygon class="cls-6" points="198.342 37.203 198.342 46.987 169.309 46.987 169.309 0.012 179.094 0.012 179.094 37.203 198.342 37.203"/><polygon class="cls-6" points="68.651 0.012 68.651 46.987 58.866 46.987 58.866 27.949 49.402 27.949 49.402 46.979 39.618 46.979 39.618 0.004 49.402 0.004 49.402 18.164 58.866 18.164 58.866 0.012 68.651 0.012"/><path class="cls-1" d="M689.866,416.65h200v200l-100,50-100-50Z" transform="translate(-91.02 -333.332)"/><rect class="cls-2" x="662.962" y="157.068" width="35.9" height="25.63"/><path class="cls-2" d="M689.883,416.668v200q49.995,25,100,50v-250Z" transform="translate(-91.02 -333.332)"/><path class="cls-2" d="M825.763,541.668v29.91q-17.942,8.97-35.88,17.93v-47.84Z" transform="translate(-91.02 -333.332)"/><path class="cls-2" d="M889.883,416.668v200q-50,25-100,50v-48.12q30.75-15.375,61.5-30.76v-71.74H792.542l58.841-25.63v-25.63h-61.5v-48.12Z" transform="translate(-91.02 -333.332)"/><path class="cls-3" d="M851.383,490.418l-58.841,25.63h58.841v71.74q-30.75,15.375-61.5,30.76v-29.04q17.94-8.97,35.88-17.93v-29.91h-35.88v-76.88h61.5Z" transform="translate(-91.02 -333.332)"/><polygon class="cls-3" points="698.862 131.457 698.862 208.337 637.362 208.337 637.362 182.707 696.192 157.087 637.362 157.087 637.362 131.457 698.862 131.457"/><path class="cls-3" d="M754,571.578q17.94,8.97,35.88,17.93v29.04q-30.75-15.375-61.5-30.76v-41.86H754Z" transform="translate(-91.02 -333.332)"/><path class="cls-4" d="M825.763,541.65v29.91q-17.942,8.97-35.88,17.93V541.65Z" transform="translate(-91.02 -333.332)"/><path class="cls-4" d="M889.883,416.65v200q-50,25.005-100,50V618.53q30.75-15.375,61.5-30.76V516.03H792.542l58.841-25.63V464.77h-61.5V416.65Z" transform="translate(-91.02 -333.332)"/><path class="cls-5" d="M851.383,490.4l-58.841,25.63h58.841v71.74q-30.75,15.375-61.5,30.76V589.49q17.94-8.97,35.88-17.93V541.65h-35.88V464.77h61.5Z" transform="translate(-91.02 -333.332)"/><path class="cls-6" d="M760.467,361.722h11.091q-4.647,9.3-9.3,18.6H756.07v.008h-19.9q-5.874-11.748-11.752-23.5,5.874-11.75,11.752-23.5h6.185v-.007h19.9q4.649,9.3,9.3,18.6H760.467q-2.2-4.4-4.4-8.806h-13.7q-3.427,6.853-6.85,13.708,3.426,6.847,6.846,13.7h13.7Q758.263,366.129,760.467,361.722Z" transform="translate(-91.02 -333.332)"/><path class="cls-6" d="M813.048,366.012l.023.02-4.455,8.905-2.693,5.387q-13.135,0-26.27,0v0l-7.152-14.3,8.757-4.374,4.382,8.764h14.3l.741-1.482L772.57,347.636l7.152-14.3q13.134,0,26.27,0l0,0,7.149,14.3-8.753,4.375-4.382-8.765h-14.3l-.741,1.483Z" transform="translate(-91.02 -333.332)"/><polygon class="cls-6" points="722.055 32.696 722.051 32.7 722.028 32.681 722.055 32.696"/><path class="cls-6" d="M855.236,366.012l.023.02-4.455,8.905-2.693,5.387q-13.135,0-26.27,0v0l-7.152-14.3,8.757-4.374,4.382,8.764h14.3l.741-1.482-28.111-21.288,7.152-14.3q13.136,0,26.27,0l0,0,7.148,14.3-8.753,4.375-4.382-8.765h-14.3l-.741,1.483Z" transform="translate(-91.02 -333.332)"/><polygon class="cls-6" points="764.243 32.696 764.239 32.7 764.216 32.681 764.243 32.696"/><path class="cls-1" d="M400,415.009H600v200l-100,50-100-50Z" transform="translate(-91.02 -333.332)"/><path class="cls-2" d="M400,415.009H600v200l-100,50-100-50Z" transform="translate(-91.02 -333.332)"/><rect class="cls-3" x="347.53" y="129.722" width="122.95" height="25.62"/><path class="cls-3" d="M535.88,535.653V510.024c-.01,0-.01-.01-.02-.01q-17.925-8.971-35.86-17.921-17.91,8.957-35.81,17.9c-.01.011-.03.011-.05.021s-.01.01-.02.01v6.29l.02.01,71.72,20.7,25.36,7.319.26.07.01.01v.01h.01V586.2q-30.75,15.375-61.5,30.76-30.75-15.375-61.5-30.76V557.153l.01-12.81h.03l25.58.02v25.63q17.94,8.97,35.88,17.93,17.91-8.954,35.81-17.9c.01-.01.03-.01.05-.02s.01-.011.02-.011V563.7l-.02-.01-67.01-19.351-4.71-1.36-25.59-7.39-.04-.009h-.01v-41.77q30.75-15.375,61.5-30.761,17.925,8.97,35.86,17.94,12.825,6.406,25.64,12.821v29.049l-.01,12.81h-.03Z" transform="translate(-91.02 -333.332)"/><path class="cls-5" d="M535.88,535.653V510.024c-.01,0-.01-.01-.02-.01q-17.925-8.971-35.86-17.921-17.91,8.957-35.81,17.9c-.01.011-.03.011-.05.021s-.01.01-.02.01v6.29l.02.01,71.72,20.7,25.36,7.319.26.07.01.01v.01h.01V586.2q-30.75,15.375-61.5,30.76-30.75-15.375-61.5-30.76V557.153l.01-12.81h.03l25.58.02v25.63q17.94,8.97,35.88,17.93,17.91-8.954,35.81-17.9c.01-.01.03-.01.05-.02s.01-.011.02-.011V563.7l-.02-.01-67.01-19.351-4.71-1.36-25.59-7.39-.04-.009h-.01v-41.77q30.75-15.375,61.5-30.761,17.925,8.97,35.86,17.94,12.825,6.406,25.64,12.821v29.049l-.01,12.81h-.03Z" transform="translate(-91.02 -333.332)"/><path class="cls-3" d="M561.5,544.433V586.2q-30.75,15.375-61.5,30.76-30.75-15.375-61.5-30.76V557.153l.01-12.81,25.61.02v25.63q17.94,8.97,35.88,17.93,17.91-8.954,35.81-17.9c.01-.01.03-.01.05-.02s.01-.011.02-.011V563.7l-.02-.01V463.053h25.62v81.37Z" transform="translate(-91.02 -333.332)"/><path class="cls-6" d="M547.655,372.758l.026.022-5.149,10.294-3.113,6.226q-15.182,0-30.364,0v0l-8.267-16.529,10.122-5.056,5.065,10.13H532.5l.856-1.713-32.492-24.606,8.266-16.524q15.183,0,30.365,0l0,0,8.262,16.529-10.117,5.056-5.065-10.13H516.05l-.857,1.713Z" transform="translate(-91.02 -333.332)"/><polygon class="cls-6" points="456.665 39.444 456.661 39.448 456.634 39.426 456.665 39.444"/><path class="cls-6" d="M498.463,334.991v41.123l0,.007-3.48,6.955-3.112,6.225-30.363,0v0l-8.269-16.53,10.121-5.057,5.068,10.133H484.95l.859-1.715,0,0v-28.11l-.776-1.55H468.562L461.614,335q12.095,0,24.192,0v-.008Z" transform="translate(-91.02 -333.332)"/></svg>