<svg xmlns="http://www.w3.org/2000/svg" viewBox="0 0 171 135"><defs><style>.cls-1{fill:#cccccc;stroke:#1c1d1f;stroke-miterlimit:10;}.cls-2{fill:#1c1d1f;}</style></defs><title>imagine</title><g id="Слой_2" data-name="Слой 2"><g id="Слой_1-2" data-name="Слой 1"><g id="imagine"><rect class="cls-1" x="9" y="9" width="153" height="117"/><rect class="cls-2" x="18" y="45" width="9" height="18"/><rect class="cls-2" x="18" y="27" width="9" height="9"/><polygon class="cls-2" points="81 36 81 63 72 63 72 45 63 45 63 63 54 63 54 45 45 45 45 63 36 63 36 27 45 27 45 36 81 36"/><polygon class="cls-2" points="117 36 117 63 108 63 108 54 99 54 99 63 90 63 90 36 99 36 99 45 108 45 108 36 117 36"/><rect class="cls-2" x="99" y="27" width="9" height="9"/><rect class="cls-2" x="126" y="54" width="27" height="9"/><polygon class="cls-2" points="108 81 108 90 90 90 90 117 81 117 81 90 63 90 63 81 72 81 72 72 99 72 99 81 108 81"/><polygon class="cls-2" points="153 105 153 117 108 117 108 105 117 105 117 93 126 93 126 81 135 81 135 93 144 93 144 105 153 105"/><polygon class="cls-2" points="63 105 63 117 18 117 18 105 27 105 27 93 36 93 36 81 45 81 45 93 54 93 54 105 63 105"/><path class="cls-2" d="M0,0V135H171V0ZM162,126H9V9H162Z"/></g></g></g></svg>