<svg id="Main" xmlns="http://www.w3.org/2000/svg" viewBox="0 0 700.727 395.083"><defs><style>.cls-1{fill:#366ce1;}.cls-2{fill:#121222;}.cls-3{fill:#121221;}</style></defs><title>mysql</title><path class="cls-1" d="M706.721,453.591a57.7,57.7,0,0,0,5.439,8.532,57.655,57.655,0,0,0-7.455,31.23,2.446,2.446,0,0,1-3.188,2.459,35.415,35.415,0,0,1-5.616-65.145,37.035,37.035,0,0,1,4.347-1.916A56.99,56.99,0,0,0,706.721,453.591Z" transform="translate(-166.301 -337.398)"/><path class="cls-2" d="M706.721,453.591a57.788,57.788,0,0,0,5.5,8.488l.03.037-.024.044a54.589,54.589,0,0,0-6.556,29.959l.066.959.017.247,0,.346a3.341,3.341,0,0,1-.089.694,3.555,3.555,0,0,1-1.629,2.243,3.626,3.626,0,0,1-2.807.4c-.7-.206-1.311-.386-1.965-.6a37.406,37.406,0,0,1-7.355-3.474A35.6,35.6,0,0,1,680.4,481.4a29.132,29.132,0,0,1-1.929-3.637l-.871-1.869-.686-1.946c-.212-.654-.468-1.3-.624-1.966l-.456-2.014a32.47,32.47,0,0,1-.631-4.073,34.826,34.826,0,0,1,2.227-16.131,36.338,36.338,0,0,1,8.994-13.364c1.007-.889,2.043-1.745,3.088-2.576,1.123-.731,2.186-1.545,3.349-2.2,1.185-.612,2.322-1.3,3.533-1.846a37.964,37.964,0,0,1,3.7-1.441l.6-.2-.006.6a53.118,53.118,0,0,0,1.5,12.771,49.967,49.967,0,0,0,1.918,6.169A58.116,58.116,0,0,0,706.721,453.591Zm0,0a58.172,58.172,0,0,1-2.708-5.878c-.8-2.006-1.451-4.068-2.055-6.144a61.048,61.048,0,0,1-2.15-12.806l.591.4a36.533,36.533,0,0,0-3.5,1.634c-1.14.594-2.183,1.359-3.271,2.027-1.065.708-2.021,1.57-3.031,2.34-.931.87-1.847,1.755-2.729,2.662a35.925,35.925,0,0,0-8.43,16.59,13.705,13.705,0,0,0-.322,1.835l-.259,1.844c-.076,1.238-.143,2.478-.15,3.713l.075,1.854a12.541,12.541,0,0,0,.144,1.847,36.872,36.872,0,0,0,4.669,13.957,35.159,35.159,0,0,0,16.594,14.5c.568.24,1.2.475,1.732.683a1.228,1.228,0,0,0,.977-.041,1.322,1.322,0,0,0,.687-.781,1.206,1.206,0,0,0,.062-.27l.012-.144,0-.242.007-1a61.149,61.149,0,0,1,8.429-30.086l0,.081A57.815,57.815,0,0,1,706.721,453.591Z" transform="translate(-166.301 -337.398)"/><path class="cls-1" d="M866.489,449.669l.067.165a6.338,6.338,0,0,1-6.51,8.691,91.944,91.944,0,0,0-24.074.7,148.459,148.459,0,0,1,1.985,42.918,150.553,150.553,0,0,1-24.879,69.229A149.593,149.593,0,0,1,762.5,618.185a149.52,149.52,0,0,1,1.739,111.779,1.505,1.505,0,0,1-2.913-.448,150.162,150.162,0,0,0-94.8-131.422,1.51,1.51,0,0,1,.291-2.9,149.925,149.925,0,0,1,85.049,10.749,149.455,149.455,0,0,0-6.609-92.6q-2.454-6.045-5.371-11.764a56.946,56.946,0,0,0,27.06-.589,3.947,3.947,0,0,0,1.684-6.663,57.321,57.321,0,0,1,18.192-94.357l.01,0a56.966,56.966,0,0,1,20.415-4.212.139.139,0,0,1,.075.024A92.5,92.5,0,0,1,866.489,449.669Z" transform="translate(-166.301 -337.398)"/><path class="cls-2" d="M866.489,449.669a6.374,6.374,0,0,1-2.7,8.1,6.092,6.092,0,0,1-2.2.752,9.652,9.652,0,0,1-2.335-.035c-1.55-.142-3.1-.249-4.659-.308a91.835,91.835,0,0,0-18.606,1.134l.071-.1a148.651,148.651,0,0,1,1.681,46.564A150.961,150.961,0,0,1,762.917,618.93l.368-1.078a150.929,150.929,0,0,1,8.058,93.945c-.5,1.939-.937,3.893-1.479,5.82l-1.719,5.756c-.622,1.9-1.313,3.783-1.966,5.676l-.5,1.418a3.054,3.054,0,0,1-4.884,1.262,2.871,2.871,0,0,1-.856-1.269,2.931,2.931,0,0,1-.158-.715l-.024-.254-.014-.184a154.127,154.127,0,0,0-3.272-23.284,149.051,149.051,0,0,0-47.112-79.608,144.643,144.643,0,0,0-18.836-14,150.114,150.114,0,0,0-20.761-10.942l-2.707-1.142-.676-.286-.339-.143-.169-.071-.32-.149a3.32,3.32,0,0,1-1.822-2.613,3.31,3.31,0,0,1,2.634-3.663,2.182,2.182,0,0,1,.259-.047l.186-.028.373-.054,2.98-.433c3.974-.57,7.975-.937,11.98-1.189a147.634,147.634,0,0,1,24.047.514,153.434,153.434,0,0,1,46.331,12.272l-2.257,1.105a151.772,151.772,0,0,0,4.212-26.175,147.945,147.945,0,0,0-.5-26.535,149.794,149.794,0,0,0-15.021-50.784l-.984-1.967,2.133.484a56.163,56.163,0,0,0,20.826.763c1.729-.262,3.448-.6,5.144-1.028l.638-.156c.162-.064.336-.1.491-.177a2.911,2.911,0,0,0,.851-.573,3.1,3.1,0,0,0,.5-3.843,2.861,2.861,0,0,0-.314-.423l-.177-.2-.237-.238-.953-.959c-1.257-1.291-2.449-2.647-3.575-4.053a57.878,57.878,0,0,1,43.945-94.117h.019a.623.623,0,0,1,.167.057l-.053-.025a92.751,92.751,0,0,1,59.119,54.068Zm0,0a92.556,92.556,0,0,0-59.23-53.7l-.052-.025a.011.011,0,0,0,.018.009h.019A56.749,56.749,0,0,0,764.509,488.7c1.112,1.354,2.286,2.658,3.523,3.9l.937.92.237.232.271.294a4.485,4.485,0,0,1,.485.64,4.8,4.8,0,0,1-.7,5.954,4.656,4.656,0,0,1-1.337.924,7.265,7.265,0,0,1-.759.281l-.655.169c-1.743.465-3.513.831-5.3,1.123a58.1,58.1,0,0,1-21.558-.536l1.149-1.482a151.142,151.142,0,0,1,16.7,78.454,147.069,147.069,0,0,1-4.048,26.776l-.468,1.886-1.79-.781a150.02,150.02,0,0,0-45.35-11.788,143.974,143.974,0,0,0-23.482-.393c-3.909.264-7.811.64-11.686,1.215l-2.9.435-.363.055-.181.027c-.059.008-.145.021-.107.02a.347.347,0,0,0,.151-.081.327.327,0,0,0,.136-.285.438.438,0,0,0-.191-.285l1.232.518,2.78,1.158A148.5,148.5,0,0,1,711.835,623.6,152.579,152.579,0,0,1,759.7,705.316c.832,3.922,1.548,7.87,2.074,11.845.51,3.977.879,7.971,1.082,11.973l.012.188c0,.068.008.135.011.116,0,.009,0,.02,0,.009s-.029-.039-.042-.051c-.047-.017.01.006,0,0s-.023.018-.038.027-.026.049.025-.052l.5-1.383c.662-1.848,1.361-3.683,1.993-5.542l1.753-5.624c.553-1.884,1.008-3.8,1.518-5.693a148.652,148.652,0,0,0-6.88-92.612l-.295-.709.663-.369a149.288,149.288,0,0,0,73.812-158.2l-.016-.088.087-.014a92,92,0,0,1,18.638-1.05c1.556.066,3.111.18,4.661.329a9.505,9.505,0,0,0,2.322.046,6.023,6.023,0,0,0,2.19-.736,6.351,6.351,0,0,0,2.72-8.059Z" transform="translate(-166.301 -337.398)"/><path class="cls-1" d="M759.306,355.283a150.15,150.15,0,0,0-146.885,3.109,149.9,149.9,0,0,0-33.629-3l-.1.006c-.715.021-1.439.045-2.163.069a12.125,12.125,0,0,0-3.232.838,12.522,12.522,0,0,0-2.889,21.562l.013,0a394.328,394.328,0,0,0,90.88,52.384c.657.262,1.317.533,1.97.786a150.461,150.461,0,0,1,31.685,17.742,57.311,57.311,0,0,0,78.786,49.923,57.305,57.305,0,0,1,13.068-98.734l.01,0a56.971,56.971,0,0,1,20.469-4.212A149.645,149.645,0,0,0,759.306,355.283ZM658.085,374.492a8.053,8.053,0,0,1-.013,2.466,8.247,8.247,0,0,1-3.58,1.443,8.191,8.191,0,0,1-9.234-9.4,7.966,7.966,0,0,1,2.456-1.181,2.861,2.861,0,0,1,.293-.076,5.9,5.9,0,0,1,.816-.17A8.175,8.175,0,0,1,658.085,374.492Z" transform="translate(-166.301 -337.398)"/><path class="cls-2" d="M759.306,355.283A154.721,154.721,0,0,0,723.491,341.8a147.958,147.958,0,0,0-75.743,2.012l-4.554,1.456c-1.52.478-3.041.953-4.517,1.558-2.966,1.165-5.977,2.212-8.883,3.521a150.173,150.173,0,0,0-16.955,8.758l-.266.16-.318-.062a149.23,149.23,0,0,0-17.769-2.375q-4.47-.325-8.953-.384c-1.493-.019-2.986-.013-4.479.009l-2.217.054-2.265.094.086-.006a11.555,11.555,0,0,0-6.039,2.74,11.283,11.283,0,0,0-3.472,5.614,10.548,10.548,0,0,0-.364,3.3,10.4,10.4,0,0,0,.622,3.251,10.974,10.974,0,0,0,3.841,5.275l-.3-.172.013,0,.153.063.152.115q14.3,10.779,29.48,20.281c10.1,6.353,20.5,12.2,31.128,17.6s21.47,10.375,32.548,14.8a149.557,149.557,0,0,1,31.65,17.8l.72.529.048.887a55.218,55.218,0,0,0,2.264,12.944,48.314,48.314,0,0,0,2.288,6.176c.445,1,.865,2.022,1.4,2.984.516.969.971,1.973,1.563,2.9a55.17,55.17,0,0,0,18.064,18.9A56.677,56.677,0,0,0,747.2,501.2a55.717,55.717,0,0,0,26.07-3.663l-.289,2.187A58.026,58.026,0,0,1,807.291,395.6l-.125.26a145.26,145.26,0,0,0-21.756-22.838A150.514,150.514,0,0,0,759.306,355.283Zm0,0a150.563,150.563,0,0,1,26.175,17.655,153.11,153.11,0,0,1,21.941,22.724l.2.253-.323.007a56.638,56.638,0,0,0-52.749,39.595A56.382,56.382,0,0,0,774.513,497.7l1.782,1.322-2.071.865A58.689,58.689,0,0,1,701.2,475.531c-.637-.985-1.14-2.044-1.694-3.076s-1.024-2.1-1.5-3.174a51.937,51.937,0,0,1-2.46-6.577,58.968,58.968,0,0,1-2.465-13.813l.768,1.415A151.653,151.653,0,0,0,663,432.99c-11.156-4.5-22.093-9.562-32.8-15.049-10.668-5.566-21.109-11.568-31.225-18.076-10.145-6.464-19.9-13.518-29.387-20.9l.305.178-.013-.006-.169-.073-.128-.1a13.67,13.67,0,0,1-4.667-6.623,13.708,13.708,0,0,1-.183-8.063,13.72,13.72,0,0,1,4.336-6.755,13.426,13.426,0,0,1,3.44-2.127,12.807,12.807,0,0,1,3.9-1.052l.049,0h.037l2.244-.055,2.294-.018c1.515,0,3.03.022,4.544.067q4.541.135,9.066.542a151.066,151.066,0,0,1,17.942,2.705l-.584.1a151.7,151.7,0,0,1,17.27-8.557c2.952-1.27,6.008-2.276,9.014-3.4,1.5-.583,3.038-1.036,4.577-1.493l4.61-1.388c1.534-.469,3.113-.777,4.667-1.173,1.561-.368,3.116-.766,4.682-1.109l4.733-.861c1.58-.273,3.147-.618,4.745-.776l4.771-.6c.8-.091,1.587-.226,2.386-.281l2.4-.173,4.794-.344c1.6-.1,3.2-.072,4.8-.114a149.2,149.2,0,0,1,38.07,4.25A154.813,154.813,0,0,1,759.306,355.283Z" transform="translate(-166.301 -337.398)"/><path class="cls-2" d="M658.085,374.492a9.554,9.554,0,0,1,.057,2.478l0,.026-.027.02a9.9,9.9,0,0,1-4.505,2.049,9.059,9.059,0,0,1-5.307-.659,8.658,8.658,0,0,1-4.1-3.942,9.289,9.289,0,0,1-.875-2.8,8.921,8.921,0,0,1,.1-2.942l.174-.839.581-.384a8.881,8.881,0,0,1,1.666-.84c.291-.1.587-.194.884-.269a8.127,8.127,0,0,1,.981-.19l-.134.032c.36-.04.719-.077,1.068-.1.336.007.667.01,1,.028a9.418,9.418,0,0,1,1.936.4,9.316,9.316,0,0,1,3.257,1.883,10.226,10.226,0,0,1,2.187,2.795A9.86,9.86,0,0,1,658.085,374.492Zm0,0a6.84,6.84,0,0,0-1.293-3.107,6.644,6.644,0,0,0-2.548-2.058,6.932,6.932,0,0,0-3.032-.652,8.467,8.467,0,0,0-1.467.17l-.7.18-.606.242-.134.032a4.5,4.5,0,0,1-.477.239q-.273.137-.527.3a7.41,7.41,0,0,0-.963.68l.754-1.223a7.871,7.871,0,0,0,.048,1.845,8.686,8.686,0,0,0,.449,1.8,8.075,8.075,0,0,0,2.142,3.176,7.846,7.846,0,0,0,1.732,1.163,7.569,7.569,0,0,0,2.108.621,6.773,6.773,0,0,0,4.463-.994l-.029.047A6.981,6.981,0,0,0,658.085,374.492Z" transform="translate(-166.301 -337.398)"/><circle class="cls-1" cx="615.113" cy="94.893" r="44.717"/><path class="cls-1" d="M379.119,505.149V606.968A10.334,10.334,0,0,1,368.785,617.3H310.73a2.439,2.439,0,0,1-2.439-2.44V603.023a2.439,2.439,0,0,1,2.439-2.439h47.718a3.947,3.947,0,0,0,3.947-3.947v-23.1H318.624A10.334,10.334,0,0,1,308.291,563.2V505.149a2.439,2.439,0,0,1,2.439-2.439h11.846a2.439,2.439,0,0,1,2.439,2.439v47.718a3.947,3.947,0,0,0,3.947,3.946H362.4V505.149a2.439,2.439,0,0,1,2.439-2.439H376.68A2.439,2.439,0,0,1,379.119,505.149Z" transform="translate(-166.301 -337.398)"/><path class="cls-1" d="M291.24,469.275V571.094a2.439,2.439,0,0,1-2.44,2.439H266.627a2.439,2.439,0,0,1-2.439-2.439v-58.4l-14.277,43.635-3.145,9.606a10.335,10.335,0,0,1-9.821,7.118H220.587a10.332,10.332,0,0,1-9.822-7.122l-3.141-9.6-14.271-43.6v58.371a2.439,2.439,0,0,1-2.439,2.439H168.741a2.44,2.44,0,0,1-2.44-2.439V469.275a10.334,10.334,0,0,1,10.334-10.334h9.221a10.334,10.334,0,0,1,9.821,7.12q14.769,45.132,29.537,90.266h0a3.736,3.736,0,0,0,7.1,0h0l29.543-90.267a10.333,10.333,0,0,1,9.821-7.119h9.227A10.334,10.334,0,0,1,291.24,469.275Z" transform="translate(-166.301 -337.398)"/><path class="cls-3" d="M728.736,559.247v11.845a2.44,2.44,0,0,1-2.44,2.44H645.7A10.334,10.334,0,0,1,635.369,563.2V461.379a2.441,2.441,0,0,1,2.44-2.44h22.173a2.44,2.44,0,0,1,2.439,2.44V552.86a3.947,3.947,0,0,0,3.947,3.947H726.3A2.439,2.439,0,0,1,728.736,559.247Z" transform="translate(-166.301 -337.398)"/><path class="cls-3" d="M433.225,479.611V503.93a3.947,3.947,0,0,0,3.947,3.946h56.547a10.334,10.334,0,0,1,10.334,10.334V563.2a10.334,10.334,0,0,1-10.334,10.334H408.612a2.44,2.44,0,0,1-2.439-2.44V559.253a2.44,2.44,0,0,1,2.439-2.44h64.442A3.947,3.947,0,0,0,477,552.867V528.541a3.947,3.947,0,0,0-3.947-3.946H416.506a10.334,10.334,0,0,1-10.333-10.334V469.273a10.334,10.334,0,0,1,10.333-10.334h85.107a2.44,2.44,0,0,1,2.44,2.44v11.845a2.439,2.439,0,0,1-2.44,2.44H437.172A3.947,3.947,0,0,0,433.225,479.611Z" transform="translate(-166.301 -337.398)"/><path class="cls-3" d="M590.923,609.57,557.95,543.624a2.439,2.439,0,0,1,2.182-3.53h21.6a2.44,2.44,0,0,1,2.182,1.348l32.973,65.946a2.439,2.439,0,0,1-2.182,3.53h-21.6A2.44,2.44,0,0,1,590.923,609.57Z" transform="translate(-166.301 -337.398)"/><path class="cls-3" d="M520.771,469.273V563.2a10.334,10.334,0,0,0,10.334,10.334h77.212A10.334,10.334,0,0,0,618.651,563.2V469.273a10.334,10.334,0,0,0-10.334-10.334H531.105A10.334,10.334,0,0,0,520.771,469.273Zm27.058,83.594V479.611a3.947,3.947,0,0,1,3.947-3.947h35.876a3.947,3.947,0,0,1,3.947,3.947v73.256a3.947,3.947,0,0,1-3.947,3.946H551.776A3.947,3.947,0,0,1,547.829,552.867Z" transform="translate(-166.301 -337.398)"/><path class="cls-1" d="M216.456,484.475" transform="translate(-166.301 -337.398)"/></svg>