<?xml version="1.0" encoding="utf-8"?>
<!-- Generator: Adobe Illustrator 16.0.0, SVG Export Plug-In . SVG Version: 6.00 Build 0)  -->
<!DOCTYPE svg PUBLIC "-//W3C//DTD SVG 1.1//EN" "http://www.w3.org/Graphics/SVG/1.1/DTD/svg11.dtd">
<svg version="1.1" id="Слой_1" xmlns="http://www.w3.org/2000/svg" xmlns:xlink="http://www.w3.org/1999/xlink" x="0px" y="0px"
	 width="1000px" height="1000px" viewBox="0 0 1000 1000" enable-background="new 0 0 1000 1000" xml:space="preserve">
<g>
	<defs>
		<rect id="SVGID_1_" width="1000" height="1000"/>
	</defs>
	<clipPath id="SVGID_2_">
		<use xlink:href="#SVGID_1_"  overflow="visible"/>
	</clipPath>
	<path clip-path="url(#SVGID_2_)" fill="#cccccc" d="M860,500c0,198.822-161.178,360-360,360c-198.823,0-360-161.178-360-360
		c0-198.823,161.177-360,360-360C698.822,140,860,301.177,860,500"/>
	
		<circle clip-path="url(#SVGID_2_)" fill="none" stroke="#131313" stroke-width="3" stroke-miterlimit="10" cx="500" cy="500" r="360"/>
</g>
<g>
	<defs>
		<rect id="SVGID_3_" width="1000" height="1000"/>
	</defs>
	<clipPath id="SVGID_4_">
		<use xlink:href="#SVGID_3_"  overflow="visible"/>
	</clipPath>
	<path clip-path="url(#SVGID_4_)" fill="#cc1111" d="M373,382c22.745,34.159,59.504,99.09,73,189
		c14.771,98.403-5.736,177.342-19,217c24.333-24,48.667-48,73-72l72,72c-13.277-39.988-33.521-118.802-19-217
		c13.239-89.535,49.359-154.475,72-189c13.842,31.009,27.928,70.327,37,117c5.065,26.057,7.763,50.264,9,72h117
		c-38.922-54.021-82.596-125.981-118-216c-20.27-51.538-34.245-99.884-44-143c-11.845,42.097-28.929,91.199-54,144
		c-23.341,49.157-48.523,90.819-72,125c-23.714-33.867-49.328-75.521-73-125c-25.334-52.952-42.353-102.134-54-144
		c-10.338,43.427-24.733,91.696-45,143c-35.056,88.74-77.475,160.727-116,216h117c1.371-21.924,4.116-46.098,9-72
		C346.667,453.037,359.784,413.753,373,382"/>
	<path clip-path="url(#SVGID_4_)" fill="none" stroke="#131313" stroke-width="3" stroke-miterlimit="10" d="M373,382
		c22.745,34.159,59.504,99.09,73,189c14.771,98.403-5.736,177.342-19,217c24.333-24,48.667-48,73-72l72,72
		c-13.277-39.988-33.521-118.802-19-217c13.239-89.535,49.359-154.475,72-189c13.842,31.009,27.928,70.327,37,117
		c5.065,26.057,7.763,50.264,9,72h117c-38.922-54.021-82.596-125.981-118-216c-20.27-51.538-34.245-99.884-44-143
		c-11.845,42.097-28.929,91.199-54,144c-23.341,49.157-48.523,90.819-72,125c-23.714-33.867-49.328-75.521-73-125
		c-25.334-52.952-42.353-102.134-54-144c-10.338,43.427-24.733,91.696-45,143c-35.056,88.74-77.475,160.727-116,216h117
		c1.371-21.924,4.116-46.098,9-72C346.667,453.037,359.784,413.753,373,382z"/>
</g>
</svg>
