<svg xmlns="http://www.w3.org/2000/svg" viewBox="0 0 1200 300"><defs><style>.cls-1{fill:#121221;}.cls-2{fill:#555ccc;}</style></defs><title>otherPDF</title><g id="Слой_2" data-name="Слой 2"><g id="Слой_3" data-name="Слой 3"><g id="otherPDF"><path class="cls-1" d="M50,120a50,50,0,1,0,50,50A50.005,50.005,0,0,0,50,120Zm0,80a30,30,0,1,1,30-30A30,30,0,0,1,50,200Z"/><path class="cls-1" d="M430.469,180a50.01,50.01,0,0,0,0-20,50,50,0,0,0-97.98,0,50.01,50.01,0,0,0,0,20,49.987,49.987,0,0,0,82.67,26.94q-7.965-6.375-15.94-12.75A29.992,29.992,0,0,1,353.2,180Zm-48.99-40a29.979,29.979,0,0,1,28.28,20H353.2A29.979,29.979,0,0,1,381.479,140Z"/><path class="cls-1" d="M211.479,170a50,50,0,0,1-100,0V80h20v40h30v20h-30v30a30,30,0,0,0,60,0Z"/><path class="cls-1" d="M517.2,127.13q-5.145,8.58-10.29,17.15A29.99,29.99,0,0,0,461.479,170v50h-20V120h20v10.01a49.958,49.958,0,0,1,55.72-2.88Z"/><path class="cls-1" d="M321.479,170v50h-20V170a30,30,0,0,0-60,0v50h-20V80h20v50.01a49.99,49.99,0,0,1,80,39.99Z"/><g id="pdf"><polygon class="cls-1" points="1120 120 1120 140 1180 140 1180 160 1120 160 1120 200 1100 200 1100 100 1200 100 1200 120 1120 120"/><path class="cls-1" d="M1038.691,100h-50V200h50a50,50,0,0,0,0-100Zm0,80h-30V120h30a30,30,0,0,1,0,60Z"/><path class="cls-1" d="M947.381,100h-70V200h20V160h50a30,30,0,0,0,0-60Zm0,40h-50V120h50a10,10,0,0,1,0,20Z"/><path class="cls-1" d="M700.184,0a150,150,0,1,0,150,150A150,150,0,0,0,700.184,0Zm0,280a130,130,0,1,1,130-130A130,130,0,0,1,700.184,280Z"/><path class="cls-2" d="M770.184,135v60a20,20,0,0,1-20,20h-100a20,20,0,0,1-20-20V135a20,20,0,0,1,20-20h0v80h100V115h0A20,20,0,0,1,770.184,135Z"/><path class="cls-2" d="M730.184,145l-30,30-30-30h20V85a10,10,0,0,1,10-10h0a10,10,0,0,1,10,10v60Z"/></g></g></g></g></svg>