<svg xmlns="http://www.w3.org/2000/svg" viewBox="0 0 120.951 150.951"><defs><style>.a{fill:#cc1111;}.a,.b{stroke:#1c1e20;stroke-miterlimit:10;stroke-width:0.951px;}.b{fill:#ccc;}</style></defs><title>private</title><rect class="a" x="0.475" y="0.475" width="120" height="150" rx="14"/><path class="b" d="M20.475,30.475h75a5,5,0,0,1,5,5v5a0,0,0,0,1,0,0h-80a0,0,0,0,1,0,0v-10A0,0,0,0,1,20.475,30.475Z"/><path class="b" d="M25.475,90.475h75a0,0,0,0,1,0,0v5a5,5,0,0,1-5,5h-75a0,0,0,0,1,0,0v-5A5,5,0,0,1,25.475,90.475Z"/><path class="b" d="M25.475,110.475h70a5,5,0,0,1,5,5v5a0,0,0,0,1,0,0h-75a5,5,0,0,1-5-5v0a5,5,0,0,1,5-5Z" transform="translate(120.951 230.951) rotate(-180)"/><circle class="b" cx="60.475" cy="135.475" r="10"/><path class="b" d="M25.475,70.475h75a0,0,0,0,1,0,0v5a5,5,0,0,1-5,5h-75a0,0,0,0,1,0,0v-5A5,5,0,0,1,25.475,70.475Z"/><path class="b" d="M25.475,50.475h75a0,0,0,0,1,0,0v5a5,5,0,0,1-5,5h-75a0,0,0,0,1,0,0v-5A5,5,0,0,1,25.475,50.475Z"/></svg>