<svg xmlns="http://www.w3.org/2000/svg" viewBox="0 0 144.007 153"><defs><style>.cls-1,.cls-3{fill:#1d1c20;}.cls-2,.cls-4{fill:#cccccc;}.cls-3,.cls-4{opacity:0.38;}.cls-3,.cls-4,.cls-5{isolation:isolate;}.cls-5,.cls-6{fill:#131313;}.cls-5{opacity:0.62;}</style></defs><title>pro_download</title><g id="Слой_2" data-name="Слой 2"><g id="Слой_1-2" data-name="Слой 1"><g id="pro_download"><g id="project"><g id="project-2"><path class="cls-1" d="M27.007,18V99a27,27,0,0,0-27,27V45A27,27,0,0,1,27.007,18Z"/><path class="cls-1" d="M36.007,45v72h-9A26.884,26.884,0,0,0,6.9,126a26.539,26.539,0,0,0-5.35,9,27.01,27.01,0,0,1,25.46-36V45Z"/><path class="cls-2" d="M108.007,45V153h-81a27.013,27.013,0,0,1-25.46-18,26.539,26.539,0,0,1,5.35-9,26.884,26.884,0,0,1,20.11-9h9V45Z"/><path class="cls-3" d="M108.007,45V153h-81a27.013,27.013,0,0,1-25.46-18,26.539,26.539,0,0,1,5.35-9,26.884,26.884,0,0,1,20.11-9h9V45Z"/><path class="cls-4" d="M27.007,18V99a27,27,0,0,0-27,27V45A27,27,0,0,1,27.007,18Z"/><path class="cls-2" d="M99.007,32v81a9,9,0,0,0-18,0V32a9,9,0,0,1,18,0Z"/><path class="cls-5" d="M99.007,32v81a9,9,0,0,0-18,0V32a9,9,0,0,1,18,0Z"/><path class="cls-1" d="M99.007,113l-9,18-.02-.04-2.15-4.31L81.007,113a9,9,0,0,1,18,0Z"/><path class="cls-2" d="M89.987,130.96a4.514,4.514,0,0,1-4.48,4.04h-45a4.5,4.5,0,0,1,0-9h45a4.5,4.5,0,0,1,2.33.65Z"/></g></g><g id="download"><path class="cls-6" d="M103.507,0a40.5,40.5,0,1,0,40.5,40.5A40.5,40.5,0,0,0,103.507,0Zm0,75.938A35.438,35.438,0,1,1,138.945,40.5,35.441,35.441,0,0,1,103.507,75.938Z"/><path class="cls-6" d="M128.82,40.5,103.507,65.813,78.195,40.5H88.32L98.445,50.625V20.25a5.063,5.063,0,0,1,10.125,0V50.625L118.7,40.5Z"/></g></g></g></g></svg>