<svg xmlns="http://www.w3.org/2000/svg" viewBox="0 0 55.441 90.968"><defs><style>.cls-1{fill:#1d1e20;stroke:#fff;}.cls-1,.cls-2{stroke-miterlimit:10;}.cls-2{fill:#fff;stroke:#1d1e20;}</style></defs><title>Quiz</title><g id="Слой_2" data-name="Слой 2"><g id="Слой_1-2" data-name="Слой 1"><g id="Quiz"><path class="cls-1" d="M18.721,72.5c.074,1.46.768,3.727,9,9a96.125,96.125,0,0,0,18,9q-7.71-3.716-9-9c-.849-3.476.965-5.095,0-9-.816-3.3-3.792-8.939-9-9C22.794,63.444,18.511,68.409,18.721,72.5Z"/><path class="cls-2" d="M27.721.5c-15.306,0-25.437,15.183-27,27-1.28,9.675,3.173,17.179,9,27,5.4,9.107,10.68,18,18,18s12.6-8.893,18-18c5.827-9.821,10.279-17.325,9-27C53.158,15.683,43.026.5,27.721.5Z"/><path class="cls-1" d="M12.062,26.578c3.207-2.209,13.766,4.912,15.593,13.1.251,1.128.744,3.487-.539,5.007-1.837,2.175-6.374,1.52-9.062.145C11.014,41.235,8.907,28.751,12.062,26.578Z"/><path class="cls-1" d="M46.967,25.993c-2.756-.9-7.25,4.325-9,9-.684,1.827-2.425,6.478,0,9,2.125,2.209,6.5,1.8,9,0C52.637,39.909,50.667,27.2,46.967,25.993Z"/><path class="cls-2" d="M29.721,63.833c-.011.2,1.774.694,3.666.334a4.412,4.412,0,0,0,2.424-1.051c-.043-.144-.967.11-3.257.384A16.351,16.351,0,0,0,29.721,63.833Z"/></g></g></g></svg>