<svg xmlns="http://www.w3.org/2000/svg" viewBox="0 0 116.029 116.6"><defs><style>.a{fill:#cccccc;}</style></defs><title>recycle</title><path class="a" d="M110.978,86.6q-5.37-9.3-10.74-18.59l-6.63-11.49,17.37-10.02C111.558,47.56,122.048,67.23,110.978,86.6Z"/><path class="a" d="M110.978,86.6c-9.67,16.93-27.86,19.71-30,20v10l-20-20,10-10,10-10v10Z"/><path class="a" d="M60.908,0c19.5-.09,31,14.273,32.32,15.981l8.66-5Q98.227,24.649,94.568,38.3l-13.66-3.661-13.661-3.66,8.661-5Z"/><path class="a" d="M60.908,0q-5.37,9.3-10.73,18.6-3.318,5.742-6.635,11.486Q34.861,25.067,26.18,20.05C26.808,19.018,38.6.1,60.908,0Z"/><path class="a" d="M10.981,86.6C1.154,69.763,7.841,52.62,8.66,50.622l-8.66-5L27.321,38.3q1.833,6.843,3.66,13.66t3.66,13.66l-8.66-5Z"/><path class="a" d="M10.981,86.6q10.739,0,21.469-.006l13.266,0q0,10.026-.008,20.053C44.5,106.625,22.221,105.875,10.981,86.6Z"/></svg>