<svg xmlns="http://www.w3.org/2000/svg" viewBox="0 0 91 73"><defs><style>.cls-1,.cls-3,.cls-6{fill:#cccccc;}.cls-1{stroke:#1d1e20;stroke-miterlimit:10;}.cls-2,.cls-4,.cls-5{fill:#1d1e20;}.cls-3,.cls-4{opacity:0.38;}.cls-5{opacity:0.62;}</style></defs><title>study</title><g id="Слой_2" data-name="Слой 2"><g id="project"><g id="study"><rect class="cls-1" x="0.5" y="0.5" width="90" height="72"/><polygon class="cls-2" points="70.316 14.5 58.859 25.951 20.684 25.951 32.135 14.5 70.316 14.5"/><path class="cls-2" d="M54.148,31.18h-.005c.005.089.005.172.005.261,0,3.9-4.214,7.059-9.411,7.059s-9.412-3.158-9.412-7.059c0-.089,0-.172,0-.261h0V25.951H54.148Z"/><path class="cls-2" d="M54.5,53.331c-.11,7.32-4.1,13.19-9,13.19s-8.91-5.91-9-13.25a16.054,16.054,0,0,1,18,.06Z"/><path class="cls-3" d="M45.53,50.541a16.214,16.214,0,0,0-9.03,2.73v-.25c0-7.46,4.03-13.5,9-13.5C45.51,43.191,45.52,46.871,45.53,50.541Z"/><path class="cls-3" d="M54.5,53.021v.31a16.309,16.309,0,0,0-8.97-2.79c-.01-3.67-.02-7.35-.03-11.02C50.47,39.521,54.5,45.561,54.5,53.021Z"/><path class="cls-4" d="M45.53,50.54a16.214,16.214,0,0,0-9.03,2.73v-.25c0-7.46,4.03-13.5,9-13.5C45.51,43.19,45.52,46.87,45.53,50.54Z"/><path class="cls-5" d="M54.5,53.02v.31a16.309,16.309,0,0,0-8.97-2.79c-.01-3.67-.02-7.35-.03-11.02C50.47,39.52,54.5,45.56,54.5,53.02Z"/><ellipse class="cls-6" cx="45.53" cy="50.541" rx="1.233" ry="2.813"/></g></g></g></svg>