<svg id="Слой_1" data-name="Слой 1" xmlns="http://www.w3.org/2000/svg" viewBox="0 0 576 576"><defs><style>.cls-1{fill:#e1e2e2;}.cls-2{fill:#201f1f;}</style></defs><title>toward</title><circle class="cls-1" cx="288" cy="288" r="288"/><path class="cls-2" d="M713.91,531.72,643.5,609.16a8.65,8.65,0,0,1-12.82,0l-70.41-77.44a8.67,8.67,0,0,1,6.41-14.5h33.86C590,468.75,546.44,432,495,432c-59.25,0-108,48.75-108,108a36,36,0,0,1-72,0c0-98.75,81.25-180,180-180,91,0,167.21,69.06,178.54,157.22h34A8.67,8.67,0,0,1,713.91,531.72Z" transform="translate(-212 -212)"/></svg>