<svg xmlns="http://www.w3.org/2000/svg" viewBox="0 0 144 153"><defs><style>.cls-1{fill:#e1e0e0;}.cls-2{fill:#1c1d20;}</style></defs><title>tra_download</title><g id="Слой_2" data-name="Слой 2"><g id="Слой_1-2" data-name="Слой 1"><g id="tra_download"><g id="project"><g id="transit"><path class="cls-1" d="M116.965,77.82a54.013,54.013,0,0,1-45,53.25v9.1a62.609,62.609,0,0,1-18,0v-9.1a54,54,0,1,1,63-53.25Z"/><path class="cls-2" d="M71.965,42.27a22.231,22.231,0,0,0-4.5-.45h-22.5v72h9v-13h18v-9h-18v-5h13.5a22.231,22.231,0,0,0,4.5-.45,22.506,22.506,0,0,0,0-44.1Zm-4.5,35.55h-13.5v-27h13.5a13.5,13.5,0,1,1,0,27Z"/><path class="cls-2" d="M80.205,138.42l8.22,8.22L82.055,153l-19.09-19.09,19.09-19.09,6.37,6.36-7.62,7.62a54.012,54.012,0,1,0-26.84,2.27v9.1a62.978,62.978,0,1,1,26.24-1.75Z"/></g></g><g id="download"><path class="cls-2" d="M103.5,0A40.5,40.5,0,1,0,144,40.5,40.5,40.5,0,0,0,103.5,0Zm0,75.938A35.438,35.438,0,1,1,138.938,40.5,35.442,35.442,0,0,1,103.5,75.938Z"/><path class="cls-2" d="M128.813,40.5,103.5,65.813,78.187,40.5H88.312L98.438,50.625V20.25a5.063,5.063,0,0,1,10.125,0V50.625L118.688,40.5Z"/></g></g></g></g></svg>