<svg xmlns="http://www.w3.org/2000/svg" viewBox="0 0 126 138.18"><defs><style>.cls-1{fill:#cccccc;}.cls-2{fill:#131313;}</style></defs><title>transit</title><g id="Слой_2" data-name="Слой 2"><g id="project"><g id="transit"><path class="cls-1" d="M117,63a54.013,54.013,0,0,1-45,53.25v9.1a62.633,62.633,0,0,1-18,0v-9.1A54,54,0,1,1,117,63Z"/><path class="cls-2" d="M72,27.45A22.229,22.229,0,0,0,67.5,27H45V99h9V86H72V77H54V72H67.5a22.229,22.229,0,0,0,4.5-.45,22.506,22.506,0,0,0,0-44.1ZM67.5,63H54V36H67.5a13.5,13.5,0,0,1,0,27Z"/><path class="cls-2" d="M80.24,123.6l8.22,8.22-6.37,6.36L63,119.09,82.09,100l6.37,6.36-7.62,7.62A54.012,54.012,0,1,0,54,116.25v9.1a62.978,62.978,0,1,1,26.24-1.75Z"/></g></g></g></svg>