<svg xmlns="http://www.w3.org/2000/svg" viewBox="0 0 214.863 90.161"><defs><style>.cls-1{fill:#1d1e20;}.cls-2{fill:#E1E123;}</style></defs><title>Autobiography</title><g id="Слой_2" data-name="Слой 2"><g id="Слой_1-2" data-name="Слой 1"><g id="Autobiography"><path class="cls-1" d="M107.532.1a6.77,6.77,0,0,0-1.04,0,27.109,27.109,0,0,0-26.48,26.98v54a9,9,0,0,0,18,0v-18h18v18a9,9,0,0,0,18,0v-54A27.109,27.109,0,0,0,107.532.1Zm8.48,44.98h-18v-18a9,9,0,1,1,18,0Z"/><path class="cls-1" d="M23.512,35.29a8.984,8.984,0,0,1-4.79-4.79A9.189,9.189,0,0,0,23.512,35.29Z"/><path class="cls-1" d="M23.512,18.71a9.189,9.189,0,0,0-4.79,4.79A8.984,8.984,0,0,1,23.512,18.71Z"/><path class="cls-1" d="M81.012,27c0-.16,0-.31-.01-.46C80.782,15.79,72.9,9.66,72.012,9l-45-9a27,27,0,0,0,0,54l34.96-6.99C51.292,67.35,42.452,72.03,36.012,72c-10.18-.05-16.86-11.88-27-9-4.34,1.23-8.75,5-9,9-.48,7.58,13.91,16.73,27,18,23.33,2.27,49.18-19.87,54-45A49.084,49.084,0,0,0,81.012,27Zm-49.78,7.94A8.864,8.864,0,0,1,27.012,36a8.961,8.961,0,0,1-1.81-.18,6.278,6.278,0,0,1-.85-.23,5.982,5.982,0,0,1-.84-.3,8.984,8.984,0,0,1-4.79-4.79,5.982,5.982,0,0,1-.3-.84,6.278,6.278,0,0,1-.23-.85,9.19,9.19,0,0,1,0-3.62,6.278,6.278,0,0,1,.23-.85,2.3,2.3,0,0,1,.14-.42,2.613,2.613,0,0,1,.16-.42,8.984,8.984,0,0,1,4.79-4.79,2.613,2.613,0,0,1,.42-.16,2.3,2.3,0,0,1,.42-.14,6.278,6.278,0,0,1,.85-.23,8.961,8.961,0,0,1,1.81-.18,8.864,8.864,0,0,1,4.22,1.06Q47.117,23.02,63.012,27,47.127,30.975,31.232,34.94Z"/><path class="cls-1" d="M31.232,19.06c-1.41-.36-2.81-.71-4.22-1.06A8.864,8.864,0,0,1,31.232,19.06Z"/><path class="cls-1" d="M27.012,36c1.41-.35,2.81-.7,4.22-1.06A8.864,8.864,0,0,1,27.012,36Z"/><path class="cls-2" d="M36.012,27a8.98,8.98,0,0,1-4.78,7.94A8.864,8.864,0,0,1,27.012,36a8.961,8.961,0,0,1-1.81-.18c-.29-.07-.58-.14-.85-.23a5.982,5.982,0,0,1-.84-.3,8.984,8.984,0,0,1-4.79-4.79,5.982,5.982,0,0,1-.3-.84c-.09-.27-.16-.56-.23-.85a9.19,9.19,0,0,1,0-3.62c.07-.29.14-.58.23-.85.04-.15.09-.28.14-.42a2.613,2.613,0,0,1,.16-.42,8.984,8.984,0,0,1,4.79-4.79,2.613,2.613,0,0,1,.42-.16c.14-.05.27-.1.42-.14.27-.09.56-.16.85-.23a8.961,8.961,0,0,1,1.81-.18,8.864,8.864,0,0,1,4.22,1.06A8.98,8.98,0,0,1,36.012,27Z"/><path class="cls-1" d="M197.852,27a9,9,0,0,1-9,9c-.13,0-.26,0-.38-.01a9,9,0,0,0,0-17.98c.12-.01.25-.01.38-.01A9,9,0,0,1,197.852,27Z"/><path class="cls-1" d="M214.852,72c-.26-4-4.66-7.77-9-9-10.14-2.88-16.83,8.95-27,9-6.43.03-15.22-4.62-25.86-24.8Q170,50.59,187.012,54a27,27,0,0,0,0-54l-45,9c-.9.67-9,6.97-9,18a21.048,21.048,0,0,0,.33,3.45,48.141,48.141,0,0,0,.51,14.55c4.82,25.13,30.66,47.27,54,45C200.932,88.73,215.332,79.58,214.852,72Zm-30.18-53.42a9.237,9.237,0,0,1,2.04-.51c.1-.02.2-.05.3-.07.13,0,.25,0,.38.01h.08c.12-.01.25-.01.38-.01a9,9,0,0,1,0,18c-.13,0-.26,0-.38-.01h-.08c-.13.01-.25.01-.38.01-.1-.02-.2-.05-.3-.07a9.237,9.237,0,0,1-2.04-.51q-16.41-4.11-32.82-8.21l-.84-.21.84-.21Q168.262,22.7,184.672,18.58Z"/><path class="cls-1" d="M185.672,35.42c.68.16,1.36.34,2.04.51A9.237,9.237,0,0,1,185.672,35.42Z"/><path class="cls-1" d="M187.712,18.07c-.68.17-1.36.35-2.04.51A9.237,9.237,0,0,1,187.712,18.07Z"/><path class="cls-2" d="M196.852,27a9,9,0,0,1-9,9c-.13,0-.26,0-.38-.01h-.08c-.23-.01-.46-.03-.68-.06a9.237,9.237,0,0,1-2.04-.51,9,9,0,0,1,0-16.84,9.237,9.237,0,0,1,2.04-.51c.22-.03.45-.05.68-.06h.08c.12-.01.25-.01.38-.01A9,9,0,0,1,196.852,27Z"/></g></g></g></svg>