<svg id="Слой_1" data-name="Слой 1" xmlns="http://www.w3.org/2000/svg" viewBox="0 0 437 365.11"><defs><style>.cls-1{fill:#cccccc;}.cls-1,.cls-2{stroke:#1e1d20;stroke-miterlimit:10;stroke-width:5px;}.cls-2{fill:#df1f26;}</style></defs><title>gam</title><path class="cls-1" d="M471.135,612.055h-3.08V474.865a6.931,6.931,0,0,0-6.92-6.92,29.081,29.081,0,0,1-29.08-29.08v-13.84a29.081,29.081,0,0,1,29.08-29.08h10a33.143,33.143,0,0,1,33.14,33.14v149.83A33.137,33.137,0,0,1,471.135,612.055Z" transform="translate(-321.555 -249.445)"/><path class="cls-2" d="M468.055,612.055h-3.31a140.683,140.683,0,0,1-140.69-140.69v-78.73a140.691,140.691,0,0,1,140.69-140.69h150.86A140.448,140.448,0,0,1,756.055,392.4v79.1a140.448,140.448,0,0,1-140.45,140.45h-3.55v-72a72.006,72.006,0,0,0,72-72v-72a72.006,72.006,0,0,0-72-72H461.135a65.083,65.083,0,0,0-65.08,65.08v85.84a65.055,65.055,0,0,0,65.08,65.08,6.922,6.922,0,0,0,6.92-6.92Z" transform="translate(-321.555 -249.445)"/><path class="cls-1" d="M609.2,611.945h3.08V474.755a6.931,6.931,0,0,1,6.92-6.92,29.081,29.081,0,0,0,29.08-29.08v-13.84a29.081,29.081,0,0,0-29.08-29.08h-10a33.143,33.143,0,0,0-33.14,33.14V578.8A33.137,33.137,0,0,0,609.2,611.945Z" transform="translate(-321.555 -249.445)"/></svg>