<svg id="Слой_1" data-name="Слой 1" xmlns="http://www.w3.org/2000/svg" viewBox="0 0 440.236 345.595"><defs><style>.cls-1,.cls-5{fill:#230f10;}.cls-1,.cls-4{stroke:#1d1e20;stroke-miterlimit:10;stroke-width:5px;}.cls-2{fill:#1d1e20;}.cls-3{fill:#df1f26;opacity:0.88;}.cls-4{fill:#cccccc;}</style></defs><title>mot</title><circle class="cls-1" cx="110.788" cy="271.013" r="52.535"/><circle class="cls-1" cx="262.708" cy="298.162" r="35.301"/><path class="cls-2" d="M693.678,572.019C607.7,612.526,533.45,627.555,484.044,633.776c-85.935,10.82-125.557-1.378-151.276-18.131-10.8-7.035-38.2-24.88-48.74-58.373a89.315,89.315,0,0,1-3.9-33.446A88.4,88.4,0,0,1,323.59,454.3a76.345,76.345,0,0,0,9.771,16.3c.049.073.123.172.172.245,15.836,22.416,35.674,35.4,49.84,42.72,27.792,19.494,61.944,21.065,85.219,6.236a251.425,251.425,0,0,0,56.567,35.747C596,587.959,663.539,578.379,693.678,572.019Z" transform="translate(-279.882 -328.453)"/><path class="cls-3" d="M384.067,514.045a142.584,142.584,0,0,1-29.042-19.55,150.079,150.079,0,0,1-15.679-16.037A104.2,104.2,0,0,1,328.08,462.94a96.121,96.121,0,0,1-4.49-8.645c5.117,4.781,9.465,8.437,12.436,10.853,7.687,6.251,10.9,8.061,15.368,13.031a66,66,0,0,1,8.038,11.508C363.471,496.233,370.593,505.034,384.067,514.045Z" transform="translate(-279.882 -328.453)"/><path class="cls-4" d="M468.592,524.742a67.968,67.968,0,0,1-25.625,10.151c-26.586,4.5-48.069-9.093-59.594-16.388a118.633,118.633,0,0,1-36.157-36.162,98.813,98.813,0,0,1,23.654-5.1,115.214,115.214,0,0,1,34.42,2.974C440.1,489.089,464.127,519.025,468.592,524.742Z" transform="translate(-279.882 -328.453)"/><circle class="cls-1" cx="67.681" cy="290.56" r="52.535"/><path class="cls-2" d="M306.322,401.734c85.983-40.507,160.228-55.536,209.634-61.757,85.935-10.82,125.557,1.378,151.276,18.131,10.8,7.035,38.2,24.881,48.74,58.373a89.315,89.315,0,0,1,3.895,33.446,88.4,88.4,0,0,1-43.457,69.531,76.345,76.345,0,0,0-9.771-16.3c-.049-.073-.123-.171-.172-.245-15.836-22.416-35.674-35.4-49.84-42.72-27.792-19.494-61.944-21.065-85.219-6.236a251.425,251.425,0,0,0-56.567-35.747C404,385.794,336.461,395.374,306.322,401.734Z" transform="translate(-279.882 -328.453)"/><path class="cls-3" d="M615.933,459.708a142.625,142.625,0,0,1,29.042,19.55A150.079,150.079,0,0,1,660.654,495.3a104.248,104.248,0,0,1,11.266,15.518,96.121,96.121,0,0,1,4.49,8.645c-5.117-4.781-9.465-8.437-12.436-10.853-7.687-6.251-10.9-8.061-15.368-13.031a66,66,0,0,1-8.038-11.507C636.529,477.52,629.407,468.719,615.933,459.708Z" transform="translate(-279.882 -328.453)"/><path class="cls-4" d="M531.408,452.046A67.968,67.968,0,0,1,557.033,441.9c26.586-4.5,48.069,9.093,59.594,16.387a118.634,118.634,0,0,1,36.157,36.163,98.813,98.813,0,0,1-23.654,5.1,115.2,115.2,0,0,1-34.42-2.975C559.9,487.7,535.873,457.762,531.408,452.046Z" transform="translate(-279.882 -328.453)"/><path class="cls-2" d="M506.516,341.236c.781,8.936-91.5,28.819-94.49,20.368-1.557-4.4,20.682-17.784,41.921-22.965C478.335,332.69,506.1,336.408,506.516,341.236Z" transform="translate(-279.882 -328.453)"/><path class="cls-5" d="M420.436,352.824a111.614,111.614,0,0,1,72.451-16.565,116.01,116.01,0,0,1-72.451,16.565Z" transform="translate(-279.882 -328.453)"/><path class="cls-2" d="M650.649,348.273c-2.134,8.713-95.909-2.134-96.021-11.1-.059-4.671,25.3-10.189,47.078-8.265C626.712,331.12,651.8,343.567,650.649,348.273Z" transform="translate(-279.882 -328.453)"/><path class="cls-5" d="M565.414,331.566a111.6,111.6,0,0,1,73.929,7.613,116.009,116.009,0,0,1-73.929-7.613Z" transform="translate(-279.882 -328.453)"/><path class="cls-2" d="M718.764,434.741c-7.894,4.26-62.74-72.573-56.167-78.667,3.426-3.176,24.528,11.934,37.705,29.377C715.434,405.481,723.029,432.44,718.764,434.741Z" transform="translate(-279.882 -328.453)"/><path class="cls-5" d="M673.992,360.312a111.615,111.615,0,0,1,43.936,59.943,116.007,116.007,0,0,1-43.936-59.943Z" transform="translate(-279.882 -328.453)"/></svg>