<svg id="Слой_1" data-name="Слой 1" xmlns="http://www.w3.org/2000/svg" viewBox="0 0 707 405.774"><defs><style>.cls-1{fill:#df1f26;}.cls-2,.cls-3,.cls-4{fill:#cccccc;}.cls-2,.cls-4{stroke:#1d1e20;stroke-width:5px;}.cls-2,.cls-4,.cls-5,.cls-7{stroke-miterlimit:10;}.cls-2{opacity:0.88;}.cls-5{fill:#fff;}.cls-5,.cls-7{stroke:#231f20;}.cls-6{fill:#230f10;}.cls-7{fill:none;}.cls-8{fill:#1d1e20;}</style></defs><title>shi</title><path class="cls-1" d="M829.178,585.4a215.677,215.677,0,0,1-41.628,62.215c-42.74-1.693-87.61-2.384-134.426-1.732-51.48.715-100.585,2.979-147.084,6.356a110.96,110.96,0,0,0-92.631-68.921c67.364-3.766,139.082-5.769,214.7-5.244C698.709,578.573,765.85,581.219,829.178,585.4Z" transform="translate(-141.5 -291.195)"/><path class="cls-2" d="M414,585c71.45-6.33,149.767-9.97,234-9,63.746.734,123.887,4.027,180,9-19.158,45.979-45.387,69.132-63,81C680.438,722.982,536.552,693.646,414,585Z" transform="translate(-141.5 -291.195)"/><path class="cls-3" d="M496.18,646.47a447.387,447.387,0,0,1-37.766-25.037q-2.6-1.942-5.173-3.949A486.565,486.565,0,0,0,496.18,646.47Z" transform="translate(-141.5 -291.195)"/><path class="cls-4" d="M829.178,585.4c-63.328-4.18-130.469-6.826-201.067-7.326-75.62-.525-147.338,1.478-214.7,5.244-.207.008-.4.024-.612.032h-.008c-.032-.032-.071-.064-.1-.1-38.052-33.3-75.906-65.512-123.668-68.341-9.821-.588-39.474-2.344-51.512,14.843-1.819,2.59-7.31,11.434-.874,46.276,8.661,46.919,25.117,63.145,15.717,75.969-8.931,12.173-29.908,10.965-38.426,10.472-29.431-1.692-48.31-21.477-53.26-27.015a463,463,0,0,1-16.591-131.025c.938-52.371,1.732-97.042,27.945-113.513,32.109-20.167,67.126,24.123,128.356,32.307,113.171,15.145,154.115-114.7,274.168-128.347,109.42-12.443,258.713,74.586,270.679,197.332C848.3,523.764,842.137,555.968,829.178,585.4Z" transform="translate(-141.5 -291.195)"/><path class="cls-5" d="M639.155,473" transform="translate(-141.5 -291.195)"/><path class="cls-6" d="M506.04,652.238c-.309-.174-.619-.349-.929-.532-.723-.413-1.446-.826-2.169-1.248l-.906-.524c-.954-.556-1.907-1.112-2.869-1.684-.993-.588-1.986-1.176-2.987-1.78a486.565,486.565,0,0,1-42.939-28.986,1.452,1.452,0,0,1-.127-.1c-13.746-10.671-27.047-22.415-40.317-34.031.207-.008.4-.024.612-.032a110.96,110.96,0,0,1,92.631,68.921Z" transform="translate(-141.5 -291.195)"/><path class="cls-7" d="M413.409,583.317c-.207.008-.4.024-.612.032h-.008c-.032-.032-.071-.064-.1-.1C412.916,583.277,413.163,583.293,413.409,583.317Z" transform="translate(-141.5 -291.195)"/><path class="cls-7" d="M453.114,617.38c-.08-.055-.159-.111-.239-.174A489.247,489.247,0,0,1,412.8,583.349C426.067,594.965,439.368,606.709,453.114,617.38Z" transform="translate(-141.5 -291.195)"/><path class="cls-7" d="M412.8,583.349h-.008a.448.448,0,0,1-.1.008" transform="translate(-141.5 -291.195)"/><path class="cls-8" d="M836.442,452.867c-55.623,14.31-137.346,28.027-233.96,16.64-88.06-10.38-161.806-38.47-160.661-43.658,1.2-5.449,84.27,17.773,200.827,18.336a902.992,902.992,0,0,0,182.053-17.7Q830.572,439.677,836.442,452.867Z" transform="translate(-141.5 -291.195)"/><path class="cls-8" d="M760.268,352.839a455.913,455.913,0,0,1-108.889,30.225c-86.027,12.593-148.684-4-149.31,0-.652,4.174,66.508,28.451,148.437,23.575,56.938-3.388,102.729-19.769,133.146-33.615Z" transform="translate(-141.5 -291.195)"/><path class="cls-8" d="M529.137,334.167c.236-2.521,45.6,5.381,110.018-5.239a424.64,424.64,0,0,0,56.913-13.469L725.814,330.1a375.52,375.52,0,0,1-85.786,15.414C578.506,349.261,528.889,336.813,529.137,334.167Z" transform="translate(-141.5 -291.195)"/></svg>