<svg id="Слой_1" data-name="Слой 1" xmlns="http://www.w3.org/2000/svg" viewBox="0 0 581 574.44"><defs><style>.cls-1{fill:#cccccc;}.cls-1,.cls-3,.cls-6{stroke:#1e1d20;stroke-miterlimit:10;stroke-width:5px;}.cls-2{fill:#1d1e20;}.cls-3{fill:#230f10;}.cls-4,.cls-5,.cls-6{fill:#df1f26;}.cls-5{opacity:0.12;}.cls-6{opacity:0.88;}</style></defs><title>tab</title><path class="cls-1" d="M792,247.636V753.805c0,17.477-22.665,31.635-50.617,31.635s-50.617-14.158-50.617-31.635V247.636Z" transform="translate(-213.5 -213.5)"/><path class="cls-2" d="M716.075,279.271l12.654-12.654,12.654,12.654V785.44H716.075Z" transform="translate(-213.5 -213.5)"/><ellipse class="cls-3" cx="527.883" cy="34.136" rx="50.617" ry="31.636"/><ellipse class="cls-4" cx="527.883" cy="34.136" rx="25.308" ry="18.981"/><ellipse class="cls-5" cx="527.883" cy="540.305" rx="25.308" ry="18.981"/><path class="cls-6" d="M792,592.906c0,15.059-16.83,27.657-39.369,30.834V439.031a68.084,68.084,0,0,0,14.792-4.064c10.671-4.3,18.573-11.051,21.7-18.967a20.188,20.188,0,0,0,1.448-6.664A19.046,19.046,0,0,1,791.747,416V589.757A19.521,19.521,0,0,1,792,592.906Z" transform="translate(-213.5 -213.5)"/><path class="cls-1" d="M317.234,247.636V753.805c0,17.477-22.665,31.635-50.617,31.635S216,771.282,216,753.805V247.636Z" transform="translate(-213.5 -213.5)"/><path class="cls-2" d="M266.617,279.271l12.654-12.654,12.654,12.654V785.44H266.617Z" transform="translate(-213.5 -213.5)"/><ellipse class="cls-3" cx="53.117" cy="34.136" rx="50.617" ry="31.636"/><ellipse class="cls-4" cx="53.117" cy="34.136" rx="25.308" ry="18.981"/><ellipse class="cls-5" cx="53.117" cy="540.305" rx="25.308" ry="18.981"/><path class="cls-6" d="M216,592.906c0,15.059,16.83,27.657,39.369,30.834V439.031a68.084,68.084,0,0,1-14.792-4.064C229.906,430.665,222,423.916,218.882,416a20.188,20.188,0,0,1-1.448-6.664A19.046,19.046,0,0,0,216.253,416V589.757A19.521,19.521,0,0,0,216,592.906Z" transform="translate(-213.5 -213.5)"/><rect class="cls-5" x="78.425" y="65.771" width="424.149" height="506.169"/></svg>