<svg id="Слой_1" data-name="Слой 1" xmlns="http://www.w3.org/2000/svg" viewBox="0 0 630.577 430.951"><defs><style>.cls-1{fill:#1d1e20;}.cls-2{fill:#cccccc;stroke:#1d1e20;}.cls-2,.cls-4{stroke-miterlimit:10;stroke-width:5px;}.cls-3{fill:#230f10;}.cls-4{fill:none;stroke:#df1f26;}.cls-5{fill:#df1f26;opacity:0.88;}</style></defs><title>tra</title><path class="cls-1" d="M801,299.364V470.657H686.8V299.364a57.1,57.1,0,1,1,114.2,0Z" transform="translate(-172.923 -242.266)"/><path class="cls-2" d="M801,456.383V627.677L287.119,670.5V499.206a57.1,57.1,0,0,0-57.1-57.1L743.9,399.285A57.1,57.1,0,0,1,801,456.383Z" transform="translate(-172.923 -242.266)"/><path class="cls-3" d="M287.119,457.561V662.679a5.42,5.42,0,0,1-7.323,5.075L178.742,629.859a8.969,8.969,0,0,1-5.819-8.4V456.383A57.1,57.1,0,0,1,228.867,399.3C260.9,398.661,287.119,425.523,287.119,457.561Z" transform="translate(-172.923 -242.266)"/><path class="cls-1" d="M287.119,356.462V527.755l-114.2-42.823V313.638c0-31.531,11.293-42.823,42.824-42.823S287.119,324.931,287.119,356.462Z" transform="translate(-172.923 -242.266)"/><line class="cls-4" x1="114.196" y1="428.234" x2="628.077" y2="385.411"/><polygon class="cls-5" points="570.979 342.587 171.294 375.895 171.294 242.666 570.979 214.117 570.979 342.587"/></svg>