<svg id="Слой_1" data-name="Слой 1" xmlns="http://www.w3.org/2000/svg" viewBox="0 0 481.5 353.5"><defs><style>.cls-1{fill:#cccccc;stroke:#1d1e20;}.cls-1,.cls-3{stroke-miterlimit:10;stroke-width:5px;}.cls-2{fill:#df1f26;}.cls-3{fill:none;stroke:#df1f26;}.cls-4{fill:#230f10;}.cls-5{fill:#1d1e20;}</style></defs><title>wat</title><rect class="cls-1" x="2.5" y="284.239" width="476.5" height="66.761" rx="33.381"/><circle class="cls-2" cx="168.422" cy="317.364" r="33.125"/><line class="cls-3" x1="394.201" y1="284.239" x2="394.201" y2="351"/><line class="cls-3" x1="414.676" y1="284.239" x2="414.676" y2="351"/><line class="cls-3" x1="435.152" y1="284.239" x2="435.152" y2="351"/><line class="cls-3" x1="43.656" y1="283.984" x2="43.656" y2="350.745"/><rect class="cls-2" x="38" width="90" height="18"/><circle class="cls-2" cx="38" cy="9" r="9"/><circle class="cls-2" cx="128" cy="9" r="9"/><rect class="cls-2" x="38" y="27" width="90" height="18"/><circle class="cls-2" cx="38" cy="36" r="9"/><circle class="cls-2" cx="128" cy="36" r="9"/><rect class="cls-4" x="38" y="18" width="90" height="10"/><ellipse class="cls-4" cx="38" cy="23" rx="9" ry="5"/><ellipse class="cls-4" cx="128" cy="23" rx="9" ry="5"/><rect class="cls-2" x="326" y="54" width="90" height="18"/><circle class="cls-2" cx="326" cy="63" r="9"/><circle class="cls-2" cx="416" cy="63" r="9"/><rect class="cls-2" x="326" width="90" height="18"/><circle class="cls-2" cx="326" cy="9" r="9"/><circle class="cls-2" cx="416" cy="9" r="9"/><polygon class="cls-5" points="371 45 377.545 39.325 372.26 41.63 371 27 369.741 41.63 364.455 39.325 371 45"/><polygon class="cls-5" points="407 45 413.545 39.325 408.26 41.63 407 27 405.741 41.63 400.455 39.325 407 45"/><polygon class="cls-5" points="335 45 341.545 39.325 336.26 41.63 335 27 333.741 41.63 328.455 39.325 335 45"/></svg>