<svg id="Слой_1" data-name="Слой 1" xmlns="http://www.w3.org/2000/svg" viewBox="0 0 509 437"><defs><style>.cls-1,.cls-2{fill:#e1e0e0;}.cls-1{stroke:#1e1d20;stroke-miterlimit:10;stroke-width:5px;}.cls-3{fill:#1e1d20;}.cls-4{fill:#df1f26;}</style></defs><title>car</title><path class="cls-1" d="M707,360H648a72.006,72.006,0,0,0-72-72H504a72.006,72.006,0,0,0-72,72H373a85.005,85.005,0,0,0-85,85V635a85.005,85.005,0,0,0,85,85H707a85.005,85.005,0,0,0,85-85V445A85.005,85.005,0,0,0,707,360Zm-230,0a45,45,0,0,1,45-45h36a45,45,0,0,1,45,45Z" transform="translate(-285.5 -285.5)"/><path class="cls-2" d="M360,432V648.187L720,648" transform="translate(-285.5 -285.5)"/><path class="cls-3" d="M360,432c.417,18.016.652,36.031.939,54.047.313,18.015.49,36.031.692,54.047l.458,54.047.272,54.046L360,645.826l45-.117,45-.04,45,.049,45,.186,45,.289,45,.419c15,.133,30,.383,45,.608s30,.442,45,.78c-15,.354-30,.593-45,.826s-30,.507-45,.656l-45,.466-45,.336-45,.232-45,.1-45,.006-45-.071-2.374,0,.012-2.358.272-54.046.458-54.047c.2-18.016.379-36.032.692-54.047C359.348,468.031,359.583,450.016,360,432Z" transform="translate(-285.5 -285.5)"/><polygon class="cls-4" points="427.895 147.218 373.051 326.965 372.562 328.569 370.988 328.036 182.283 264.151 182.964 264.006 74.5 362.5 182.036 262.994 182.33 262.722 182.717 262.849 372.012 324.963 369.949 326.034 423.105 145.782 427.895 147.218"/></svg>