<svg id="Слой_1" data-name="Слой 1" xmlns="http://www.w3.org/2000/svg" viewBox="0 0 509 509"><defs><style>.cls-1{fill:#e1e0e0;}.cls-1,.cls-3,.cls-4{stroke:#1e1d20;stroke-miterlimit:10;stroke-width:5px;}.cls-2{fill:#1e1d20;}.cls-3{fill:#df1f26;}.cls-4{fill:none;}</style></defs><title>env</title><circle class="cls-1" cx="254.5" cy="254.5" r="252"/><path class="cls-2" d="M318.927,630a3.672,3.672,0,0,1-3.645-3.967,54,54,0,0,1,107.708,0A3.672,3.672,0,0,1,419.345,630Z" transform="translate(-249.5 -276.5)"/><circle class="cls-1" cx="119.636" cy="272.5" r="33.75"/><path class="cls-2" d="M588.927,630a3.672,3.672,0,0,1-3.645-3.967,54,54,0,0,1,107.708,0A3.672,3.672,0,0,1,689.345,630Z" transform="translate(-249.5 -276.5)"/><circle class="cls-1" cx="389.636" cy="272.5" r="33.75"/><path class="cls-2" d="M453.927,468a3.672,3.672,0,0,1-3.645-3.967,54,54,0,0,1,107.708,0A3.672,3.672,0,0,1,554.345,468Z" transform="translate(-249.5 -276.5)"/><circle class="cls-1" cx="254.636" cy="110.5" r="33.75"/><circle class="cls-3" cx="254.5" cy="272.5" r="27"/><line class="cls-4" x1="254.5" y1="155.154" x2="254.5" y2="272.5"/><line class="cls-4" x1="152.876" y1="331.173" x2="254.5" y2="272.5"/><line class="cls-4" x1="356.124" y1="331.173" x2="254.5" y2="272.5"/></svg>