<svg id="Слой_1" data-name="Слой 1" xmlns="http://www.w3.org/2000/svg" viewBox="0 0 439.425 950"><defs><style>.cls-1{fill:#df1f26;}.cls-1,.cls-2{stroke:#1e1d20;stroke-miterlimit:10;stroke-width:5px;}.cls-2{fill:#e1e0e0;}</style></defs><title>phy</title><circle class="cls-1" cx="219.713" cy="74.5" r="72"/><circle class="cls-2" cx="219.713" cy="443.5" r="90"/><ellipse class="cls-2" cx="219.713" cy="277" rx="108" ry="130.5"/><circle class="cls-2" cx="318.713" cy="209.5" r="54"/><circle class="cls-2" cx="120.713" cy="209.5" r="54"/><path class="cls-2" d="M495,738H405l-9-171H504Z" transform="translate(-284.287 -24.5)"/><path class="cls-2" d="M603,738H513l-9-171H612Z" transform="translate(-284.287 -24.5)"/><path class="cls-2" d="M504,810H396l9-90h90Z" transform="translate(-284.287 -24.5)"/><path class="cls-2" d="M612,810H504l9-90h90Z" transform="translate(-284.287 -24.5)"/><path class="cls-2" d="M396,567l18-99H594l18,99Z" transform="translate(-284.287 -24.5)"/><path class="cls-2" d="M414,468,396,306H612L594,468Z" transform="translate(-284.287 -24.5)"/><path class="cls-2" d="M612,288H396l9-108a549,549,0,0,1,198,0Z" transform="translate(-284.287 -24.5)"/><path class="cls-2" d="M504,810H612L594,936H522Z" transform="translate(-284.287 -24.5)"/><path class="cls-2" d="M396,810H504L486,936H414Z" transform="translate(-284.287 -24.5)"/><circle class="cls-2" cx="372.713" cy="470.5" r="36"/><circle class="cls-2" cx="399.713" cy="326.5" r="36"/><circle class="cls-2" cx="66.713" cy="470.5" r="36"/><circle class="cls-2" cx="39.713" cy="326.5" r="36"/><path class="cls-2" d="M396,288l-36-81L288,342l72,18Z" transform="translate(-284.287 -24.5)"/><path class="cls-2" d="M360,360l27,126-72,18L288,360Z" transform="translate(-284.287 -24.5)"/><path class="cls-2" d="M612,288l36-81,72,135-72,18Z" transform="translate(-284.287 -24.5)"/><path class="cls-2" d="M648,360,621,486l72,18,27-144Z" transform="translate(-284.287 -24.5)"/><circle class="cls-1" cx="273.713" cy="911.5" r="36"/><circle class="cls-1" cx="165.713" cy="911.5" r="36"/><circle class="cls-2" cx="165.713" cy="695.5" r="36"/><circle class="cls-2" cx="273.713" cy="695.5" r="36"/><circle class="cls-2" cx="39.713" cy="326.5" r="36"/><circle class="cls-2" cx="399.713" cy="326.5" r="36"/><circle class="cls-1" cx="66.713" cy="470.5" r="36"/><circle class="cls-1" cx="372.713" cy="470.5" r="36"/><circle class="cls-2" cx="318.713" cy="209.5" r="54"/><circle class="cls-2" cx="120.713" cy="209.5" r="54"/></svg>