<svg id="Слой_1" data-name="Слой 1" xmlns="http://www.w3.org/2000/svg" viewBox="0 0 509 509"><defs><style>.cls-1{fill:#e1e0e0;}.cls-1,.cls-2{stroke:#1e1d20;stroke-miterlimit:10;stroke-width:5px;}.cls-2{fill:none;}</style></defs><title>wor</title><circle class="cls-1" cx="254.5" cy="254.5" r="252"/><path class="cls-2" d="M540.151,720c-22.867-36.8-69.744-123.315-72-243-2.453-130.2,49.318-224.474,72-261" transform="translate(-285.5 -213.5)"/><path class="cls-2" d="M540.151,720a898.92,898.92,0,0,1,0-504" transform="translate(-285.5 -213.5)"/><path class="cls-2" d="M540.151,720c-17.376-16.632-104.4-103.326-108-243-3.88-150.617,92.263-245.916,108-261" transform="translate(-285.5 -213.5)"/><path class="cls-2" d="M540.151,720c-8.886-5.3-139.2-86.173-144-243-3.241-105.978,52.08-206.05,144-261" transform="translate(-285.5 -213.5)"/><path class="cls-2" d="M540,720C435.37,683.035,363.805,586.067,360.151,477,356.287,361.637,429.157,255.306,540,216" transform="translate(-285.5 -213.5)"/><path class="cls-2" d="M540.286,720C418.827,699.813,328.34,596.845,324.151,477c-4.411-126.23,88.024-239.544,216.135-261" transform="translate(-285.5 -213.5)"/><path class="cls-2" d="M540,216c22.63,36.5,70.821,125.151,71.849,248,1.066,127.537-49.3,219.636-71.849,256" transform="translate(-285.5 -213.5)"/><path class="cls-2" d="M540,216a904,904,0,0,1,35.849,248A904.086,904.086,0,0,1,540,720" transform="translate(-285.5 -213.5)"/><path class="cls-2" d="M540,216c16.5,15.786,106.206,104.719,107.849,248,1.7,148.086-91.98,240.81-107.849,256" transform="translate(-285.5 -213.5)"/><path class="cls-2" d="M540,216c7.622,4.528,141.66,87.414,143.849,248C685.273,568.554,630.266,666.347,540,720" transform="translate(-285.5 -213.5)"/><path class="cls-2" d="M539.849,216c106.2,36.9,178.331,136.46,180,248,1.711,114.4-71.05,218.115-180,256" transform="translate(-285.5 -213.5)"/><path class="cls-2" d="M540,216c122.641,19.764,213.933,125.282,215.849,248C757.81,589.628,665.583,699.73,540,720" transform="translate(-285.5 -213.5)"/><path class="cls-2" d="M549,234" transform="translate(-285.5 -213.5)"/><path class="cls-2" d="M288,468.151c36.8-22.867,123.315-69.744,243-72,130.2-2.453,224.474,49.318,261,72" transform="translate(-285.5 -213.5)"/><path class="cls-2" d="M288,468.151a898.92,898.92,0,0,1,504,0" transform="translate(-285.5 -213.5)"/><path class="cls-2" d="M288,468.151c16.632-17.376,103.326-104.4,243-108,150.617-3.88,245.916,92.263,261,108" transform="translate(-285.5 -213.5)"/><path class="cls-2" d="M288,468.151c5.3-8.886,86.173-139.2,243-144,105.978-3.24,206.05,52.08,261,144" transform="translate(-285.5 -213.5)"/><path class="cls-2" d="M288,468c36.965-104.63,133.933-176.195,243-179.849C646.363,284.287,752.694,357.157,792,468" transform="translate(-285.5 -213.5)"/><path class="cls-2" d="M288,468.286C308.188,346.827,411.155,256.34,531,252.151c126.23-4.411,239.544,88.024,261,216.135" transform="translate(-285.5 -213.5)"/><path class="cls-2" d="M792,468c-36.5,22.63-125.151,70.821-248,71.849-127.537,1.066-219.636-49.3-256-71.849" transform="translate(-285.5 -213.5)"/><path class="cls-2" d="M792,468a904,904,0,0,1-248,35.849A904.086,904.086,0,0,1,288,468" transform="translate(-285.5 -213.5)"/><path class="cls-2" d="M792,468c-15.786,16.5-104.719,106.206-248,107.849-148.086,1.7-240.81-91.98-256-107.849" transform="translate(-285.5 -213.5)"/><path class="cls-2" d="M792,468c-4.528,7.622-87.414,141.66-248,143.849C439.446,613.273,341.653,558.266,288,468" transform="translate(-285.5 -213.5)"/><path class="cls-2" d="M792,467.849c-36.9,106.2-136.46,178.331-248,180-114.4,1.711-218.115-71.05-256-180" transform="translate(-285.5 -213.5)"/><path class="cls-2" d="M792,468C772.236,590.641,666.718,681.933,544,683.849,418.372,685.81,308.27,593.583,288,468" transform="translate(-285.5 -213.5)"/><path class="cls-2" d="M774,477" transform="translate(-285.5 -213.5)"/><path class="cls-2" d="M540,720V216" transform="translate(-285.5 -213.5)"/><path class="cls-2" d="M288,468H792" transform="translate(-285.5 -213.5)"/></svg>