<svg id="Слой_1" data-name="Слой 1" xmlns="http://www.w3.org/2000/svg" viewBox="0 0 667 667"><defs><style>.cls-1{fill:#cccccc;}.cls-2{fill:#df1f26;}.cls-3{fill:none;stroke:#1e1d20;stroke-miterlimit:10;stroke-width:10px;}</style></defs><title>ars</title><path class="cls-1" d="M791.11,642.4q-4.035,8.25-8.53,16.22A419.608,419.608,0,0,0,688.5,648c-128.17,0-242.88,57.62-319.64,148.36a324.833,324.833,0,0,1-113.02-83.38A665.923,665.923,0,0,0,177.22,471.7a322.653,322.653,0,0,1,83.04-189.65c-.07,1.97-.11,3.96-.11,5.95A162,162,0,1,0,541.67,178.65a322,322,0,0,1,108.91,34.39A259.983,259.983,0,0,0,584.15,387C584.15,512.62,672.9,617.51,791.11,642.4Z" transform="translate(-166 -166)"/><circle class="cls-2" cx="332.654" cy="333.5" r="4.5"/><circle class="cls-2" cx="341.654" cy="333.5" r="4.5"/><circle class="cls-2" cx="337.154" cy="347" r="9"/><circle class="cls-2" cx="314.654" cy="342.5" r="13.5"/><circle class="cls-2" cx="323.654" cy="306.5" r="22.5"/><circle class="cls-2" cx="382.154" cy="320" r="36"/><circle class="cls-2" cx="355.154" cy="419" r="63"/><circle class="cls-2" cx="193.154" cy="383" r="99"/><path class="cls-2" d="M584.15,288a162,162,0,0,1-324,0c0-1.99.04-3.98.11-5.95A323.183,323.183,0,0,1,500,176a327.363,327.363,0,0,1,41.67,2.65A161.343,161.343,0,0,1,584.15,288Z" transform="translate(-166 -166)"/><path class="cls-2" d="M824,500a322.6,322.6,0,0,1-32.89,142.4C672.9,617.51,584.15,512.62,584.15,387a259.983,259.983,0,0,1,66.43-173.96C753.69,267.26,824,375.42,824,500Z" transform="translate(-166 -166)"/><path class="cls-2" d="M782.58,658.62C727.06,757.33,621.31,824,500,824a322.808,322.808,0,0,1-131.14-27.64C445.62,705.62,560.33,648,688.5,648A419.608,419.608,0,0,1,782.58,658.62Z" transform="translate(-166 -166)"/><path class="cls-2" d="M255.84,712.98A322.656,322.656,0,0,1,176,500q0-14.295,1.22-28.3A665.923,665.923,0,0,1,255.84,712.98Z" transform="translate(-166 -166)"/><circle class="cls-3" cx="333.5" cy="333.5" r="328.5"/></svg>