<svg id="Слой_1" data-name="Слой 1" xmlns="http://www.w3.org/2000/svg" viewBox="0 0 440.662 381.624"><defs><style>.cls-1{fill:#cccccc;}.cls-1,.cls-2,.cls-3{stroke:#1d1e20;stroke-miterlimit:10;stroke-width:5px;}.cls-2{fill:#e01f26;}.cls-3{fill:#1d1e20;}</style></defs><title>gov</title><polygon class="cls-1" points="95.622 365.001 87.472 379.121 20.642 379.121 12.492 365.001 45.902 307.121 62.202 307.121 95.622 365.001"/><polygon class="cls-2" points="62.202 307.121 45.902 307.121 54.052 293.001 62.202 307.121"/><polygon class="cls-2" points="20.642 379.121 4.332 379.121 12.492 365.001 20.642 379.121"/><polygon class="cls-1" points="137.192 293.001 129.042 307.121 62.202 307.121 54.052 293.001 87.472 235.121 103.772 235.121 137.192 293.001"/><polygon class="cls-2" points="103.772 235.121 87.472 235.121 95.622 221.001 103.772 235.121"/><polygon class="cls-3" points="129.042 307.121 95.622 365.001 62.202 307.121 129.042 307.121"/><polygon class="cls-1" points="178.762 221.001 170.612 235.121 103.772 235.121 95.622 221.001 129.042 163.121 145.342 163.121 178.762 221.001"/><polygon class="cls-2" points="145.342 163.121 129.042 163.121 137.192 149.001 145.342 163.121"/><polygon class="cls-3" points="170.612 235.121 137.192 293.001 103.772 235.121 170.612 235.121"/><polygon class="cls-1" points="261.902 77.001 253.752 91.121 186.912 91.121 178.762 77.001 212.182 19.121 228.482 19.121 261.902 77.001"/><polygon class="cls-2" points="228.482 19.121 212.182 19.121 220.332 5.001 228.482 19.121"/><polygon class="cls-3" points="253.752 91.121 220.332 149.001 186.912 91.121 253.752 91.121"/><polygon class="cls-1" points="220.332 149.001 212.182 163.121 145.342 163.121 137.192 149.001 170.612 91.121 186.912 91.121 220.332 149.001"/><polygon class="cls-2" points="186.912 91.121 170.612 91.121 178.762 77.001 186.912 91.121"/><polygon class="cls-3" points="212.182 163.121 178.762 221.001 145.342 163.121 212.182 163.121"/><polygon class="cls-1" points="178.762 365.001 170.612 379.121 103.772 379.121 95.622 365.001 129.042 307.121 145.342 307.121 178.762 365.001"/><polygon class="cls-2" points="103.772 379.121 87.472 379.121 95.622 365.001 103.772 379.121"/><polygon class="cls-2" points="186.912 235.121 170.612 235.121 178.762 221.001 186.912 235.121"/><polygon class="cls-3" points="212.182 307.121 178.762 365.001 145.342 307.121 212.182 307.121"/><polygon class="cls-2" points="270.052 91.121 253.752 91.121 261.902 77.001 270.052 91.121"/><polygon class="cls-1" points="303.472 149.001 295.322 163.121 228.482 163.121 220.332 149.001 253.752 91.121 270.052 91.121 303.472 149.001"/><polygon class="cls-3" points="295.322 163.121 261.902 221.001 228.482 163.121 295.322 163.121"/><polygon class="cls-1" points="261.902 365.001 253.752 379.121 186.912 379.121 178.762 365.001 212.182 307.121 228.482 307.121 261.902 365.001"/><polygon class="cls-2" points="228.482 307.121 212.182 307.121 220.332 293.001 228.482 307.121"/><polygon class="cls-2" points="186.912 379.121 170.612 379.121 178.762 365.001 186.912 379.121"/><polygon class="cls-2" points="311.622 163.121 295.322 163.121 303.472 149.001 311.622 163.121"/><polygon class="cls-1" points="345.042 221.001 336.892 235.121 270.052 235.121 261.902 221.001 295.322 163.121 311.622 163.121 345.042 221.001"/><polygon class="cls-3" points="336.892 235.121 303.472 293.001 270.052 235.121 336.892 235.121"/><polygon class="cls-2" points="353.192 235.121 336.892 235.121 345.042 221.001 353.192 235.121"/><polygon class="cls-1" points="386.612 293.001 378.462 307.121 311.622 307.121 303.472 293.001 336.892 235.121 353.192 235.121 386.612 293.001"/><polygon class="cls-3" points="378.462 307.121 345.042 365.001 311.622 307.121 378.462 307.121"/><polygon class="cls-1" points="345.042 365.001 336.892 379.121 270.052 379.121 261.902 365.001 295.322 307.121 311.622 307.121 345.042 365.001"/><polygon class="cls-2" points="311.622 307.121 295.322 307.121 303.472 293.001 311.622 307.121"/><polygon class="cls-2" points="270.052 379.121 253.752 379.121 261.902 365.001 270.052 379.121"/><polygon class="cls-2" points="394.762 307.121 378.462 307.121 386.612 293.001 394.762 307.121"/><polygon class="cls-1" points="428.182 364.991 420.022 379.111 353.192 379.121 345.042 365.001 378.462 307.121 394.762 307.121 428.182 364.991"/><polygon class="cls-2" points="353.192 379.121 336.892 379.121 345.042 365.001 353.192 379.121"/><polygon class="cls-2" points="436.332 379.121 420.022 379.111 428.182 364.991 436.332 379.121"/><polygon class="cls-2" points="228.482 163.121 212.182 163.121 220.332 149.001 228.482 163.121"/><polygon class="cls-1" points="261.902 221.001 253.752 235.121 186.912 235.121 178.762 221.001 212.182 163.121 228.482 163.121 261.902 221.001"/><polygon class="cls-3" points="295.322 307.121 261.902 365.001 228.482 307.121 295.322 307.121"/><polygon class="cls-2" points="270.052 235.121 253.752 235.121 261.902 221.001 270.052 235.121"/><polygon class="cls-2" points="145.342 307.121 129.042 307.121 137.192 293.001 145.342 307.121"/><polygon class="cls-1" points="220.332 293.001 212.182 307.121 145.342 307.121 137.192 293.001 170.612 235.121 186.912 235.121 220.332 293.001"/><polygon class="cls-1" points="303.472 293.001 295.322 307.121 228.482 307.121 220.332 293.001 253.752 235.121 270.052 235.121 303.472 293.001"/><polygon class="cls-3" points="253.752 235.121 220.332 293.001 186.912 235.121 253.752 235.121"/></svg>