<svg id="Слой_1" data-name="Слой 1" xmlns="http://www.w3.org/2000/svg" viewBox="0 0 671 671"><defs><style>.cls-1{fill:#e01f26;}.cls-1,.cls-2,.cls-3{stroke:#1d1e20;stroke-miterlimit:10;stroke-width:5px;}.cls-2{fill:#cccccc;}.cls-3{fill:none;}</style></defs><title>peo</title><circle class="cls-1" cx="335.5" cy="29.256" r="26.756"/><path class="cls-1" d="M500,220.512c-25.622,0-48.339,6.837-44.594,35.675h89.188C548.339,227.349,525.622,220.512,500,220.512Z" transform="translate(-164.5 -164.5)"/><circle class="cls-1" cx="333.5" cy="641.744" r="26.756"/><path class="cls-1" d="M498,779.488c25.622,0,48.339-6.837,44.594-35.675H453.406C449.661,772.651,472.378,779.488,498,779.488Z" transform="translate(-164.5 -164.5)"/><circle class="cls-1" cx="641.744" cy="335.5" r="26.756"/><path class="cls-1" d="M779.488,500c0-25.622-6.837-48.339-35.675-44.594v89.188C772.651,548.339,779.488,525.622,779.488,500Z" transform="translate(-164.5 -164.5)"/><circle class="cls-1" cx="29.256" cy="333.5" r="26.756"/><path class="cls-1" d="M220.512,498c0,25.622,6.837,48.339,35.675,44.594V453.406C227.349,449.661,220.512,472.378,220.512,498Z" transform="translate(-164.5 -164.5)"/><circle class="cls-1" cx="551.744" cy="118.65" r="26.756"/><path class="cls-1" d="M697.324,302.069c-18.118-18.118-39.015-29.346-56.758-6.306l63.065,63.065C726.671,341.084,715.442,320.187,697.324,302.069Z" transform="translate(-164.5 -164.5)"/><circle class="cls-1" cx="117.235" cy="550.33" r="26.756"/><path class="cls-1" d="M300.655,695.91c18.118,18.118,39.015,29.346,56.759,6.307l-63.066-63.066C271.309,656.9,282.537,677.792,300.655,695.91Z" transform="translate(-164.5 -164.5)"/><circle class="cls-1" cx="551.744" cy="551.744" r="26.756"/><path class="cls-1" d="M697.324,697.324c18.118-18.118,29.347-39.015,6.307-56.758l-63.065,63.065C658.309,726.671,679.206,715.442,697.324,697.324Z" transform="translate(-164.5 -164.5)"/><circle class="cls-1" cx="120.064" cy="117.235" r="26.756"/><path class="cls-1" d="M303.483,300.655c-18.117,18.118-29.346,39.015-6.306,56.759l63.065-63.066C342.5,271.309,321.6,282.537,303.483,300.655Z" transform="translate(-164.5 -164.5)"/><circle class="cls-2" cx="335.5" cy="335.5" r="252"/><line class="cls-3" x1="335.5" y1="83.5" x2="335.5" y2="587.5"/><line class="cls-3" x1="587.5" y1="335.5" x2="83.5" y2="335.5"/><line class="cls-3" x1="513.691" y1="157.309" x2="157.309" y2="513.691"/><line class="cls-3" x1="512.984" y1="513.398" x2="156.602" y2="157.016"/><line class="cls-3" x1="335.5" y1="83.5" x2="156.602" y2="157.016"/><line class="cls-3" x1="513.691" y1="157.309" x2="335.5" y2="83.5"/><line class="cls-3" x1="83.5" y1="335.5" x2="156.602" y2="157.016"/><line class="cls-3" x1="157.309" y1="513.691" x2="83.5" y2="335.5"/><line class="cls-3" x1="335.5" y1="587.5" x2="157.309" y2="513.691"/><line class="cls-3" x1="512.984" y1="513.398" x2="335.5" y2="587.5"/><line class="cls-3" x1="587.5" y1="335.5" x2="512.984" y2="513.398"/><line class="cls-3" x1="513.691" y1="157.309" x2="587.5" y2="335.5"/><line class="cls-3" x1="335.5" y1="83.5" x2="587.5" y2="335.5"/><line class="cls-3" x1="335.5" y1="587.5" x2="587.5" y2="335.5"/><line class="cls-3" x1="513.691" y1="157.309" x2="512.984" y2="513.398"/><line class="cls-3" x1="157.309" y1="513.691" x2="512.984" y2="513.398"/><line class="cls-3" x1="83.5" y1="335.5" x2="335.5" y2="587.5"/><line class="cls-3" x1="157.309" y1="513.691" x2="156.602" y2="157.016"/><line class="cls-3" x1="335.5" y1="83.5" x2="83.5" y2="335.5"/><line class="cls-3" x1="157.309" y1="513.691" x2="335.5" y2="83.5"/><line class="cls-3" x1="512.984" y1="513.398" x2="335.5" y2="83.5"/><line class="cls-3" x1="513.691" y1="157.309" x2="335.5" y2="587.5"/><line class="cls-3" x1="156.602" y1="157.016" x2="335.5" y2="587.5"/><line class="cls-3" x1="83.5" y1="335.5" x2="512.984" y2="513.398"/><line class="cls-3" x1="513.691" y1="157.309" x2="83.5" y2="335.5"/><line class="cls-3" x1="156.602" y1="157.016" x2="513.691" y2="157.309"/><line class="cls-3" x1="587.5" y1="335.5" x2="157.309" y2="513.691"/><line class="cls-3" x1="156.602" y1="157.016" x2="587.5" y2="335.5"/></svg>