<svg id="Слой_1" data-name="Слой 1" xmlns="http://www.w3.org/2000/svg" viewBox="0 0 653.055 869"><defs><style>.cls-1{fill:#e1e0e0;}.cls-1,.cls-2{stroke:#1d1e20;stroke-miterlimit:10;stroke-width:5px;}.cls-2{fill:#e01f26;}</style></defs><title>spo</title><circle class="cls-1" cx="254.555" cy="74.5" r="72"/><path class="cls-1" d="M540,324a107.815,107.815,0,0,1-2.96,25.19Q538.51,336.59,540,324Z" transform="translate(-177.445 -69.5)"/><path class="cls-1" d="M423.01,566.56q4.425.435,8.99.44h-9C423,566.85,423,566.71,423.01,566.56Z" transform="translate(-177.445 -69.5)"/><path class="cls-1" d="M450,567H432a90.144,90.144,0,0,0,17.97-1.8Q450,566.1,450,567Z" transform="translate(-177.445 -69.5)"/><path class="cls-1" d="M423.01,566.56q4.425.435,8.99.44h-9C423,566.85,423,566.71,423.01,566.56Z" transform="translate(-177.445 -69.5)"/><path class="cls-1" d="M439.95,603.94l5.53,6.91a55.449,55.449,0,0,1-5.66-4.69q-1.74-1.65-3.32-3.45c.43-.49.86-.99,1.28-1.49.87-1.07,1.71-2.17,2.5-3.31Z" transform="translate(-177.445 -69.5)"/><path class="cls-1" d="M449.97,565.2q.03.9.03,1.8H432A90.144,90.144,0,0,0,449.97,565.2Z" transform="translate(-177.445 -69.5)"/><path class="cls-1" d="M791.815,356.3c-2.229-16.837-18.2-29.771-33.678-32.234A37.21,37.21,0,0,0,747,324q-59.685,14.925-119.37,29.84C581.295,282.931,543.377,233.4,531,225a56.925,56.925,0,0,0-16.6-7.476,38.441,38.441,0,0,0-20.288-.146,36.486,36.486,0,0,0-15.558,9.152,108.157,108.157,0,0,0-93.1,0,36.486,36.486,0,0,0-15.558-9.152c-8.708-2.472-15.932-.873-20.289.146A47.856,47.856,0,0,0,333,225L207,324c-15.6,6.621-26.152,20.577-27,36-.762,13.864,6.588,23.953,9,27l63,90c1.169,3,8.076,19.908,25.381,25.408a34.6,34.6,0,0,0,14.324,1.406A36.015,36.015,0,0,0,322.93,459.27a31.444,31.444,0,0,0-.95-3.18q-5.415-7.83-10.84-15.67-23.82-34.4-47.63-68.8,30.255-22.695,60.52-45.39c-.02-.74-.03-1.49-.03-2.23h3l-2.76,2.07q1.365,11.565,2.72,23.12Q334.49,413.09,342,477v90c.3,3.28.6,6.55.89,9.83q8.085,88.935,16.17,177.88h0Q292.025,813.855,225,873l1.54,1.54a36.006,36.006,0,0,0,50.92,50.92L279,927,423,783a44.025,44.025,0,0,0,7.477-16.606c.609-3,1.23-8.029,1.523-10.394,0,0,.52-4.2.885-8.288,2.336-26.168,3.029-71.132,3.029-71.132.668-43.357,4.367-78.688,4.366-78.67l-.33,6.03L540,729V900a35.973,35.973,0,0,0,38.741,35.9C597.065,934.541,612,917.714,612,899.339V720a35.928,35.928,0,0,0-1.07-8.73L531,558l-1.08-1.76L522,477q7.02-59.64,14.03-119.29.505-4.26,1.01-8.52-.505,4.26-1.01,8.52l24.489,32.645L585,423a51.5,51.5,0,0,0,16.607,7.477A60.729,60.729,0,0,0,612,432a67.245,67.245,0,0,0,9,0l144-36c3-1.169,19.908-8.076,25.408-25.382A33.566,33.566,0,0,0,791.815,356.3Z" transform="translate(-177.445 -69.5)"/><path class="cls-1" d="M536.385,347.731l-1.131,16.584,2.688-12.69Z" transform="translate(-177.445 -69.5)"/><path class="cls-1" d="M440.28,597.91l-.33,6.03c-.04.74-.08,1.48-.13,2.22q-1.74-1.65-3.32-3.45c.43-.49.86-.99,1.28-1.49C438.65,600.15,439.49,599.05,440.28,597.91Z" transform="translate(-177.445 -69.5)"/><path class="cls-1" d="M437.78,601.22c.87-1.07,1.71-2.17,2.5-3.31l-.33,6.03C439.23,603.03,438.5,602.13,437.78,601.22Z" transform="translate(-177.445 -69.5)"/><circle class="cls-2" cx="578.555" cy="794.5" r="72"/></svg>