<svg id="Слой_1" data-name="Слой 1" xmlns="http://www.w3.org/2000/svg" viewBox="0 0 300 300"><defs><style>.cls-1{fill:#ef403c;}</style></defs><title>sizeu</title><path class="cls-1" d="M150,0A150,150,0,1,0,300,150,150,150,0,0,0,150,0Zm68,198.74,7.08-7.56h0l6.76-7.22,4.59,23.3L242.85,240l-15.16-2.47-44-7.18,11.49-9.79,0,0c1.94-1.64,3.87-3.29,5.81-5l.55-.46-48.74-48.75-48.74,48.75,7.82,8.64,5.65,6.25-28.11,5.14L62.85,240l4.29-24.15v0l5.79-32.56q3.73,3.91,7.49,7.82c2.43,2.55,4.88,5.1,7.32,7.65L136.49,150,87.74,101.26c-1.84,2.15-3.68,4.31-5.53,6.46q-4.45,5.23-8.94,10.47l-6-33.35Q65.07,72.42,62.85,60l27.46,5.07,32.81,6.05-19,13.77,48.74,48.75,48.74-48.75-7.25-6.52-8-7.19,23.45-4.64L242.85,60q-2.34,12.93-4.68,25.86-2.8,15.45-5.6,30.89l-7.45-7.9L218,101.26,169.21,150Z"/></svg>