<svg xmlns="http://www.w3.org/2000/svg" viewBox="0 0 145 145"><defs><style>.cls-1{fill:none;}.cls-1,.cls-2{stroke:#1d1e20;}.cls-1,.cls-2,.cls-3{stroke-miterlimit:10;}.cls-2{fill:#e1e0e0;}.cls-3{fill:#1d1e20;stroke:#e1e0e0;}</style></defs><title>Passion</title><g id="Слой_2" data-name="Слой 2"><g id="Слой_1-2" data-name="Слой 1"><g id="Passion"><circle class="cls-1" cx="72.5" cy="72.5" r="72"/><path class="cls-1" d="M72.5.5a75,75,0,0,0,0,144"/><path class="cls-1" d="M72.5.5c-3.586,2.69-36,27.9-36,72,0,4.483.72,45.54,36,72"/><path class="cls-1" d="M72.5,144.5a153,153,0,0,1,0-144"/><path class="cls-1" d="M72.5.5v144"/><path class="cls-1" d="M72.5,144.5a75,75,0,0,0,0-144"/><path class="cls-1" d="M72.5,144.5c3.586-2.69,36-27.9,36-72,0-4.483-.72-45.54-36-72"/><path class="cls-1" d="M72.5.5a153.527,153.527,0,0,1,18,72,153.523,153.523,0,0,1-18,72"/><path class="cls-1" d="M144.5,72.5a75,75,0,0,0-144,0"/><path class="cls-1" d="M144.5,72.5c-2.69-3.586-27.9-36-72-36-4.483,0-45.54.72-72,36"/><path class="cls-1" d="M.5,72.5a153,153,0,0,1,144,0"/><path class="cls-1" d="M144.5,72.5H.5"/><path class="cls-1" d="M.5,72.5a75,75,0,0,0,144,0"/><path class="cls-1" d="M.5,72.5c2.69,3.586,27.9,36,72,36,4.483,0,45.54-.72,72-36"/><path class="cls-1" d="M144.5,72.5a153.527,153.527,0,0,1-72,18,153.523,153.523,0,0,1-72-18"/><circle class="cls-2" cx="72.5" cy="72.5" r="36"/><circle class="cls-3" cx="59.5" cy="63.5" r="9"/><circle class="cls-3" cx="85.5" cy="63.5" r="9"/><path class="cls-3" d="M54.5,81.5a18,18,0,0,0,36,0"/></g></g></g></svg>