<svg xmlns="http://www.w3.org/2000/svg" viewBox="0 0 430.162 222.831"><defs><style>.a{fill:#cccccc;}.a,.b{stroke:#1d1e20;stroke-miterlimit:10;stroke-width:5px;}.b{fill:#e01f26;}</style></defs><title>edu</title><path class="a" d="M576,378V486c0,29.82-32.24,54-72,54s-72-24.18-72-54V378Z" transform="translate(-284.919 -319.669)"/><path class="a" d="M342,396V504" transform="translate(-284.919 -319.669)"/><path class="a" d="M487.692,324.166,288.5,390.564a1.581,1.581,0,0,0,0,3l211,70.333a1.584,1.584,0,0,0,1,0l211-70.333a1.581,1.581,0,0,0,0-3l-199.192-66.4A38.922,38.922,0,0,0,487.692,324.166Z" transform="translate(-284.919 -319.669)"/><path class="b" d="M359.78,528c-1,6.75-8.63,12-17.89,12S325,534.75,324,528a38.16,38.16,0,0,1,.92-6c2.47-10.49,9.13-18,16.97-18s14.5,7.51,16.97,18A38.16,38.16,0,0,1,359.78,528Z" transform="translate(-284.919 -319.669)"/></svg>