<svg xmlns="http://www.w3.org/2000/svg" viewBox="0 0 437 360.662"><defs><style>.a{fill:#cccccc;stroke:#1d1e20;stroke-miterlimit:10;stroke-width:5px;}.b{fill:#e01f26;}</style></defs><title>ite</title><path class="a" d="M491.119,677.1,288.613,609.6A6.748,6.748,0,0,1,284,603.2V401.425a6.748,6.748,0,0,1,8.881-6.4l202.506,67.5a6.747,6.747,0,0,1,4.613,6.4V670.7A6.748,6.748,0,0,1,491.119,677.1Z" transform="translate(-281.5 -319.669)"/><path class="a" d="M712.051,609.38,507.6,677.53a5.775,5.775,0,0,1-7.6-5.479V468.227a5.776,5.776,0,0,1,3.949-5.479L708.4,394.6a5.775,5.775,0,0,1,7.6,5.479V603.9A5.776,5.776,0,0,1,712.051,609.38Z" transform="translate(-281.5 -319.669)"/><path class="a" d="M487.692,324.166,288.5,390.564a1.581,1.581,0,0,0,0,3l211,70.333a1.584,1.584,0,0,0,1,0l211-70.333a1.581,1.581,0,0,0,0-3l-199.192-66.4A38.922,38.922,0,0,0,487.692,324.166Z" transform="translate(-281.5 -319.669)"/><circle class="a" cx="218.5" cy="175.331" r="108"/><rect class="b" x="487.291" y="455.013" width="25.417" height="101.669" rx="12.709" transform="translate(718.5 692.026) rotate(180)"/><path class="b" d="M493.646,461.367l-29.14,29.14a8.987,8.987,0,0,1-6.354,2.632h0A8.986,8.986,0,0,1,451.8,477.8l41.848-41.848a8.986,8.986,0,0,1,12.708,0L548.2,477.8a8.986,8.986,0,0,1-6.354,15.341h0a8.987,8.987,0,0,1-6.354-2.632l-29.14-29.14A8.986,8.986,0,0,0,493.646,461.367Z" transform="translate(-281.5 -319.669)"/></svg>