<svg xmlns="http://www.w3.org/2000/svg" viewBox="0 0 319.38 313.604"><defs><style>.a{fill:#cccccc;}.a,.b{stroke:#1d1e20;stroke-miterlimit:10;}.b{fill:none;}.c{fill:#e01f26;}</style></defs><title>sci</title><ellipse class="a" cx="160.414" cy="23.346" rx="139.846" ry="22.846"/><ellipse class="a" cx="160.414" cy="23.346" rx="116.538" ry="19.038"/><ellipse class="a" cx="160.414" cy="23.346" rx="93.231" ry="15.231"/><ellipse class="a" cx="160.414" cy="23.346" rx="69.923" ry="11.423"/><ellipse class="a" cx="160.414" cy="23.346" rx="46.615" ry="7.615"/><ellipse class="a" cx="160.414" cy="23.346" rx="23.308" ry="3.808"/><line class="a" x1="160.414" y1="23.346" x2="160.414" y2="0.5"/><line class="a" x1="160.414" y1="23.346" x2="293.415" y2="16.286"/><line class="a" x1="160.414" y1="23.346" x2="242.613" y2="41.829"/><line class="a" x1="160.414" y1="23.346" x2="78.214" y2="41.829"/><line class="a" x1="160.414" y1="23.346" x2="27.412" y2="16.286"/><ellipse class="a" cx="160.484" cy="290.258" rx="139.846" ry="22.846"/><ellipse class="a" cx="160.484" cy="290.258" rx="116.538" ry="19.038"/><ellipse class="a" cx="160.484" cy="290.258" rx="93.231" ry="15.231"/><ellipse class="a" cx="160.484" cy="290.258" rx="69.923" ry="11.423"/><ellipse class="a" cx="160.484" cy="290.258" rx="46.615" ry="7.615"/><ellipse class="a" cx="160.484" cy="290.258" rx="23.308" ry="3.808"/><line class="a" x1="160.484" y1="290.258" x2="160.484" y2="313.104"/><line class="a" x1="160.484" y1="290.258" x2="293.486" y2="297.318"/><line class="a" x1="160.484" y1="290.258" x2="242.684" y2="271.775"/><line class="a" x1="160.484" y1="290.258" x2="78.285" y2="271.775"/><line class="a" x1="160.484" y1="290.258" x2="27.483" y2="297.318"/><path class="b" d="M504,404.154a168.686,168.686,0,0,1-19.591,63.692c-21.906,40.2-54.533,60.455-69.238,68.389" transform="translate(-344.125 -241.269)"/><path class="b" d="M504.014,402.925a166.105,166.105,0,0,0,18.524,64.229c21.353,40.5,53.913,60.947,68.288,68.826" transform="translate(-344.125 -241.269)"/><path class="b" d="M559.422,519.2a151.914,151.914,0,0,1-55.408-116.277" transform="translate(-344.125 -241.269)"/><path class="b" d="M449.8,519.2a159.639,159.639,0,0,0,54.218-116.277" transform="translate(-344.125 -241.269)"/><path class="b" d="M504.609,546.758q-.564-30.155-.763-60.912-.267-42.012.168-82.921" transform="translate(-344.125 -241.269)"/><path class="c" d="M503.832,402.6c1.06-.086,2.118-.149,3.192-.137a4.672,4.672,0,0,1,1.692.243.6.6,0,0,1,.279.3.494.494,0,0,1,.011.284.86.86,0,0,1-.1.185,1.333,1.333,0,0,1-.411.315,4.438,4.438,0,0,1-.788.318,22.712,22.712,0,0,1-6.39.619,32.029,32.029,0,0,1-6.395-.613,3.057,3.057,0,0,1-1.647-.849.96.96,0,0,1-.2-.69,1.134,1.134,0,0,1,.255-.589,2.786,2.786,0,0,1,.732-.613,11.92,11.92,0,0,1,3.09-1.167,37.369,37.369,0,0,1,6.359-.9c2.126-.143,4.252-.2,6.377-.191a113.447,113.447,0,0,1,12.727.747,42,42,0,0,1,6.356,1.175,8.23,8.23,0,0,1,3.154,1.572,2.64,2.64,0,0,1,.663.908,2.167,2.167,0,0,1,.152,1.274,3.458,3.458,0,0,1-1.113,1.783,11.72,11.72,0,0,1-2.912,1.815,28.92,28.92,0,0,1-3.051,1.189,54.2,54.2,0,0,1-6.249,1.606c-2.1.434-4.223.685-6.34.984-2.119.21-4.239.464-6.361.583-4.244.329-8.489.427-12.735.508q-12.734.081-25.439-.869c-4.233-.335-8.464-.713-12.687-1.264A122.69,122.69,0,0,1,443.4,408.97a43.231,43.231,0,0,1-6.292-1.879,15.62,15.62,0,0,1-6.024-3.764,6.767,6.767,0,0,1-1.1-1.892,4.079,4.079,0,0,1-.274-1.147,3.8,3.8,0,0,1,0-1.186,7.147,7.147,0,0,1,1.783-3.746,20.822,20.822,0,0,1,5.519-4.194,48.947,48.947,0,0,1,5.952-2.785c2.016-.809,4.056-1.516,6.111-2.154,4.11-1.281,8.272-2.319,12.46-3.192,4.189-.857,8.405-1.614,12.637-2.113,2.115-.263,4.228-.591,6.346-.8l6.354-.61c2.119-.229,4.239-.346,6.359-.5l6.361-.43c4.241-.165,8.485-.414,12.728-.509,8.487-.172,16.974-.222,25.454-.013q12.719.348,25.411,1.174c16.914,1.188,33.783,2.959,50.541,5.485a464.814,464.814,0,0,1,49.782,10.06l-.108.488a827.705,827.705,0,0,0-100.514-11.042q-12.611-.713-25.237-.972c-8.414-.23-16.829-.324-25.239-.231-4.206.007-8.4.168-12.608.244l-6.293.294c-2.1.107-4.2.173-6.285.367l-6.272.494c-2.09.17-4.159.457-6.241.679-4.169.418-8.29,1.087-12.392,1.854-4.095.79-8.155,1.741-12.131,2.915-1.988.586-3.952,1.235-5.869,1.971a45.457,45.457,0,0,0-5.558,2.5,17.6,17.6,0,0,0-4.6,3.331,3.772,3.772,0,0,0-.99,1.836,2.106,2.106,0,0,0,.548,1.61,12.76,12.76,0,0,0,4.636,2.873,39.97,39.97,0,0,0,5.815,1.824,119.255,119.255,0,0,0,12.294,2.275c4.149.6,8.331,1.041,12.515,1.435q12.564,1.107,25.2,1.234c4.2,0,8.411-.011,12.6-.254,2.1-.076,4.182-.285,6.27-.449,2.071-.252,4.155-.456,6.2-.837a52.252,52.252,0,0,0,6.049-1.427,27.047,27.047,0,0,0,2.873-1.053,10.161,10.161,0,0,0,2.485-1.46,1.919,1.919,0,0,0,.6-.821c.028-.173-.017-.351-.295-.631a6.879,6.879,0,0,0-2.469-1.237,40.69,40.69,0,0,0-6.07-1.241,112.073,112.073,0,0,0-12.549-.984c-2.1-.052-4.2-.036-6.293.064a36.419,36.419,0,0,0-6.19.748,11.054,11.054,0,0,0-2.842,1,1.957,1.957,0,0,0-.492.381.272.272,0,0,0-.071.119c0,.009-.016,0,.019.048a2.506,2.506,0,0,0,1.144.544,31.442,31.442,0,0,0,6.187.709,22.181,22.181,0,0,0,6.191-.466,3.915,3.915,0,0,0,.684-.258.931.931,0,0,0,.225-.149c-.007,0,0,0,0,.013-.023.028,0,.073,0,.092.034.062.017.035,0,.024a4.57,4.57,0,0,0-1.426-.2c-1.038-.033-2.093.009-3.139.073Z" transform="translate(-344.125 -241.269)"/><path class="c" d="M503.8,403.047c-1.06.086-2.118.149-3.192.137a4.645,4.645,0,0,1-1.692-.242.6.6,0,0,1-.279-.3.494.494,0,0,1-.011-.284.8.8,0,0,1,.1-.185,1.342,1.342,0,0,1,.41-.315,4.483,4.483,0,0,1,.789-.319,22.744,22.744,0,0,1,6.39-.618,32.029,32.029,0,0,1,6.395.613,3.063,3.063,0,0,1,1.647.849.964.964,0,0,1,.2.69,1.131,1.131,0,0,1-.256.589,2.759,2.759,0,0,1-.731.612,11.88,11.88,0,0,1-3.091,1.168,37.355,37.355,0,0,1-6.359.9c-2.125.143-4.252.2-6.376.19a113.2,113.2,0,0,1-12.727-.746,42.137,42.137,0,0,1-6.357-1.176,8.241,8.241,0,0,1-3.154-1.571,2.676,2.676,0,0,1-.663-.908,2.175,2.175,0,0,1-.152-1.274,3.471,3.471,0,0,1,1.113-1.783,11.748,11.748,0,0,1,2.913-1.816,29.115,29.115,0,0,1,3.05-1.188,54.067,54.067,0,0,1,6.25-1.606c2.1-.434,4.223-.685,6.339-.984,2.119-.21,4.24-.464,6.362-.583,4.243-.33,8.489-.427,12.734-.508q12.735-.081,25.44.868c4.233.336,8.464.714,12.687,1.265a122.421,122.421,0,0,1,12.652,2.152,43.3,43.3,0,0,1,6.292,1.878,15.639,15.639,0,0,1,6.023,3.765,6.731,6.731,0,0,1,1.1,1.892,4.036,4.036,0,0,1,.273,1.147,3.8,3.8,0,0,1,0,1.186,7.149,7.149,0,0,1-1.782,3.746,20.8,20.8,0,0,1-5.519,4.193,48.662,48.662,0,0,1-5.953,2.785c-2.015.81-4.056,1.517-6.111,2.155-4.109,1.28-8.271,2.318-12.46,3.191s-8.4,1.615-12.637,2.114c-2.114.262-4.228.591-6.345.8l-6.355.611c-2.118.229-4.238.346-6.358.5l-6.361.429c-4.242.165-8.485.415-12.728.51-8.487.172-16.975.222-25.454.013q-12.719-.348-25.411-1.174c-16.914-1.188-33.784-2.959-50.542-5.485a464.8,464.8,0,0,1-49.781-10.06l.108-.488a827.661,827.661,0,0,0,100.514,11.042q12.61.712,25.237.972c8.414.23,16.829.324,25.239.231,4.206-.008,8.4-.168,12.608-.244l6.292-.295c2.1-.106,4.2-.173,6.286-.366l6.271-.5c2.09-.169,4.16-.456,6.242-.678,4.169-.418,8.29-1.087,12.391-1.854,4.1-.79,8.156-1.741,12.132-2.915,1.988-.586,3.952-1.235,5.869-1.972a45.141,45.141,0,0,0,5.557-2.5,17.576,17.576,0,0,0,4.6-3.33,3.772,3.772,0,0,0,.99-1.836,2.1,2.1,0,0,0-.549-1.61,12.755,12.755,0,0,0-4.635-2.873,39.886,39.886,0,0,0-5.815-1.824,119.544,119.544,0,0,0-12.295-2.276c-4.148-.6-8.33-1.04-12.515-1.434q-12.564-1.107-25.2-1.234c-4.2,0-8.411.011-12.6.254-2.1.076-4.181.284-6.269.449-2.072.252-4.155.456-6.2.837a52.284,52.284,0,0,0-6.048,1.427,27.047,27.047,0,0,0-2.873,1.053,10.129,10.129,0,0,0-2.485,1.46,1.9,1.9,0,0,0-.6.821c-.028.172.016.351.3.63a6.883,6.883,0,0,0,2.468,1.238,40.676,40.676,0,0,0,6.071,1.24,111.819,111.819,0,0,0,12.549.985c2.1.052,4.2.036,6.292-.064a36.418,36.418,0,0,0,6.191-.748,11.091,11.091,0,0,0,2.842-1,1.95,1.95,0,0,0,.491-.381.26.26,0,0,0,.071-.119c0-.009.017,0-.019-.049a2.5,2.5,0,0,0-1.143-.543,31.442,31.442,0,0,0-6.187-.71,22.219,22.219,0,0,0-6.191.467,3.836,3.836,0,0,0-.684.258.9.9,0,0,0-.225.149c.006,0,0,0,0-.014.023-.027,0-.072,0-.091-.034-.063-.017-.035,0-.024a4.57,4.57,0,0,0,1.426.2c1.038.032,2.093-.009,3.139-.073Z" transform="translate(-344.125 -241.269)"/><path class="b" d="M504,401.466a311.491,311.491,0,0,0-54.278-124.525" transform="translate(-344.125 -241.269)"/><path class="b" d="M504.014,402.7A241.585,241.585,0,0,1,559.352,276.94" transform="translate(-344.125 -241.269)"/><path class="b" d="M593.232,259.907a277.136,277.136,0,0,0-89.218,143.018" transform="translate(-344.125 -241.269)"/><path class="b" d="M415.84,259.907a335.088,335.088,0,0,1,88.174,143.018" transform="translate(-344.125 -241.269)"/><path class="b" d="M504.538,249.385q-.536,35.4-.692,71.461-.176,41.469.168,82.079" transform="translate(-344.125 -241.269)"/><circle class="c" cx="159.889" cy="161.655" r="1.141"/></svg>