<svg xmlns="http://www.w3.org/2000/svg" viewBox="0 0 303 153"><defs><style>.cls-1,.cls-3,.cls-4,.cls-5{fill:#121221;}.cls-2{fill:#366ce1;}.cls-3{opacity:0.74;}.cls-4{opacity:0.5;}.cls-5{opacity:0.25;}</style></defs><title>pyramid</title><g id="Слой_2" data-name="Слой 2"><g id="Work_space" data-name="Work space"><g id="pyramid"><path class="cls-1" d="M20,153H0l10-10Z"/><polygon class="cls-2" points="182 30 122 30 152 0 182 30"/><polygon class="cls-1" points="303 153 233 153 203 123 273 123 303 153"/><polygon class="cls-2" points="61 122 31 122 46 107 61 122"/><polygon class="cls-3" points="61 122 31 122 46 107 61 122"/><polygon class="cls-2" points="273 122 203 122 173 92 243 92 273 122"/><polygon class="cls-3" points="273 122 203 122 173 92 243 92 273 122"/><polygon class="cls-2" points="202 122 132 122 102 92 172 92 202 122"/><polygon class="cls-3" points="202 122 132 122 102 92 172 92 202 122"/><polygon class="cls-2" points="131 122 61 122 46 107 61 92 101 92 131 122"/><polygon class="cls-3" points="131 122 61 122 46 107 61 92 101 92 131 122"/><polygon class="cls-2" points="243 91 173 91 143 61 213 61 243 91"/><polygon class="cls-4" points="243 91 173 91 143 61 213 61 243 91"/><polygon class="cls-2" points="172 91 102 91 82 71 92 61 142 61 172 91"/><polygon class="cls-4" points="172 91 102 91 82 71 92 61 142 61 172 91"/><polygon class="cls-2" points="102 91 62 91 82 71 102 91"/><polygon class="cls-4" points="102 91 62 91 82 71 102 91"/><polygon class="cls-2" points="212 60 142 60 117 35 122 30 182 30 212 60"/><polygon class="cls-5" points="212 60 142 60 117 35 122 30 182 30 212 60"/><polygon class="cls-2" points="142 60 92 60 117 35 142 60"/><polygon class="cls-5" points="142 60 92 60 117 35 142 60"/><polygon class="cls-1" points="232 153 162 153 132 123 202 123 232 153"/><polygon class="cls-1" points="161 153 91 153 61 123 131 123 161 153"/><path class="cls-1" d="M90,153H20L10,143l20-20H60Z"/></g></g></g></svg>