<svg xmlns="http://www.w3.org/2000/svg" viewBox="0 0 198 167"><defs><style>.cls-1{fill:#121221;}.cls-2{fill:#366ce1;}</style></defs><title>team</title><g id="Слой_2" data-name="Слой 2"><g id="Слой_1-2" data-name="Слой 1"><g id="team"><path class="cls-1" d="M90,59a9,9,0,0,1,18,0V77a9,9,0,0,1-18,0Z"/><circle class="cls-1" cx="99" cy="86" r="9"/><circle class="cls-1" cx="94.5" cy="99.5" r="4.5"/><circle class="cls-1" cx="103.5" cy="99.5" r="4.5"/><circle class="cls-1" cx="94.5" cy="126.5" r="4.5"/><circle class="cls-1" cx="103.5" cy="126.5" r="4.5"/><circle class="cls-1" cx="103.5" cy="153.5" r="4.5"/><circle class="cls-1" cx="94.5" cy="153.5" r="4.5"/><rect class="cls-1" x="90" y="104" width="9" height="18"/><rect class="cls-1" x="99" y="104" width="9" height="18"/><rect class="cls-1" x="90" y="131" width="9" height="18"/><rect class="cls-1" x="99" y="131" width="9" height="18"/><circle class="cls-1" cx="85.5" cy="54.5" r="4.5"/><circle class="cls-1" cx="85.5" cy="81.5" r="4.5"/><circle class="cls-1" cx="85.5" cy="108.5" r="4.5"/><rect class="cls-1" x="81" y="59" width="9" height="18"/><rect class="cls-1" x="81" y="86" width="9" height="18"/><circle class="cls-1" cx="112.5" cy="54.5" r="4.5"/><circle class="cls-1" cx="112.5" cy="81.5" r="4.5"/><circle class="cls-1" cx="112.5" cy="108.5" r="4.5"/><rect class="cls-1" x="108" y="59" width="9" height="18"/><rect class="cls-1" x="108" y="86" width="9" height="18"/><path class="cls-1" d="M9,68a9,9,0,0,1,18,0V86A9,9,0,0,1,9,86Z"/><circle class="cls-1" cx="18" cy="95" r="9"/><circle class="cls-1" cx="13.5" cy="108.5" r="4.5"/><circle class="cls-1" cx="22.5" cy="108.5" r="4.5"/><circle class="cls-1" cx="13.5" cy="135.5" r="4.5"/><circle class="cls-1" cx="22.5" cy="135.5" r="4.5"/><circle class="cls-1" cx="22.5" cy="162.5" r="4.5"/><circle class="cls-1" cx="13.5" cy="162.5" r="4.5"/><rect class="cls-1" x="9" y="113" width="9" height="18"/><rect class="cls-1" x="18" y="113" width="9" height="18"/><rect class="cls-1" x="9" y="140" width="9" height="18"/><rect class="cls-1" x="18" y="140" width="9" height="18"/><circle class="cls-1" cx="4.5" cy="63.5" r="4.5"/><circle class="cls-1" cx="4.5" cy="90.5" r="4.5"/><circle class="cls-1" cx="4.5" cy="117.5" r="4.5"/><rect class="cls-1" y="68" width="9" height="18"/><rect class="cls-1" y="95" width="9" height="18"/><circle class="cls-1" cx="31.5" cy="63.5" r="4.5"/><circle class="cls-1" cx="31.5" cy="90.5" r="4.5"/><circle class="cls-1" cx="31.5" cy="117.5" r="4.5"/><rect class="cls-1" x="27" y="68" width="9" height="18"/><rect class="cls-1" x="27" y="95" width="9" height="18"/><path class="cls-1" d="M171,68a9,9,0,0,1,18,0V86a9,9,0,0,1-18,0Z"/><circle class="cls-1" cx="180" cy="95" r="9"/><circle class="cls-1" cx="175.5" cy="108.5" r="4.5"/><circle class="cls-1" cx="184.5" cy="108.5" r="4.5"/><circle class="cls-1" cx="175.5" cy="135.5" r="4.5"/><circle class="cls-1" cx="184.5" cy="135.5" r="4.5"/><circle class="cls-1" cx="184.5" cy="162.5" r="4.5"/><circle class="cls-1" cx="175.5" cy="162.5" r="4.5"/><rect class="cls-1" x="171" y="113" width="9" height="18"/><rect class="cls-1" x="180" y="113" width="9" height="18"/><rect class="cls-1" x="171" y="140" width="9" height="18"/><rect class="cls-1" x="180" y="140" width="9" height="18"/><circle class="cls-1" cx="166.5" cy="63.5" r="4.5"/><circle class="cls-1" cx="166.5" cy="90.5" r="4.5"/><circle class="cls-1" cx="166.5" cy="117.5" r="4.5"/><rect class="cls-1" x="162" y="68" width="9" height="18"/><rect class="cls-1" x="162" y="95" width="9" height="18"/><circle class="cls-1" cx="193.5" cy="63.5" r="4.5"/><circle class="cls-1" cx="193.5" cy="90.5" r="4.5"/><circle class="cls-1" cx="193.5" cy="117.5" r="4.5"/><rect class="cls-1" x="189" y="68" width="9" height="18"/><rect class="cls-1" x="189" y="95" width="9" height="18"/><rect class="cls-2" x="13" y="9" width="9" height="36"/><rect class="cls-2" x="94" width="9" height="36"/><rect class="cls-2" x="175" y="9" width="9" height="36"/><path class="cls-2" d="M13,9,94,0h9l81,9q-.042,3.634-.085,7.268L98.394,6.127,13,17.239Z"/><rect class="cls-2" x="86.648" y="21.423" width="23.831" height="26.366"/><path class="cls-2" d="M168.028,57.042q5.641-13.626,11.282-27.253l12.232,27.253Z"/><circle class="cls-2" cx="17.5" cy="44.81" r="12.613"/></g></g></g></svg>