<svg xmlns="http://www.w3.org/2000/svg" viewBox="0 0 366.107 327.621"><defs><style>.cls-1,.cls-4,.cls-5{fill:#1d1e20;}.cls-2,.cls-3{fill:none;}.cls-2{stroke:#e1e123;}.cls-2,.cls-3,.cls-4,.cls-5{stroke-miterlimit:10;}.cls-3,.cls-4,.cls-5{stroke:#1d1e20;}.cls-3,.cls-4{stroke-width:3px;}</style></defs><title>Openfiles</title><g id="Слой_2" data-name="Слой 2"><g id="Слой_1-2" data-name="Слой 1"><g id="Openfiles"><path class="cls-1" d="M300.053,195.621v120a12.035,12.035,0,0,1-12,12h-210a12.035,12.035,0,0,1-12-12v-168h138.5a41.655,41.655,0,0,1,41.13,36h42.37A12.035,12.035,0,0,1,300.053,195.621Z"/><circle class="cls-2" cx="183.053" cy="246.621" r="54"/><path class="cls-2" d="M183.053,192.621a58.5,58.5,0,0,0,0,108"/><path class="cls-2" d="M183.053,192.621a90,90,0,0,0,0,108"/><path class="cls-2" d="M183.053,192.621v108"/><path class="cls-2" d="M183.053,300.621a58.5,58.5,0,0,0,0-108"/><path class="cls-2" d="M183.053,300.621a90,90,0,0,0,0-108"/><path class="cls-2" d="M237.053,246.621a58.5,58.5,0,0,0-108,0"/><path class="cls-2" d="M237.053,246.621a90,90,0,0,0-108,0"/><path class="cls-2" d="M237.053,246.621h-108"/><path class="cls-2" d="M129.053,246.621a58.5,58.5,0,0,0,108,0"/><path class="cls-2" d="M129.053,246.621a90,90,0,0,0,108,0"/><path class="cls-3" d="M219.053,138.621c3.967-18.774,12.3-29.951,18-36,26.279-27.88,76.84-31.89,126-9l-27,18,9-45,18,27"/><path class="cls-3" d="M147.053,138.621c-3.966-18.774-12.3-29.951-18-36-26.278-27.88-76.839-31.89-126-9l27,18-9-45-18,27"/><path class="cls-4" d="M183.053,129.621v-126l-18,18h36l-18-18"/><path class="cls-5" d="M3.053,93.621l18-27,9,45Z"/><path class="cls-5" d="M165.053,21.621l18-18,18,18Z"/><path class="cls-5" d="M336.053,111.621l9-45,18,27Z"/></g></g></g></svg>