<svg id="Слой_1" data-name="Слой 1" xmlns="http://www.w3.org/2000/svg" viewBox="0 0 216 336"><defs><style>.cls-1{fill:#121221;}.cls-2{fill:#366CE1;}</style></defs><title>sel</title><path class="cls-1" d="M599,542a36.007,36.007,0,0,1-25.65-61.27,108.1,108.1,0,0,0-108.79-22.77A72,72,0,1,1,607.88,444.9c.08-1.63.12-3.26.12-4.9a107.567,107.567,0,0,0-18.46-60.42,107.921,107.921,0,0,1-80.08-47.16Q504.78,332,500,332a107.716,107.716,0,0,0-36.07,6.18,72.01,72.01,0,0,1-66.72,68.63A107.4,107.4,0,0,0,392,440a106.292,106.292,0,0,0,.78,12.94A36.468,36.468,0,0,1,401,452a36,36,0,0,1,33.29,22.29,35.346,35.346,0,0,1,2.52,10.03A34.476,34.476,0,0,1,437,488a35.942,35.942,0,0,1-13.57,28.16,108.093,108.093,0,0,0,112.01,25.88A72,72,0,1,1,392.12,555.1c-.08,1.63-.12,3.26-.12,4.9a107.458,107.458,0,0,0,20.3,63.03,107.8,107.8,0,0,1,85.4,44.94c.77.02,1.53.03,2.3.03a107.652,107.652,0,0,0,36.06-6.17c-.04-.94-.06-1.88-.06-2.83a72.016,72.016,0,0,1,68.58-71.92,108.86,108.86,0,0,0,1.79-45.84A35.779,35.779,0,0,1,599,542Zm-99-6a36.007,36.007,0,0,1-29.46-56.7,1.047,1.047,0,0,1,.08-.11,36,36,0,0,1,58.84,41.51,1.047,1.047,0,0,1-.08.11A35.956,35.956,0,0,1,500,536Z" transform="translate(-392 -332)"/><path class="cls-1" d="M540.38,500.7a41.515,41.515,0,0,1-7.568,23.956,1.27,1.27,0,0,1-.093.127,41.667,41.667,0,0,1-68.094-48.038,1.182,1.182,0,0,1,.093-.128A41.665,41.665,0,0,1,540.38,500.7Z" transform="translate(-392 -332)"/><path class="cls-2" d="M536,500a35.871,35.871,0,0,1-6.54,20.7,1.047,1.047,0,0,1-.08.11,36,36,0,0,1-58.84-41.51,1.047,1.047,0,0,1,.08-.11A36,36,0,0,1,536,500Z" transform="translate(-392 -332)"/></svg>