<svg id="Слой_1" data-name="Слой 1" xmlns="http://www.w3.org/2000/svg" viewBox="0 0 216 336"><defs><style>.cls-1{fill:#121221;}.cls-2{fill:#366CE1;}</style></defs><title>ser</title><path class="cls-1" d="M648,540a108,108,0,0,1-216,0c0-1.64.04-3.27.12-4.9a71.975,71.975,0,1,0,10.31-41.44A108.01,108.01,0,0,1,648,540Z" transform="translate(-432 -312)"/><path class="cls-1" d="M432,420a108,108,0,0,1,216,0c0,1.64-.04,3.27-.12,4.9a71.975,71.975,0,1,0-10.31,41.44A108.01,108.01,0,0,1,432,420Z" transform="translate(-432 -312)"/><circle class="cls-2" cx="108" cy="168" r="36"/></svg>