<svg id="Слой_1" data-name="Слой 1" xmlns="http://www.w3.org/2000/svg" viewBox="0 0 288 279"><defs><style>.cls-1{fill:#366CE1;}.cls-2{fill:#12121f;}</style></defs><title>wis</title><path class="cls-1" d="M684,468.01A107.989,107.989,0,0,1,577.04,576,36,36,0,0,0,576,504.01a72,72,0,0,0,2.14-143.97A107.98,107.98,0,0,1,684,468.01Z" transform="translate(-396 -297)"/><path class="cls-1" d="M502.96,576a107.993,107.993,0,0,1-1.1-215.96A72,72,0,0,0,504,504.01,36,36,0,0,0,502.96,576Z" transform="translate(-396 -297)"/><path class="cls-2" d="M612,369a72,72,0,1,1-74.14-71.97c.71-.02,1.43-.03,2.14-.03s1.43.01,2.14.03A72.01,72.01,0,0,1,612,369Z" transform="translate(-396 -297)"/><circle class="cls-1" cx="144" cy="207" r="36"/></svg>
