<svg id="Слой_1" data-name="Слой 1" xmlns="http://www.w3.org/2000/svg" viewBox="0 0 437 437"><defs><style>.cls-1{fill:#1d1e20;}.cls-1,.cls-2{stroke:#1e1d20;stroke-miterlimit:10;stroke-width:5px;}.cls-2{fill:#cccccc;}.cls-3{fill:#230f10;}.cls-4{fill:#df1f26;}</style></defs><title>wrc</title><path class="cls-1" d="M720,360V587.408A60.592,60.592,0,0,1,659.408,648H348.592A60.592,60.592,0,0,1,288,587.408V360H432l14.4,43.2L504,576l57.6-172.8L576,360Z" transform="translate(-285.5 -213.5)"/><path class="cls-2" d="M288,360V276.408A60.409,60.409,0,0,1,348.408,216H659.592A60.409,60.409,0,0,1,720,276.408V360Z" transform="translate(-285.5 -213.5)"/><path class="cls-3" d="M576,360l-14.4,43.2L504,576,446.4,403.2,432,360Z" transform="translate(-285.5 -213.5)"/><path class="cls-4" d="M576,360H432a72,72,0,0,1,144,0Z" transform="translate(-285.5 -213.5)"/></svg>