<svg id="Слой_1" data-name="Слой 1" xmlns="http://www.w3.org/2000/svg" viewBox="0 0 221 221"><defs><style>.cls-1{fill:#e1e0e0;stroke:#1e1d20;}.cls-1,.cls-2{stroke-miterlimit:10;stroke-width:5px;}.cls-2{fill:#e01f26;stroke:#1d1e20;}</style></defs><title>equ</title><path class="cls-1" d="M74.5,2.5h72a72,72,0,0,1,72,72v0a0,0,0,0,1,0,0H2.5a0,0,0,0,1,0,0v0A72,72,0,0,1,74.5,2.5Z"/><path class="cls-1" d="M2.5,146.5h216a0,0,0,0,1,0,0v0a72,72,0,0,1-72,72h-72a72,72,0,0,1-72-72v0A0,0,0,0,1,2.5,146.5Z"/><path class="cls-2" d="M2.5,74.5h144a72,72,0,0,1,72,72v0a0,0,0,0,1,0,0H74.5a72,72,0,0,1-72-72v0A0,0,0,0,1,2.5,74.5Z"/></svg>