<svg id="Слой_1" data-name="Слой 1" xmlns="http://www.w3.org/2000/svg" viewBox="0 0 898.993 437"><defs><style>.cls-1{fill:#cccccc;stroke:#1e1d20;stroke-miterlimit:10;stroke-width:5px;}.cls-2{fill:#1d1e20;}.cls-3{fill:#230f10;}.cls-4{fill:#df1f26;}</style></defs><title>dre</title><path class="cls-1" d="M391.967,484.385c-8.22-112.294-124.551-210.222-263.913-199.593V404.774C84.863,415.848,53,454.119,53,499.642s31.86,83.793,75.051,94.868V715.374c58.234,3.935,111.779-11.014,155.219-37.791L315.287,716H377q-27.925-33.519-55.851-67.028C368.815,605.241,396.407,545.164,391.967,484.385ZM128.054,552.056C107.989,542.7,94.12,522.75,94.12,499.642s13.869-43.063,33.934-52.423a61.375,61.375,0,0,1,50.5-.454c20.605,9.154,34.928,29.383,34.928,52.877a56.636,56.636,0,0,1-9.36,31.217,59.342,59.342,0,0,1-25.217,21.488c-.111.06-.231.111-.351.163a61.375,61.375,0,0,1-50.5-.454Zm50.5,104.279V594.758a101.712,101.712,0,0,0,26.725-10.766q21.408,25.689,42.823,51.386A182.552,182.552,0,0,1,178.557,656.335ZM239.6,551.13a95.674,95.674,0,0,0,14.991-51.488c0-45.866-32.339-84.377-76.036-95.117V330.854c87.822,8.229,155.613,76.988,158.013,158.133,1.346,45.257-17.854,87.583-50.04,118.448Q263.066,579.279,239.6,551.13Z" transform="translate(-50.503 -281.5)"/><path class="cls-1" d="M213.485,499.642a56.636,56.636,0,0,1-9.36,31.217,59.342,59.342,0,0,1-25.217,21.488c-.111.06-.231.111-.351.163a61.375,61.375,0,0,1-50.5-.454V447.219a61.375,61.375,0,0,1,50.5-.454C199.162,455.919,213.485,476.148,213.485,499.642Z" transform="translate(-50.503 -281.5)"/><path class="cls-1" d="M205.282,583.992q21.408,25.689,42.823,51.386a182.552,182.552,0,0,1-69.548,20.957V594.758A101.712,101.712,0,0,0,205.282,583.992Z" transform="translate(-50.503 -281.5)"/><path class="cls-1" d="M286.53,607.435q-23.464-28.156-46.928-56.3a95.674,95.674,0,0,0,14.991-51.488c0-45.866-32.339-84.377-76.036-95.117V330.854c87.822,8.229,155.613,76.988,158.013,158.133C337.916,534.244,318.716,576.57,286.53,607.435Z" transform="translate(-50.503 -281.5)"/><path class="cls-2" d="M213.485,499.642a56.636,56.636,0,0,1-9.36,31.217,59.342,59.342,0,0,1-25.217,21.488c-.111.06-.231.111-.351.163V446.765C199.162,455.919,213.485,476.148,213.485,499.642Z" transform="translate(-50.503 -281.5)"/><path class="cls-2" d="M205.282,583.992q21.408,25.689,42.823,51.386a182.552,182.552,0,0,1-69.548,20.957V594.758A101.712,101.712,0,0,0,205.282,583.992Z" transform="translate(-50.503 -281.5)"/><path class="cls-2" d="M286.53,607.435q-23.464-28.156-46.928-56.3a95.674,95.674,0,0,0,14.991-51.488c0-45.866-32.339-84.377-76.036-95.117V330.854c87.822,8.229,155.613,76.988,158.013,158.133C337.916,534.244,318.716,576.57,286.53,607.435Z" transform="translate(-50.503 -281.5)"/><path class="cls-1" d="M213.485,499.642a56.636,56.636,0,0,1-9.36,31.217,59.342,59.342,0,0,1-25.217,21.488c-.111.06-.231.111-.351.163a61.375,61.375,0,0,1-50.5-.454C107.989,542.7,94.12,522.75,94.12,499.642s13.869-43.063,33.934-52.423a61.375,61.375,0,0,1,50.5-.454C199.162,455.919,213.485,476.148,213.485,499.642Z" transform="translate(-50.503 -281.5)"/><path class="cls-3" d="M213.485,499.642a56.636,56.636,0,0,1-9.36,31.217,59.342,59.342,0,0,1-25.217,21.488c-.111.06-.231.111-.351.163a61.375,61.375,0,0,1-50.5-.454C107.989,542.7,94.12,522.75,94.12,499.642s13.869-43.063,33.934-52.423a61.375,61.375,0,0,1,50.5-.454C199.162,455.919,213.485,476.148,213.485,499.642Z" transform="translate(-50.503 -281.5)"/><ellipse class="cls-4" cx="103.297" cy="218.138" rx="25.009" ry="24.34"/><path class="cls-1" d="M423.286,716V469.145H608.428v61.714H485v30.856H608.428v61.714H485v30.857H608.428V716Z" transform="translate(-50.503 -281.5)"/><path class="cls-1" d="M916.14,438.285a30.859,30.859,0,0,0-30.857,30.856v5.366a91.322,91.322,0,0,0-29.957-5.348c-.3-.018-.6-.018-.9-.018s-.6,0-.9.018a92.079,92.079,0,0,0-60.814,23.8,92.079,92.079,0,0,0-60.814-23.8c-.3-.018-.6-.018-.9-.018s-.6,0-.9.018c-50.082.471-91.182,41.571-91.653,91.653-.017.3-.017.6-.017.9V685.14a30.857,30.857,0,1,0,61.713,0V654.283h61.714V685.14a30.857,30.857,0,0,0,61.714,0V561.712a30.857,30.857,0,1,1,61.714,0V685.14a30.857,30.857,0,0,0,61.714,0v-216A30.859,30.859,0,0,0,916.14,438.285ZM761.855,592.569H700.141V561.712a30.857,30.857,0,1,1,61.714,0Z" transform="translate(-50.503 -281.5)"/></svg>