<svg id="Слой_1" data-name="Слой 1" xmlns="http://www.w3.org/2000/svg" viewBox="0 0 509 508.736"><defs><style>.cls-1{fill:none;stroke:#1d1e20;stroke-miterlimit:10;stroke-width:5px;}.cls-2{fill:#df1f26;}.cls-3{fill:#1d1e20;}</style></defs><title>lns</title><path class="cls-1" d="M360,396H576" transform="translate(-357.5 -285.5)"/><path class="cls-1" d="M468,360" transform="translate(-357.5 -285.5)"/><path class="cls-1" d="M504,324c6.239,24.614-8.046,53.5-36,72-27.954-18.5-42.239-47.386-36-72,3.817-15.058,17.211-36,36-36S500.183,308.942,504,324Z" transform="translate(-357.5 -285.5)"/><path class="cls-1" d="M468.444,396V576" transform="translate(-357.5 -285.5)"/><path class="cls-1" d="M396,684H360V612H576.187q-.093,36-.187,72H540" transform="translate(-357.5 -285.5)"/><circle class="cls-2" cx="38.5" cy="362.5" r="9"/><circle class="cls-2" cx="110.5" cy="362.5" r="9"/><circle class="cls-2" cx="182.5" cy="362.5" r="9"/><path class="cls-2" d="M360,720H576a117,117,0,0,1-216,0Z" transform="translate(-357.5 -285.5)"/><path class="cls-1" d="M657,396V306h54v90" transform="translate(-357.5 -285.5)"/><path class="cls-1" d="M657,378h54" transform="translate(-357.5 -285.5)"/><path class="cls-1" d="M657,342h54" transform="translate(-357.5 -285.5)"/><circle class="cls-1" cx="470.5" cy="65.5" r="36"/><circle class="cls-3" cx="470.5" cy="65.5" r="18"/><path class="cls-1" d="M630,549l18,27h72l18-27" transform="translate(-357.5 -285.5)"/><path class="cls-1" d="M684,495v81" transform="translate(-357.5 -285.5)"/><path class="cls-2" d="M774,522v54h90V522l-27,27-18-27-18,27Z" transform="translate(-357.5 -285.5)"/><path class="cls-1" d="M684,702v90" transform="translate(-357.5 -285.5)"/><path class="cls-1" d="M648,720h72" transform="translate(-357.5 -285.5)"/><path class="cls-1" d="M648,756l36-36,36,36" transform="translate(-357.5 -285.5)"/><path class="cls-1" d="M792,720l36,18,36-18" transform="translate(-357.5 -285.5)"/><path class="cls-1" d="M828,720v72" transform="translate(-357.5 -285.5)"/><path class="cls-1" d="M864,792l-36-18-36,18" transform="translate(-357.5 -285.5)"/></svg>