<svg id="Слой_1" data-name="Слой 1" xmlns="http://www.w3.org/2000/svg" viewBox="0 0 437 437"><defs><style>.cls-1{fill:#e1e0e0;}.cls-1,.cls-2,.cls-3{stroke:#1d1e20;stroke-miterlimit:10;stroke-width:5px;}.cls-2{fill:#230f10;}.cls-3{fill:#df1f26;}</style></defs><title>eco</title><path class="cls-1" d="M716,500c0,119.294-96.706,216-216,216S284,619.294,284,500s96.706-216,216-216,216,96.706,216,216" transform="translate(-281.5 -281.5)"/><path class="cls-2" d="M483.515,546.33c-7.723,8.216,1.426,18.74,0,49.453-.928,20-5.331,26.786,0,32.969,7.183,8.331,25.787,8.331,32.97,0,5.331-6.183.928-12.965,0-32.969-1.426-30.713,7.723-41.237,0-49.453C508.983,538.349,491.017,538.349,483.515,546.33Z" transform="translate(-281.5 -281.5)"/><circle class="cls-3" cx="226.742" cy="124.711" r="41.211"/><circle class="cls-3" cx="185.531" cy="182.407" r="49.454"/><circle class="cls-3" cx="234.985" cy="215.376" r="65.938"/></svg>