<svg id="Слой_1" data-name="Слой 1" xmlns="http://www.w3.org/2000/svg" viewBox="0 0 477 477"><defs><style>.cls-1{fill:#1d1e20;}.cls-2{fill:#e1e0e0;}.cls-3{fill:#230f10;}.cls-4{fill:#e01f26;}</style></defs><title>lif</title><path class="cls-1" d="M738.5,500c0,131.722-106.778,238.5-238.5,238.5A119.25,119.25,0,0,0,500,500a119.25,119.25,0,0,1,0-238.5C631.722,261.5,738.5,368.278,738.5,500Z" transform="translate(-261.5 -261.5)"/><path class="cls-2" d="M619.25,619.25A119.259,119.259,0,0,1,500,738.5c-131.722,0-238.5-106.778-238.5-238.5S368.278,261.5,500,261.5A119.25,119.25,0,0,0,500,500,119.259,119.259,0,0,1,619.25,619.25Z" transform="translate(-261.5 -261.5)"/><circle class="cls-3" cx="238.5" cy="357.75" r="29.812"/><circle class="cls-4" cx="238.5" cy="119.25" r="29.812"/></svg>