<svg id="Слой_1" data-name="Слой 1" xmlns="http://www.w3.org/2000/svg" viewBox="0 0 473 509"><defs><style>.cls-1{fill:#e1e0e0;}.cls-1,.cls-2,.cls-3,.cls-4,.cls-5{stroke:#1d1e20;stroke-miterlimit:10;stroke-width:5px;}.cls-2{fill:#df1f26;}.cls-3{fill:#230f10;}.cls-4{fill:#fff;}.cls-5{fill:none;}</style></defs><title>pla</title><path class="cls-1" d="M734,428a36,36,0,0,1-36,36H302a36,36,0,0,1,0-72h27a72.053,72.053,0,0,1,86.63-70.51,108.04,108.04,0,0,1,204.31-1.23c2-.18,4.02-.26,6.06-.26a72.006,72.006,0,0,1,72,72A36,36,0,0,1,734,428Z" transform="translate(-263.5 -245.5)"/><rect class="cls-2" x="128.5" y="254.5" width="216" height="108" rx="43.5"/><circle class="cls-3" cx="236.5" cy="470.5" r="36"/><circle class="cls-3" cx="128.5" cy="470.5" r="36"/><circle class="cls-3" cx="344.5" cy="470.5" r="36"/><path class="cls-4" d="M500,680V608" transform="translate(-263.5 -245.5)"/><path class="cls-5" d="M392,680V644H608v36" transform="translate(-263.5 -245.5)"/><line class="cls-5" x1="236.5" y1="218.5" x2="236.5" y2="254.5"/></svg>