<svg id="Слой_1" data-name="Слой 1" xmlns="http://www.w3.org/2000/svg" viewBox="0 0 800.4 535.45"><defs><style>.cls-1{fill:#1d1e20;}.cls-2,.cls-4{fill:#e1e0e0;}.cls-2{stroke:#1d1e20;stroke-width:3px;}.cls-2,.cls-4,.cls-5,.cls-6{stroke-miterlimit:10;}.cls-3{fill:#df1f26;}.cls-4,.cls-5{stroke:#df1f26;}.cls-5,.cls-6{fill:none;}.cls-6{stroke:#231f20;}</style></defs><title>idea</title><path class="cls-1" d="M575.38,430.29H719.63v36.06H611.45v90.16H701.6v36.06H611.45v90.16H719.63v36.06H575.38Z" transform="translate(-99.55 -183.34)"/><path class="cls-2" d="M430.22,436.16a53.84,53.84,0,0,1,23.34,23,.54.54,0,0,0,.05.11q33.94,59.74,67.86,119.52c.35.59.67,1.18,1,1.77a91.71,91.71,0,1,1-171.59,38.29s0-.09,0-.14L352,489.26c0-3.64.06-7.27.1-10.91a54,54,0,0,1,78.12-42.19Z" transform="translate(-99.55 -183.34)"/><path class="cls-3" d="M488.79,579.05a63.25,63.25,0,0,1,4.71,5.52l20.57,3.08,8.41,25.84-14.81,14.6a62.51,62.51,0,0,1-.57,7.23q5.77,7.83,11.56,15.64l-12.33,24.21L486.89,675a62.43,62.43,0,0,1-5,4.34q-1.49,9.86-3,19.73-12.92,4.2-25.84,8.41Q446.4,700.71,439.7,694a67.56,67.56,0,0,1-9.08-.61L415,704.91l-24.22-12.33q.08-9.72.14-19.44a67.32,67.32,0,0,1-5.47-6.49q-9-1.36-18-2.7Q363.27,651,359,638.11q6.49-6.37,12.95-12.77a69,69,0,0,1,.6-8.47L361,601.24,373.36,577l19.44.14a68.88,68.88,0,0,1,7-5.83q1.44-9.41,2.83-18.84,12.93-4.18,25.84-8.41l14,14.21a64,64,0,0,1,6.61.55l15.64-11.55,24.21,12.32Q488.86,569.33,488.79,579.05Z" transform="translate(-99.55 -183.34)"/><path class="cls-3" d="M436.82,499.32c1.18,3.29,2.26,6.51,3.29,9.66-2.09,2.3-4.15,4.61-6.22,6.89l-18-4.93-2-.56-1.56,2q-5.69,7.13-11.38,14.27l-9.06-1.92c-1.5-5.69-3-11.38-4.45-17.05-.26-1-.54-2-.8-3.05-.94-.16-1.88-.34-2.82-.48-2.33-.42-4.67-.8-7.06-1.18-3.46-.56-6.89-1.06-10.25-1.54l-2.87-8.82Q371,485.3,378.4,478c-1.33-3.16-2.63-6.37-3.93-9.61s-2.56-6.47-3.81-9.68c2.09-2.28,4.15-4.59,6.23-6.89,3.27.94,6.62,1.86,10,2.76s6.93,1.81,10.34,2.65c4.31-5.41,8.62-10.84,12.92-16.23,3,.62,6.05,1.28,9.08,1.9,1.76,6.71,3.48,13.41,5.25,20.1l10.28,1.54c3.42.5,6.83,1,10.25,1.54l2.87,8.82-14.77,14.56C434.38,492.63,435.6,495.92,436.82,499.32Z" transform="translate(-99.55 -183.34)"/><path class="cls-1" d="M304.91,440.1V646.66a72.15,72.15,0,0,1-58.74,70.89,92,92,0,0,1-11.2,1.2c-.73,0-1.47,0-2.19,0s-1.38,0-2.06,0a72.14,72.14,0,0,1-70.06-72.11V439.44a131.38,131.38,0,0,0,144.25.66Z" transform="translate(-99.55 -183.34)"/><path class="cls-4" d="M365.51,316.57c0,46.52-24.46,87.77-61.1,111.5a131.43,131.43,0,0,1-144.25-.66c-36.11-23.83-60.11-64.76-60.11-110.84,0-72.81,59.92-132.73,132.73-132.73S365.51,243.76,365.51,316.57Z" transform="translate(-99.55 -183.34)"/><path class="cls-5" d="M100.05,323.12a745.1,745.1,0,0,0,130.8,11.71,745.21,745.21,0,0,0,134.52-12.06" transform="translate(-99.55 -183.34)"/><path class="cls-5" d="M108,271.52a423.42,423.42,0,0,1,250.12,1.68" transform="translate(-99.55 -183.34)"/><path class="cls-5" d="M141.13,220.92a193.67,193.67,0,0,1,181.53-1.66" transform="translate(-99.55 -183.34)"/><path class="cls-5" d="M112.17,371.67a333.39,333.39,0,0,0,240.41,1.73" transform="translate(-99.55 -183.34)"/><path class="cls-5" d="M317.63,418.32A218.73,218.73,0,0,1,146,416.64" transform="translate(-99.55 -183.34)"/><path class="cls-5" d="M230.27,183.87l1,265.42" transform="translate(-99.55 -183.34)"/><path class="cls-5" d="M199.76,188.05a358.33,358.33,0,0,0,2.3,257.61" transform="translate(-99.55 -183.34)"/><path class="cls-5" d="M162.3,428.8a205.68,205.68,0,0,1-4.46-221.51" transform="translate(-99.55 -183.34)"/><path class="cls-5" d="M261.45,187a347.74,347.74,0,0,1,24.26,125.76,348.12,348.12,0,0,1-26.08,133.77" transform="translate(-99.55 -183.34)"/><path class="cls-5" d="M306.82,206.66c10.22,14.89,31.28,49.92,33.65,99.1,3.1,64.42-28,110-37.84,123.44" transform="translate(-99.55 -183.34)"/><path class="cls-6" d="M352.1,478.35c0,3.64-.06,7.27-.1,10.91A53.07,53.07,0,0,1,352.1,478.35Z" transform="translate(-99.55 -183.34)"/><path class="cls-6" d="M453.33,458.81c.07.14.16.27.23.39" transform="translate(-99.55 -183.34)"/><path class="cls-1" d="M899.93,501.49c-.48-38.85-32.34-70.7-71.18-71.18-.31,0-.63,0-.93,0s-.62,0-.92,0c-38.85.48-70.7,32.33-71.18,71.18,0,.3,0,.62,0,.92V700.76a18,18,0,0,0,36.06,0V592.57h72.13V700.76a18,18,0,0,0,36.06,0V502.41C900,502.11,900,501.79,899.93,501.49Zm-108.17,55v-54.1a36.07,36.07,0,0,1,72.13,0v54.1Z" transform="translate(-99.55 -183.34)"/></svg>