<svg xmlns="http://www.w3.org/2000/svg" viewBox="0 0 170 210"><defs><style>.cls-1{fill:#366ce1;}</style></defs><title>a10</title><g id="Слой_2" data-name="Слой 2"><g id="Слой_3" data-name="Слой 3"><g id="a10"><rect x="10" y="70" width="30" height="10"/><rect class="cls-1" x="130" y="70" width="30" height="10"/><rect class="cls-1" x="130" y="130" width="30" height="10"/><rect x="10" y="100" width="30" height="10"/><rect x="10" y="130" width="30" height="10"/><rect x="40" y="110" width="10" height="20"/><rect y="80" width="10" height="20"/><rect x="40" y="80" width="10" height="10"/><rect y="120" width="10" height="10"/><rect x="60" y="70" width="10" height="70"/><rect class="cls-1" x="120" y="140" width="10" height="70"/><rect class="cls-1" x="160" y="140" width="10" height="70"/><rect class="cls-1" x="120" y="80" width="10" height="50"/><rect class="cls-1" x="160" y="80" width="10" height="50"/><rect class="cls-1" x="130" width="30" height="10"/><rect class="cls-1" x="130" y="30" width="30" height="10"/><rect class="cls-1" x="120" y="10" width="10" height="60"/><rect class="cls-1" x="160" y="10" width="10" height="60"/><rect x="70" y="100" width="40" height="10"/><rect x="70" y="70" width="40" height="10"/><rect x="70" y="130" width="40" height="10"/><rect x="10" width="30" height="10"/><rect x="10" y="30" width="30" height="10"/><rect x="10" y="60" width="30" height="10"/><rect x="40" y="40" width="10" height="20"/><rect y="10" width="10" height="20"/><rect x="40" y="10" width="10" height="10"/><rect y="50" width="10" height="10"/><rect x="60" width="10" height="70"/><rect x="70" y="30" width="40" height="10"/><rect x="70" width="40" height="10"/><rect x="70" y="60" width="40" height="10"/><rect x="10" y="140" width="30" height="10"/><rect x="10" y="170" width="30" height="10"/><rect x="10" y="200" width="30" height="10"/><rect x="40" y="180" width="10" height="20"/><rect y="150" width="10" height="20"/><rect x="40" y="150" width="10" height="10"/><rect y="190" width="10" height="10"/><rect x="60" y="140" width="10" height="70"/><rect x="70" y="170" width="40" height="10"/><rect x="70" y="140" width="40" height="10"/><rect x="70" y="200" width="40" height="10"/><rect class="cls-1" x="130" y="150" width="10" height="10"/><rect class="cls-1" x="140" y="160" width="10" height="10"/><rect class="cls-1" x="150" y="150" width="10" height="10"/></g></g></g></svg>