<svg xmlns="http://www.w3.org/2000/svg" viewBox="0 0 100 160"><defs><style>.cls-1{fill:#366ce1;}</style></defs><title>a11</title><g id="Слой_2" data-name="Слой 2"><g id="Слой_3" data-name="Слой 3"><g id="a11"><rect y="100" width="20" height="20"/><rect x="40" y="60" width="20" height="20"/><rect x="40" y="140" width="20" height="20"/><rect x="80" y="100" width="20" height="20"/><rect x="70" y="130" width="20" height="20"/><rect x="10" y="130" width="20" height="20"/><rect x="10" y="70" width="20" height="20"/><rect x="70" y="70" width="20" height="20"/><rect x="30" y="130" width="40" height="10"/><rect x="30" y="80" width="40" height="10"/><rect x="5" y="105" width="40" height="10" transform="translate(135 85) rotate(90)"/><rect x="55" y="105" width="40" height="10" transform="translate(185 35) rotate(90)"/><rect x="30" y="120" width="10" height="10"/><rect x="60" y="120" width="10" height="10"/><rect x="30" y="90" width="10" height="10"/><rect x="60" y="90" width="10" height="10"/><rect class="cls-1" x="40" width="20" height="60"/><rect class="cls-1" x="30" y="10" width="40" height="10"/><rect class="cls-1" x="20" y="20" width="60" height="10"/></g></g></g></svg>