<svg xmlns="http://www.w3.org/2000/svg" viewBox="0 0 200 180"><defs><style>.cls-1{fill:#366ce1;}</style></defs><title>a2</title><g id="Слой_2" data-name="Слой 2"><g id="Слой_3" data-name="Слой 3"><g id="a2"><rect class="cls-1" x="80" y="50" width="20" height="20" transform="translate(150 -30) rotate(90)"/><rect class="cls-1" x="100" y="50" width="20" height="20" transform="translate(170 -50) rotate(90)"/><rect class="cls-1" x="80" y="110" width="20" height="20"/><rect class="cls-1" x="100" y="110" width="20" height="20"/><rect class="cls-1" x="120" y="70" width="20" height="20" transform="translate(260 160) rotate(180)"/><rect class="cls-1" x="120" y="90" width="20" height="20" transform="translate(260 200) rotate(180)"/><rect class="cls-1" x="60" y="70" width="20" height="20" transform="translate(140 160) rotate(180)"/><rect class="cls-1" x="60" y="90" width="20" height="20" transform="translate(140 200) rotate(180)"/><polygon class="cls-1" points="170 160 170 180 30 180 30 160 40 160 40 140 60 140 60 130 140 130 140 140 160 140 160 160 170 160"/><rect x="40" width="20" height="20" transform="translate(60 -40) rotate(90)"/><rect x="60" width="20" height="20" transform="translate(80 -60) rotate(90)"/><rect x="80" width="20" height="20" transform="translate(100 -80) rotate(90)"/><rect x="100" width="20" height="20" transform="translate(120 -100) rotate(90)"/><rect x="120" width="20" height="20" transform="translate(140 -120) rotate(90)"/><rect x="140" width="20" height="20" transform="translate(160 -140) rotate(90)"/><rect x="160" y="20" width="20" height="20" transform="translate(340 60) rotate(180)"/><rect x="180" y="40" width="20" height="20" transform="translate(380 100) rotate(180)"/><rect x="180" y="60" width="20" height="20" transform="translate(380 140) rotate(180)"/><rect x="180" y="80" width="20" height="20" transform="translate(380 180) rotate(180)"/><rect y="60" width="20" height="20" transform="translate(20 140) rotate(180)"/><rect y="80" width="20" height="20" transform="translate(20 180) rotate(180)"/><rect x="20" y="20" width="20" height="20" transform="translate(60 60) rotate(180)"/><rect x="140" y="120" width="20" height="20"/><rect x="40" y="120" width="20" height="20"/><rect x="160" y="100" width="20" height="20" transform="translate(340 220) rotate(180)"/><rect x="20" y="100" width="20" height="20" transform="translate(60 220) rotate(180)"/><rect y="40" width="20" height="20" transform="translate(20 100) rotate(180)"/></g></g></g></svg>