<svg xmlns="http://www.w3.org/2000/svg" viewBox="0 0 140 200"><defs><style>.cls-1{fill:#366ce1;}</style></defs><title>a3</title><g id="Слой_2" data-name="Слой 2"><g id="Слой_3" data-name="Слой 3"><g id="a3"><rect y="80" width="20" height="20"/><rect y="60" width="20" height="20"/><rect y="40" width="20" height="20"/><polygon points="40 20 40 30 30 30 30 40 20 40 20 20 40 20"/><polygon points="40 110 40 120 20 120 20 100 30 100 30 110 40 110"/><rect x="120" y="40" width="20" height="20" transform="translate(260 100) rotate(180)"/><rect x="120" y="60" width="20" height="20" transform="translate(260 140) rotate(180)"/><rect x="120" y="80" width="20" height="20" transform="translate(260 180) rotate(180)"/><rect x="40" width="20" height="20" transform="translate(60 -40) rotate(90)"/><rect x="60" width="20" height="20" transform="translate(80 -60) rotate(90)"/><rect x="80" width="20" height="20" transform="translate(100 -80) rotate(90)"/><rect x="80" y="120" width="20" height="20" transform="translate(-40 220) rotate(-90)"/><rect x="60" y="120" width="20" height="20" transform="translate(-60 200) rotate(-90)"/><rect x="40" y="120" width="20" height="20" transform="translate(-80 180) rotate(-90)"/><polygon points="120 100 120 120 100 120 100 110 110 110 110 100 120 100"/><polygon points="120 20 120 40 110 40 110 30 100 30 100 20 120 20"/><rect x="70" y="30" width="10" height="10"/><rect x="80" y="30" width="10" height="10"/><rect x="50" y="30" width="10" height="10"/><rect x="60" y="30" width="10" height="10"/><rect x="60" y="100" width="10" height="10" transform="translate(130 210) rotate(180)"/><rect x="50" y="100" width="10" height="10" transform="translate(110 210) rotate(180)"/><rect x="80" y="100" width="10" height="10" transform="translate(170 210) rotate(180)"/><rect x="100" y="120" width="10" height="10" transform="translate(210 250) rotate(180)"/><rect x="120" y="100" width="10" height="10" transform="translate(250 210) rotate(180)"/><rect x="120" y="30" width="10" height="10" transform="translate(160 -90) rotate(90)"/><rect x="100" y="10" width="10" height="10" transform="translate(120 -90) rotate(90)"/><rect x="30" y="10" width="10" height="10"/><rect x="10" y="30" width="10" height="10"/><rect x="10" y="100" width="10" height="10" transform="translate(-90 120) rotate(-90)"/><rect x="30" y="120" width="10" height="10" transform="translate(-90 160) rotate(-90)"/><rect x="90" y="40" width="10" height="10" transform="translate(190 90) rotate(180)"/><rect x="40" y="90" width="10" height="10" transform="translate(90 190) rotate(180)"/><rect x="90" y="90" width="10" height="10" transform="translate(190 190) rotate(180)"/><rect x="90" y="80" width="10" height="10" transform="translate(190 170) rotate(180)"/><rect x="40" y="50" width="10" height="10" transform="translate(90 110) rotate(180)"/><rect x="40" y="40" width="10" height="10" transform="translate(90 90) rotate(180)"/><rect x="80" y="70" width="10" height="10" transform="translate(170 150) rotate(180)"/><rect x="70" y="70" width="10" height="10" transform="translate(150 150) rotate(180)"/><rect x="50" y="60" width="10" height="10" transform="translate(110 130) rotate(180)"/><rect x="60" y="60" width="10" height="10" transform="translate(130 130) rotate(180)"/><rect x="70" y="100" width="10" height="10" transform="translate(150 210) rotate(180)"/><rect x="60" y="20" width="10" height="100" transform="translate(130 140) rotate(180)"/><rect class="cls-1" x="70" y="20" width="10" height="140" transform="translate(150 180) rotate(180)"/><rect class="cls-1" x="60" y="140" width="10" height="20"/><rect class="cls-1" x="40" y="150" width="60" height="20"/><rect class="cls-1" x="20" y="150" width="20" height="50"/><rect class="cls-1" x="100" y="150" width="20" height="50"/><rect class="cls-1" x="60" y="150" width="20" height="50"/></g></g></g></svg>