<svg xmlns="http://www.w3.org/2000/svg" viewBox="0 0 160 180"><defs><style>.cls-1{fill:#366ce1;}</style></defs><title>a4</title><g id="Слой_2" data-name="Слой 2"><g id="Слой_3" data-name="Слой 3"><g id="a4"><rect class="cls-1" y="30" width="10" height="10"/><rect class="cls-1" y="40" width="10" height="10"/><rect class="cls-1" y="50" width="10" height="10"/><rect class="cls-1" y="60" width="10" height="10"/><rect class="cls-1" x="60" y="30" width="10" height="10"/><rect class="cls-1" x="40" width="10" height="10"/><rect class="cls-1" x="110" width="10" height="10"/><rect class="cls-1" x="30" y="10" width="10" height="10"/><rect class="cls-1" x="20" width="10" height="10"/><rect class="cls-1" x="60" y="40" width="10" height="10"/><rect class="cls-1" x="60" y="50" width="10" height="10"/><rect class="cls-1" x="60" y="60" width="10" height="10"/><rect class="cls-1" x="100" y="50" width="10" height="30"/><rect class="cls-1" x="125" y="15" width="10" height="60" transform="translate(175 -85) rotate(90)"/><rect class="cls-1" x="125" y="45" width="10" height="60" transform="translate(205 -55) rotate(90)"/><rect class="cls-1" x="150" y="50" width="10" height="30"/><rect class="cls-1" x="110" y="10" width="10" height="40"/><rect class="cls-1" x="10" y="70" width="50" height="10"/><rect class="cls-1" y="20" width="70" height="10"/><rect class="cls-1" x="20" y="90" width="70" height="10"/><rect class="cls-1" x="30" y="170" width="50" height="10"/><rect class="cls-1" x="45" y="135" width="80" height="10" transform="translate(225 55) rotate(90)"/><rect class="cls-1" x="-15" y="135" width="80" height="10" transform="translate(165 115) rotate(90)"/><rect class="cls-1" x="40" y="110" width="30" height="10"/><rect class="cls-1" x="40" y="130" width="30" height="10"/><rect class="cls-1" x="40" y="150" width="30" height="10"/><rect class="cls-1" x="80" y="90" width="70" height="10"/><rect class="cls-1" x="90" y="170" width="50" height="10"/><rect class="cls-1" x="105" y="135" width="80" height="10" transform="translate(285 -5) rotate(90)"/><rect class="cls-1" x="45" y="135" width="80" height="10" transform="translate(225 55) rotate(90)"/><rect class="cls-1" x="100" y="110" width="30" height="10"/><rect class="cls-1" x="100" y="130" width="30" height="10"/><rect class="cls-1" x="100" y="150" width="30" height="10"/><rect class="cls-1" x="100" y="120" width="10" height="10"/><rect class="cls-1" x="120" y="120" width="10" height="10"/></g></g></g></svg>