<svg xmlns="http://www.w3.org/2000/svg" viewBox="0 0 170 150"><defs><style>.cls-1{fill:#366ce1;}</style></defs><title>a5</title><g id="Слой_2" data-name="Слой 2"><g id="Слой_3" data-name="Слой 3"><g id="a5"><rect x="10" y="40" width="10" height="10"/><rect x="30" y="40" width="10" height="10"/><rect x="20" y="50" width="10" height="10"/><rect x="30" y="60" width="10" height="10"/><rect x="10" y="60" width="10" height="10"/><rect x="90" y="100" width="10" height="10"/><rect x="110" y="100" width="10" height="10"/><rect x="100" y="110" width="10" height="10"/><rect x="110" y="120" width="10" height="10"/><rect x="90" y="120" width="10" height="10"/><rect x="50" width="10" height="10"/><rect x="70" width="10" height="10"/><rect class="cls-1" x="110" y="10" width="10" height="10"/><rect x="60" y="10" width="10" height="10"/><rect class="cls-1" x="120" y="30" width="10" height="10"/><rect x="70" y="20" width="10" height="10"/><rect class="cls-1" x="110" y="20" width="10" height="10"/><rect class="cls-1" x="130" y="30" width="10" height="10"/><rect class="cls-1" x="140" y="20" width="10" height="10" transform="translate(290 50) rotate(180)"/><rect class="cls-1" x="130" width="10" height="10" transform="translate(270 10) rotate(180)"/><rect class="cls-1" x="140" y="10" width="10" height="10" transform="translate(290 30) rotate(180)"/><rect class="cls-1" x="120" width="10" height="10" transform="translate(250 10) rotate(180)"/><rect y="120" width="10" height="10"/><rect x="10" y="140" width="10" height="10"/><rect y="130" width="10" height="10"/><rect x="20" y="140" width="10" height="10"/><rect x="30" y="130" width="10" height="10" transform="translate(70 270) rotate(180)"/><rect x="20" y="110" width="10" height="10" transform="translate(50 230) rotate(180)"/><rect x="30" y="120" width="10" height="10" transform="translate(70 250) rotate(180)"/><rect x="10" y="110" width="10" height="10" transform="translate(30 230) rotate(180)"/><rect x="50" y="20" width="10" height="10"/><rect x="140" y="50" width="10" height="10"/><rect x="160" y="50" width="10" height="10"/><rect x="150" y="60" width="10" height="10"/><rect x="160" y="70" width="10" height="10"/><rect x="140" y="70" width="10" height="10"/><rect x="33.284" y="77.426" width="70" height="10" transform="translate(-38.284 72.426) rotate(-45)"/><path d="M110.711,75.355,75.355,40h35.356V75.355Z"/></g></g></g></svg>