<svg xmlns="http://www.w3.org/2000/svg" viewBox="0 0 220 140"><defs><style>.cls-1{fill:#366ce1;}</style></defs><title>a6</title><g id="Слой_2" data-name="Слой 2"><g id="Слой_3" data-name="Слой 3"><g id="a6"><rect y="30" width="10" height="80"/><rect class="cls-1" x="120" y="60" width="10" height="80"/><rect class="cls-1" x="210" y="60" width="10" height="80"/><rect x="10" y="110" width="10" height="10"/><rect x="20" y="120" width="10" height="10"/><rect x="70" y="120" width="10" height="10" transform="translate(-50 200) rotate(-90)"/><rect x="80" y="110" width="10" height="10" transform="translate(-30 200) rotate(-90)"/><rect x="75" y="85" width="40" height="10" transform="translate(5 185) rotate(-90)"/><rect x="60" y="70" width="40" height="10"/><rect class="cls-1" x="130" y="70" width="80" height="10"/><rect x="30" y="130" width="40" height="10"/><rect x="10" y="20" width="10" height="10"/><rect x="20" y="10" width="10" height="10"/><rect x="70" y="10" width="10" height="10" transform="translate(90 -60) rotate(90)"/><rect class="cls-1" x="160" width="10" height="10" transform="translate(170 -160) rotate(90)"/><rect x="80" y="20" width="10" height="10" transform="translate(110 -60) rotate(90)"/><rect class="cls-1" x="150" y="10" width="10" height="10" transform="translate(170 -140) rotate(90)"/><rect class="cls-1" x="180" y="10" width="10" height="10" transform="translate(370 30) rotate(180)"/><rect class="cls-1" x="170" width="10" height="10" transform="translate(350 10) rotate(180)"/><rect x="85" y="35" width="20" height="10" transform="translate(135 -55) rotate(90)"/><rect class="cls-1" x="135" y="25" width="20" height="10" transform="translate(175 -115) rotate(90)"/><rect class="cls-1" x="125" y="45" width="20" height="10" transform="translate(185 -85) rotate(90)"/><rect class="cls-1" x="195" y="45" width="20" height="10" transform="translate(255 -155) rotate(90)"/><rect class="cls-1" x="185" y="25" width="20" height="10" transform="translate(225 -165) rotate(90)"/><rect x="30" width="40" height="10"/><rect y="30" width="20" height="80"/><rect x="10" y="110" width="20" height="20"/><rect x="10" y="10" width="20" height="20"/><rect x="70" y="10" width="20" height="20"/><rect x="80" y="30" width="20" height="20"/><rect class="cls-1" x="190" y="40" width="20" height="20"/><rect class="cls-1" x="180" y="20" width="20" height="20"/><rect class="cls-1" x="160" width="20" height="20"/><rect class="cls-1" x="140" y="20" width="20" height="20"/><rect class="cls-1" x="130" y="40" width="20" height="20"/><rect x="60" y="70" width="20" height="20"/><rect class="cls-1" x="140" y="70" width="60" height="20"/><rect x="40" y="70" width="20" height="20"/><rect class="cls-1" x="120" y="60" width="20" height="80"/><rect class="cls-1" x="200" y="60" width="20" height="80"/><rect x="70" y="110" width="20" height="20"/><rect x="80" y="70" width="20" height="40"/><rect x="30" y="120" width="40" height="20"/><rect x="30" width="40" height="20"/></g></g></g></svg>