<svg xmlns="http://www.w3.org/2000/svg" viewBox="0 0 220 140"><defs><style>.cls-1{fill:#366ce1;}</style></defs><title>a7</title><g id="Слой_2" data-name="Слой 2"><g id="Слой_3" data-name="Слой 3"><g id="a7"><rect x="60" y="40" width="20" height="20"/><rect class="cls-1" x="170" y="110" width="20" height="20"/><rect class="cls-1" x="170" y="10" width="20" height="20"/><rect class="cls-1" x="190" y="100" width="20" height="20"/><rect class="cls-1" x="200" y="30" width="20" height="80"/><rect class="cls-1" x="190" y="20" width="20" height="20"/><rect x="50" y="60" width="20" height="20"/><rect x="70" y="20" width="20" height="20"/><rect x="80" width="20" height="20"/><rect x="10" y="20" width="20" height="20"/><rect width="20" height="20"/><rect x="20" y="40" width="20" height="20"/><rect x="30" y="60" width="20" height="20"/><rect x="40" y="60" width="20" height="80"/><rect class="cls-1" x="120" width="20" height="140"/><rect class="cls-1" x="120" y="120" width="50" height="20"/><rect class="cls-1" x="120" width="50" height="20"/></g></g></g></svg>