<svg xmlns="http://www.w3.org/2000/svg" viewBox="0 0 270 130"><defs><style>.cls-1{fill:#366ce1;}</style></defs><title>a8</title><g id="Слой_2" data-name="Слой 2"><g id="Слой_3" data-name="Слой 3"><g id="a8"><rect y="10" width="10" height="110"/><rect x="130" y="10" width="10" height="110"/><rect x="65" y="-55" width="10" height="119.999" transform="translate(75 -65) rotate(90)"/><rect x="65" y="65" width="10" height="119.999" transform="translate(195 54.999) rotate(90)"/><rect x="40" y="50" width="10" height="20"/><rect x="90" y="50" width="10" height="20"/><rect x="60" y="30" width="20" height="10"/><rect x="60" y="80" width="20" height="10"/><rect x="80" y="70" width="10" height="10"/><rect x="80" y="90" width="10" height="10"/><rect x="90" y="90" width="10" height="10"/><rect x="50" y="70" width="10" height="10"/><rect x="50" y="90" width="10" height="10"/><rect x="40" y="90" width="10" height="10"/><rect x="30" y="110" width="10" height="10"/><rect x="30" y="100" width="10" height="10"/><rect x="100" y="110" width="10" height="10"/><rect x="100" y="100" width="10" height="10"/><rect x="80" y="40" width="10" height="10"/><polygon class="cls-1" points="90 50 90 70 80 70 80 80 60 80 60 70 50 70 50 50 60 50 60 40 80 40 80 50 90 50"/><rect x="50" y="40" width="10" height="10"/><rect class="cls-1" x="160" y="10" width="110" height="10"/><rect class="cls-1" x="160" y="30" width="110" height="10"/><rect class="cls-1" x="160" y="50" width="110" height="10"/><rect class="cls-1" x="160" y="70" width="110" height="10"/><rect class="cls-1" x="160" y="90" width="110" height="10"/><rect class="cls-1" x="160" y="110" width="110" height="10"/></g></g></g></svg>