<svg xmlns="http://www.w3.org/2000/svg" viewBox="0 0 832.13 297"><defs><style>.cls-1{fill:#366ce1;}.cls-2,.cls-3{fill:#121221;}.cls-2{opacity:0.38;}</style></defs><title>Design</title><g id="Слой_2" data-name="Слой 2"><g id="Слой_3" data-name="Слой 3"><g id="Design"><path class="cls-1" d="M212.128,63.839c-.581-22.928-19.345-42.625-42.414-42.625a42.428,42.428,0,0,0-42.428,42.429V275.786a21.215,21.215,0,0,1-42.429,0V63.643A63.644,63.644,0,0,1,148.5,0C183.283,0,211.543,29.2,212.128,63.839Z"/><path class="cls-2" d="M212.13,63.839c-.581-22.928-19.346-42.625-42.414-42.625a42.429,42.429,0,0,0-42.429,42.429V275.786a21.214,21.214,0,0,1-42.428,0V63.643A63.644,63.644,0,0,1,148.5,0C183.285,0,211.545,29.2,212.13,63.839Z"/><path class="cls-1" d="M212.13,63.643c-.475,58.174-47.77,106.071-106.059,106.071A106.066,106.066,0,0,1,.014,64.738Q0,64.192,0,63.643a42.429,42.429,0,1,1,84.857,0A63.644,63.644,0,0,0,148.5,127.286C183.355,127.286,211.655,98.383,212.13,63.643Z"/><polygon class="cls-3" points="362.13 108.5 362.13 143.5 452.13 143.5 452.13 153.5 362.13 153.5 362.13 188.5 452.13 188.5 452.13 198.5 352.13 198.5 352.13 98.5 452.13 98.5 452.13 108.5 362.13 108.5"/><path class="cls-3" d="M292.13,98.5h-50v100h50a50,50,0,0,0,0-100Zm0,90h-40v-80h40a40,40,0,0,1,0,80Z"/><path class="cls-3" d="M472.13,126a17.506,17.506,0,0,0,17.5,17.5h45a27.5,27.5,0,0,1,7.5,53.95,26.911,26.911,0,0,1-7.5,1.05h-72.5v-10h72.5a17.5,17.5,0,0,0,0-35h-45a27.5,27.5,0,0,1-7.5-53.95,26.911,26.911,0,0,1,7.5-1.05h72.5v10h-72.5A17.506,17.506,0,0,0,472.13,126Z"/><polygon class="cls-3" points="597.13 108.5 597.13 188.5 612.13 188.5 612.13 198.5 572.13 198.5 572.13 188.5 587.13 188.5 587.13 108.5 572.13 108.5 572.13 98.5 612.13 98.5 612.13 108.5 597.13 108.5"/><polygon class="cls-3" points="832.13 98.5 832.13 198.5 822.2 198.5 822.13 198.42 742.13 113.09 742.13 198.5 732.13 198.5 732.13 98.5 742.15 98.5 822.13 183.8 822.13 98.5 832.13 98.5"/><path class="cls-3" d="M722.13,148.5a48.521,48.521,0,0,1-.25,5,50.016,50.016,0,1,1-14.4-40.35l-7.07,7.07a39.992,39.992,0,1,0,11.41,33.28H672.13v-10h49.75A48.521,48.521,0,0,1,722.13,148.5Z"/></g></g></g></svg>