<svg xmlns="http://www.w3.org/2000/svg" viewBox="0 0 403.93 879.014"><defs><style>.cls-1,.cls-8{fill:#366ce1;}.cls-2,.cls-3,.cls-5{fill:#1c1c20;}.cls-2,.cls-7,.cls-8{opacity:0.62;}.cls-3,.cls-4{opacity:0.38;}.cls-4,.cls-6,.cls-7{fill:#121221;}</style></defs><title>logo</title><g id="Слой_2" data-name="Слой 2"><g id="Слой_3" data-name="Слой 3"><g id="logo"><path class="cls-1" d="M242.382,778.063c-1.508,2.011-15.647,20.19-40.38,20.19-2.515,0-25.541-.4-40.381-20.19v-424h80.761Z"/><path class="cls-1" d="M202,798.253c-2.515,0-25.541-.4-40.381-20.19Q181.811,828.538,202,879.014l40.38-100.951C240.874,780.074,226.735,798.253,202,798.253Z"/><path class="cls-2" d="M202,798.253c-2.515,0-25.541-.4-40.381-20.19Q181.811,828.538,202,879.014l40.38-100.951C240.874,780.074,226.735,798.253,202,798.253Z"/><path class="cls-1" d="M161.621,354.065c-1.455-6.718,19.088-20.19,40.381-20.19s41.836,13.472,40.38,20.19C239.771,366.119,164.232,366.119,161.621,354.065Z"/><path class="cls-3" d="M161.548,354.065c-1.455-6.718,19.088-20.19,40.381-20.19s41.836,13.472,40.38,20.19C239.7,366.119,164.159,366.119,161.548,354.065Z"/><path class="cls-1" d="M0,308.724C.905,197.951,90.962,106.746,201.953,106.746c110.851,0,200.83,89.306,201.951,199.892q.027,1.04.026,2.086a80.791,80.791,0,1,1-161.581,0A121.19,121.19,0,0,0,121.162,187.537C54.792,187.537.905,242.572,0,308.724Z"/><path class="cls-1" d="M403.927,311.876c-1.107-43.659-36.837-81.164-80.763-81.164A80.789,80.789,0,0,0,242.373,311.5V715.457a40.4,40.4,0,1,1-80.791,0V311.5A121.189,121.189,0,0,1,282.768,190.316C349,190.316,402.812,245.91,403.927,311.876Z"/><path class="cls-4" d="M403.93,311.876c-1.106-43.659-36.837-81.164-80.763-81.164A80.789,80.789,0,0,0,242.376,311.5V715.457a40.4,40.4,0,1,1-80.791,0V311.5A121.189,121.189,0,0,1,282.772,190.316C349,190.316,402.816,245.91,403.93,311.876Z"/><path class="cls-5" d="M161.706,488.484h6.622a2.5,2.5,0,0,1,2.5,2.5V651.194a0,0,0,0,1,0,0H159.206a0,0,0,0,1,0,0V490.984a2.5,2.5,0,0,1,2.5-2.5Z" transform="translate(684.639 856.091) rotate(135)"/><path class="cls-6" d="M161.706,488.484h6.622a2.5,2.5,0,0,1,2.5,2.5V651.194a0,0,0,0,1,0,0H159.206a0,0,0,0,1,0,0V490.984A2.5,2.5,0,0,1,161.706,488.484Z" transform="translate(684.639 856.091) rotate(135)"/><path class="cls-6" d="M161.706,578.883h6.622a2.5,2.5,0,0,1,2.5,2.5V741.594a0,0,0,0,1,0,0H159.206a0,0,0,0,1,0,0V581.383a2.5,2.5,0,0,1,2.5-2.5Z" transform="translate(515.191 76.695) rotate(45)"/><path class="cls-1" d="M161.706,578.883h6.622a2.5,2.5,0,0,1,2.5,2.5V741.594a0,0,0,0,1,0,0H159.206a0,0,0,0,1,0,0V581.383A2.5,2.5,0,0,1,161.706,578.883Z" transform="translate(515.191 76.695) rotate(45)"/><path class="cls-5" d="M137.849,513.843h13.244a5,5,0,0,1,5,5V699.8a0,0,0,0,1,0,0H132.849a0,0,0,0,1,0,0V518.843A5,5,0,0,1,137.849,513.843Z" transform="translate(675.715 933.751) rotate(135)"/><path class="cls-6" d="M137.849,513.843h13.244a5,5,0,0,1,5,5V699.8a0,0,0,0,1,0,0H132.849a0,0,0,0,1,0,0V518.843a5,5,0,0,1,5-5Z" transform="translate(675.715 933.751) rotate(135)"/><path class="cls-6" d="M137.849,530.279h13.244a5,5,0,0,1,5,5V716.234a0,0,0,0,1,0,0H132.849a0,0,0,0,1,0,0V535.279a5,5,0,0,1,5-5Z" transform="translate(483.024 80.391) rotate(45)"/><path class="cls-1" d="M137.849,530.279h13.244a5,5,0,0,1,5,5V716.234a0,0,0,0,1,0,0H132.849a0,0,0,0,1,0,0V535.279A5,5,0,0,1,137.849,530.279Z" transform="translate(483.024 80.391) rotate(45)"/><path class="cls-6" d="M-12.841,657.539H209.6a10,10,0,0,1,10,10v26.489a10,10,0,0,1-10,10H12.926a25.766,25.766,0,0,1-25.766-25.766V657.539a0,0,0,0,1,0,0Z" transform="translate(511.666 126.296) rotate(45)"/><path class="cls-7" d="M-12.841,657.539H209.6a10,10,0,0,1,10,10v26.489a10,10,0,0,1-10,10H12.926a25.766,25.766,0,0,1-25.766-25.766V657.539a0,0,0,0,1,0,0Z" transform="translate(511.666 126.296) rotate(45)"/><path class="cls-6" d="M12.926,526.049H209.6a10,10,0,0,1,10,10v26.489a10,10,0,0,1-10,10H-12.841a0,0,0,0,1,0,0V551.816A25.766,25.766,0,0,1,12.926,526.049Z" transform="translate(-358.13 233.986) rotate(-45)"/><path class="cls-1" d="M12.926,526.049H209.6a10,10,0,0,1,10,10v26.489a10,10,0,0,1-10,10H-12.841a0,0,0,0,1,0,0V551.816A25.766,25.766,0,0,1,12.926,526.049Z" transform="translate(-358.13 233.986) rotate(-45)"/><rect class="cls-5" x="167.424" y="531.568" width="11.622" height="92.978" transform="translate(704.479 864.309) rotate(135)"/><rect class="cls-6" x="167.424" y="531.568" width="11.622" height="92.978" transform="translate(704.479 864.309) rotate(135)"/><rect class="cls-5" x="99.977" y="527.459" width="23.244" height="92.978" transform="translate(596.354 900.878) rotate(135)"/><rect class="cls-6" x="99.977" y="527.459" width="23.244" height="92.978" transform="translate(596.354 900.878) rotate(135)"/><rect class="cls-6" x="134.551" y="638.404" width="11.622" height="92.978" transform="translate(525.404 101.349) rotate(45)"/><rect class="cls-1" x="134.551" y="638.404" width="11.622" height="92.978" transform="translate(525.404 101.349) rotate(45)"/><path class="cls-5" d="M235.6,578.883h6.622a2.5,2.5,0,0,1,2.5,2.5V741.594a0,0,0,0,1,0,0H233.1a0,0,0,0,1,0,0V581.383a2.5,2.5,0,0,1,2.5-2.5Z" transform="translate(-396.883 362.317) rotate(-45)"/><path class="cls-6" d="M235.6,578.883h6.622a2.5,2.5,0,0,1,2.5,2.5V741.594a0,0,0,0,1,0,0H233.1a0,0,0,0,1,0,0V581.383a2.5,2.5,0,0,1,2.5-2.5Z" transform="translate(-396.883 362.317) rotate(-45)"/><path class="cls-6" d="M235.6,488.484h6.622a2.5,2.5,0,0,1,2.5,2.5V651.194a0,0,0,0,1,0,0H233.1a0,0,0,0,1,0,0V490.984A2.5,2.5,0,0,1,235.6,488.484Z" transform="translate(4.914 1141.713) rotate(-135)"/><path class="cls-1" d="M235.6,488.484h6.622a2.5,2.5,0,0,1,2.5,2.5V651.194a0,0,0,0,1,0,0H233.1a0,0,0,0,1,0,0V490.984a2.5,2.5,0,0,1,2.5-2.5Z" transform="translate(4.914 1141.713) rotate(-135)"/><path class="cls-5" d="M252.837,530.279h13.244a5,5,0,0,1,5,5V716.234a0,0,0,0,1,0,0H247.837a0,0,0,0,1,0,0V535.279a5,5,0,0,1,5-5Z" transform="translate(-364.715 366.013) rotate(-45)"/><path class="cls-6" d="M252.837,530.279h13.244a5,5,0,0,1,5,5V716.234a0,0,0,0,1,0,0H247.837a0,0,0,0,1,0,0V535.279a5,5,0,0,1,5-5Z" transform="translate(-364.715 366.013) rotate(-45)"/><path class="cls-6" d="M252.837,513.843h13.244a5,5,0,0,1,5,5V699.8a0,0,0,0,1,0,0H247.837a0,0,0,0,1,0,0V518.843A5,5,0,0,1,252.837,513.843Z" transform="translate(13.837 1219.373) rotate(-135)"/><path class="cls-1" d="M252.837,513.843h13.244a5,5,0,0,1,5,5V699.8a0,0,0,0,1,0,0H247.837a0,0,0,0,1,0,0V518.843a5,5,0,0,1,5-5Z" transform="translate(13.837 1219.373) rotate(-135)"/><path class="cls-5" d="M184.328,526.049H406.771a10,10,0,0,1,10,10v26.489a10,10,0,0,1-10,10H210.094a25.766,25.766,0,0,1-25.766-25.766V526.049A0,0,0,0,1,184.328,526.049Z" transform="translate(124.661 1150.223) rotate(-135)"/><path class="cls-6" d="M184.328,526.049H406.771a10,10,0,0,1,10,10v26.489a10,10,0,0,1-10,10H210.094a25.766,25.766,0,0,1-25.766-25.766V526.049A0,0,0,0,1,184.328,526.049Z" transform="translate(124.661 1150.223) rotate(-135)"/><path class="cls-1" d="M210.094,657.539H406.771a10,10,0,0,1,10,10v26.489a10,10,0,0,1-10,10H184.328a0,0,0,0,1,0,0V683.306a25.766,25.766,0,0,1,25.766-25.766Z" transform="translate(994.457 949.65) rotate(135)"/><path class="cls-8" d="M210.094,657.539H406.771a10,10,0,0,1,10,10v26.489a10,10,0,0,1-10,10H184.328a0,0,0,0,1,0,0V683.306a25.766,25.766,0,0,1,25.766-25.766Z" transform="translate(994.457 949.65) rotate(135)"/><rect class="cls-5" x="224.884" y="605.532" width="11.622" height="92.978" transform="translate(-393.479 354.099) rotate(-45)"/><rect class="cls-6" x="224.884" y="605.532" width="11.622" height="92.978" transform="translate(-393.479 354.099) rotate(-45)"/><rect class="cls-5" x="280.709" y="609.641" width="23.244" height="92.978" transform="translate(-378.332 398.885) rotate(-45)"/><rect class="cls-6" x="280.709" y="609.641" width="23.244" height="92.978" transform="translate(-378.332 398.885) rotate(-45)"/><rect class="cls-6" x="257.757" y="498.696" width="11.622" height="92.978" transform="translate(64.435 1117.059) rotate(-135)"/><rect class="cls-1" x="257.757" y="498.696" width="11.622" height="92.978" transform="translate(64.435 1117.059) rotate(-135)"/><path class="cls-1" d="M403.93,311.5c-.9,110.772-90.962,201.977-201.953,201.977C91.127,513.48,1.147,424.174.026,313.588Q0,312.549,0,311.5a80.791,80.791,0,0,1,161.582,0A121.189,121.189,0,0,0,282.768,432.689C349.138,432.689,403.026,377.654,403.93,311.5Z"/><path class="cls-6" d="M133.914,322.032a60.468,60.468,0,0,1,8.08,30.29,10.135,10.135,0,0,1-20.27,0,40.389,40.389,0,0,0-2.28-13.44,60.8,60.8,0,0,1-76.45-.16,40.31,40.31,0,0,0-2.34,13.6,10.135,10.135,0,0,1-20.27,0,60.554,60.554,0,0,1,8.2-30.51,60.6,60.6,0,0,1-8.07-30.3,20.265,20.265,0,0,1,40.53,0,20.27,20.27,0,0,0,40.54,0,20.265,20.265,0,0,1,40.53,0A60.462,60.462,0,0,1,133.914,322.032Z"/><path class="cls-1" d="M142.114,291.512a20.265,20.265,0,0,0-40.53,0,20.27,20.27,0,0,1-40.54,0,20.265,20.265,0,0,0-40.53,0,60.8,60.8,0,1,1,121.6,0Z"/><path class="cls-4" d="M142.114,291.512a20.265,20.265,0,0,0-40.53,0,20.27,20.27,0,0,1-40.54,0,20.265,20.265,0,0,0-40.53,0,60.8,60.8,0,1,1,121.6,0Z"/><path class="cls-6" d="M81.253,173.964A12.16,12.16,0,0,0,77.2,197.588v33.125a4.054,4.054,0,1,0,8.107,0V197.588a12.159,12.159,0,0,0-4.053-23.624Zm0,16.214a4.054,4.054,0,1,1,4.053-4.053A4.055,4.055,0,0,1,81.253,190.178Z"/><path class="cls-1" d="M304.352,88.146v37.136a9.29,9.29,0,0,1,7.42,0V84.223Z"/><path class="cls-7" d="M304.352,88.146v37.136a9.29,9.29,0,0,1,7.42,0V84.223Z"/><path class="cls-1" d="M127.761,103.039v18.448c0,28.685,33.219,51.946,74.2,51.946s74.208-23.261,74.208-51.946V103.039l-39.32,20.787a74.647,74.647,0,0,1-69.769,0Z"/><path class="cls-7" d="M127.761,103.039v18.448c0,28.685,33.219,51.946,74.2,51.946s74.208-23.261,74.208-51.946V103.039l-39.32,20.787a74.647,74.647,0,0,1-69.769,0Z"/><path class="cls-1" d="M65,69.864l62.761,33.175,39.32,20.787a74.647,74.647,0,0,0,69.769,0l39.32-20.787,28.182-14.893,7.42-3.923L338.93,69.864a10.875,10.875,0,0,0-.921-19.66L230.531,5.686a74.6,74.6,0,0,0-57.131,0L65.921,50.2A10.875,10.875,0,0,0,65,69.864Z"/><path class="cls-1" d="M298.8,133.978h-.013v18.4c.084.051.174.1.264.148a18.591,18.591,0,0,0,18.03,0,2.527,2.527,0,0,0,.258-.148v-18.4h-.006c.006-.071.006-.129.006-.193a9.276,9.276,0,1,0-18.552,0A1,1,0,0,0,298.8,133.978Z"/><path class="cls-4" d="M298.8,133.978h-.013v18.4c.084.051.174.1.264.148a18.591,18.591,0,0,0,18.03,0,2.527,2.527,0,0,0,.258-.148v-18.4h-.006c.006-.071.006-.129.006-.193a9.276,9.276,0,1,0-18.552,0A1,1,0,0,0,298.8,133.978Z"/></g></g></g></svg>