<svg xmlns="http://www.w3.org/2000/svg" viewBox="0 0 300 400"><defs><style>.cls-1{fill:#1c1c20;}.cls-2,.cls-3,.cls-4{fill:#e1e0e0;}.cls-2{opacity:0.38;}.cls-3{opacity:0.62;}</style></defs><title>m1</title><g id="Слой_2" data-name="Слой 2"><g id="Слой_3" data-name="Слой 3"><g id="m1"><rect class="cls-1" width="300" height="400" rx="47"/><path class="cls-2" d="M0,300H300a0,0,0,0,1,0,0v53a47,47,0,0,1-47,47H47A47,47,0,0,1,0,353V300A0,0,0,0,1,0,300Z"/><path class="cls-3" d="M47,0H253a47,47,0,0,1,47,47v53a0,0,0,0,1,0,0H0a0,0,0,0,1,0,0V47A47,47,0,0,1,47,0Z"/><rect class="cls-4" y="100" width="300" height="200"/><polygon class="cls-1" points="127.473 179.989 127.473 194.992 187.485 194.992 187.485 209.994 127.473 209.994 127.473 224.997 187.485 224.997 187.485 240 112.47 240 112.47 164.986 187.485 164.986 187.485 179.989 127.473 179.989"/><path class="cls-1" d="M270,187.49a22.5,22.5,0,0,0-22.5-22.5h-52.51V240H247.5a22.5,22.5,0,0,0,16.765-37.507A22.4,22.4,0,0,0,270,187.49Zm-60.011-7.5H247.5a7.5,7.5,0,0,1,0,15H209.989ZM247.5,225H209.989v-15H247.5a7.5,7.5,0,0,1,0,15Z"/><polygon class="cls-1" points="104.969 164.986 90.131 239.25 89.996 238.567 89.996 239.94 89.981 240 74.993 240 74.993 238.462 74.836 239.25 67.485 202.47 60.133 239.25 59.991 238.53 59.991 239.977 59.983 240 44.988 240 44.988 238.5 44.838 239.25 30 164.986 45.295 164.986 52.489 200.97 59.676 164.986 75.293 164.986 82.487 200.97 89.674 164.986 104.969 164.986"/></g></g></g></svg>