<svg xmlns="http://www.w3.org/2000/svg" viewBox="0 0 133.333 240"><defs><style>.cls-1{fill:#1c1c20;}</style></defs><title>m2</title><g id="Слой_2" data-name="Слой 2"><g id="Слой_3" data-name="Слой 3"><g id="m2"><path class="cls-1" d="M77.1,111.95l-.78-1.95H56.343l-.78,1.94L16.333,210h21.55l11.2-28h34.5l11.2,28h21.55ZM57.083,162l9.25-23.13L75.583,162Z"/><path class="cls-1" d="M133.333,33.333A33.337,33.337,0,0,1,100,66.667,33.336,33.336,0,0,0,66.667,100,33.337,33.337,0,0,0,33.333,66.667,33.334,33.334,0,1,1,66.667,33.333a33.333,33.333,0,0,1,66.666,0Z"/><path class="cls-1" d="M103.373,100H29.293a12.957,12.957,0,0,0-12.96,12.96V227.04A12.957,12.957,0,0,0,29.293,240h74.08a12.957,12.957,0,0,0,12.96-12.96V112.96A12.957,12.957,0,0,0,103.373,100ZM66.333,230a10,10,0,1,1,10-10A10,10,0,0,1,66.333,230Zm40-40.9a10.9,10.9,0,0,1-10.9,10.9h-58.2a10.9,10.9,0,0,1-10.9-10.9V120.9a10.9,10.9,0,0,1,10.9-10.9h58.2a10.9,10.9,0,0,1,10.9,10.9Z"/></g></g></g></svg>