<svg xmlns="http://www.w3.org/2000/svg" viewBox="0 0 320 160"><defs><style>.cls-1{fill:#1c1c20;}.cls-2,.cls-3{fill:#e1e0e0;}.cls-2{opacity:0.38;}</style></defs><title>m3</title><g id="Слой_2" data-name="Слой 2"><g id="Слой_3" data-name="Слой 3"><g id="m3"><path class="cls-1" d="M0,0V160H320V0ZM300,130H120V30H300Z"/><rect class="cls-2" x="20" y="30" width="100" height="100"/><rect class="cls-2" x="120" y="30" width="180" height="100"/><circle class="cls-3" cx="70" cy="60" r="20"/><circle class="cls-3" cx="50" cy="100" r="20"/><circle class="cls-3" cx="90" cy="100" r="20"/><path class="cls-3" d="M30,100h80a0,0,0,0,1,0,0v9.2A10.8,10.8,0,0,1,99.2,120H40.8A10.8,10.8,0,0,1,30,109.2V100A0,0,0,0,1,30,100Z"/><rect class="cls-3" x="50" y="80" width="40" height="20"/></g></g></g></svg>