<svg xmlns="http://www.w3.org/2000/svg" viewBox="0 0 180 320"><defs><style>.cls-1,.cls-3{fill:#1c1c20;}.cls-2{fill:#e1e0e0;}.cls-3{opacity:0.62;}</style></defs><title>m4</title><g id="Слой_2" data-name="Слой 2"><g id="Слой_3" data-name="Слой 3"><g id="m4"><path class="cls-1" d="M90,30A10,10,0,0,1,80,20h20A10,10,0,0,1,90,30Z"/><path class="cls-1" d="M171.25,20H110a20,20,0,0,0-40,0H8.75A8.751,8.751,0,0,0,0,28.75v282.5A8.751,8.751,0,0,0,8.75,320h162.5a8.751,8.751,0,0,0,8.75-8.75V28.75A8.751,8.751,0,0,0,171.25,20ZM91.7,309.86a10,10,0,1,1,8.165-8.166A10.013,10.013,0,0,1,91.7,309.86ZM170,303.48a6.52,6.52,0,0,1-6.52,6.52H111a1,1,0,0,1-1-1h0a29,29,0,0,0-29-29H76.23A6.23,6.23,0,0,0,70,286.23V309a1,1,0,0,1-1,1H16.52A6.52,6.52,0,0,1,10,303.48V38.75A8.751,8.751,0,0,1,18.75,30H90A10,10,0,0,1,80,19.714,10.11,10.11,0,0,1,89.715,10,10,10,0,1,1,90,30h71.25A8.751,8.751,0,0,1,170,38.75Z"/><path class="cls-2" d="M99.86,298.305a10,10,0,1,1-8.166-8.165A10.013,10.013,0,0,1,99.86,298.305Z"/><path class="cls-2" d="M170,38.75V303.48a6.52,6.52,0,0,1-6.52,6.52H111a1,1,0,0,1-1-1V286.23a6.23,6.23,0,0,0-6.23-6.23H99a29,29,0,0,0-29,29h0a1,1,0,0,1-1,1H16.52A6.52,6.52,0,0,1,10,303.48V38.75A8.751,8.751,0,0,1,18.75,30h142.5A8.751,8.751,0,0,1,170,38.75Z"/><path class="cls-1" d="M91.7,29.86a10,10,0,1,1,8.165-8.166A10.013,10.013,0,0,1,91.7,29.86Z"/><path class="cls-2" d="M99.86,18.305a10,10,0,1,1-8.166-8.165A10.013,10.013,0,0,1,99.86,18.305Z"/><path class="cls-3" d="M99.86,18.305a10,10,0,1,1-8.166-8.165A10.013,10.013,0,0,1,99.86,18.305Z"/></g></g></g></svg>