<svg xmlns="http://www.w3.org/2000/svg" viewBox="0 0 100 150"><defs><style>.cls-1{fill:#1c1c20;}</style></defs><title>m5</title><g id="Слой_2" data-name="Слой 2"><g id="Слой_3" data-name="Слой 3"><g id="m5"><path class="cls-1" d="M80,140H50V90q5-25,10-50H80Z"/><path class="cls-1" d="M50,140H20V40H40q5,25,10,50Z"/><path class="cls-1" d="M80,40h8.535A11.465,11.465,0,0,1,100,51.465v94.873A3.662,3.662,0,0,1,96.338,150H83.662A3.662,3.662,0,0,1,80,146.338V40A0,0,0,0,1,80,40Z"/><path class="cls-1" d="M11.465,40H20a0,0,0,0,1,0,0V146.338A3.662,3.662,0,0,1,16.338,150H3.662A3.662,3.662,0,0,1,0,146.338V51.465A11.465,11.465,0,0,1,11.465,40Z"/><path class="cls-1" d="M39.136,30.864,30,40,50,90q-4.9-29.4-9.8-58.794A.629.629,0,0,0,39.136,30.864Z"/><path class="cls-1" d="M60.864,30.864,70,40,50,90q4.9-29.4,9.8-58.794A.629.629,0,0,1,60.864,30.864Z"/><path class="cls-1" d="M70,3.1V6.035A3.965,3.965,0,0,1,66.035,10H55.906a3.957,3.957,0,0,1-3.094-1.485L51.029,6.286a1.32,1.32,0,0,0-2.058,0L47.188,8.515A3.957,3.957,0,0,1,44.094,10H33.965A3.965,3.965,0,0,1,30,6.035V3.1A3.1,3.1,0,0,1,33.1,0H66.9A3.1,3.1,0,0,1,70,3.1Z"/></g></g></g></svg>