<svg xmlns="http://www.w3.org/2000/svg" viewBox="0 0 442.313 441.825"><defs><style>.cls-1{fill:#1c1c20;}.cls-2,.cls-4{fill:#e1e0e0;}.cls-2{opacity:0.62;}.cls-3{opacity:0.38;}</style></defs><title>m6</title><g id="Слой_2" data-name="Слой 2"><g id="Слой_3" data-name="Слой 3"><g id="m6"><path class="cls-1" d="M11.386,269.908C5.155,244.389,47.5,233.255,121.642,130c23.694-33,49.337-64.936,68.847-100.57,2.668-4.874,10.23-18.972,21.153-19.43,11.8-.495,21.218,15.2,24.71,20.807C257.339,64.536,308.773,123.024,411.642,240c16.227,18.453,20.924,22.868,19.744,29.907C421.273,330.251,25.4,327.3,11.386,269.908Z"/><path class="cls-1" d="M181.642,160c1.811-18.065,10.522-39.909,20-40,9.386-.091,18.989,21.156,20,40,1.027,19.158-7.488,27.646-10,40-7.681,37.771,43.452,95.366,100,110,67.37,17.434,122.921-31.16,130-20,7.484,11.8-48.375,75.95-130,110-29.465,12.291-115.18,48.047-200,10C32.709,374.6-9.012,291.619,1.642,280c9.548-10.413,54.892,43.322,110,30,43.528-10.524,84.833-60.875,80-100C189.534,192.941,179.286,183.5,181.642,160Z"/><path class="cls-2" d="M179.976,160c1.811-18.065,10.522-39.908,20-40,9.386-.091,18.989,21.156,20,40,.955,17.811-6.086,27.491-10,40-12.719,40.65,8.512,96.668,40,110,24.169,10.234,45.85-8.324,51.666,0,8.23,11.78-41.163,56.562-70,80-47.332,38.47-71.561,58.163-90,50-36.983-16.372-15.33-129.147-10-130a12.429,12.429,0,0,1,2.31-.231c1.813-.018,2.925.406,6.024.231,24.809-1.4,57.656-53.288,50-100C186.879,191.105,177.731,182.4,179.976,160Z"/><path class="cls-1" d="M370.979,336.116c-4.546-5.866,3.868-14.826,0-20-6.253-8.364-33.654,7.828-40,0-4.4-5.426,3.774-19.374,10-30,10.837-18.492,21.812-27.613,20-30-2.627-3.461-27.756,13.025-30,10-2.821-3.8,34.238-33.445,30-40-2.564-3.966-18.53,3.18-20,0-1.182-2.558,9.455-6.522,20-20,4.58-5.852,6.4-10,10-10s5.421,4.148,10,10c10.546,13.478,21.183,17.442,20,20-1.467,3.174-17.322-4.044-20,0-4.447,6.717,31.926,37.734,30,40-1.294,1.524-18.267-11.861-20-10-3.095,3.325,46.946,50.456,40,60-4.8,6.592-33.748-8.9-40,0-3.767,5.366,4.51,14.182,0,20C386.965,341.3,374.993,341.3,370.979,336.116Z"/><path class="cls-1" d="M58.994,318.976c-4.547-5.867,3.867-14.827,0-20-6.254-8.365-33.655,7.827-40,0-4.4-5.427,3.773-19.375,10-30,10.836-18.493,21.811-27.614,20-30-2.628-3.461-27.757,13.024-30,10-2.822-3.8,34.237-33.446,30-40-2.565-3.966-18.53,3.179-20,0-1.183-2.558,9.454-6.523,20-20,4.579-5.853,6.4-10,10-10s5.42,4.147,10,10c10.545,13.477,21.182,17.442,20,20-1.468,3.173-17.323-4.045-20,0-4.448,6.716,31.925,37.733,30,40-1.3,1.523-18.268-11.862-20-10-3.1,3.324,46.945,50.455,40,60-4.8,6.591-33.749-8.9-40,0-3.768,5.365,4.509,14.181,0,20C74.98,324.155,63.008,324.155,58.994,318.976Z"/><path class="cls-1" d="M309.467,386.009c-2.095-3.532,1.8-7.111,0-10-3.988-6.39-27.225,4.43-30,0-3.757-6,33.736-34.024,30-40-2.256-3.61-17.656,3.844-20,0-3.264-5.356,22.865-25.975,20-30-1.444-2.029-9.22,1.612-10,0-.678-1.4,5.214-4.111,10-10,7.792-9.587,5.886-19.269,10-20,2.37-.422,4.946,3.046,10,10,5.554,7.64,12.452,17.13,10,20-2.024,2.368-8.658-1.837-10,0-2.767,3.787,23.266,24.641,20,30-2.343,3.844-17.744-3.61-20,0-3.736,5.976,33.758,34,30,40-2.774,4.43-26.011-6.39-30,0-1.8,2.889,2.1,6.468,0,10C326.309,391.331,312.625,391.331,309.467,386.009Z"/><path class="cls-1" d="M79.467,370.035c-2.095-3.531,1.8-7.11,0-10-3.988-6.39-27.225,4.431-30,0-3.757-6,33.736-34.023,30-40-2.256-3.609-17.656,3.845-20,0-3.264-5.356,22.865-25.975,20-30-1.444-2.029-9.22,1.613-10,0-.678-1.4,5.214-4.111,10-10,7.792-9.586,5.886-19.268,10-20,2.37-.421,4.946,3.047,10,10,5.554,7.641,12.452,17.131,10,20-2.024,2.369-8.658-1.837-10,0-2.767,3.788,23.266,24.641,20,30-2.343,3.845-17.744-3.609-20,0-3.736,5.977,33.758,34,30,40-2.774,4.431-26.011-6.39-30,0-1.8,2.89,2.095,6.469,0,10C96.309,375.358,82.625,375.358,79.467,370.035Z"/><g class="cls-3"><path class="cls-4" d="M370.979,335.091c-4.546-5.866,3.868-14.826,0-20-6.253-8.365-33.654,7.828-40,0-4.4-5.427,3.774-19.374,10-30,10.837-18.492,21.812-27.613,20-30-2.627-3.461-27.756,13.025-30,10-2.821-3.8,34.238-33.445,30-40-2.564-3.966-18.53,3.18-20,0-1.182-2.558,9.455-6.522,20-20,4.58-5.852,6.4-10,10-10s5.421,4.148,10,10c10.546,13.478,21.183,17.442,20,20-1.467,3.174-17.322-4.044-20,0-4.447,6.717,31.926,37.734,30,40-1.294,1.524-18.267-11.861-20-10-3.095,3.325,46.946,50.456,40,60-4.8,6.592-33.748-8.9-40,0-3.767,5.366,4.51,14.182,0,20C386.965,340.27,374.993,340.27,370.979,335.091Z"/><path class="cls-4" d="M58.994,317.95c-4.547-5.866,3.867-14.826,0-20-6.254-8.364-33.655,7.828-40,0-4.4-5.426,3.773-19.374,10-30,10.836-18.492,21.811-27.613,20-30-2.628-3.461-27.757,13.025-30,10-2.822-3.8,34.237-33.445,30-40-2.565-3.966-18.53,3.18-20,0-1.183-2.558,9.454-6.522,20-20,4.579-5.852,6.4-10,10-10s5.42,4.148,10,10c10.545,13.478,21.182,17.442,20,20-1.468,3.174-17.323-4.044-20,0-4.448,6.717,31.925,37.734,30,40-1.3,1.524-18.268-11.861-20-10-3.1,3.325,46.945,50.456,40,60-4.8,6.592-33.749-8.9-40,0-3.768,5.366,4.509,14.182,0,20C74.98,323.129,63.008,323.129,58.994,317.95Z"/><path class="cls-4" d="M309.467,384.983c-2.095-3.531,1.8-7.11,0-10-3.988-6.389-27.225,4.431-30,0-3.757-6,33.736-34.023,30-40-2.256-3.609-17.656,3.845-20,0-3.264-5.355,22.865-25.975,20-30-1.444-2.029-9.22,1.613-10,0-.678-1.4,5.214-4.11,10-10,7.792-9.586,5.886-19.268,10-20,2.37-.421,4.946,3.047,10,10,5.554,7.641,12.452,17.131,10,20-2.024,2.369-8.658-1.837-10,0-2.767,3.788,23.266,24.641,20,30-2.343,3.845-17.744-3.609-20,0-3.736,5.977,33.758,34,30,40-2.774,4.431-26.011-6.389-30,0-1.8,2.89,2.1,6.469,0,10C326.309,390.306,312.625,390.306,309.467,384.983Z"/><path class="cls-4" d="M79.467,369.01c-2.095-3.531,1.8-7.111,0-10-3.988-6.39-27.225,4.431-30,0-3.757-6,33.736-34.023,30-40-2.256-3.609-17.656,3.845-20,0-3.264-5.356,22.865-25.975,20-30-1.444-2.029-9.22,1.613-10,0-.678-1.4,5.214-4.111,10-10,7.792-9.587,5.886-19.269,10-20,2.37-.422,4.946,3.047,10,10,5.554,7.641,12.452,17.131,10,20-2.024,2.369-8.658-1.837-10,0-2.767,3.788,23.266,24.641,20,30-2.343,3.845-17.744-3.609-20,0-3.736,5.977,33.758,34,30,40-2.774,4.431-26.011-6.39-30,0-1.8,2.889,2.095,6.469,0,10C96.309,374.333,82.625,374.333,79.467,369.01Z"/></g><path class="cls-2" d="M161.642,70c-1.088-5.518,2.358-9.837,10-20C199.4,13.08,203.444,1.92,209.29.224A8.43,8.43,0,0,1,211.642,0c12.537-.127,17.928,15.978,40,50,8.578,13.222,10.871,15.58,10,20-2.726,13.821-30.916,19.721-50,20C192.2,90.285,164.346,83.716,161.642,70Z"/></g></g></g></svg>