<svg xmlns="http://www.w3.org/2000/svg" xmlns:xlink="http://www.w3.org/1999/xlink" viewBox="0 0 188.508 214.091"><defs><style>.cls-1{fill:url(#Безымянный_градиент_8);}.cls-2{fill:url(#Безымянный_градиент_7);}.cls-3{fill:url(#Безымянный_градиент_7-2);}.cls-4{fill:url(#Безымянный_градиент_13);}.cls-5{fill:url(#Безымянный_градиент_10);}.cls-6{fill:url(#Безымянный_градиент_11);}.cls-7{fill:url(#Безымянный_градиент_12);}.cls-8{fill:url(#Безымянный_градиент_14);}.cls-9{fill:url(#Безымянный_градиент_15);}.cls-10{fill:url(#Безымянный_градиент_16);}.cls-11{fill:url(#Безымянный_градиент_18);}.cls-12{fill:url(#Безымянный_градиент_18-2);}</style><radialGradient id="Безымянный_градиент_8" cx="99.882" cy="119.497" fx="31.046453949150035" fy="45.61701594711961" r="100.978" gradientTransform="translate(-62.485 -99.938) rotate(-15.036) scale(1 2.126)" gradientUnits="userSpaceOnUse"><stop offset="0.116" stop-color="#fff"/><stop offset="0.767"/></radialGradient><radialGradient id="Безымянный_градиент_7" cx="56.002" cy="102.442" r="23.605" gradientUnits="userSpaceOnUse"><stop offset="0.256" stop-color="#fff"/><stop offset="0.339" stop-color="#fdfdfd"/><stop offset="0.369" stop-color="#f6f6f6"/><stop offset="0.391" stop-color="#ebebeb"/><stop offset="0.408" stop-color="#dadada"/><stop offset="0.423" stop-color="#c4c4c4"/><stop offset="0.436" stop-color="#a8a8a8"/><stop offset="0.448" stop-color="#888"/><stop offset="0.459" stop-color="#626262"/><stop offset="0.469" stop-color="#373737"/><stop offset="0.478" stop-color="#090909"/><stop offset="0.48"/></radialGradient><radialGradient id="Безымянный_градиент_7-2" cx="2963.859" cy="102.442" r="23.605" gradientTransform="matrix(-1, 0, 0, 1, 3102.286, 0)" xlink:href="#Безымянный_градиент_7"/><radialGradient id="Безымянный_градиент_13" cx="96.874" cy="143.041" fx="85.39357834240501" fy="91.05430455844288" r="53.239" gradientTransform="translate(-157.811 -257.961) rotate(-20.654) scale(1 3.251)" gradientUnits="userSpaceOnUse"><stop offset="0.309" stop-color="#fff"/><stop offset="0.503"/></radialGradient><radialGradient id="Безымянный_градиент_10" cx="455.012" cy="250.098" fx="443.0909575257829" fy="196.11929434378587" r="55.28" gradientTransform="matrix(0.992, -0.586, 2.617, 2.652, -967.987, -312.298)" gradientUnits="userSpaceOnUse"><stop offset="0.348" stop-color="#fff"/><stop offset="0.477"/></radialGradient><radialGradient id="Безымянный_градиент_11" cx="2546.137" cy="13.757" fx="2534.216292531684" fy="-40.222459449176995" r="55.28" gradientTransform="matrix(-0.821, 0.8, 3.357, 1.954, 2097.003, -1981.567)" gradientUnits="userSpaceOnUse"><stop offset="0.395" stop-color="#fff"/><stop offset="0.589"/></radialGradient><radialGradient id="Безымянный_градиент_12" cx="97.673" cy="185.414" fy="97.81545608252215" r="97.334" gradientTransform="translate(225.773 782.518) rotate(177.095) scale(1 3.251)" gradientUnits="userSpaceOnUse"><stop offset="0.448" stop-color="#fff"/><stop offset="0.478"/></radialGradient><radialGradient id="Безымянный_градиент_14" cx="9.427" cy="138.823" fx="22.479532211363463" fy="98.03345074623927" r="42.827" gradientTransform="translate(-158.595 -280.193) rotate(-20.654) scale(1 3.251)" gradientUnits="userSpaceOnUse"><stop offset="0.222" stop-color="#fff"/><stop offset="0.582"/></radialGradient><radialGradient id="Безымянный_градиент_15" cx="3016.441" cy="140.049" fx="3029.493608618967" fy="99.25934096577248" r="42.827" gradientTransform="matrix(-0.936, -0.353, -1.147, 3.042, 3162.257, 777.944)" gradientUnits="userSpaceOnUse"><stop offset="0.222" stop-color="#fff"/><stop offset="0.366"/></radialGradient><radialGradient id="Безымянный_градиент_16" cx="97.849" cy="80.618" fx="154.1314726095905" fy="-95.26628477559328" r="184.67" gradientTransform="matrix(0.742, -0.671, 2.181, 2.411, -150.541, -48.14)" gradientUnits="userSpaceOnUse"><stop offset="0.106" stop-color="#fff"/><stop offset="0.49"/></radialGradient><radialGradient id="Безымянный_градиент_18" cx="56.181" cy="105.962" fy="95.69015856037664" r="10.52" gradientTransform="translate(-117.906 -196.59) rotate(-20.654) scale(1 3.251)" gradientUnits="userSpaceOnUse"><stop offset="0.169" stop-color="#fff"/><stop offset="0.447"/></radialGradient><radialGradient id="Безымянный_градиент_18-2" cx="138.713" cy="105.962" fy="95.69015856037755" r="10.52" gradientTransform="translate(-112.601 -167.479) rotate(-20.654) scale(1 3.251)" xlink:href="#Безымянный_градиент_18"/></defs><title>m7</title><g id="Слой_2" data-name="Слой 2"><g id="Слой_3" data-name="Слой 3"><g id="m7"><path class="cls-1" d="M155.817,34.086c37.139,32.919,24.593,91.957,20.721,107.25-.312,1.232-.56,2.165-.721,2.75-10.076,36.6-35.454,68.178-60,70-.138.01-.013,0-20,0s-19.863.01-20,0c-24.546-1.822-49.925-33.4-60-70-.161-.585-.409-1.518-.721-2.751C11.224,126.042-1.322,67,35.817,34.086c22.564-20,51.783-20,60-20S133.252,14.086,155.817,34.086Z"/><path class="cls-2" d="M83.408,109.058c-5.338,10.768-24.034,12.064-36.676,7.775-8.306-2.819-20.465-10.243-19.6-17.747C28.1,90.575,45.316,86.463,55.183,85.9c4.209-.239,22.742-1.29,28.225,9.8A15.487,15.487,0,0,1,83.408,109.058Z"/><path class="cls-3" d="M111.02,109.058c5.339,10.768,24.035,12.064,36.676,7.775C156,114.014,168.162,106.59,167.3,99.086c-.976-8.511-18.189-12.623-28.056-13.183-4.209-.239-22.742-1.29-28.226,9.8A15.491,15.491,0,0,0,111.02,109.058Z"/><path class="cls-4" d="M105.338,109.9c7.037,13.428,14.772,17.394,12.8,23.2-1.18,3.477-4.079,2.412-13.183,10.4-5.306,4.652-6.406,6.841-9.381,6.932-2.811.086-4.136-1.8-10.648-7.186-9.17-7.586-10.224-6.892-11.028-9.127-2.134-5.935,5.44-10.446,12.3-23.7,7.383-14.276,6.671-24.65,9.62-24.645C98.747,85.771,98.056,96.009,105.338,109.9Z"/><path class="cls-5" d="M110.946,75.854c4.338-4.809,14.72-3.907,24.559-3.051a74.539,74.539,0,0,1,21.631,5.112c.91.371,8.39,3.419,7.988,4.349-.5,1.162-12.085-3.833-27.029-3.709-15.911.132-25.685,5.984-28.489,3.1C108.149,80.152,109.6,77.348,110.946,75.854Z"/><path class="cls-6" d="M81.439,76.412c-4.11-5.091-14.845-4.891-25.019-4.7a79.019,79.019,0,0,0-22.6,3.641c-.962.309-8.871,2.846-8.525,3.8.433,1.193,12.7-3.009,28.048-1.877,16.341,1.2,25.962,7.7,29.053,5.012C84,80.89,82.715,77.994,81.439,76.412Z"/><path class="cls-7" d="M53.493,173.621c.191-1.014,1.952-1.116,15.718-3.042,23.714-3.317,23.011-3.646,27.127-3.634,10.084.032,9.843,1.993,26.789,3.3,11.582.891,15.04.232,15.38,1.521.845,3.206-18.5,15.021-40.648,15.972C74.417,188.741,52.787,177.368,53.493,173.621Z"/><path class="cls-8" d="M16.732,93.931c4.514,5.887-3.373,12.395-2.028,25.352.824,7.931,4.357,11.072,2.662,18.888-.228,1.05-1.432,6.6-3.8,6.845-2.458.251-4.875-5.339-7.225-10.775a63.7,63.7,0,0,1-5.324-17.493C-.114,109-.9,103.617,2.028,98.114c.55-1.034,3.964-7.456,8.937-7.352C14.289,90.832,16.618,93.782,16.732,93.931Z"/><path class="cls-9" d="M171.776,95.157c-4.514,5.887,3.374,12.4,2.028,25.352-.823,7.931-4.357,11.071-2.662,18.888.228,1.05,1.432,6.6,3.8,6.845,2.458.251,4.875-5.339,7.226-10.775a63.7,63.7,0,0,0,5.323-17.493c1.128-7.749,1.912-13.132-1.014-18.634-.55-1.034-3.964-7.456-8.936-7.352C174.219,92.058,171.891,95.008,171.776,95.157Z"/><path class="cls-10" d="M9.165,91.009c-3.03-.524-3.637-20.829,1.229-40.43C13.442,38.3,17.978,20.033,33.972,9.255,41.854,3.944,50.062,2.108,54,1.227,60.127-.143,64.308-.172,83.07.213,95.316.465,101.618.6,110.451.889c23.241.77,28.439,1.255,35.155,4.394a49.713,49.713,0,0,1,13.183,9.127c13.8,12.8,17.846,29.113,20.281,41.578,3.071,15.715,3.911,33.056,1.69,33.464-1.631.3-3.568-8.788-10.816-25.69-8.84-20.612-13.421-30.982-21.3-34.141-9.638-3.865-13.588,4.613-34.479,7.1-11.374,1.354-21.216-.112-40.9-3.042-22.2-3.3-27.3-6.327-34.132-2.355-4.527,2.631-6.1,6.168-13.868,24.665C12.407,86.594,10.669,91.27,9.165,91.009Z"/><circle class="cls-11" cx="56.002" cy="102.442" r="4.563"/><circle class="cls-12" cx="138.534" cy="102.442" r="4.563"/></g></g></g></svg>