<svg xmlns="http://www.w3.org/2000/svg" viewBox="0 0 600 600"><defs><style>.cls-1{fill:#1c1c20;}.cls-2,.cls-3{fill:#e1e0e0;}.cls-3{opacity:0.62;}</style></defs><title>m8</title><g id="Слой_2" data-name="Слой 2"><g id="Слой_3" data-name="Слой 3"><g id="m8"><path class="cls-1" d="M100,400l50,40,50-40v60l-50,40-50-40Z"/><path class="cls-1" d="M200,400l50,40,50-40v60l-50,40-50-40Z"/><path class="cls-1" d="M0,400l50,40,50-40v60L50,500,0,460Z"/><path class="cls-1" d="M0,500l50,40,50-40v60L50,600,0,560Z"/><path class="cls-1" d="M100,500l50,40,50-40v60l-50,40-50-40Z"/><path class="cls-1" d="M200,500l50,40,50-40v60l-50,40-50-40Z"/><path class="cls-1" d="M200,300l50,40,50-40v60l-50,40-50-40Z"/><path class="cls-1" d="M100,300l50,40,50-40v60l-50,40-50-40Z"/><path class="cls-1" d="M0,300l50,40,50-40v60L50,400,0,360Z"/><circle class="cls-1" cx="300" cy="150" r="150"/><circle class="cls-2" cx="300" cy="150" r="130"/><circle class="cls-1" cx="300" cy="230" r="30"/><ellipse class="cls-1" cx="300" cy="110" rx="30" ry="70"/><rect class="cls-1" x="300" y="300" width="27.273" height="300"/><rect class="cls-1" x="300" y="572.727" width="300" height="27.273"/><path class="cls-1" d="M327.273,572.727q27.273-40.908,54.545-81.818l81.818,27.273,54.546-163.637,27.273,81.819Q572.727,368.182,600,300V572.727Z"/><path class="cls-3" d="M327.273,572.727q27.273-40.908,54.545-81.818l81.818,27.273,54.546-163.637,27.273,81.819Q572.727,368.182,600,300V572.727Z"/></g></g></g></svg>