<svg xmlns="http://www.w3.org/2000/svg" viewBox="0 0 260 180"><defs><style>.cls-1{fill:#1c1c20;}.cls-2{fill:#e1e0e0;}</style></defs><title>m9</title><g id="Слой_2" data-name="Слой 2"><g id="Слой_3" data-name="Слой 3"><g id="m9"><circle class="cls-1" cx="130" cy="50" r="50"/><rect class="cls-1" x="120" y="110" width="20" height="70"/><rect class="cls-1" x="215" y="15" width="20" height="70" transform="translate(275 -175) rotate(90)"/><rect class="cls-1" x="25" y="15" width="20" height="70" transform="translate(85 15) rotate(90)"/><rect class="cls-1" x="191.82" y="86.82" width="20" height="70" transform="translate(-27.028 178.388) rotate(-45)"/><rect class="cls-1" x="38.18" y="86.82" width="20" height="70" transform="translate(-3.891 242.028) rotate(-135)"/><circle class="cls-2" cx="105" cy="35" r="15"/><circle class="cls-2" cx="155" cy="35" r="15"/><circle class="cls-1" cx="105" cy="35" r="5"/><circle class="cls-1" cx="155" cy="35" r="5"/><path class="cls-2" d="M100,60a30,30,0,0,0,60,0,32.5,32.5,0,0,1-60,0Z"/></g></g></g></svg>