<svg xmlns="http://www.w3.org/2000/svg" viewBox="0 0 505 505"><defs><style>.cls-1{fill:none;stroke:#1c1e20;stroke-miterlimit:10;stroke-width:5px;}.cls-2{fill:#121221;}.cls-3{fill:#1c1c20;}</style></defs><title>marker</title><g id="Слой_2" data-name="Слой 2"><g id="Слой_3" data-name="Слой 3"><g id="marker"><circle class="cls-1" cx="252.5" cy="252.5" r="100"/><circle class="cls-1" cx="252.5" cy="252.5" r="150"/><circle class="cls-1" cx="252.5" cy="252.5" r="250"/><path class="cls-1" d="M102.5,252.5h300"/><path class="cls-1" d="M252.5,102.5v300"/><path class="cls-1" d="M182.5,182.5l140,140"/><path class="cls-1" d="M322.5,182.5l-140,140"/><circle class="cls-2" cx="328.75" cy="328.75" r="6.25"/><circle class="cls-2" cx="176.25" cy="328.75" r="6.25"/><circle class="cls-2" cx="328.75" cy="176.272" r="6.25"/><circle class="cls-2" cx="176.25" cy="176.25" r="6.25"/><circle class="cls-2" cx="252.5" cy="416.173" r="12.5"/><circle class="cls-2" cx="252.5" cy="88.221" r="12.5"/><circle class="cls-2" cx="88.524" cy="252.5" r="12.5"/><circle class="cls-2" cx="416.476" cy="252.5" r="12.5"/><path class="cls-1" d="M377.5,469.006,302.508,339.117"/><path class="cls-1" d="M202.577,165.237,127.585,35.348"/><path class="cls-1" d="M469.131,377.8l-129.89-74.992"/><path class="cls-1" d="M165.759,202.191,35.869,127.2"/><path class="cls-1" d="M358.566,358.566l70.711,70.711"/><path class="cls-1" d="M76.024,76.181l70.711,70.711"/><path class="cls-1" d="M35.671,377.5,165.56,302.508"/><path class="cls-1" d="M339.44,202.577l129.889-74.992"/><path class="cls-1" d="M126.876,469.131l74.992-129.89"/><path class="cls-1" d="M302.486,165.759l74.992-129.89"/><path class="cls-1" d="M146.111,358.566,75.4,429.277"/><path class="cls-1" d="M428.5,76.024l-70.711,70.711"/><circle class="cls-2" cx="377.5" cy="469.006" r="25"/><circle class="cls-2" cx="429.277" cy="429.277" r="25"/><circle class="cls-2" cx="469.131" cy="377.577" r="25"/><circle class="cls-2" cx="127.61" cy="36.16" r="25"/><circle class="cls-2" cx="75.833" cy="75.89" r="25"/><circle class="cls-2" cx="35.979" cy="127.59" r="25"/><circle class="cls-2" cx="36.077" cy="377.445" r="25"/><circle class="cls-2" cx="75.807" cy="429.222" r="25"/><circle class="cls-2" cx="127.506" cy="469.076" r="25"/><circle class="cls-2" cx="468.923" cy="127.555" r="25"/><circle class="cls-2" cx="429.193" cy="75.778" r="25"/><circle class="cls-2" cx="377.494" cy="35.924" r="25"/><circle class="cls-3" cx="252.5" cy="252.5" r="50"/></g></g></g></svg>