<svg xmlns="http://www.w3.org/2000/svg" viewBox="0 0 1290.31 465"><defs><style>.cls-1{fill:#366ce1;}.cls-2{fill:#121221;}</style></defs><title>Marketing</title><g id="Слой_2" data-name="Слой 2"><g id="Слой_3" data-name="Слой 3"><g id="Marketing"><path class="cls-1" d="M25,465A25,25,0,0,1,0,440a149.169,149.169,0,0,1,20.23-75.26,150,150,0,1,1,259.85.54A149.136,149.136,0,0,1,300,440a25,25,0,0,1-50,0,99.67,99.67,0,0,0-5.63-33.15,150.015,150.015,0,0,1-188.6-.39A99.591,99.591,0,0,0,50,440,25,25,0,0,1,25,465Z"/><path class="cls-2" d="M25,465A25,25,0,0,1,0,440a149.169,149.169,0,0,1,20.23-75.26,150,150,0,1,1,259.85.54A149.136,149.136,0,0,1,300,440a25,25,0,0,1-50,0,99.67,99.67,0,0,0-5.63-33.15,150.015,150.015,0,0,1-188.6-.39A99.591,99.591,0,0,0,50,440,25,25,0,0,1,25,465Z"/><path class="cls-1" d="M150.308,140a150,150,0,0,1,150,150,50,50,0,0,0-100,0,50,50,0,0,1-100,0,50,50,0,0,0-100,0A150,150,0,0,1,150.308,140Z"/><path class="cls-2" d="M150.155,0a30,30,0,0,0-10,58.28V140a10,10,0,0,0,20,0V58.28a30,30,0,0,0-10-58.28Zm0,40a10,10,0,1,1,10-10A10,10,0,0,1,150.155,40Z"/><polygon class="cls-2" points="800.31 192.5 800.31 227.5 890.31 227.5 890.31 237.5 800.31 237.5 800.31 272.5 890.31 272.5 890.31 282.5 790.31 282.5 790.31 182.5 890.31 182.5 890.31 192.5 800.31 192.5"/><path class="cls-2" d="M540.01,237.5l-4.51-10-19.71-43.73.01-.01-.49-1.08h-.01l-.08-.18h-9.84l-.08.18v.02l-.47,1.05h-.01L485.1,227.5l-4.51,10-20.28,45h10.97l20.28-45h37.48l20.28,45h10.97Zm-19.71-2.96-.02-.04h.02Zm-24.23-7.04,14.23-31.58,14.24,31.58Z"/><path class="cls-2" d="M360.31,182.57v-.03l.01-.04h9.97l20.01,78.98q10.01-39.491,20.02-78.98h9.99l.01.01q15,50,29.99,99.99H439.87l-24.18-80.57-20.24,79.9-.14.56-.03.11h-9.97l-.17-.66-20.23-79.83L340.76,282.5H330.32Q345.316,232.535,360.31,182.57Z"/><path class="cls-2" d="M656.88,237.5a29.994,29.994,0,0,0-16.57-55h-70v100h10v-40h60a19.994,19.994,0,0,1,20,20v20h10v-20A29.923,29.923,0,0,0,656.88,237.5Zm-26.57-2.96-.02-.04h.02Zm10-2.04h-60v-40h60a20,20,0,0,1,0,40Z"/><polygon class="cls-2" points="1045.31 192.5 1045.31 272.5 1070.31 272.5 1070.31 282.5 1010.31 282.5 1010.31 272.5 1035.31 272.5 1035.31 192.5 1010.31 192.5 1010.31 182.5 1070.31 182.5 1070.31 192.5 1045.31 192.5"/><polygon class="cls-2" points="1180.31 182.5 1180.31 282.5 1170.38 282.5 1170.31 282.42 1090.31 197.09 1090.31 282.5 1080.31 282.5 1080.31 182.5 1090.33 182.5 1170.31 267.8 1170.31 182.5 1180.31 182.5"/><polygon class="cls-2" points="780.31 282.5 766.16 282.5 723.22 239.55 690.31 272.47 690.31 282.5 680.31 282.5 680.31 182.5 690.31 182.5 690.31 258.33 716.15 232.48 723.22 225.41 766.13 182.5 780.27 182.5 730.29 232.48 780.31 282.5"/><path class="cls-2" d="M1290.31,232.5a48.521,48.521,0,0,1-.25,5,50.016,50.016,0,1,1-14.4-40.35l-7.07,7.07A39.992,39.992,0,1,0,1280,237.5h-39.69v-10h49.75A48.521,48.521,0,0,1,1290.31,232.5Z"/><polygon class="cls-2" points="1000.31 182.5 1000.31 192.5 955.31 192.5 955.31 282.5 945.31 282.5 945.31 192.5 900.31 192.5 900.31 182.5 1000.31 182.5"/></g></g></g></svg>