<svg id="Main" xmlns="http://www.w3.org/2000/svg" viewBox="0 0 371.641 279.334"><defs><style>.cls-1{fill:#121221;stroke-width:2.123px;}.cls-1,.cls-4{stroke:#e1e0e0;stroke-miterlimit:10;}.cls-2,.cls-4{fill:#366ce1;}.cls-3{fill:#e1e0e0;}.cls-4{stroke-width:0.813px;}</style></defs><title>python</title><rect class="cls-1" x="135.82" y="59.598" width="100" height="38.198" rx="19.099"/><rect class="cls-1" x="104.92" y="77.56" width="161.8" height="38.198" rx="19.099"/><path class="cls-1" d="M450,423.416h85.409A14.591,14.591,0,0,1,550,438.007v9.016a14.591,14.591,0,0,1-14.591,14.591H450a0,0,0,0,1,0,0v-38.2a0,0,0,0,1,0,0Z" transform="translate(628.335 -417.491) rotate(90)"/><path class="cls-1" d="M530.9,391.967v7.3a23.609,23.609,0,0,1-23.61,23.6H492.71a23.607,23.607,0,0,1-23.61-23.6v-7.3a30.9,30.9,0,1,1,61.8,0Z" transform="translate(-314.18 -360.005)"/><circle class="cls-2" cx="154.918" cy="31.74" r="7.296"/><path class="cls-3" d="M461.8,391.745a7.639,7.639,0,0,1,7.3-7.622,7.631,7.631,0,1,1,0,15.248,7.642,7.642,0,0,1-7.3-7.626Zm0,0a6.961,6.961,0,0,0,7.3,6.966,6.975,6.975,0,0,0,0-13.934,6.963,6.963,0,0,0-7.3,6.968Z" transform="translate(-314.18 -360.005)"/><circle class="cls-2" cx="216.722" cy="31.74" r="7.296"/><path class="cls-3" d="M538.2,391.745a7.639,7.639,0,0,1-7.3,7.623,7.631,7.631,0,1,1,0-15.248,7.642,7.642,0,0,1,7.3,7.625Zm0,0a6.961,6.961,0,0,0-7.3-6.965,6.975,6.975,0,0,0,0,13.934,6.963,6.963,0,0,0,7.3-6.969Z" transform="translate(-314.18 -360.005)"/><path class="cls-4" d="M438.2,565.324v42.22c0,17.078-13.648,31.293-30.725,31.389a30.881,30.881,0,0,1-31-28.654,2.119,2.119,0,0,1,2.125-2.248h14.929a2.145,2.145,0,0,1,2.106,1.844,11.808,11.808,0,0,0,12.09,9.953,11.99,11.99,0,0,0,11.377-12.08V593.89A30.908,30.908,0,0,1,392.3,538.3a2.132,2.132,0,0,1,3.186,1.846v24.9a11.99,11.99,0,0,0,11.377,12.08,11.8,11.8,0,0,0,12.233-11.8V540.143a2.132,2.132,0,0,1,3.185-1.846A30.9,30.9,0,0,1,438.2,565.324Z" transform="translate(-314.18 -360.005)"/><path class="cls-4" d="M592.707,536.758a30.9,30.9,0,1,0,30.9,30.9A30.9,30.9,0,0,0,592.707,536.758Zm0,42.707a11.805,11.805,0,1,1,11.8-11.805A11.8,11.8,0,0,1,592.707,579.465Z" transform="translate(-314.18 -360.005)"/><path class="cls-4" d="M685.414,567.66v28.776a2.126,2.126,0,0,1-2.126,2.126H668.442a2.126,2.126,0,0,1-2.126-2.126V567.942a11.989,11.989,0,0,0-11.376-12.079,11.8,11.8,0,0,0-12.233,11.8v28.776a2.126,2.126,0,0,1-2.126,2.126H625.735a2.126,2.126,0,0,1-2.126-2.126V538.884a2.126,2.126,0,0,1,2.126-2.126h14.846a2.126,2.126,0,0,1,2.126,2.126v.21a30.911,30.911,0,0,1,42.707,28.566Z" transform="translate(-314.18 -360.005)"/><path class="cls-4" d="M438.2,524.953V567.66a30.9,30.9,0,0,0,61.725,2.248,2.119,2.119,0,0,0-2.125-2.248h-14.93a2.146,2.146,0,0,0-2.106,1.844,11.805,11.805,0,0,1-12.09,9.953,11.989,11.989,0,0,1-11.376-12.079V553.519A30.948,30.948,0,0,0,489.8,547.9a2.141,2.141,0,0,0,0-3.185,30.933,30.933,0,0,0-32.508-5.625V499.77a2.132,2.132,0,0,0-3.185-1.846A30.89,30.89,0,0,0,438.2,524.953Z" transform="translate(-314.18 -360.005)"/><path class="cls-4" d="M376.372,566.646c0-.129-.006-.259-.018-.389-.007-.284-.025-.562-.05-.841a2.475,2.475,0,0,0-.018-.3c-.025-.291-.05-.581-.087-.866-.006-.1-.018-.2-.031-.29-.018-.21-.049-.414-.08-.618-.037-.266-.074-.532-.124-.791-.031-.223-.068-.439-.117-.655-.118-.662-.26-1.311-.433-1.953-.062-.248-.13-.5-.2-.736-.136-.5-.29-1-.463-1.489-.074-.229-.155-.452-.241-.68s-.173-.47-.266-.7l-.241-.593c-.019-.05-.043-.105-.062-.155-.093-.21-.185-.426-.284-.636-.111-.26-.229-.513-.359-.767s-.247-.506-.377-.754c-.086-.166-.173-.327-.265-.494-.235-.433-.482-.859-.736-1.279a.017.017,0,0,0-.012-.019c-.13-.21-.26-.42-.39-.624s-.265-.42-.407-.624c-.124-.173-.241-.353-.365-.526a.676.676,0,0,0-.1-.136c-.13-.185-.266-.371-.4-.55-.142-.2-.29-.395-.451-.587-.124-.161-.247-.315-.371-.47a2.566,2.566,0,0,0-.179-.21c-.13-.154-.26-.315-.4-.47-.154-.185-.315-.37-.488-.55s-.34-.364-.507-.543-.346-.359-.519-.532c-.352-.352-.7-.692-1.075-1.026s-.736-.655-1.119-.97c-.191-.155-.383-.309-.581-.464q-.583-.463-1.186-.89l-.5-.352c-.445-.3-.9-.6-1.366-.878-.21-.129-.426-.253-.643-.377s-.432-.247-.649-.364c-.272-.155-.55-.3-.828-.439a.961.961,0,0,0-.1-.043c-.235-.124-.469-.235-.71-.347-.124-.055-.248-.117-.377-.173-.3-.136-.606-.272-.909-.395-.389-.161-.785-.315-1.18-.457q-.288-.112-.575-.2c-.285-.106-.575-.2-.866-.285-.173-.055-.346-.105-.525-.154a29.4,29.4,0,0,0-4.048-.89c-.247-.037-.5-.074-.754-.105-.507-.068-1.014-.118-1.527-.155-.482-.037-.964-.062-1.452-.068-.291-.012-.581-.018-.878-.018a30.922,30.922,0,0,0-6.977.791c-.433.1-.86.21-1.28.327q-.936.251-1.835.575c-.353.111-.7.241-1.045.377a30.988,30.988,0,0,0-17.695,17.7c-.136.346-.265.692-.377,1.044q-.324.909-.574,1.836c-.118.42-.229.847-.328,1.279a30.937,30.937,0,0,0-.791,6.978v42.707A30.889,30.889,0,0,0,330.5,637.4a2.132,2.132,0,0,0,3.186-1.846V596.226l.092.037c.2.081.4.161.594.235.636.247,1.285.476,1.946.68.167.049.334.105.507.148a29.419,29.419,0,0,0,4.049.89c.253.037.506.074.76.105.5.068,1.013.118,1.526.155.482.037.964.062,1.453.068.29.012.581.018.877.018.55,0,1.094-.012,1.638-.043.513-.025,1.02-.068,1.521-.117.136-.013.278-.031.414-.044.16-.018.321-.037.476-.061.222-.025.438-.056.655-.093.167-.025.34-.05.506-.08.464-.081.928-.167,1.391-.272.192-.038.383-.081.575-.13s.365-.087.544-.136c.222-.056.439-.111.655-.173.519-.142,1.032-.3,1.533-.476.248-.083.49-.172.739-.262l.728-.275c.171-.069.346-.137.517-.211.278-.111.55-.235.822-.358.191-.087.377-.173.562-.26.161-.074.321-.155.476-.235.235-.111.463-.229.686-.352a3.737,3.737,0,0,0,.34-.186c.2-.105.4-.216.6-.333.266-.149.526-.3.785-.464.167-.105.328-.2.489-.309a30.531,30.531,0,0,0,3-2.188c.192-.16.377-.321.569-.482.371-.315.735-.649,1.094-1,.179-.173.358-.346.531-.519s.334-.334.5-.5a30.836,30.836,0,0,0,8.56-21.347C376.391,567.32,376.384,566.986,376.372,566.646Zm-42.688,1.014a11.8,11.8,0,1,1,11.8,11.805A11.8,11.8,0,0,1,333.684,567.66Z" transform="translate(-314.18 -360.005)"/><path class="cls-4" d="M561.8,567.66v28.776a2.126,2.126,0,0,1-2.126,2.126H544.827a2.126,2.126,0,0,1-2.126-2.126V567.66a11.8,11.8,0,0,0-12.237-11.8A11.991,11.991,0,0,0,519.1,567.945v28.491a2.126,2.126,0,0,1-2.126,2.126H502.126A2.126,2.126,0,0,1,500,596.436V524.953a30.9,30.9,0,0,1,19.1-28.566v42.707A30.91,30.91,0,0,1,561.8,567.66Z" transform="translate(-314.18 -360.005)"/></svg>