<svg id="Main" xmlns="http://www.w3.org/2000/svg" viewBox="0 0 685.352 659.109"><defs><style>.cls-1{fill:#121221;}.cls-2{fill:#366ce1;}</style></defs><title>java</title><path class="cls-1" d="M711.792,618.22c0,17.064-94.82,30.9-211.792,30.9s-211.786-13.838-211.786-30.9a5.542,5.542,0,0,1,1.168-3.258C300.538,630.5,390.575,642.608,500,642.608S699.468,630.5,710.624,614.962A5.535,5.535,0,0,1,711.792,618.22Z" transform="translate(-157.324 -170.445)"/><path class="cls-1" d="M842.676,575.716c0,27.615-153.418,50-342.676,50s-342.676-22.385-342.676-50c0-24.412,119.9-44.734,278.455-49.122-86.076,3.925-148.542,15.649-148.542,29.5,0,17.071,94.821,30.9,211.793,30.9s211.792-13.832,211.792-30.9c0-14.011-63.918-25.846-151.533-29.635C720.29,530.562,842.676,551.05,842.676,575.716Z" transform="translate(-157.324 -170.445)"/><path class="cls-1" d="M580.074,556.5c0,4.481-6.533,8.6-17.478,11.855-2.139.636-4.45,1.242-6.91,1.81h-.019c-14.579,3.363-34.517,5.433-56.495,5.433s-41.916-2.07-56.5-5.433h-.018c-2.46-.568-4.772-1.174-6.91-1.81C424.8,565.1,418.27,560.982,418.27,556.5c0-2.12,1.458-4.153,4.153-6.056,3,2.089,7.5,4.011,13.183,5.7,2.138.637,4.45,1.242,6.909,1.8l.019.006c14.58,3.362,34.518,5.433,56.5,5.433s41.916-2.071,56.5-5.433l.019-.006c2.46-.563,4.771-1.168,6.91-1.8,5.772-1.718,10.315-3.677,13.325-5.8C578.566,552.274,580.074,554.344,580.074,556.5Z" transform="translate(-157.324 -170.445)"/><path class="cls-1" d="M630.068,525.642c0,17.065-58.6,30.9-130.9,30.9-63.888,0-117.077-10.8-128.585-25.093,17.089,12.373,66.36,21.31,124.469,21.31,72.293,0,130.9-13.832,130.9-30.9a9.235,9.235,0,0,0-2.312-5.81C627.812,519.072,630.068,522.293,630.068,525.642Z" transform="translate(-157.324 -170.445)"/><path class="cls-1" d="M687.126,498.708c-35.315,16.007-106.23,26.934-187.954,26.934-116.966,0-211.792-22.385-211.792-50,0-11.328,15.951-21.773,42.843-30.154-15.266,6.9-23.894,14.759-23.894,23.09,0,27.614,94.821,50,211.786,50C587.145,518.578,648.461,510.784,687.126,498.708Z" transform="translate(-157.324 -170.445)"/><path class="cls-2" d="M524.981,300.188c-27.183-14.531-30.817-28.031-31.1-38.844-.282-10.646,1.671-18.437,11.231-32.094,11.151-15.931,13.279-20.027,13.233-30.619-.052-11.751-4.668-26.167-30.813-28.186,7.626,3.4,23.376,10.846,24.321,27.642.437,7.774-3.55,16.192-12.022,25.716-14.836,16.681-18.055,26.719-18.055,36.9,0,10.24.517,31.636,37.282,52.441C555.2,333.6,569.607,364.233,569.669,388.5c.082,31.693-19.686,53.061-23.034,56.537a83.775,83.775,0,0,1-40.2,22.979c6.314-.111,32.623-1.284,54.912-22.1,3.575-3.339,26.281-26.412,25.989-58.8C587.141,365.234,578.6,328.851,524.981,300.188Z" transform="translate(-157.324 -170.445)"/><path class="cls-2" d="M494.737,476.886c-23-8.349-32.8-26.465-34.124-45.867-1.2-17.661,11.263-37.635,23.962-43.665,22.216-10.55,19.706-26.546,18.7-33.921-1.689-12.353-9.609-22-21.256-24.928,13.326,7.117,13.669,18.731,14.643,25.863.7,5.148-4.6,17.24-19.581,23-26.383,10.868-36.772,34.728-35.28,52.666C444.4,461.254,471.009,478.67,494.737,476.886Z" transform="translate(-157.324 -170.445)"/><path class="cls-2" d="M361.154,667.745a14.591,14.591,0,0,1,14.591,14.591V805.925a23.592,23.592,0,0,1-23.6,23.61v.01H292.457a2.123,2.123,0,0,1-2.122-2.123V808.058a2.122,2.122,0,0,1,2.122-2.123h50.671a9.018,9.018,0,0,0,9.017-9.017V700.372a9.018,9.018,0,0,0-9.017-9.017H316.077a2.123,2.123,0,0,1-2.122-2.123V669.868a2.122,2.122,0,0,1,2.122-2.123Z" transform="translate(-157.324 -170.445)"/><path class="cls-2" d="M512.466,729.535a14.591,14.591,0,0,1,13.829,9.935l17.287,51.341a1.317,1.317,0,0,0,2.5,0l17.287-51.341a14.591,14.591,0,0,1,13.828-9.935h11a2.122,2.122,0,0,1,2.122,2.123v21.35a2.138,2.138,0,0,1-2.171,2.117,9.015,9.015,0,0,0-8.516,6.138l-19.657,58.358a14.591,14.591,0,0,1-13.827,9.934h-2.636a14.591,14.591,0,0,1-13.828-9.934l-19.647-58.337a9.017,9.017,0,0,0-8.546-6.139h-.029a2.124,2.124,0,0,1-2.123-2.123V731.674a2.122,2.122,0,0,1,2.12-2.122Z" transform="translate(-157.324 -170.445)"/><path class="cls-2" d="M477.853,736.438a23.536,23.536,0,0,0-16.7-6.92v.02h-47.2a14.6,14.6,0,0,0-14.6,14.6v12.467a2.123,2.123,0,0,0,2.122,2.123H420.84a2.124,2.124,0,0,0,2.123-2.123v-3.45a9.017,9.017,0,0,1,9.017-9.017h14.582a14.591,14.591,0,0,1,14.591,14.59v8.99H413.942a14.586,14.586,0,0,0-14.589,14.59h.019v32.62h-.019a14.586,14.586,0,0,0,14.589,14.59h38.19a9.022,9.022,0,0,0,9.021-9.02v6.9a2.123,2.123,0,0,0,2.122,2.123H482.64a2.123,2.123,0,0,0,2.122-2.123V753.128A23.529,23.529,0,0,0,477.853,736.438Zm-16.7,63.9a14.59,14.59,0,0,1-14.59,14.59H432a9.017,9.017,0,0,1-9.017-9.017V796.9a14.59,14.59,0,0,1,14.59-14.59h14.563a9.018,9.018,0,0,1,9.017,9.017Z" transform="translate(-157.324 -170.445)"/><rect class="cls-2" x="447.565" y="611.875" width="0.07" height="32.62"/><path class="cls-2" d="M683.439,736.45a23.534,23.534,0,0,0-16.7-6.92v.02h-47.21a14.59,14.59,0,0,0-14.59,14.59V756.6a2.142,2.142,0,0,0,2.142,2.142h19.325a2.142,2.142,0,0,0,2.143-2.142v-3.431a9.017,9.017,0,0,1,9.017-9.017h14.583a14.59,14.59,0,0,1,14.59,14.59v8.99h-47.21a14.587,14.587,0,0,0-14.59,14.59h.02v32.62h-.02a14.587,14.587,0,0,0,14.59,14.59h38.19a9.022,9.022,0,0,0,9.02-9.02v6.9a2.122,2.122,0,0,0,2.123,2.122h19.364a2.123,2.123,0,0,0,2.123-2.122V753.14A23.526,23.526,0,0,0,683.439,736.45Zm-16.7,63.9a14.59,14.59,0,0,1-14.59,14.59H637.586a9.017,9.017,0,0,1-9.017-9.017V796.91a14.59,14.59,0,0,1,14.59-14.59h14.563a9.017,9.017,0,0,1,9.017,9.017Z" transform="translate(-157.324 -170.445)"/></svg>