<svg id="Main" xmlns="http://www.w3.org/2000/svg" viewBox="0 0 661.618 303.775"><defs><style>.cls-1{fill:#121221;}.cls-1,.cls-2{stroke:#e1e0e0;stroke-miterlimit:10;stroke-width:1.618px;}.cls-2{fill:#366ce1;}</style></defs><title>.net</title><path class="cls-1" d="M430,451.14v12.94q-25.155,14.94-50,30.35V419.42q17.79,7.9,35.67,15.67l.01.01A172.955,172.955,0,0,0,430,451.14Z" transform="translate(-169.191 -347.583)"/><path class="cls-1" d="M319.99,429.05a450.806,450.806,0,0,0-89.95,76.66V476H230V350h.39q29.3,14.205,58.81,28.01Q304.98,403.27,319.99,429.05Z" transform="translate(-169.191 -347.583)"/><path class="cls-1" d="M220,625a25,25,0,0,1-47.76,10.33q19.68-14.565,39.61-28.8A24.92,24.92,0,0,1,220,625Z" transform="translate(-169.191 -347.583)"/><path class="cls-1" d="M280,559.17v48.4A277.692,277.692,0,0,0,230.91,650H230V593.65Q254.81,576.16,280,559.17Z" transform="translate(-169.191 -347.583)"/><path class="cls-1" d="M391.15,563.45a274.31,274.31,0,0,0-49.6,12.78L319.11,533.2q21.015-13.725,42.25-27.11L380,541.84v-1.29Q385.655,551.965,391.15,563.45Z" transform="translate(-169.191 -347.583)"/><path class="cls-1" d="M430,559.99V585.4q-9.435,10.875-18.42,22.12-9.93-22.185-20.43-44.07A276.074,276.074,0,0,1,430,559.99Z" transform="translate(-169.191 -347.583)"/><path class="cls-1" d="M535.88,485.44q-7.98,6.15-15.79,12.52A170.792,170.792,0,0,1,440,460.29v-2.12q6.21-3.66,12.43-7.29,18.75,7.98,37.57,15.79V476h22.63Q524.24,480.755,535.88,485.44Z" transform="translate(-169.191 -347.583)"/><path class="cls-1" d="M595.72,526H490v39.31a276.324,276.324,0,0,0-37.35-4.85,730.272,730.272,0,0,1,67.44-62.5,171.812,171.812,0,0,0,30.38,2.69,173.856,173.856,0,0,0,17.77-.91Q581.77,513.09,595.72,526Z" transform="translate(-169.191 -347.583)"/><path class="cls-1" d="M452.65,560.46q-6.4,6.735-12.65,13.65V559.97Q446.36,560.075,452.65,560.46Z" transform="translate(-169.191 -347.583)"/><path class="cls-1" d="M640,600v50h-.07a278.152,278.152,0,0,0-60.88-50Z" transform="translate(-169.191 -347.583)"/><path class="cls-1" d="M755,649.87V650H705V615.59Q729.525,633.365,755,649.87Z" transform="translate(-169.191 -347.583)"/><path class="cls-1" d="M430,377.53v63.76q-7.17-3.09-14.32-6.19l-.01-.01a171.228,171.228,0,0,1-24.8-43.36Q410,383.75,430,377.53Z" transform="translate(-169.191 -347.583)"/><path class="cls-1" d="M390.87,391.73c-3.65,1.52-7.28,3.08-10.87,4.71V350h.38A169.828,169.828,0,0,0,390.87,391.73Z" transform="translate(-169.191 -347.583)"/><path class="cls-1" d="M490,414.58v14.77q-18.87,10.635-37.57,21.53-6.225-2.625-12.43-5.3V374.55q7.485-2.145,15.08-4.02Q472.015,392.985,490,414.58Z" transform="translate(-169.191 -347.583)"/><path class="cls-1" d="M640.26,350q-10.845,5.34-21.63,10.78a452.556,452.556,0,0,0-163.55,9.75q-7.65-10.125-15.08-20.44V350Z" transform="translate(-169.191 -347.583)"/><path class="cls-1" d="M565.94,497.46q-15.06-5.955-30.05-12.02,5.175-4.005,10.44-7.9Q556,487.62,565.94,497.46Z" transform="translate(-169.191 -347.583)"/><path class="cls-1" d="M640,476v50h-.25q-34.53-13.035-68.83-26.56A170.146,170.146,0,0,0,639.05,476Z" transform="translate(-169.191 -347.583)"/><path class="cls-1" d="M639.05,476a170.146,170.146,0,0,1-68.13,23.44h-.02c-1.66-.66-3.3-1.32-4.96-1.98q-9.93-9.825-19.61-19.92c.69-.52,1.38-1.03,2.07-1.54Z" transform="translate(-169.191 -347.583)"/><path class="cls-1" d="M548.4,476c-.69.51-1.38,1.02-2.07,1.54-.5-.51-.99-1.02-1.47-1.54Z" transform="translate(-169.191 -347.583)"/><path class="cls-1" d="M755,400.32V567.88q-25.065-8.745-50-17.77V403.41a167.58,167.58,0,0,0,7.5-18.25c1.04-.41,2.09-.82,3.13-1.22Q735.775,391.2,755,400.32Z" transform="translate(-169.191 -347.583)"/><path class="cls-1" d="M713.21,383.06c-.23.7-.47,1.4-.71,2.1q-17.7,6.975-34.91,14.84H543.26q37.38-20.13,75.37-39.22A444.98,444.98,0,0,1,713.21,383.06Z" transform="translate(-169.191 -347.583)"/><path class="cls-1" d="M830,350v.06a719.241,719.241,0,0,0-114.37,33.88c-.81-.3-1.61-.59-2.42-.88A169.974,169.974,0,0,0,720.57,350Z" transform="translate(-169.191 -347.583)"/><path class="cls-1" d="M296.34,381.34q-3.57-1.65-7.14-3.33Q280.4,363.925,271.35,350H280Z" transform="translate(-169.191 -347.583)"/><path class="cls-2" d="M570.9,499.44c-.88.11-1.77.21-2.66.3-.77-.75-1.53-1.51-2.3-2.28C567.6,498.12,569.24,498.78,570.9,499.44Z" transform="translate(-169.191 -347.583)"/><path class="cls-2" d="M713.21,383.06c.81.29,1.61.58,2.42.88-1.04.4-2.09.81-3.13,1.22C712.74,384.46,712.98,383.76,713.21,383.06Z" transform="translate(-169.191 -347.583)"/><path class="cls-2" d="M320.9,428.46c-.31.19-.61.39-.91.59q-15-25.785-30.79-51.04,3.57,1.68,7.14,3.33v.01Z" transform="translate(-169.191 -347.583)"/><rect class="cls-2" x="60.809" y="128.417" width="0.04" height="50"/><rect class="cls-2" x="270.729" y="2.417" width="0.08" height="50"/><rect class="cls-2" x="60.809" y="128.417" width="0.04" height="50"/><path class="cls-2" d="M452.43,450.88q-6.225,3.63-12.43,7.29V445.58Q446.21,448.25,452.43,450.88Z" transform="translate(-169.191 -347.583)"/><path class="cls-2" d="M430,441.29v9.85a172.955,172.955,0,0,1-14.32-16.04Q422.835,438.205,430,441.29Z" transform="translate(-169.191 -347.583)"/><path class="cls-2" d="M333.7,453.03q-6.75-12.045-13.71-23.98c.3-.2.6-.4.91-.59Z" transform="translate(-169.191 -347.583)"/><path class="cls-2" d="M211.85,606.53q-19.92,14.235-39.61,28.8a25,25,0,0,1,39.61-28.8Z" transform="translate(-169.191 -347.583)"/><path class="cls-2" d="M361.36,506.09q-21.24,13.38-42.25,27.11L280,458.16a445.637,445.637,0,0,1,39.99-29.11q6.945,11.94,13.71,23.98c.03.05.06.11.09.16Z" transform="translate(-169.191 -347.583)"/><path class="cls-2" d="M280,458.16V559.17q-25.185,17-50,34.48V526h.04V505.71A447.334,447.334,0,0,1,280,458.16Z" transform="translate(-169.191 -347.583)"/><path class="cls-2" d="M411.58,607.52Q395.065,628.16,380.04,650H380l-38.45-73.77a274.31,274.31,0,0,1,49.6-12.78Q401.65,585.335,411.58,607.52Z" transform="translate(-169.191 -347.583)"/><path class="cls-2" d="M429.99,650H380.04q15.015-21.825,31.54-42.48Q421.045,628.625,429.99,650Z" transform="translate(-169.191 -347.583)"/><path class="cls-2" d="M430,585.4V650h-.01q-8.955-21.375-18.41-42.48Q420.565,596.27,430,585.4Z" transform="translate(-169.191 -347.583)"/><path class="cls-2" d="M520.09,497.96a730.272,730.272,0,0,0-67.44,62.5q-6.285-.39-12.65-.49V460.29A170.792,170.792,0,0,0,520.09,497.96Z" transform="translate(-169.191 -347.583)"/><path class="cls-2" d="M639.93,650H440V574.11q6.24-6.9,12.65-13.65A276.324,276.324,0,0,1,490,565.31V600h89.05A278.152,278.152,0,0,1,639.93,650Z" transform="translate(-169.191 -347.583)"/><path class="cls-2" d="M568.24,499.74a173.856,173.856,0,0,1-17.77.91,171.812,171.812,0,0,1-30.38-2.69q7.8-6.36,15.79-12.52h.01q15,6.075,30.05,12.02C566.71,498.23,567.47,498.99,568.24,499.74Z" transform="translate(-169.191 -347.583)"/><path class="cls-2" d="M639.75,526H595.72q-13.95-12.9-27.48-26.26c.89-.09,1.78-.19,2.66-.3h.02Q605.21,512.97,639.75,526Z" transform="translate(-169.191 -347.583)"/><path class="cls-2" d="M755,567.88v81.99q-25.47-16.5-50-34.28V550.11Q729.93,559.125,755,567.88Z" transform="translate(-169.191 -347.583)"/><path class="cls-2" d="M415.67,435.09q-17.88-7.77-35.67-15.67V396.44c3.59-1.63,7.22-3.19,10.87-4.71A171.228,171.228,0,0,0,415.67,435.09Z" transform="translate(-169.191 -347.583)"/><path class="cls-2" d="M430,350v27.53q-19.98,6.21-39.13,14.2A169.828,169.828,0,0,1,380.38,350Z" transform="translate(-169.191 -347.583)"/><path class="cls-2" d="M618.63,360.78q-38,19.1-75.37,39.22H490v14.58Q472.015,393,455.08,370.53a452.556,452.556,0,0,1,163.55-9.75Z" transform="translate(-169.191 -347.583)"/><path class="cls-2" d="M455.08,370.53q-7.59,1.875-15.08,4.02V350.09Q447.425,360.4,455.08,370.53Z" transform="translate(-169.191 -347.583)"/><path class="cls-2" d="M490,429.35v37.32q-18.825-7.815-37.57-15.79Q471.135,439.99,490,429.35Z" transform="translate(-169.191 -347.583)"/><path class="cls-2" d="M546.33,477.54q-5.265,3.9-10.44,7.9h-.01q-11.64-4.68-23.25-9.44h32.23C545.34,476.52,545.83,477.03,546.33,477.54Z" transform="translate(-169.191 -347.583)"/><path class="cls-2" d="M705,403.41V400H677.59q17.2-7.86,34.91-14.84A167.58,167.58,0,0,1,705,403.41Z" transform="translate(-169.191 -347.583)"/><path class="cls-2" d="M720.57,350a169.974,169.974,0,0,1-7.36,33.06,444.98,444.98,0,0,0-94.58-22.28q10.785-5.445,21.63-10.78Z" transform="translate(-169.191 -347.583)"/><path class="cls-2" d="M830,350.06V400H755v.32q-19.2-9.1-39.37-16.38A719.241,719.241,0,0,1,830,350.06Z" transform="translate(-169.191 -347.583)"/><path class="cls-2" d="M289.2,378.01Q259.695,364.2,230.39,350h40.96Q280.4,363.92,289.2,378.01Z" transform="translate(-169.191 -347.583)"/><path class="cls-2" d="M430,464.08v95.91a276.074,276.074,0,0,0-38.85,3.46q-5.49-11.49-11.15-22.9V494.43Q404.84,479.025,430,464.08Z" transform="translate(-169.191 -347.583)"/><path class="cls-2" d="M280,607.57V650H230.91A277.692,277.692,0,0,1,280,607.57Z" transform="translate(-169.191 -347.583)"/><path class="cls-2" d="M570.9,499.44c-.88.11-1.77.21-2.66.3-.77-.75-1.53-1.51-2.3-2.28C567.6,498.12,569.24,498.78,570.9,499.44Z" transform="translate(-169.191 -347.583)"/><path class="cls-2" d="M713.21,383.06c.81.29,1.61.58,2.42.88-1.04.4-2.09.81-3.13,1.22C712.74,384.46,712.98,383.76,713.21,383.06Z" transform="translate(-169.191 -347.583)"/></svg>