<svg id="Main" xmlns="http://www.w3.org/2000/svg" viewBox="0 0 800 360.017"><defs><style>.cls-1{fill:#366ce1;}</style></defs><title>ajax</title><path class="cls-1" d="M100,600l80-200h40l80,200H260L200,440,140,600Z" transform="translate(-100 -319.992)"/><path class="cls-1" d="M160,510h80q10,20,20,40H140Z" transform="translate(-100 -319.992)"/><path class="cls-1" d="M500,599.991q40-100,80-200h40q40,100,80,200H660l-60-160-60,160Z" transform="translate(-100 -319.992)"/><path class="cls-1" d="M560,509.991h80q10,20,20,40H540Z" transform="translate(-100 -319.992)"/><ellipse class="cls-1" cx="800" cy="500.008" rx="181.98" ry="21.98" transform="translate(-193.869 481.691) rotate(-50.655)"/><ellipse class="cls-1" cx="800" cy="500.008" rx="21.98" ry="181.98" transform="translate(-235.674 300.53) rotate(-39.345)"/><path class="cls-1" d="M500,580c-2.782,55.9-48.126,99.3-100,100-45.922.616-88.278-32.353-100-80h40c10.582,25.009,34.776,40.943,60,40,30.381-1.136,57.052-26.561,60-60V480.008L500,480Z" transform="translate(-100 -319.992)"/><path class="cls-1" d="M300,420c2.782-55.9,48.126-99.3,100-100,45.922-.616,88.278,32.353,100,80H460c-10.582-25.009-34.776-40.943-60-40-30.381,1.136-57.052,26.561-60,60V520.008L300,520Z" transform="translate(-100 -319.992)"/><path class="cls-1" d="M500,439.71v56.54l-56.58,56.58q-14.145-14.13-28.28-28.28l84.85-84.85Z" transform="translate(-100 -319.992)"/><path class="cls-1" d="M300,559.82V503.28l56.58-56.58q14.145,14.13,28.28,28.28l-84.85,84.85Z" transform="translate(-100 -319.992)"/></svg>