<svg id="Main" xmlns="http://www.w3.org/2000/svg" viewBox="0 0 454.08 241.44"><defs><style>.cls-1{fill:#366ce1;}.cls-2{fill:#121221;}</style></defs><title>C#</title><polygon class="cls-1" points="0.1 170.81 0 170.81 0 170.71 0.1 170.81"/><polygon class="cls-1" points="214.4 143.72 241.41 170.73 170.7 241.44 170.68 241.42 70.71 241.42 0.1 170.81 0 170.71 0 70.81 0.09 70.81 0 70.72 70.71 0.01 70.72 0.02 70.72 0 170.72 0 170.72 0.05 241.41 70.74 214.4 97.75 154.85 38.2 86.54 38.2 38.2 86.54 38.2 154.89 86.53 203.22 154.9 203.22 214.4 143.72"/><path class="cls-2" d="M657.484,297.538h30.9v-38.2h-30.9v-30.9h-38.2v30.9h-61.8v-30.9h-38.2v30.9h-30.9v38.2h30.9v61.54h-30.9v38.2h30.9v30.9h38.2v-30.9h61.8v30.9h38.2v-30.9h30.9v-38.2h-30.9Zm-38.2,61.54h-61.8v-61.54h61.8Z" transform="translate(-234.304 -207.588)"/></svg>