<svg id="Main" xmlns="http://www.w3.org/2000/svg" viewBox="0 0 563.84 229.758"><defs><style>.cls-1{fill:#366ce1;}.cls-2{fill:#121221;}</style></defs><title>perl</title><path class="cls-1" d="M741.131,435.421v-.3a50,50,0,1,0-100,0v.3a81.251,81.251,0,0,0-23.44,29.63q-.48,1.035-.93,2.07a7.291,7.291,0,1,1-8.38-10.91,2.582,2.582,0,0,0,.26-.08,30.9,30.9,0,1,0-33.51-48.4,23.824,23.824,0,0,0-4.25-.37,25.377,25.377,0,0,0-24.96,29.92,25.262,25.262,0,0,0,17.5,7c.31,0,.62-.01.93-.02a50.013,50.013,0,0,0,41.89,68.67h7.74a80.919,80.919,0,0,1,154.3,0h2.56a81.771,81.771,0,0,0,1.19-13.91A80.761,80.761,0,0,0,741.131,435.421Zm-145.1-2.29a7.3,7.3,0,1,1,7.29-7.3A7.3,7.3,0,0,1,596.031,433.131Z" transform="translate(-218.08 -385.121)"/><path class="cls-1" d="M667.574,614.879a80.92,80.92,0,0,1-.19-159.39c-.01-.26-.01-.53-.01-.79,0-1.49.07-2.96.2-4.42v7.74a80.919,80.919,0,0,0,0,154.3Z" transform="translate(-218.08 -385.121)"/><path class="cls-1" d="M714.93,614.879a80.92,80.92,0,0,0,.19-159.39c.01-.26.01-.53.01-.79,0-1.49-.07-2.96-.2-4.42v7.74a80.919,80.919,0,0,1,0,154.3Z" transform="translate(-218.08 -385.121)"/><path class="cls-1" d="M690.422,456.019a80.919,80.919,0,0,0,0,154.3v2.56a80.92,80.92,0,0,1-.19-159.39Z" transform="translate(-218.08 -385.121)"/><path class="cls-1" d="M692.422,456.164a80.919,80.919,0,0,1,0,154.3v2.56a80.92,80.92,0,0,0,.19-159.39Z" transform="translate(-218.08 -385.121)"/><path class="cls-2" d="M298.08,415.005h-80a49.726,49.726,0,0,1,30,10.01V585a49.726,49.726,0,0,1-30,10.01h80a49.726,49.726,0,0,1-30-10.01V505a50,50,0,1,0,30-89.99Zm0,80.9a30.9,30.9,0,1,1,30.9-30.9A30.908,30.908,0,0,1,298.08,495.905Z" transform="translate(-218.08 -385.121)"/><path class="cls-2" d="M506.65,509.655l-13.5,13.5a30.9,30.9,0,0,0-52.75,21.85v40.01a49.685,49.685,0,0,0,29.97,9.99H391.3a49.726,49.726,0,0,0,30-10.01v-89.99H410.39a49.726,49.726,0,0,0,30-10.01v10.01h.01v10.7a49.971,49.971,0,0,1,66.25,3.95Z" transform="translate(-218.08 -385.121)"/><path class="cls-2" d="M560.65,595.005h-79.1a49.726,49.726,0,0,0,30-10.01V415.005h-10.9a49.726,49.726,0,0,0,30-10.01V585A49.726,49.726,0,0,0,560.65,595.005Z" transform="translate(-218.08 -385.121)"/><path class="cls-2" d="M416.65,544.985A49.924,49.924,0,0,0,385,498.475c-.38-.15-.76-.3-1.14-.44-.77-.28-1.54-.54-2.32-.78-.39-.12-.79-.24-1.18-.35s-.75-.21-1.13-.31a1.244,1.244,0,0,0-.16-.04c-.36-.09-.72-.18-1.08-.26a.142.142,0,0,0-.06-.02c-.39-.09-.79-.17-1.18-.25-.42-.1-.85-.18-1.28-.25-.81-.14-1.62-.26-2.43-.37-.42-.05-.84-.1-1.26-.14a50.822,50.822,0,0,0-5.11-.26h-.01a50,50,0,1,0,35.36,85.35l-13.5-13.5a30.9,30.9,0,0,1-51.25-12.33h79.38Zm-79.38-9.5a30.928,30.928,0,0,1,45.4-16.93.8.8,0,0,1,.14.09c.38.22.75.46,1.12.72a.072.072,0,0,1,.06.04,25.338,25.338,0,0,1,2.17,1.61,3.269,3.269,0,0,1,.35.3,26.277,26.277,0,0,1,2,1.82c.01.01.01.01.01.02a30.512,30.512,0,0,1,7.54,12.33Z" transform="translate(-218.08 -385.121)"/></svg>