<svg id="Main" xmlns="http://www.w3.org/2000/svg" viewBox="0 0 982.852 396.608"><defs><style>.cls-1{fill:#366ce1;}.cls-2{fill:#121221;}.cls-3,.cls-4,.cls-5{fill:none;stroke:#e1e0e0;stroke-miterlimit:10;}.cls-3{stroke-width:23.606px;}.cls-4{stroke-width:14.59px;}.cls-5{stroke-width:9.006px;}</style></defs><title>ruby</title><path class="cls-1" d="M631.162,308.9l70.592,122.27H560.57Q595.865,370.035,631.162,308.9Z" transform="translate(-15.863 -297.109)"/><path class="cls-1" d="M772.347,308.9q35.295,61.136,70.592,122.27H701.754Z" transform="translate(-15.863 -297.109)"/><path class="cls-1" d="M701.754,431.171,631.162,308.9H772.347Z" transform="translate(-15.863 -297.109)"/><path class="cls-1" d="M842.939,431.171q-35.3-61.136-70.592-122.27H913.531Z" transform="translate(-15.863 -297.109)"/><path class="cls-1" d="M913.531,308.9q35.3,61.136,70.592,122.27H842.939Z" transform="translate(-15.863 -297.109)"/><path class="cls-2" d="M772.346,656.634,560.557,431.171h423.58Z" transform="translate(-15.863 -297.109)"/><path class="cls-3" d="M772.346,656.624,560.557,431.168q35.3-61.142,70.605-122.257H913.531L984.11,431.168Z" transform="translate(-15.863 -297.109)"/><path class="cls-4" d="M560.57,431.171H984.123" transform="translate(-15.863 -297.109)"/><path class="cls-5" d="M631.162,306.283l70.592,122.27q35.121-56.439,70.24-112.879l70.945,112.879q35.3-61.134,70.592-122.27" transform="translate(-15.863 -297.109)"/><path class="cls-5" d="M842.939,431.171,772.347,656.634" transform="translate(-15.863 -297.109)"/><path class="cls-5" d="M701.754,431.171l70.593,225.463" transform="translate(-15.863 -297.109)"/><path class="cls-1" d="M174.518,528.721l-28.866,16.666V512.056Z" transform="translate(-15.863 -297.109)"/><path class="cls-2" d="M145.652,510.18l28.866-16.666v33.331Z" transform="translate(-15.863 -297.109)"/><path class="cls-1" d="M174.518,491.639,145.652,508.3V474.973Z" transform="translate(-15.863 -297.109)"/><path class="cls-2" d="M145.652,473.1l28.866-16.665v33.331Z" transform="translate(-15.863 -297.109)"/><path class="cls-2" d="M207.639,547.262,236.5,530.6v33.331Z" transform="translate(-15.863 -297.109)"/><path class="cls-2" d="M145.652,547.262,174.518,530.6v33.331Z" transform="translate(-15.863 -297.109)"/><path class="cls-1" d="M267.406,547.262l-28.865,16.666V530.6Z" transform="translate(-15.863 -297.109)"/><path class="cls-1" d="M205.42,547.262l-28.866,16.666V530.6Z" transform="translate(-15.863 -297.109)"/><path class="cls-2" d="M176.554,565.8l28.866-16.666v33.331Z" transform="translate(-15.863 -297.109)"/><path class="cls-1" d="M236.5,565.8l-28.865,16.665V549.138Z" transform="translate(-15.863 -297.109)"/><path class="cls-2" d="M238.541,528.721l28.865-16.665v33.331Z" transform="translate(-15.863 -297.109)"/><path class="cls-1" d="M267.406,510.18l-28.865,16.665V493.514Z" transform="translate(-15.863 -297.109)"/><path class="cls-2" d="M238.541,491.639l28.865-16.666V508.3Z" transform="translate(-15.863 -297.109)"/><path class="cls-1" d="M267.406,473.1l-28.865,16.666V456.432Z" transform="translate(-15.863 -297.109)"/><path class="cls-1" d="M434.1,528.721l-28.866,16.666V512.056Z" transform="translate(-15.863 -297.109)"/><path class="cls-2" d="M405.229,510.18,434.1,493.514v33.331Z" transform="translate(-15.863 -297.109)"/><path class="cls-1" d="M434.1,491.639,405.229,508.3V474.973Z" transform="translate(-15.863 -297.109)"/><path class="cls-2" d="M405.229,473.1,434.1,456.432v33.331Z" transform="translate(-15.863 -297.109)"/><path class="cls-2" d="M467.216,547.262,496.081,530.6v33.331Z" transform="translate(-15.863 -297.109)"/><path class="cls-2" d="M498.118,565.8l28.865-16.666v33.331Z" transform="translate(-15.863 -297.109)"/><path class="cls-2" d="M405.229,547.262,434.1,530.6v33.331Z" transform="translate(-15.863 -297.109)"/><path class="cls-1" d="M526.983,547.262q-14.431,8.334-28.865,16.666V530.6Z" transform="translate(-15.863 -297.109)"/><path class="cls-1" d="M465,547.262l-28.866,16.666V530.6Z" transform="translate(-15.863 -297.109)"/><path class="cls-2" d="M436.131,565.8,465,549.138v33.331Z" transform="translate(-15.863 -297.109)"/><path class="cls-1" d="M496.081,565.8l-28.865,16.665V549.138Q481.649,557.47,496.081,565.8Z" transform="translate(-15.863 -297.109)"/><path class="cls-1" d="M526.983,584.345,498.118,601.01V567.679Z" transform="translate(-15.863 -297.109)"/><path class="cls-2" d="M498.118,602.886l28.865-16.665v33.331Q512.552,611.218,498.118,602.886Z" transform="translate(-15.863 -297.109)"/><path class="cls-1" d="M526.983,621.427q-14.431,8.334-28.865,16.666V604.762Z" transform="translate(-15.863 -297.109)"/><path class="cls-2" d="M498.118,528.721l28.865-16.665v33.331Z" transform="translate(-15.863 -297.109)"/><path class="cls-1" d="M434.1,639.969l-28.866,16.665V623.3Z" transform="translate(-15.863 -297.109)"/><path class="cls-2" d="M467.216,658.51l28.865-16.666v33.331Z" transform="translate(-15.863 -297.109)"/><path class="cls-2" d="M405.229,658.51,434.1,641.844v33.331Z" transform="translate(-15.863 -297.109)"/><path class="cls-1" d="M526.983,658.51l-28.865,16.665V641.844Z" transform="translate(-15.863 -297.109)"/><path class="cls-1" d="M465,658.51l-28.866,16.665V641.844Z" transform="translate(-15.863 -297.109)"/><path class="cls-2" d="M436.131,677.051,465,660.386v33.331Z" transform="translate(-15.863 -297.109)"/><path class="cls-1" d="M496.081,677.051l-28.865,16.666V660.386Z" transform="translate(-15.863 -297.109)"/><path class="cls-2" d="M498.118,639.969,526.983,623.3v33.331Z" transform="translate(-15.863 -297.109)"/><path class="cls-1" d="M526.983,510.18l-28.865,16.665V493.514Z" transform="translate(-15.863 -297.109)"/><path class="cls-2" d="M498.118,491.639l28.865-16.666V508.3Z" transform="translate(-15.863 -297.109)"/><path class="cls-1" d="M526.983,473.1q-14.431,8.334-28.865,16.666V456.432Z" transform="translate(-15.863 -297.109)"/><path class="cls-1" d="M108.752,491.639l28.866-16.666V508.3Z" transform="translate(-15.863 -297.109)"/><path class="cls-1" d="M108.752,417.474l28.866-16.666v33.331Z" transform="translate(-15.863 -297.109)"/><path class="cls-1" d="M77.85,398.933l28.866-16.666V415.6Z" transform="translate(-15.863 -297.109)"/><path class="cls-1" d="M46.766,380.391l28.865-16.665v33.331Z" transform="translate(-15.863 -297.109)"/><path class="cls-2" d="M137.618,510.18l-28.866,16.665V493.514Z" transform="translate(-15.863 -297.109)"/><path class="cls-1" d="M108.752,528.721l28.866-16.665v33.331Z" transform="translate(-15.863 -297.109)"/><path class="cls-2" d="M137.618,547.262l-28.866,16.666V530.6Z" transform="translate(-15.863 -297.109)"/><path class="cls-1" d="M108.752,565.8l28.866-16.666v33.331Z" transform="translate(-15.863 -297.109)"/><path class="cls-2" d="M137.618,436.015,108.752,452.68V419.35Z" transform="translate(-15.863 -297.109)"/><path class="cls-2" d="M137.618,398.933,108.752,415.6V382.267Z" transform="translate(-15.863 -297.109)"/><path class="cls-2" d="M106.716,380.391,77.85,397.057V363.726Z" transform="translate(-15.863 -297.109)"/><path class="cls-2" d="M44.729,417.474,15.863,434.139V400.808Z" transform="translate(-15.863 -297.109)"/><path class="cls-2" d="M44.729,454.556,15.863,471.222V437.891Z" transform="translate(-15.863 -297.109)"/><path class="cls-2" d="M75.631,473.1,46.766,489.763V456.432Z" transform="translate(-15.863 -297.109)"/><path class="cls-2" d="M137.618,473.1l-28.866,16.666V456.432Z" transform="translate(-15.863 -297.109)"/><path class="cls-1" d="M15.863,398.933l28.866-16.666V415.6Z" transform="translate(-15.863 -297.109)"/><path class="cls-1" d="M15.863,436.015,44.729,419.35v33.33Z" transform="translate(-15.863 -297.109)"/><path class="cls-1" d="M15.863,473.1l28.866-16.665v33.331Z" transform="translate(-15.863 -297.109)"/><path class="cls-1" d="M77.85,473.1l28.866-16.665v33.331Z" transform="translate(-15.863 -297.109)"/><path class="cls-2" d="M44.729,491.639,15.863,508.3V474.973Z" transform="translate(-15.863 -297.109)"/><path class="cls-1" d="M15.863,510.18l28.866-16.666v33.331Z" transform="translate(-15.863 -297.109)"/><path class="cls-2" d="M44.729,528.721,15.863,545.387V512.056Z" transform="translate(-15.863 -297.109)"/><path class="cls-2" d="M44.729,565.8,15.863,582.469V549.138Z" transform="translate(-15.863 -297.109)"/><path class="cls-1" d="M15.863,547.262,44.729,530.6v33.331Z" transform="translate(-15.863 -297.109)"/><path class="cls-2" d="M75.631,398.933,46.766,415.6V382.267Z" transform="translate(-15.863 -297.109)"/><path class="cls-1" d="M368.329,528.721,397.2,545.387V512.056Z" transform="translate(-15.863 -297.109)"/><path class="cls-1" d="M368.329,491.639,397.2,508.3V474.973Z" transform="translate(-15.863 -297.109)"/><path class="cls-1" d="M337.427,547.262l28.866,16.666V530.6Z" transform="translate(-15.863 -297.109)"/><path class="cls-1" d="M306.343,565.8l28.865,16.665V549.138Z" transform="translate(-15.863 -297.109)"/><path class="cls-2" d="M397.2,510.18l-28.866-16.666v33.331Z" transform="translate(-15.863 -297.109)"/><path class="cls-2" d="M397.2,473.1l-28.866-16.665v33.331Z" transform="translate(-15.863 -297.109)"/><path class="cls-2" d="M335.208,473.1l-28.865-16.665v33.331Z" transform="translate(-15.863 -297.109)"/><path class="cls-2" d="M397.2,547.262,368.329,530.6v33.331Z" transform="translate(-15.863 -297.109)"/><path class="cls-2" d="M366.293,565.8l-28.866-16.666v33.331Z" transform="translate(-15.863 -297.109)"/><path class="cls-1" d="M306.343,454.556l28.865,16.666V437.891Z" transform="translate(-15.863 -297.109)"/><path class="cls-2" d="M366.293,454.556l-28.866-16.665v33.331Z" transform="translate(-15.863 -297.109)"/><path class="cls-2" d="M304.306,528.721l-28.865-16.665v33.331Z" transform="translate(-15.863 -297.109)"/><path class="cls-2" d="M304.306,491.639l-28.865-16.666V508.3Z" transform="translate(-15.863 -297.109)"/><path class="cls-1" d="M275.441,547.262l28.865,16.666V530.6Z" transform="translate(-15.863 -297.109)"/><path class="cls-1" d="M337.427,473.1l28.866,16.666V456.432Z" transform="translate(-15.863 -297.109)"/><path class="cls-1" d="M275.441,510.18l28.865,16.665V493.514Z" transform="translate(-15.863 -297.109)"/><path class="cls-1" d="M275.441,473.1l28.865,16.666V456.432Z" transform="translate(-15.863 -297.109)"/><path class="cls-2" d="M304.306,454.556l-28.865-16.665v33.331Z" transform="translate(-15.863 -297.109)"/><path class="cls-1" d="M275.441,436.015l28.865,16.665V419.35Z" transform="translate(-15.863 -297.109)"/><path class="cls-2" d="M304.306,417.474l-28.865-16.666v33.331Z" transform="translate(-15.863 -297.109)"/><path class="cls-2" d="M304.306,380.391l-28.865-16.665v33.331Z" transform="translate(-15.863 -297.109)"/><path class="cls-1" d="M275.441,398.933,304.306,415.6V382.267Z" transform="translate(-15.863 -297.109)"/><path class="cls-2" d="M335.208,547.262,306.343,530.6v33.331Z" transform="translate(-15.863 -297.109)"/></svg>