<svg id="Main" xmlns="http://www.w3.org/2000/svg" viewBox="0 0 480 270"><defs><style>.cls-1{fill:#121221;}.cls-2{fill:#366ce1;}</style></defs><title>pure_basic</title><rect class="cls-1" x="270" y="600" width="10" height="10" rx="1.459" transform="translate(-590 470) rotate(-90)"/><rect class="cls-1" x="260" y="600" width="10" height="10" rx="1.459" transform="translate(-600 460) rotate(-90)"/><rect class="cls-1" x="280" y="600" width="10" height="10" rx="1.459" transform="translate(-580 480) rotate(-90)"/><rect class="cls-1" x="290" y="600" width="10" height="10" rx="1.459" transform="translate(-570 490) rotate(-90)"/><rect class="cls-1" x="300" y="600" width="10" height="10" rx="1.459" transform="translate(-560 500) rotate(-90)"/><rect class="cls-1" x="310" y="600" width="10" height="10" rx="1.459" transform="translate(-550 510) rotate(-90)"/><rect class="cls-1" x="320" y="600" width="10" height="10" rx="1.459" transform="translate(-540 520) rotate(-90)"/><rect class="cls-1" x="330" y="600" width="10" height="10" rx="1.459" transform="translate(-530 530) rotate(-90)"/><rect class="cls-1" x="340" y="600" width="10" height="10" rx="1.459" transform="translate(-520 540) rotate(-90)"/><rect class="cls-1" x="350" y="600" width="10" height="10" rx="1.459" transform="translate(-510 550) rotate(-90)"/><rect class="cls-1" x="360" y="600" width="10" height="10" rx="1.459" transform="translate(-500 560) rotate(-90)"/><rect class="cls-1" x="370" y="600" width="10" height="10" rx="1.459" transform="translate(-490 570) rotate(-90)"/><rect class="cls-1" x="380" y="600" width="10" height="10" rx="1.459" transform="translate(-480 580) rotate(-90)"/><rect class="cls-1" x="390" y="600" width="10" height="10" rx="1.459" transform="translate(-470 590) rotate(-90)"/><rect class="cls-1" x="400" y="600" width="10" height="10" rx="1.459" transform="translate(-460 600) rotate(-90)"/><rect class="cls-1" x="410" y="600" width="10" height="10" rx="1.459" transform="translate(-450 610) rotate(-90)"/><rect class="cls-1" x="420" y="600" width="10" height="10" rx="1.459" transform="translate(-440 620) rotate(-90)"/><rect class="cls-1" x="430" y="600" width="10" height="10" rx="1.459" transform="translate(-430 630) rotate(-90)"/><rect class="cls-1" x="440" y="600" width="10" height="10" rx="1.459" transform="translate(-420 640) rotate(-90)"/><rect class="cls-1" x="450" y="600" width="10" height="10" rx="1.459" transform="translate(-410 650) rotate(-90)"/><rect class="cls-1" x="460" y="600" width="10" height="10" rx="1.459" transform="translate(-400 660) rotate(-90)"/><rect class="cls-1" x="470" y="600" width="10" height="10" rx="1.459" transform="translate(-390 670) rotate(-90)"/><rect class="cls-1" x="480" y="600" width="10" height="10" rx="1.459" transform="translate(-380 680) rotate(-90)"/><rect class="cls-1" x="490" y="600" width="10" height="10" rx="1.459" transform="translate(-370 690) rotate(-90)"/><rect class="cls-1" x="500" y="600" width="10" height="10" rx="1.459" transform="translate(-360 700) rotate(-90)"/><rect class="cls-1" x="510" y="600" width="10" height="10" rx="1.459" transform="translate(-350 710) rotate(-90)"/><rect class="cls-1" x="520" y="600" width="10" height="10" rx="1.459" transform="translate(-340 720) rotate(-90)"/><rect class="cls-1" x="530" y="600" width="10" height="10" rx="1.459" transform="translate(-330 730) rotate(-90)"/><rect class="cls-1" x="540" y="600" width="10" height="10" rx="1.459" transform="translate(-320 740) rotate(-90)"/><rect class="cls-1" x="550" y="600" width="10" height="10" rx="1.459" transform="translate(-310 750) rotate(-90)"/><rect class="cls-1" x="560" y="600" width="10" height="10" rx="1.459" transform="translate(-300 760) rotate(-90)"/><rect class="cls-1" x="570" y="600" width="10" height="10" rx="1.459" transform="translate(-290 770) rotate(-90)"/><rect class="cls-1" x="580" y="600" width="10" height="10" rx="1.459" transform="translate(-280 780) rotate(-90)"/><rect class="cls-1" x="590" y="600" width="10" height="10" rx="1.459" transform="translate(-270 790) rotate(-90)"/><rect class="cls-1" x="600" y="600" width="10" height="10" rx="1.459" transform="translate(-260 800) rotate(-90)"/><rect class="cls-1" x="610" y="600" width="10" height="10" rx="1.459" transform="translate(-250 810) rotate(-90)"/><rect class="cls-1" x="620" y="600" width="10" height="10" rx="1.459" transform="translate(-240 820) rotate(-90)"/><rect class="cls-1" x="630" y="600" width="10" height="10" rx="1.459" transform="translate(-230 830) rotate(-90)"/><rect class="cls-1" x="640" y="600" width="10" height="10" rx="1.459" transform="translate(-220 840) rotate(-90)"/><rect class="cls-1" x="650" y="600" width="10" height="10" rx="1.459" transform="translate(-210 850) rotate(-90)"/><rect class="cls-1" x="660" y="600" width="10" height="10" rx="1.459" transform="translate(-200 860) rotate(-90)"/><rect class="cls-1" x="670" y="600" width="10" height="10" rx="1.459" transform="translate(-190 870) rotate(-90)"/><rect class="cls-1" x="680" y="600" width="10" height="10" rx="1.459" transform="translate(-180 880) rotate(-90)"/><rect class="cls-1" x="690" y="600" width="10" height="10" rx="1.459" transform="translate(-170 890) rotate(-90)"/><rect class="cls-1" x="700" y="600" width="10" height="10" rx="1.459" transform="translate(-160 900) rotate(-90)"/><rect class="cls-1" x="710" y="600" width="10" height="10" rx="1.459" transform="translate(-150 910) rotate(-90)"/><rect class="cls-1" x="720" y="600" width="10" height="10" rx="1.459" transform="translate(-140 920) rotate(-90)"/><rect class="cls-1" x="730" y="600" width="10" height="10" rx="1.459" transform="translate(-130 930) rotate(-90)"/><rect class="cls-2" x="10" width="10" height="10" rx="1.459"/><rect class="cls-2" x="20" width="10" height="10" rx="1.459"/><rect class="cls-2" x="30" width="10" height="10" rx="1.459"/><rect class="cls-2" x="10" y="10" width="10" height="10" rx="1.459"/><rect class="cls-2" x="20" y="10" width="10" height="10" rx="1.459"/><rect class="cls-2" x="30" y="10" width="10" height="10" rx="1.459"/><rect class="cls-2" x="40" width="10" height="10" rx="1.459"/><rect class="cls-2" x="50" width="10" height="10" rx="1.459"/><rect class="cls-2" x="40" y="10" width="10" height="10" rx="1.459"/><rect class="cls-2" x="50" y="10" width="10" height="10" rx="1.459"/><rect class="cls-2" x="70" y="10" width="10" height="10" rx="1.459"/><rect class="cls-2" x="60" width="10" height="10" rx="1.459"/><rect class="cls-2" x="60" y="10" width="10" height="10" rx="1.459"/><rect class="cls-2" x="60" y="20" width="10" height="10" rx="1.459"/><rect class="cls-2" x="70" y="20" width="10" height="10" rx="1.459"/><rect class="cls-2" x="40" y="70" width="10" height="10" rx="1.459"/><rect class="cls-2" x="50" y="70" width="10" height="10" rx="1.459"/><rect class="cls-2" x="60" y="60" width="10" height="10" rx="1.459"/><rect class="cls-2" x="70" y="60" width="10" height="10" rx="1.459"/><rect class="cls-2" x="80" y="60" width="10" height="10" rx="1.459"/><rect class="cls-2" x="70" y="50" width="10" height="10" rx="1.459"/><rect class="cls-2" x="80" y="50" width="10" height="10" rx="1.459"/><rect class="cls-2" x="70" y="40" width="10" height="10" rx="1.459"/><rect class="cls-2" x="80" y="40" width="10" height="10" rx="1.459"/><rect class="cls-2" x="70" y="30" width="10" height="10" rx="1.459"/><rect class="cls-2" x="80" y="30" width="10" height="10" rx="1.459"/><rect class="cls-2" x="80" y="20" width="10" height="10" rx="1.459"/><rect class="cls-2" x="10" y="20" width="10" height="10" rx="1.459"/><rect class="cls-2" x="20" y="20" width="10" height="10" rx="1.459"/><rect class="cls-2" x="30" y="20" width="10" height="10" rx="1.459"/><rect class="cls-2" x="10" y="30" width="10" height="10" rx="1.459"/><rect class="cls-2" x="20" y="30" width="10" height="10" rx="1.459"/><rect class="cls-2" x="30" y="30" width="10" height="10" rx="1.459"/><rect class="cls-2" x="10" y="40" width="10" height="10" rx="1.459"/><rect class="cls-2" x="20" y="40" width="10" height="10" rx="1.459"/><rect class="cls-2" x="30" y="40" width="10" height="10" rx="1.459"/><rect class="cls-2" x="10" y="50" width="10" height="10" rx="1.459"/><rect class="cls-2" x="20" y="50" width="10" height="10" rx="1.459"/><rect class="cls-2" x="30" y="50" width="10" height="10" rx="1.459"/><rect class="cls-2" x="10" y="60" width="10" height="10" rx="1.459"/><rect class="cls-2" x="20" y="60" width="10" height="10" rx="1.459"/><rect class="cls-2" x="30" y="60" width="10" height="10" rx="1.459"/><rect class="cls-2" x="10" y="70" width="10" height="10" rx="1.459"/><rect class="cls-2" x="20" y="70" width="10" height="10" rx="1.459"/><rect class="cls-2" x="30" y="70" width="10" height="10" rx="1.459"/><rect class="cls-2" x="10" y="80" width="10" height="10" rx="1.459"/><rect class="cls-2" x="20" y="80" width="10" height="10" rx="1.459"/><rect class="cls-2" x="30" y="80" width="10" height="10" rx="1.459"/><rect class="cls-2" x="10" y="90" width="10" height="10" rx="1.459"/><rect class="cls-2" x="20" y="90" width="10" height="10" rx="1.459"/><rect class="cls-2" x="30" y="90" width="10" height="10" rx="1.459"/><rect class="cls-2" x="10" y="100" width="10" height="10" rx="1.459"/><rect class="cls-2" x="20" y="100" width="10" height="10" rx="1.459"/><rect class="cls-2" x="30" y="100" width="10" height="10" rx="1.459"/><rect class="cls-2" x="10" y="110" width="10" height="10" rx="1.459"/><rect class="cls-2" x="20" y="110" width="10" height="10" rx="1.459"/><rect class="cls-2" x="30" y="110" width="10" height="10" rx="1.459"/><rect class="cls-2" x="10" y="120" width="10" height="10" rx="1.459"/><rect class="cls-2" x="20" y="120" width="10" height="10" rx="1.459"/><rect class="cls-2" x="30" y="120" width="10" height="10" rx="1.459"/><rect class="cls-2" x="10" y="130" width="10" height="10" rx="1.459"/><rect class="cls-2" x="20" y="130" width="10" height="10" rx="1.459"/><rect class="cls-2" x="30" y="130" width="10" height="10" rx="1.459"/><rect class="cls-2" x="10" y="140" width="10" height="10" rx="1.459"/><rect class="cls-2" x="20" y="140" width="10" height="10" rx="1.459"/><rect class="cls-2" x="30" y="140" width="10" height="10" rx="1.459"/><rect class="cls-2" x="10" y="150" width="10" height="10" rx="1.459"/><rect class="cls-2" x="20" y="150" width="10" height="10" rx="1.459"/><rect class="cls-2" x="30" y="150" width="10" height="10" rx="1.459"/><rect class="cls-2" x="10" y="160" width="10" height="10" rx="1.459"/><rect class="cls-2" x="20" y="160" width="10" height="10" rx="1.459"/><rect class="cls-2" x="30" y="160" width="10" height="10" rx="1.459"/><rect class="cls-2" x="10" y="170" width="10" height="10" rx="1.459"/><rect class="cls-2" x="20" y="170" width="10" height="10" rx="1.459"/><rect class="cls-2" x="120" y="120" width="10" height="10" rx="1.459"/><rect class="cls-2" x="130" y="120" width="10" height="10" rx="1.459"/><rect class="cls-2" x="120" y="130" width="10" height="10" rx="1.459"/><rect class="cls-2" x="130" y="130" width="10" height="10" rx="1.459"/><rect class="cls-2" x="140" y="100" width="10" height="10" rx="1.459"/><rect class="cls-2" x="130" y="110" width="10" height="10" rx="1.459"/><rect class="cls-2" x="150" y="100" width="10" height="10" rx="1.459"/><rect class="cls-2" x="140" y="110" width="10" height="10" rx="1.459"/><rect class="cls-2" x="150" y="110" width="10" height="10" rx="1.459"/><rect class="cls-2" x="140" y="120" width="10" height="10" rx="1.459"/><rect class="cls-2" x="160" y="80" width="10" height="10" rx="1.459"/><rect class="cls-2" x="170" y="80" width="10" height="10" rx="1.459"/><rect class="cls-2" x="160" y="90" width="10" height="10" rx="1.459"/><rect class="cls-2" x="170" y="90" width="10" height="10" rx="1.459"/><rect class="cls-2" x="120" y="140" width="10" height="10" rx="1.459"/><rect class="cls-2" x="130" y="140" width="10" height="10" rx="1.459"/><rect class="cls-2" x="120" y="150" width="10" height="10" rx="1.459"/><rect class="cls-2" x="130" y="150" width="10" height="10" rx="1.459"/><rect class="cls-2" x="140" y="140" width="10" height="10" rx="1.459"/><rect class="cls-2" x="150" y="140" width="10" height="10" rx="1.459"/><rect class="cls-2" x="140" y="150" width="10" height="10" rx="1.459"/><rect class="cls-2" x="150" y="150" width="10" height="10" rx="1.459"/><rect class="cls-2" x="160" y="140" width="10" height="10" rx="1.459"/><rect class="cls-2" x="170" y="140" width="10" height="10" rx="1.459"/><rect class="cls-2" x="160" y="150" width="10" height="10" rx="1.459"/><rect class="cls-2" x="170" y="150" width="10" height="10" rx="1.459"/><rect class="cls-2" x="180" y="140" width="10" height="10" rx="1.459"/><rect class="cls-2" x="190" y="140" width="10" height="10" rx="1.459"/><rect class="cls-2" x="180" y="150" width="10" height="10" rx="1.459"/><rect class="cls-2" x="190" y="150" width="10" height="10" rx="1.459"/><rect class="cls-2" x="120" y="160" width="10" height="10" rx="1.459"/><rect class="cls-2" x="130" y="160" width="10" height="10" rx="1.459"/><rect class="cls-2" x="120" y="170" width="10" height="10" rx="1.459"/><rect class="cls-2" x="130" y="170" width="10" height="10" rx="1.459"/><rect class="cls-2" x="470" y="530" width="10" height="10" rx="1.459" transform="translate(690 660) rotate(-180)"/><rect class="cls-2" x="460" y="530" width="10" height="10" rx="1.459" transform="translate(670 660) rotate(-180)"/><rect class="cls-2" x="460" y="520" width="10" height="10" rx="1.459" transform="translate(670 640) rotate(-180)"/><rect class="cls-2" x="450" y="530" width="10" height="10" rx="1.459" transform="translate(650 660) rotate(-180)"/><rect class="cls-2" x="470" y="540" width="10" height="10" rx="1.459" transform="translate(690 680) rotate(-180)"/><rect class="cls-2" x="460" y="540" width="10" height="10" rx="1.459" transform="translate(670 680) rotate(-180)"/><rect class="cls-2" x="450" y="510" width="10" height="10" rx="1.459" transform="translate(650 620) rotate(-180)"/><rect class="cls-2" x="440" y="500" width="10" height="10" rx="1.459" transform="translate(630 600) rotate(-180)"/><rect class="cls-2" x="420" y="510" width="10" height="10" rx="1.459" transform="translate(590 620) rotate(-180)"/><rect class="cls-2" x="430" y="510" width="10" height="10" rx="1.459" transform="translate(610 620) rotate(-180)"/><rect class="cls-2" x="440" y="510" width="10" height="10" rx="1.459" transform="translate(630 620) rotate(-180)"/><rect class="cls-2" x="410" y="500" width="10" height="10" rx="1.459" transform="translate(570 600) rotate(-180)"/><rect class="cls-2" x="450" y="520" width="10" height="10" rx="1.459" transform="translate(650 640) rotate(-180)"/><rect class="cls-2" x="440" y="520" width="10" height="10" rx="1.459" transform="translate(630 640) rotate(-180)"/><rect class="cls-2" x="470" y="550" width="10" height="10" rx="1.459" transform="translate(690 700) rotate(-180)"/><rect class="cls-2" x="460" y="550" width="10" height="10" rx="1.459" transform="translate(670 700) rotate(-180)"/><rect class="cls-2" x="470" y="560" width="10" height="10" rx="1.459" transform="translate(690 720) rotate(-180)"/><rect class="cls-2" x="460" y="560" width="10" height="10" rx="1.459" transform="translate(670 720) rotate(-180)"/><rect class="cls-2" x="470" y="570" width="10" height="10" rx="1.459" transform="translate(690 740) rotate(-180)"/><rect class="cls-2" x="460" y="570" width="10" height="10" rx="1.459" transform="translate(670 740) rotate(-180)"/><rect class="cls-2" x="470" y="580" width="10" height="10" rx="1.459" transform="translate(690 760) rotate(-180)"/><rect class="cls-2" x="460" y="580" width="10" height="10" rx="1.459" transform="translate(670 760) rotate(-180)"/><rect class="cls-2" x="540" y="570" width="10" height="10" rx="1.459" transform="translate(830 740) rotate(-180)"/><rect class="cls-2" x="530" y="570" width="10" height="10" rx="1.459" transform="translate(810 740) rotate(-180)"/><rect class="cls-2" x="540" y="580" width="10" height="10" rx="1.459" transform="translate(830 760) rotate(-180)"/><rect class="cls-2" x="530" y="580" width="10" height="10" rx="1.459" transform="translate(810 760) rotate(-180)"/><rect class="cls-2" x="520" y="570" width="10" height="10" rx="1.459" transform="translate(790 740) rotate(-180)"/><rect class="cls-2" x="510" y="570" width="10" height="10" rx="1.459" transform="translate(770 740) rotate(-180)"/><rect class="cls-2" x="520" y="580" width="10" height="10" rx="1.459" transform="translate(790 760) rotate(-180)"/><rect class="cls-2" x="510" y="580" width="10" height="10" rx="1.459" transform="translate(770 760) rotate(-180)"/><rect class="cls-2" x="500" y="570" width="10" height="10" rx="1.459" transform="translate(750 740) rotate(-180)"/><rect class="cls-2" x="570" y="500" width="10" height="10" rx="1.459" transform="translate(890 600) rotate(-180)"/><rect class="cls-2" x="560" y="570" width="10" height="10" rx="1.459" transform="translate(870 740) rotate(-180)"/><rect class="cls-2" x="550" y="570" width="10" height="10" rx="1.459" transform="translate(850 740) rotate(-180)"/><rect class="cls-2" x="560" y="580" width="10" height="10" rx="1.459" transform="translate(870 760) rotate(-180)"/><rect class="cls-2" x="550" y="580" width="10" height="10" rx="1.459" transform="translate(850 760) rotate(-180)"/><rect class="cls-2" x="610" y="560" width="10" height="10" rx="1.459" transform="translate(-210 770) rotate(-90)"/><rect class="cls-2" x="610" y="550" width="10" height="10" rx="1.459" transform="translate(-200 760) rotate(-90)"/><rect class="cls-2" x="600" y="560" width="10" height="10" rx="1.459" transform="translate(-220 760) rotate(-90)"/><rect class="cls-2" x="600" y="550" width="10" height="10" rx="1.459" transform="translate(-210 750) rotate(-90)"/><rect class="cls-2" x="610" y="540" width="10" height="10" rx="1.459" transform="translate(-190 750) rotate(-90)"/><rect class="cls-2" x="610" y="530" width="10" height="10" rx="1.459" transform="translate(-180 740) rotate(-90)"/><rect class="cls-2" x="600" y="540" width="10" height="10" rx="1.459" transform="translate(-200 740) rotate(-90)"/><rect class="cls-2" x="600" y="530" width="10" height="10" rx="1.459" transform="translate(-190 730) rotate(-90)"/><rect class="cls-2" x="610" y="520" width="10" height="10" rx="1.459" transform="translate(-170 730) rotate(-90)"/><rect class="cls-2" x="600" y="520" width="10" height="10" rx="1.459" transform="translate(-180 720) rotate(-90)"/><rect class="cls-2" x="610" y="500" width="10" height="10" rx="1.459" transform="translate(-150 710) rotate(-90)"/><rect class="cls-2" x="600" y="500" width="10" height="10" rx="1.459" transform="translate(-160 700) rotate(-90)"/><rect class="cls-2" x="610" y="490" width="10" height="10" rx="1.459" transform="translate(-140 700) rotate(-90)"/><rect class="cls-2" x="600" y="490" width="10" height="10" rx="1.459" transform="translate(-150 690) rotate(-90)"/><rect class="cls-2" x="610" y="580" width="10" height="10" rx="1.459" transform="translate(-230 790) rotate(-90)"/><rect class="cls-2" x="610" y="570" width="10" height="10" rx="1.459" transform="translate(-220 780) rotate(-90)"/><rect class="cls-2" x="600" y="580" width="10" height="10" rx="1.459" transform="translate(-240 780) rotate(-90)"/><rect class="cls-2" x="600" y="570" width="10" height="10" rx="1.459" transform="translate(-230 770) rotate(-90)"/><rect class="cls-2" x="640" y="540" width="10" height="10" rx="1.459" transform="translate(-160 780) rotate(-90)"/><rect class="cls-2" x="640" y="530" width="10" height="10" rx="1.459" transform="translate(-150 770) rotate(-90)"/><rect class="cls-2" x="630" y="540" width="10" height="10" rx="1.459" transform="translate(-170 770) rotate(-90)"/><rect class="cls-2" x="630" y="530" width="10" height="10" rx="1.459" transform="translate(-160 760) rotate(-90)"/><rect class="cls-2" x="640" y="520" width="10" height="10" rx="1.459" transform="translate(-140 760) rotate(-90)"/><rect class="cls-2" x="640" y="510" width="10" height="10" rx="1.459" transform="translate(-130 750) rotate(-90)"/><rect class="cls-2" x="650" y="510" width="10" height="10" rx="1.459" transform="translate(-120 760) rotate(-90)"/><rect class="cls-2" x="640" y="500" width="10" height="10" rx="1.459" transform="translate(-120 740) rotate(-90)"/><rect class="cls-2" x="630" y="520" width="10" height="10" rx="1.459" transform="translate(-150 750) rotate(-90)"/><rect class="cls-2" x="630" y="510" width="10" height="10" rx="1.459" transform="translate(-140 740) rotate(-90)"/><rect class="cls-2" x="640" y="560" width="10" height="10" rx="1.459" transform="translate(-180 800) rotate(-90)"/><rect class="cls-2" x="650" y="560" width="10" height="10" rx="1.459" transform="translate(-170 810) rotate(-90)"/><rect class="cls-2" x="640" y="550" width="10" height="10" rx="1.459" transform="translate(-170 790) rotate(-90)"/><rect class="cls-2" x="630" y="560" width="10" height="10" rx="1.459" transform="translate(-190 790) rotate(-90)"/><rect class="cls-2" x="630" y="550" width="10" height="10" rx="1.459" transform="translate(-180 780) rotate(-90)"/><rect class="cls-2" x="410" y="170" width="10" height="10" rx="1.459"/><rect class="cls-2" x="420" y="170" width="10" height="10" rx="1.459"/><rect class="cls-2" x="410" y="160" width="10" height="10" rx="1.459"/><rect class="cls-2" x="380" y="160" width="10" height="10" rx="1.459"/><rect class="cls-2" x="420" y="160" width="10" height="10" rx="1.459"/><rect class="cls-2" x="430" y="170" width="10" height="10" rx="1.459"/><rect class="cls-2" x="440" y="170" width="10" height="10" rx="1.459"/><rect class="cls-2" x="430" y="160" width="10" height="10" rx="1.459"/><rect class="cls-2" x="440" y="160" width="10" height="10" rx="1.459"/><rect class="cls-2" x="440" y="150" width="10" height="10" rx="1.459"/><rect class="cls-2" x="390" y="170" width="10" height="10" rx="1.459"/><rect class="cls-2" x="400" y="170" width="10" height="10" rx="1.459"/><rect class="cls-2" x="390" y="160" width="10" height="10" rx="1.459"/><rect class="cls-2" x="400" y="160" width="10" height="10" rx="1.459"/><rect class="cls-2" x="410" y="90" width="10" height="10" rx="1.459"/><rect class="cls-2" x="420" y="90" width="10" height="10" rx="1.459"/><rect class="cls-2" x="410" y="80" width="10" height="10" rx="1.459"/><rect class="cls-2" x="420" y="80" width="10" height="10" rx="1.459"/><rect class="cls-2" x="430" y="90" width="10" height="10" rx="1.459"/><rect class="cls-2" x="440" y="90" width="10" height="10" rx="1.459"/><rect class="cls-2" x="430" y="80" width="10" height="10" rx="1.459"/><rect class="cls-2" x="440" y="80" width="10" height="10" rx="1.459"/><rect class="cls-2" x="450" y="110" width="10" height="10" rx="1.459"/><rect class="cls-2" x="460" y="110" width="10" height="10" rx="1.459"/><rect class="cls-2" x="450" y="100" width="10" height="10" rx="1.459"/><rect class="cls-2" x="440" y="100" width="10" height="10" rx="1.459"/><rect class="cls-2" x="460" y="100" width="10" height="10" rx="1.459"/><rect class="cls-2" x="450" y="90" width="10" height="10" rx="1.459"/><rect class="cls-2" x="450" y="150" width="10" height="10" rx="1.459"/><rect class="cls-2" x="460" y="150" width="10" height="10" rx="1.459"/><rect class="cls-2" x="450" y="160" width="10" height="10" rx="1.459"/><rect class="cls-2" x="450" y="140" width="10" height="10" rx="1.459"/><rect class="cls-2" x="460" y="140" width="10" height="10" rx="1.459"/><rect class="cls-2" x="390" y="90" width="10" height="10" rx="1.459"/><rect class="cls-2" x="400" y="90" width="10" height="10" rx="1.459"/><rect class="cls-2" x="390" y="80" width="10" height="10" rx="1.459"/><rect class="cls-2" x="400" y="80" width="10" height="10" rx="1.459"/><rect class="cls-2" x="540" y="530" width="10" height="10" rx="1.459" transform="translate(830 660) rotate(-180)"/><rect class="cls-2" x="530" y="530" width="10" height="10" rx="1.459" transform="translate(810 660) rotate(-180)"/><rect class="cls-2" x="540" y="540" width="10" height="10" rx="1.459" transform="translate(830 680) rotate(-180)"/><rect class="cls-2" x="570" y="500" width="10" height="10" rx="1.459" transform="translate(890 600) rotate(-180)"/><rect class="cls-2" x="530" y="540" width="10" height="10" rx="1.459" transform="translate(810 680) rotate(-180)"/><rect class="cls-2" x="520" y="530" width="10" height="10" rx="1.459" transform="translate(790 660) rotate(-180)"/><rect class="cls-2" x="510" y="530" width="10" height="10" rx="1.459" transform="translate(770 660) rotate(-180)"/><rect class="cls-2" x="520" y="540" width="10" height="10" rx="1.459" transform="translate(790 680) rotate(-180)"/><rect class="cls-2" x="510" y="540" width="10" height="10" rx="1.459" transform="translate(770 680) rotate(-180)"/><rect class="cls-2" x="560" y="530" width="10" height="10" rx="1.459" transform="translate(870 660) rotate(-180)"/><rect class="cls-2" x="570" y="540" width="10" height="10" rx="1.459" transform="translate(890 680) rotate(-180)"/><rect class="cls-2" x="550" y="530" width="10" height="10" rx="1.459" transform="translate(850 660) rotate(-180)"/><rect class="cls-2" x="560" y="540" width="10" height="10" rx="1.459" transform="translate(870 680) rotate(-180)"/><rect class="cls-2" x="550" y="540" width="10" height="10" rx="1.459" transform="translate(850 680) rotate(-180)"/><rect class="cls-2" x="540" y="490" width="10" height="10" rx="1.459" transform="translate(830 580) rotate(-180)"/><rect class="cls-2" x="530" y="490" width="10" height="10" rx="1.459" transform="translate(810 580) rotate(-180)"/><rect class="cls-2" x="540" y="500" width="10" height="10" rx="1.459" transform="translate(830 600) rotate(-180)"/><rect class="cls-2" x="530" y="500" width="10" height="10" rx="1.459" transform="translate(810 600) rotate(-180)"/><rect class="cls-2" x="520" y="490" width="10" height="10" rx="1.459" transform="translate(790 580) rotate(-180)"/><rect class="cls-2" x="510" y="490" width="10" height="10" rx="1.459" transform="translate(770 580) rotate(-180)"/><rect class="cls-2" x="520" y="500" width="10" height="10" rx="1.459" transform="translate(790 600) rotate(-180)"/><rect class="cls-2" x="510" y="500" width="10" height="10" rx="1.459" transform="translate(770 600) rotate(-180)"/><rect class="cls-2" x="500" y="500" width="10" height="10" rx="1.459" transform="translate(750 600) rotate(-180)"/><rect class="cls-2" x="560" y="490" width="10" height="10" rx="1.459" transform="translate(870 580) rotate(-180)"/><rect class="cls-2" x="550" y="490" width="10" height="10" rx="1.459" transform="translate(850 580) rotate(-180)"/><rect class="cls-2" x="560" y="500" width="10" height="10" rx="1.459" transform="translate(870 600) rotate(-180)"/><rect class="cls-2" x="550" y="500" width="10" height="10" rx="1.459" transform="translate(850 600) rotate(-180)"/><rect class="cls-2" x="500" y="510" width="10" height="10" rx="1.459" transform="translate(750 620) rotate(-180)"/><rect class="cls-2" x="490" y="510" width="10" height="10" rx="1.459" transform="translate(730 620) rotate(-180)"/><rect class="cls-2" x="500" y="520" width="10" height="10" rx="1.459" transform="translate(750 640) rotate(-180)"/><rect class="cls-2" x="500" y="530" width="10" height="10" rx="1.459" transform="translate(750 660) rotate(-180)"/><rect class="cls-2" x="490" y="520" width="10" height="10" rx="1.459" transform="translate(730 640) rotate(-180)"/><rect class="cls-2" x="580" y="550" width="10" height="10" rx="1.459" transform="translate(910 700) rotate(-180)"/><rect class="cls-2" x="570" y="550" width="10" height="10" rx="1.459" transform="translate(890 700) rotate(-180)"/><rect class="cls-2" x="580" y="560" width="10" height="10" rx="1.459" transform="translate(910 720) rotate(-180)"/><rect class="cls-2" x="570" y="560" width="10" height="10" rx="1.459" transform="translate(890 720) rotate(-180)"/><rect class="cls-2" x="570" y="570" width="10" height="10" rx="1.459" transform="translate(890 740) rotate(-180)"/><rect class="cls-2" x="30" y="170" width="10" height="10" rx="1.459"/><rect class="cls-2" x="60" y="150" width="10" height="10" rx="1.459"/><rect class="cls-2" x="40" y="160" width="10" height="10" rx="1.459"/><rect class="cls-2" x="50" y="160" width="10" height="10" rx="1.459"/><rect class="cls-2" x="60" y="160" width="10" height="10" rx="1.459"/><rect class="cls-2" x="40" y="170" width="10" height="10" rx="1.459"/><rect class="cls-2" x="50" y="170" width="10" height="10" rx="1.459"/><rect class="cls-2" x="60" y="170" width="10" height="10" rx="1.459"/><rect class="cls-2" x="70" y="140" width="10" height="10" rx="1.459"/><rect class="cls-2" x="80" y="140" width="10" height="10" rx="1.459"/><rect class="cls-2" x="60" y="150" width="10" height="10" rx="1.459"/><rect class="cls-2" x="70" y="150" width="10" height="10" rx="1.459"/><rect class="cls-2" x="90" y="150" width="10" height="10" rx="1.459"/><rect class="cls-2" x="80" y="150" width="10" height="10" rx="1.459"/><rect class="cls-2" x="60" y="160" width="10" height="10" rx="1.459"/><rect class="cls-2" x="70" y="160" width="10" height="10" rx="1.459"/><rect class="cls-2" x="80" y="160" width="10" height="10" rx="1.459"/><rect class="cls-2" x="70" y="170" width="10" height="10" rx="1.459"/><rect class="cls-2" x="60" y="70" width="10" height="10" rx="1.459"/><rect class="cls-2" x="60" y="80" width="10" height="10" rx="1.459"/><rect class="cls-2" x="70" y="80" width="10" height="10" rx="1.459"/><rect class="cls-2" x="80" y="80" width="10" height="10" rx="1.459"/><rect class="cls-2" x="60" y="90" width="10" height="10" rx="1.459"/><rect class="cls-2" x="70" y="90" width="10" height="10" rx="1.459"/><rect class="cls-2" x="80" y="90" width="10" height="10" rx="1.459"/><rect class="cls-2" x="60" y="60" width="10" height="10" rx="1.459"/><rect class="cls-2" x="70" y="70" width="10" height="10" rx="1.459"/><rect class="cls-2" x="40" y="70" width="10" height="10" rx="1.459"/><rect class="cls-2" x="50" y="70" width="10" height="10" rx="1.459"/><rect class="cls-2" x="60" y="70" width="10" height="10" rx="1.459"/><rect class="cls-2" x="40" y="80" width="10" height="10" rx="1.459"/><rect class="cls-2" x="50" y="80" width="10" height="10" rx="1.459"/><rect class="cls-2" x="60" y="70" width="10" height="10" rx="1.459"/><rect class="cls-2" x="80" y="110" width="10" height="10" rx="1.459"/><rect class="cls-2" x="90" y="110" width="10" height="10" rx="1.459"/><rect class="cls-2" x="100" y="110" width="10" height="10" rx="1.459"/><rect class="cls-2" x="80" y="100" width="10" height="10" rx="1.459"/><rect class="cls-2" x="70" y="100" width="10" height="10" rx="1.459"/><rect class="cls-2" x="90" y="100" width="10" height="10" rx="1.459"/><rect class="cls-2" x="90" y="90" width="10" height="10" rx="1.459"/><rect class="cls-2" x="100" y="100" width="10" height="10" rx="1.459"/><rect class="cls-2" x="80" y="120" width="10" height="10" rx="1.459"/><rect class="cls-2" x="90" y="120" width="10" height="10" rx="1.459"/><rect class="cls-2" x="100" y="120" width="10" height="10" rx="1.459"/><rect class="cls-2" x="80" y="130" width="10" height="10" rx="1.459"/><rect class="cls-2" x="90" y="130" width="10" height="10" rx="1.459"/><rect class="cls-2" x="100" y="130" width="10" height="10" rx="1.459"/><rect class="cls-2" x="90" y="140" width="10" height="10" rx="1.459"/><rect class="cls-2" x="100" y="140" width="10" height="10" rx="1.459"/><rect class="cls-2" x="405" y="620" width="10" height="10" rx="1.459" transform="translate(560 840) rotate(-180)"/><rect class="cls-2" x="415" y="620" width="10" height="10" rx="1.459" transform="translate(580 840) rotate(-180)"/><rect class="cls-2" x="425" y="620" width="10" height="10" rx="1.459" transform="translate(600 840) rotate(-180)"/><rect class="cls-2" x="415" y="650" width="10" height="10" rx="1.459" transform="translate(580 900) rotate(-180)"/><rect class="cls-2" x="425" y="650" width="10" height="10" rx="1.459" transform="translate(600 900) rotate(-180)"/><rect class="cls-2" x="465" y="670" width="10" height="10" rx="1.459" transform="translate(680 940) rotate(-180)"/><rect class="cls-2" x="475" y="670" width="10" height="10" rx="1.459" transform="translate(700 940) rotate(-180)"/><rect class="cls-2" x="435" y="630" width="10" height="10" rx="1.459" transform="translate(620 860) rotate(-180)"/><rect class="cls-2" x="435" y="640" width="10" height="10" rx="1.459" transform="translate(620 880) rotate(-180)"/><rect class="cls-2" x="405" y="630" width="10" height="10" rx="1.459" transform="translate(560 860) rotate(-180)"/><rect class="cls-2" x="405" y="640" width="10" height="10" rx="1.459" transform="translate(560 880) rotate(-180)"/><rect class="cls-2" x="405" y="650" width="10" height="10" rx="1.459" transform="translate(560 900) rotate(-180)"/><rect class="cls-2" x="405" y="660" width="10" height="10" rx="1.459" transform="translate(560 920) rotate(-180)"/><rect class="cls-2" x="555" y="620" width="10" height="10" rx="1.459" transform="translate(860 840) rotate(-180)"/><rect class="cls-2" x="555" y="630" width="10" height="10" rx="1.459" transform="translate(860 860) rotate(-180)"/><rect class="cls-2" x="555" y="640" width="10" height="10" rx="1.459" transform="translate(860 880) rotate(-180)"/><rect class="cls-2" x="555" y="650" width="10" height="10" rx="1.459" transform="translate(860 900) rotate(-180)"/><rect class="cls-2" x="555" y="660" width="10" height="10" rx="1.459" transform="translate(860 920) rotate(-180)"/><rect class="cls-2" x="555" y="670" width="10" height="10" rx="1.459" transform="translate(860 940) rotate(-180)"/><rect class="cls-2" x="455" y="650" width="10" height="10" rx="1.459" transform="translate(660 900) rotate(-180)"/><rect class="cls-2" x="455" y="660" width="10" height="10" rx="1.459" transform="translate(660 920) rotate(-180)"/><rect class="cls-2" x="485" y="620" width="10" height="10" rx="1.459" transform="translate(720 840) rotate(-180)"/><rect class="cls-2" x="485" y="630" width="10" height="10" rx="1.459" transform="translate(720 860) rotate(-180)"/><rect class="cls-2" x="485" y="640" width="10" height="10" rx="1.459" transform="translate(720 880) rotate(-180)"/><rect class="cls-2" x="455" y="620" width="10" height="10" rx="1.459" transform="translate(660 840) rotate(-180)"/><rect class="cls-2" x="455" y="630" width="10" height="10" rx="1.459" transform="translate(660 860) rotate(-180)"/><rect class="cls-2" x="455" y="640" width="10" height="10" rx="1.459" transform="translate(660 880) rotate(-180)"/><rect class="cls-2" x="485" y="650" width="10" height="10" rx="1.459" transform="translate(720 900) rotate(-180)"/><rect class="cls-2" x="485" y="660" width="10" height="10" rx="1.459" transform="translate(720 920) rotate(-180)"/><rect class="cls-2" x="405" y="670" width="10" height="10" rx="1.459" transform="translate(560 940) rotate(-180)"/><rect class="cls-2" x="505" y="620" width="10" height="10" rx="1.459" transform="translate(760 840) rotate(-180)"/><rect class="cls-2" x="515" y="620" width="10" height="10" rx="1.459" transform="translate(780 840) rotate(-180)"/><rect class="cls-2" x="525" y="620" width="10" height="10" rx="1.459" transform="translate(800 840) rotate(-180)"/><rect class="cls-2" x="515" y="650" width="10" height="10" rx="1.459" transform="translate(780 900) rotate(-180)"/><rect class="cls-2" x="525" y="650" width="10" height="10" rx="1.459" transform="translate(800 900) rotate(-180)"/><rect class="cls-2" x="575" y="670" width="10" height="10" rx="1.459" transform="translate(900 940) rotate(-180)"/><rect class="cls-2" x="565" y="670" width="10" height="10" rx="1.459" transform="translate(880 940) rotate(-180)"/><rect class="cls-2" x="585" y="670" width="10" height="10" rx="1.459" transform="translate(920 940) rotate(-180)"/><rect class="cls-2" x="575" y="620" width="10" height="10" rx="1.459" transform="translate(900 840) rotate(-180)"/><rect class="cls-2" x="565" y="620" width="10" height="10" rx="1.459" transform="translate(880 840) rotate(-180)"/><rect class="cls-2" x="585" y="620" width="10" height="10" rx="1.459" transform="translate(920 840) rotate(-180)"/><rect class="cls-2" x="575" y="645" width="10" height="10" rx="1.459" transform="translate(900 890) rotate(-180)"/><rect class="cls-2" x="565" y="645" width="10" height="10" rx="1.459" transform="translate(880 890) rotate(-180)"/><rect class="cls-2" x="585" y="645" width="10" height="10" rx="1.459" transform="translate(920 890) rotate(-180)"/><rect class="cls-2" x="535" y="630" width="10" height="10" rx="1.459" transform="translate(820 860) rotate(-180)"/><rect class="cls-2" x="535" y="640" width="10" height="10" rx="1.459" transform="translate(820 880) rotate(-180)"/><rect class="cls-2" x="535" y="660" width="10" height="10" rx="1.459" transform="translate(820 920) rotate(-180)"/><rect class="cls-2" x="535" y="670" width="10" height="10" rx="1.459" transform="translate(820 940) rotate(-180)"/><rect class="cls-2" x="505" y="630" width="10" height="10" rx="1.459" transform="translate(760 860) rotate(-180)"/><rect class="cls-2" x="505" y="640" width="10" height="10" rx="1.459" transform="translate(760 880) rotate(-180)"/><rect class="cls-2" x="505" y="650" width="10" height="10" rx="1.459" transform="translate(760 900) rotate(-180)"/><rect class="cls-2" x="505" y="660" width="10" height="10" rx="1.459" transform="translate(760 920) rotate(-180)"/><rect class="cls-2" x="505" y="670" width="10" height="10" rx="1.459" transform="translate(760 940) rotate(-180)"/></svg>