<svg id="Main" xmlns="http://www.w3.org/2000/svg" viewBox="0 0 423.58 261.792"><defs><style>.cls-1{fill:#366ce1;}.cls-2{fill:#121221;}</style></defs><title>r</title><path class="cls-1" d="M655.411,574.512a32.206,32.206,0,0,1-2.269,11.8H623.105a50,50,0,0,0-48.585-61.793C619.2,524.517,655.411,546.905,655.411,574.512Z" transform="translate(-288.21 -369.104)"/><path class="cls-1" d="M638.405,474.52a49.993,49.993,0,0,1-49.995,49.994h-16.1a49.995,49.995,0,0,0,0-99.989h16.1A50,50,0,0,1,638.405,474.52Z" transform="translate(-288.21 -369.104)"/><path class="cls-1" d="M584.406,522.752A534.625,534.625,0,0,1,580.7,586.3H547.68a310.82,310.82,0,0,0,5.829-61.363c0-28.217-3.409-54.344-9.219-75.722-1.24-4.579-2.59-8.939-4.039-13.049a49.744,49.744,0,0,1,32.066-11.648c.97,0,1.94.03,2.9.09q1.59,7.978,2.93,16.348A520.653,520.653,0,0,1,584.406,522.752Z" transform="translate(-288.21 -369.104)"/><path class="cls-1" d="M575.217,424.613c-.96-.06-1.93-.09-2.9-.09h2.88C575.207,424.553,575.207,424.583,575.217,424.613Z" transform="translate(-288.21 -369.104)"/><path class="cls-2" d="M500,369.1c-116.969,0-211.79,58.589-211.79,130.9,0,72.281,94.821,130.9,211.79,130.9S711.79,572.281,711.79,500C711.79,427.693,616.969,369.1,500,369.1Zm80.894,211.79A80.894,80.894,0,1,1,661.788,500,80.913,80.913,0,0,1,580.894,580.894Z" transform="translate(-288.21 -369.104)"/></svg>