<svg xmlns="http://www.w3.org/2000/svg" viewBox="0 0 1530.273 274.558"><defs><style>.cls-1{fill:#1c1c20;}.cls-2,.cls-4{fill:#121221;}.cls-3,.cls-5{fill:#366ce1;}.cls-4,.cls-5{opacity:0.62;}</style></defs><title>Programming</title><g id="Слой_2" data-name="Слой 2"><g id="Слой_3" data-name="Слой 3"><g id="Programming"><path class="cls-1" d="M118.817,28.388h5a2.5,2.5,0,0,1,2.5,2.5v137.5a0,0,0,0,1,0,0h-10a0,0,0,0,1,0,0V30.888a2.5,2.5,0,0,1,2.5-2.5Z" transform="translate(276.673 82.175) rotate(135)"/><path class="cls-2" d="M118.817,28.388h5a2.5,2.5,0,0,1,2.5,2.5v137.5a0,0,0,0,1,0,0h-10a0,0,0,0,1,0,0V30.888A2.5,2.5,0,0,1,118.817,28.388Z" transform="translate(276.673 82.175) rotate(135)"/><path class="cls-2" d="M118.817,106.17h5a2.5,2.5,0,0,1,2.5,2.5v137.5a0,0,0,0,1,0,0h-10a0,0,0,0,1,0,0V108.67A2.5,2.5,0,0,1,118.817,106.17Z" transform="translate(160.104 -34.185) rotate(45)"/><path class="cls-3" d="M118.817,106.17h5a2.5,2.5,0,0,1,2.5,2.5v137.5a0,0,0,0,1,0,0h-10a0,0,0,0,1,0,0V108.67a2.5,2.5,0,0,1,2.5-2.5Z" transform="translate(160.104 -34.185) rotate(45)"/><path class="cls-1" d="M98.64,50.208h10a5,5,0,0,1,5,5v155a0,0,0,0,1,0,0h-20a0,0,0,0,1,0,0v-155a5,5,0,0,1,5-5Z" transform="translate(268.995 148.995) rotate(135)"/><path class="cls-2" d="M98.64,50.208h10a5,5,0,0,1,5,5v155a0,0,0,0,1,0,0h-20a0,0,0,0,1,0,0v-155A5,5,0,0,1,98.64,50.208Z" transform="translate(268.995 148.995) rotate(135)"/><path class="cls-2" d="M98.64,64.35h10a5,5,0,0,1,5,5v155a0,0,0,0,1,0,0h-20a0,0,0,0,1,0,0v-155A5,5,0,0,1,98.64,64.35Z" transform="translate(132.426 -31.005) rotate(45)"/><path class="cls-3" d="M98.64,64.35h10a5,5,0,0,1,5,5v155a0,0,0,0,1,0,0h-20a0,0,0,0,1,0,0v-155a5,5,0,0,1,5-5Z" transform="translate(132.426 -31.005) rotate(45)"/><path class="cls-2" d="M-31.716,173.848h190a10,10,0,0,1,10,10v20a10,10,0,0,1-10,10h-150a40,40,0,0,1-40-40v0a0,0,0,0,1,0,0Z" transform="translate(157.071 8.492) rotate(45)"/><path class="cls-4" d="M-31.716,173.848h190a10,10,0,0,1,10,10v20a10,10,0,0,1-10,10h-150a40,40,0,0,1-40-40v0a0,0,0,0,1,0,0Z" transform="translate(157.071 8.492) rotate(45)"/><path class="cls-2" d="M8.284,60.711h150a10,10,0,0,1,10,10v20a10,10,0,0,1-10,10h-190a0,0,0,0,1,0,0v0A40,40,0,0,1,8.284,60.711Z" transform="translate(-37.071 71.924) rotate(-45)"/><path class="cls-3" d="M8.284,60.711h150a10,10,0,0,1,10,10v20a10,10,0,0,1-10,10h-190a0,0,0,0,1,0,0v0a40,40,0,0,1,40-40Z" transform="translate(-37.071 71.924) rotate(-45)"/><rect class="cls-1" x="123.388" y="65.459" width="10" height="80" transform="translate(293.744 89.246) rotate(135)"/><rect class="cls-2" x="123.388" y="65.459" width="10" height="80" transform="translate(293.744 89.246) rotate(135)"/><rect class="cls-1" x="65.355" y="61.924" width="20" height="80" transform="translate(200.711 120.71) rotate(135)"/><rect class="cls-2" x="65.355" y="61.924" width="20" height="80" transform="translate(200.711 120.71) rotate(135)"/><rect class="cls-2" x="95.104" y="157.383" width="10" height="80" transform="translate(168.891 -12.972) rotate(45)"/><rect class="cls-3" x="95.104" y="157.383" width="10" height="80" transform="translate(168.891 -12.972) rotate(45)"/><path class="cls-1" d="M1406.455,106.17h5a2.5,2.5,0,0,1,2.5,2.5v137.5a0,0,0,0,1,0,0h-10a0,0,0,0,1,0,0V108.67a2.5,2.5,0,0,1,2.5-2.5Z" transform="translate(288.102 1047.881) rotate(-45)"/><path class="cls-2" d="M1406.455,106.17h5a2.5,2.5,0,0,1,2.5,2.5v137.5a0,0,0,0,1,0,0h-10a0,0,0,0,1,0,0V108.67a2.5,2.5,0,0,1,2.5-2.5Z" transform="translate(288.102 1047.881) rotate(-45)"/><path class="cls-2" d="M1406.455,28.388h5a2.5,2.5,0,0,1,2.5,2.5v137.5a0,0,0,0,1,0,0h-10a0,0,0,0,1,0,0V30.888a2.5,2.5,0,0,1,2.5-2.5Z" transform="translate(2335.666 1164.241) rotate(-135)"/><path class="cls-3" d="M1406.455,28.388h5a2.5,2.5,0,0,1,2.5,2.5v137.5a0,0,0,0,1,0,0h-10a0,0,0,0,1,0,0V30.888a2.5,2.5,0,0,1,2.5-2.5Z" transform="translate(2335.666 1164.241) rotate(-135)"/><path class="cls-1" d="M1421.633,64.35h10a5,5,0,0,1,5,5v155a0,0,0,0,1,0,0h-20a0,0,0,0,1,0,0v-155a5,5,0,0,1,5-5Z" transform="translate(315.78 1051.061) rotate(-45)"/><path class="cls-2" d="M1421.633,64.35h10a5,5,0,0,1,5,5v155a0,0,0,0,1,0,0h-20a0,0,0,0,1,0,0v-155a5,5,0,0,1,5-5Z" transform="translate(315.78 1051.061) rotate(-45)"/><path class="cls-2" d="M1421.633,50.208h10a5,5,0,0,1,5,5v155a0,0,0,0,1,0,0h-20a0,0,0,0,1,0,0v-155a5,5,0,0,1,5-5Z" transform="translate(2343.344 1231.061) rotate(-135)"/><path class="cls-3" d="M1421.633,50.208h10a5,5,0,0,1,5,5v155a0,0,0,0,1,0,0h-20a0,0,0,0,1,0,0v-155a5,5,0,0,1,5-5Z" transform="translate(2343.344 1231.061) rotate(-135)"/><path class="cls-1" d="M1361.989,60.711h190a10,10,0,0,1,10,10v20a10,10,0,0,1-10,10h-150a40,40,0,0,1-40-40v0A0,0,0,0,1,1361.989,60.711Z" transform="translate(2438.699 1171.564) rotate(-135)"/><path class="cls-2" d="M1361.989,60.711h190a10,10,0,0,1,10,10v20a10,10,0,0,1-10,10h-150a40,40,0,0,1-40-40v0A0,0,0,0,1,1361.989,60.711Z" transform="translate(2438.699 1171.564) rotate(-135)"/><path class="cls-3" d="M1401.988,173.848h150a10,10,0,0,1,10,10v20a10,10,0,0,1-10,10h-190a0,0,0,0,1,0,0v0A40,40,0,0,1,1401.988,173.848Z" transform="translate(2632.842 -702.863) rotate(135)"/><path class="cls-5" d="M1401.988,173.848h150a10,10,0,0,1,10,10v20a10,10,0,0,1-10,10h-190a0,0,0,0,1,0,0v0a40,40,0,0,1,40-40Z" transform="translate(2632.842 -702.863) rotate(135)"/><rect class="cls-1" x="1396.884" y="129.099" width="10" height="80" transform="translate(291.031 1040.81) rotate(-45)"/><rect class="cls-2" x="1396.884" y="129.099" width="10" height="80" transform="translate(291.031 1040.81) rotate(-45)"/><rect class="cls-1" x="1444.917" y="132.635" width="20" height="80" transform="translate(304.064 1079.346) rotate(-45)"/><rect class="cls-2" x="1444.917" y="132.635" width="20" height="80" transform="translate(304.064 1079.346) rotate(-45)"/><rect class="cls-2" x="1425.169" y="37.175" width="10" height="80" transform="translate(2386.88 1143.028) rotate(-135)"/><rect class="cls-3" x="1425.169" y="37.175" width="10" height="80" transform="translate(2386.88 1143.028) rotate(-135)"/><polygon class="cls-2" points="1105.136 107.279 1105.136 167.279 1125.136 167.279 1125.136 187.279 1065.136 187.279 1065.136 167.279 1085.136 167.279 1085.136 107.279 1065.136 107.279 1065.136 87.279 1125.136 87.279 1125.136 107.279 1105.136 107.279"/><polygon class="cls-2" points="1235.136 87.279 1235.136 187.279 1215.136 187.279 1155.136 117.869 1155.136 187.279 1135.136 187.279 1135.136 87.279 1155.136 87.279 1215.136 156.689 1215.136 87.279 1235.136 87.279"/><polygon class="cls-2" points="945.136 87.279 945.136 187.279 925.136 187.279 925.136 117.869 908.336 137.329 895.126 152.639 881.916 137.329 865.136 117.899 865.136 187.279 845.136 187.279 845.136 87.279 865.136 87.279 865.136 87.289 895.126 122.029 925.116 87.279 945.136 87.279"/><polygon class="cls-2" points="1055.136 87.279 1055.136 187.279 1035.136 187.279 1035.136 117.869 1018.336 137.329 1005.126 152.639 991.916 137.329 975.136 117.899 975.136 187.279 955.136 187.279 955.136 87.279 975.136 87.279 975.136 87.289 1005.126 122.029 1035.116 87.279 1055.136 87.279"/><path class="cls-2" d="M395.136,117.279a30,30,0,0,0-30-30h-70v100h20v-40h50a10,10,0,0,1,10,10v30h20v-30a29.862,29.862,0,0,0-7.65-20A29.862,29.862,0,0,0,395.136,117.279Zm-80,10v-20h50a10,10,0,0,1,0,20Z"/><path class="cls-2" d="M725.136,117.279a30,30,0,0,0-30-30h-70v100h20v-40h50a10,10,0,0,1,10,10v30h20v-30a29.862,29.862,0,0,0-7.65-20A29.862,29.862,0,0,0,725.136,117.279Zm-80,10v-20h50a10,10,0,0,1,0,20Z"/><path class="cls-2" d="M455.136,87.279a50,50,0,1,0,50,50A50.005,50.005,0,0,0,455.136,87.279Zm0,80a30,30,0,1,1,30-30A30,30,0,0,1,455.136,167.279Z"/><path class="cls-2" d="M795.906,89.229l-.78-1.95h-19.98l-.78,1.94-39.23,98.06h21.55l11.2-28h34.5l11.2,28h21.55Zm-20.02,50.05,9.25-23.13,9.25,23.13Z"/><path class="cls-2" d="M615.136,127.279v10a49.16,49.16,0,0,1-1.01,10,50.013,50.013,0,1,1-13.64-45.35l-14.14,14.14a30,30,0,1,0,7.07,31.21h-28.28v-20Z"/><path class="cls-2" d="M1345.136,127.279v10a49.16,49.16,0,0,1-1.01,10,50.013,50.013,0,1,1-13.64-45.35l-14.14,14.14a30,30,0,1,0,7.07,31.21h-28.28v-20Z"/><path class="cls-2" d="M255.136,87.279h-70v100h20v-40h50a30,30,0,1,0,0-60Zm0,40h-50v-20h50a10,10,0,1,1,0,20Z"/></g></g></g></svg>