<svg xmlns="http://www.w3.org/2000/svg" viewBox="0 0 90 90"><defs><style>.cls-1{fill:#366ce1;}.cls-2{fill:#121221;}</style></defs><title>t1</title><g id="Слой_2" data-name="Слой 2"><g id="Слой_3" data-name="Слой 3"><g id="t1"><rect class="cls-1" x="10" y="10" width="10" height="70"/><rect class="cls-1" x="20" y="70" width="50" height="20"/><rect class="cls-1" y="30" width="20" height="40"/><rect class="cls-1" x="70" y="10" width="10" height="70"/><rect class="cls-1" x="70" y="30" width="20" height="40"/><rect class="cls-1" x="20" width="20" height="20"/><rect class="cls-1" x="30" y="10" width="20" height="10"/><rect class="cls-1" x="50" width="20" height="20"/><rect class="cls-1" x="40" y="10" width="10" height="70"/><polygon class="cls-2" points="40 20 40 70 20 70 20 30 30 30 30 20 40 20"/><rect class="cls-1" x="20" y="20" width="10" height="10"/><polygon class="cls-2" points="70 30 70 70 50 70 50 20 60 20 60 30 70 30"/><rect class="cls-1" x="60" y="20" width="10" height="10"/></g></g></g></svg>