<svg xmlns="http://www.w3.org/2000/svg" viewBox="0 0 110 110"><defs><style>.cls-1{fill:#121221;}</style></defs><title>t10</title><g id="Слой_2" data-name="Слой 2"><g id="Слой_3" data-name="Слой 3"><g id="t10"><rect class="cls-1" x="60" y="80" width="50" height="10" transform="translate(170 170) rotate(180)"/><rect class="cls-1" x="80" y="60" width="10" height="50" transform="translate(170 170) rotate(180)"/><rect class="cls-1" y="80" width="50" height="10" transform="translate(50 170) rotate(180)"/><rect class="cls-1" x="100" width="10" height="10" transform="translate(210 10) rotate(180)"/><rect class="cls-1" x="90" y="10" width="10" height="10" transform="translate(190 30) rotate(180)"/><rect class="cls-1" x="80" y="20" width="10" height="10" transform="translate(170 50) rotate(180)"/><rect class="cls-1" x="70" y="30" width="10" height="10" transform="translate(150 70) rotate(180)"/><rect class="cls-1" x="60" y="40" width="10" height="10" transform="translate(130 90) rotate(180)"/><rect class="cls-1" x="100" y="40" width="10" height="10" transform="translate(60 150) rotate(-90)"/><rect class="cls-1" x="90" y="30" width="10" height="10" transform="translate(60 130) rotate(-90)"/><rect class="cls-1" x="70" y="10" width="10" height="10" transform="translate(60 90) rotate(-90)"/><rect class="cls-1" x="60" width="10" height="10" transform="translate(60 70) rotate(-90)"/><rect class="cls-1" y="20" width="50" height="10" transform="translate(50 50) rotate(180)"/><rect class="cls-1" x="20" y="40" width="10" height="10" transform="translate(50 90) rotate(180)"/><rect class="cls-1" x="20" width="10" height="10" transform="translate(50 10) rotate(180)"/></g></g></g></svg>