<svg xmlns="http://www.w3.org/2000/svg" viewBox="0 0 70 120"><defs><style>.cls-1{fill:#121221;}.cls-2{fill:#366ce1;}</style></defs><title>t15</title><g id="Слой_2" data-name="Слой 2"><g id="Слой_3" data-name="Слой 3"><g id="t15"><rect class="cls-1" width="70" height="120"/><rect class="cls-2" x="10" y="30" width="10" height="10"/><rect class="cls-2" x="30" y="30" width="10" height="10"/><rect class="cls-2" x="50" y="30" width="10" height="10"/><rect class="cls-2" x="10" y="10" width="10" height="10"/><rect class="cls-2" x="30" y="10" width="10" height="10"/><rect class="cls-2" x="50" y="10" width="10" height="10"/><rect class="cls-2" x="10" y="50" width="10" height="10"/><rect class="cls-2" x="30" y="50" width="10" height="10"/><rect class="cls-2" x="50" y="50" width="10" height="10"/><rect class="cls-2" x="10" y="70" width="10" height="10"/><rect class="cls-2" x="30" y="70" width="10" height="10"/><rect class="cls-2" x="50" y="70" width="10" height="10"/><rect class="cls-2" x="10" y="90" width="10" height="10"/><rect class="cls-2" x="30" y="100" width="10" height="20"/><rect class="cls-2" x="50" y="90" width="10" height="10"/></g></g></g></svg>