<svg xmlns="http://www.w3.org/2000/svg" viewBox="0 0 90 110"><defs><style>.cls-1{fill:#366ce1;}.cls-2{fill:#121221;}</style></defs><title>t2</title><g id="Слой_2" data-name="Слой 2"><g id="Слой_3" data-name="Слой 3"><g id="t2"><rect class="cls-1" x="10" y="40" width="70" height="60" transform="translate(90 140) rotate(180)"/><rect class="cls-1" x="50" y="30" width="20" height="10" transform="translate(120 70) rotate(180)"/><rect class="cls-1" x="20" y="30" width="20" height="10" transform="translate(60 70) rotate(180)"/><rect class="cls-1" x="20" y="100" width="50" height="10" transform="translate(90 210) rotate(180)"/><rect class="cls-1" y="50" width="10" height="40" transform="translate(10 140) rotate(180)"/><rect class="cls-1" x="80" y="50" width="10" height="40" transform="translate(170 140) rotate(180)"/><rect class="cls-2" x="40" y="10" width="10" height="30"/><rect class="cls-2" x="50" width="10" height="10"/><rect class="cls-2" x="10" y="10" width="20" height="10"/><rect class="cls-2" x="10" width="10" height="20"/><rect class="cls-2" x="10" width="20" height="10"/><rect class="cls-2" x="30" y="20" width="10" height="10"/></g></g></g></svg>