<svg xmlns="http://www.w3.org/2000/svg" viewBox="0 0 110 100"><defs><style>.cls-1{fill:#121221;}.cls-2{fill:#366ce1;}</style></defs><title>t21</title><g id="Слой_2" data-name="Слой 2"><g id="Слой_3" data-name="Слой 3"><g id="t21"><rect class="cls-1" y="80" width="10" height="10"/><rect class="cls-1" x="10" y="90" width="10" height="10"/><rect class="cls-1" x="20" y="80" width="10" height="10"/><rect class="cls-1" x="10" y="70" width="10" height="10"/><rect class="cls-1" x="40" y="80" width="10" height="10"/><rect class="cls-1" x="50" y="90" width="10" height="10"/><rect class="cls-1" x="60" y="80" width="10" height="10"/><rect class="cls-1" x="50" y="70" width="10" height="10"/><rect class="cls-1" x="80" y="80" width="10" height="10"/><rect class="cls-1" x="90" y="90" width="10" height="10"/><rect class="cls-1" x="100" y="80" width="10" height="10"/><rect class="cls-1" x="90" y="70" width="10" height="10"/><rect class="cls-1" x="40" y="10" width="10" height="10"/><rect class="cls-1" x="50" y="20" width="10" height="10"/><rect class="cls-1" x="60" y="10" width="10" height="10"/><rect class="cls-1" x="50" width="10" height="10"/><rect class="cls-2" x="50" y="30" width="10" height="40"/><rect class="cls-2" x="20" y="50" width="10" height="20"/><rect class="cls-2" x="30" y="40" width="10" height="10"/><rect class="cls-2" x="40" y="30" width="10" height="10"/><rect class="cls-2" x="80" y="50" width="10" height="20" transform="translate(170 120) rotate(-180)"/><rect class="cls-2" x="70" y="40" width="10" height="10" transform="translate(150 90) rotate(-180)"/><rect class="cls-2" x="60" y="30" width="10" height="10" transform="translate(130 70) rotate(-180)"/></g></g></g></svg>