<svg xmlns="http://www.w3.org/2000/svg" viewBox="0 0 100 100"><defs><style>.cls-1{fill:#121221;}</style></defs><title>t22</title><g id="Слой_2" data-name="Слой 2"><g id="Слой_3" data-name="Слой 3"><g id="t22"><rect class="cls-1" y="40" width="20" height="20"/><rect class="cls-1" x="40" width="20" height="20"/><rect class="cls-1" x="40" y="80" width="20" height="20"/><rect class="cls-1" x="80" y="40" width="20" height="20"/><rect class="cls-1" x="70" y="70" width="20" height="20"/><rect class="cls-1" x="10" y="70" width="20" height="20"/><rect class="cls-1" x="10" y="10" width="20" height="20"/><rect class="cls-1" x="70" y="10" width="20" height="20"/><rect class="cls-1" x="30" y="70" width="40" height="10"/><rect class="cls-1" x="30" y="20" width="40" height="10"/><rect class="cls-1" x="5" y="45" width="40" height="10" transform="translate(75 25) rotate(90)"/><rect class="cls-1" x="55" y="45" width="40" height="10" transform="translate(125 -25) rotate(90)"/><rect class="cls-1" x="30" y="60" width="10" height="10"/><rect class="cls-1" x="60" y="60" width="10" height="10"/><rect class="cls-1" x="30" y="30" width="10" height="10"/><rect class="cls-1" x="60" y="30" width="10" height="10"/></g></g></g></svg>