<svg xmlns="http://www.w3.org/2000/svg" viewBox="0 0 90 120"><defs><style>.cls-1{fill:#121221;}.cls-2{fill:#366ce1;}</style></defs><title>t5</title><g id="Слой_2" data-name="Слой 2"><g id="Слой_3" data-name="Слой 3"><g id="t5"><rect class="cls-1" x="20" y="30" width="50" height="50" transform="translate(90 110) rotate(180)"/><rect class="cls-1" x="20" y="20" width="50" height="70" transform="translate(90 110) rotate(180)"/><rect class="cls-2" width="90" height="20" transform="translate(90 20) rotate(180)"/><rect class="cls-2" x="20" y="20" width="50" height="10" transform="translate(90 50) rotate(180)"/><rect class="cls-2" x="60" y="40" width="10" height="10" transform="translate(130 90) rotate(180)"/><rect class="cls-1" x="70" y="40" width="10" height="30" transform="translate(150 110) rotate(180)"/><rect class="cls-2" x="30" y="90" width="30" height="10" transform="translate(90 190) rotate(180)"/><rect class="cls-2" x="50" y="100" width="10" height="20" transform="translate(110 220) rotate(180)"/><rect class="cls-2" x="60" y="100" width="10" height="20" transform="translate(130 220) rotate(180)"/><rect class="cls-1" x="20" y="100" width="30" height="20" transform="translate(70 220) rotate(180)"/></g></g></g></svg>