<svg xmlns="http://www.w3.org/2000/svg" viewBox="0 0 21.499 11.182"><title>w1</title><g id="Слой_2" data-name="Слой 2"><g id="Слой_3" data-name="Слой 3"><g id="w1"><path d="M6.567,9.307a1.09,1.09,0,0,0-.17.01c-.07,0-.16.01-.26.02-.21.01-.37.02-.47.03s-.17.01-.19.01c-.43.05-.75.09-.99.12a4.38,4.38,0,0,1-.53.04c-.18,0-.36-.01-.56-.02a2.164,2.164,0,0,1-.53-.12,1.118,1.118,0,0,1-.41-.3.874.874,0,0,1-.2-.53,1.17,1.17,0,0,0,.27-.1c.23-.09.41-.16.55-.21l.42-.18c.32-.16.58-.3.77-.41a2.554,2.554,0,0,0,.51-.36,3.02,3.02,0,0,0,.42-.45c.13-.17.29-.4.48-.68a3.25,3.25,0,0,0,.26-.4c.06-.11.11-.2.14-.27a.493.493,0,0,0,.05-.18.244.244,0,0,0,0-.12.742.742,0,0,0-.1-.26.822.822,0,0,0-.18-.19.939.939,0,0,0-.18-.12c-.05-.03-.09-.05-.11-.06a1.032,1.032,0,0,0-.45-.09,1.1,1.1,0,0,0-.25.02c-.08.01-.18.02-.28.04a3.2,3.2,0,0,0-.84.24,2.867,2.867,0,0,0-.65.41,3.632,3.632,0,0,0-.56.55q-.27.33-.54.69a7.09,7.09,0,0,0-1.08,1.9.3.3,0,0,1-.08.04c-.03.01-.06.03-.09.04a3.07,3.07,0,0,0-.53.36c-.16.14-.23.24-.2.29.01.03.05.04.11.04a2.466,2.466,0,0,0,.36-.06l.12-.03A.507.507,0,0,0,.727,9c-.02.09-.03.17-.04.24s-.01.13-.02.17a3.178,3.178,0,0,0-.02.41.8.8,0,0,0,.09.36,1.077,1.077,0,0,0,.23.34,1.542,1.542,0,0,0,.36.27,2.174,2.174,0,0,0,.42.17,1.523,1.523,0,0,0,.42.06,4.162,4.162,0,0,0,.87-.13c.35-.08.7-.19,1.07-.31s.72-.26,1.06-.39.61-.26.81-.36a1.3,1.3,0,0,1,.18-.1l.24-.15a2.187,2.187,0,0,0,.2-.14c.05-.05.08-.08.07-.1S6.637,9.307,6.567,9.307Zm-4.01-1.86a4.617,4.617,0,0,1,.33-.54c.1-.14.21-.29.32-.44a4.553,4.553,0,0,1,.35-.4,2.029,2.029,0,0,1,.37-.3.739.739,0,0,1,.39-.12.06.06,0,0,1,.04.01H4.4a.966.966,0,0,1,.26.11.456.456,0,0,1,.17.22.485.485,0,0,1,0,.18,1.33,1.33,0,0,1-.26.47,2.614,2.614,0,0,1-.46.43c-.17.12-.37.24-.6.37-.26.14-.48.25-.66.34s-.35.17-.51.24A2.414,2.414,0,0,1,2.557,7.447Z"/><path d="M7.874,3.612a.349.349,0,0,0,.144.258q.132.1.372.294.108.084.24.2.12.1.27.234t.318.318q.228.24.348.384a.991.991,0,0,1,.18.324q.024.084.066.324a.8.8,0,0,1-.09.5.775.775,0,0,1-.348.342,2.908,2.908,0,0,1-.42.162,1.378,1.378,0,0,1-.2.048A1.025,1.025,0,0,1,8.6,7.02a1.886,1.886,0,0,0-.192.012q-.114.012-.306.048a1.021,1.021,0,0,0-.126.024q-.042.012-.12.042t-.228.072q-.15.042-.462.138-.276.072-.438.132t-.186.156a.183.183,0,0,0,.042.114.239.239,0,0,1,.042.15.3.3,0,0,1-.06.186.372.372,0,0,1-.084.09.352.352,0,0,1-.2.1,2.054,2.054,0,0,1-.306.018.736.736,0,0,0-.1.006.637.637,0,0,1-.09.006.864.864,0,0,1-.312-.06,1.05,1.05,0,0,1-.222-.162.341.341,0,0,1-.126-.258A.332.332,0,0,1,5.3,7.554q.174-.114.33-.2a2.031,2.031,0,0,1,.228-.09c.064-.02.132-.037.2-.054s.15-.032.234-.048.19-.04.318-.072q.444-.12.7-.216a.688.688,0,0,0,.372-.312.549.549,0,0,0,.072-.342q-.024-.162-.036-.21A.683.683,0,0,0,7.556,5.7c-.076-.08-.194-.2-.354-.36q-.144-.156-.216-.246t-.12-.156l-.1-.138a1.968,1.968,0,0,0-.174-.192,2.057,2.057,0,0,0-.27-.252q-.114-.084-.2-.15l-.168-.132a1.31,1.31,0,0,1-.192-.2,3.95,3.95,0,0,1-.306-.426.789.789,0,0,1-.114-.5.73.73,0,0,1,.15-.4A3.26,3.26,0,0,1,5.714,2.3a1.3,1.3,0,0,1,.354-.246,2.559,2.559,0,0,1,.456-.168,4.3,4.3,0,0,1,.492-.1,3.061,3.061,0,0,1,.438-.036,1.442,1.442,0,0,1,.672.168l.12.066a1,1,0,0,1,.192.144,1.232,1.232,0,0,1,.174.2.366.366,0,0,1,.066.246.381.381,0,0,1-.066.174A1.29,1.29,0,0,1,8.5,2.9.807.807,0,0,1,8.39,3c-.032.024-.052.041-.06.048a.621.621,0,0,1-.18.09.279.279,0,0,0-.144.114,1.307,1.307,0,0,0-.078.114A.382.382,0,0,0,7.874,3.612Z"/><path d="M11.54,4.415a.35.35,0,0,0,.145.258l.372.294q.106.084.24.2c.079.064.169.142.269.234s.206.2.319.318c.152.16.267.288.347.384a.993.993,0,0,1,.181.324c.016.056.038.164.065.324a.8.8,0,0,1-.089.5.777.777,0,0,1-.349.342,2.943,2.943,0,0,1-.419.162,1.567,1.567,0,0,1-.2.048,1.034,1.034,0,0,1-.156.012,1.853,1.853,0,0,0-.192.012q-.116.012-.306.048a.949.949,0,0,0-.126.024c-.028.008-.068.022-.121.042s-.128.044-.228.072-.254.074-.462.138q-.276.072-.438.132t-.186.156a.189.189,0,0,0,.042.114.233.233,0,0,1,.042.15.3.3,0,0,1-.06.186.353.353,0,0,1-.084.09.349.349,0,0,1-.2.1,2.078,2.078,0,0,1-.307.018.746.746,0,0,0-.1.006.623.623,0,0,1-.089.006.864.864,0,0,1-.312-.06A1.053,1.053,0,0,1,8.918,8.9a.341.341,0,0,1-.126-.258.333.333,0,0,1,.175-.282q.173-.114.33-.2a2.024,2.024,0,0,1,.227-.09c.064-.02.133-.038.2-.054s.15-.032.234-.048.19-.04.319-.072q.444-.12.7-.216a.692.692,0,0,0,.372-.312.548.548,0,0,0,.071-.342c-.016-.108-.027-.178-.035-.21a.7.7,0,0,0-.162-.312c-.077-.08-.194-.2-.354-.36-.1-.1-.168-.186-.216-.246s-.089-.112-.12-.156l-.1-.138a2.273,2.273,0,0,0-.174-.192,2.192,2.192,0,0,0-.27-.252q-.114-.084-.2-.15l-.168-.132a1.22,1.22,0,0,1-.192-.2,3.692,3.692,0,0,1-.306-.426.789.789,0,0,1-.114-.5.723.723,0,0,1,.15-.4,3.06,3.06,0,0,1,.222-.252,1.3,1.3,0,0,1,.354-.246,2.52,2.52,0,0,1,.455-.168,4.317,4.317,0,0,1,.493-.1,3.061,3.061,0,0,1,.438-.036,1.438,1.438,0,0,1,.671.168c.017.008.057.03.121.066a1,1,0,0,1,.191.144,1.237,1.237,0,0,1,.175.2.371.371,0,0,1,.066.246.409.409,0,0,1-.066.174,1.389,1.389,0,0,1-.114.144.949.949,0,0,1-.108.1.48.48,0,0,0-.06.048.612.612,0,0,1-.181.09.281.281,0,0,0-.143.114,1.307,1.307,0,0,0-.078.114A.389.389,0,0,0,11.54,4.415Z"/><path d="M15.627,1.3a.268.268,0,0,0-.06-.12l-.059-.06a.41.41,0,0,0-.132-.06l-.1-.03a.361.361,0,0,0-.1-.018h-.037a.6.6,0,0,0-.3.15,3.421,3.421,0,0,0-.4.354c-.132.136-.257.276-.372.42a2.555,2.555,0,0,0-.246.348,1.345,1.345,0,0,0-.157.468,3.365,3.365,0,0,0-.024.36c-.007.144-.009.27-.005.378a.717.717,0,0,0,.1.33,2.547,2.547,0,0,0,.15.21.665.665,0,0,0,.354.222.675.675,0,0,1,.084.018.746.746,0,0,0,.18.018.9.9,0,0,0,.174-.018.562.562,0,0,0,.186-.078,1.116,1.116,0,0,0,.162-.132l.21-.2c.071-.068.138-.134.2-.2s.1-.112.126-.144a.674.674,0,0,0,.1-.222q.036-.138.108-.378c.04-.144.063-.234.072-.27a1.765,1.765,0,0,1,.06-.186,1.544,1.544,0,0,1,.066-.186l.053-.12.049-.108a1,1,0,0,0,.048-.162c.04-.136.069-.238.089-.306a.578.578,0,0,0,.031-.138,2.283,2.283,0,0,0,.066-.486A3.244,3.244,0,0,0,16.3.588c.1-.04.192-.082.287-.126s.2-.1.312-.162c.089-.056.168-.108.241-.156s.139-.1.2-.144a2.05,2.05,0,0,1,.126.426,1.351,1.351,0,0,1,.018.318,1.38,1.38,0,0,1-.072.426c-.048.148-.121.35-.216.606-.04.1-.073.184-.1.24s-.044.1-.061.138a.726.726,0,0,0-.035.1q-.012.042-.036.114c-.016.088-.033.208-.048.36a1.415,1.415,0,0,0,.048.5,1.145,1.145,0,0,0,.138.318q.114.2.252.4c.092.136.187.264.287.384a1.689,1.689,0,0,0,.247.252.848.848,0,0,1,.1.066l.15.114c.051.04.1.078.144.114s.066.062.066.078q.024.06-.072.138t-.324.294a1.827,1.827,0,0,0-.186.168,1.751,1.751,0,0,1-.174.156,1.324,1.324,0,0,1-.252.192.572.572,0,0,1-.474-.066,2.1,2.1,0,0,1-.283-.186,1.274,1.274,0,0,1-.252-.2c-.1-.1-.191-.2-.287-.312s-.189-.224-.276-.336-.161-.2-.216-.276q-.18.18-.39.378a4.083,4.083,0,0,1-.45.366,2.656,2.656,0,0,1-.5.276,1.374,1.374,0,0,1-.534.108,1.526,1.526,0,0,1-.372-.048q-.072-.024-.3-.132a.947.947,0,0,1-.4-.384,1,1,0,0,1-.157-.456,3.5,3.5,0,0,1,0-.384,2.577,2.577,0,0,1,.229-.744c.136-.312.295-.636.48-.972s.374-.654.57-.954a7.134,7.134,0,0,1,.5-.69,3.409,3.409,0,0,1,.348-.372A6.189,6.189,0,0,1,15.1.084a.544.544,0,0,1,.144-.012.94.94,0,0,1,.1.006.432.432,0,0,1,.113.03c.033.016.084.044.157.084A.459.459,0,0,1,15.8.384.516.516,0,0,1,15.862.6a.7.7,0,0,1-.007.168,1.04,1.04,0,0,1-.071.276A.713.713,0,0,1,15.627,1.3Z"/><path d="M17.381,2.423a.474.474,0,0,0,.06-.168.142.142,0,0,1,.048-.1.164.164,0,0,1,.1-.06.26.26,0,0,0,.12-.059.951.951,0,0,0,.078-.085.106.106,0,0,1,.054-.035h.024a.116.116,0,0,1,.078.024.121.121,0,0,0,.078.024h.024a.167.167,0,0,0,.09-.1c.02-.051.046-.073.078-.065.016,0,.03.022.042.065a1.163,1.163,0,0,0,.042.126,3.662,3.662,0,0,0,.126.427,2.864,2.864,0,0,0,.234.5,1.763,1.763,0,0,0,.336.42.6.6,0,0,0,.408.173.3.3,0,0,0,.132-.035.281.281,0,0,0,.126-.175,1.929,1.929,0,0,0,.048-.281,3.215,3.215,0,0,1,.066-.378,1.587,1.587,0,0,1,.18-.438,1.332,1.332,0,0,1,.21-.306,4.58,4.58,0,0,1,.33-.343,2.294,2.294,0,0,1,.366-.281.659.659,0,0,1,.342-.115.134.134,0,0,1,.1.036.153.153,0,0,1,.012.157q-.036.1.012.132l.024.012a.109.109,0,0,0,.042-.007.134.134,0,0,1,.042,0h.024c.04.032.056.127.048.288a2.149,2.149,0,0,1-.1.516,1.688,1.688,0,0,1-.072.245c-.024.06-.048.115-.072.162s-.046.1-.066.144a1.678,1.678,0,0,0-.066.216c-.04.16-.068.293-.084.4a1.635,1.635,0,0,0-.012.348v.223a.525.525,0,0,1-.06.234.141.141,0,0,1-.048.072.373.373,0,0,0-.084.095.822.822,0,0,0-.12.276,1.237,1.237,0,0,0-.048.312.147.147,0,0,0,.054.078.164.164,0,0,1,.054.079.267.267,0,0,1,.03.215c-.02.081-.034.133-.042.157a1.837,1.837,0,0,0-.036.564q.012.444.036,1.308.012.384.018.624c0,.159.008.3.012.42s.006.229.006.33v.353a2.781,2.781,0,0,1-.024.337c-.016.1-.036.228-.06.371s-.056.308-.1.492a1.627,1.627,0,0,1-.294.595.705.705,0,0,1-.582.245.925.925,0,0,1-.4-.1,1.975,1.975,0,0,1-.39-.246,3.475,3.475,0,0,1-.342-.318q-.156-.169-.276-.312l-.144-.186c-.04-.053-.074-.1-.1-.144s-.06-.09-.1-.139a1.75,1.75,0,0,0-.15-.168l-.162-.162a1.1,1.1,0,0,1-.138-.174L17.471,9.1a1.064,1.064,0,0,1-.048-.095l-.036-.09a.6.6,0,0,0-.066-.12,1.184,1.184,0,0,0-.288-.318q-.132-.09-.12-.186a.076.076,0,0,1,.06-.06.429.429,0,0,0,.144-.108.422.422,0,0,0,.114-.162.328.328,0,0,1,.09-.139.555.555,0,0,1,.084-.053.255.255,0,0,1,.078-.025c.028,0,.06-.009.1-.017a.947.947,0,0,0,.138-.049.547.547,0,0,0,.15-.078c.036-.028.066-.051.09-.071a.861.861,0,0,1,.072-.055.268.268,0,0,1,.108-.035.182.182,0,0,0,.036-.007.32.32,0,0,1,.072-.006.5.5,0,0,1,.39.168.68.68,0,0,1,.174.385.571.571,0,0,1,.024.221,2.225,2.225,0,0,0-.012.27,2.145,2.145,0,0,0,.036.354,2.5,2.5,0,0,0,.108.414,1.7,1.7,0,0,0,.186.378.517.517,0,0,0,.258.223l.048,0a.517.517,0,0,0,.084.006.189.189,0,0,0,.168-.071.281.281,0,0,0,.048-.2.694.694,0,0,0-.036-.175c-.008-.031-.01-.049-.006-.053a.419.419,0,0,0,.012-.1c0-.065,0-.18,0-.348s-.018-.436-.042-.8q-.012-.288-.03-.48c-.012-.128-.024-.245-.036-.354s-.022-.219-.03-.336-.016-.257-.024-.425l-.018-.361a.786.786,0,0,1,.006-.179c0-.2.008-.386.024-.559a1.747,1.747,0,0,0-.036-.534c-.016-.039-.03-.079-.042-.119a.168.168,0,0,0-.078-.1.117.117,0,0,0-.084-.023.419.419,0,0,0-.09.011c-.036.009-.074.017-.114.025H19.1a.863.863,0,0,1-.174-.042c-.092-.029-.19-.062-.294-.1s-.2-.078-.294-.115l-.174-.066a1.35,1.35,0,0,1-.306-.228,2.209,2.209,0,0,1-.486-.695,1.882,1.882,0,0,1-.12-.361,1.475,1.475,0,0,1-.036-.21.423.423,0,0,1,.048-.234.193.193,0,0,1,.048-.078A.367.367,0,0,0,17.381,2.423Z"/></g></g></g></svg>