<svg xmlns="http://www.w3.org/2000/svg" viewBox="0 0 36.775 21.09"><title>w2</title><g id="Слой_2" data-name="Слой 2"><g id="Слой_3" data-name="Слой 3"><g id="w2"><path d="M6.993,4.069A3.388,3.388,0,0,1,6,5.973a2.385,2.385,0,0,1-1.634.666,2.414,2.414,0,0,1-1.859-.9,3.518,3.518,0,0,1-.793-2.42,3.338,3.338,0,0,1,.878-2.4A2.807,2.807,0,0,1,4.7,0,2.313,2.313,0,0,1,6.221.491a1.351,1.351,0,0,1,.594,1.015.554.554,0,0,1-.167.42.65.65,0,0,1-.468.161.73.73,0,0,1-.609-.26,1.085,1.085,0,0,1-.154-.547A.892.892,0,0,0,5.141.665a.987.987,0,0,0-.663-.2,1.354,1.354,0,0,0-1.1.506,2.688,2.688,0,0,0-.554,1.77,3.583,3.583,0,0,0,.551,1.979,1.688,1.688,0,0,0,1.486.858,1.8,1.8,0,0,0,1.2-.458A3.079,3.079,0,0,0,6.8,3.973Z"/><path d="M13.232,1.08A2.761,2.761,0,0,0,10.952,0a2.925,2.925,0,0,0-1.48.41,2.894,2.894,0,0,0-1.12,1.26,3.674,3.674,0,0,0-.43,1.71,3.478,3.478,0,0,0,.71,2.13,2.641,2.641,0,0,0,2.24,1.13,2.96,2.96,0,0,0,1.58-.44,2.921,2.921,0,0,0,1.11-1.3,3.948,3.948,0,0,0,.4-1.7A3.309,3.309,0,0,0,13.232,1.08Zm-.97,4.53a1.34,1.34,0,0,1-1.09.54,1.615,1.615,0,0,1-1.43-.99,4.734,4.734,0,0,1-.55-2.36,3.611,3.611,0,0,1,.23-1.38,1.524,1.524,0,0,1,.59-.76,1.448,1.448,0,0,1,1.96.44,4.3,4.3,0,0,1,.72,2.63A3.1,3.1,0,0,1,12.262,5.61Z"/><path d="M20.378.186V3.98a9.58,9.58,0,0,0,.051,1.33.6.6,0,0,0,.164.338.393.393,0,0,0,.263.1,1.225,1.225,0,0,0,.479-.116l.1.239-1.873.772H19.25V5.313a5.728,5.728,0,0,1-1.23,1.1,1.888,1.888,0,0,1-.9.225,1.432,1.432,0,0,1-.913-.3,1.572,1.572,0,0,1-.536-.782A4.738,4.738,0,0,1,15.524,4.2V1.4a1.377,1.377,0,0,0-.095-.615.631.631,0,0,0-.284-.263,1.664,1.664,0,0,0-.68-.086V.186h2.194V4.377a1.568,1.568,0,0,0,.3,1.148A1.063,1.063,0,0,0,17.7,5.8a1.538,1.538,0,0,0,.667-.185,3.625,3.625,0,0,0,.885-.7V1.362a1,1,0,0,0-.2-.721,1.264,1.264,0,0,0-.81-.2V.186Z"/><path d="M4.733,7.354V8.762q.786-1.408,1.613-1.408a.878.878,0,0,1,.623.229.7.7,0,0,1,.246.53.625.625,0,0,1-.178.451.569.569,0,0,1-.424.184.9.9,0,0,1-.537-.235.88.88,0,0,0-.44-.236.408.408,0,0,0-.267.136,3.305,3.305,0,0,0-.636.923v3a1.865,1.865,0,0,0,.13.786.706.706,0,0,0,.315.308,1.378,1.378,0,0,0,.649.123V13.8H2.621v-.246a1.334,1.334,0,0,0,.711-.15.58.58,0,0,0,.239-.349,3.5,3.5,0,0,0,.034-.663V9.965a10.045,10.045,0,0,0-.044-1.3.516.516,0,0,0-.164-.3.461.461,0,0,0-.3-.1,1.339,1.339,0,0,0-.478.1l-.068-.247,1.893-.765Z"/><path d="M12.61,7.354V9.487h-.225a2.785,2.785,0,0,0-.667-1.368,1.5,1.5,0,0,0-1.036-.362,1.147,1.147,0,0,0-.772.253.735.735,0,0,0-.294.561,1.016,1.016,0,0,0,.219.656,2.43,2.43,0,0,0,.861.595l1,.485a2.029,2.029,0,0,1,1.388,1.784,1.686,1.686,0,0,1-.646,1.378,2.245,2.245,0,0,1-1.446.523,4.96,4.96,0,0,1-1.312-.206,1.36,1.36,0,0,0-.37-.068.271.271,0,0,0-.246.178H8.837V11.661h.225A2.548,2.548,0,0,0,9.794,13.1a1.762,1.762,0,0,0,1.21.485,1.082,1.082,0,0,0,.769-.277.877.877,0,0,0,.3-.666,1.059,1.059,0,0,0-.331-.793,5.872,5.872,0,0,0-1.323-.814,3.921,3.921,0,0,1-1.3-.888,1.542,1.542,0,0,1-.308-.985,1.738,1.738,0,0,1,.53-1.292,1.876,1.876,0,0,1,1.371-.519,3.211,3.211,0,0,1,.895.157,2.15,2.15,0,0,0,.465.1.272.272,0,0,0,.171-.048.667.667,0,0,0,.144-.212Z"/><path d="M19.422,12.54a1.8,1.8,0,0,1-1.07.34,2.059,2.059,0,0,1-1.61-.8,3.182,3.182,0,0,1-.68-2.18h4.33a2.548,2.548,0,0,0-.68-1.86,2.3,2.3,0,0,0-1.73-.69,2.654,2.654,0,0,0-2.06.9,3.558,3.558,0,0,0-.83,2.5,3.332,3.332,0,0,0,.81,2.36,2.49,2.49,0,0,0,1.93.88,2.209,2.209,0,0,0,1.73-.77,3.277,3.277,0,0,0,.83-1.7l-.21-.14A2.57,2.57,0,0,1,19.422,12.54Zm-2.83-4.27a1.4,1.4,0,0,1,1.01-.44,1.344,1.344,0,0,1,.71.22,1.493,1.493,0,0,1,.51.6,2.767,2.767,0,0,1,.14.85h-2.9A1.942,1.942,0,0,1,16.592,8.27Z"/><path d="M0,14.637H2.625v.253a.842.842,0,0,0-.475.13.377.377,0,0,0-.113.294,1.475,1.475,0,0,0,.116.512l1.34,3.6L4.84,16.5l-.356-.922a1.1,1.1,0,0,0-.43-.568,1.259,1.259,0,0,0-.561-.116v-.253H6.474v.253a1.268,1.268,0,0,0-.7.178.418.418,0,0,0-.136.348.8.8,0,0,0,.054.281l1.422,3.6,1.32-3.466a1.8,1.8,0,0,0,.136-.587.293.293,0,0,0-.133-.233.983.983,0,0,0-.523-.116v-.253H9.892v.253a1.126,1.126,0,0,0-.875.807L6.925,21.09h-.28l-1.566-4-1.825,4H3L.991,15.826A1.9,1.9,0,0,0,.6,15.153,1.305,1.305,0,0,0,0,14.89Z"/><path d="M15.8,15.53a2.761,2.761,0,0,0-2.28-1.08,2.925,2.925,0,0,0-1.48.41,2.894,2.894,0,0,0-1.12,1.26,3.7,3.7,0,0,0-.43,1.71,3.478,3.478,0,0,0,.71,2.13,2.641,2.641,0,0,0,2.24,1.13,2.96,2.96,0,0,0,1.58-.44,2.921,2.921,0,0,0,1.11-1.3,3.948,3.948,0,0,0,.4-1.7A3.309,3.309,0,0,0,15.8,15.53Zm-.97,4.53a1.327,1.327,0,0,1-1.09.54,1.615,1.615,0,0,1-1.43-.99,4.721,4.721,0,0,1-.55-2.35,3.631,3.631,0,0,1,.23-1.39,1.57,1.57,0,0,1,.59-.76,1.453,1.453,0,0,1,.73-.21,1.506,1.506,0,0,1,1.24.65,4.367,4.367,0,0,1,.71,2.63A3.1,3.1,0,0,1,14.832,20.06Z"/><path d="M19.291,14.452v1.409q.786-1.408,1.613-1.409a.879.879,0,0,1,.622.229.706.706,0,0,1,.246.53.626.626,0,0,1-.177.451.57.57,0,0,1-.424.185.906.906,0,0,1-.537-.236.887.887,0,0,0-.441-.236.406.406,0,0,0-.266.137,3.305,3.305,0,0,0-.636.923v3a1.852,1.852,0,0,0,.13.786.708.708,0,0,0,.314.308,1.385,1.385,0,0,0,.65.123V20.9H17.179v-.246a1.333,1.333,0,0,0,.711-.151.586.586,0,0,0,.239-.348,3.511,3.511,0,0,0,.034-.663V17.064a10.249,10.249,0,0,0-.044-1.3.516.516,0,0,0-.164-.3.461.461,0,0,0-.3-.1,1.353,1.353,0,0,0-.478.1l-.069-.246L19,14.452Z"/><path d="M26.473,0V13.389L29.9,10.274A11.627,11.627,0,0,0,31.161,9.01a.625.625,0,0,0,.117-.353.652.652,0,0,0-.242-.507,1.325,1.325,0,0,0-.8-.242v-.47h5.849v.47a5.552,5.552,0,0,0-2.006.367A6.5,6.5,0,0,0,32.322,9.48l-3.454,3.189,3.454,4.365q1.44,1.808,1.94,2.292a3.989,3.989,0,0,0,1.234.9,3.871,3.871,0,0,0,1.279.147V20.9h-6.54V20.37a1.368,1.368,0,0,0,.757-.169.519.519,0,0,0,.2-.434A2.26,2.26,0,0,0,30.6,18.68L26.473,13.4v4.467a5.06,5.06,0,0,0,.184,1.72,1.171,1.171,0,0,0,.521.588,3.96,3.96,0,0,0,1.47.191V20.9H21.8V20.37a3.67,3.67,0,0,0,1.543-.25,1.059,1.059,0,0,0,.47-.5,4.45,4.45,0,0,0,.221-1.675V5.689a22.009,22.009,0,0,0-.1-2.858,1.242,1.242,0,0,0-.338-.72.922.922,0,0,0-.618-.2,2.767,2.767,0,0,0-.925.25l-.25-.514L25.8,0Z"/></g></g></g></svg>