<svg xmlns="http://www.w3.org/2000/svg" viewBox="0 0 13.966 16.411"><title>w3</title><g id="Слой_2" data-name="Слой 2"><g id="Слой_3" data-name="Слой 3"><g id="w3"><path d="M6.2,4.067a3.388,3.388,0,0,1-.991,1.9,2.38,2.38,0,0,1-1.634.667,2.416,2.416,0,0,1-1.859-.9,3.518,3.518,0,0,1-.793-2.42A3.335,3.335,0,0,1,1.8.923,2.807,2.807,0,0,1,3.905,0,2.31,2.31,0,0,1,5.423.489,1.349,1.349,0,0,1,6.018,1.5a.554.554,0,0,1-.168.42.649.649,0,0,1-.468.161.724.724,0,0,1-.608-.26,1.075,1.075,0,0,1-.154-.547A.893.893,0,0,0,4.343.663a.985.985,0,0,0-.663-.2,1.354,1.354,0,0,0-1.1.506,2.689,2.689,0,0,0-.553,1.77,3.58,3.58,0,0,0,.55,1.979,1.69,1.69,0,0,0,1.487.858,1.8,1.8,0,0,0,1.2-.458A3.1,3.1,0,0,0,6,3.972Z"/><path d="M10.153,0a2.777,2.777,0,0,1,2.284,1.08A3.32,3.32,0,0,1,13.168,3.2a3.985,3.985,0,0,1-.4,1.7,2.866,2.866,0,0,1-2.687,1.737A2.654,2.654,0,0,1,7.829,5.51a3.5,3.5,0,0,1-.7-2.133,3.792,3.792,0,0,1,.427-1.712A2.852,2.852,0,0,1,10.153,0Z"/><path d="M9.942.444A1.419,1.419,0,0,0,9.214.66a1.509,1.509,0,0,0-.592.755A3.645,3.645,0,0,0,8.4,2.8,4.838,4.838,0,0,0,8.94,5.161a1.617,1.617,0,0,0,1.432.991,1.334,1.334,0,0,0,1.094-.547A3.106,3.106,0,0,0,11.9,3.726,4.289,4.289,0,0,0,11.179,1.1,1.479,1.479,0,0,0,9.942.444Z"/><path d="M.034,7.75l1.928-.779h.26V8.434A3.547,3.547,0,0,1,3.2,7.275a1.8,1.8,0,0,1,1.029-.331A1.982,1.982,0,0,1,5.8,7.682a3.49,3.49,0,0,1,.772,2.352,3.916,3.916,0,0,1-.929,2.679,2.461,2.461,0,0,1-1.928.868,2.406,2.406,0,0,1-.875-.143,2.067,2.067,0,0,1-.615-.41v1.907a2.56,2.56,0,0,0,.078.817.592.592,0,0,0,.274.277,1.686,1.686,0,0,0,.707.1v.253H0v-.253H.171a1.237,1.237,0,0,0,.642-.143.494.494,0,0,0,.2-.243,2.906,2.906,0,0,0,.072-.851V8.974A3.192,3.192,0,0,0,1.032,8.2a.463.463,0,0,0-.174-.246.572.572,0,0,0-.325-.082,1.237,1.237,0,0,0-.417.1Z"/><path d="M2.222,8.837v2.338a5.03,5.03,0,0,0,.061,1,1.28,1.28,0,0,0,.468.7,1.448,1.448,0,0,0,.94.3A1.35,1.35,0,0,0,4.8,12.638a3.085,3.085,0,0,0,.554-1.962,3.418,3.418,0,0,0-.629-2.208,1.311,1.311,0,0,0-1.039-.533,1.423,1.423,0,0,0-.65.164A3.808,3.808,0,0,0,2.222,8.837Z"/><path d="M7.13,7.128h2.919v.253H9.9a.691.691,0,0,0-.461.133.421.421,0,0,0-.154.332,1.865,1.865,0,0,0,.226.738l1.524,3.158,1.4-3.458a1.436,1.436,0,0,0,.117-.554.3.3,0,0,0-.048-.185.361.361,0,0,0-.171-.119,1.28,1.28,0,0,0-.41-.045V7.128h2.037v.253a.961.961,0,0,0-.39.11,1.136,1.136,0,0,0-.3.307,4.281,4.281,0,0,0-.232.527l-2.55,6.248a3.225,3.225,0,0,1-.967,1.374,1.9,1.9,0,0,1-1.152.464.956.956,0,0,1-.663-.232.7.7,0,0,1-.26-.533.6.6,0,0,1,.188-.462.732.732,0,0,1,.516-.174,1.847,1.847,0,0,1,.616.15,1.444,1.444,0,0,0,.341.1.713.713,0,0,0,.448-.212,2.221,2.221,0,0,0,.489-.82l.444-1.087L8.244,8.42a3.762,3.762,0,0,0-.328-.526,1.541,1.541,0,0,0-.28-.321,1.552,1.552,0,0,0-.506-.192Z"/></g></g></g></svg>