<svg xmlns="http://www.w3.org/2000/svg" viewBox="0 0 210 210"><defs><style>.cls-1{fill:#121221;}</style></defs><title>w4</title><g id="Слой_2" data-name="Слой 2"><g id="Слой_3" data-name="Слой 3"><g id="w4"><polygon class="cls-1" points="210 80 210 100 110 100 110 0 130 0 130 80 210 80"/><path class="cls-1" d="M100,30A30,30,0,0,0,70,0H0V100H70A29.991,29.991,0,0,0,92.35,50,29.862,29.862,0,0,0,100,30ZM20,20H70a10,10,0,0,1,0,20H20ZM70,80H20V60H70a10,10,0,0,1,0,20Z"/><path class="cls-1" d="M50,110a50,50,0,1,0,50,50A50.005,50.005,0,0,0,50,110Zm0,80a30,30,0,1,1,30-30A30,30,0,0,1,50,190Z"/><path class="cls-1" d="M210,150v10a49.16,49.16,0,0,1-1.01,10,50.013,50.013,0,1,1-13.64-45.35l-14.14,14.14A30,30,0,1,0,188.28,170H160V150Z"/></g></g></g></svg>