<svg xmlns="http://www.w3.org/2000/svg" viewBox="0 0 39.398 24.03"><title>w5</title><g id="Слой_2" data-name="Слой 2"><g id="Слой_3" data-name="Слой 3"><g id="w5"><path d="M28.185,8.9a1.633,1.633,0,0,1-.49.11.392.392,0,0,1-.26-.09.639.639,0,0,1-.17-.34,10.528,10.528,0,0,1-.05-1.34V0h-.31l-1.86.76.09.24a1.472,1.472,0,0,1,.47-.11.4.4,0,0,1,.27.09.568.568,0,0,1,.16.34,8.568,8.568,0,0,1,.05,1.32V3.79a1.87,1.87,0,0,0-1.36-.53,2.626,2.626,0,0,0-2.18,1.12,3.979,3.979,0,0,0-.85,2.47,3.183,3.183,0,0,0,.76,2.2,2.346,2.346,0,0,0,1.79.86,2.167,2.167,0,0,0,.95-.21,3.112,3.112,0,0,0,.89-.69v.9h.32l1.86-.77Zm-2.1-.36a1.668,1.668,0,0,1-1.2.62,1.733,1.733,0,0,1-1.34-.74,3.255,3.255,0,0,1-.6-2.11,3.076,3.076,0,0,1,.62-2.08,1.4,1.4,0,0,1,1.07-.54,1.28,1.28,0,0,1,.66.19,1.467,1.467,0,0,1,.55.58,2.2,2.2,0,0,1,.24.85Z"/><path d="M33.075,8.46a1.788,1.788,0,0,1-1.07.33A2.062,2.062,0,0,1,30.4,8a3.227,3.227,0,0,1-.68-2.19h4.33a2.54,2.54,0,0,0-.68-1.85,2.313,2.313,0,0,0-1.73-.7,2.669,2.669,0,0,0-2.06.9,3.585,3.585,0,0,0-.83,2.51,3.332,3.332,0,0,0,.81,2.36,2.505,2.505,0,0,0,1.93.88,2.241,2.241,0,0,0,1.73-.77,3.27,3.27,0,0,0,.83-1.71l-.21-.13A2.628,2.628,0,0,1,33.075,8.46Zm-2.83-4.27a1.4,1.4,0,0,1,1.01-.44,1.262,1.262,0,0,1,.71.22,1.371,1.371,0,0,1,.51.6,2.707,2.707,0,0,1,.14.85h-2.9A1.9,1.9,0,0,1,30.245,4.19Z"/><path d="M38.926,3.271V5.4H38.7a2.78,2.78,0,0,0-.667-1.367A1.5,1.5,0,0,0,37,3.675a1.142,1.142,0,0,0-.773.253.732.732,0,0,0-.294.56,1.014,1.014,0,0,0,.219.656,2.417,2.417,0,0,0,.861.595l1,.485A2.029,2.029,0,0,1,39.4,8.009a1.685,1.685,0,0,1-.646,1.377,2.24,2.24,0,0,1-1.446.523A4.955,4.955,0,0,1,35.994,9.7a1.36,1.36,0,0,0-.37-.068.272.272,0,0,0-.246.177h-.225V7.578h.225A2.544,2.544,0,0,0,36.11,9.02a1.763,1.763,0,0,0,1.21.486,1.086,1.086,0,0,0,.769-.277.88.88,0,0,0,.3-.667,1.062,1.062,0,0,0-.331-.793,5.818,5.818,0,0,0-1.323-.813,3.92,3.92,0,0,1-1.3-.889,1.541,1.541,0,0,1-.308-.984,1.737,1.737,0,0,1,.53-1.292,1.876,1.876,0,0,1,1.371-.52,3.217,3.217,0,0,1,.895.158,2.138,2.138,0,0,0,.465.1.272.272,0,0,0,.171-.048.643.643,0,0,0,.144-.212Z"/><path d="M12.731,14.184a3.4,3.4,0,0,1-.991,1.9,2.385,2.385,0,0,1-1.634.666,2.412,2.412,0,0,1-1.859-.9,3.52,3.52,0,0,1-.793-2.42,3.341,3.341,0,0,1,.878-2.4,2.809,2.809,0,0,1,2.109-.923,2.314,2.314,0,0,1,1.517.489,1.351,1.351,0,0,1,.6,1.015.554.554,0,0,1-.167.421.651.651,0,0,1-.469.16.728.728,0,0,1-.608-.259,1.075,1.075,0,0,1-.154-.547.893.893,0,0,0-.277-.615.984.984,0,0,0-.663-.206,1.357,1.357,0,0,0-1.1.506,2.693,2.693,0,0,0-.554,1.771,3.593,3.593,0,0,0,.55,1.979,1.691,1.691,0,0,0,1.487.858,1.8,1.8,0,0,0,1.2-.458,3.1,3.1,0,0,0,.732-1.142Z"/><path d="M15.458,10.116v1.409q.786-1.408,1.614-1.409a.881.881,0,0,1,.622.229.706.706,0,0,1,.246.53.623.623,0,0,1-.178.451.569.569,0,0,1-.424.185.9.9,0,0,1-.536-.236.891.891,0,0,0-.441-.236.41.41,0,0,0-.267.137,3.305,3.305,0,0,0-.636.923v3a1.868,1.868,0,0,0,.13.786.706.706,0,0,0,.315.308,1.38,1.38,0,0,0,.649.123v.246H13.346v-.246a1.333,1.333,0,0,0,.711-.151.581.581,0,0,0,.239-.348,3.472,3.472,0,0,0,.035-.663V12.728a9.956,9.956,0,0,0-.045-1.3.51.51,0,0,0-.164-.3.46.46,0,0,0-.3-.1,1.363,1.363,0,0,0-.479.1l-.068-.246,1.893-.766Z"/><path d="M20.449,10.116v5.032a2.3,2.3,0,0,0,.085.782.6.6,0,0,0,.253.291,1.353,1.353,0,0,0,.612.1v.246H18.357v-.246a1.42,1.42,0,0,0,.615-.089.61.61,0,0,0,.25-.294,2.225,2.225,0,0,0,.092-.786V12.735a8.519,8.519,0,0,0-.062-1.32.532.532,0,0,0-.15-.3.424.424,0,0,0-.28-.085,1.372,1.372,0,0,0-.465.1l-.1-.246,1.887-.766Z"/><path d="M19.881,6.842a.69.69,0,0,1,.691.69.68.68,0,0,1-.2.493.662.662,0,0,1-.489.205.7.7,0,0,1-.7-.7.662.662,0,0,1,.2-.488A.671.671,0,0,1,19.881,6.842Z"/><path d="M27.485,10.85a1.961,1.961,0,0,0-1.57-.73,1.823,1.823,0,0,0-1.03.33,3.585,3.585,0,0,0-.97,1.16V10.14h-.26l-1.93.78.08.22a1.322,1.322,0,0,1,.42-.09.539.539,0,0,1,.33.08.439.439,0,0,1,.17.24,3.179,3.179,0,0,1,.05.78v5.92a2.866,2.866,0,0,1-.07.85.437.437,0,0,1-.2.24,1.189,1.189,0,0,1-.64.14H21.7v.26h3.28V19.3a1.683,1.683,0,0,1-.71-.1.563.563,0,0,1-.27-.28,2.51,2.51,0,0,1-.08-.81V16.2a2.026,2.026,0,0,0,.61.41,2.357,2.357,0,0,0,.88.14,2.493,2.493,0,0,0,1.93-.86,3.921,3.921,0,0,0,.93-2.68A3.5,3.5,0,0,0,27.485,10.85Zm-.99,4.96a1.354,1.354,0,0,1-1.11.53,1.451,1.451,0,0,1-.94-.3,1.3,1.3,0,0,1-.47-.69,5.208,5.208,0,0,1-.06-1V12.01a3.941,3.941,0,0,1,.81-.74,1.417,1.417,0,0,1,.65-.16,1.321,1.321,0,0,1,1.04.53,3.422,3.422,0,0,1,.63,2.21A3.069,3.069,0,0,1,26.5,15.81Z"/><path d="M2.119,15.521v2.058H3.582v.478H2.119v4.061a1.365,1.365,0,0,0,.174.82.557.557,0,0,0,.448.212.786.786,0,0,0,.438-.14.907.907,0,0,0,.328-.414h.266A2.147,2.147,0,0,1,3.1,23.605a1.465,1.465,0,0,1-.9.338,1.217,1.217,0,0,1-.615-.174,1.053,1.053,0,0,1-.444-.5,2.618,2.618,0,0,1-.144-1V18.057H0v-.225a2.607,2.607,0,0,0,.769-.51,4.045,4.045,0,0,0,.7-.851,7.671,7.671,0,0,0,.437-.95Z"/><path d="M6.351,17.394v5.031a2.309,2.309,0,0,0,.085.783.6.6,0,0,0,.253.291,1.353,1.353,0,0,0,.612.1v.246H4.259v-.246a1.42,1.42,0,0,0,.615-.089.61.61,0,0,0,.25-.294,2.218,2.218,0,0,0,.092-.786V20.012a8.512,8.512,0,0,0-.062-1.319.532.532,0,0,0-.15-.3.424.424,0,0,0-.28-.086,1.353,1.353,0,0,0-.465.1l-.1-.246,1.887-.766Z"/><path d="M5.783,14.12a.688.688,0,0,1,.691.69.678.678,0,0,1-.2.492.658.658,0,0,1-.489.205.694.694,0,1,1,0-1.387Z"/><path d="M13.425,18.47a2.761,2.761,0,0,0-2.28-1.08,2.925,2.925,0,0,0-1.48.41,2.894,2.894,0,0,0-1.12,1.26,3.734,3.734,0,0,0-.43,1.71,3.468,3.468,0,0,0,.7,2.13,2.646,2.646,0,0,0,2.25,1.13,2.875,2.875,0,0,0,1.58-.44,2.948,2.948,0,0,0,1.11-1.29,4.023,4.023,0,0,0,.4-1.71A3.328,3.328,0,0,0,13.425,18.47ZM12.455,23a1.35,1.35,0,0,1-1.09.55,1.628,1.628,0,0,1-1.44-.99,4.9,4.9,0,0,1-.54-2.36,3.631,3.631,0,0,1,.23-1.39,1.515,1.515,0,0,1,.59-.76,1.425,1.425,0,0,1,.73-.21,1.476,1.476,0,0,1,1.23.65,4.3,4.3,0,0,1,.72,2.63A3.1,3.1,0,0,1,12.455,23Z"/><path d="M16.905,18.72A2.956,2.956,0,0,1,19,17.394a1.513,1.513,0,0,1,.882.256,1.722,1.722,0,0,1,.588.845,3.912,3.912,0,0,1,.15,1.257v2.673a2.245,2.245,0,0,0,.1.807.564.564,0,0,0,.242.267,1.377,1.377,0,0,0,.619.1v.246h-3.1v-.246h.13a1.041,1.041,0,0,0,.612-.133.7.7,0,0,0,.243-.393,4.048,4.048,0,0,0,.027-.643V19.862a2.6,2.6,0,0,0-.222-1.241.8.8,0,0,0-.749-.386,2.253,2.253,0,0,0-1.62.889v3.3a2.363,2.363,0,0,0,.075.786.633.633,0,0,0,.264.291,1.619,1.619,0,0,0,.68.092v.246h-3.1v-.246h.137a.738.738,0,0,0,.646-.242,1.771,1.771,0,0,0,.167-.927V20.1a10.153,10.153,0,0,0-.051-1.374.585.585,0,0,0-.157-.335.429.429,0,0,0-.284-.089,1.305,1.305,0,0,0-.458.1l-.1-.246,1.886-.766h.294Z"/></g></g></g></svg>