<svg xmlns="http://www.w3.org/2000/svg" viewBox="0 0 25.847 9.786"><title>w6</title><g id="Слой_2" data-name="Слой 2"><g id="Слой_3" data-name="Слой 3"><g id="w6"><path d="M5.64,1.8a3.318,3.318,0,0,0-.63-.93,3.23,3.23,0,0,0-.94-.63A2.939,2.939,0,0,0,2.93.011H.98A.944.944,0,0,0,.29.3.944.944,0,0,0,0,.991V8.8a.951.951,0,0,0,.29.7.935.935,0,0,0,.69.28.958.958,0,0,0,.7-.28.942.942,0,0,0,.28-.7V5.881h.97a2.939,2.939,0,0,0,1.14-.23,3.23,3.23,0,0,0,.94-.63,3.23,3.23,0,0,0,.63-.94,2.94,2.94,0,0,0,0-2.28ZM3.91,3.021a1.025,1.025,0,0,1-.31.65.973.973,0,0,1-.67.25H1.96V1.971h.97a.929.929,0,0,1,.67.25.952.952,0,0,1,.31.63Z"/><path d="M12.18,1.8a3.23,3.23,0,0,0-.63-.94A2.927,2.927,0,0,0,8.34.231a2.878,2.878,0,0,0-.94.63,3.23,3.23,0,0,0-.63.94,2.939,2.939,0,0,0-.23,1.14v3.9a2.951,2.951,0,0,0,.23,1.15,3.181,3.181,0,0,0,.63.93,2.878,2.878,0,0,0,.94.63,2.94,2.94,0,0,0,2.28,0,2.943,2.943,0,0,0,.93-.63,3.181,3.181,0,0,0,.63-.93,2.788,2.788,0,0,0,.24-1.15v-3.9A2.776,2.776,0,0,0,12.18,1.8Zm-1.72,5.04a.928.928,0,0,1-.26.67.976.976,0,0,1-.63.33.2.2,0,0,0-.09-.02.155.155,0,0,0-.08.02,1,1,0,0,1-.64-.33.971.971,0,0,1-.26-.67v-3.9a.969.969,0,0,1,.13-.51.772.772,0,0,1,.36-.33.953.953,0,0,1,.41-.14h.17a.959.959,0,0,1,.4.14.88.88,0,0,1,.36.33.969.969,0,0,1,.13.51Z"/><path d="M17.013,6.86,13.457,3.71a.942.942,0,0,1-.364-.77A2.866,2.866,0,0,1,13.324,1.8,2.931,2.931,0,0,1,14.892.231,2.863,2.863,0,0,1,16.033,0a2.819,2.819,0,0,1,1.134.231,2.991,2.991,0,0,1,.931.63,3.058,3.058,0,0,1,.637.938,2.788,2.788,0,0,1,.238,1.141.98.98,0,1,1-1.96,0,.987.987,0,0,0-.133-.5.847.847,0,0,0-.357-.343,1.007,1.007,0,0,0-.406-.14h-.168a1,1,0,0,0-.406.14.842.842,0,0,0-.357.343.977.977,0,0,0-.133.5l3.556,3.15a.94.94,0,0,1,.364.77,2.742,2.742,0,0,1-.238,1.134,3.087,3.087,0,0,1-.637.931,2.991,2.991,0,0,1-.931.63,2.819,2.819,0,0,1-1.134.231,2.863,2.863,0,0,1-1.141-.231,2.95,2.95,0,0,1-1.568-1.561,2.819,2.819,0,0,1-.231-1.134.98.98,0,1,1,1.96,0,.939.939,0,0,0,.133.49.952.952,0,0,0,.357.35,1.012,1.012,0,0,0,.406.14h.168a1.022,1.022,0,0,0,.406-.14.959.959,0,0,0,.357-.35A.949.949,0,0,0,17.013,6.86Z"/><path d="M20.96,0h3.907a.948.948,0,0,1,.693.287.944.944,0,0,1,.287.693.948.948,0,0,1-.287.693.948.948,0,0,1-.693.287h-.98V8.806a.958.958,0,0,1-.967.966.953.953,0,0,1-.692-.28.92.92,0,0,1-.288-.686V1.96h-.98a.944.944,0,0,1-.692-.287A.945.945,0,0,1,19.98.98a.942.942,0,0,1,.288-.693A.944.944,0,0,1,20.96,0Z"/></g></g></g></svg>