<svg xmlns="http://www.w3.org/2000/svg" viewBox="0 0 63.38 9.69"><title>w7</title><g id="Слой_2" data-name="Слой 2"><g id="Слой_3" data-name="Слой 3"><g id="w7"><path d="M8.68,2.25A3.812,3.812,0,0,0,6.94.68,8.392,8.392,0,0,0,3.77.21H0V.46H.35a1,1,0,0,1,.79.3,1.915,1.915,0,0,1,.19,1.09V7.84a2.149,2.149,0,0,1-.15,1.01.915.915,0,0,1-.83.38H0v.25H4.14A5.161,5.161,0,0,0,8.16,8.03,4.611,4.611,0,0,0,9.34,4.8,4.868,4.868,0,0,0,8.68,2.25ZM6.73,7.89A3.444,3.444,0,0,1,4.1,9a6.709,6.709,0,0,1-1.45-.19V.93a5.416,5.416,0,0,1,1.4-.2A3.507,3.507,0,0,1,6.73,1.84,4.189,4.189,0,0,1,7.78,4.86,4.247,4.247,0,0,1,6.73,7.89Z"/><path d="M14.192,9.226v.253H10.22V9.226h.329a.993.993,0,0,0,.834-.335,2.088,2.088,0,0,0,.164-1.053V1.85a3.083,3.083,0,0,0-.089-.93.616.616,0,0,0-.281-.294,1.3,1.3,0,0,0-.628-.164H10.22V.209h3.972V.462h-.335A.982.982,0,0,0,13.03.8a2.01,2.01,0,0,0-.171,1.053V7.838a3.083,3.083,0,0,0,.089.93.608.608,0,0,0,.287.294,1.26,1.26,0,0,0,.622.164Z"/><path d="M21.34,1.33A2.706,2.706,0,0,0,20.13.47,5.825,5.825,0,0,0,18.16.21H14.77V.46h.34a1.012,1.012,0,0,1,.8.3,2.012,2.012,0,0,1,.18,1.09V7.84a2.271,2.271,0,0,1-.13,1,.935.935,0,0,1-.85.39h-.34v.25h3.97V9.23h-.36a.967.967,0,0,1-.78-.3,1.891,1.891,0,0,1-.2-1.09V5.14c.3.06.58.11.84.14a6.387,6.387,0,0,0,.72.05,2.967,2.967,0,0,0,2.12-.71,2.441,2.441,0,0,0,.75-1.85A2.281,2.281,0,0,0,21.34,1.33Zm-1.59,3a1.6,1.6,0,0,1-1.22.55,4.4,4.4,0,0,1-.48-.03c-.19-.02-.4-.06-.65-.1V.89a4.6,4.6,0,0,1,.9-.13,2.073,2.073,0,0,1,1.03.26,1.677,1.677,0,0,1,.69.77,2.516,2.516,0,0,1,.25,1.12A1.958,1.958,0,0,1,19.75,4.33Z"/><path d="M30.345,6.915l.226.048-.793,2.516H22.6V9.226h.349a.933.933,0,0,0,.841-.383,2.22,2.22,0,0,0,.143-1.012V1.85A1.92,1.92,0,0,0,23.742.763a1,1,0,0,0-.793-.3H22.6V.209h4.2V.462A2.563,2.563,0,0,0,25.762.6a.838.838,0,0,0-.407.362,2.987,2.987,0,0,0-.109,1.046V7.831a1.9,1.9,0,0,0,.109.78.5.5,0,0,0,.253.212,4.476,4.476,0,0,0,1.066.068h.677a4.9,4.9,0,0,0,1.5-.157,1.95,1.95,0,0,0,.786-.557A4.541,4.541,0,0,0,30.345,6.915Z"/><path d="M39.12,1.37A4.188,4.188,0,0,0,35.99,0a4.415,4.415,0,0,0-3.12,1.21,4.7,4.7,0,0,0-1.51,3.6,4.882,4.882,0,0,0,1.31,3.52,4.247,4.247,0,0,0,3.21,1.36A4.307,4.307,0,0,0,39.11,8.3a4.87,4.87,0,0,0,1.33-3.51A4.723,4.723,0,0,0,39.12,1.37ZM38.03,8.19a2.7,2.7,0,0,1-2.16,1.02,2.4,2.4,0,0,1-1.97-.93,5.5,5.5,0,0,1-.97-3.5,5.176,5.176,0,0,1,.94-3.36A2.416,2.416,0,0,1,35.86.5a2.52,2.52,0,0,1,2.08.93,5.626,5.626,0,0,1,.94,3.54A5.023,5.023,0,0,1,38.03,8.19Z"/><path d="M46.711,9.479l-3.582-7.8V7.872a1.9,1.9,0,0,0,.184,1.067,1.015,1.015,0,0,0,.8.287h.328v.253H41.215V9.226h.328a.942.942,0,0,0,.834-.356,2.078,2.078,0,0,0,.15-1V1.816A2.1,2.1,0,0,0,42.39.927.761.761,0,0,0,42.038.6a1.9,1.9,0,0,0-.823-.133V.209H43.84L47.2,7.462,50.511.209h2.625V.462h-.321a.951.951,0,0,0-.841.356,2.078,2.078,0,0,0-.15,1V7.872a1.847,1.847,0,0,0,.191,1.067,1.015,1.015,0,0,0,.8.287h.321v.253H49.2V9.226h.328a.931.931,0,0,0,.834-.356,2.078,2.078,0,0,0,.15-1V1.679l-3.575,7.8Z"/><path d="M62.5,8.91a3.448,3.448,0,0,1-.71-1.2L58.56,0h-.24L55.06,7.63a4.181,4.181,0,0,1-.77,1.33,1.538,1.538,0,0,1-.75.27v.25h2.92V9.23a1.906,1.906,0,0,1-.87-.21.457.457,0,0,1-.2-.38,2.206,2.206,0,0,1,.23-.8l.63-1.46h3.59l.56,1.33a2.847,2.847,0,0,1,.27.95.47.47,0,0,1-.2.38,1.3,1.3,0,0,1-.74.19v.25h3.65V9.23A1.456,1.456,0,0,1,62.5,8.91ZM56.46,5.87l1.61-3.75,1.57,3.75Z"/></g></g></g></svg>