<svg xmlns="http://www.w3.org/2000/svg" viewBox="0 0 32.647 14.761"><title>w8</title><g id="Слой_2" data-name="Слой 2"><g id="Слой_3" data-name="Слой 3"><g id="w8"><path d="M4.1,2.534,2.433,1.96a.673.673,0,0,1-.5-.2.677.677,0,0,1-.2-.5A.7.7,0,0,1,1.915.784c.037-.046.1-.114.189-.2A1.782,1.782,0,0,1,2.447.322,2.78,2.78,0,0,1,2.93.1,1.847,1.847,0,0,1,3.553,0a2.058,2.058,0,0,1,.553.091A2.52,2.52,0,0,1,4.7.35a1.9,1.9,0,0,1,.476.4.776.776,0,0,1,.2.511.677.677,0,0,1-.2.5.673.673,0,0,1-.5.2.664.664,0,0,1-.588-.322,1.406,1.406,0,0,0-.2-.147A.612.612,0,0,0,3.553,1.4c-.01,0-.075.01-.2.028a.54.54,0,0,0-.336.224l-.028.028,1.68.56a.693.693,0,0,1,.7.7.707.707,0,0,1-.182.476,2.176,2.176,0,0,1-.2.2,2.013,2.013,0,0,1-.35.259,2.709,2.709,0,0,1-.483.224,1.8,1.8,0,0,1-.609.1A2.014,2.014,0,0,1,3,4.109a2.479,2.479,0,0,1-.6-.259,1.881,1.881,0,0,1-.476-.4.769.769,0,0,1-.2-.511.693.693,0,0,1,.7-.7.627.627,0,0,1,.588.322.756.756,0,0,0,.189.154.634.634,0,0,0,.343.084,1.751,1.751,0,0,0,.2-.035A.632.632,0,0,0,4.1,2.534Z"/><path d="M6.381,2.1a1.978,1.978,0,0,1,.168-.812A2.186,2.186,0,0,1,7.669.168,1.974,1.974,0,0,1,8.481,0a1.871,1.871,0,0,1,.6.091,2.34,2.34,0,0,1,.469.217A2.424,2.424,0,0,1,9.9.56a2.272,2.272,0,0,1,.21.21.668.668,0,0,1,.2.49.693.693,0,0,1-.7.7.668.668,0,0,1-.574-.294,1.025,1.025,0,0,0-.182-.161.593.593,0,0,0-.364-.1.671.671,0,0,0-.49.21.673.673,0,0,0-.21.49.748.748,0,0,0,.14.42.559.559,0,0,0,.343.245,2.084,2.084,0,0,0,.217.035.634.634,0,0,0,.343-.084.8.8,0,0,0,.189-.154A.625.625,0,0,1,9.6,2.24a.693.693,0,0,1,.7.7.757.757,0,0,1-.2.511,1.99,1.99,0,0,1-.49.4,2.665,2.665,0,0,1-.6.259,1.915,1.915,0,0,1-.532.091,1.864,1.864,0,0,1-.616-.1,2.224,2.224,0,0,1-.476-.224,2.569,2.569,0,0,1-.322-.238c-.084-.075-.136-.121-.154-.14a2.027,2.027,0,0,1-.294-.434,2.058,2.058,0,0,1-.161-.42A2.264,2.264,0,0,1,6.4,2.3C6.386,2.205,6.381,2.138,6.381,2.1Z"/><path d="M14.109,2.114a.641.641,0,0,0-.1-.35.841.841,0,0,0-.252-.252.6.6,0,0,0-.35-.1.673.673,0,0,0-.491.21.677.677,0,0,0-.21.49v1.4a.7.7,0,1,1-1.4,0V.714a.675.675,0,0,1,.2-.5.675.675,0,0,1,.5-.2.634.634,0,0,1,.5.21,1.918,1.918,0,0,1,.9-.21,1.978,1.978,0,0,1,.812.168,2.186,2.186,0,0,1,1.12,1.12,1.994,1.994,0,0,1,.168.812.7.7,0,1,1-1.4,0Z"/><path d="M20.467,2.2a.648.648,0,0,0,.19-.48,1.147,1.147,0,0,0-.12-.5,2.586,2.586,0,0,0-.3-.46,3,3,0,0,0-.42-.38,2.2,2.2,0,0,0-.45-.24.96.96,0,0,0-.25-.09,2.5,2.5,0,0,0-.53-.05,2.422,2.422,0,0,0-.45.04.185.185,0,0,1-.07.02c-.01,0-.02.01-.03.01a.06.06,0,0,0-.04.01h-.01a.683.683,0,0,1-.13.04,1.091,1.091,0,0,1-.11.06c-.04.02-.08.04-.13.06a2.4,2.4,0,0,0-.58.44,1.814,1.814,0,0,0-.38.64.478.478,0,0,0-.05.13q-.03.1-.06.27a3.635,3.635,0,0,0-.04.39,1.824,1.824,0,0,0,.05.45.142.142,0,0,1,.02.06.09.09,0,0,0,.01.05.06.06,0,0,1,.01.04.086.086,0,0,0,.03.06c.02.06.04.11.06.17s.05.11.08.17a1.091,1.091,0,0,1,.06.11.474.474,0,0,0,.1.1,3.3,3.3,0,0,0,.37.4,1.959,1.959,0,0,0,.55.33c.03.01.11.04.25.08a2.027,2.027,0,0,0,.53.05,2.517,2.517,0,0,0,.52-.06,1.883,1.883,0,0,0,.58-.24v-.02a.624.624,0,0,0,.32-.59.683.683,0,0,0-.21-.49.644.644,0,0,0-.7-.17.882.882,0,0,0-.2.09.535.535,0,0,1-.34.08.766.766,0,0,1-.25-.04.893.893,0,0,1-.13-.08.663.663,0,0,1-.2-.23l1.97-.01A.676.676,0,0,0,20.467,2.2ZM18,1.751c.02-.03.05-.06.08-.11a.426.426,0,0,1,.12-.11c.02-.02.03-.03.04-.03a.591.591,0,0,1,.12-.06.677.677,0,0,1,.26-.04.727.727,0,0,1,.25.04c.02.01.07.04.14.08a.529.529,0,0,1,.21.23Z"/><path d="M18.042.07a.033.033,0,0,0-.021.007c0,.005-.016.007-.034.007A.04.04,0,0,1,17.958.1.117.117,0,0,1,18,.084.092.092,0,0,0,18.042.07Z"/><path d="M25.617,2.2a.648.648,0,0,0,.19-.48,1.132,1.132,0,0,0-.11-.5,2.653,2.653,0,0,0-.31-.46,3,3,0,0,0-.42-.38,2.437,2.437,0,0,0-.44-.24,1.112,1.112,0,0,0-.26-.09,2.5,2.5,0,0,0-.53-.05,2.422,2.422,0,0,0-.45.04.185.185,0,0,1-.07.02c-.01,0-.01,0-.02.01a.09.09,0,0,0-.05.01h-.01a.834.834,0,0,1-.12.04l-.12.06a1.339,1.339,0,0,1-.12.06,2.071,2.071,0,0,0-.58.44,1.7,1.7,0,0,0-.39.64c-.01.01-.02.06-.05.13s-.04.16-.06.27a3.635,3.635,0,0,0-.04.39,2.477,2.477,0,0,0,.05.45.142.142,0,0,1,.02.06.09.09,0,0,0,.01.05.06.06,0,0,1,.01.04.086.086,0,0,0,.03.06,1.22,1.22,0,0,0,.07.17c.02.05.04.11.07.17.02.03.04.07.07.11a.284.284,0,0,0,.09.1,3.45,3.45,0,0,0,.38.4,1.9,1.9,0,0,0,.54.33c.03.01.11.04.25.08a2.063,2.063,0,0,0,.54.05,2.427,2.427,0,0,0,.51-.06,1.883,1.883,0,0,0,.58-.24v-.02a.624.624,0,0,0,.32-.59.714.714,0,0,0-.2-.49.688.688,0,0,0-.5-.21.654.654,0,0,0-.21.04.882.882,0,0,0-.2.09.5.5,0,0,1-.33.08.783.783,0,0,1-.26-.04c-.01-.01-.06-.03-.13-.08a.663.663,0,0,1-.2-.23l1.97-.01A.676.676,0,0,0,25.617,2.2Zm-2.47-.45c.02-.03.05-.06.08-.11a.426.426,0,0,1,.12-.11c.02-.02.03-.03.04-.03a.591.591,0,0,1,.12-.06.677.677,0,0,1,.26-.04.727.727,0,0,1,.25.04c.02.01.07.04.14.08a.529.529,0,0,1,.21.23Z"/><path d="M23.194.07a.033.033,0,0,0-.021.007c0,.005-.016.007-.034.007A.041.041,0,0,1,23.11.1a.117.117,0,0,1,.042-.014A.1.1,0,0,0,23.194.07Z"/><path d="M26.82.7a.677.677,0,0,1,.2-.5.678.678,0,0,1,.5-.2.687.687,0,0,1,.5.21,2.074,2.074,0,0,1,.427-.154A2.005,2.005,0,0,1,28.92,0a1.978,1.978,0,0,1,.812.168,2.186,2.186,0,0,1,1.12,1.12,1.978,1.978,0,0,1,.168.812V3.5a.7.7,0,1,1-1.4,0V2.1a.643.643,0,0,0-.1-.35A.8.8,0,0,0,29.27,1.5a.6.6,0,0,0-.35-.1.671.671,0,0,0-.49.21.673.673,0,0,0-.21.49V3.5a.7.7,0,1,1-1.4,0Z"/><path d="M0,8.475a.677.677,0,0,1,.2-.5.677.677,0,0,1,.5-.2.675.675,0,0,1,.357.1.79.79,0,0,1,.259.252c.131.271.261.534.392.791s.261.52.392.791l.742-1.456a.7.7,0,0,1,.245-.343.708.708,0,0,1,.826,0,.7.7,0,0,1,.245.343L4.9,9.707l.742-1.456a.7.7,0,0,1,.245-.343A.661.661,0,0,1,6.3,7.775a.693.693,0,0,1,.7.7.657.657,0,0,1-.126.406l-1.33,2.674a.674.674,0,0,1-.644.42.663.663,0,0,1-.371-.105A.806.806,0,0,1,4.27,11.6L3.5,10.043l-.756,1.512a.674.674,0,0,1-.644.42.67.67,0,0,1-.42-.14.726.726,0,0,1-.252-.364l-1.3-2.59A.657.657,0,0,1,0,8.475Z"/><path d="M10.808,9.889a.641.641,0,0,0-.1-.35.8.8,0,0,0-.252-.252.592.592,0,0,0-.35-.1.718.718,0,0,0-.7.7v1.4a.7.7,0,1,1-1.4,0v-2.8a.693.693,0,0,1,.7-.7.634.634,0,0,1,.5.21,1.918,1.918,0,0,1,.9-.21,1.978,1.978,0,0,1,.812.168,2.186,2.186,0,0,1,1.12,1.12,1.978,1.978,0,0,1,.168.812.7.7,0,1,1-1.4,0Z"/><path d="M13.216,6.655a.693.693,0,1,1,.2.5A.677.677,0,0,1,13.216,6.655Z"/><path d="M13.916,7.775a.693.693,0,0,1,.7.7v2.8a.7.7,0,1,1-1.4,0v-2.8a.693.693,0,0,1,.7-.7Z"/><path d="M18.424,9.175h-.7a.7.7,0,1,1,0-1.4h.7v-2.1a.7.7,0,1,1,1.4,0v4.2a1.978,1.978,0,0,1-.168.812,2.186,2.186,0,0,1-1.12,1.12,2.046,2.046,0,0,1-1.624,0,2.186,2.186,0,0,1-1.12-1.12,1.978,1.978,0,0,1-.168-.812.7.7,0,1,1,1.4,0,.633.633,0,0,0,.1.35.71.71,0,0,0,.6.35.718.718,0,0,0,.7-.7Z"/><path d="M20.832,6.655a.693.693,0,1,1,.2.5A.673.673,0,0,1,20.832,6.655Z"/><path d="M21.532,7.775a.692.692,0,0,1,.7.7v2.8a.7.7,0,1,1-1.4,0v-2.8a.693.693,0,0,1,.7-.7Z"/><path d="M23.24,8.475a.693.693,0,0,1,.7-.7.687.687,0,0,1,.5.21,2.03,2.03,0,0,1,1.708-.042,2.186,2.186,0,0,1,1.12,1.12,1.978,1.978,0,0,1,.168.812v1.4a.7.7,0,1,1-1.4,0v-1.4a.641.641,0,0,0-.1-.35.819.819,0,0,0-.252-.252.6.6,0,0,0-.35-.1.718.718,0,0,0-.7.7v1.4a.7.7,0,1,1-1.4,0Z"/><path d="M32.447,7.961a.7.7,0,0,0-.5-.2.672.672,0,0,0-.5.21,1.869,1.869,0,0,0-.9-.21,1.992,1.992,0,0,0-.81.17,2.094,2.094,0,0,0-1.12,1.12,2.015,2.015,0,0,0,0,1.62,2.094,2.094,0,0,0,1.12,1.12,1.992,1.992,0,0,0,.81.17,1.851,1.851,0,0,0,.7-.13v.83a.6.6,0,0,1-.1.35.747.747,0,0,1-.25.25.558.558,0,0,1-.35.1.718.718,0,0,1-.7-.7.7.7,0,1,0-1.4,0,1.992,1.992,0,0,0,.17.81,2.094,2.094,0,0,0,1.12,1.12,2.015,2.015,0,0,0,1.62,0,2.094,2.094,0,0,0,1.12-1.12,1.992,1.992,0,0,0,.17-.81v-4.2A.7.7,0,0,0,32.447,7.961Zm-1.41,2.39a.666.666,0,0,1-.49.21.715.715,0,0,1-.6-.35.6.6,0,0,1-.1-.35.718.718,0,0,1,.7-.7.558.558,0,0,1,.35.1.747.747,0,0,1,.25.25.6.6,0,0,1,.1.35A.666.666,0,0,1,31.037,10.351Z"/></g></g></g></svg>