<svg xmlns="http://www.w3.org/2000/svg" viewBox="0 0 14.663 25.616"><title>w9</title><g id="Слой_2" data-name="Слой 2"><g id="Слой_3" data-name="Слой 3"><g id="w9"><path d="M2.119,0V2.058H3.582v.478H2.119V6.6a1.365,1.365,0,0,0,.174.82.557.557,0,0,0,.448.212.786.786,0,0,0,.438-.14.907.907,0,0,0,.328-.414h.266A2.139,2.139,0,0,1,3.1,8.083a1.461,1.461,0,0,1-.9.339,1.217,1.217,0,0,1-.615-.174,1.053,1.053,0,0,1-.444-.5,2.618,2.618,0,0,1-.144-1V2.536H0V2.311A2.607,2.607,0,0,0,.769,1.8,4.045,4.045,0,0,0,1.47.95,7.671,7.671,0,0,0,1.907,0Z"/><path d="M9.68,2.058V5.852a9.561,9.561,0,0,0,.051,1.329A.6.6,0,0,0,9.9,7.52a.4.4,0,0,0,.263.1,1.211,1.211,0,0,0,.479-.116l.095.239-1.873.773H8.552V7.185a5.69,5.69,0,0,1-1.231,1.1,1.87,1.87,0,0,1-.895.226,1.437,1.437,0,0,1-.913-.3,1.575,1.575,0,0,1-.536-.783A4.7,4.7,0,0,1,4.826,6.07v-2.8a1.374,1.374,0,0,0-.1-.615A.634.634,0,0,0,4.447,2.4a1.653,1.653,0,0,0-.68-.085V2.058H5.961v4.19a1.566,1.566,0,0,0,.3,1.148A1.059,1.059,0,0,0,7,7.67a1.538,1.538,0,0,0,.667-.185,3.625,3.625,0,0,0,.885-.7V3.233a1,1,0,0,0-.2-.721,1.265,1.265,0,0,0-.81-.2V2.058Z"/><path d="M13.009,0V2.058h1.463v.478H13.009V6.6a1.365,1.365,0,0,0,.174.82.555.555,0,0,0,.448.212.785.785,0,0,0,.437-.14.9.9,0,0,0,.328-.414h.267a2.14,2.14,0,0,1-.677,1.008,1.456,1.456,0,0,1-.9.339,1.214,1.214,0,0,1-.615-.174,1.06,1.06,0,0,1-.445-.5,2.641,2.641,0,0,1-.143-1V2.536H10.89V2.311a2.619,2.619,0,0,0,.769-.51,4.042,4.042,0,0,0,.7-.851A7.635,7.635,0,0,0,12.8,0Z"/><path d="M7.39,10.356A2.793,2.793,0,0,0,5.1,9.276a2.852,2.852,0,0,0-1.47.4,2.913,2.913,0,0,0-1.13,1.26,3.849,3.849,0,0,0-.42,1.71,3.518,3.518,0,0,0,.7,2.14,2.662,2.662,0,0,0,2.25,1.12,2.864,2.864,0,0,0,2.69-1.73,4.133,4.133,0,0,0,.4-1.7A3.289,3.289,0,0,0,7.39,10.356Zm-.97,4.52a1.328,1.328,0,0,1-1.1.55,1.615,1.615,0,0,1-1.43-.99,4.868,4.868,0,0,1-.54-2.36,3.647,3.647,0,0,1,.22-1.39,1.5,1.5,0,0,1,.59-.75,1.4,1.4,0,0,1,.73-.22,1.478,1.478,0,0,1,1.24.66A4.268,4.268,0,0,1,6.85,13,3.149,3.149,0,0,1,6.42,14.876Z"/><path d="M10.874,9.273v1.408q.786-1.408,1.614-1.408a.877.877,0,0,1,.622.229.7.7,0,0,1,.246.53.625.625,0,0,1-.178.451.569.569,0,0,1-.424.184.9.9,0,0,1-.536-.235.886.886,0,0,0-.441-.236.408.408,0,0,0-.267.136,3.305,3.305,0,0,0-.636.923v3a1.865,1.865,0,0,0,.13.786.706.706,0,0,0,.315.308,1.378,1.378,0,0,0,.649.123v.246H8.762v-.246a1.334,1.334,0,0,0,.711-.15.58.58,0,0,0,.239-.349,3.5,3.5,0,0,0,.034-.663V11.884a10.045,10.045,0,0,0-.044-1.3.516.516,0,0,0-.164-.3.461.461,0,0,0-.3-.1,1.339,1.339,0,0,0-.478.1l-.068-.246,1.893-.766Z"/><path d="M2.789,19.036v5.031a2.276,2.276,0,0,0,.086.783.6.6,0,0,0,.252.291,1.37,1.37,0,0,0,.612.1v.246H.7v-.246a1.425,1.425,0,0,0,.616-.089.613.613,0,0,0,.249-.294,2.2,2.2,0,0,0,.092-.786V21.654a8.56,8.56,0,0,0-.061-1.319.532.532,0,0,0-.151-.3.422.422,0,0,0-.28-.086,1.358,1.358,0,0,0-.465.1L.6,19.8l1.886-.766Z"/><path d="M2.222,15.762a.688.688,0,0,1,.69.69.674.674,0,0,1-.2.492.657.657,0,0,1-.488.205.694.694,0,1,1,0-1.387Z"/><path d="M9.71,24.7a.383.383,0,0,1-.19.05.287.287,0,0,1-.18-.07.487.487,0,0,1-.11-.27,9.936,9.936,0,0,1-.04-1.1v-2.12a3.88,3.88,0,0,0-.12-1.21,1.277,1.277,0,0,0-.59-.66,2.9,2.9,0,0,0-1.37-.28,2.579,2.579,0,0,0-1.69.49,1.405,1.405,0,0,0-.6,1.08.69.69,0,0,0,.16.49.516.516,0,0,0,.41.17.51.51,0,0,0,.42-.17.648.648,0,0,0,.16-.48l-.01-.4a.7.7,0,0,1,.26-.53.952.952,0,0,1,.68-.23,1.062,1.062,0,0,1,.87.35,2.014,2.014,0,0,1,.3,1.28v.25a15.214,15.214,0,0,0-2.31.99,2.861,2.861,0,0,0-.98.88,1.544,1.544,0,0,0-.2.79A1.613,1.613,0,0,0,5,25.166a1.4,1.4,0,0,0,1.07.45,1.793,1.793,0,0,0,.79-.18,9.858,9.858,0,0,0,1.21-.86,1.264,1.264,0,0,0,.2.8.674.674,0,0,0,.53.23c.47,0,.96-.34,1.47-1.03V24.2A4.735,4.735,0,0,1,9.71,24.7Zm-1.64-.56a2.519,2.519,0,0,1-1.37.68.913.913,0,0,1-.68-.32,1.208,1.208,0,0,1-.29-.82,1.257,1.257,0,0,1,.23-.72,2.45,2.45,0,0,1,.77-.63c.2-.11.65-.3,1.34-.58Z"/><path d="M12.886,15.762v8.305a2.28,2.28,0,0,0,.085.78.609.609,0,0,0,.263.29,1.517,1.517,0,0,0,.663.1v.246H10.828v-.246a1.331,1.331,0,0,0,.588-.089.588.588,0,0,0,.246-.294,2.292,2.292,0,0,0,.089-.786V18.38a9.807,9.807,0,0,0-.048-1.3.569.569,0,0,0-.154-.332.4.4,0,0,0-.27-.089,1.278,1.278,0,0,0-.451.11l-.116-.24,1.866-.765Z"/></g></g></g></svg>