<svg xmlns="http://www.w3.org/2000/svg" viewBox="0 0 810.108 270"><defs><style>.cls-1{fill:#366ce1;}.cls-2,.cls-3{fill:#1c1c20;}.cls-2{opacity:0.62;}.cls-3{opacity:0.38;}.cls-4{fill:#121221;}</style></defs><title>Writing</title><g id="Слой_2" data-name="Слой 2"><g id="Слой_3" data-name="Слой 3"><g id="Writing"><path class="cls-1" d="M40.072,220c-.747,1-7.75,10-20,10-1.245,0-12.65-.2-20-10V10h40Z"/><path class="cls-1" d="M20.072,230c-1.245,0-12.65-.2-20-10q10,25,20,50,10-25,20-50C39.325,221,32.322,230,20.072,230Z"/><path class="cls-2" d="M20.072,230c-1.245,0-12.65-.2-20-10q10,25,20,50,10-25,20-50C39.325,221,32.322,230,20.072,230Z"/><path class="cls-1" d="M.072,10c-.72-3.327,9.455-10,20-10s20.721,6.673,20,10C38.779,15.97,1.366,15.97.072,10Z"/><path class="cls-3" d="M.036,10c-.721-3.327,9.454-10,20-10s20.721,6.673,20,10C38.743,15.97,1.329,15.97.036,10Z"/><polygon class="cls-4" points="390.108 105 390.108 165 410.108 165 410.108 185 350.108 185 350.108 165 370.108 165 370.108 105 350.108 105 350.108 85 410.108 85 410.108 105 390.108 105"/><polygon class="cls-4" points="570.108 105 570.108 165 590.108 165 590.108 185 530.108 185 530.108 165 550.108 165 550.108 105 530.108 105 530.108 85 590.108 85 590.108 105 570.108 105"/><polygon class="cls-4" points="700.108 85 700.108 185 680.108 185 620.108 115.59 620.108 185 600.108 185 600.108 85 620.108 85 680.108 154.41 680.108 85 700.108 85"/><polygon class="cls-4" points="130.108 185 130.108 85 150.108 85 150.108 154.41 166.908 134.95 180.118 119.64 193.328 134.95 210.108 154.38 210.108 85 230.108 85 230.108 185 210.108 185 210.108 184.99 180.118 150.25 150.128 185 130.108 185"/><path class="cls-4" d="M340.108,115a30,30,0,0,0-30-30h-70V185h20V145h50a10,10,0,0,1,10,10v30h20V155a29.862,29.862,0,0,0-7.65-20A29.862,29.862,0,0,0,340.108,115Zm-80,10V105h50a10,10,0,0,1,0,20Z"/><path class="cls-4" d="M810.108,125v10a49.16,49.16,0,0,1-1.01,10,50.013,50.013,0,1,1-13.64-45.35l-14.14,14.14a30,30,0,1,0,7.07,31.21h-28.28V125Z"/><polygon class="cls-4" points="520.108 85 520.108 105 480.108 105 480.108 185 460.108 185 460.108 105 420.108 105 420.108 85 520.108 85"/></g></g></g></svg>