<svg xmlns="http://www.w3.org/2000/svg" viewBox="0 0 869.98 300.01"><defs><style>.cls-1,.cls-3,.cls-4{fill:#121221;}.cls-2{fill:#555ccc;}.cls-3{opacity:0.62;}.cls-4{opacity:0.38;}</style></defs><title>actor</title><g id="Слой_2" data-name="Слой 2"><g id="Слой_2-2" data-name="Слой 2"><g id="actor"><path class="cls-1" d="M709.98,160.01a50,50,0,1,0,50,50A50.005,50.005,0,0,0,709.98,160.01Zm0,90a40,40,0,1,1,40-40A40,40,0,0,1,709.98,250.01Z"/><path class="cls-2" d="M532.91,238.29l7.07,7.07a50,50,0,1,1,0-70.7l-7.07,7.07a40,40,0,1,0,0,56.56Z"/><path class="cls-2" d="M429.7,215.01l-4.51-10-19.71-43.73.01-.01-.49-1.08h-.01l-.08-.18h-9.84l-.08.18v.02l-.47,1.05h-.01l-19.72,43.75-4.51,10-20.28,45h10.97l20.28-45h37.48l20.28,45h10.97Zm-19.71-2.96-.02-.04h.02Zm-24.23-7.04,14.23-31.58,14.24,31.58Z"/><path class="cls-1" d="M856.55,215.01a29.994,29.994,0,0,0-16.57-55h-70v100h10v-40h60a19.994,19.994,0,0,1,20,20v20h10v-20A29.923,29.923,0,0,0,856.55,215.01Zm-26.57-2.96-.02-.04h.02Zm10-2.04h-60v-40h60a20,20,0,0,1,0,40Z"/><polygon class="cls-2" points="659.98 160.01 659.98 170.01 614.98 170.01 614.98 260.01 604.98 260.01 604.98 170.01 559.98 170.01 559.98 160.01 659.98 160.01"/><circle class="cls-2" cx="149.997" cy="74.999" r="74.999"/><path class="cls-2" d="M300,255.011h0a45,45,0,0,1-45,45H45a45,45,0,0,1-45-45H0a105,105,0,0,1,105-105h90A105,105,0,0,1,300,255.011Z"/><path class="cls-3" d="M300,255.011h0a45,45,0,0,1-45,45H45a45,45,0,0,1-45-45H0a105,105,0,0,1,105-105h90A105,105,0,0,1,300,255.011Z"/><path class="cls-4" d="M125.678,133.147,203.1,88.482a13.789,13.789,0,0,0,0-23.888l-77.42-44.665A13.789,13.789,0,0,0,105,31.872V121.2A13.789,13.789,0,0,0,125.678,133.147Z"/></g></g></g></svg>