<svg xmlns="http://www.w3.org/2000/svg" viewBox="0 0 1020.712 300"><defs><style>.cls-1{fill:#555ccc;}.cls-2,.cls-3{fill:#121221;}.cls-3{opacity:0.38;}.cls-4{fill:#1c1e20;}.cls-5{fill:#cccccc;}</style></defs><title>author</title><g id="Слой_2" data-name="Слой 2"><g id="Слой_2-2" data-name="Слой 2"><g id="author"><polygon class="cls-1" points="800.712 100 800.712 200 780.712 200 780.712 160 720.712 160 720.712 200 700.712 200 700.712 100 720.712 100 720.712 140 780.712 140 780.712 100 800.712 100"/><path class="cls-1" d="M580.712,100v50a50,50,0,0,1-100,0V100h20v50a30,30,0,0,0,60,0V100Z"/><path class="cls-2" d="M1020.712,130a30,30,0,0,0-30-30h-70V200h20V160h50a10,10,0,0,1,10,10v30h20V170a29.862,29.862,0,0,0-7.65-20A29.862,29.862,0,0,0,1020.712,130Zm-80,10V120h50a10,10,0,0,1,0,20Z"/><path class="cls-2" d="M860.712,100a50,50,0,1,0,50,50A50.005,50.005,0,0,0,860.712,100Zm0,80a30,30,0,1,1,30-30A30,30,0,0,1,860.712,180Z"/><path class="cls-1" d="M431.482,101.95,430.7,100h-19.98l-.78,1.94L370.712,200h21.55l11.2-28h34.5l11.2,28h21.55ZM411.462,152l9.25-23.13,9.25,23.13Z"/><polygon class="cls-1" points="690.712 100 690.712 120 650.712 120 650.712 200 630.712 200 630.712 120 590.712 120 590.712 100 690.712 100"/><ellipse class="cls-3" cx="180.388" cy="150" rx="150.324" ry="150"/><path class="cls-1" d="M228.893,29.31a5.412,5.412,0,0,1-3.859,1.6H135.742a5.41,5.41,0,0,1-3.859-1.6,131.01,131.01,0,0,1,97.01,0Z"/><path class="cls-1" d="M266.584,52.52a5.024,5.024,0,0,1-1.463.21H95.655a5.024,5.024,0,0,1-1.463-.21,130.4,130.4,0,0,1,13.93-10.7H252.654A130.6,130.6,0,0,1,266.584,52.52Z"/><path class="cls-1" d="M286.387,74.41a5.458,5.458,0,0,1-1.223.14H75.612a5.458,5.458,0,0,1-1.223-.14,129.638,129.638,0,0,1,8.619-10.77h194.76A129.638,129.638,0,0,1,286.387,74.41Z"/><path class="cls-1" d="M298.563,95.19a5.421,5.421,0,0,1-3.377,1.17H65.59a5.419,5.419,0,0,1-3.377-1.17q2.329-4.98,5.061-9.74H293.5Q296.223,90.205,298.563,95.19Z"/><path class="cls-1" d="M306.68,117.97a5.093,5.093,0,0,1-1.473.21H55.569a5.1,5.1,0,0,1-1.474-.21q1.383-5.445,3.217-10.7H303.463Q305.3,112.52,306.68,117.97Z"/><path class="cls-1" d="M310.288,140H50.488q.42-5.52,1.292-10.91H309Q309.868,134.475,310.288,140Z"/><path class="cls-1" d="M310.669,150c0,3.98-.18,7.93-.531,11.82H50.638c-.351-3.89-.531-7.84-.531-11.82Z"/><path class="cls-1" d="M308.334,174.62q-1.053,5.49-2.556,10.8a5.446,5.446,0,0,1-.571.03H55.569a5.479,5.479,0,0,1-.572-.03q-1.5-5.31-2.555-10.8a5.423,5.423,0,0,1,3.127-.98H305.207A5.423,5.423,0,0,1,308.334,174.62Z"/><path class="cls-1" d="M300.317,200.87v.01c-1.163,2.73-2.416,5.4-3.758,8.03a5.116,5.116,0,0,1-1.373.18H65.59a5.116,5.116,0,0,1-1.373-.18c-1.343-2.63-2.595-5.3-3.758-8.03v-.01a5.455,5.455,0,0,1,5.131-3.6h229.6A5.455,5.455,0,0,1,300.317,200.87Z"/><path class="cls-1" d="M288.722,222.23a127.823,127.823,0,0,1-7.837,10.5H79.891a127.6,127.6,0,0,1-7.837-10.5,5.434,5.434,0,0,1,3.558-1.32H285.164A5.434,5.434,0,0,1,288.722,222.23Z"/><path class="cls-1" d="M268.518,245.74A129.757,129.757,0,0,1,255.3,256.36H105.476a129.757,129.757,0,0,1-13.218-10.62,5.374,5.374,0,0,1,3.4-1.19H265.121A5.374,5.374,0,0,1,268.518,245.74Z"/><path class="cls-1" d="M229.464,270.46a131,131,0,0,1-98.152,0,5.419,5.419,0,0,1,4.43-2.28h89.292A5.419,5.419,0,0,1,229.464,270.46Z"/><path class="cls-2" d="M216.993,238.18l-21.26,21.21L4.4,68.47A15.016,15.016,0,0,1,25.663,47.26Z"/><path class="cls-4" d="M216.8,237.989a2.451,2.451,0,0,1,.184.2c.014,0,.007.007.007.007q2.052,6.12,4.1,12.247,3.274,9.78,6.534,19.559-9.8-3.267-19.6-6.52-6.144-2.036-12.274-4.087s-.007.007-.007-.007a2.294,2.294,0,0,1-.2-.184A15.016,15.016,0,0,1,216.8,237.989Z"/><path class="cls-5" d="M216.429,238.36a2.659,2.659,0,0,1,.185.2c.013,0,.007.007.007.007q2.126,6.047,4.245,12.1,3.394,9.66,6.773,19.32-9.681-3.387-19.361-6.759-6.069-2.11-12.124-4.236s-.007.007-.007-.007a2.675,2.675,0,0,1-.2-.184c-5.867-5.855-6.041-15.185-.389-20.825S210.562,232.506,216.429,238.36Z"/><path class="cls-4" d="M195.733,259.393l.007-.007c0,.014.007.007.007.007Z"/><path class="cls-4" d="M216.992,238.18v.014s.007-.007-.007-.007Z"/><path class="cls-1" d="M223.894,259.05c.022.022.043.043.063.067,0,0,0,0,0,0q.7,2.085,1.4,4.174,1.116,3.333,2.227,6.666-3.341-1.113-6.681-2.222-2.094-.695-4.183-1.393s0,0,0,0a.818.818,0,0,1-.068-.063,5.118,5.118,0,1,1,7.246-7.23Z"/></g></g></g></svg>