<svg xmlns="http://www.w3.org/2000/svg" viewBox="0 0 1009.536 285.401"><defs><style>.cls-1{fill:#555ccc;}.cls-2,.cls-3,.cls-4{fill:#121221;}.cls-2{opacity:0.38;}.cls-3{opacity:0.62;}</style></defs><title>designer</title><g id="Слой_2" data-name="Слой 2"><g id="Слой_2-2" data-name="Слой 2"><g id="designer"><path class="cls-1" d="M54.5,151.76c-.819,0-1.634.018-2.449.031Q53.273,151.761,54.5,151.76Z"/><path class="cls-1" d="M149.351,184.389v50.846c0,38.392-41.6,62.676-74.811,43.416A149.367,149.367,0,0,1,146.971.03a92.195,92.195,0,0,0,2.38,184.359Z"/><path class="cls-1" d="M241.536,92.206a92.19,92.19,0,0,1-184.37,1.47,56.771,56.771,0,0,0,14.712,36.745c.189.218.379.417.578.626q1.338,1.422,2.76,2.76c.209.2.408.389.626.579a81.846,81.846,0,0,0,115.68-115.68c-.19-.218-.38-.417-.579-.626q-1.338-1.422-2.76-2.76c-.209-.2-.408-.389-.626-.579C177.787,5.9,163.484.36,149.351,0a105.527,105.527,0,0,1,21.066,2.439A92.224,92.224,0,0,1,241.536,92.206Z"/><path class="cls-2" d="M241.536,92.206a92.19,92.19,0,0,1-184.37,1.47,56.771,56.771,0,0,0,14.712,36.745c.189.218.379.417.578.626q1.338,1.422,2.76,2.76c.209.2.408.389.626.579a81.846,81.846,0,0,0,115.68-115.68c-.19-.218-.38-.417-.579-.626q-1.338-1.422-2.76-2.76c-.209-.2-.408-.389-.626-.579C177.787,5.9,163.484.36,149.351,0a105.527,105.527,0,0,1,21.066,2.439A92.224,92.224,0,0,1,241.536,92.206Z"/><path class="cls-1" d="M114.218,35.313a13.684,13.684,0,0,1,13.517,13.756V92.194a35.287,35.287,0,0,0-70.559-1,56.909,56.909,0,0,1,56.9-55.885Z"/><path class="cls-3" d="M114.218,35.313a13.684,13.684,0,0,1,13.517,13.756V92.194a35.287,35.287,0,0,0-70.559-1,56.909,56.909,0,0,1,56.9-55.885Z"/><polygon class="cls-4" points="809.536 195.401 809.536 230.401 899.536 230.401 899.536 240.401 809.536 240.401 809.536 275.401 899.536 275.401 899.536 285.401 799.536 285.401 799.536 185.401 899.536 185.401 899.536 195.401 809.536 195.401"/><path class="cls-4" d="M996.106,240.4a29.994,29.994,0,0,0-16.57-55h-70v100h10v-40h60a19.994,19.994,0,0,1,20,20v20h10v-20A29.923,29.923,0,0,0,996.106,240.4Zm-26.57-2.96-.02-.04h.02Zm10-2.04h-60v-40h60a20,20,0,0,1,0,40Z"/><polygon class="cls-1" points="319.536 195.401 319.536 230.401 409.536 230.401 409.536 240.401 319.536 240.401 319.536 275.401 409.536 275.401 409.536 285.401 309.536 285.401 309.536 185.401 409.536 185.401 409.536 195.401 319.536 195.401"/><path class="cls-1" d="M249.536,185.4h-50v100h50a50,50,0,0,0,0-100Zm0,90h-40v-80h40a40,40,0,0,1,0,80Z"/><path class="cls-1" d="M429.536,212.9a17.506,17.506,0,0,0,17.5,17.5h45a27.5,27.5,0,0,1,7.5,53.95,26.911,26.911,0,0,1-7.5,1.05h-72.5v-10h72.5a17.5,17.5,0,0,0,0-35h-45a27.5,27.5,0,0,1-7.5-53.95,26.911,26.911,0,0,1,7.5-1.05h72.5v10h-72.5A17.506,17.506,0,0,0,429.536,212.9Z"/><polygon class="cls-1" points="554.536 195.401 554.536 275.401 569.536 275.401 569.536 285.401 529.536 285.401 529.536 275.401 544.536 275.401 544.536 195.401 529.536 195.401 529.536 185.401 569.536 185.401 569.536 195.401 554.536 195.401"/><polygon class="cls-1" points="789.536 185.401 789.536 285.401 779.606 285.401 779.536 285.321 699.536 199.991 699.536 285.401 689.536 285.401 689.536 185.401 699.556 185.401 779.536 270.701 779.536 185.401 789.536 185.401"/><path class="cls-1" d="M679.536,235.4a48.521,48.521,0,0,1-.25,5,50.016,50.016,0,1,1-14.4-40.35l-7.07,7.07a39.992,39.992,0,1,0,11.41,33.28h-39.69v-10h49.75A48.521,48.521,0,0,1,679.536,235.4Z"/></g></g></g></svg>