<svg xmlns="http://www.w3.org/2000/svg" viewBox="0 0 1290 313.265"><defs><style>.cls-1{fill:#555ccc;}.cls-2,.cls-3,.cls-4{fill:#121221;}.cls-3{opacity:0.38;}.cls-4{opacity:0.62;}</style></defs><title>economist</title><g id="Слой_2" data-name="Слой 2"><g id="Слой_2-2" data-name="Слой 2"><g id="economist"><path class="cls-1" d="M539.29,240H560a50,50,0,1,1,0-20H539.29a30,30,0,1,0,0,20Z"/><polygon class="cls-1" points="1050 200 1050 260 1070 260 1070 280 1010 280 1010 260 1030 260 1030 200 1010 200 1010 180 1070 180 1070 200 1050 200"/><polygon class="cls-1" points="1000 180 1000 280 980 280 980 210.59 963.2 230.05 949.99 245.36 936.78 230.05 920 210.62 920 280 900 280 900 180 920 180 920 180.01 949.99 214.75 979.98 180 1000 180"/><path class="cls-2" d="M1100,210a10,10,0,0,0,10,10h40a30,30,0,0,1,0,60h-70V260h70a10,10,0,0,0,0-20h-40a30,30,0,0,1,0-60h70v20h-70A10,10,0,0,0,1100,210Z"/><polygon class="cls-1" points="370 200 370 220 450 220 450 240 370 240 370 260 450 260 450 280 350 280 350 180 450 180 450 200 370 200"/><polygon class="cls-1" points="780 180 780 280 760 280 700 210.59 700 280 680 280 680 180 700 180 760 249.41 760 180 780 180"/><path class="cls-1" d="M620,180a50,50,0,1,0,50,50A50.005,50.005,0,0,0,620,180Zm0,80a30,30,0,1,1,30-30A30,30,0,0,1,620,260Z"/><path class="cls-1" d="M840,180a50,50,0,1,0,50,50A50.005,50.005,0,0,0,840,180Zm0,80a30,30,0,1,1,30-30A30,30,0,0,1,840,260Z"/><polygon class="cls-2" points="1290 180 1290 200 1250 200 1250 280 1230 280 1230 200 1190 200 1190 180 1290 180"/><path class="cls-1" d="M62.286,274.114a133.676,133.676,0,1,0,0-189.046A133.679,133.679,0,0,0,62.286,274.114ZM238.729,97.671a115.852,115.852,0,1,1-163.84,0A115.849,115.849,0,0,1,238.729,97.671Z"/><path class="cls-3" d="M62.286,274.114a133.676,133.676,0,1,0,0-189.046A133.679,133.679,0,0,0,62.286,274.114ZM238.729,97.671a115.852,115.852,0,1,1-163.84,0A115.849,115.849,0,0,1,238.729,97.671Z"/><circle class="cls-1" cx="156.809" cy="179.591" r="115.852"/><path class="cls-1" d="M290.745,179.591H22.873C2.536,179.591-7.649,155,6.732,140.622L140.668,6.686a22.826,22.826,0,0,1,32.282,0L306.887,140.622C321.267,155,311.082,179.591,290.745,179.591Z"/><path class="cls-4" d="M290.745,179.591H22.873C2.536,179.591-7.649,155,6.732,140.622L140.668,6.686a22.826,22.826,0,0,1,32.282,0L306.887,140.622C321.267,155,311.082,179.591,290.745,179.591Z"/></g></g></g></svg>