<svg xmlns="http://www.w3.org/2000/svg" viewBox="0 0 1050 300"><defs><style>.cls-1{fill:#555ccc;}.cls-2,.cls-3,.cls-4{fill:#121221;}.cls-3{opacity:0.38;}.cls-4{opacity:0.62;}</style></defs><title>manager</title><g id="Слой_2" data-name="Слой 2"><g id="Слой_2-2" data-name="Слой 2"><g id="manager"><polygon class="cls-1" points="610 180 610 280 590 280 530 210.59 530 280 510 280 510 180 530 180 590 249.41 590 180 610 180"/><polygon class="cls-1" points="390 180 390 280 370 280 370 210.59 353.2 230.05 339.99 245.36 326.78 230.05 310 210.62 310 280 290 280 290 180 310 180 310 180.01 339.99 214.75 369.98 180 390 180"/><polygon class="cls-1" points="860 200 860 220 940 220 940 240 860 240 860 260 940 260 940 280 840 280 840 180 940 180 940 200 860 200"/><path class="cls-2" d="M1050,210a30,30,0,0,0-30-30H950V280h20V240h50a10,10,0,0,1,10,10v30h20V250a29.862,29.862,0,0,0-7.65-20A29.862,29.862,0,0,0,1050,210Zm-80,10V200h50a10,10,0,0,1,0,20Z"/><path class="cls-1" d="M460.77,181.95l-.78-1.95H440.01l-.78,1.94L400,280h21.55l11.2-28h34.5l11.2,28H500ZM440.75,232,450,208.87,459.25,232Z"/><path class="cls-1" d="M680.77,181.95l-.78-1.95H660.01l-.78,1.94L620,280h21.55l11.2-28h34.5l11.2,28H720ZM660.75,232,670,208.87,679.25,232Z"/><path class="cls-1" d="M830,220v10a49.16,49.16,0,0,1-1.01,10,50.013,50.013,0,1,1-13.64-45.35l-14.14,14.14A30,30,0,1,0,808.28,240H780V220Z"/><path class="cls-1" d="M300,154.688v9.375a4.688,4.688,0,0,1-4.688,4.687H280.941A140.627,140.627,0,1,1,131.25,19.059V4.688A4.688,4.688,0,0,1,135.937,0h9.375A4.688,4.688,0,0,1,150,4.688v28.03a4.675,4.675,0,0,1-4.464,4.684q-2.442.1-4.911.1A121.875,121.875,0,1,0,262.5,159.375q0-2.47.1-4.911A4.675,4.675,0,0,1,267.282,150h28.03A4.688,4.688,0,0,1,300,154.688Z"/><rect class="cls-1" x="75" y="98.438" width="131.25" height="65.625" rx="25"/><rect class="cls-3" x="75" y="98.438" width="131.25" height="65.625" rx="25"/><path class="cls-1" d="M206.25,214.687h0a19.687,19.687,0,0,1-19.687,19.687H94.687A19.687,19.687,0,0,1,75,214.688h0a45.937,45.937,0,0,1,45.937-45.937h39.376A45.937,45.937,0,0,1,206.25,214.687Z"/><path class="cls-4" d="M206.25,214.687h0a19.687,19.687,0,0,1-19.687,19.687H94.687A19.687,19.687,0,0,1,75,214.688h0a45.937,45.937,0,0,1,45.937-45.937h39.376A45.937,45.937,0,0,1,206.25,214.687Z"/></g></g></g></svg>