<svg xmlns="http://www.w3.org/2000/svg" viewBox="0 0 1178.452 310"><defs><style>.cls-1{fill:#555ccc;}.cls-2,.cls-3,.cls-4{fill:#121221;}.cls-2{opacity:0.62;}.cls-3{opacity:0.38;}</style></defs><title>marketer</title><g id="Слой_2" data-name="Слой 2"><g id="Слой_2-2" data-name="Слой 2"><g id="marketer"><circle class="cls-1" cx="119.231" cy="131.154" r="59.615"/><path class="cls-1" d="M238.462,280.192h0A29.808,29.808,0,0,1,208.654,310H29.808A29.807,29.807,0,0,1,0,280.192H0a89.423,89.423,0,0,1,89.423-89.423h59.616A89.424,89.424,0,0,1,238.462,280.192Z"/><path class="cls-2" d="M238.462,280.192h0A29.808,29.808,0,0,1,208.654,310H29.808A29.807,29.807,0,0,1,0,280.192H0a89.423,89.423,0,0,1,89.423-89.423h59.616A89.424,89.424,0,0,1,238.462,280.192Z"/><path class="cls-1" d="M82.6,108.9,38.261,29.084A19.577,19.577,0,0,1,55.374,0H185.479a19.576,19.576,0,0,1,17.113,29.084L158.251,108.9C141.765,138.573,99.088,138.573,82.6,108.9Z"/><path class="cls-3" d="M82.6,108.9,38.261,29.084A19.577,19.577,0,0,1,55.374,0H185.479a19.576,19.576,0,0,1,17.113,29.084L158.251,108.9C141.765,138.573,99.088,138.573,82.6,108.9Z"/><polygon class="cls-1" points="758.452 190 758.452 225 848.452 225 848.452 235 758.452 235 758.452 270 848.452 270 848.452 280 748.452 280 748.452 180 848.452 180 848.452 190 758.452 190"/><polygon class="cls-4" points="978.452 190 978.452 225 1068.452 225 1068.452 235 978.452 235 978.452 270 1068.452 270 1068.452 280 968.452 280 968.452 180 1068.452 180 1068.452 190 978.452 190"/><path class="cls-1" d="M498.172,235l-4.51-10-19.71-43.73.01-.01-.49-1.08h-.01l-.08-.18h-9.84l-.08.18v.02l-.47,1.05h-.01L443.262,225l-4.51,10-20.28,45h10.97l20.28-45H487.2l20.28,45h10.97Zm-19.71-2.96-.02-.04h.02ZM454.232,225l14.23-31.58L482.7,225Z"/><path class="cls-1" d="M318.452,180.07v-.03l.01-.04h9.969q10.007,39.491,20.011,78.98,10.01-39.491,20.02-78.98h9.99l.01.01q14.994,50,29.99,99.99h-10.44l-24.18-80.57-20.24,79.9-.14.56-.03.11h-9.97l-.17-.66-20.23-79.83L298.9,280h-10.44Q303.456,230.035,318.452,180.07Z"/><path class="cls-1" d="M615.022,235a29.994,29.994,0,0,0-16.57-55h-70V280h10V240h60a20,20,0,0,1,20,20v20h10V260A29.925,29.925,0,0,0,615.022,235Zm-26.57-2.96-.021-.04h.021Zm10-2.04h-60V190h60a20,20,0,0,1,0,40Z"/><path class="cls-4" d="M1165.022,235a29.994,29.994,0,0,0-16.57-55h-70V280h10V240h60a20,20,0,0,1,20,20v20h10V260A29.925,29.925,0,0,0,1165.022,235Zm-26.57-2.96-.021-.04h.021Zm10-2.04h-60V190h60a20,20,0,0,1,0,40Z"/><polygon class="cls-1" points="738.452 280 724.301 280 681.361 237.05 648.452 269.97 648.452 280 638.452 280 638.452 180 648.452 180 648.452 255.83 674.292 229.98 681.361 222.91 724.272 180 738.412 180 688.431 229.98 738.452 280"/><polygon class="cls-1" points="958.452 180 958.452 190 913.452 190 913.452 280 903.452 280 903.452 190 858.452 190 858.452 180 958.452 180"/></g></g></g></svg>