<svg xmlns="http://www.w3.org/2000/svg" viewBox="0 0 1640 300"><defs><style>.cls-1{fill:#555ccc;}.cls-2,.cls-3{fill:#121221;}.cls-3{opacity:0.38;}.cls-4{fill:#1d1e20;}</style></defs><title>screenwriter</title><g id="Слой_2" data-name="Слой 2"><g id="Слой_2-2" data-name="Слой 2"><g id="screenwriter"><path class="cls-1" d="M578.28,248.28l7.07,7.07a50,50,0,1,1,0-70.7l-7.07,7.07a40,40,0,1,0,0,56.56Z"/><polygon class="cls-1" points="720 180 720 215 810 215 810 225 720 225 720 260 810 260 810 270 710 270 710 170 810 170 810 180 720 180"/><polygon class="cls-1" points="830 180 830 215 920 215 920 225 830 225 830 260 920 260 920 270 820 270 820 170 920 170 920 180 830 180"/><polygon class="cls-1" points="1440 180 1440 215 1530 215 1530 225 1440 225 1440 260 1530 260 1530 270 1430 270 1430 170 1530 170 1530 180 1440 180"/><path class="cls-1" d="M1130.01,269.93v.03l-.01.04h-9.97l-20.01-78.98Q1090.01,230.511,1080,270h-9.99l-.01-.01Q1055,220,1040.01,170h10.44l24.18,80.57,20.24-79.9.14-.56.03-.11h9.97l.17.66,20.23,79.83L1149.56,170H1160Q1145,219.965,1130.01,269.93Z"/><path class="cls-1" d="M1256.57,225A29.994,29.994,0,0,0,1240,170h-70V270h10V230h60a19.994,19.994,0,0,1,20,20v20h10V250A29.923,29.923,0,0,0,1256.57,225ZM1230,222.04l-.02-.04h.02Zm10-2.04h-60V180h60a20,20,0,0,1,0,40Z"/><path class="cls-2" d="M1626.57,225A29.994,29.994,0,0,0,1610,170h-70V270h10V230h60a19.994,19.994,0,0,1,20,20v20h10V250A29.923,29.923,0,0,0,1626.57,225ZM1600,222.04l-.02-.04h.02Zm10-2.04h-60V180h60a20,20,0,0,1,0,40Z"/><path class="cls-1" d="M686.57,225A29.994,29.994,0,0,0,670,170H600V270h10V230h60a19.994,19.994,0,0,1,20,20v20h10V250A29.923,29.923,0,0,0,686.57,225ZM660,222.04l-.02-.04H660ZM670,220H610V180h60a20,20,0,0,1,0,40Z"/><path class="cls-1" d="M400,197.5A17.506,17.506,0,0,0,417.5,215h45a27.5,27.5,0,0,1,7.5,53.95,26.911,26.911,0,0,1-7.5,1.05H390V260h72.5a17.5,17.5,0,0,0,0-35h-45a27.5,27.5,0,0,1-7.5-53.95,26.911,26.911,0,0,1,7.5-1.05H490v10H417.5A17.506,17.506,0,0,0,400,197.5Z"/><polygon class="cls-1" points="1300 180 1300 260 1310 260 1310 270 1280 270 1280 260 1290 260 1290 180 1280 180 1280 170 1310 170 1310 180 1300 180"/><polygon class="cls-1" points="1030 170 1030 270 1020.07 270 1020 269.92 940 184.59 940 270 930 270 930 170 940.02 170 1020 255.3 1020 170 1030 170"/><polygon class="cls-1" points="1420 170 1420 180 1375 180 1375 270 1365 270 1365 180 1320 180 1320 170 1420 170"/><circle class="cls-1" cx="174.354" cy="73.151" r="73.151"/><rect class="cls-3" y="153.699" width="243.835" height="146.301" rx="61.155"/><path class="cls-1" d="M347.01,163.82V279.254c0,16.877-20.4,25.329-32.338,13.395l-57.717-57.717a18.943,18.943,0,0,1,0-26.79l57.717-57.717C326.606,138.491,347.01,146.943,347.01,163.82Z"/><circle class="cls-4" cx="218.245" cy="73.151" r="24.384"/><circle class="cls-4" cx="174.354" cy="29.26" r="24.384"/><circle class="cls-4" cx="130.464" cy="73.151" r="24.384"/><circle class="cls-4" cx="174.354" cy="117.041" r="24.384"/><circle class="cls-1" cx="50.046" cy="96.353" r="48.767"/><circle class="cls-4" cx="50.114" cy="71.571" r="12.192"/><circle class="cls-4" cx="28.864" cy="108.723" r="12.192"/><circle class="cls-4" cx="71.38" cy="108.627" r="12.192"/><path class="cls-1" d="M36.822,178.57H207.014a10,10,0,0,1,10,10v4.63a0,0,0,0,1,0,0H26.822a0,0,0,0,1,0,0v-4.63A10,10,0,0,1,36.822,178.57Z"/><rect class="cls-1" x="26.822" y="219.534" width="190.192" height="14.63"/><rect class="cls-1" x="26.822" y="199.052" width="190.192" height="14.63"/><rect class="cls-1" x="26.822" y="240.016" width="190.192" height="14.63"/><path class="cls-1" d="M26.822,260.5H217.014a0,0,0,0,1,0,0v4.63a10,10,0,0,1-10,10H36.822a10,10,0,0,1-10-10V260.5A0,0,0,0,1,26.822,260.5Z"/></g></g></g></svg>