<svg xmlns="http://www.w3.org/2000/svg" viewBox="0 0 162 162"><defs><style>.cls-1{fill:#1c1e20;}.cls-2{fill:#366ce1;}</style></defs><title>interest</title><g id="Слой_2" data-name="Слой 2"><g id="Слой_1-2" data-name="Слой 1"><g id="interest"><path class="cls-1" d="M36,0a36,36,0,0,0,0,72H72V36A36,36,0,0,0,36,0ZM54,54H36A18,18,0,1,1,54,36Z"/><path class="cls-1" d="M162,36a36,36,0,0,0-72,0V72h36A36,36,0,0,0,162,36ZM108,54V36a18,18,0,1,1,18,18Z"/><path class="cls-1" d="M126,162a36,36,0,0,0,0-72H90v36A36,36,0,0,0,126,162Zm-18-54h18a18,18,0,1,1-18,18Z"/><path class="cls-1" d="M0,126a36,36,0,0,0,72,0V90H36A36,36,0,0,0,0,126Zm54-18v18a18,18,0,1,1-18-18Z"/><circle class="cls-2" cx="81" cy="81" r="9"/><rect class="cls-1" x="90" y="54" width="18" height="54"/><rect class="cls-1" x="54" y="54" width="18" height="54"/><rect class="cls-1" x="72" y="72" width="18" height="54" transform="translate(180 18) rotate(90)"/><rect class="cls-1" x="72" y="36" width="18" height="54" transform="translate(144 -18) rotate(90)"/></g></g></g></svg>