<svg id="Main" xmlns="http://www.w3.org/2000/svg" viewBox="0 0 681 300"><defs><style>.cls-1{fill:#366ce1;}.cls-2{fill:#1c1e20;}.cls-3{fill:#121221;}</style></defs><title>1C</title><g id="_1C" data-name="1C"><path class="cls-1" d="M652.29,400a150,150,0,1,0,0,200H840.5V400ZM790.5,550H627.12a100,100,0,1,1,0-100H790.5Z" transform="translate(-159.5 -350)"/><path class="cls-2" d="M790.5,450V550H627.12a100,100,0,1,1,0-100Z" transform="translate(-159.5 -350)"/><path class="cls-3" d="M611.23,525h26.12a100,100,0,1,1,0-50H611.23a75,75,0,1,0,0,50Z" transform="translate(-159.5 -350)"/><polygon class="cls-3" points="150 60 150 300 125 300 125 85 85 85 85 110 60 110 60 60 150 60"/><polygon class="cls-1" points="210 0 210 300 160 300 160 50 50 50 50 85 0 85 0 0 210 0"/></g></svg>