<svg id="Main" xmlns="http://www.w3.org/2000/svg" viewBox="0 0 770 280"><defs><style>.cls-1{fill:#1c1e20;}.cls-2{fill:#e1dfdf;}.cls-3{fill:#121221;}.cls-4{fill:#366ce1;}</style></defs><title>adobe_illustrator</title><g id="Adobe"><g id="Adobe_audition" data-name="Adobe audition"><rect class="cls-1" width="240" height="280"/><rect class="cls-1" x="40" y="20" width="240" height="240"/><rect class="cls-2" x="20" y="20" width="240" height="240"/><path class="cls-3" d="M250,400H230L190,600h20l13-65h34l13,65h20ZM227,515l13-65,13,65Z" transform="translate(-115 -360)"/><rect class="cls-3" x="185" y="140" width="20" height="100"/><circle class="cls-3" cx="195" cy="120" r="10"/></g><rect class="cls-4" x="240" y="240" width="40" height="40"/><rect class="cls-4" x="240" width="40" height="40"/><polygon class="cls-3" points="350 40 370 40 330 240 310 240 350 40"/><polygon class="cls-3" points="350 40 370 40 410 240 390 240 350 40"/><rect class="cls-3" x="330" y="155" width="60" height="20"/><path class="cls-3" d="M595,505.43a39.547,39.547,0,0,0-40,0A40.128,40.128,0,0,0,535,540v20a40.128,40.128,0,0,0,20,34.57,39.547,39.547,0,0,0,40,0A40.128,40.128,0,0,0,615,560V540A40.128,40.128,0,0,0,595,505.43ZM595,560a20,20,0,0,1-40,0V540a20,20,0,0,1,40,0Z" transform="translate(-115 -360)"/><path class="cls-3" d="M685,505.43a39.547,39.547,0,0,0-40,0A40.128,40.128,0,0,0,625,540v20a40.128,40.128,0,0,0,20,34.57,39.547,39.547,0,0,0,40,0A40.128,40.128,0,0,0,705,560V540A40.128,40.128,0,0,0,685,505.43ZM685,560a20,20,0,0,1-40,0V540a20,20,0,0,1,40,0Z" transform="translate(-115 -360)"/><path class="cls-3" d="M885,560V540a40.128,40.128,0,0,0-20-34.57,39.547,39.547,0,0,0-40,0A40.128,40.128,0,0,0,805,540v20a40.128,40.128,0,0,0,20,34.57,39.547,39.547,0,0,0,40,0A40.363,40.363,0,0,0,883.71,570H862.27A19.968,19.968,0,0,1,825,560Zm-40-40a20.1,20.1,0,0,1,20,20H825A20.1,20.1,0,0,1,845,520Z" transform="translate(-115 -360)"/><path class="cls-3" d="M775,505.43a39.547,39.547,0,0,0-40,0A40.128,40.128,0,0,0,715,540v20a40.128,40.128,0,0,0,20,34.57,39.547,39.547,0,0,0,40,0A40.128,40.128,0,0,0,795,560V540A40.128,40.128,0,0,0,775,505.43ZM775,560a20,20,0,0,1-40,0V540a20,20,0,0,1,40,0Z" transform="translate(-115 -360)"/><rect class="cls-3" x="600" y="40" width="20" height="200"/><rect class="cls-3" x="480" y="40" width="20" height="200"/></g></svg>