<svg xmlns="http://www.w3.org/2000/svg" viewBox="0 0 1430 300"><defs><style>.cls-1{fill:#121221;}.cls-2{fill:#366ce1;}</style></defs><title>Adobe connect</title><g id="Слой_2" data-name="Слой 2"><g id="Complete"><g id="Adobe_connect" data-name="Adobe connect"><path class="cls-1" d="M1338.74,190.93q6.4,8.01,12.81,16.01A39.988,39.988,0,0,1,1282,180V160a39.988,39.988,0,0,1,69.55-26.94q-6.4,8.01-12.81,16.01A19.994,19.994,0,0,0,1302,160v20a19.994,19.994,0,0,0,36.74,10.93Z"/><path class="cls-1" d="M970,120a40,40,0,0,0-40,40v20a40,40,0,0,0,80,0V160A40,40,0,0,0,970,120Zm20,60a20,20,0,0,1-40,0V160a20,20,0,0,1,40,0Z"/><path class="cls-1" d="M902,80V70a30,30,0,0,0-60,0V170a30,30,0,0,0,60,0V160h20v10a50,50,0,0,1-100,0V70a50,50,0,0,1,100,0V80Z"/><path class="cls-1" d="M1098,160v60h-20V160a20,20,0,0,0-40,0v60h-20V120h20v5.35A40.012,40.012,0,0,1,1098,160Z"/><path class="cls-1" d="M1186,160v60h-20V160a20,20,0,0,0-40,0v60h-20V120h20v5.35A40.012,40.012,0,0,1,1186,160Z"/><path class="cls-1" d="M1274,180V160a40,40,0,0,0-80,0v20a39.994,39.994,0,0,0,68.28,28.28l-14.14-14.14A20,20,0,0,1,1214,180Zm-40-40a19.994,19.994,0,0,1,20,20h-40A19.994,19.994,0,0,1,1234,140Z"/><path class="cls-1" d="M1380.44,140v40a19.994,19.994,0,0,0,36.74,10.93q6.4,8.01,12.81,16.01A39.988,39.988,0,0,1,1360.44,180V20h20V120H1430v20Z"/><path class="cls-1" d="M60,20H40L0,220H20l13-65H67l13,65h20ZM37,135,50,70l13,65Z"/><path class="cls-1" d="M344,125.43a39.547,39.547,0,0,0-40,0V20H284V220h20v-5.43a39.547,39.547,0,0,0,40,0A40.129,40.129,0,0,0,364,180V160A40.129,40.129,0,0,0,344,125.43ZM344,180a20,20,0,0,1-40,0V160a20,20,0,0,1,40,0Z"/><path class="cls-1" d="M168,20V125.43a39.547,39.547,0,0,0-40,0A40.129,40.129,0,0,0,108,160v20a40.129,40.129,0,0,0,20,34.57,39.547,39.547,0,0,0,40,0V220h20V20ZM148,200a20.1,20.1,0,0,1-20-20V160a20,20,0,0,1,40,0v20A20.1,20.1,0,0,1,148,200Z"/><path class="cls-1" d="M256,125.43a39.547,39.547,0,0,0-40,0A40.129,40.129,0,0,0,196,160v20a40.129,40.129,0,0,0,20,34.57,39.547,39.547,0,0,0,40,0A40.129,40.129,0,0,0,276,180V160A40.129,40.129,0,0,0,256,125.43ZM256,180a20,20,0,0,1-40,0V160a20,20,0,0,1,40,0Z"/><path class="cls-1" d="M452,180V160a40,40,0,0,0-80,0v20a39.994,39.994,0,0,0,68.28,28.28l-14.14-14.14A20,20,0,0,1,392,180Zm-40-40a19.994,19.994,0,0,1,20,20H392A19.994,19.994,0,0,1,412,140Z"/><path class="cls-2" d="M490,200V300H590V200Zm90,90H500V210h80Z"/><path class="cls-2" d="M490,0V100H590V0Zm90,90H500V10h80Z"/><path class="cls-2" d="M690,0V100H790V0Zm90,90H700V10h80Z"/><path class="cls-2" d="M690,200V300H790V200Zm90,90H700V210h80Z"/><path class="cls-1" d="M590,200,690,300V200Z"/><path class="cls-1" d="M490,100,590,200V100Z"/><path class="cls-1" d="M690,100V0Q640,100,590,200L790,100Z"/></g></g></g></svg>