<svg xmlns="http://www.w3.org/2000/svg" viewBox="0 0 852.093 401.131"><defs><style>.cls-1{fill:#366ce1;}.cls-2{fill:#121221;}</style></defs><title>alibaba group</title><g id="Слой_2" data-name="Слой 2"><g id="Work_space" data-name="Work space"><g id="alibaba_group" data-name="alibaba group"><path class="cls-1" d="M60.77,189.122l-.78-1.95H40.01l-.78,1.94L0,287.172H21.55l11.2-28h34.5l11.2,28H100Zm-20.02,50.05L50,216.042l9.25,23.13Z"/><path class="cls-1" d="M293.894,220.784c-35.572-22.348-73.075,13.323-54.454,48.96a34.736,34.736,0,0,0,12.4,12.436c15.269,8.03,30.583,5.734,41.326-2.349v7.341h14.666V246.094A29.879,29.879,0,0,0,293.894,220.784Zm-9.458,47.785c-21.818,13.274-44.607-9.515-31.334-31.334a14.359,14.359,0,0,1,4.795-4.794c21.818-13.274,44.607,9.515,31.334,31.334A14.359,14.359,0,0,1,284.436,268.569Z"/><path class="cls-1" d="M196.833,213.838a36.464,36.464,0,0,0-22,7.341V184.505H160.167v66a36.667,36.667,0,1,0,36.666-36.667Zm0,58.667a22,22,0,1,1,22-22A22,22,0,0,1,196.833,272.505Z"/><path class="cls-1" d="M442.561,220.784c-35.572-22.348-73.075,13.323-54.454,48.96a34.736,34.736,0,0,0,12.4,12.436c15.268,8.03,30.582,5.734,41.325-2.349v7.341H456.5V246.094A29.881,29.881,0,0,0,442.561,220.784ZM433.1,268.569c-21.818,13.274-44.607-9.515-31.334-31.334a14.359,14.359,0,0,1,4.8-4.794c21.818-13.274,44.607,9.515,31.334,31.334A14.359,14.359,0,0,1,433.1,268.569Z"/><path class="cls-1" d="M345.5,213.838a36.464,36.464,0,0,0-22,7.341V184.505H308.833v66A36.667,36.667,0,1,0,345.5,213.838Zm0,58.667a22,22,0,1,1,22-22A22,22,0,0,1,345.5,272.505Z"/><rect class="cls-1" x="123.833" y="213.838" width="14.667" height="73.333"/><rect class="cls-1" x="123.833" y="191.838" width="14.667" height="14.667"/><rect class="cls-1" x="103.333" y="177.172" width="14.667" height="110"/><path class="cls-2" d="M609.21,349.61a22.078,22.078,0,0,0-22.08-22.08H535.609v73.6H550.33V371.69h36.8a7.362,7.362,0,0,1,7.36,7.36v22.081h14.72V379.05a21.98,21.98,0,0,0-5.63-14.72A21.98,21.98,0,0,0,609.21,349.61Zm-58.88,7.36V342.25h36.8a7.36,7.36,0,0,1,0,14.72Z"/><path class="cls-2" d="M653.371,327.53a36.8,36.8,0,1,0,36.8,36.8A36.8,36.8,0,0,0,653.371,327.53Zm0,58.88a22.08,22.08,0,1,1,22.08-22.08A22.078,22.078,0,0,1,653.371,386.41Z"/><path class="cls-2" d="M528.249,356.97v7.36a36.185,36.185,0,0,1-.743,7.36,36.809,36.809,0,1,1-10.039-33.378L507.06,348.719a22.08,22.08,0,1,0,5.2,22.971H491.449V356.97Z"/><path class="cls-2" d="M830.013,327.53h-51.52v73.6h14.72V371.69h36.8a22.08,22.08,0,0,0,0-44.16Zm0,29.44h-36.8V342.25h36.8a7.36,7.36,0,0,1,0,14.72Z"/><path class="cls-2" d="M771.132,327.53v36.8a36.8,36.8,0,1,1-73.6,0v-36.8h14.721v36.8a22.08,22.08,0,0,0,44.16,0v-36.8Z"/><path class="cls-1" d="M662.293,0l4.663,1.255a66.071,66.071,0,0,1,45.127,41.418c1.353,3.784,2.906,7.768,4.945,12.239a8.2,8.2,0,0,1-1.674,9.2L709.462,70a188.85,188.85,0,0,0,20,60,186.66,186.66,0,0,0,16.9,26.1,4.65,4.65,0,0,1-1.115,6.709l-25.648,17.1a.173.173,0,0,0-.079.159.2.2,0,0,0,.024.072h0c.315.971.807,2.512,1.376,4.416,1.907,6.369,2.048,8.556,3.651,11.769a24.414,24.414,0,0,0,3.375,5.041.632.632,0,0,1,.154.407l.021,5.96,1.986,1.682a.471.471,0,0,1,.155.451,41.283,41.283,0,0,0-.8,10.135c.859,18.546,14.375,32.6,9.925,39.7-.06.1-.059.313-.224.333a80.645,80.645,0,0,1-19.7-.037,81.462,81.462,0,0,1-30-10,69.681,69.681,0,0,0,0,20c2.983,20.424,14.409,34.135,20,40h-100a182.186,182.186,0,0,1,10-70q1.461-4.144,3.045-8.022a224.955,224.955,0,0,0,16.955-84.831V22.831A22.831,22.831,0,0,1,662.293,0Z"/><path class="cls-1" d="M649.462,40c-1.355-.006-2.839,1.706-10,30-18.528,73.2-15.435,88.758-10,100,4.6,9.516,13.56,21.486,20,20,5.051-1.166,8.418-10.583,10-40C662.078,101.339,657.548,40.039,649.462,40Z"/></g></g></g></svg>