<svg xmlns="http://www.w3.org/2000/svg" viewBox="0 0 1035 210.099"><defs><style>.cls-1{fill:#366ce1;}.cls-2{fill:#121221;}</style></defs><title>altaroVMBackup</title><g id="Слой_2" data-name="Слой 2"><g id="Complete"><g id="altaroVMBackup"><polygon class="cls-1" points="1035 0 1035 100 1015 100 1015 30.59 998.2 50.05 984.99 65.36 971.78 50.05 955 30.62 955 100 935 100 935 0 955 0 955 0.01 984.99 34.75 1014.98 0 1035 0"/><polygon class="cls-2" points="435 80 435 100 335 100 335 0 355 0 355 80 435 80"/><polygon class="cls-1" points="925 0 885.78 98.07 885.01 100 865.01 100 864.24 98.07 825.02 0 846.56 0 875.01 71.14 903.47 0 925 0"/><path class="cls-2" d="M695,30A30,30,0,0,0,665,0H595V100h20V60h50a10,10,0,0,1,10,10v30h20V70a29.862,29.862,0,0,0-7.65-20A29.862,29.862,0,0,0,695,30ZM615,40V20h50a10,10,0,0,1,0,20Z"/><path class="cls-2" d="M753,0a50,50,0,1,0,50,50A50.005,50.005,0,0,0,753,0Zm0,80a30,30,0,1,1,30-30A30,30,0,0,1,753,80Z"/><path class="cls-2" d="M285.77,1.95,284.99,0H265.01l-.78,1.94L225,100h21.55l11.2-28h34.5l11.2,28H325ZM265.75,52,275,28.87,284.25,52Z"/><path class="cls-2" d="M545.77,1.95,544.99,0H525.01l-.78,1.94L485,100h21.55l11.2-28h34.5l11.2,28H585ZM525.75,52,535,28.87,544.25,52Z"/><polygon class="cls-2" points="505 0 505 20 465 20 465 100 445 100 445 20 405 20 405 0 505 0"/><polygon class="cls-1" points="735 210.099 720.85 210.099 677.91 167.149 645 200.069 645 210.099 635 210.099 635 110.099 645 110.099 645 185.929 670.84 160.079 677.91 153.009 720.82 110.099 734.96 110.099 684.98 160.079 735 210.099"/><path class="cls-1" d="M599.66,188.28l7.07,7.07a50,50,0,1,1,0-70.7l-7.07,7.07a40,40,0,1,0,0,56.56Z"/><path class="cls-1" d="M494.7,165.1l-4.51-10-19.71-43.73.01-.01-.49-1.08h-.01l-.08-.18h-9.84l-.08.18v.02l-.47,1.05h-.01L439.79,155.1l-4.51,10L415,210.1h10.97l20.28-45h37.48l20.28,45h10.97Zm-19.71-2.96-.02-.04h.02Zm-24.23-7.04,14.23-31.58,14.24,31.58Z"/><path class="cls-1" d="M925,110.1H855v100h10v-40h60a30,30,0,1,0,0-60Zm0,50H865v-40h60a20,20,0,1,1,0,40Z"/><path class="cls-1" d="M393.31,160.1a27.493,27.493,0,0,0-8.31-48.95,26.911,26.911,0,0,0-7.5-1.05H305v100h72.5a26.911,26.911,0,0,0,7.5-1.05,27.483,27.483,0,0,0,8.31-48.95ZM315,120.1h62.5a17.5,17.5,0,1,1,0,35H315Zm62.5,80H315v-35h62.5a17.5,17.5,0,0,1,0,35Z"/><path class="cls-1" d="M845,110.1v50a50,50,0,0,1-100,0v-50h10v50a40,40,0,0,0,80,0v-50Z"/><polygon class="cls-1" points="735 210.099 720.85 210.099 677.91 167.149 645 200.069 645 210.099 635 210.099 635 110.099 645 110.099 645 185.929 670.84 160.079 677.91 153.009 720.82 110.099 734.96 110.099 684.98 160.079 735 210.099"/><path class="cls-2" d="M72,82.75l7.68-3.07L98.88,72l1.12-.45V52H95L64.29,64.29,1.95,89.23,0,90.01v19.98l1.94.78,62.35,24.94L95,148h5V128.45L98.88,128l-19.2-7.68L72,117.25V101.13L71.55,100,72,98.88Zm-20,26.5L28.87,100,52,90.75Z"/><path class="cls-2" d="M198.06,89.23,135.71,64.29,105,52h-5V71.55l1.13.45,19.19,7.68L128,82.75V98.88l.45,1.12-.45,1.13v16.12l-7.68,3.07L101.13,128l-1.13.45V148h5l30.71-12.29,62.34-24.94,1.95-.78V90.01ZM148,109.25V90.75L171.13,100Z"/><path class="cls-2" d="M128.45,100l-.45,1.13-7.68,19.19L117.25,128H101.13l-1.13.45L98.88,128H82.75l-3.07-7.68L72,101.13,71.55,100H52v5l12.29,30.71,24.94,62.34.78,1.95h19.98l.78-1.94,24.94-62.35L148,105v-5Zm-19.2,48L100,171.13,90.75,148Z"/><path class="cls-2" d="M135.71,64.29,110.77,1.95,109.99,0H90.01l-.78,1.94L64.29,64.29,52,95v5H71.55L72,98.88l7.68-19.2L82.75,72H98.88l1.12-.45,1.13.45h16.12l3.07,7.68L128,98.88l.45,1.12H148V95ZM90.75,52,100,28.87,109.25,52Z"/><polygon class="cls-1" points="128.45 100 128 101.13 120.32 120.32 101.13 128 100 128.45 98.88 128 79.68 120.32 72 101.13 71.55 100 72 98.88 79.68 79.68 98.88 72 100 71.55 101.13 72 120.32 79.68 128 98.88 128.45 100"/></g></g></g></svg>