<svg xmlns="http://www.w3.org/2000/svg" viewBox="0 0 710 268.056"><defs><style>.cls-1{fill:#121221;}.cls-2{fill:#366ce1;}</style></defs><title>android</title><g id="Слой_2" data-name="Слой 2"><g id="Work_space" data-name="Work space"><g id="android"><polygon class="cls-1" points="580 188.056 580 248.056 600 248.056 600 268.056 540 268.056 540 248.056 560 248.056 560 188.056 540 188.056 540 168.056 600 168.056 600 188.056 580 188.056"/><polygon class="cls-1" points="210 168.056 210 268.056 190 268.056 130 198.646 130 268.056 110 268.056 110 168.056 130 168.056 190 237.466 190 168.056 210 168.056"/><path class="cls-1" d="M270,168.056H220v100h50a50,50,0,1,0,0-100Zm0,80H240v-60h30a30,30,0,0,1,0,60Z"/><path class="cls-1" d="M660,168.056H610v100h50a50,50,0,1,0,0-100Zm0,80H630v-60h30a30,30,0,0,1,0,60Z"/><path class="cls-1" d="M430,198.056a30,30,0,0,0-30-30H330v100h20v-40h50a10,10,0,0,1,10,10v30h20v-30a29.862,29.862,0,0,0-7.65-20A29.862,29.862,0,0,0,430,198.056Zm-80,10v-20h50a10,10,0,0,1,0,20Z"/><path class="cls-1" d="M490,168.056a50,50,0,1,0,50,50A50.005,50.005,0,0,0,490,168.056Zm0,80a30,30,0,1,1,30-30A30,30,0,0,1,490,248.056Z"/><path class="cls-1" d="M60.77,170.006l-.78-1.95H40.01L39.23,170,0,268.056H21.55l11.2-28h34.5l11.2,28H100Zm-20.02,50.05L50,196.926l9.25,23.13Z"/><path class="cls-1" d="M505,150H205a150,150,0,0,1,300,0Z"/><path class="cls-2" d="M300,50a25,25,0,1,0,25,25A25,25,0,0,0,300,50Zm0,30a5,5,0,1,1,5-5A5,5,0,0,1,300,80Z"/><path class="cls-2" d="M410,50a25,25,0,1,0,25,25A25,25,0,0,0,410,50Zm0,30a5,5,0,1,1,5-5A5,5,0,0,1,410,80Z"/></g></g></g></svg>