<svg xmlns="http://www.w3.org/2000/svg" viewBox="0 0 430 738"><defs><style>.cls-1{fill:#121221;}.cls-2{fill:#366ce1;}</style></defs><title>ApicBase</title><g id="Слой_2" data-name="Слой 2"><g id="Complete"><g id="ApicBase"><rect class="cls-1" x="165" y="460" width="100" height="30"/><rect class="cls-1" x="265" y="330" width="30" height="160"/><rect class="cls-1" x="135" y="330" width="30" height="160"/><rect class="cls-1" x="165" y="330" width="100" height="30"/><rect class="cls-1" x="165" y="130" width="100" height="30"/><rect class="cls-1" x="265" width="30" height="160"/><rect class="cls-1" x="135" width="30" height="160"/><rect class="cls-1" x="165" width="100" height="30"/><polygon class="cls-2" points="328.14 245 215 358.14 193.79 336.92 123.08 266.21 101.86 245 215 131.86 236.21 153.08 306.92 223.79 328.14 245"/><path class="cls-1" d="M240,668a10,10,0,0,0,10,10h40a30,30,0,0,1,0,60H220V718h70a10,10,0,0,0,0-20H250a30,30,0,0,1,0-60h70v20H250A10,10,0,0,0,240,668Z"/><polygon class="cls-1" points="350 658 350 678 430 678 430 698 350 698 350 718 430 718 430 738 330 738 330 638 430 638 430 658 350 658"/><path class="cls-1" d="M100,668a30,30,0,0,0-30-30H0V738H70a29.991,29.991,0,0,0,22.35-50A29.862,29.862,0,0,0,100,668ZM20,658H70a10,10,0,0,1,0,20H20Zm50,60H20V698H70a10,10,0,0,1,0,20Z"/><path class="cls-1" d="M170.77,639.95l-.78-1.95H150.01l-.78,1.94L110,738h21.55l11.2-28h34.5l11.2,28H210ZM150.75,690,160,666.87,169.25,690Z"/><path class="cls-1" d="M393.785,578H414.5a50,50,0,1,1,0-20h-20.71a30,30,0,1,0,0,20Z"/><path class="cls-1" d="M76.275,519.95,75.5,518H55.515l-.78,1.94L15.505,618h21.55l11.2-28h34.5l11.2,28h21.55ZM56.255,570l9.25-23.13L74.755,570Z"/><polygon class="cls-1" points="285.505 538 285.505 598 315.505 598 315.505 618 235.505 618 235.505 598 265.505 598 265.505 538 235.505 538 235.505 518 315.505 518 315.505 538 285.505 538"/><path class="cls-1" d="M195.505,518h-70V618h20V578h50a30,30,0,0,0,0-60Zm0,40h-50V538h50a10,10,0,0,1,0,20Z"/></g></g></g></svg>