<svg xmlns="http://www.w3.org/2000/svg" viewBox="0 0 800 270"><defs><style>.cls-1{fill:#121221;}</style></defs><title>apple</title><g id="Слой_2" data-name="Слой 2"><g id="Work_space" data-name="Work space"><g id="apple"><path class="cls-1" d="M79.7,140l-4.51-10L55.48,86.27l.01-.01L55,85.18h-.01L54.91,85H45.07l-.08.18v.02l-.47,1.05h-.01L24.79,130l-4.51,10L0,185H10.97l20.28-45H68.73l20.28,45H99.98Zm-19.71-2.96-.02-.04h.02ZM35.76,130,49.99,98.42,64.23,130Z"/><polygon class="cls-1" points="450 95 450 130 540 130 540 140 450 140 450 175 540 175 540 185 440 185 440 85 540 85 540 95 450 95"/><path class="cls-1" d="M180,85H110V185h10V145h60a30,30,0,0,0,0-60Zm0,50H120V95h60a20,20,0,0,1,0,40Z"/><path class="cls-1" d="M290,85H220V185h10V145h60a30,30,0,0,0,0-60Zm0,50H230V95h60a20,20,0,0,1,0,40Z"/><polygon class="cls-1" points="430 175 430 185 330 185 330 85 340 85 340 175 430 175"/><circle class="cls-1" cx="680" cy="170" r="100"/><circle class="cls-1" cx="700" cy="170" r="100"/><ellipse class="cls-1" cx="717.682" cy="32.318" rx="43.3" ry="25" transform="translate(187.352 516.943) rotate(-45)"/><path class="cls-1" d="M630,37.34A49.971,49.971,0,0,1,689.72,90c1.03-.2,2.06-.44,3.08-.71a50,50,0,0,0-61.24-61.24A49.816,49.816,0,0,0,630,37.34Z"/></g></g></g></svg>