<svg id="Main" xmlns="http://www.w3.org/2000/svg" viewBox="0 0 870 793.316"><defs><style>.cls-1{fill:#1c1e20;}.cls-2{fill:#121221;}.cls-3{fill:#366ce1;}</style></defs><title>autodesk_maya</title><g id="Autodesc_Maya" data-name="Autodesc Maya"><path class="cls-1" d="M570.06,200l-.06.06V200Z" transform="translate(-65 -166.684)"/><path class="cls-1" d="M650,233.19V500H570V313.2Q610,273.195,650,233.19Z" transform="translate(-65 -166.684)"/><path class="cls-2" d="M650,200v33.19Q610,273.2,570,313.2l-69.93,69.93-.07-.07-.07.07L430,313.2q-40-40.005-80-80.01V200h79.94l.06.06,70,70,70-70,.06-.06Z" transform="translate(-65 -166.684)"/><path class="cls-1" d="M430,200v.06l-.06-.06Z" transform="translate(-65 -166.684)"/><path class="cls-1" d="M430,313.2V500H350V233.19Q390.005,273.2,430,313.2Z" transform="translate(-65 -166.684)"/><path class="cls-3" d="M350,166.684v33.19h79.94l-85.57,85.57q-28.29-28.275-56.57-56.56Q318.9,197.774,350,166.684Z" transform="translate(-65 -166.684)"/><path class="cls-3" d="M570.06,199.874H650v-33.19q31.11,31.1,62.2,62.2-28.29,28.275-56.57,56.56Z" transform="translate(-65 -166.684)"/><path class="cls-1" d="M609.361,484.958l-.06.06v-.06Z" transform="translate(-65 -166.684)"/><polygon class="cls-1" points="404.301 318.275 404.301 318.335 404.241 318.275 404.301 318.275"/><path class="cls-1" d="M125,530H105q-20,100-40,200H75q7.365-35,14.74-70h50.52q7.38,35,14.74,70h10Q145.005,630,125,530ZM91.84,650Q103.42,595,115,540q11.58,54.99,23.16,110Z" transform="translate(-65 -166.684)"/><path class="cls-1" d="M445,530a50.005,50.005,0,0,0-50,50V680a50,50,0,0,0,100,0V580A50.005,50.005,0,0,0,445,530Zm40,150a40,40,0,0,1-80,0V580a40,40,0,0,1,80,0Z" transform="translate(-65 -166.684)"/><path class="cls-1" d="M815,645.292a49.753,49.753,0,0,1,10,29.99v5a50,50,0,1,1-100,0h10a40,40,0,1,0,80,0v-5a40,40,0,0,0-40-40,50.015,50.015,0,0,1-50-50v-5a50,50,0,0,1,100,0H815a40,40,0,0,0-80,0v5a40,40,0,0,0,40,40,49.915,49.915,0,0,1,40,20.01Z" transform="translate(-65 -166.684)"/><path class="cls-1" d="M275,530V680a50,50,0,0,1-100,0V530h10V680a40,40,0,0,0,80,0V530Z" transform="translate(-65 -166.684)"/><rect class="cls-1" x="265" y="373.316" width="10" height="190"/><rect class="cls-1" x="220" y="363.316" width="100" height="10"/><path class="cls-1" d="M555,530H505V730h50a50.005,50.005,0,0,0,50-50V580A50.005,50.005,0,0,0,555,530Zm40,150a40,40,0,0,1-40,40H515V540h40a40,40,0,0,1,40,40Z" transform="translate(-65 -166.684)"/><polygon class="cls-1" points="560 373.316 560 458.316 650 458.316 650 468.316 560 468.316 560 553.316 650 553.316 650 563.316 550 563.316 550 363.316 650 363.316 650 373.316 560 373.316"/><polygon class="cls-1" points="790 463.316 870 563.316 858 563.316 780 465.816 780 563.316 770 563.316 770 363.316 780 363.316 780 460.816 858 363.316 870 363.316 790 463.316"/><path class="cls-1" d="M415,760V960H395V804.62L350,860H330l-45-55.38V960H265V760h20q27.5,37.5,55,75,27.5-37.5,55-75Z" transform="translate(-65 -166.684)"/><path class="cls-1" d="M495,760H475q-20,100-40,200h20l10.59-60h38.82L515,960h20Q515,860,495,760ZM469.12,880q7.935-45,15.88-90,7.935,45,15.88,90Z" transform="translate(-65 -166.684)"/><path class="cls-1" d="M695,760H675q-20,100-40,200h20l10.59-60h38.82L715,960h20Q715,860,695,760ZM669.12,880q7.935-45,15.88-90,7.935,45,15.88,90Z" transform="translate(-65 -166.684)"/><path class="cls-1" d="M575,960h20V860l40-100H615l-29.009,77.477Q570.5,798.738,555,760H535l40,100Z" transform="translate(-65 -166.684)"/></g></svg>