<svg xmlns="http://www.w3.org/2000/svg" viewBox="0 0 560 120"><defs><style>.cls-1{fill:#366ce1;}.cls-2{fill:#121221;}</style></defs><title>bigmarker</title><g id="Слой_2" data-name="Слой 2"><g id="Complete"><g id="bigmarker"><path class="cls-1" d="M230.5,44.736C206.242,29.5,180.672,53.82,193.368,78.117a23.694,23.694,0,0,0,8.455,8.48C212.234,92.071,222.675,90.506,230,85v5h10V61.993A20.374,20.374,0,0,0,230.5,44.736Zm-6.449,32.581c-14.876,9.05-30.414-6.488-21.364-21.364a9.8,9.8,0,0,1,3.27-3.27c14.876-9.05,30.414,6.488,21.364,21.364A9.8,9.8,0,0,1,224.047,77.317Z"/><path class="cls-1" d="M185,57.5V90H175V57.5a7.5,7.5,0,0,0-15,0h0V90H150V57.5h0a7.5,7.5,0,0,0-15,0V90H125V57.5a17.889,17.889,0,0,1,.175-2.5A17.505,17.505,0,0,1,155,45.25,17.505,17.505,0,0,1,184.825,55,17.889,17.889,0,0,1,185,57.5Z"/><path class="cls-2" d="M25,40a24.863,24.863,0,0,0-15,5.005V20H0V65A25,25,0,1,0,25,40Zm0,40A15,15,0,1,1,40,65,15,15,0,0,1,25,80Z"/><rect class="cls-2" x="55" y="40" width="10" height="50"/><rect class="cls-2" x="55" y="25" width="10" height="10"/><path class="cls-1" d="M379.5,70a25,25,0,0,0,0-10,25,25,0,0,0-48.99,0,25,25,0,0,0,0,10A24.993,24.993,0,0,0,371.84,83.47q-3.982-3.187-7.97-6.375A15,15,0,0,1,340.86,70ZM355,50a14.989,14.989,0,0,1,14.14,10H340.86A14.989,14.989,0,0,1,355,50Z"/><path class="cls-1" d="M282.86,43.565q-2.573,4.29-5.145,8.575A14.995,14.995,0,0,0,255,65V90H245V40h10v5.005a24.979,24.979,0,0,1,27.86-1.44Z"/><path class="cls-1" d="M422.86,43.565q-2.573,4.29-5.145,8.575A14.995,14.995,0,0,0,395,65V90H385V40h10v5.005a24.979,24.979,0,0,1,27.86-1.44Z"/><path class="cls-2" d="M110,40v5.005A25,25,0,1,0,110,85v0a15,15,0,0,1-29.14,5H70.505c.04.215.085.425.135.64v0A25.033,25.033,0,0,0,89.355,109.36h0A25.017,25.017,0,0,0,120,85V40Zm-3.825,35A15,15,0,0,1,80,65.005v0a15,15,0,0,1,30,0v0A14.918,14.918,0,0,1,106.175,75Z"/><polygon class="cls-1" points="337.14 89.995 337.14 90 322.205 90 301.895 71.715 297.14 76 297.14 90 287.14 90 287.14 20 297.14 20 297.14 62.545 301.895 58.26 322.175 40 337.125 40 309.37 64.99 337.14 89.995"/><path class="cls-1" d="M560,36A36,36,0,0,0,524,0H440V120h84a35.99,35.99,0,0,0,26.82-60A35.833,35.833,0,0,0,560,36ZM470,70h50a10,10,0,0,1,0,20H470Zm50-20H470V30h50a10,10,0,0,1,0,20Z"/><path class="cls-2" d="M550,40a30,30,0,0,0-30-30H450V110h70a29.991,29.991,0,0,0,22.35-50A29.862,29.862,0,0,0,550,40ZM520,90H470V70h50a10,10,0,0,1,0,20Zm0-40H470V30h50a10,10,0,0,1,0,20Z"/></g></g></g></svg>