<svg xmlns="http://www.w3.org/2000/svg" viewBox="0 0 335.806 80.013"><defs><style>.cls-1{fill:#366ce1;}</style></defs><title>bitrix 24</title><g id="Complete"><g id="bitrix_24" data-name="bitrix 24"><path class="cls-1" d="M662.9,529.328l5-8.66-8.925-5.159a39.946,39.946,0,0,0-1.11-33.423l8.729-5.04-2.5-4.33-8.729,5.04a40.011,40.011,0,1,0-1.4,46.418Zm-55.8-3.349A30.007,30.007,0,1,1,648.083,515,29.994,29.994,0,0,1,607.1,525.979Z" transform="translate(-332.097 -459.993)"/><path class="cls-1" d="M377.1,500.64c-.275-.225-.555-.44-.845-.64.29-.2.57-.415.845-.64a13.75,13.75,0,0,0-8.75-24.36H332.1v50h36.25a13.752,13.752,0,0,0,8.75-24.36ZM337.1,480h31.25a8.75,8.75,0,0,1,0,17.5H337.1Zm31.25,40H337.1V502.5h31.25a8.75,8.75,0,0,1,0,17.5Z" transform="translate(-332.097 -459.993)"/><rect class="cls-1" x="55" y="15.007" width="5" height="50"/><rect class="cls-1" x="175" y="15.007" width="5" height="50"/><polygon class="cls-1" points="115 15.007 115 20.007 92.5 20.007 92.5 65.007 87.5 65.007 87.5 20.007 65 20.007 65 15.007 115 15.007"/><path class="cls-1" d="M497.1,500.64c-.275-.225-.555-.44-.845-.64.29-.2.57-.415.845-.64a13.75,13.75,0,0,0-8.75-24.36H452.1v50h5V502.5h31.25a8.753,8.753,0,0,1,8.75,8.75V525h5V511.25c0-.42-.02-.835-.055-1.25A13.722,13.722,0,0,0,497.1,500.64Zm-8.75-3.14H457.1V480h31.25a8.75,8.75,0,0,1,0,17.5Z" transform="translate(-332.097 -459.993)"/><polygon class="cls-1" points="235 18.537 213.535 40.007 235 61.472 235 65.007 231.465 65.007 210 43.542 188.53 65.007 185 65.007 185 61.467 206.465 40.007 185 18.542 185 15.007 188.535 15.007 210 36.472 231.46 15.007 235 15.007 235 18.537"/></g></g></svg>