<svg id="Main" xmlns="http://www.w3.org/2000/svg" viewBox="0 0 910 110"><defs><style>.cls-1{fill:#366ce1;stroke:#121222;stroke-miterlimit:10;stroke-width:10px;}.cls-2{fill:#e1dfdf;}</style></defs><title>bootstrap</title><rect class="cls-1" x="5" y="5" width="100" height="100" rx="38"/><path class="cls-2" d="M111.61,493.35A12.453,12.453,0,0,0,115,485c0-8.28-8.95-15-20-15H85v60H95c16.57,0,30-8.95,30-20C125,503.05,119.68,496.93,111.61,493.35ZM95,480c5.52,0,10,2.24,10,5s-4.48,5-10,5Zm0,40V500c11.05,0,20,4.48,20,10S106.05,520,95,520Z" transform="translate(-45 -445)"/><rect class="cls-1" x="105" y="5" width="100" height="100" rx="38"/><rect class="cls-1" x="205" y="5" width="100" height="100" rx="38"/><rect class="cls-1" x="305" y="5" width="100" height="100" rx="38"/><rect class="cls-1" x="405" y="5" width="100" height="100" rx="38"/><rect class="cls-1" x="505" y="5" width="100" height="100" rx="38"/><rect class="cls-1" x="605" y="5" width="100" height="100" rx="38"/><rect class="cls-1" x="705" y="5" width="100" height="100" rx="38"/><rect class="cls-1" x="805" y="5" width="100" height="100" rx="38"/><path class="cls-2" d="M200,470c-11.05,0-20,13.43-20,30s8.95,30,20,30,20-13.43,20-30S211.05,470,200,470Zm0,50c-5.52,0-10-8.95-10-20s4.48-20,10-20,10,8.95,10,20S205.52,520,200,520Z" transform="translate(-45 -445)"/><path class="cls-2" d="M300,470c-11.05,0-20,13.43-20,30s8.95,30,20,30,20-13.43,20-30S311.05,470,300,470Zm0,50c-5.52,0-10-8.95-10-20s4.48-20,10-20,10,8.95,10,20S305.52,520,300,520Z" transform="translate(-45 -445)"/><polygon class="cls-2" points="375 25 375 35 360 35 360 85 350 85 350 35 335 35 335 25 375 25"/><polygon class="cls-2" points="575 25 575 35 560 35 560 85 550 85 550 35 535 35 535 25 575 25"/><path class="cls-2" d="M520,512.5c0,9.66-8.95,17.5-20,17.5s-20-7.84-20-17.5a15.284,15.284,0,0,1,.46-3.72l9.91,5.72c1.16,3.17,5.03,5.5,9.63,5.5,5.52,0,10-3.36,10-7.5s-4.48-7.5-10-7.5a21.506,21.506,0,0,1-13.99-5A16.449,16.449,0,0,1,480,487.5c0-9.66,8.95-17.5,20-17.5s20,7.84,20,17.5a15.052,15.052,0,0,1-.47,3.75l-9.88-5.7c-1.14-3.2-5.03-5.55-9.65-5.55-5.52,0-10,3.36-10,7.5s4.48,7.5,10,7.5a21.506,21.506,0,0,1,13.99,5A16.449,16.449,0,0,1,520,512.5Z" transform="translate(-45 -445)"/><path class="cls-2" d="M720,490c0-11.05-13.43-20-30-20H680v60h10V510a43.971,43.971,0,0,0,6.36-.46Q703.185,519.77,710,530h10q-7.56-11.325-15.1-22.65C713.93,503.91,720,497.43,720,490Zm-30-10c11.05,0,20,4.48,20,10s-8.95,10-20,10Z" transform="translate(-45 -445)"/><path class="cls-2" d="M815,502.423q-2.5-15-5-30H790q-2.49,15-5,30t-5,30h10q2-10.007,4-20h12q2,10,4,20h10Q817.51,517.423,815,502.423Zm-19,0q2-10.006,4-20,2,10,4,20Z" transform="translate(-45 -445)"/><path class="cls-2" d="M890,470H880v60h10V510c16.57,0,30-8.95,30-20S906.57,470,890,470Zm0,30V480c11.05,0,20,4.48,20,10S901.05,500,890,500Z" transform="translate(-45 -445)"/></svg>