<svg id="Main" xmlns="http://www.w3.org/2000/svg" viewBox="0 0 700 310"><defs><style>.cls-1{fill:#121221;}.cls-2{fill:#1c1e20;}.cls-3{fill:#366ce1;}</style></defs><title>BruteForce</title><g id="BruteForce"><rect class="cls-1" y="210" width="20" height="100"/><rect class="cls-1" x="20" y="210" width="30" height="10"/><rect class="cls-1" x="20" y="240" width="50" height="10"/><rect class="cls-1" x="20" y="300" width="50" height="10"/><rect class="cls-1" x="70" y="250" width="10" height="50"/><rect class="cls-1" x="50" y="220" width="10" height="20"/><rect class="cls-1" x="100" y="240" width="10" height="70"/><rect class="cls-1" x="170" y="240" width="10" height="60"/><rect class="cls-1" x="220" y="240" width="10" height="70"/><rect class="cls-1" x="260" y="210" width="10" height="80"/><rect class="cls-1" x="120" y="250" width="10" height="10"/><rect class="cls-1" x="110" y="260" width="10" height="10"/><rect class="cls-1" x="130" y="240" width="20" height="10"/><rect class="cls-1" x="180" y="300" width="40" height="10"/><rect class="cls-1" x="295" y="600" width="20" height="10" transform="translate(760 -45) rotate(90)"/><rect class="cls-1" x="520" y="240" width="10" height="70"/><rect class="cls-1" x="540" y="250" width="10" height="10"/><rect class="cls-1" x="530" y="260" width="10" height="10"/><rect class="cls-1" x="550" y="240" width="20" height="10"/><rect class="cls-1" x="715" y="600" width="20" height="10" transform="translate(1180 -465) rotate(90)"/><rect class="cls-1" x="240" y="240" width="50" height="10"/><rect class="cls-1" x="260" y="290" width="10" height="10"/><rect class="cls-1" x="270" y="300" width="20" height="10"/><rect class="cls-1" x="290" y="290" width="10" height="10"/><rect class="cls-1" x="310" y="270" width="50" height="10"/><rect class="cls-1" x="310" y="280" width="10" height="20"/><rect class="cls-1" x="320" y="300" width="30" height="10"/><rect class="cls-1" x="350" y="290" width="10" height="10"/><rect class="cls-1" x="310" y="250" width="10" height="20"/><rect class="cls-1" x="320" y="240" width="30" height="10"/><rect class="cls-1" x="350" y="250" width="10" height="20"/><rect class="cls-1" x="600" y="300" width="30" height="10"/><rect class="cls-1" x="630" y="290" width="10" height="10"/><rect class="cls-1" x="590" y="250" width="10" height="50"/><rect class="cls-1" x="600" y="240" width="30" height="10"/><rect class="cls-1" x="630" y="250" width="10" height="10"/><rect class="cls-1" x="650" y="270" width="50" height="10"/><rect class="cls-1" x="650" y="280" width="10" height="20"/><rect class="cls-1" x="660" y="300" width="30" height="10"/><rect class="cls-1" x="690" y="290" width="10" height="10"/><rect class="cls-1" x="650" y="250" width="10" height="20"/><rect class="cls-1" x="660" y="240" width="30" height="10"/><rect class="cls-1" x="690" y="250" width="10" height="20"/><rect class="cls-1" x="460" y="270" width="10" height="30"/><rect class="cls-1" x="470" y="300" width="30" height="10"/><rect class="cls-1" x="500" y="290" width="10" height="10"/><rect class="cls-1" x="460" y="250" width="10" height="20"/><rect class="cls-1" x="470" y="240" width="30" height="10"/><rect class="cls-1" x="500" y="250" width="10" height="40"/><rect class="cls-1" x="390" y="210" width="20" height="100"/><rect class="cls-1" x="390" y="210" width="100" height="10"/><rect class="cls-1" x="390" y="240" width="60" height="10"/><rect class="cls-1" x="585" y="385" width="10" height="10" transform="translate(1030 435) rotate(180)"/><rect class="cls-1" x="565" y="375" width="10" height="20" transform="translate(990 425) rotate(180)"/><rect class="cls-1" x="545" y="385" width="10" height="10" transform="translate(950 435) rotate(180)"/><rect class="cls-1" x="525" y="375" width="10" height="20" transform="translate(910 425) rotate(180)"/><rect class="cls-1" x="505" y="385" width="10" height="10" transform="translate(870 435) rotate(180)"/><rect class="cls-1" x="485" y="365" width="10" height="10" transform="translate(830 395) rotate(180)"/><rect class="cls-1" x="485" y="375" width="10" height="20" transform="translate(830 425) rotate(180)"/><rect class="cls-1" x="335" y="130" width="10" height="10"/><rect class="cls-2" x="335" y="110" width="10" height="20"/><rect class="cls-1" x="465" y="345" width="10" height="10" transform="translate(790 355) rotate(180)"/><rect class="cls-1" x="465" y="355" width="10" height="20" transform="translate(790 385) rotate(180)"/><rect class="cls-1" x="465" y="385" width="10" height="10" transform="translate(790 435) rotate(180)"/><rect class="cls-1" x="545" y="365" width="10" height="10" transform="translate(950 395) rotate(180)"/><rect class="cls-1" x="525" y="355" width="10" height="10" transform="translate(910 375) rotate(180)"/><rect class="cls-1" x="505" y="355" width="10" height="20" transform="translate(870 385) rotate(180)"/><circle class="cls-3" cx="340" cy="65" r="5"/><circle class="cls-3" cx="340" cy="95" r="5"/><circle class="cls-3" cx="280" cy="65" r="5"/><circle class="cls-3" cx="280" cy="95" r="5"/><circle class="cls-3" cx="260" cy="65" r="5"/><circle class="cls-3" cx="260" cy="95" r="5"/><rect class="cls-1" x="395" y="445" width="200" height="10" transform="translate(840 555) rotate(180)"/><rect class="cls-1" x="595" y="425" width="10" height="40" transform="translate(1050 545) rotate(180)"/><rect class="cls-1" x="395" y="425" width="200" height="10" transform="translate(840 515) rotate(180)"/><rect class="cls-1" x="395" y="425" width="10" height="40" transform="translate(650 545) rotate(180)"/><rect class="cls-1" x="445" y="365" width="10" height="30" transform="translate(750 415) rotate(180)"/><rect class="cls-1" x="445" y="345" width="10" height="10" transform="translate(750 355) rotate(180)"/><rect class="cls-1" x="425" y="385" width="10" height="10" transform="translate(710 435) rotate(180)"/><rect class="cls-1" x="425" y="365" width="10" height="20" transform="translate(710 405) rotate(180)"/><rect class="cls-1" x="425" y="345" width="10" height="20" transform="translate(710 365) rotate(180)"/><rect class="cls-2" x="275" y="110" width="10" height="10"/><rect class="cls-1" x="275" y="120" width="10" height="20"/><rect class="cls-2" x="275" y="140" width="10" height="20"/><rect class="cls-1" x="405" y="375" width="10" height="20" transform="translate(670 425) rotate(180)"/><rect class="cls-1" x="405" y="345" width="10" height="20" transform="translate(670 365) rotate(180)"/><rect class="cls-1" x="405" y="485" width="10" height="20" transform="translate(670 645) rotate(180)"/><rect class="cls-2" x="405" y="455" width="10" height="20" transform="translate(670 585) rotate(180)"/></g></svg>