<svg id="Main" xmlns="http://www.w3.org/2000/svg" viewBox="0 0 283.22 210"><defs><style>.cls-1{fill:#121221;}.cls-2{fill:#e1dfdf;}.cls-3{fill:#366ce1;}</style></defs><title>C++</title><polygon class="cls-1" points="252.32 210 214.12 210 214.12 179.1 183.22 179.1 183.22 140.9 214.12 140.9 214.12 110 252.32 110 252.32 140.9 283.22 140.9 283.22 179.1 252.32 179.1 252.32 210"/><polygon class="cls-1" points="252.32 69.1 252.32 100 214.12 100 214.12 69.1 183.22 69.1 183.22 30.9 214.12 30.9 214.12 0 252.32 0 252.32 30.9 283.22 30.9 283.22 69.1 252.32 69.1"/><polygon class="cls-2" points="86.65 204.478 86.63 204.508 86.61 204.498 86.65 204.478"/><polygon class="cls-3" points="173.21 154.478 173.22 154.498 86.65 204.478 86.61 204.498 0.03 154.508 0.02 154.508 0.02 54.528 0 54.498 86.61 4.498 86.62 4.488 173.2 54.478 173.22 54.488 154.12 87.568 135.02 76.538 86.62 48.598 38.22 76.538 38.22 132.458 86.62 160.398 135.02 132.448 154.12 121.418 173.21 154.478"/><polygon class="cls-2" points="173.22 54.478 173.22 54.488 173.2 54.478 173.22 54.478"/></svg>