<svg xmlns="http://www.w3.org/2000/svg" viewBox="0 0 518.99 310"><defs><style>.cls-1{fill:#366ce1;}.cls-2{fill:#121221;}</style></defs><title>cisco</title><g id="Complete"><g id="cisco"><path class="cls-1" d="M349.5,385a30,30,0,0,0-30,30v60a30,30,0,0,0,60,0V415A30,30,0,0,0,349.5,385Zm0,100a10,10,0,0,1-10-10V415a10,10,0,0,1,20,0v60A10,10,0,0,1,349.5,485Z" transform="translate(-240.505 -345)"/><path class="cls-2" d="M318.785,615H339.5a50,50,0,1,1,0-20h-20.71a30,30,0,1,0,0,20Z" transform="translate(-240.505 -345)"/><path class="cls-2" d="M627.775,615h20.71a50,50,0,1,1,0-20h-20.71a30,30,0,1,0,0,20Z" transform="translate(-240.505 -345)"/><polygon class="cls-2" points="158.99 230 158.99 290 178.99 290 178.99 310 118.99 310 118.99 290 138.99 290 138.99 230 118.99 230 118.99 210 178.99 210 178.99 230 158.99 230"/><path class="cls-2" d="M459.5,585a10,10,0,0,0,10,10h40a30,30,0,0,1,0,60h-70V635h70a10,10,0,0,0,0-20h-40a30,30,0,1,1,0-60h70v20h-70A10,10,0,0,0,459.5,585Z" transform="translate(-240.505 -345)"/><path class="cls-2" d="M709.5,555a50,50,0,1,0,50,50A50.005,50.005,0,0,0,709.5,555Zm0,80a30,30,0,1,1,30-30A30,30,0,0,1,709.5,635Z" transform="translate(-240.505 -345)"/><path class="cls-1" d="M509.5,385a30,30,0,0,0-30,30v60a30,30,0,0,0,60,0V415A30,30,0,0,0,509.5,385Zm0,100a10,10,0,0,1-10-10V415a10,10,0,0,1,20,0v60A10,10,0,0,1,509.5,485Z" transform="translate(-240.505 -345)"/><path class="cls-2" d="M589.5,345a30,30,0,0,0-30,30V475a30,30,0,0,0,60,0V375A30,30,0,0,0,589.5,345Zm0,140a10,10,0,0,1-10-10V375a10,10,0,0,1,20,0V475A10,10,0,0,1,589.5,485Z" transform="translate(-240.505 -345)"/><path class="cls-2" d="M429.5,345a30,30,0,0,0-30,30V475a30,30,0,0,0,60,0V375A30,30,0,0,0,429.5,345Zm0,140a10,10,0,0,1-10-10V375a10,10,0,0,1,20,0V475A10,10,0,0,1,429.5,485Z" transform="translate(-240.505 -345)"/><path class="cls-1" d="M669.5,385a30,30,0,0,0-30,30v60a30,30,0,0,0,60,0V415A30,30,0,0,0,669.5,385Zm0,100a10,10,0,0,1-10-10V415a10,10,0,1,1,20,0v60A10,10,0,0,1,669.5,485Z" transform="translate(-240.505 -345)"/></g></g></svg>