<svg xmlns="http://www.w3.org/2000/svg" viewBox="0 0 830 100"><defs><style>.cls-1{fill:#366ce1;}.cls-2{fill:#121221;}</style></defs><title>cloud era</title><g id="Слой_2" data-name="Слой 2"><g id="Work_space" data-name="Work space"><g id="cloud_era" data-name="cloud era"><path class="cls-1" d="M486.923,0h-50V100h50a50,50,0,0,0,0-100Zm0,80h-30V20h30a30,30,0,0,1,0,60Z"/><path class="cls-2" d="M610,80v20H510v-.1A49.86,49.86,0,0,0,546.91,80Z"/><path class="cls-2" d="M610,40V60H555.91a50.01,50.01,0,0,0,0-20Z"/><path class="cls-2" d="M610,0V20H546.91A49.86,49.86,0,0,0,510,.1V0Z"/><polygon class="cls-1" points="210 80 210 100 110 100 110 0 130 0 130 80 210 80"/><path class="cls-2" d="M720,30A30,30,0,0,0,690,0H620V100h20V60h50a10,10,0,0,1,10,10v30h20V70a29.862,29.862,0,0,0-7.65-20A29.862,29.862,0,0,0,720,30ZM640,40V20h50a10,10,0,0,1,0,20Z"/><path class="cls-1" d="M266.923,0a50,50,0,1,0,50,50A50.005,50.005,0,0,0,266.923,0Zm0,80a30,30,0,1,1,30-30A30,30,0,0,1,266.923,80Z"/><path class="cls-1" d="M78.28,60H98.99a50,50,0,1,1,0-20H78.28a30,30,0,1,0,0,20Z"/><path class="cls-2" d="M790.77,1.95,789.99,0H770.01l-.78,1.94L730,100h21.55l11.2-28h34.5l11.2,28H830ZM770.75,52,780,28.87,789.25,52Z"/><path class="cls-1" d="M426.923,0V50a50,50,0,0,1-100,0V0h20V50a30,30,0,0,0,60,0V0Z"/></g></g></g></svg>