<svg xmlns="http://www.w3.org/2000/svg" viewBox="0 0 1237.34 235.46"><defs><style>.cls-1{fill:#121221;}.cls-2{fill:#366ce1;}</style></defs><title>config box</title><g id="Слой_2" data-name="Слой 2"><g id="Work_space" data-name="Work space"><g id="config_box" data-name="config box"><polygon class="cls-1" points="1237.34 58.85 1237.34 176.6 1135.38 235.46 1033.41 176.6 1033.41 58.85 1033.431 58.84 1135.38 117.68 1237.32 58.84 1237.34 58.85"/><polygon class="cls-2" points="1237.32 58.84 1135.38 117.68 1033.431 58.84 1135.38 0 1237.32 58.84"/><polygon class="cls-2" points="1237.32 58.84 1135.38 117.68 1033.431 58.84 1135.38 0 1237.32 58.84"/><path class="cls-1" d="M1181.474,52.332l-14.88-17.778-16.339,6.508V28.047h-29.76V41.062l-16.338-6.508-14.88,17.778,16.338,6.508-16.338,6.508,14.88,17.778,16.338-6.508V89.633h29.76V76.618l16.339,6.508,14.88-17.778-16.339-6.508ZM1143.967,69.1h-17.183L1118.2,58.84l8.589-10.264h17.183l8.589,10.264Z"/><path class="cls-2" d="M78.28,127.73H98.99a50,50,0,1,1,0-20H78.28a30,30,0,1,0,0,20Z"/><polygon class="cls-2" points="348.99 87.73 348.99 107.73 408.99 107.73 408.99 127.73 348.99 127.73 348.99 167.73 328.99 167.73 328.99 67.73 428.99 67.73 428.99 87.73 348.99 87.73"/><polygon class="cls-2" points="478.99 87.73 478.99 147.73 498.99 147.73 498.99 167.73 438.99 167.73 438.99 147.73 458.99 147.73 458.99 87.73 438.99 87.73 438.99 67.73 498.99 67.73 498.99 87.73 478.99 87.73"/><polygon class="cls-2" points="318.99 67.73 318.99 167.73 298.99 167.73 238.99 98.32 238.99 167.73 218.99 167.73 218.99 67.73 238.99 67.73 298.99 137.14 298.99 67.73 318.99 67.73"/><path class="cls-1" d="M729.01,97.73a30,30,0,0,0-30-30h-70v100h70a29.991,29.991,0,0,0,22.35-50A29.862,29.862,0,0,0,729.01,97.73Zm-80-10h50a10,10,0,0,1,0,20h-50Zm50,60h-50v-20h50a10,10,0,1,1,0,20Z"/><path class="cls-2" d="M158.99,67.73a50,50,0,1,0,50,50A50.005,50.005,0,0,0,158.99,67.73Zm0,80a30,30,0,1,1,30-30A30,30,0,0,1,158.99,147.73Z"/><path class="cls-1" d="M789.01,67.73a50,50,0,1,0,50,50A50.005,50.005,0,0,0,789.01,67.73Zm0,80a30,30,0,1,1,30-30A30,30,0,0,1,789.01,147.73Z"/><path class="cls-2" d="M598.99,107.73v10a49.16,49.16,0,0,1-1.01,10,50.013,50.013,0,1,1-13.64-45.35L570.2,96.52a30,30,0,1,0,7.07,31.21H548.99v-20Z"/><polygon class="cls-1" points="901.49 117.76 938.94 167.73 913.95 167.73 889 134.43 864.04 167.73 839.06 167.73 876.5 117.76 839.01 67.73 863.99 67.73 889 101.09 914 67.73 938.99 67.73 901.49 117.76"/><path class="cls-2" d="M582.625,117.715h.01c-.01.01-.01.02-.02.03A.037.037,0,0,0,582.625,117.715Z"/></g></g></g></svg>