<svg id="Main" xmlns="http://www.w3.org/2000/svg" viewBox="0 0 238 354.561"><defs><style>.cls-1,.cls-2{fill:#e1dfdf;}.cls-1{stroke:#1d1e20;stroke-miterlimit:10;stroke-width:38px;}.cls-3{fill:#366ce1;}.cls-4{fill:#1c1e20;}.cls-4,.cls-5{opacity:0.62;}.cls-5,.cls-6{fill:#121221;}</style></defs><title>css</title><path class="cls-1" d="M689.866,416.65h200v200l-100,50-100-50Z" transform="translate(-670.866 -333.332)"/><rect class="cls-2" x="83.116" y="157.068" width="35.9" height="25.63"/><path class="cls-2" d="M689.883,416.668v200q49.995,25,100,50v-250Z" transform="translate(-670.866 -333.332)"/><path class="cls-2" d="M825.763,541.668v29.91q-17.942,8.97-35.88,17.93v-47.84Z" transform="translate(-670.866 -333.332)"/><path class="cls-2" d="M889.883,416.668v200q-50,25-100,50v-48.12q30.75-15.375,61.5-30.76v-71.74H792.542l58.841-25.63v-25.63h-61.5v-48.12Z" transform="translate(-670.866 -333.332)"/><path class="cls-3" d="M851.383,490.418l-58.841,25.63h58.841v71.74q-30.75,15.375-61.5,30.76v-29.04q17.94-8.97,35.88-17.93v-29.91h-35.88v-76.88h61.5Z" transform="translate(-670.866 -333.332)"/><polygon class="cls-3" points="119.016 131.457 119.016 208.337 57.516 208.337 57.516 182.707 116.346 157.087 57.516 157.087 57.516 131.457 119.016 131.457"/><path class="cls-3" d="M754,571.578q17.94,8.97,35.88,17.93v29.04q-30.75-15.375-61.5-30.76v-41.86H754Z" transform="translate(-670.866 -333.332)"/><path class="cls-4" d="M825.763,541.65v29.91q-17.942,8.97-35.88,17.93V541.65Z" transform="translate(-670.866 -333.332)"/><path class="cls-4" d="M889.883,416.65v200q-50,25.005-100,50V618.53q30.75-15.375,61.5-30.76V516.03H792.542l58.841-25.63V464.77h-61.5V416.65Z" transform="translate(-670.866 -333.332)"/><path class="cls-5" d="M851.383,490.4l-58.841,25.63h58.841v71.74q-30.75,15.375-61.5,30.76V589.49q17.94-8.97,35.88-17.93V541.65h-35.88V464.77h61.5Z" transform="translate(-670.866 -333.332)"/><path class="cls-6" d="M760.467,361.722h11.091q-4.647,9.3-9.3,18.6H756.07v.008h-19.9q-5.874-11.748-11.752-23.5,5.874-11.75,11.752-23.5h6.185v-.007h19.9q4.649,9.3,9.3,18.6H760.467q-2.2-4.4-4.4-8.806h-13.7q-3.427,6.853-6.85,13.708,3.426,6.847,6.846,13.7h13.7Q758.263,366.129,760.467,361.722Z" transform="translate(-670.866 -333.332)"/><path class="cls-6" d="M813.048,366.012l.023.02-4.455,8.905-2.693,5.387q-13.135,0-26.27,0v0l-7.152-14.3,8.757-4.374,4.382,8.764h14.3l.741-1.482L772.57,347.636l7.152-14.3q13.134,0,26.27,0l0,0,7.149,14.3-8.753,4.375-4.382-8.765h-14.3l-.741,1.483Z" transform="translate(-670.866 -333.332)"/><polygon class="cls-6" points="142.209 32.696 142.205 32.7 142.182 32.681 142.209 32.696"/><path class="cls-6" d="M855.236,366.012l.023.02-4.455,8.905-2.693,5.387q-13.135,0-26.27,0v0l-7.152-14.3,8.757-4.374,4.382,8.764h14.3l.741-1.482-28.111-21.288,7.152-14.3q13.136,0,26.27,0l0,0,7.148,14.3-8.753,4.375-4.382-8.765h-14.3l-.741,1.483Z" transform="translate(-670.866 -333.332)"/><polygon class="cls-6" points="184.397 32.696 184.393 32.7 184.37 32.681 184.397 32.696"/></svg>