<svg xmlns="http://www.w3.org/2000/svg" viewBox="0 0 1198.99 210"><defs><style>.cls-1{fill:#121221;}.cls-2{fill:#366ce1;}</style></defs><title>customer canvas</title><g id="Слой_2" data-name="Слой 2"><g id="Complete"><g id="customer_canvas" data-name="customer canvas"><path class="cls-1" d="M407.27,170h20.71a50,50,0,1,1,0-20H407.27a30,30,0,1,0,0,20Z"/><polygon class="cls-1" points="648.99 110 648.99 210 628.99 210 568.99 140.59 568.99 210 548.99 210 548.99 110 568.99 110 628.99 179.41 628.99 110 648.99 110"/><path class="cls-1" d="M898.99,140a10,10,0,0,0,10,10h40a30,30,0,0,1,0,60h-70V190h70a10,10,0,0,0,0-20h-40a30,30,0,0,1,0-60h70v20h-70A10,10,0,0,0,898.99,140Z"/><polygon class="cls-1" points="758.97 110 719.75 208.07 718.98 210 698.98 210 698.21 208.07 658.99 110 680.53 110 708.98 181.14 737.44 110 758.97 110"/><path class="cls-1" d="M829.76,111.95l-.78-1.95H809l-.78,1.94L768.99,210h21.55l11.2-28h34.5l11.2,28h21.55ZM809.74,162l9.25-23.13L828.24,162Z"/><path class="cls-1" d="M499.76,111.95l-.78-1.95H479l-.78,1.94L438.99,210h21.55l11.2-28h34.5l11.2,28h21.55ZM479.74,162l9.25-23.13L498.24,162Z"/><path class="cls-2" d="M78.28,60H98.99a50,50,0,1,1,0-20H78.28a30,30,0,1,0,0,20Z"/><polygon class="cls-2" points="648.99 0 648.99 100 628.99 100 628.99 30.59 612.19 50.05 598.98 65.36 585.77 50.05 568.99 30.62 568.99 100 548.99 100 548.99 0 568.99 0 568.99 0.01 598.98 34.75 628.97 0 648.99 0"/><path class="cls-2" d="M898.99,30a10,10,0,0,0,10,10h40a30,30,0,0,1,0,60h-70V80h70a10,10,0,0,0,0-20h-40a30,30,0,0,1,0-60h70V20h-70A10,10,0,0,0,898.99,30Z"/><path class="cls-2" d="M238.99,30a10,10,0,0,0,10,10h40a30,30,0,0,1,0,60h-70V80h70a10,10,0,0,0,0-20h-40a30,30,0,0,1,0-60h70V20h-70A10,10,0,0,0,238.99,30Z"/><polygon class="cls-2" points="678.99 20 678.99 40 758.99 40 758.99 60 678.99 60 678.99 80 758.99 80 758.99 100 658.99 100 658.99 0 758.99 0 758.99 20 678.99 20"/><path class="cls-2" d="M208.99,0V50a50,50,0,0,1-100,0V0h20V50a30,30,0,0,0,60,0V0Z"/><path class="cls-2" d="M868.99,30a30,30,0,0,0-30-30h-70V100h20V60h50a10,10,0,0,1,10,10v30h20V70a29.862,29.862,0,0,0-7.65-20A29.862,29.862,0,0,0,868.99,30Zm-80,10V20h50a10,10,0,0,1,0,20Z"/><path class="cls-2" d="M488.99,0a50,50,0,1,0,50,50A50.005,50.005,0,0,0,488.99,0Zm0,80a30,30,0,1,1,30-30A30,30,0,0,1,488.99,80Z"/><polygon class="cls-2" points="428.99 0 428.99 20 388.99 20 388.99 100 368.99 100 368.99 20 328.99 20 328.99 0 428.99 0"/><rect class="cls-2" x="1028.99" y="160" width="100" height="30"/><rect class="cls-2" x="1128.99" y="30" width="30" height="160"/><rect class="cls-2" x="998.99" y="30" width="30" height="160"/><rect class="cls-2" x="1028.99" y="30" width="100" height="30"/><path class="cls-1" d="M1122.64,130h33.83a80,80,0,1,1,0-40h-33.83a48,48,0,1,0,0,40Z"/><rect class="cls-2" x="1078.99" y="90" width="120" height="40"/></g></g></g></svg>