<svg id="Main" xmlns="http://www.w3.org/2000/svg" viewBox="0 0 276.926 227.645"><defs><style>.cls-1{fill:#121221;}.cls-2{fill:#e1dfdf;}.cls-3{fill:#366ce1;opacity:0.5;}.cls-4{fill:#1c1e20;}</style></defs><title>delphi</title><path class="cls-1" d="M523.112,546.3v33.576c27.966,0,50.639-7.515,50.639-16.788S551.078,546.3,523.112,546.3Zm8.44,25.045V554.64c17.818,0,32.267,3.74,32.267,8.355S549.37,571.35,531.552,571.35Z" transform="translate(-361.537 -386.178)"/><path class="cls-1" d="M361.537,546.3v67.517c27.966,0,50.638-15.114,50.638-33.759S389.5,546.3,361.537,546.3Zm8.439,56.265V557.556c18.645,0,33.759,10.077,33.759,22.507S388.621,602.57,369.976,602.57Z" transform="translate(-361.537 -386.178)"/><path class="cls-1" d="M423.991,579.881c0-13.939,18.894-25.241,42.2-25.241V546.3c-27.966,0-50.638,15.113-50.638,33.758s22.672,33.759,50.638,33.759v-8.7c-15.11,0-28.367-4.75-35.821-11.894l-.041-.04c-3.95-3.653-6.289-8.136-6.333-12.98,0-.048,0-.1,0-.146Z" transform="translate(-361.537 -386.178)"/><rect class="cls-1" x="57.961" y="189.796" width="39.965" height="8.18"/><rect class="cls-1" x="108.028" y="219.465" width="50.197" height="8.18"/><rect class="cls-1" x="215.174" y="189.613" width="50.197" height="8.18"/><rect class="cls-1" x="493.579" y="575.973" width="67.297" height="8.18" transform="translate(745.755 -333.342) rotate(90)"/><rect class="cls-1" x="440.007" y="575.506" width="67.297" height="8.18" transform="translate(691.714 -280.237) rotate(90)"/><rect class="cls-1" x="600.725" y="575.506" width="67.297" height="8.18" transform="translate(852.432 -440.955) rotate(90)"/><rect class="cls-1" x="547.152" y="575.973" width="67.297" height="8.18" transform="translate(799.327 -386.915) rotate(90)"/><rect class="cls-1" x="589.485" y="576.084" width="67.297" height="8.18" transform="translate(841.771 -429.137) rotate(90)"/><ellipse class="cls-1" cx="138.463" cy="74.246" rx="92.807" ry="74.246"/><ellipse class="cls-2" cx="138.463" cy="74.246" rx="74.246" ry="55.684"/><circle class="cls-3" cx="135.85" cy="73.252" r="49.788"/><rect class="cls-4" x="137.769" y="38.07" width="2.842" height="73.235"/><path class="cls-4" d="M495.479,420.269v1.281h10.353V420.3Z" transform="translate(-361.537 -386.178)"/><path class="cls-4" d="M496.605,421.813l2.251,2.251h3.782l2.25-2.251Z" transform="translate(-361.537 -386.178)"/><path class="cls-2" d="M490.784,463.945c-1.1,7.257-2.781,10.464-4.212,12.019a5.91,5.91,0,0,0-1.827,3.883,3.65,3.65,0,0,0,.73,2.238c.824,1.024,1.745.763,3.655,1.553a11.5,11.5,0,0,1,4.156,2.878,19.028,19.028,0,0,0,2.284,2.649c.188.163,1.712,1.475,2.055,1.188.193-.161-.061-.757-.228-1.142-1.265-2.914-1.9-4.371-2.055-4.614-.853-1.305-1.433-4.07-2.558-9.546C492.179,472.109,491.468,468.357,490.784,463.945Z" transform="translate(-361.537 -386.178)"/><path class="cls-3" d="M492.069,446.335c-2.172.552-2.135.209-3.32.7-1.9.789-2.13,1.786-4.355,2.71a17.665,17.665,0,0,1-2.011.61c-.546.147-1.047.285-1.512.409a5.865,5.865,0,0,1-.512-.563c-.361-.451-1.567-1.96-1.15-3.256a22.125,22.125,0,0,0,3.845.029c1.322-.108,2.488-.256,2.985-1.064.023-.039.324-.538.145-.778-.2-.264-.8.031-1.911-.106-.4-.05-.734-.1-.792-.274-.089-.285.557-.76.945-.974,1.18-.652,2.206-.108,4.36.19a40.08,40.08,0,0,0,4.98.137c2.386,0,3.146-.124,3.2.09C497.062,444.6,494.529,445.71,492.069,446.335Z" transform="translate(-361.537 -386.178)"/><path class="cls-3" d="M490.2,454.245a3.411,3.411,0,0,1-2.238.161c-.786-.235-.968-.658-1.895-.8-.367-.058-.923-.143-1.211.158a.923.923,0,0,0-.119.842c-.182-.277-.1-.288-.406-.794-1.088-1.787-2.267-1.9-3.463-3.048a5.865,5.865,0,0,1-.512-.563.226.226,0,0,1-.016-.021,4.171,4.171,0,0,1,2.254.045c.953.293.839.689,1.737,1.074,1.67.718,3.972.169,5.069-.092a2.438,2.438,0,0,1,1.439.024c.113.039.85.311,1,.889C492.061,452.92,491.053,453.862,490.2,454.245Z" transform="translate(-361.537 -386.178)"/><path class="cls-2" d="M490.991,451.093c-.235-.136-.264-.438-.286-.673-.017-.182-.07-.747.263-.925a.636.636,0,0,1,.64.091,1,1,0,0,1,.045,1.439A.628.628,0,0,1,490.991,451.093Z" transform="translate(-361.537 -386.178)"/><path class="cls-2" d="M491.7,451.436c-.049-.2.427-.513.845-.628.363-.1.889-.109.959.08s-.311.545-.708.685C492.335,451.735,491.748,451.639,491.7,451.436Z" transform="translate(-361.537 -386.178)"/><path class="cls-2" d="M492.418,450.4c-.249-.007-.459-.518-.491-.914-.041-.509.19-1.125.468-1.142.253-.015.526.463.571.88C493.027,449.779,492.7,450.405,492.418,450.4Z" transform="translate(-361.537 -386.178)"/><path class="cls-2" d="M493.092,449.883c.027-.183.477-.286.822-.263.473.032.987.316.959.514s-.672.365-1.187.206C493.42,450.258,493.067,450.054,493.092,449.883Z" transform="translate(-361.537 -386.178)"/><path class="cls-2" d="M493.229,449.129c-.182-.175.188-.949.731-1.416.286-.246.788-.55.948-.411s-.074.773-.434,1.188C494.069,448.955,493.4,449.293,493.229,449.129Z" transform="translate(-361.537 -386.178)"/><path class="cls-2" d="M493.857,449.2c-.035-.2.515-.465.891-.56.177-.045.526-.133.628.012s-.076.5-.331.673C494.608,449.618,493.9,449.415,493.857,449.2Z" transform="translate(-361.537 -386.178)"/><path class="cls-2" d="M495.376,447.759c-.168-.14.071-.75.377-1.142.333-.427.9-.789,1.073-.651.158.122,0,.616-.183.925C496.291,447.5,495.565,447.916,495.376,447.759Z" transform="translate(-361.537 -386.178)"/><path class="cls-4" d="M490.82,452.087a14.283,14.283,0,0,1,2.192-2.467,13.909,13.909,0,0,1,2.432-1.975,26.214,26.214,0,0,1-2.2,2.169A31.023,31.023,0,0,1,490.82,452.087Z" transform="translate(-361.537 -386.178)"/><path class="cls-3" d="M484.41,432.266c.071-.337.018-.665-.488-1.727-.685-1.441-1.028-2.161-1.461-2.4-1.1-.6-2.542.179-2.969.411a5.415,5.415,0,0,0-2.574,4.4c0,.064,0,.127,0,.127a3.341,3.341,0,0,0,.422,1.457,3.631,3.631,0,0,0,1.191,1.23,1.209,1.209,0,0,0,1.076.216c.3-.14.267-.457.718-.67a1.175,1.175,0,0,1,.837-.09c.419.135.446.493.715.5.089,0,.289-.029.776-.836a8.821,8.821,0,0,0,.639-1.291A2.163,2.163,0,0,0,484.41,432.266Zm-1.934.945c-.124-.145-.246-.38-.167-.488.093-.127.483-.082.716.124.266.235.211.583.272.749C483.122,433.475,482.755,433.536,482.476,433.211Z" transform="translate(-361.537 -386.178)"/><path class="cls-4" d="M482.583,431.506c1.055.285,2.032.755,2.527.289.62-.584,0-2.181-.251-2.832-.411-1.06-.93-2.4-2.193-2.923-1.55-.646-3.2.357-4.156.936-2.2,1.336-4.151,3.9-3.563,4.8C475.6,432.756,478.462,430.391,482.583,431.506Z" transform="translate(-361.537 -386.178)"/><path class="cls-3" d="M478.536,435.766a3.127,3.127,0,0,0-.278.345,3.353,3.353,0,0,0-.248.415,1.177,1.177,0,0,1-.847-.072,1.59,1.59,0,0,1-.686-.823,3.074,3.074,0,0,1-.1-1.937.944.944,0,0,0,.148-.1,1.213,1.213,0,0,0,.4-.52,3.341,3.341,0,0,0,.422,1.457A3.631,3.631,0,0,0,478.536,435.766Z" transform="translate(-361.537 -386.178)"/><path class="cls-4" d="M472.823,463.449c.656-1.244,3.963.05,8.618.122,6.33.1,9.815-2.147,10.475-.975.578,1.028-1.739,3.395-3.045,4.446a11.472,11.472,0,0,1-6.669,2.467c-3.2.106-7.1-1.132-8.831-4.02C473,464.872,472.507,464.049,472.823,463.449Z" transform="translate(-361.537 -386.178)"/><polygon class="cls-4" points="120.564 110.981 118.706 110.981 118.442 81.991 121.883 81.991 120.564 110.981"/><polygon class="cls-4" points="127.963 110.372 126.725 110.372 126.725 79.068 128.491 79.068 127.963 110.372"/><polygon class="cls-4" points="113.935 109.702 112.92 109.702 111.073 78.52 113.935 78.52 113.935 109.702"/><path class="cls-2" d="M530.1,448.468c-.594.95-1.116.989-1.462,1.826-.446,1.087.061,1.918.367,3.381a13.015,13.015,0,0,1-.275,5.663c-.469,1.615-.894,1.52-2.1,4.568a17.737,17.737,0,0,0-.913,2.65,19.023,19.023,0,0,0-.367,4.933c.021,2.177.206,2.866-.275,4.019-.38.918-.636.818-1.1,1.736-.926,1.856-.174,2.864-.639,5.207-.456,2.3-1.306,1.953-1.554,3.927-.259,2.08.657,2.661.367,4.933-.032.243-.412,3.045-1.462,3.2-.916.132-2.209-1.765-2.37-3.6a4.92,4.92,0,0,1-1.375,2.228c-.367.316-.547.348-1.539.631-.478.137-1.148.332-2.116.646l-.547.18c-1.515.5-2.211.794-2.868.952a5.706,5.706,0,0,1-.972.148,8.857,8.857,0,0,1-2-.084,9.049,9.049,0,0,1-1.13-.251,125.1,125.1,0,0,1,1.035-17.661c.667-5.017.124-10.308,1.829-15.075.316-.886,1.066-2.607.364-4.2-.4-.913-1.085-1.346-1.006-2.286.069-.8.6-.876.824-2.008.192-.963-.082-1.428.274-1.736.4-.343.874.118,1.552-.183a2.128,2.128,0,0,0,1.1-1.826c.021-.823-.515-.958-.459-1.736a2.992,2.992,0,0,1,1.005-1.737c.663-.71.955-.644,1.28-1.1.628-.876-.042-1.729.09-2.832.282-2.328,3.887-3.808,6.854-5.025.823-.337.506-.118,2.557-.823.892-.306,1.177-.425,1.462-.272.66.351.14,1.536.821,2.465.625.85,1.48.43,2.742,1.1a5.865,5.865,0,0,1,2.739,4.658A5.6,5.6,0,0,1,530.1,448.468Z" transform="translate(-361.537 -386.178)"/><path class="cls-3" d="M509.767,497.381c-.428.554-1.28.4-3.143.28-2.819-.18-4.028-.032-4.08-.351-.048-.285.894-.663,1.042-.724,1.462-.583,2.19.058,2.945-.525a1.271,1.271,0,0,0,.37-.448,8.857,8.857,0,0,0,2,.084,5.706,5.706,0,0,0,.972-.148,4.719,4.719,0,0,1,.081.512A1.827,1.827,0,0,1,509.767,497.381Z" transform="translate(-361.537 -386.178)"/><path class="cls-3" d="M515.425,497.737c-.132.137-.348.264-3.412-.061-1.581-.169-1.267-.174-1.856-.213-.984-.066-1.6-.032-1.646-.214-.032-.143.319-.351.548-.457.911-.414,1.447.108,2.315-.15a2.111,2.111,0,0,0,1.37-1.248,1.3,1.3,0,0,0,0-.8l.547-.18c.968-.314,1.638-.509,2.116-.646.029.311.042.789.077,1.559C515.573,497.312,515.639,497.51,515.425,497.737Z" transform="translate(-361.537 -386.178)"/><path class="cls-3" d="M516.353,429.671c-.125.485.183.729.137,2.055a3.718,3.718,0,0,1-.16,1.257c-.213.557-.53.787-.571,1.393-.012.188-.027.454.137.593.205.175.491-.017.708.16s.168.584.16.64c-.062.453-.4.56-.639.959a1.646,1.646,0,0,0,.091,1.9c.285.241.678.168,1.462.022a14.593,14.593,0,0,0,2.215-.708c.72-.252,1.08-.378,1.256-.433a10.933,10.933,0,0,0,1.873-.663,2.206,2.206,0,0,0,.776-.5c.389-.506.228-1.188,0-2.284-.543-2.622-.359-2.3-.525-2.718-.294-.745-1.057-2.676-2.9-3.174C518.687,427.708,516.631,428.594,516.353,429.671Z" transform="translate(-361.537 -386.178)"/><path class="cls-4" d="M520.784,436.408a1.549,1.549,0,0,0-.823-1.439c-.257-.109-.574-.118-2.763,1.142a6.8,6.8,0,0,0-2.238,1.713c-.3.388-.647.838-.5,1.256.2.58,1.184.659,1.234.663a3.02,3.02,0,0,0,1.6-.526c1.98-.971,2.279-1.022,2.787-1.553A1.961,1.961,0,0,0,520.784,436.408Z" transform="translate(-361.537 -386.178)"/><path class="cls-4" d="M520.784,432.686c-.446.734-.669,1.1-.594,1.575a1.76,1.76,0,0,0,.639,1.028c.342.278.484.178.914.48.516.362.455.608.822.8a1.542,1.542,0,0,0,1.6-.2c.231-.2.355-.7.593-1.713.246-1.037.211-1.136.16-1.211-.372-.546-1.729.041-2.146-.593-.123-.186-.041-.289-.229-.594-.053-.086-.377-.613-.776-.617C521.424,431.631,521.193,432.012,520.784,432.686Z" transform="translate(-361.537 -386.178)"/><path class="cls-4" d="M515.211,427.121a1.382,1.382,0,0,0,1,.213c.706-.063.816-.423,1.522-.609a4.755,4.755,0,0,1,1.432,0c1.487.058,1.356-.039,1.979.03a5.3,5.3,0,0,1,2.345.7,4.893,4.893,0,0,1,1.37,1.279,3.454,3.454,0,0,1,.609,1.157,2.364,2.364,0,0,1-.091,1.8c-.151.272-.521.767-.853.7s-.264-.634-.7-1.218a3.3,3.3,0,0,0-1.919-1.036c-1.01-.286-1.17-.045-2.131-.335-.824-.248-.641-.4-1.706-.822a22.163,22.163,0,0,0-2.649-.883,1.176,1.176,0,0,1-.822-.426c-.247-.417,0-1.085.183-1.1C514.911,426.564,514.915,426.881,515.211,427.121Z" transform="translate(-361.537 -386.178)"/><path class="cls-4" d="M515.942,428.7a20.208,20.208,0,0,0,4.37,2.193,17.893,17.893,0,0,0,3.425,1.111,15.463,15.463,0,0,0-2.375-1.1,20.11,20.11,0,0,1-2.786-1.066,9.74,9.74,0,0,0-1.492-.792A3.9,3.9,0,0,0,515.942,428.7Z" transform="translate(-361.537 -386.178)"/><path class="cls-2" d="M523.555,431.658c-.179-.054-.26-.713.053-1.089.126-.152.355-.3.472-.236.146.084.07.479-.015.708C523.957,431.333,523.7,431.7,523.555,431.658Z" transform="translate(-361.537 -386.178)"/><path class="cls-2" d="M523.083,432.153c-.065-.167-.634-.159-1.036.076-.033.019-.373.219-.335.365s.468.216.807.1C522.835,432.584,523.138,432.3,523.083,432.153Z" transform="translate(-361.537 -386.178)"/><path class="cls-2" d="M521.7,432.016c-.037.122-.513.127-.891-.023-.349-.139-.666-.432-.616-.541s.549,0,.594.016C521.244,431.584,521.739,431.879,521.7,432.016Z" transform="translate(-361.537 -386.178)"/><path class="cls-2" d="M522.344,431.171c-.118.013-.3-.343-.312-.685-.016-.365.149-.761.274-.754s.229.478.213.845C522.511,430.767,522.464,431.157,522.344,431.171Z" transform="translate(-361.537 -386.178)"/><path class="cls-2" d="M521.446,430.828c-.148.048-.417-.336-.541-.647-.145-.365-.181-.857-.03-.921.132-.056.392.221.525.464C521.645,430.171,521.612,430.775,521.446,430.828Z" transform="translate(-361.537 -386.178)"/><path class="cls-2" d="M520.38,431.155c-.03.082-.536-.031-.83-.121-.338-.105-.767-.294-.746-.373s.347-.044.579,0C519.926,430.763,520.411,431.07,520.38,431.155Z" transform="translate(-361.537 -386.178)"/><path class="cls-2" d="M520.015,430.12c-.195.018-.377-.376-.434-.639-.025-.117-.083-.381.03-.457.148-.1.6.117.678.472C520.351,429.771,520.185,430.1,520.015,430.12Z" transform="translate(-361.537 -386.178)"/><path class="cls-2" d="M518.762,429.568c-.133.11-.543-.049-.685-.354-.128-.277-.028-.662.137-.708s.415.288.514.537C518.751,429.1,518.894,429.461,518.762,429.568Z" transform="translate(-361.537 -386.178)"/><path class="cls-2" d="M518.854,430.447c-.027.108-.658.132-1.131-.171-.166-.106-.365-.286-.331-.354.053-.105.65.1.708.126S518.884,430.327,518.854,430.447Z" transform="translate(-361.537 -386.178)"/><path class="cls-2" d="M517.552,429.443a1.549,1.549,0,0,1-.183-.526c-.039-.259-.021-.6.057-.616s.263.331.252.685A1.059,1.059,0,0,1,517.552,429.443Z" transform="translate(-361.537 -386.178)"/><path class="cls-2" d="M517.015,429.226c-.073.029-.265-.2-.342-.457-.084-.278-.037-.6.045-.617s.219.328.274.548C517.031,428.853,517.1,429.194,517.015,429.226Z" transform="translate(-361.537 -386.178)"/><path class="cls-2" d="M516.867,429.625c-.042.091-.539.017-.879-.274-.139-.118-.293-.307-.252-.365s.386.078.56.171C516.534,429.284,516.907,429.538,516.867,429.625Z" transform="translate(-361.537 -386.178)"/><path class="cls-4" d="M475.472,495.88l38.78,2.832a42.653,42.653,0,0,1-38.78-2.832Z" transform="translate(-361.537 -386.178)"/><path class="cls-2" d="M500.366,488.023c-.216.311-.842.226-1.507.137a4.507,4.507,0,0,1-2.467-1.1c-1.022-.948-.824-1.821-1.415-2.695-.578-.858-1.913-1.721-5.3-1.6a65.117,65.117,0,0,1,.137-7.4c.581-7.709,2.164-10.4.639-11.831-1.014-.951-2.23-.246-12.058.274-1.652.087-3.228.15-4.476-.868-1.222-.993-1.23-2.283-2.193-4.7-1.022-2.563-1.858-3.249-2.832-5.073-.441-.823-3.7-7.389-1.28-13.7a10.163,10.163,0,0,1,4.112-5.344,8.694,8.694,0,0,1,2.512-1c-.446-4.579.4-6.113,1.325-6.622.538-.3.839-.1,2.238-.594,1.813-.638,2.024-1.219,3.151-1.325a3.549,3.549,0,0,1,2.742.869c-.04.118-1.494-.716-2.879-.23-.671.235-1.2.736-2.65,3.792a21.9,21.9,0,0,0-1.792,4.685,3.074,3.074,0,0,0,.1,1.937,1.59,1.59,0,0,0,.686.823,1.177,1.177,0,0,0,.847.072c.536-.138,1.022-.5,1.391-.3.953.512-1.037,3.584.275,6.442.432.947,1.063,1.5.865,2.375-.2.9-1.024,1-1.325,1.871a.183.183,0,0,0-.007.032c-.412,1.277.754,2.763,1.134,3.235a.226.226,0,0,0,.016.021,5.865,5.865,0,0,0,.512.563c1.2,1.145,2.375,1.261,3.463,3.048.308.506.224.517.406.794l.05.074c1.172,1.66,3.26,1.43,6.075,2.1,1.84.438,5.141,1.222,6.213,3.47.546,1.146.28,2.188.045,3.563-.731,4.273-.3,8.282.5,16.307a12.061,12.061,0,0,0,1.006,4.476C499.493,486.36,500.736,487.487,500.366,488.023Z" transform="translate(-361.537 -386.178)"/></svg>