<svg id="Main" xmlns="http://www.w3.org/2000/svg" viewBox="0 0 640 600"><defs><style>.cls-1{fill:#121221;}.cls-2{fill:#366ce1;}.cls-3{fill:#1c1e20;}</style></defs><title>dragon</title><g id="dragon"><path class="cls-1" d="M539.855,278.87c-.15-.05-.31-.09-.47-.13l.46.12A.01.01,0,0,0,539.855,278.87Z" transform="translate(-180 -200)"/><path class="cls-1" d="M543.135,279.74v.09c-1.08-.34-2.17-.66-3.28-.96Z" transform="translate(-180 -200)"/><path class="cls-1" d="M547.855,281.41c-.03-.01-.05-.02-.08-.03a.124.124,0,0,0,.02-.03Z" transform="translate(-180 -200)"/><path class="cls-1" d="M526.445,260h-.16q-1.56-1.725-3.23-3.39Z" transform="translate(-180 -200)"/><path class="cls-1" d="M539.855,278.87l3.28.87v.09C542.055,279.49,540.965,279.17,539.855,278.87Z" transform="translate(-180 -200)"/><path class="cls-1" d="M547.855,281.41c-.03-.01-.05-.02-.08-.03a.124.124,0,0,0,.02-.03Z" transform="translate(-180 -200)"/><path class="cls-1" d="M539.5,241.42q-2.64-1.245-5.34-2.32a1.824,1.824,0,0,1,.07-.25C536.015,239.65,537.765,240.51,539.5,241.42Z" transform="translate(-180 -200)"/><path class="cls-1" d="M526.445,260h-.16q-1.56-1.725-3.23-3.39Z" transform="translate(-180 -200)"/><path class="cls-1" d="M535.3,421.33a.031.031,0,0,0,.01.02l1.05.6C536.005,421.75,535.655,421.54,535.3,421.33Z" transform="translate(-180 -200)"/><path class="cls-1" d="M443.605,538.84h.02l.05-.04Z" transform="translate(-180 -200)"/><path class="cls-1" d="M442.355,525.17c-.07-.05-.14-.1-.22-.15l.02-.02C442.225,525.06,442.285,525.12,442.355,525.17Z" transform="translate(-180 -200)"/><polygon class="cls-1" points="263.675 338.8 263.625 338.84 263.605 338.84 263.675 338.8"/><path class="cls-1" d="M442.355,525.17c-.07-.05-.14-.1-.22-.15l.02-.02C442.225,525.06,442.285,525.12,442.355,525.17Z" transform="translate(-180 -200)"/><path class="cls-1" d="M562.115,585a75.04,75.04,0,0,1-99.62,70.86,73.885,73.885,0,0,1-12.81-5.86h37.43a55.006,55.006,0,0,0,49.11-79.77,100.4,100.4,0,0,0,20.53-13.13A74.784,74.784,0,0,1,562.115,585Z" transform="translate(-180 -200)"/><path class="cls-1" d="M407.379,650h60a75.071,75.071,0,0,1-15,15A74.618,74.618,0,0,0,407.379,650Z" transform="translate(-180 -200)"/><path class="cls-1" d="M421.705,550.05l-.04.02c0-.02.01-.03.01-.05Z" transform="translate(-180 -200)"/><path class="cls-1" d="M442.115,525c.01,0,.01.01.02.02q-2.895,2.55-5.59,5.31c-.29.3-.58.6-.86.9l-.4.43a99.644,99.644,0,0,0-12.86,17.05c-.25.42-.49.83-.73,1.25a74.98,74.98,0,0,1,7.22-19.83c2.18.46,4.38.83,6.6,1.08.16-.32.33-.63.5-.94a75.078,75.078,0,0,1,9.15-13.36c1.9.86,3.84,1.65,5.81,2.35A75.386,75.386,0,0,0,442.115,525Z" transform="translate(-180 -200)"/><polygon class="cls-1" points="263.675 338.8 263.625 338.84 263.605 338.84 263.675 338.8"/><path class="cls-1" d="M442.355,525.17c-.07-.05-.14-.1-.22-.15l.02-.02C442.225,525.06,442.285,525.12,442.355,525.17Z" transform="translate(-180 -200)"/><path class="cls-1" d="M468.115,512.44a73.38,73.38,0,0,0-16.53,6.5,74.2,74.2,0,0,1,11.09-10.23C464.425,510.03,466.245,511.27,468.115,512.44Z" transform="translate(-180 -200)"/><path class="cls-1" d="M496.765,380.07c-.68-.02-1.35-.04-2.03-.05-.56-.02-1.12-.02-1.68-.02a59.674,59.674,0,0,1-24.26-5.12c.32-.16.65-.31.98-.46a99.977,99.977,0,0,1,21.68-7.07,100.787,100.787,0,0,0,5.28,12.67C496.745,380.04,496.755,380.05,496.765,380.07Z" transform="translate(-180 -200)"/><path class="cls-1" d="M536.365,421.95l-1.05-.6a.031.031,0,0,1-.01-.02C535.655,421.54,536.005,421.75,536.365,421.95Z" transform="translate(-180 -200)"/><path class="cls-1" d="M535.3,421.33a99.446,99.446,0,0,1-29.12-26.03c-.04-.06-.09-.12-.13-.18a99.987,99.987,0,0,1,27.8,1.42A99.744,99.744,0,0,0,535.3,421.33Z" transform="translate(-180 -200)"/><path class="cls-1" d="M550.2,471.66a99.74,99.74,0,0,0-23.76-12.99,99.615,99.615,0,0,1,4.89-14.88A59.92,59.92,0,0,1,550.2,471.66Z" transform="translate(-180 -200)"/><path class="cls-1" d="M503.165,230.51a100.445,100.445,0,0,0-40.03,4.05c-2.88.89-5.71,1.92-8.47,3.08a100.015,100.015,0,0,0-37.57,27.33c-1.09,1.26-2.13,2.54-3.14,3.85a99.452,99.452,0,0,0-20.89,60.74,99.958,99.958,0,0,1-16.12-27.36,99.459,99.459,0,0,0,36.85-34.63,100.255,100.255,0,0,1-.54-18.49,99.521,99.521,0,0,0,41.58-11.96,99.285,99.285,0,0,1,7.53-17.62,97.8,97.8,0,0,0,11.84,3.82h.01a.277.277,0,0,0,.13.03,98.85,98.85,0,0,0,28.71,2.99C503.065,227.73,503.105,229.12,503.165,230.51Z" transform="translate(-180 -200)"/><path class="cls-2" d="M563.515,261.45c-.69,1.17-1.42,2.32-2.17,3.45l-4.9-4.9h5.36C562.385,260.48,562.955,260.96,563.515,261.45Z" transform="translate(-180 -200)"/><path class="cls-1" d="M514.315,260q-.525,3.27-.83,6.57a99.1,99.1,0,0,0-27.14-6.2,61.868,61.868,0,0,1,6.71-.37Z" transform="translate(-180 -200)"/><path class="cls-1" d="M539.845,278.86a.01.01,0,0,0,.01.01c-.15-.05-.31-.09-.47-.13Z" transform="translate(-180 -200)"/><path class="cls-1" d="M539.855,278.87l3.28.87v.09C542.055,279.49,540.965,279.17,539.855,278.87Z" transform="translate(-180 -200)"/><path class="cls-1" d="M585.745,289.3l-.02-.02a99.7,99.7,0,0,0-22.21-27.83c-.56-.49-1.13-.97-1.71-1.45a99.881,99.881,0,0,0-28.75-16.72c.34-1.4.7-2.8,1.1-4.18q2.7,1.08,5.34,2.32c.07.03.14.07.21.1a99.667,99.667,0,0,1,27.99,19.73l-30.68-30.68a98.489,98.489,0,0,1,8.53-17.1Z" transform="translate(-180 -200)"/><path class="cls-1" d="M534.225,238.85c1.79.8,3.54,1.66,5.27,2.57q-2.64-1.245-5.34-2.32A1.824,1.824,0,0,1,534.225,238.85Z" transform="translate(-180 -200)"/><path class="cls-1" d="M586.115,290l-.39-.72.02.02Z" transform="translate(-180 -200)"/><path class="cls-1" d="M567.7,261.25a99.667,99.667,0,0,0-27.99-19.73c-.07-.03-.14-.07-.21-.1-1.73-.91-3.48-1.77-5.27-2.57a1.824,1.824,0,0,0-.07.25,99.8,99.8,0,0,0-30.9-6.93c-.02-.31-.04-.62-.05-.93-.02-.25-.03-.49-.04-.73-.06-1.39-.1-2.78-.11-4.17a100.418,100.418,0,0,1,3.39-26.34Z" transform="translate(-180 -200)"/><path class="cls-1" d="M539.5,241.42q-2.64-1.245-5.34-2.32a1.824,1.824,0,0,1,.07-.25C536.015,239.65,537.765,240.51,539.5,241.42Z" transform="translate(-180 -200)"/><path class="cls-1" d="M588.285,291.84l-40.2-10.77-.78-.21L526.445,260h17.87a101.055,101.055,0,0,1,2.13-10l39.28,39.28.39.72-.37-.7Z" transform="translate(-180 -200)"/><path class="cls-1" d="M586.115,290l-.39-.72.02.02Z" transform="translate(-180 -200)"/><path class="cls-1" d="M547.795,281.35l.06.06c-.03-.01-.05-.02-.08-.03A.124.124,0,0,0,547.795,281.35Z" transform="translate(-180 -200)"/><path class="cls-2" d="M552.245,283.14c-1.02-.16-2.05-.3-3.08-.42l-1.31-1.31C549.335,281.95,550.8,282.52,552.245,283.14Z" transform="translate(-180 -200)"/><path class="cls-1" d="M623.055,301.16A99.9,99.9,0,0,1,596.795,320a99.388,99.388,0,0,0-44.54-36.86h-.01c-1.44-.62-2.91-1.19-4.39-1.73l-.06-.06a.124.124,0,0,1-.02.03h-.01c-1.52-.56-3.06-1.07-4.63-1.55v-.09l4.17,1.12.78.21,40.2,10.77Z" transform="translate(-180 -200)"/><path class="cls-1" d="M584.3,317.86a100.171,100.171,0,0,1-32.17,3.19,99.835,99.835,0,0,0-7.23-31.65,100.044,100.044,0,0,0-31.65-7.23,100.3,100.3,0,0,1,.23-15.6q.3-3.3.83-6.57a101.055,101.055,0,0,1,2.13-10l6.61,6.61q1.665,1.665,3.23,3.39h.16l20.86,20.86-4.17-1.12-3.28-.87a.01.01,0,0,1-.01-.01l-.46-.12c.16.04.32.08.47.13,1.11.3,2.2.62,3.28.96,1.57.48,3.11.99,4.63,1.55h.01c.03.01.05.02.08.03Z" transform="translate(-180 -200)"/><path class="cls-1" d="M526.445,260h-.16q-1.56-1.725-3.23-3.39Z" transform="translate(-180 -200)"/><path class="cls-1" d="M539.845,278.86a.01.01,0,0,0,.01.01c-.15-.05-.31-.09-.47-.13Z" transform="translate(-180 -200)"/><path class="cls-1" d="M539.855,278.87l3.28.87v.09C542.055,279.49,540.965,279.17,539.855,278.87Z" transform="translate(-180 -200)"/><path class="cls-1" d="M547.855,281.41c-.03-.01-.05-.02-.08-.03a.124.124,0,0,0,.02-.03Z" transform="translate(-180 -200)"/><path class="cls-3" d="M421.665,550h-.01l.02.02a.142.142,0,0,1,.02-.06C421.685,549.97,421.675,549.99,421.665,550Zm137.52-145a99.471,99.471,0,0,0-62.42-24.93c-.68-.02-1.35-.04-2.03-.05-.56-.02-1.12-.02-1.68-.02a59.674,59.674,0,0,1-24.26-5.12c-.34-.15-.68-.3-1.02-.46a60.011,60.011,0,0,1,18.53-114.05h.01a.019.019,0,0,1,.03,0,61.868,61.868,0,0,1,6.71-.37h21.26a101.055,101.055,0,0,1,2.13-10l10,10h17.87a101.055,101.055,0,0,1,2.13-10l10,10h5.36a99.881,99.881,0,0,0-28.75-16.72c.34-1.4.7-2.8,1.1-4.18a99.8,99.8,0,0,0-30.9-6.93c-.02-.31-.04-.62-.05-.93-.02-.25-.03-.49-.04-.73a100.445,100.445,0,0,0-40.03,4.05c-2.88.89-5.71,1.92-8.47,3.08a100.015,100.015,0,0,0-37.57,27.33c-1.09,1.26-2.13,2.54-3.14,3.85a99.452,99.452,0,0,0-20.89,60.74c-.01.15-.01.29-.01.44a100.022,100.022,0,0,0,100,100,60.033,60.033,0,0,1,57.14,41.66v.01a60.068,60.068,0,0,1-37.03,74.88h-.01a59.29,59.29,0,0,1-13.42,3.08,99.178,99.178,0,0,1-37.31-10.74c-.06-.03-.12-.06-.17-.09q-4.26-2.2-8.26-4.81l-10.22,4.76-.1.05-.05.04h-.02l-1.77-.01-.84.01c.02-.03.05-.06.07-.09a73.98,73.98,0,0,1,5.88-6.87l-13.18,2.92c.15-.33.3-.66.46-.98a98.731,98.731,0,0,0-11.8,15.89l-.72.34A99.99,99.99,0,1,0,559.185,405Zm-23.87,16.35a.031.031,0,0,1-.01-.02,99.446,99.446,0,0,1-29.12-26.03c-.04-.06-.09-.12-.13-.18a99.987,99.987,0,0,1,27.8,1.42,99.744,99.744,0,0,0,1.45,24.79" transform="translate(-180 -200)"/><path class="cls-1" d="M537.915,529.84a59.947,59.947,0,0,1-24.75,16.71h-.01a54.694,54.694,0,0,0-26.04-6.55c-.92,0-1.83-.02-2.73-.05-.01-.01-.01-.01-.02,0h-.01a70.972,70.972,0,0,0-7.37,1.64c-1.71.47-3.4,1-5.05,1.6a99.347,99.347,0,0,1-9.51-4.3c-.06-.03-.12-.06-.17-.09q-4.26-2.2-8.26-4.81l-10.22,4.76h-.02l-.06.04-.02.01-.07.04-1.77-.01-.84.01c.02-.03.05-.06.07-.09a73.98,73.98,0,0,1,5.88-6.87l-13.18,2.92c.15-.33.3-.66.46-.98a98.731,98.731,0,0,0-11.8,15.89l-.72.34-.03-.03a.142.142,0,0,1,.02-.06c.24-.42.48-.83.73-1.25a99.644,99.644,0,0,1,12.86-17.05l.4-.43c.28-.3.57-.6.86-.9q2.7-2.76,5.59-5.31c.08.05.15.1.22.15-.07-.05-.13-.11-.2-.17l-.02.02c-.01-.01-.01-.02-.02-.02a75.386,75.386,0,0,1,8.86-5.74h.01c.2-.11.39-.22.59-.32h.01a73.38,73.38,0,0,1,16.53-6.5h.01A75.033,75.033,0,0,1,532.115,525,72.171,72.171,0,0,1,537.915,529.84Z" transform="translate(-180 -200)"/><polygon class="cls-1" points="263.675 338.8 263.625 338.84 263.605 338.84 263.675 338.8"/><polygon class="cls-1" points="263.775 338.75 263.695 338.79 263.755 338.75 263.775 338.75"/><polygon class="cls-1" points="263.675 338.8 263.625 338.84 263.605 338.84 263.675 338.8"/><polygon class="cls-1" points="263.775 338.75 263.695 338.79 263.755 338.75 263.775 338.75"/></g><path class="cls-1" d="M230,700H180V800h50a50,50,0,0,0,0-100Zm0,80H200V720h30a30,30,0,0,1,0,60Z" transform="translate(-180 -200)"/><path class="cls-1" d="M365,750a25,25,0,0,0,0-50H290V800h20V750h20l40,50h20l-40-50Zm-55-20V720h55a5,5,0,0,1,0,10Z" transform="translate(-180 -200)"/><path class="cls-1" d="M460,700H440L400,800h20l12-30h36l12,30h20Zm-20,50,10-25,10,25Z" transform="translate(-180 -200)"/><path class="cls-1" d="M600,750a50.284,50.284,0,0,1-1,10,49.044,49.044,0,0,1-3.165,10,50,50,0,1,1,0-40h-23.47a29.995,29.995,0,1,0,5.925,30H550V740h49A50.284,50.284,0,0,1,600,750Z" transform="translate(-180 -200)"/><path class="cls-1" d="M660,700a50,50,0,1,0,50,50A50,50,0,0,0,660,700Zm0,80a30,30,0,1,1,30-30A30,30,0,0,1,660,780Z" transform="translate(-180 -200)"/><polygon class="cls-1" points="640 500 640 600 620 600 560 525 560 600 540 600 540 500 560 500 620 575 620 500 640 500"/></svg>