<svg xmlns="http://www.w3.org/2000/svg" viewBox="0 0 810 330"><defs><style>.cls-1,.cls-3,.cls-4{fill:#121221;}.cls-2{fill:#366ce1;}.cls-3{opacity:0.38;}.cls-4{opacity:0.62;}</style></defs><title>dynamics</title><g id="Complete"><g id="dynamics"><path class="cls-1" d="M774.29,460H795a50,50,0,1,1,0-20H774.29a30,30,0,1,0,0,20Z" transform="translate(-95 -170)"/><polygon class="cls-1" points="570 250 570 310 590 310 590 330 530 330 530 310 550 310 550 250 530 250 530 230 590 230 590 250 570 250"/><polygon class="cls-1" points="300 230 300 330 280 330 220 260.59 220 330 200 330 200 230 220 230 280 299.41 280 230 300 230"/><path class="cls-1" d="M145,400H95V500h50a50,50,0,0,0,0-100Zm0,80H115V420h30a30,30,0,0,1,0,60Z" transform="translate(-95 -170)"/><polygon class="cls-1" points="520 230 520 330 500 330 500 260.59 483.2 280.05 469.99 295.36 456.78 280.05 440 260.62 440 330 420 330 420 230 440 230 440 230.01 469.99 264.75 499.98 230 520 230"/><polygon class="cls-1" points="152.83 276.46 150 280 150.05 280 150.05 330 130.05 330 130.05 280 127.22 276.46 90.05 230 115.66 230 140.02 260.45 164.38 230 190 230 152.83 276.46"/><path class="cls-1" d="M825,430a10,10,0,0,0,10,10h40a30,30,0,0,1,0,60H805V480h70a10,10,0,0,0,0-20H835a30,30,0,0,1,0-60h70v20H835A10,10,0,0,0,825,430Z" transform="translate(-95 -170)"/><path class="cls-1" d="M465.77,401.95l-.78-1.95H445.01l-.78,1.94L405,500h21.55l11.2-28h34.5l11.2,28H505ZM445.75,452,455,428.87,464.25,452Z" transform="translate(-95 -170)"/><polygon class="cls-2" points="488.396 143.21 323.036 143.21 405.716 0 488.396 143.21"/><polygon class="cls-2" points="491.602 210 348.396 127.32 491.604 44.637 491.602 210"/><polygon class="cls-2" points="318.398 210 461.604 127.32 318.396 44.637 318.398 210"/><polygon class="cls-3" points="491.602 210 348.396 127.32 491.604 44.637 491.602 210"/><polygon class="cls-4" points="318.398 210 461.604 127.32 318.396 44.637 318.398 210"/></g></g></svg>