<svg xmlns="http://www.w3.org/2000/svg" viewBox="0 0 1000 210"><defs><style>.cls-1{fill:#366ce1;}.cls-2,.cls-3{fill:#121221;}.cls-3{opacity:0.333;}</style></defs><title>harmonyPSA</title><g id="Complete"><g id="harmony_PSA" data-name="harmony PSA"><polygon class="cls-1" points="650 0 650 100 630 100 570 30.59 570 100 550 100 550 0 570 0 630 69.41 630 0 650 0"/><polygon class="cls-1" points="430 0 430 100 410 100 410 30.59 393.2 50.05 379.99 65.36 366.78 50.05 350 30.62 350 100 330 100 330 0 350 0 350 0.01 379.99 34.75 409.98 0 430 0"/><polygon class="cls-1" points="722.83 46.46 720 50 720.05 50 720.05 100 700.05 100 700.05 50 697.22 46.46 660.05 0 685.66 0 710.02 30.45 734.38 0 760 0 722.83 46.46"/><polygon class="cls-1" points="100 0 100 100 80 100 80 60 20 60 20 100 0 100 0 0 20 0 20 40 80 40 80 0 100 0"/><path class="cls-1" d="M320,425a30,30,0,0,0-30-30H220V495h20V455h50a10,10,0,0,1,10,10v30h20V465a29.862,29.862,0,0,0-7.65-20A29.862,29.862,0,0,0,320,425Zm-80,10V415h50a10,10,0,0,1,0,20Z" transform="translate(0 -395)"/><path class="cls-1" d="M490,395a50,50,0,1,0,50,50A50.005,50.005,0,0,0,490,395Zm0,80a30,30,0,1,1,30-30A30,30,0,0,1,490,475Z" transform="translate(0 -395)"/><path class="cls-1" d="M170.77,396.95l-.78-1.95H150.01l-.78,1.94L110,495h21.55l11.2-28h34.5l11.2,28H210ZM150.75,447,160,423.87,169.25,447Z" transform="translate(0 -395)"/><path class="cls-2" d="M739.72,560l-4.51-10L715.5,506.27l.01-.01-.49-1.08h-.01l-.08-.18h-9.84l-.08.18v.02l-.47,1.05h-.01L684.81,550l-4.51,10-20.28,45h10.97l20.28-45h37.48l20.28,45H760Zm-19.71-2.96-.02-.04h.02ZM695.78,550l14.23-31.58L724.25,550Z" transform="translate(0 -395)"/><path class="cls-2" d="M510,505H440V605h10V565h60a30,30,0,0,0,0-60Zm0,50H450V515h60a20,20,0,0,1,0,40Z" transform="translate(0 -395)"/><path class="cls-2" d="M560,532.5A17.506,17.506,0,0,0,577.5,550h45a27.5,27.5,0,0,1,7.5,53.95,26.911,26.911,0,0,1-7.5,1.05H550V595h72.5a17.5,17.5,0,0,0,0-35h-45a27.5,27.5,0,0,1-7.5-53.95,26.911,26.911,0,0,1,7.5-1.05H650v10H577.5A17.506,17.506,0,0,0,560,532.5Z" transform="translate(0 -395)"/><path class="cls-2" d="M949.982,413.4a100,100,0,1,0,36.6,136.6A99.989,99.989,0,0,0,949.982,413.4ZM969.262,540a80,80,0,1,1-29.28-109.28A80,80,0,0,1,969.262,540Z" transform="translate(0 -395)"/><circle class="cls-1" cx="899.982" cy="500" r="79.998" transform="translate(-71.387 -236.189) rotate(-9.702)"/><path class="cls-1" d="M968.6,541.16A40,40,0,1,0,913.953,555.8,40,40,0,0,0,968.6,541.16Zm-51.962-30a20,20,0,1,1,7.32,27.32A19.994,19.994,0,0,1,916.633,511.161Z" transform="translate(0 -395)"/><path class="cls-1" d="M899.31,538.849a40,40,0,1,0-54.641,14.641A40,40,0,0,0,899.31,538.849Zm-51.962-30a20,20,0,1,1,7.321,27.32A19.995,19.995,0,0,1,847.348,508.849Z" transform="translate(0 -395)"/><path class="cls-1" d="M901.322,420.013a40,40,0,1,0,40,40A40,40,0,0,0,901.322,420.013Zm0,60a20,20,0,1,1,20-20A19.994,19.994,0,0,1,901.322,480.013Z" transform="translate(0 -395)"/><circle class="cls-3" cx="901.316" cy="65.007" r="40"/><circle class="cls-3" cx="864.669" cy="123.849" r="40"/><circle class="cls-3" cx="933.953" cy="126.161" r="40"/></g></g></svg>