<svg id="Main" xmlns="http://www.w3.org/2000/svg" viewBox="0 0 238 354.57"><defs><style>.cls-1,.cls-2{fill:#e1dfdf;}.cls-1{stroke:#1d1e20;stroke-miterlimit:10;stroke-width:38px;}.cls-3{fill:#366ce1;}.cls-4{fill:#1c1e20;}.cls-4,.cls-5{opacity:0.62;}.cls-5,.cls-6{fill:#121221;}</style></defs><title>html</title><path class="cls-1" d="M110.02,416.664h200v200l-100,50-100-50Z" transform="translate(-91.02 -333.336)"/><path class="cls-2" d="M148.517,464.784v76.88h61.52v47.83c-.01,0-.01.01-.02.01q-17.94-8.97-35.88-17.93v-25.65h-25.62v41.86q30.75,15.375,61.5,30.76c.01,0,.01-.01.02-.01v48.12c-.01,0-.01.01-.02.01q-50.01-24.99-100-50v-200h100.02v48.12Z" transform="translate(-91.02 -333.336)"/><rect class="cls-2" x="83.116" y="157.078" width="35.9" height="25.63"/><path class="cls-3" d="M210.037,589.494v29.04c-.01,0-.01.01-.02.01q-30.75-15.375-61.5-30.76v-41.86h25.62v25.65q17.94,8.97,35.88,17.93C210.027,589.5,210.027,589.494,210.037,589.494Z" transform="translate(-91.02 -333.336)"/><polygon class="cls-3" points="83.116 157.078 83.116 182.708 119.016 182.708 119.016 208.328 57.496 208.328 57.496 131.448 119.016 131.448 119.016 157.078 83.116 157.078"/><path class="cls-4" d="M148.48,464.784v76.88H210v47.83c-.01,0-.01.01-.02.01q-17.94-8.97-35.88-17.93v-25.65H148.48v41.86q30.75,15.375,61.5,30.76c.01,0,.01-.01.02-.01v48.12c-.01,0-.01.01-.02.01q-50.01-24.99-100-50v-200H210v48.12Z" transform="translate(-91.02 -333.336)"/><rect class="cls-4" x="83.08" y="157.078" width="35.9" height="25.63"/><path class="cls-2" d="M210,416.664v249.99q49.98-24.99,99.98-49.99v-200Z" transform="translate(-91.02 -333.336)"/><path class="cls-5" d="M210,589.494v29.04c-.01,0-.01.01-.02.01q-30.75-15.375-61.5-30.76v-41.86H174.1v25.65q17.94,8.97,35.88,17.93C209.99,589.5,209.99,589.494,210,589.494Z" transform="translate(-91.02 -333.336)"/><polygon class="cls-5" points="83.08 157.078 83.08 182.708 118.98 182.708 118.98 208.328 57.46 208.328 57.46 131.448 118.98 131.448 118.98 157.078 83.08 157.078"/><rect class="cls-3" x="118.98" y="131.448" width="61.48" height="25.63"/><path class="cls-3" d="M210,516.044h61.48v71.74q-30.735,15.375-61.48,30.75v-29.04q17.925-8.97,35.86-17.92v-29.91H210Z" transform="translate(-91.02 -333.336)"/><path class="cls-6" d="M257.948,333.344v46.975h-9.785V344.446q-6.834,3.426-13.672,6.84h-.008q-6.846-3.426-13.695-6.851v35.884H211V333.344h9.785v.008l13.7,6.847,13.676-6.836.023-.011v-.008Z" transform="translate(-91.02 -333.336)"/><polygon class="cls-6" points="154.68 18.521 154.68 18.525 154.676 18.521 154.68 18.521"/><polygon class="cls-6" points="154.672 18.521 154.676 18.521 154.672 18.525 154.672 18.521"/><polygon class="cls-6" points="118.006 0.008 118.006 9.793 99.441 9.793 99.441 46.983 89.657 46.983 89.657 9.793 71.031 9.793 71.031 0.008 118.006 0.008"/><polygon class="cls-6" points="198.342 37.198 198.342 46.983 169.309 46.983 169.309 0.008 179.094 0.008 179.094 37.198 198.342 37.198"/><polygon class="cls-6" points="68.651 0.008 68.651 46.983 58.866 46.983 58.866 27.944 49.402 27.944 49.402 46.975 39.618 46.975 39.618 0 49.402 0 49.402 18.16 58.866 18.16 58.866 0.008 68.651 0.008"/></svg>