<svg xmlns="http://www.w3.org/2000/svg" viewBox="0 0 997.791 300"><defs><style>.cls-1{fill:#366ce1;}</style></defs><title>instagram</title><g id="Слой_2" data-name="Слой 2"><g id="Work_space" data-name="Work space"><g id="instagram"><polygon class="cls-1" points="380 123.721 380 183.721 400 183.721 400 203.721 340 203.721 340 183.721 360 183.721 360 123.721 340 123.721 340 103.721 400 103.721 400 123.721 380 123.721"/><path class="cls-1" d="M691.96,140.452c-33.279-20.908-68.363,12.463-50.943,45.8a32.5,32.5,0,0,0,11.6,11.635c14.284,7.511,28.611,5.364,38.661-2.2v6.867H705V164.129A27.951,27.951,0,0,0,691.96,140.452Zm-8.848,44.7c-20.412,12.418-41.731-8.9-29.314-29.313a13.439,13.439,0,0,1,4.486-4.486c20.411-12.417,41.731,8.9,29.313,29.314A13.433,13.433,0,0,1,683.112,185.155Z"/><path class="cls-1" d="M895.564,140.452c-33.278-20.908-68.363,12.463-50.942,45.8a32.494,32.494,0,0,0,11.6,11.635c14.284,7.511,28.611,5.364,38.661-2.2v6.867h13.721V164.129A27.952,27.952,0,0,0,895.564,140.452Zm-8.848,44.7c-20.411,12.418-41.731-8.9-29.313-29.313a13.436,13.436,0,0,1,4.485-4.486c20.412-12.417,41.731,8.9,29.314,29.314A13.436,13.436,0,0,1,886.716,185.155Z"/><path class="cls-1" d="M997.791,157.965v44.593H984.07V157.965a10.291,10.291,0,0,0-20.582,0h0v44.593H949.767V157.965h0a10.291,10.291,0,1,0-20.581,0v44.593H915.465V157.965a24.511,24.511,0,0,1,.24-3.43,24.019,24.019,0,0,1,40.923-13.378,24.019,24.019,0,0,1,40.923,13.378A24.664,24.664,0,0,1,997.791,157.965Z"/><path class="cls-1" d="M478.605,168.256v34.3H464.884v-34.3a20.582,20.582,0,1,0-41.163,0v34.3H410v-34.3a34.3,34.3,0,1,1,68.605,0Z"/><path class="cls-1" d="M629.535,168.256a34.3,34.3,0,0,1-68.605,0V106.512h13.721v34.309a34.119,34.119,0,0,1,20.582-6.868v13.721a20.582,20.582,0,1,0,20.581,20.582Z"/><path class="cls-1" d="M839.273,138.845q-3.53,5.886-7.059,11.766a20.573,20.573,0,0,0-31.167,17.645v34.3H787.326v-68.6h13.721v6.868a34.27,34.27,0,0,1,38.226-1.976Z"/><path class="cls-1" d="M554.07,168.256a33.769,33.769,0,0,1-.693,6.86,34.3,34.3,0,0,1-57.861,17.392l9.7-9.7a20.576,20.576,0,0,0,33.953-7.691H486.158a34.3,34.3,0,0,1,0-13.721A34.3,34.3,0,0,1,544.019,144l-9.7,9.7a20.575,20.575,0,0,0-33.953,7.69h53.011A33.779,33.779,0,0,1,554.07,168.256Z"/><path class="cls-1" d="M766.744,140.821a.3.3,0,0,0-.062-.048c-.336-.247-.672-.494-1.015-.727-.007-.014-.014-.021-.027-.021-.33-.226-.659-.453-1-.665-.069-.048-.144-.1-.227-.145-.308-.192-.624-.384-.939-.569-.453-.274-.927-.535-1.4-.775-.35-.185-.693-.364-1.05-.535-.013-.007-.034-.014-.048-.021-.4-.192-.816-.384-1.228-.562h-.006c-.419-.179-.837-.35-1.256-.508-.007-.014-.014-.014-.027-.014-.419-.165-.844-.315-1.27-.46a33.563,33.563,0,0,0-4.706-1.234c-.158-.028-.322-.062-.48-.083-.206-.041-.412-.075-.624-.1-.282-.048-.57-.082-.851-.123-.316-.041-.631-.076-.954-.1-.26-.027-.521-.055-.775-.069-.295-.027-.583-.041-.878-.054s-.583-.028-.878-.035-.59-.014-.885-.014a34.307,34.307,0,0,0-34.3,34.3c0,.61.014,1.214.049,1.818.027.569.075,1.132.13,1.688.014.164.034.322.055.487s.034.336.061.507c.028.24.062.481.1.721.028.185.055.377.09.562.157.947.356,1.873.6,2.786.042.185.1.37.145.548s.1.371.157.542c.083.275.165.556.254.83.179.57.371,1.132.59,1.681.1.254.192.508.295.755.11.267.22.535.336.8.131.3.268.6.4.9a32.381,32.381,0,0,0,2.141,3.863c.144.226.288.446.432.665.013.021.027.035.034.048.151.22.3.439.46.659q.473.679.988,1.317c.116.151.24.3.363.453q.855,1.06,1.791,2.038c.192.2.384.4.576.59s.384.384.583.569c0,.007.007.007.014.014q.288.278.6.555c.267.247.549.494.83.728.206.178.411.349.624.521.583.48,1.187.94,1.811,1.372.268.185.529.371.8.549s.542.357.816.528c.234.151.467.3.707.432.316.192.645.378.974.556q1.287.71,2.635,1.3c.3.13.6.26.905.384.24.1.481.2.727.288a32.6,32.6,0,0,0,4.076,1.269c.253.069.514.124.775.178.37.09.741.165,1.118.234.247.041.494.089.741.123s.508.083.768.117c.213.034.419.055.632.082s.4.048.61.069c.288.027.576.055.865.075.871.069,1.756.1,2.641.1.295,0,.59-.007.885-.014s.59-.013.878-.034.583-.027.878-.055c.254-.014.515-.041.775-.068.323-.028.638-.062.954-.1.281-.041.569-.076.851-.124.212-.027.418-.062.624-.1.158-.02.322-.055.48-.082a33.565,33.565,0,0,0,4.706-1.235c.426-.144.851-.3,1.27-.46.013,0,.02,0,.027-.013.419-.158.837-.33,1.256-.508h.006c.412-.178.824-.37,1.228-.563.014-.006.035-.013.048-.02.357-.172.7-.35,1.05-.535.473-.24.947-.5,1.4-.775.315-.186.631-.378.939-.57.083-.048.158-.1.227-.144.336-.213.665-.439,1-.665.013,0,.02-.007.027-.021.343-.233.679-.48,1.015-.727a.383.383,0,0,0,.062-.048v.007a20.578,20.578,0,0,1-35.132,14.551l-9.7,9.7A34.3,34.3,0,0,0,780.465,195.7V168.256A34.226,34.226,0,0,0,766.744,140.821Zm-.027,28.491c-.014.33-.041.652-.069.974-.014.145-.034.289-.055.433-.02.219-.048.432-.082.645a.236.236,0,0,1-.014.068c-.048.33-.1.645-.171.968s-.144.665-.234.994c-.075.316-.164.625-.26.933a.354.354,0,0,1-.041.117c-.069.247-.151.487-.241.72-.034.11-.075.22-.116.33-.076.205-.158.411-.247.6a1.666,1.666,0,0,1-.1.254c-.089.22-.185.432-.288.638a1.82,1.82,0,0,1-.137.288c-.062.131-.124.268-.2.4-.09.185-.192.371-.288.549-.131.24-.268.48-.412.707-.124.2-.247.4-.384.59a1.606,1.606,0,0,1-.185.288c-.344.507-.707,1-1.1,1.468-.172.213-.35.425-.542.631a.157.157,0,0,1-.069.082c-.226.261-.466.508-.713.755s-.5.5-.762.734l-.007.007c-.26.24-.528.467-.795.686s-.556.446-.837.652c-.247.185-.494.363-.755.528-.213.144-.425.281-.638.412a1.321,1.321,0,0,1-.192.116q-.237.155-.494.288c-.151.1-.309.179-.467.261s-.343.179-.514.268a3.151,3.151,0,0,1-.371.171c-.24.124-.48.233-.727.336a.1.1,0,0,0-.041.014c-.3.13-.617.254-.933.371-.007,0-.014.006-.027.013q-.453.165-.927.309a17.66,17.66,0,0,1-1.914.494.707.707,0,0,1-.137.027c-.288.062-.583.117-.885.158l-.13.021c-.247.041-.494.068-.741.1a.168.168,0,0,1-.055.007c-.124.013-.254.027-.377.034-.275.027-.542.048-.824.062-.35.02-.7.027-1.056.027s-.707-.007-1.057-.027c-.281-.014-.549-.035-.823-.062-.123-.007-.254-.021-.377-.034a.165.165,0,0,1-.055-.007c-.247-.028-.494-.055-.741-.1l-.13-.021c-.3-.041-.6-.1-.885-.158a.718.718,0,0,1-.138-.027,17.781,17.781,0,0,1-1.914-.494q-.473-.144-.926-.309c-.014-.007-.021-.013-.027-.013-.316-.117-.631-.241-.933-.371a.1.1,0,0,0-.042-.014c-.247-.1-.487-.212-.727-.336a3.643,3.643,0,0,1-.363-.171c-.179-.083-.35-.172-.522-.268s-.315-.164-.466-.261a5.7,5.7,0,0,1-.494-.288,1.269,1.269,0,0,1-.192-.116q-.319-.2-.638-.412c-.261-.165-.508-.343-.755-.528-.281-.206-.563-.426-.837-.652s-.535-.446-.8-.686l-.007-.007c-.26-.233-.521-.48-.761-.734s-.487-.494-.714-.755a.16.16,0,0,1-.068-.082c-.192-.206-.371-.418-.542-.631-.391-.473-.755-.961-1.1-1.468a1.606,1.606,0,0,1-.185-.288c-.137-.192-.261-.391-.384-.59-.144-.227-.282-.467-.412-.707-.1-.178-.2-.364-.288-.549-.076-.13-.137-.267-.2-.4a1.82,1.82,0,0,1-.137-.288c-.1-.206-.2-.418-.288-.638a1.484,1.484,0,0,1-.1-.254c-.089-.192-.172-.4-.247-.6-.041-.11-.083-.22-.117-.33-.089-.233-.171-.473-.24-.72a.333.333,0,0,1-.041-.117c-.1-.308-.185-.617-.261-.933s-.165-.658-.233-.994-.124-.638-.172-.968a.234.234,0,0,1-.013-.068c-.035-.213-.062-.426-.083-.645-.02-.144-.041-.288-.055-.433-.027-.322-.054-.644-.068-.974-.021-.35-.028-.7-.028-1.049v-.007a20.582,20.582,0,1,1,41.163,0v.007C766.744,168.613,766.737,168.962,766.717,169.312Z"/><path class="cls-1" d="M250,0H50A50.005,50.005,0,0,0,0,50V250a50.005,50.005,0,0,0,50,50H250a50.005,50.005,0,0,0,50-50V50A50.005,50.005,0,0,0,250,0Zm0,260H50a10,10,0,0,1-10-10V50A10,10,0,0,1,50,40H250a10,10,0,0,1,10,10V250A10,10,0,0,1,250,260Z"/><path class="cls-1" d="M150,100a50,50,0,1,0,50,50A50.005,50.005,0,0,0,150,100Zm0,80a30,30,0,1,1,30-30A30,30,0,0,1,150,180Z"/><circle class="cls-1" cx="215" cy="85" r="15"/></g></g></g></svg>