<svg id="Main" xmlns="http://www.w3.org/2000/svg" viewBox="0 0 238 351.26"><defs><style>.cls-1,.cls-2{fill:#e1dfdf;}.cls-1{stroke:#1d1e20;stroke-miterlimit:10;stroke-width:38px;}.cls-3{fill:#366ce1;}.cls-4,.cls-5{fill:#121221;}.cls-4{opacity:0.62;}</style></defs><title>js</title><path class="cls-1" d="M400,415.009H600v200l-100,50-100-50Z" transform="translate(-381 -334.991)"/><path class="cls-2" d="M400,415.009H600v200l-100,50-100-50Z" transform="translate(-381 -334.991)"/><rect class="cls-3" x="57.55" y="128.062" width="122.95" height="25.62"/><path class="cls-3" d="M535.88,535.653V510.024c-.01,0-.01-.01-.02-.01q-17.925-8.971-35.86-17.921-17.91,8.957-35.81,17.9c-.01.011-.03.011-.05.021s-.01.01-.02.01v6.29l.02.01,71.72,20.7,25.36,7.319.26.07.01.01v.01h.01V586.2q-30.75,15.375-61.5,30.76-30.75-15.375-61.5-30.76V557.153l.01-12.81h.03l25.58.02v25.63q17.94,8.97,35.88,17.93,17.91-8.954,35.81-17.9c.01-.01.03-.01.05-.02s.01-.011.02-.011V563.7l-.02-.01-67.01-19.351-4.71-1.36-25.59-7.39-.04-.009h-.01v-41.77q30.75-15.375,61.5-30.761,17.925,8.97,35.86,17.94,12.825,6.406,25.64,12.821v29.049l-.01,12.81h-.03Z" transform="translate(-381 -334.991)"/><path class="cls-4" d="M535.88,535.653V510.024c-.01,0-.01-.01-.02-.01q-17.925-8.971-35.86-17.921-17.91,8.957-35.81,17.9c-.01.011-.03.011-.05.021s-.01.01-.02.01v6.29l.02.01,71.72,20.7,25.36,7.319.26.07.01.01v.01h.01V586.2q-30.75,15.375-61.5,30.76-30.75-15.375-61.5-30.76V557.153l.01-12.81h.03l25.58.02v25.63q17.94,8.97,35.88,17.93,17.91-8.954,35.81-17.9c.01-.01.03-.01.05-.02s.01-.011.02-.011V563.7l-.02-.01-67.01-19.351-4.71-1.36-25.59-7.39-.04-.009h-.01v-41.77q30.75-15.375,61.5-30.761,17.925,8.97,35.86,17.94,12.825,6.406,25.64,12.821v29.049l-.01,12.81h-.03Z" transform="translate(-381 -334.991)"/><path class="cls-3" d="M561.5,544.433V586.2q-30.75,15.375-61.5,30.76-30.75-15.375-61.5-30.76V557.153l.01-12.81,25.61.02v25.63q17.94,8.97,35.88,17.93,17.91-8.954,35.81-17.9c.01-.01.03-.01.05-.02s.01-.011.02-.011V563.7l-.02-.01V463.053h25.62v81.37Z" transform="translate(-381 -334.991)"/><path class="cls-5" d="M547.655,372.758l.026.022-5.149,10.294-3.113,6.226q-15.182,0-30.364,0v0l-8.267-16.529,10.122-5.056,5.065,10.13H532.5l.856-1.713-32.492-24.606,8.266-16.524q15.183,0,30.365,0l0,0,8.262,16.529-10.117,5.056-5.065-10.13H516.05l-.857,1.713Z" transform="translate(-381 -334.991)"/><polygon class="cls-5" points="166.686 37.784 166.681 37.789 166.655 37.767 166.686 37.784"/><path class="cls-5" d="M498.463,334.991v41.123l0,.007-3.48,6.955-3.112,6.225-30.363,0v0l-8.269-16.53,10.121-5.057,5.068,10.133H484.95l.859-1.715,0,0v-28.11l-.776-1.55H468.562L461.614,335q12.095,0,24.192,0v-.008Z" transform="translate(-381 -334.991)"/></svg>