<svg id="Main" xmlns="http://www.w3.org/2000/svg" viewBox="0 0 801 344.666"><defs><style>.cls-1,.cls-3{fill:#1c1e20;}.cls-2{fill:#e1dfdf;}.cls-3{stroke:#121222;stroke-miterlimit:10;}.cls-4{fill:#366ce1;}.cls-5{fill:#121221;}</style></defs><title>linux</title><g id="Linux"><path class="cls-1" d="M275,537.063a99.829,99.829,0,0,1-43.3,82.37,100.507,100.507,0,0,1-63.4,0A100.018,100.018,0,0,1,200,440.213,100.039,100.039,0,0,1,275,537.063Z" transform="translate(-99.5 -327.667)"/><path class="cls-2" d="M247.033,565.354a61.7,61.7,0,0,1-26.761,50.908,62.11,62.11,0,0,1-39.184,0A61.815,61.815,0,0,1,200.68,505.5,61.829,61.829,0,0,1,247.033,565.354Z" transform="translate(-99.5 -327.667)"/><path class="cls-3" d="M300,524.563a100.035,100.035,0,0,1-68.3,94.87A100.018,100.018,0,0,0,200,440.213a100.018,100.018,0,0,0-31.7,179.22,100.006,100.006,0,0,1-32.75-171.31c.22-.18.43-.37.64-.55a99.786,99.786,0,0,0,20.49-24.49c1.36-2.28,2.62-4.6,3.77-6.94.44.58.9,1.15,1.36,1.71a49.393,49.393,0,0,0,5.47,5.64c.31-.27.62-.54.93-.8a49.971,49.971,0,0,1,63.31-.78c.64.51,1.27,1.04,1.88,1.58a48.647,48.647,0,0,0,4.98-5.07c.48-.56.95-1.14,1.4-1.73q1.6,3.18,3.46,6.3a99.536,99.536,0,0,0,20.85,24.81A99.738,99.738,0,0,1,300,524.563Z" transform="translate(-99.5 -327.667)"/><path class="cls-4" d="M191.3,622.333c0,27.61-18.05,50-40.31,50s-40.31-22.39-40.31-50c0-.93.02-1.86.06-2.78.01-.2.02-.39.03-.58a49.512,49.512,0,0,0,7.21-25.33c.02-1.18-.01-2.35-.08-3.53a49.766,49.766,0,0,0-.85-6.65,50.108,50.108,0,0,0,6.46-.86c1.38-.28,2.76-.62,4.12-1.02a49.888,49.888,0,0,0,15.85-7.85c.33-.24.65-.49.97-.74.07-.05.15-.11.22-.17.12-.1.24-.19.35-.29q.69-.555,1.35-1.14a50.145,50.145,0,0,0,4.62-4.6,49.315,49.315,0,0,0,4.76,4.72c.47.41.95.81,1.43,1.2.11.09.22.17.33.26.01.01.02.02.03.02.38.31.76.6,1.15.88.37.27.75.54,1.12.8a49.939,49.939,0,0,0,14.54,6.92c1.36.4,2.73.73,4.12,1.01a50.108,50.108,0,0,0,6.46.86,49.766,49.766,0,0,0-.85,6.65c-.07,1.18-.1,2.35-.08,3.53a49.512,49.512,0,0,0,7.21,25.33c.01.19.02.38.03.58C191.28,620.473,191.3,621.4,191.3,622.333Z" transform="translate(-99.5 -327.667)"/><path class="cls-4" d="M110.68,619.133c.03-.05.06-.11.09-.16-.01.19-.02.38-.03.58a.037.037,0,0,1-.03.01C110.7,619.413,110.68,619.273,110.68,619.133Z" transform="translate(-99.5 -327.667)"/><path class="cls-4" d="M191.3,619.133c0,.14-.02.28-.03.43a.037.037,0,0,1-.03-.01c-.01-.2-.02-.39-.03-.58C191.24,619.023,191.27,619.083,191.3,619.133Z" transform="translate(-99.5 -327.667)"/><path class="cls-4" d="M290.31,622.333c0,27.61-18.05,50-40.31,50s-40.31-22.39-40.31-50c0-.93.02-1.86.06-2.78.01-.2.02-.39.03-.58a49.512,49.512,0,0,0,7.21-25.33c.02-1.18-.01-2.35-.08-3.53a49.766,49.766,0,0,0-.85-6.65,50.108,50.108,0,0,0,6.46-.86c1.38-.28,2.76-.62,4.12-1.02a49.888,49.888,0,0,0,15.85-7.85c.33-.24.65-.49.97-.74.07-.05.15-.11.22-.17.12-.1.24-.19.35-.29q.69-.555,1.35-1.14a50.145,50.145,0,0,0,4.62-4.6,49.315,49.315,0,0,0,4.76,4.72c.47.41.95.81,1.43,1.2.11.09.22.17.33.26.01.01.02.02.03.02.38.31.76.6,1.15.88.37.27.75.54,1.12.8a49.939,49.939,0,0,0,14.54,6.92c1.36.4,2.73.73,4.12,1.01a50.108,50.108,0,0,0,6.46.86,49.766,49.766,0,0,0-.85,6.65c-.07,1.18-.1,2.35-.08,3.53a49.512,49.512,0,0,0,7.21,25.33c.01.19.02.38.03.58C290.29,620.473,290.31,621.4,290.31,622.333Z" transform="translate(-99.5 -327.667)"/><path class="cls-4" d="M209.69,619.133c.03-.05.06-.11.09-.16-.01.19-.02.38-.03.58a.037.037,0,0,1-.03.01C209.71,619.413,209.69,619.273,209.69,619.133Z" transform="translate(-99.5 -327.667)"/><path class="cls-4" d="M290.31,619.133c0,.14-.02.28-.03.43a.037.037,0,0,1-.03-.01c-.01-.2-.02-.39-.03-.58C290.25,619.023,290.28,619.083,290.31,619.133Z" transform="translate(-99.5 -327.667)"/><path class="cls-1" d="M244.987,410.777a49.783,49.783,0,0,1-26.87,22.96c-.02-.08-.03-.17-.05-.25a49.736,49.736,0,0,0,4.09-25.63,50.012,50.012,0,0,0-44.31-.03,49.736,49.736,0,0,0,4.08,25.66,2.166,2.166,0,0,1-.04.25A49.966,49.966,0,0,1,150,376.007a50,50,0,0,1,99.93-.21c.01,0,.02-.01.03-.01A49.768,49.768,0,0,1,244.987,410.777Z" transform="translate(-99.5 -327.667)"/><path class="cls-5" d="M233.017,340.167c-.06.06-.13.11-.19.16a50.015,50.015,0,0,0-33.43,16.78,50.041,50.041,0,0,0-32.18-16.66c-.11-.09-.21-.19-.32-.28a49.969,49.969,0,0,1,66.12,0Z" transform="translate(-99.5 -327.667)"/><ellipse class="cls-2" cx="123.08" cy="55.956" rx="15.43" ry="19.097"/><ellipse class="cls-1" cx="123.08" cy="63.25" rx="9.536" ry="11.803"/><ellipse class="cls-2" cx="76.662" cy="55.956" rx="15.43" ry="19.097"/><ellipse class="cls-1" cx="76.662" cy="63.25" rx="9.536" ry="11.803"/><path class="cls-5" d="M194.365,438.63c-10.43-1.78-19.91-8.769-27.42-19.318C177.375,421.091,186.855,428.081,194.365,438.63Z" transform="translate(-99.5 -327.667)"/><path class="cls-5" d="M232.555,419.118c-7.83,11.083-17.83,18.266-28.81,19.706C211.575,427.741,221.565,420.557,232.555,419.118Z" transform="translate(-99.5 -327.667)"/><path class="cls-4" d="M232.745,418.859c-.06.1-.13.178-.19.259-10.99,1.439-20.98,8.623-28.81,19.706a75.226,75.226,0,0,0-4.62,7.443,73.7,73.7,0,0,0-4.76-7.637c-7.51-10.549-16.99-17.539-27.42-19.318-.11-.146-.21-.308-.32-.453,8.81-12.588,20.39-20.225,33.06-20.225S223.935,406.271,232.745,418.859Z" transform="translate(-99.5 -327.667)"/><path class="cls-3" d="M450,570v20a10,10,0,0,1-10,10H340a10,10,0,0,1-10-10h0a10,10,0,0,1,10-10h0a10,10,0,0,0,10-10V430a10,10,0,0,0-10-10h0a10,10,0,0,1-10-10h0a10,10,0,0,1,10-10h60a10,10,0,0,1,10,10h0a10,10,0,0,1-10,10h0a10,10,0,0,0-10,10V570a10,10,0,0,0,10,10h20a10,10,0,0,0,10-10h0a10,10,0,0,1,10-10h0A10,10,0,0,1,450,570Z" transform="translate(-99.5 -327.667)"/><path class="cls-3" d="M650,590h0a10,10,0,0,1-10,10H620a10,10,0,0,1-10-10V530a10,10,0,0,0-10-10h0a10,10,0,0,1-10-10h0a10,10,0,0,1,10-10h20a10,10,0,0,1,10,10v60a10,10,0,0,0,10,10h0A10,10,0,0,1,650,590Z" transform="translate(-99.5 -327.667)"/><path class="cls-3" d="M580,520h0a10,10,0,0,1,10,10h0a10,10,0,0,1-10,10h0a10,10,0,0,0-10,10v40a10,10,0,0,1-10,10H540a10,10,0,0,1-10-10h0a10,10,0,0,1,10-10h0a10,10,0,0,0,10-10V530a10,10,0,0,0-10-10h0a10,10,0,0,1-10-10h0a10,10,0,0,1,10-10h20a10,10,0,0,1,10,10h0A10,10,0,0,0,580,520Z" transform="translate(-99.5 -327.667)"/><path class="cls-3" d="M700,580h20a10,10,0,0,1,10,10h0a10,10,0,0,1-10,10H680a10,10,0,0,1-10-10V530a10,10,0,0,0-10-10h0a10,10,0,0,1-10-10h0a10,10,0,0,1,10-10h20a10,10,0,0,1,10,10v60A10,10,0,0,0,700,580Z" transform="translate(-99.5 -327.667)"/><rect class="cls-3" x="650.5" y="252.333" width="20" height="20" rx="10"/><rect class="cls-3" x="630.5" y="172.333" width="20" height="80" rx="10"/><path class="cls-3" d="M865.087,524.855l-12,20a10,10,0,0,0,0,10.29l12,20A10,10,0,0,0,873.662,580H890a10,10,0,0,1,10,10h0a10,10,0,0,1-10,10H865.662a10,10,0,0,1-8.576-4.855q-4.257-7.092-8.511-14.185a10,10,0,0,0-17.15,0q-4.255,7.092-8.511,14.185A10,10,0,0,1,814.338,600H790a10,10,0,0,1-10-10h0a10,10,0,0,1,10-10h16.338a10,10,0,0,0,8.575-4.855l12-20a10,10,0,0,0,0-10.29l-12-20A10,10,0,0,0,806.338,520H790a10,10,0,0,1-10-10h0a10,10,0,0,1,10-10h24.338a10,10,0,0,1,8.576,4.855q4.257,7.092,8.511,14.185a10,10,0,0,0,17.15,0q4.255-7.092,8.511-14.185A10,10,0,0,1,865.662,500H890a10,10,0,0,1,10,10h0a10,10,0,0,1-10,10H873.662A10,10,0,0,0,865.087,524.855Z" transform="translate(-99.5 -327.667)"/><path class="cls-3" d="M520,590h0a10,10,0,0,1-10,10H470a10,10,0,0,1-10-10h0a10,10,0,0,1,10-10h0a10,10,0,0,0,10-10V530a10,10,0,0,0-10-10h0a10,10,0,0,1-10-10h0a10,10,0,0,1,10-10h20a10,10,0,0,1,10,10v60a10,10,0,0,0,10,10h0A10,10,0,0,1,520,590Z" transform="translate(-99.5 -327.667)"/><rect class="cls-3" x="380.5" y="142.333" width="20" height="20" rx="10"/></g></svg>