<svg xmlns="http://www.w3.org/2000/svg" viewBox="0 0 397.75 110"><defs><style>.cls-1{fill:#121221;}.cls-2,.cls-3,.cls-4{fill:#366ce1;}.cls-3{opacity:0.38;}.cls-4{opacity:0.62;}</style></defs><title>LogMeInPro</title><g id="Слой_2" data-name="Слой 2"><g id="Complete"><g id="LogMeInPro"><polygon class="cls-1" points="287.75 0 287.75 50 277.75 50 277.75 15.295 269.35 25.025 262.745 32.68 256.14 25.025 247.75 15.31 247.75 50 237.75 50 237.75 0 247.75 0 247.75 0.005 262.745 17.375 277.74 0 287.75 0"/><polygon class="cls-1" points="299.75 22 299.75 29 327.75 29 327.75 36 299.75 36 299.75 43 327.75 43 327.75 50 292.75 50 292.75 15 327.75 15 327.75 22 299.75 22"/><path class="cls-1" d="M342.75,75a15,15,0,0,0-15-15h-35v50h10V90h25a5,5,0,0,1,5,5v15h10V95a14.931,14.931,0,0,0-3.825-10A14.931,14.931,0,0,0,342.75,75Zm-40,5V70h25a5,5,0,0,1,0,10Z"/><path class="cls-1" d="M372.75,60a25,25,0,1,0,25,25A25,25,0,0,0,372.75,60Zm0,40a15,15,0,1,1,15-15A15,15,0,0,1,372.75,100Z"/><polygon class="cls-2" points="77.655 70 77.655 100 87.655 100 87.655 110 57.655 110 57.655 100 67.655 100 67.655 70 57.655 70 57.655 60 87.655 60 87.655 70 77.655 70"/><polygon class="cls-2" points="126.5 75 126.5 110 119.5 110 98.5 85.706 98.5 110 91.5 110 91.5 75 98.5 75 119.5 99.293 119.5 75 126.5 75"/><polygon class="cls-2" points="50 40 50 50 0 50 0 0 10 0 10 40 50 40"/><path class="cls-2" d="M70.5,15A17.5,17.5,0,1,0,88,32.5,17.5,17.5,0,0,0,70.5,15Zm0,28A10.5,10.5,0,1,1,81,32.5,10.5,10.5,0,0,1,70.5,43Z"/><path class="cls-2" d="M126.5,29v3.5a17.178,17.178,0,0,1-.354,3.5,17.5,17.5,0,1,1-4.774-15.873l-4.948,4.949A10.5,10.5,0,1,0,118.9,36H109V29Z"/><path class="cls-1" d="M272.75,60h-35v50h10V90h25a15,15,0,0,0,0-30Zm0,20h-25V70h25a5,5,0,0,1,0,10Z"/><path class="cls-3" d="M191.875,6.01V16.26a40,40,0,1,1-20,0V6.01a50,50,0,1,0,20,0Z"/><path class="cls-4" d="M191.875,16.26V26.72a30,30,0,1,1-20,0V16.26a40,40,0,1,0,20,0Z"/><path class="cls-2" d="M191.875,26.72V37.69a20,20,0,1,1-20,0V26.72a30,30,0,1,0,20,0Z"/><path class="cls-1" d="M191.875,55a10,10,0,1,1-15-8.66V5.25a50.125,50.125,0,0,1,10,0V46.34A9.993,9.993,0,0,1,191.875,55Z"/></g></g></g></svg>