<svg xmlns="http://www.w3.org/2000/svg" viewBox="0 0 920 160"><defs><style>.cls-1{fill:#121221;}.cls-2,.cls-3,.cls-4,.cls-5{fill:#366ce1;}.cls-3{opacity:0.75;}.cls-4{opacity:0.5;}.cls-5{opacity:0.25;}</style></defs><title>Marketo</title><g id="Слой_2" data-name="Слой 2"><g id="Work_space" data-name="Work space"><g id="Marketo"><polygon class="cls-1" points="270 27.494 270 127.494 250 127.494 250 58.084 233.2 77.544 219.99 92.854 206.78 77.544 190 58.114 190 127.494 170 127.494 170 27.494 190 27.494 190 27.504 219.99 62.244 249.98 27.494 270 27.494"/><polygon class="cls-1" points="630 47.494 630 67.494 710 67.494 710 87.494 630 87.494 630 107.494 710 107.494 710 127.494 610 127.494 610 27.494 710 27.494 710 47.494 630 47.494"/><path class="cls-1" d="M490,57.494a30,30,0,0,0-30-30H390v100h20v-40h50a10,10,0,0,1,10,10v30h20v-30a29.862,29.862,0,0,0-7.65-20A29.862,29.862,0,0,0,490,57.494Zm-80,10v-20h50a10,10,0,0,1,0,20Z"/><path class="cls-1" d="M870,27.494a50,50,0,1,0,50,50A50.005,50.005,0,0,0,870,27.494Zm0,80a30,30,0,1,1,30-30A30,30,0,0,1,870,107.494Z"/><polygon class="cls-1" points="600 127.484 600 127.494 570.13 127.494 529.51 90.924 520 99.494 520 127.494 500 127.494 500 27.494 520 27.494 520 72.584 529.51 64.014 570.07 27.494 599.97 27.494 544.46 77.474 600 127.484"/><path class="cls-1" d="M340.77,29.444l-.78-1.95H320.01l-.78,1.94L280,127.494h21.55l11.2-28h34.5l11.2,28H380Zm-20.02,50.05L330,56.364l9.25,23.13Z"/><polygon class="cls-1" points="820 27.494 820 47.494 780 47.494 780 127.494 760 127.494 760 47.494 720 47.494 720 27.494 820 27.494"/><rect class="cls-2" x="90" y="30" width="50" height="100"/><rect class="cls-3" x="60" y="20" width="50" height="120"/><rect class="cls-4" x="30" y="10" width="50" height="140"/><rect class="cls-5" width="50" height="160"/></g></g></g></svg>