<svg id="Main" xmlns="http://www.w3.org/2000/svg" viewBox="0 0 520.86 520.88"><defs><style>.cls-1{fill:#e1dfdf;}.cls-2{fill:#366ce1;}.cls-3{fill:#121221;}.cls-4{opacity:0.38;}</style></defs><title>MatLab</title><g id="MatLab"><path class="cls-1" d="M760.43,362.53V637.46a122.947,122.947,0,0,1-68.32,110.18,1.244,1.244,0,0,1-.2.1c-.01.01-.01.01-.02.01a122.517,122.517,0,0,1-54.43,12.67H362.54q-5.34,0-10.56-.45-3.9-.33-7.74-.9A122.993,122.993,0,0,1,239.57,637.46V362.53A122.965,122.965,0,0,1,351.99,240.02q5.22-.45,10.55-.45H637.46A122.961,122.961,0,0,1,760.43,362.53Z" transform="translate(-239.57 -239.56)"/><path class="cls-1" d="M351.985,438.52c0,.51,0,1.01.02,1.52,0,.55-.01,1.1-.02,1.64Z" transform="translate(-239.57 -239.56)"/><path class="cls-1" d="M352.015,438.51c0,24.3,9.05,45.92,23.13,59.79l-.39-.36c-.23-.23-.46-.47-.68-.7q-.735-.75-1.44-1.53c-1.14-1.24-2.23-2.54-3.28-3.88-.31-.39-.62-.8-.93-1.2l-.33-.45c-.37-.5-.74-1.01-1.1-1.53a76.462,76.462,0,0,1-6.14-10.47c-.45-.92-.89-1.86-1.31-2.82s-.83-1.92-1.21-2.9c-.13-.32-.26-.64-.38-.96-.32-.84-.63-1.68-.92-2.54-.24-.68-.47-1.36-.69-2.06a87.581,87.581,0,0,1-2.8-11.19c-.09-.47-.17-.95-.25-1.42q-.57-3.405-.9-6.92c-.03-.36-.06-.73-.09-1.1-.1-1.18-.17-2.38-.22-3.58-.02-.43-.04-.85-.05-1.28-.01-.45-.02-.91-.03-1.37C352.015,439.53,352.015,439.02,352.015,438.51Z" transform="translate(-239.57 -239.56)"/><path class="cls-1" d="M375.145,498.3c.35.34.69.67,1.04,1a1.059,1.059,0,0,1-.12-.1,1.315,1.315,0,0,1-.21-.2c-.13-.12-.27-.25-.4-.38a1.888,1.888,0,0,1-.2-.2C375.215,498.38,375.185,498.34,375.145,498.3Z" transform="translate(-239.57 -239.56)"/><path class="cls-1" d="M376.185,499.3q1.05.99,2.13,1.92c-.21-.18-.43-.36-.64-.55-.36-.3-.71-.62-1.05-.95C376.475,499.58,376.325,499.44,376.185,499.3Z" transform="translate(-239.57 -239.56)"/><path class="cls-1" d="M378.315,501.22c.68.57,1.36,1.13,2.05,1.68-.43-.32-.84-.66-1.26-1l-.51-.42C378.505,501.39,378.405,501.31,378.315,501.22Z" transform="translate(-239.57 -239.56)"/><path class="cls-1" d="M381.645,503.87c.75.56,1.51,1.1,2.29,1.62-.37-.24-.75-.49-1.11-.75-.27-.18-.54-.38-.81-.58C381.885,504.06,381.765,503.97,381.645,503.87Z" transform="translate(-239.57 -239.56)"/><path class="cls-1" d="M386.285,506.99c.4.23.8.47,1.2.69-.09-.04-.17-.09-.26-.14C386.915,507.36,386.6,507.18,386.285,506.99Z" transform="translate(-239.57 -239.56)"/><path class="cls-1" d="M389.205,508.61c.62.33,1.26.64,1.89.95-.11-.05-.21-.1-.32-.15-.29-.15-.59-.29-.88-.43C389.665,508.86,389.435,508.73,389.205,508.61Z" transform="translate(-239.57 -239.56)"/><path class="cls-1" d="M391.315,509.66q1.17.54,2.37,1.02c-.38-.14-.75-.3-1.13-.46C392.135,510.04,391.725,509.85,391.315,509.66Z" transform="translate(-239.57 -239.56)"/><path class="cls-1" d="M395.4,511.34c.25.09.51.18.76.26-.24-.07-.48-.15-.71-.24A.076.076,0,0,1,395.4,511.34Z" transform="translate(-239.57 -239.56)"/><path class="cls-1" d="M397.555,512.07q.66.21,1.32.39c-.33-.09-.65-.18-.97-.28C397.785,512.14,397.675,512.11,397.555,512.07Z" transform="translate(-239.57 -239.56)"/><path class="cls-1" d="M423.355,512.92c.15-.03.3-.07.45-.11-.02.01-.03.01-.05.02l-.26.06A.7.7,0,0,1,423.355,512.92Z" transform="translate(-239.57 -239.56)"/><path class="cls-1" d="M424.075,512.74c.35-.09.7-.18,1.05-.28-.27.08-.53.15-.8.22A2.268,2.268,0,0,1,424.075,512.74Z" transform="translate(-239.57 -239.56)"/><path class="cls-1" d="M429.305,511.08c.34-.13.67-.26,1.01-.4-.1.05-.2.09-.3.13C429.785,510.9,429.545,511,429.305,511.08Z" transform="translate(-239.57 -239.56)"/><path class="cls-1" d="M430.315,510.68c.85-.34,1.69-.71,2.52-1.09C432.005,509.98,431.165,510.35,430.315,510.68Z" transform="translate(-239.57 -239.56)"/><path class="cls-1" d="M432.835,509.59c.62-.3,1.24-.6,1.86-.92-.2.12-.41.22-.62.32C433.665,509.2,433.245,509.4,432.835,509.59Z" transform="translate(-239.57 -239.56)"/><path class="cls-1" d="M435.305,508.35c.81-.43,1.61-.89,2.41-1.36-.19.11-.37.23-.55.33C436.545,507.68,435.935,508.03,435.305,508.35Z" transform="translate(-239.57 -239.56)"/><path class="cls-1" d="M439.945,505.57c.43-.29.86-.58,1.28-.87-.13.11-.27.2-.41.3-.36.25-.72.49-1.09.73-.08.05-.16.11-.24.16-.58.38-1.17.75-1.77,1.1.4-.24.79-.49,1.18-.74C439.255,506.03,439.605,505.8,439.945,505.57Z" transform="translate(-239.57 -239.56)"/><path class="cls-1" d="M442.715,503.61c.07-.06.14-.11.21-.16-.01.02-.03.03-.04.04C442.825,503.53,442.775,503.57,442.715,503.61Z" transform="translate(-239.57 -239.56)"/><path class="cls-1" d="M446,500.94c.26-.22.51-.44.76-.67-.22.21-.44.41-.65.6-.14.12-.28.24-.42.35-.09.07-.18.15-.27.23C445.615,501.28,445.805,501.11,446,500.94Z" transform="translate(-239.57 -239.56)"/><path class="cls-1" d="M446.755,500.27c.36-.32.71-.64,1.06-.97-.05.06-.11.11-.16.16q-.225.225-.45.42Z" transform="translate(-239.57 -239.56)"/><path class="cls-1" d="M449.225,497.93l.31-.31c-.06.06-.12.12-.18.19s-.12.13-.18.19c-.11.11-.22.21-.32.3-.34.34-.69.67-1.04,1,.45-.42.88-.84,1.31-1.28A.9.9,0,0,0,449.225,497.93Z" transform="translate(-239.57 -239.56)"/><path class="cls-1" d="M449.875,497.27c.33-.35.67-.7,1-1.05a2.848,2.848,0,0,1-.23.26C450.4,496.75,450.145,497.01,449.875,497.27Z" transform="translate(-239.57 -239.56)"/><path class="cls-1" d="M464.145,475.98c.21-.45.41-.91.61-1.37-.09.22-.19.44-.28.65-.44,1.04-.92,2.06-1.41,3.07q-.255.525-.51,1.02c-.17.34-.35.67-.52,1.01-.35.68-.71,1.34-1.08,1.99-.17.31-.35.61-.53.92s-.35.6-.53.9c-.07.13-.15.25-.23.38-.16.25-.31.51-.47.76s-.31.51-.48.76c-.22.35-.44.69-.67,1.03-.29.45-.59.89-.89,1.32s-.59.84-.89,1.25c-.09.14-.2.28-.3.42-.37.5-.75,1-1.13,1.49-.41.53-.83,1.05-1.24,1.56-.04.05-.08.09-.11.13-.46.55-.93,1.1-1.4,1.63q-.345.405-.72.81c-.16.17-.32.33-.49.5.9-.96,1.77-1.95,2.62-2.98.23-.28.46-.56.68-.85a68.138,68.138,0,0,0,4.02-5.54c.33-.49.64-.98.95-1.48s.62-1.01.92-1.52c.2-.32.39-.65.57-.98.25-.42.48-.85.72-1.28C462.345,479.77,463.285,477.9,464.145,475.98Z" transform="translate(-239.57 -239.56)"/><path class="cls-1" d="M471.985,438.52v2.27c-.01.58-.03,1.15-.06,1.72-.02.48-.04.96-.07,1.43-.01.22-.02.43-.04.64-.04.73-.09,1.45-.16,2.16-.03.41-.07.81-.1,1.21-.05.45-.1.91-.15,1.36-.06.56-.13,1.11-.2,1.67-.02.14-.04.28-.06.41-.08.67-.18,1.33-.29,1.99-.41,2.59-.92,5.14-1.53,7.62-.1.44-.22.87-.33,1.31a87.327,87.327,0,0,1-2.72,8.57c-.13.36-.27.73-.42,1.09a6.435,6.435,0,0,1-.24.61,5,5,0,0,1-.21.48c-.18.44-.36.86-.54,1.29.34-.81.67-1.62.99-2.45.2-.49.38-.98.57-1.48.11-.32.23-.65.34-.97a1.176,1.176,0,0,0,.07-.2c.09-.23.17-.47.25-.71s.16-.47.23-.7c.19-.54.36-1.08.53-1.62q.765-2.46,1.4-5.01c.09-.34.17-.69.25-1.04q.84-3.54,1.4-7.22c.05-.34.11-.68.15-1.03.04-.24.07-.48.1-.73q.15-1.1.27-2.19c.06-.57.12-1.15.17-1.72.04-.39.07-.78.1-1.17.06-.77.11-1.53.16-2.3l.06-1.32c.01-.42.03-.84.04-1.26C471.975,440.33,471.985,439.43,471.985,438.52Z" transform="translate(-239.57 -239.56)"/><path class="cls-1" d="M535.155,560.84a12.39,12.39,0,0,0,1.84-.95A10.388,10.388,0,0,1,535.155,560.84Z" transform="translate(-239.57 -239.56)"/><path class="cls-1" d="M625.835,550.6c-11.51-15.56-21.1-47.24-27.11-88.24-10.1-56.42-16.42-132.59-16.72-216.65q.015-3.06.01-6.15c.01,86.49,6.39,165.01,16.74,222.8C604.755,503.36,614.355,535.03,625.835,550.6Z" transform="translate(-239.57 -239.56)"/><path class="cls-1" d="M625.835,550.61c.79,1.05,1.57,2.03,2.36,2.94C627.4,552.64,626.605,551.66,625.835,550.61Z" transform="translate(-239.57 -239.56)"/><path class="cls-1" d="M632.655,557.75a23.449,23.449,0,0,1-1.94-1.62C631.365,556.72,632.005,557.26,632.655,557.75Z" transform="translate(-239.57 -239.56)"/><path class="cls-1" d="M647.825,559.88a19.383,19.383,0,0,0,2.34-1.3A18.233,18.233,0,0,1,647.825,559.88Z" transform="translate(-239.57 -239.56)"/><path class="cls-1" d="M685.275,462.36c-7.36,50.22-20.11,86.46-35.1,96.22,14.98-9.8,27.71-46.03,35.07-96.22a697.024,697.024,0,0,0,6.74-99.23c0,1.42,0,2.83.02,4.23A692.1,692.1,0,0,1,685.275,462.36Z" transform="translate(-239.57 -239.56)"/><path class="cls-1" d="M735.585,559.86a25.549,25.549,0,0,1-7.76-6.47A25.964,25.964,0,0,0,735.585,559.86Z" transform="translate(-239.57 -239.56)"/><path class="cls-2" d="M535.155,560.84a12.39,12.39,0,0,0,1.84-.95A10.388,10.388,0,0,1,535.155,560.84Z" transform="translate(-239.57 -239.56)"/><path class="cls-2" d="M647.825,559.88a19.383,19.383,0,0,0,2.34-1.3A18.233,18.233,0,0,1,647.825,559.88Z" transform="translate(-239.57 -239.56)"/><path class="cls-2" d="M685.275,462.36c-7.36,50.22-20.11,86.46-35.1,96.22,14.98-9.8,27.71-46.03,35.07-96.22a697.024,697.024,0,0,0,6.74-99.23c0,1.42,0,2.83.02,4.23A692.1,692.1,0,0,1,685.275,462.36Z" transform="translate(-239.57 -239.56)"/><path class="cls-2" d="M531.955,561.48c-33.13-.05-59.97-89.11-59.97-198.96,0,67.71-26.86,122.59-60,122.59s-60-54.88-60-122.59c0,108.98-44.03,197.49-98.64,198.94a.019.019,0,0,1-.03,0c-.43.01-.87.02-1.3.02,55.22-.05,99.97-144.16,99.97-321.92,0,109.55,26.86,198.35,60,198.35s60-88.8,60-198.35C471.985,417.3,498.825,561.39,531.955,561.48Z" transform="translate(-239.57 -239.56)"/><path class="cls-2" d="M351.985,438.52c0,.51,0,1.01.02,1.52,0,.55-.01,1.1-.02,1.64Z" transform="translate(-239.57 -239.56)"/><path class="cls-2" d="M352.015,438.51c0,24.3,9.05,45.92,23.13,59.79l-.39-.36c-.23-.23-.46-.47-.68-.7q-.735-.75-1.44-1.53c-1.14-1.24-2.23-2.54-3.28-3.88-.31-.39-.62-.8-.93-1.2l-.33-.45c-.37-.5-.74-1.01-1.1-1.53a76.462,76.462,0,0,1-6.14-10.47c-.45-.92-.89-1.86-1.31-2.82s-.83-1.92-1.21-2.9c-.13-.32-.26-.64-.38-.96-.32-.84-.63-1.68-.92-2.54-.24-.68-.47-1.36-.69-2.06a87.581,87.581,0,0,1-2.8-11.19c-.09-.47-.17-.95-.25-1.42q-.57-3.405-.9-6.92c-.03-.36-.06-.73-.09-1.1-.1-1.18-.17-2.38-.22-3.58-.02-.43-.04-.85-.05-1.28-.01-.45-.02-.91-.03-1.37C352.015,439.53,352.015,439.02,352.015,438.51Z" transform="translate(-239.57 -239.56)"/><path class="cls-2" d="M375.145,498.3c.35.34.69.67,1.04,1a1.059,1.059,0,0,1-.12-.1,1.315,1.315,0,0,1-.21-.2c-.13-.12-.27-.25-.4-.38a1.888,1.888,0,0,1-.2-.2C375.215,498.38,375.185,498.34,375.145,498.3Z" transform="translate(-239.57 -239.56)"/><path class="cls-2" d="M376.185,499.3q1.05.99,2.13,1.92c-.21-.18-.43-.36-.64-.55-.36-.3-.71-.62-1.05-.95C376.475,499.58,376.325,499.44,376.185,499.3Z" transform="translate(-239.57 -239.56)"/><path class="cls-2" d="M378.315,501.22c.68.57,1.36,1.13,2.05,1.68-.43-.32-.84-.66-1.26-1l-.51-.42C378.505,501.39,378.405,501.31,378.315,501.22Z" transform="translate(-239.57 -239.56)"/><path class="cls-2" d="M381.645,503.87c.75.56,1.51,1.1,2.29,1.62-.37-.24-.75-.49-1.11-.75-.27-.18-.54-.38-.81-.58C381.885,504.06,381.765,503.97,381.645,503.87Z" transform="translate(-239.57 -239.56)"/><path class="cls-2" d="M386.285,506.99c.4.23.8.47,1.2.69-.09-.04-.17-.09-.26-.14C386.915,507.36,386.6,507.18,386.285,506.99Z" transform="translate(-239.57 -239.56)"/><path class="cls-2" d="M389.205,508.61c.62.33,1.26.64,1.89.95-.11-.05-.21-.1-.32-.15-.29-.15-.59-.29-.88-.43C389.665,508.86,389.435,508.73,389.205,508.61Z" transform="translate(-239.57 -239.56)"/><path class="cls-2" d="M391.315,509.66q1.17.54,2.37,1.02c-.38-.14-.75-.3-1.13-.46C392.135,510.04,391.725,509.85,391.315,509.66Z" transform="translate(-239.57 -239.56)"/><path class="cls-2" d="M395.4,511.34c.25.09.51.18.76.26-.24-.07-.48-.15-.71-.24A.076.076,0,0,1,395.4,511.34Z" transform="translate(-239.57 -239.56)"/><path class="cls-2" d="M397.555,512.07q.66.21,1.32.39c-.33-.09-.65-.18-.97-.28C397.785,512.14,397.675,512.11,397.555,512.07Z" transform="translate(-239.57 -239.56)"/><path class="cls-2" d="M423.355,512.92c.15-.03.3-.07.45-.11-.02.01-.03.01-.05.02l-.26.06A.7.7,0,0,1,423.355,512.92Z" transform="translate(-239.57 -239.56)"/><path class="cls-2" d="M424.075,512.74c.35-.09.7-.18,1.05-.28-.27.08-.53.15-.8.22A2.268,2.268,0,0,1,424.075,512.74Z" transform="translate(-239.57 -239.56)"/><path class="cls-2" d="M429.305,511.08c.34-.13.67-.26,1.01-.4-.1.05-.2.09-.3.13C429.785,510.9,429.545,511,429.305,511.08Z" transform="translate(-239.57 -239.56)"/><path class="cls-2" d="M430.315,510.68c.85-.34,1.69-.71,2.52-1.09C432.005,509.98,431.165,510.35,430.315,510.68Z" transform="translate(-239.57 -239.56)"/><path class="cls-2" d="M432.835,509.59c.62-.3,1.24-.6,1.86-.92-.2.12-.41.22-.62.32C433.665,509.2,433.245,509.4,432.835,509.59Z" transform="translate(-239.57 -239.56)"/><path class="cls-2" d="M435.305,508.35c.81-.43,1.61-.89,2.41-1.36-.19.11-.37.23-.55.33C436.545,507.68,435.935,508.03,435.305,508.35Z" transform="translate(-239.57 -239.56)"/><path class="cls-2" d="M439.945,505.57c.43-.29.86-.58,1.28-.87-.13.11-.27.2-.41.3-.36.25-.72.49-1.09.73-.08.05-.16.11-.24.16-.58.38-1.17.75-1.77,1.1.4-.24.79-.49,1.18-.74C439.255,506.03,439.605,505.8,439.945,505.57Z" transform="translate(-239.57 -239.56)"/><path class="cls-2" d="M442.715,503.61c.07-.06.14-.11.21-.16-.01.02-.03.03-.04.04C442.825,503.53,442.775,503.57,442.715,503.61Z" transform="translate(-239.57 -239.56)"/><path class="cls-2" d="M446,500.94c.26-.22.51-.44.76-.67-.22.21-.44.41-.65.6-.14.12-.28.24-.42.35-.09.07-.18.15-.27.23C445.615,501.28,445.805,501.11,446,500.94Z" transform="translate(-239.57 -239.56)"/><path class="cls-2" d="M446.755,500.27c.36-.32.71-.64,1.06-.97-.05.06-.11.11-.16.16q-.225.225-.45.42Z" transform="translate(-239.57 -239.56)"/><path class="cls-2" d="M449.225,497.93l.31-.31c-.06.06-.12.12-.18.19s-.12.13-.18.19c-.11.11-.22.21-.32.3-.34.34-.69.67-1.04,1,.45-.42.88-.84,1.31-1.28A.9.9,0,0,0,449.225,497.93Z" transform="translate(-239.57 -239.56)"/><path class="cls-2" d="M449.875,497.27c.33-.35.67-.7,1-1.05a2.848,2.848,0,0,1-.23.26C450.4,496.75,450.145,497.01,449.875,497.27Z" transform="translate(-239.57 -239.56)"/><path class="cls-2" d="M464.145,475.98c.21-.45.41-.91.61-1.37-.09.22-.19.44-.28.65-.44,1.04-.92,2.06-1.41,3.07q-.255.525-.51,1.02c-.17.34-.35.67-.52,1.01-.35.68-.71,1.34-1.08,1.99-.17.31-.35.61-.53.92s-.35.6-.53.9c-.07.13-.15.25-.23.38-.16.25-.31.51-.47.76s-.31.51-.48.76c-.22.35-.44.69-.67,1.03-.29.45-.59.89-.89,1.32s-.59.84-.89,1.25c-.09.14-.2.28-.3.42-.37.5-.75,1-1.13,1.49-.41.53-.83,1.05-1.24,1.56-.04.05-.08.09-.11.13-.46.55-.93,1.1-1.4,1.63q-.345.405-.72.81c-.16.17-.32.33-.49.5.9-.96,1.77-1.95,2.62-2.98.23-.28.46-.56.68-.85a68.138,68.138,0,0,0,4.02-5.54c.33-.49.64-.98.95-1.48s.62-1.01.92-1.52c.2-.32.39-.65.57-.98.25-.42.48-.85.72-1.28C462.345,479.77,463.285,477.9,464.145,475.98Z" transform="translate(-239.57 -239.56)"/><path class="cls-2" d="M471.985,438.52v2.27c-.01.58-.03,1.15-.06,1.72-.02.48-.04.96-.07,1.43-.01.22-.02.43-.04.64-.04.73-.09,1.45-.16,2.16-.03.41-.07.81-.1,1.21-.05.45-.1.91-.15,1.36-.06.56-.13,1.11-.2,1.67-.02.14-.04.28-.06.41-.08.67-.18,1.33-.29,1.99-.41,2.59-.92,5.14-1.53,7.62-.1.44-.22.87-.33,1.31a87.327,87.327,0,0,1-2.72,8.57c-.13.36-.27.73-.42,1.09a6.435,6.435,0,0,1-.24.61,5,5,0,0,1-.21.48c-.18.44-.36.86-.54,1.29.34-.81.67-1.62.99-2.45.2-.49.38-.98.57-1.48.11-.32.23-.65.34-.97a1.176,1.176,0,0,0,.07-.2c.09-.23.17-.47.25-.71s.16-.47.23-.7c.19-.54.36-1.08.53-1.62q.765-2.46,1.4-5.01c.09-.34.17-.69.25-1.04q.84-3.54,1.4-7.22c.05-.34.11-.68.15-1.03.04-.24.07-.48.1-.73q.15-1.1.27-2.19c.06-.57.12-1.15.17-1.72.04-.39.07-.78.1-1.17.06-.77.11-1.53.16-2.3l.06-1.32c.01-.42.03-.84.04-1.26C471.975,440.33,471.985,439.43,471.985,438.52Z" transform="translate(-239.57 -239.56)"/><path class="cls-3" d="M352.015,438.51c0,24.3,9.05,45.92,23.13,59.79l-.39-.36c-.23-.23-.46-.47-.68-.7q-.735-.75-1.44-1.53c-1.14-1.24-2.23-2.54-3.28-3.88-.31-.39-.62-.8-.93-1.2l-.33-.45c-.37-.5-.74-1.01-1.1-1.53a76.462,76.462,0,0,1-6.14-10.47c-.45-.92-.89-1.86-1.31-2.82s-.83-1.92-1.21-2.9c-.13-.32-.26-.64-.38-.96-.32-.84-.63-1.68-.92-2.54-.24-.68-.47-1.36-.69-2.06a87.581,87.581,0,0,1-2.8-11.19c-.09-.47-.17-.95-.25-1.42q-.57-3.405-.9-6.92c-.03-.36-.06-.73-.09-1.1-.1-1.18-.17-2.38-.22-3.58-.02-.43-.04-.85-.05-1.28-.01-.45-.02-.91-.03-1.37C352.015,439.53,352.015,439.02,352.015,438.51Z" transform="translate(-239.57 -239.56)"/><path class="cls-3" d="M375.145,498.3c.35.34.69.67,1.04,1a1.059,1.059,0,0,1-.12-.1,1.315,1.315,0,0,1-.21-.2c-.13-.12-.27-.25-.4-.38a1.888,1.888,0,0,1-.2-.2C375.215,498.38,375.185,498.34,375.145,498.3Z" transform="translate(-239.57 -239.56)"/><path class="cls-3" d="M376.185,499.3q1.05.99,2.13,1.92c-.21-.18-.43-.36-.64-.55-.36-.3-.71-.62-1.05-.95C376.475,499.58,376.325,499.44,376.185,499.3Z" transform="translate(-239.57 -239.56)"/><path class="cls-3" d="M378.315,501.22c.68.57,1.36,1.13,2.05,1.68-.43-.32-.84-.66-1.26-1l-.51-.42C378.505,501.39,378.405,501.31,378.315,501.22Z" transform="translate(-239.57 -239.56)"/><path class="cls-3" d="M381.645,503.87c.75.56,1.51,1.1,2.29,1.62-.37-.24-.75-.49-1.11-.75-.27-.18-.54-.38-.81-.58C381.885,504.06,381.765,503.97,381.645,503.87Z" transform="translate(-239.57 -239.56)"/><path class="cls-3" d="M386.285,506.99c.4.23.8.47,1.2.69-.09-.04-.17-.09-.26-.14C386.915,507.36,386.6,507.18,386.285,506.99Z" transform="translate(-239.57 -239.56)"/><path class="cls-3" d="M389.205,508.61c.62.33,1.26.64,1.89.95-.11-.05-.21-.1-.32-.15-.29-.15-.59-.29-.88-.43C389.665,508.86,389.435,508.73,389.205,508.61Z" transform="translate(-239.57 -239.56)"/><path class="cls-3" d="M391.315,509.66q1.17.54,2.37,1.02c-.38-.14-.75-.3-1.13-.46C392.135,510.04,391.725,509.85,391.315,509.66Z" transform="translate(-239.57 -239.56)"/><path class="cls-3" d="M395.4,511.34c.25.09.51.18.76.26-.24-.07-.48-.15-.71-.24A.076.076,0,0,1,395.4,511.34Z" transform="translate(-239.57 -239.56)"/><path class="cls-3" d="M397.555,512.07q.66.21,1.32.39c-.33-.09-.65-.18-.97-.28C397.785,512.14,397.675,512.11,397.555,512.07Z" transform="translate(-239.57 -239.56)"/><path class="cls-3" d="M429.305,511.08c.34-.13.67-.26,1.01-.4-.1.05-.2.09-.3.13C429.785,510.9,429.545,511,429.305,511.08Z" transform="translate(-239.57 -239.56)"/><path class="cls-3" d="M438.9,506.25c.36-.22.71-.45,1.05-.68-.15.11-.31.21-.46.31C439.285,506.01,439.1,506.13,438.9,506.25Z" transform="translate(-239.57 -239.56)"/><path class="cls-3" d="M449.225,497.93l.31-.31c-.06.06-.12.12-.18.19A1.538,1.538,0,0,0,449.225,497.93Z" transform="translate(-239.57 -239.56)"/><path class="cls-3" d="M464.145,475.98c.21-.45.41-.91.61-1.37-.09.22-.19.44-.28.65Z" transform="translate(-239.57 -239.56)"/><path class="cls-3" d="M464.865,474.35c.34-.81.67-1.62.99-2.45-.14.39-.3.78-.45,1.16C465.225,473.5,465.045,473.92,464.865,474.35Z" transform="translate(-239.57 -239.56)"/><path class="cls-3" d="M531.955,561.48c-33.11-.07-59.94-55.09-59.94-122.97q0,1.14-.03,2.28v-2.27c0,.91-.01,1.81-.04,2.71-.01.42-.03.84-.04,1.26l-.06,1.32c-.05.77-.1,1.53-.16,2.3-.03.39-.06.78-.1,1.17-.05.57-.11,1.15-.17,1.72q-.12,1.1-.27,2.19c-.03.25-.06.49-.1.73-.04.35-.1.69-.15,1.03q-.555,3.675-1.4,7.22c-.08.35-.16.7-.25,1.04q-.63,2.55-1.4,5.01c-.17.54-.34,1.09-.53,1.62-.07.23-.14.47-.23.7s-.16.48-.25.71a1.176,1.176,0,0,1-.07.2c-.11.32-.23.65-.34.97-.19.5-.37.99-.57,1.48-.32.83-.65,1.64-.99,2.45-.04.09-.08.18-.11.26-.2.46-.4.92-.61,1.37-.86,1.92-1.8,3.79-2.79,5.6-.24.43-.47.86-.72,1.28-.18.33-.37.66-.57.98-.3.51-.6,1.02-.92,1.52s-.62.99-.95,1.48a68.138,68.138,0,0,1-4.02,5.54c-.22.29-.45.57-.68.85-.85,1.03-1.72,2.02-2.62,2.98v.01c-.33.35-.67.7-1,1.05-.12.12-.23.23-.34.35l-.31.31a.9.9,0,0,1-.1.09c-.43.44-.86.86-1.31,1.28-.35.33-.7.65-1.06.97-.25.23-.5.45-.76.67-.19.17-.38.34-.58.51-.55.46-1.1.91-1.66,1.35-.22.18-.44.35-.67.52l-.16.13c-.07.05-.14.1-.21.16-.49.37-.99.73-1.49,1.09-.42.29-.85.58-1.28.87-.34.23-.69.46-1.05.68-.39.25-.78.5-1.18.74-.8.47-1.6.93-2.41,1.36-.21.11-.41.21-.61.32-.62.32-1.24.62-1.86.92-.83.38-1.67.75-2.52,1.09-.34.14-.67.27-1.01.4-.14.06-.28.11-.42.16-.1.03-.21.07-.31.11-.15.06-.31.11-.46.16a.114.114,0,0,1-.08.03c-.06.02-.13.05-.19.07a.169.169,0,0,1-.1.03c-.86.3-1.73.57-2.61.82h-.01c-.35.1-.7.19-1.05.28a2.681,2.681,0,0,1-.27.07c-.15.04-.3.08-.45.11-.3.08-.61.15-.91.22-.07.01-.14.03-.21.04-.37.08-.74.16-1.11.23a48.289,48.289,0,0,1-18.25,0c-.41-.08-.81-.16-1.22-.25s-.81-.19-1.21-.29a.865.865,0,0,1-.23-.06.292.292,0,0,1-.09-.02c-.42-.1-.84-.21-1.25-.33q-.66-.18-1.32-.39c-.13-.04-.27-.09-.41-.13-.33-.11-.66-.22-.99-.34-.25-.08-.51-.17-.76-.26-.57-.21-1.14-.43-1.7-.65a.01.01,0,0,0-.01-.01q-1.2-.48-2.37-1.02a.01.01,0,0,0-.01-.01.37.37,0,0,1-.11-.05.488.488,0,0,0-.07-.03.037.037,0,0,1-.03-.01c-.63-.31-1.27-.62-1.89-.95a.161.161,0,0,1-.07-.04c-.41-.22-.8-.43-1.2-.65a4.915,4.915,0,0,1-.45-.24c-.4-.22-.8-.46-1.2-.69-.79-.48-1.58-.98-2.35-1.5s-1.54-1.06-2.29-1.62c-.43-.32-.86-.64-1.28-.97-.69-.55-1.37-1.11-2.05-1.68q-1.08-.93-2.13-1.92c-.35-.33-.69-.66-1.04-1-14.08-13.87-23.13-35.49-23.13-59.79,0,.51,0,1.02-.01,1.53-.02-.51-.02-1.01-.02-1.52v3.16q-.06,2.745-.21,5.46c-.01.24-.03.49-.04.73q-.18,2.88-.46,5.72c-.11,1.1-.23,2.2-.37,3.29-.1.82-.2,1.63-.32,2.45-.16,1.17-.33,2.32-.52,3.47-.09.54-.18,1.09-.28,1.63-.08.5-.17.99-.26,1.48-.88,4.78-2,9.46-3.32,14.02-.17.59-.35,1.19-.54,1.78-.65,2.16-1.36,4.28-2.11,6.38-.21.61-.44,1.21-.67,1.81-.18.52-.38,1.03-.58,1.54-.29.77-.6,1.53-.91,2.29a.031.031,0,0,1-.01.02c-.54,1.31-1.09,2.6-1.66,3.88-.19.43-.38.86-.58,1.28q-2.235,4.86-4.8,9.42c-.44.79-.9,1.58-1.36,2.36s-.92,1.55-1.4,2.31c-.36.59-.73,1.17-1.11,1.75-.61.97-1.25,1.93-1.89,2.87-.48.7-.97,1.39-1.46,2.07-.29.42-.59.82-.89,1.23-.32.45-.66.9-.99,1.34-1.02,1.34-2.05,2.65-3.12,3.93-.34.42-.69.84-1.05,1.25-1.03,1.22-2.08,2.4-3.17,3.56-.36.41-.74.81-1.12,1.2-.49.52-.99,1.03-1.49,1.53q-.81.825-1.65,1.62a2.284,2.284,0,0,1-.22.22c-.36.34-.72.69-1.09,1.02-.38.36-.76.71-1.15,1.06-.57.52-1.14,1.03-1.72,1.52-.37.32-.74.64-1.11.94-.25.22-.5.43-.76.64-.58.48-1.17.95-1.76,1.41-.44.35-.88.69-1.33,1.03s-.89.68-1.34,1a.1.1,0,0,1-.06.05c-.53.39-1.07.78-1.62,1.16-.37.26-.73.51-1.1.76-.34.23-.68.46-1.02.68-.37.25-.75.5-1.13.74q-.405.27-.81.51c-.43.28-.86.54-1.3.81q-.51.315-1.02.6c-.56.34-1.13.66-1.71.98-.66.37-1.32.73-1.99,1.08a1.864,1.864,0,0,1-.34.18q-.87.465-1.77.9a2.246,2.246,0,0,1-.38.19c-.7.34-1.4.67-2.11.99,0,.02-.01.02-.02.01-.61.29-1.23.56-1.85.82a6.354,6.354,0,0,1-.67.28c-.66.29-1.32.55-1.99.81-.76.3-1.53.59-2.3.86q-1.035.375-2.07.72c-.15.05-.3.1-.45.14-.72.23-1.43.45-2.15.66-.77.23-1.54.44-2.32.64a.193.193,0,0,1-.1.03c-.77.2-1.55.39-2.33.57-.8.19-1.61.36-2.41.52q-1.125.225-2.25.42a2.568,2.568,0,0,1-.4.06q-.975.165-1.95.3a4.013,4.013,0,0,1-.5.07c-.72.1-1.43.18-2.15.26a.5.5,0,0,1-.17.02c-.72.08-1.44.14-2.17.2a2.581,2.581,0,0,1-.48.03c-.74.06-1.48.11-2.23.14a.03.03,0,0,1-.04,0c-.82.04-1.64.07-2.46.08,54.61-1.45,98.64-89.96,98.64-198.94,0,67.71,26.86,122.59,60,122.59s60-54.88,60-122.59C471.985,472.37,498.825,561.43,531.955,561.48Z" transform="translate(-239.57 -239.56)"/><path class="cls-3" d="M352.005,440.04c0,.55-.01,1.1-.02,1.64v-3.16C351.985,439.03,351.985,439.53,352.005,440.04Z" transform="translate(-239.57 -239.56)"/><path class="cls-3" d="M425.125,512.46h.01c-.27.08-.54.15-.81.22l-.57.15-.26.06c.1-.02.21-.05.31-.08a2.681,2.681,0,0,0,.27-.07C424.425,512.65,424.775,512.56,425.125,512.46Z" transform="translate(-239.57 -239.56)"/><path class="cls-3" d="M425.135,512.46c.88-.25,1.75-.52,2.61-.82C426.885,511.94,426.015,512.22,425.135,512.46Z" transform="translate(-239.57 -239.56)"/><path class="cls-3" d="M429.305,511.08c.34-.13.67-.26,1.01-.4-.1.05-.2.09-.3.13C429.785,510.9,429.545,511,429.305,511.08Z" transform="translate(-239.57 -239.56)"/><path class="cls-3" d="M430.315,510.68c.85-.34,1.69-.71,2.52-1.09C432.005,509.98,431.165,510.35,430.315,510.68Z" transform="translate(-239.57 -239.56)"/><path class="cls-3" d="M432.835,509.59c.62-.3,1.24-.6,1.86-.92-.2.12-.41.22-.62.32C433.665,509.2,433.245,509.4,432.835,509.59Z" transform="translate(-239.57 -239.56)"/><path class="cls-3" d="M435.305,508.35c.81-.43,1.61-.89,2.41-1.36-.19.11-.37.23-.55.33C436.545,507.68,435.935,508.03,435.305,508.35Z" transform="translate(-239.57 -239.56)"/><path class="cls-3" d="M439.945,505.57c.43-.29.86-.58,1.28-.87-.13.11-.27.2-.41.3-.36.25-.72.49-1.09.73a1.576,1.576,0,0,1-.24.15v.01c-.58.38-1.17.75-1.77,1.1.4-.24.79-.49,1.18-.74C439.255,506.03,439.605,505.8,439.945,505.57Z" transform="translate(-239.57 -239.56)"/><path class="cls-3" d="M471.985,438.52v2.27c-.01.58-.03,1.15-.06,1.72-.02.48-.04.96-.07,1.43-.01.22-.02.43-.04.64-.04.73-.09,1.45-.16,2.16-.03.41-.07.81-.1,1.21-.05.45-.1.91-.15,1.36-.06.56-.13,1.11-.2,1.67-.02.14-.04.28-.06.41-.08.67-.18,1.33-.29,1.99-.41,2.59-.92,5.14-1.53,7.62-.1.44-.22.87-.33,1.31a87.327,87.327,0,0,1-2.72,8.57c-.13.36-.27.73-.42,1.09a6.435,6.435,0,0,1-.24.61c-.515,1.3-1.071,2.569-1.647,3.822q-.44.972-.9,1.928-.255.525-.51,1.02c-.17.34-.35.67-.52,1.01-.35.68-.71,1.34-1.08,1.99-.17.31-.35.61-.53.92s-.35.6-.53.9c-.07.13-.15.25-.23.38-.16.25-.31.51-.47.76s-.31.51-.48.76c-.22.35-.44.69-.67,1.03-.29.45-.59.89-.89,1.32s-.58.84-.89,1.25c-.09.14-.2.28-.3.42-.37.5-.75,1-1.13,1.49-.41.53-.83,1.05-1.24,1.56-.04.05-.08.09-.11.13-.46.55-.93,1.1-1.4,1.63q-.345.405-.72.81c-.23.26-.47.51-.72.77-.48.52-.97,1.03-1.47,1.52-.5.51-1.01.99-1.52,1.46q-.225.225-.45.42c-.36.34-.73.67-1.1.99-1.05.92-2.12,1.8-3.22,2.62-.55.42-1.1.83-1.66,1.21.5-.36,1-.72,1.49-1.09.07-.06.14-.11.21-.16a1.01,1.01,0,0,0,.16-.13c.22-.17.45-.34.67-.52.56-.44,1.11-.89,1.66-1.35.09-.08.18-.16.27-.23.1-.09.21-.18.31-.28.26-.22.51-.44.76-.67.36-.32.71-.64,1.06-.97s.7-.66,1.04-1c.09-.09.19-.19.27-.28a.9.9,0,0,0,.1-.09l.31-.31c.11-.12.22-.23.34-.35.33-.35.67-.7,1-1.05v-.01c.9-.96,1.77-1.95,2.62-2.98.23-.28.46-.56.68-.85a68.138,68.138,0,0,0,4.02-5.54c.32-.49.64-.98.95-1.48s.62-1.01.92-1.52c.2-.32.39-.65.57-.98.25-.42.48-.85.72-1.28.99-1.81,1.93-3.68,2.79-5.6.21-.45.41-.91.61-1.37.03-.08.07-.17.11-.26.34-.81.67-1.62.99-2.45.2-.49.38-.98.57-1.48.11-.32.23-.64.34-.97a1.176,1.176,0,0,0,.07-.2c.09-.23.17-.47.25-.71s.16-.47.23-.7c.19-.54.36-1.08.53-1.62q.765-2.46,1.4-5.01c.09-.35.17-.69.25-1.04q.84-3.54,1.4-7.22c.05-.34.11-.69.15-1.03.04-.24.07-.48.1-.73q.15-1.1.27-2.19c.06-.57.12-1.15.17-1.72.04-.39.07-.78.1-1.17.06-.76.11-1.53.16-2.3l.06-1.32c.02-.42.03-.84.04-1.26C471.975,440.33,471.985,439.43,471.985,438.52Z" transform="translate(-239.57 -239.56)"/><path class="cls-1" d="M383.935,505.49c.77.52,1.56,1.02,2.35,1.5-1.17-.69-2.33-1.45-3.46-2.25-.27-.18-.54-.38-.81-.58-.99-.71-1.96-1.47-2.91-2.26l-.51-.42c-.31-.27-.62-.53-.92-.81-.36-.3-.71-.62-1.05-.95-.19-.16-.38-.34-.56-.52a1.315,1.315,0,0,1-.21-.2c-.13-.12-.27-.25-.4-.38a1.888,1.888,0,0,1-.2-.2c-.17-.15-.34-.32-.5-.48-.23-.23-.46-.47-.68-.7q-.735-.75-1.44-1.53c-1.14-1.24-2.23-2.54-3.28-3.88-.31-.39-.62-.8-.93-1.2l-.33-.45c-.37-.5-.74-1.01-1.1-1.53a76.462,76.462,0,0,1-6.14-10.47c-.45-.92-.89-1.86-1.31-2.82s-.83-1.92-1.21-2.9c-.13-.32-.26-.64-.38-.96-.32-.84-.63-1.68-.92-2.54-.24-.68-.47-1.36-.69-2.06a87.581,87.581,0,0,1-2.8-11.19c-.09-.47-.17-.95-.25-1.42q-.57-3.405-.9-6.92c-.03-.36-.06-.73-.09-1.1-.1-1.18-.17-2.38-.22-3.58-.02-.43-.04-.85-.05-1.28-.01-.45-.02-.91-.03-1.37.01-.51.01-1.02.01-1.53,0,24.3,9.05,45.92,23.13,59.79.35.34.69.67,1.04,1q1.05.99,2.13,1.92c.68.57,1.36,1.13,2.05,1.68.42.33.85.65,1.28.97C382.4,504.43,383.155,504.97,383.935,505.49Z" transform="translate(-239.57 -239.56)"/><path class="cls-1" d="M389.263,508.639c.6.319,1.221.621,1.832.921-.11-.05-.21-.1-.32-.15-.29-.15-.59-.29-.88-.43-.23-.12-.46-.25-.69-.37a.175.175,0,0,1-.067-.038Z" transform="translate(-239.57 -239.56)"/><path class="cls-1" d="M389.135,508.57l0,0c-.64-.335-1.282-.667-1.913-1.032-.31-.18-.63-.36-.94-.55.4.23.8.47,1.2.69a4.915,4.915,0,0,0,.45.24C388.335,508.15,388.735,508.37,389.135,508.57Z" transform="translate(-239.57 -239.56)"/><path class="cls-1" d="M393.685,510.68a.01.01,0,0,1,.01.01c-.38-.15-.76-.31-1.14-.47-.42-.18-.83-.37-1.24-.56Q392.485,510.2,393.685,510.68Z" transform="translate(-239.57 -239.56)"/><path class="cls-1" d="M396.155,511.6c.33.12.66.23.99.34-.57-.18-1.14-.37-1.7-.58a.076.076,0,0,1-.05-.02C395.645,511.43,395.905,511.52,396.155,511.6Z" transform="translate(-239.57 -239.56)"/><path class="cls-1" d="M397.581,512.078q.646.206,1.294.382c-.33-.09-.65-.18-.97-.28-.12-.04-.23-.07-.35-.11s-.27-.09-.41-.13Z" transform="translate(-239.57 -239.56)"/><path class="cls-2" d="M642.015,561.21v.27h-26.73v-.17c-11.42,0-21.39-24.56-26.74-61.09-6.37-35.59-10.31-83.91-10.34-137.14-.01,27.24-.87,53.2-2.43,76.82v.14c-4.69,71.37-15.67,121.44-28.47,121.44h-15.29a6.706,6.706,0,0,0,1.26-.11,8.086,8.086,0,0,0,.95-.21,8.531,8.531,0,0,0,.93-.32,10.388,10.388,0,0,0,1.84-.95c.01,0,.01,0,.01-.01.29-.19.58-.39.87-.61s.58-.45.87-.7.58-.51.86-.79c.3-.29.59-.59.87-.91,17.12-18.84,31.27-93.76,37.73-194.34,2.44-37.89,3.78-79.42,3.78-122.97,0,2.06,0,4.11.02,6.15.3,84.06,6.62,160.23,16.72,216.65,6.01,41,15.6,72.68,27.11,88.24v.01c.77,1.05,1.56,2.03,2.36,2.94l.6.66v.01c.64.69,1.28,1.32,1.92,1.91a23.449,23.449,0,0,0,1.94,1.62c.44.32.87.63,1.31.91.25.16.5.31.76.46a17.047,17.047,0,0,0,2.28,1.11,14.912,14.912,0,0,0,2.43.72,8.112,8.112,0,0,0,.86.14A12.324,12.324,0,0,0,642.015,561.21Z" transform="translate(-239.57 -239.56)"/><path class="cls-2" d="M625.835,550.6c-11.51-15.56-21.1-47.24-27.11-88.24-10.1-56.42-16.42-132.59-16.72-216.65q.015-3.06.01-6.15c.01,86.49,6.39,165.01,16.74,222.8C604.755,503.36,614.355,535.03,625.835,550.6Z" transform="translate(-239.57 -239.56)"/><path class="cls-2" d="M625.835,550.61c.79,1.05,1.57,2.03,2.36,2.94C627.4,552.64,626.605,551.66,625.835,550.61Z" transform="translate(-239.57 -239.56)"/><path class="cls-2" d="M632.655,557.75a23.449,23.449,0,0,1-1.94-1.62C631.365,556.72,632.005,557.26,632.655,557.75Z" transform="translate(-239.57 -239.56)"/><path class="cls-3" d="M575.775,440.04c-.13,67.22-8.62,121.44-19.09,121.44H547.3C560.105,561.48,571.085,511.41,575.775,440.04Z" transform="translate(-239.57 -239.56)"/><path class="cls-3" d="M615.285,561.31v.17H598.7v-.1c-7.05,0-13.21-15.18-16.52-37.76-3.89-21.74-6.31-51.14-6.4-83.58v-.14c1.56-23.62,2.42-49.58,2.43-76.82.03,53.23,3.97,101.55,10.34,137.14C593.9,536.75,603.865,561.31,615.285,561.31Z" transform="translate(-239.57 -239.56)"/><path class="cls-2" d="M741.985,561.48h-15.27c-12.85,0-23.88-31.04-28.57-75.26v-.06c-.7-6.56-1.26-13.41-1.66-20.5-.5-8.73-.76-17.82-.76-27.15a432.177,432.177,0,0,1-4.18,61.52c-5.37,36.65-15.37,61.28-26.82,61.28v.17h-22.71v-.27a12.828,12.828,0,0,0,2.55-.26,8.259,8.259,0,0,0,.86-.2h.02a13.952,13.952,0,0,0,2.38-.87c.19-.09.39-.18.58-.28h.01c.1-.06.21-.11.31-.17s.19-.1.28-.15c.39-.21.77-.45,1.16-.7h.01c.23-.15.47-.31.7-.48.47-.33.93-.68,1.39-1.07.23-.19.46-.38.69-.59s.46-.42.69-.63.46-.44.68-.67.46-.46.68-.7a.01.01,0,0,0,.01-.01.265.265,0,0,0,.05-.06c.21-.22.42-.45.62-.68.22-.25.45-.51.67-.77s.45-.53.67-.81v-.01c.19-.23.37-.45.55-.69a1.431,1.431,0,0,1,.11-.15v-.01c.18-.24.37-.48.55-.73a1.526,1.526,0,0,0,.11-.16c.15-.19.29-.39.43-.59l.51-.72c.12-.18.24-.37.37-.55v-.02c.07-.1.14-.19.2-.29.36-.55.72-1.11,1.07-1.68.01,0,.01-.01.02-.02v-.02c.18-.27.35-.55.51-.83.25-.43.51-.86.76-1.3.01-.01.01-.01,0-.02a4.759,4.759,0,0,0,.28-.49,119.539,119.539,0,0,0,7.64-16.95c.15-.41.3-.82.45-1.24q1.695-4.665,3.26-9.84c.35-1.12.68-2.26,1.01-3.41.36-1.22.71-2.45,1.05-3.71.17-.61.33-1.22.49-1.84q1.785-6.675,3.38-14c.28-1.25.55-2.51.81-3.79.15-.69.29-1.39.43-2.1.29-1.4.57-2.83.84-4.27.15-.77.3-1.55.44-2.34.4-2.13.78-4.28,1.16-6.47,0-.03.01-.05.01-.07.21-1.25.42-2.5.62-3.76.14-.82.27-1.65.4-2.48.03-.18.06-.35.08-.53.12-.72.23-1.45.34-2.18.12-.83.25-1.66.37-2.49a692.1,692.1,0,0,0,6.73-95c0-1.41.01-2.82.01-4.23,0,15.04.42,29.7,1.23,43.78,3.6,63.54,14.89,115.51,29.79,139.78.04.06.08.13.12.19.44.72.89,1.41,1.34,2.08.08.12.16.25.25.37.42.62.85,1.21,1.28,1.78.09.12.17.25.26.37.51.66,1.02,1.31,1.54,1.91.31.37.63.73.94,1.07.37.4.74.79,1.11,1.15q.375.375.75.72a1.92,1.92,0,0,0,.15.14c.26.24.52.46.77.67a.392.392,0,0,1,.1.08v.01a2.2,2.2,0,0,0,.18.14,6.77,6.77,0,0,0,.54.43,1.883,1.883,0,0,0,.26.19,1.122,1.122,0,0,0,.19.15,6.584,6.584,0,0,0,.57.4c.07.05.14.1.22.15v.01a.558.558,0,0,0,.08.05c.24.17.49.32.73.46a.811.811,0,0,0,.18.1v.01q.495.285.99.54c.33.18.67.33,1,.47a7.438,7.438,0,0,0,.85.33l.15.06a.235.235,0,0,0,.08.02,2.394,2.394,0,0,0,.43.14,5.084,5.084,0,0,0,.52.15l.11.03c.06.02.12.03.18.05.28.07.57.13.86.18A13.765,13.765,0,0,0,741.985,561.48Z" transform="translate(-239.57 -239.56)"/><path class="cls-2" d="M735.585,559.86a25.549,25.549,0,0,1-7.76-6.47A25.964,25.964,0,0,0,735.585,559.86Z" transform="translate(-239.57 -239.56)"/><path class="cls-3" d="M698.145,486.16v.06a266.193,266.193,0,0,1-2.58,37.28c-3.32,22.65-9.5,37.88-16.58,37.88v.1h-14.26v-.17c11.45,0,21.45-24.63,26.82-61.28a432.177,432.177,0,0,0,4.18-61.52c0,9.33.26,18.42.76,27.15C696.885,472.75,697.445,479.6,698.145,486.16Z" transform="translate(-239.57 -239.56)"/><path class="cls-3" d="M726.715,561.48h-9.41c-9.13,0-16.77-25.32-18.69-59.22-.3-5.17-.46-10.54-.47-16.04C702.835,530.44,713.865,561.48,726.715,561.48Z" transform="translate(-239.57 -239.56)"/><g class="cls-4"><path class="cls-1" d="M351.985,684.44c0-.51,0-1.01.02-1.52,0-.55-.01-1.1-.02-1.64Z" transform="translate(-239.57 -239.56)"/><path class="cls-1" d="M352.015,684.45c0-24.3,9.05-45.92,23.13-59.79l-.39.36c-.23.23-.46.47-.68.7q-.735.75-1.44,1.53c-1.14,1.24-2.23,2.54-3.28,3.88-.31.39-.62.8-.93,1.2l-.33.45c-.37.5-.74,1.01-1.1,1.53a76.462,76.462,0,0,0-6.14,10.47c-.45.92-.89,1.86-1.31,2.82s-.83,1.92-1.21,2.9c-.13.32-.26.64-.38.96-.32.84-.63,1.68-.92,2.54-.24.68-.47,1.36-.69,2.06a87.581,87.581,0,0,0-2.8,11.19c-.09.47-.17.95-.25,1.42q-.57,3.405-.9,6.92c-.03.36-.06.73-.09,1.1-.1,1.18-.17,2.38-.22,3.58-.02.43-.04.85-.05,1.28-.01.45-.02.91-.03,1.37C352.015,683.43,352.015,683.94,352.015,684.45Z" transform="translate(-239.57 -239.56)"/><path class="cls-1" d="M375.145,624.66c.35-.34.69-.67,1.04-1a1.059,1.059,0,0,0-.12.1,1.315,1.315,0,0,0-.21.2c-.13.12-.27.25-.4.38a1.888,1.888,0,0,0-.2.2C375.215,624.58,375.185,624.62,375.145,624.66Z" transform="translate(-239.57 -239.56)"/><path class="cls-1" d="M376.185,623.66q1.05-.99,2.13-1.92c-.21.18-.43.36-.64.55-.36.3-.71.62-1.05.95C376.475,623.38,376.325,623.52,376.185,623.66Z" transform="translate(-239.57 -239.56)"/><path class="cls-1" d="M378.315,621.74c.68-.57,1.36-1.13,2.05-1.68-.43.32-.84.66-1.26,1l-.51.42C378.505,621.57,378.405,621.65,378.315,621.74Z" transform="translate(-239.57 -239.56)"/><path class="cls-1" d="M381.645,619.09c.75-.56,1.51-1.1,2.29-1.62-.37.24-.75.49-1.11.75-.27.18-.54.38-.81.58C381.885,618.9,381.765,618.99,381.645,619.09Z" transform="translate(-239.57 -239.56)"/><path class="cls-1" d="M386.285,615.97c.4-.23.8-.47,1.2-.69-.09.04-.17.09-.26.14C386.915,615.6,386.6,615.78,386.285,615.97Z" transform="translate(-239.57 -239.56)"/><path class="cls-1" d="M389.205,614.35c.62-.33,1.26-.64,1.89-.95-.11.05-.21.1-.32.15-.29.15-.59.29-.88.43C389.665,614.1,389.435,614.23,389.205,614.35Z" transform="translate(-239.57 -239.56)"/><path class="cls-1" d="M391.315,613.3q1.17-.54,2.37-1.02c-.38.14-.75.3-1.13.46C392.135,612.92,391.725,613.11,391.315,613.3Z" transform="translate(-239.57 -239.56)"/><path class="cls-1" d="M395.4,611.62c.25-.09.51-.18.76-.26-.24.07-.48.15-.71.24A.076.076,0,0,0,395.4,611.62Z" transform="translate(-239.57 -239.56)"/><path class="cls-1" d="M397.555,610.89q.66-.21,1.32-.39c-.33.09-.65.18-.97.28C397.785,610.82,397.675,610.85,397.555,610.89Z" transform="translate(-239.57 -239.56)"/><path class="cls-1" d="M423.355,610.04c.15.03.3.07.45.11-.02-.01-.03-.01-.05-.02l-.26-.06A.7.7,0,0,0,423.355,610.04Z" transform="translate(-239.57 -239.56)"/><path class="cls-1" d="M424.075,610.22c.35.09.7.18,1.05.28-.27-.08-.53-.15-.8-.22A2.268,2.268,0,0,0,424.075,610.22Z" transform="translate(-239.57 -239.56)"/><path class="cls-1" d="M429.305,611.88c.34.13.67.26,1.01.4-.1-.05-.2-.09-.3-.13C429.785,612.06,429.545,611.96,429.305,611.88Z" transform="translate(-239.57 -239.56)"/><path class="cls-1" d="M430.315,612.28c.85.34,1.69.71,2.52,1.09C432.005,612.98,431.165,612.61,430.315,612.28Z" transform="translate(-239.57 -239.56)"/><path class="cls-1" d="M432.835,613.37c.62.3,1.24.6,1.86.92-.2-.12-.41-.22-.62-.32C433.665,613.76,433.245,613.56,432.835,613.37Z" transform="translate(-239.57 -239.56)"/><path class="cls-1" d="M435.305,614.61c.81.43,1.61.89,2.41,1.36-.19-.11-.37-.23-.55-.33C436.545,615.28,435.935,614.93,435.305,614.61Z" transform="translate(-239.57 -239.56)"/><path class="cls-1" d="M439.945,617.39c.43.29.86.58,1.28.87-.13-.11-.27-.2-.41-.3-.36-.25-.72-.49-1.09-.73-.08-.05-.16-.11-.24-.16-.58-.38-1.17-.75-1.77-1.1.4.24.79.49,1.18.74C439.255,616.93,439.605,617.16,439.945,617.39Z" transform="translate(-239.57 -239.56)"/><path class="cls-1" d="M442.715,619.35c.07.06.14.11.21.16-.01-.02-.03-.03-.04-.04C442.825,619.43,442.775,619.39,442.715,619.35Z" transform="translate(-239.57 -239.56)"/><path class="cls-1" d="M446,622.02c.26.22.51.44.76.67-.22-.21-.44-.41-.65-.6-.14-.12-.28-.24-.42-.35-.09-.07-.18-.15-.27-.23C445.615,621.68,445.805,621.85,446,622.02Z" transform="translate(-239.57 -239.56)"/><path class="cls-1" d="M446.755,622.69c.36.32.71.64,1.06.97-.05-.06-.11-.11-.16-.16q-.225-.225-.45-.42Z" transform="translate(-239.57 -239.56)"/><path class="cls-1" d="M449.225,625.03l.31.31c-.06-.06-.12-.12-.18-.19s-.12-.13-.18-.19c-.11-.11-.22-.21-.32-.3-.34-.34-.69-.67-1.04-1,.45.42.88.84,1.31,1.28A.9.9,0,0,1,449.225,625.03Z" transform="translate(-239.57 -239.56)"/><path class="cls-1" d="M449.875,625.69c.33.35.67.7,1,1.05a2.848,2.848,0,0,0-.23-.26C450.4,626.21,450.145,625.95,449.875,625.69Z" transform="translate(-239.57 -239.56)"/><path class="cls-1" d="M464.145,646.98c.21.45.41.91.61,1.37-.09-.22-.19-.44-.28-.65-.44-1.04-.92-2.06-1.41-3.07q-.255-.525-.51-1.02c-.17-.34-.35-.67-.52-1.01-.35-.68-.71-1.34-1.08-1.99-.17-.31-.35-.61-.53-.92s-.35-.6-.53-.9c-.07-.13-.15-.25-.23-.38-.16-.25-.31-.51-.47-.76s-.31-.51-.48-.76c-.22-.35-.44-.69-.67-1.03-.29-.45-.59-.89-.89-1.32s-.59-.84-.89-1.25c-.09-.14-.2-.28-.3-.42-.37-.5-.75-1-1.13-1.49-.41-.53-.83-1.05-1.24-1.56-.04-.05-.08-.09-.11-.13-.46-.55-.93-1.1-1.4-1.63q-.345-.4-.72-.81c-.16-.17-.32-.33-.49-.5.9.96,1.77,1.95,2.62,2.98.23.28.46.56.68.85a68.138,68.138,0,0,1,4.02,5.54c.33.49.64.98.95,1.48s.62,1.01.92,1.52c.2.32.39.65.57.98.25.42.48.85.72,1.28C462.345,643.19,463.285,645.06,464.145,646.98Z" transform="translate(-239.57 -239.56)"/><path class="cls-1" d="M471.985,684.44v-2.27c-.01-.58-.03-1.15-.06-1.72-.02-.48-.04-.96-.07-1.43-.01-.22-.02-.43-.04-.64-.04-.73-.09-1.45-.16-2.16-.03-.41-.07-.81-.1-1.21-.05-.45-.1-.91-.15-1.36-.06-.56-.13-1.11-.2-1.67-.02-.14-.04-.28-.06-.41-.08-.67-.18-1.33-.29-1.99-.41-2.59-.92-5.14-1.53-7.62-.1-.44-.22-.87-.33-1.31a87.327,87.327,0,0,0-2.72-8.57c-.13-.36-.27-.73-.42-1.09a6.435,6.435,0,0,0-.24-.61,5,5,0,0,0-.21-.48c-.18-.44-.36-.86-.54-1.29.34.81.67,1.62.99,2.45.2.49.38.98.57,1.48.11.32.23.65.34.97a1.176,1.176,0,0,1,.07.2c.09.23.17.47.25.71s.16.47.23.7c.19.54.36,1.08.53,1.62q.765,2.46,1.4,5.01c.09.34.17.69.25,1.04q.84,3.54,1.4,7.22c.05.34.11.68.15,1.03.04.24.07.48.1.73q.15,1.1.27,2.19c.06.57.12,1.15.17,1.72.04.39.07.78.1,1.17.06.77.11,1.53.16,2.3l.06,1.32c.01.42.03.84.04,1.26C471.975,682.63,471.985,683.53,471.985,684.44Z" transform="translate(-239.57 -239.56)"/><path class="cls-1" d="M535.155,562.12a12.39,12.39,0,0,1,1.84.95A10.388,10.388,0,0,0,535.155,562.12Z" transform="translate(-239.57 -239.56)"/><path class="cls-1" d="M622.13,578.04c-9.84,16.93-18.04,46.04-23.38,82.56-5.13,28.68-9.3,62.47-12.19,99.82h-.03c2.9-37.34,7.05-71.13,12.19-99.82C604.07,624.08,612.27,594.96,622.13,578.04Z" transform="translate(-239.57 -239.56)"/><path class="cls-1" d="M625.835,572.35c.79-1.05,1.57-2.03,2.36-2.94C627.4,570.32,626.605,571.3,625.835,572.35Z" transform="translate(-239.57 -239.56)"/><path class="cls-1" d="M632.655,565.21a23.449,23.449,0,0,0-1.94,1.62C631.365,566.24,632.005,565.7,632.655,565.21Z" transform="translate(-239.57 -239.56)"/><path class="cls-1" d="M647.825,563.08a19.383,19.383,0,0,1,2.34,1.3A18.233,18.233,0,0,0,647.825,563.08Z" transform="translate(-239.57 -239.56)"/><path class="cls-1" d="M650.87,564.86c.47.33.93.68,1.39,1.07C651.8,565.55,651.34,565.19,650.87,564.86Z" transform="translate(-239.57 -239.56)"/><path class="cls-1" d="M653.64,567.15c.23.22.46.44.68.67-.45-.45-.91-.89-1.37-1.3Q653.295,566.82,653.64,567.15Z" transform="translate(-239.57 -239.56)"/><path class="cls-1" d="M655.01,568.53a.265.265,0,0,1,.05.06l-.06-.06S655.01,568.52,655.01,568.53Z" transform="translate(-239.57 -239.56)"/><path class="cls-1" d="M656.56,570.29c.16.18.31.37.46.56-.23-.27-.45-.54-.67-.8v-.01C656.43,570.12,656.49,570.21,656.56,570.29Z" transform="translate(-239.57 -239.56)"/><path class="cls-1" d="M657.57,571.55a1.431,1.431,0,0,0,.11.15c-.18-.23-.36-.45-.52-.67C657.3,571.2,657.44,571.37,657.57,571.55Z" transform="translate(-239.57 -239.56)"/><path class="cls-1" d="M659.85,574.77c.37.54.72,1.1,1.07,1.68-.2-.33-.41-.66-.63-.98-.21-.34-.43-.67-.64-.99-.44-.65-.87-1.28-1.31-1.88a1.526,1.526,0,0,0-.11-.16q.285.36.54.75c.15.21.3.43.46.64a.351.351,0,0,0,.05.08c.12.18.24.37.37.55A3.284,3.284,0,0,1,659.85,574.77Z" transform="translate(-239.57 -239.56)"/><path class="cls-1" d="M662.22,578.63a1.511,1.511,0,0,1,.09.18,1.505,1.505,0,0,0-.1-.17c-.42-.74-.85-1.45-1.27-2.15a.076.076,0,0,1-.02-.04c.01,0,.01.01.02.02.17.28.34.56.51.85.25.43.51.86.76,1.3Z" transform="translate(-239.57 -239.56)"/><path class="cls-1" d="M691.91,747.74c-.01.01-.01.01-.02.01a682.555,682.555,0,0,0-6.65-87.15c-5.18-35.29-13-63.68-22.4-80.83-.12-.22-.24-.43-.35-.64.12.2.23.41.35.62a1.91,1.91,0,0,1,.15.28c.17.31.33.62.5.93q.51.93.99,1.92c.16.32.32.65.49.99.3.62.61,1.26.91,1.91a.379.379,0,0,0,.06.13c.19.43.39.85.58,1.29,1.24,2.76,2.44,5.73,3.61,8.88.15.41.3.82.45,1.24.2.56.4,1.12.6,1.69.17.48.34.98.51,1.47q1.095,3.225,2.15,6.68c.35,1.12.68,2.26,1.01,3.41.36,1.22.71,2.45,1.05,3.71.17.61.33,1.22.49,1.84.3,1.11.59,2.24.88,3.38q1.305,5.13,2.5,10.62c.28,1.25.55,2.51.81,3.79.15.69.29,1.39.43,2.1.29,1.4.57,2.83.84,4.27.15.77.3,1.55.44,2.34.2,1.07.39,2.13.59,3.21s.38,2.16.57,3.26c0,.03.01.05.01.07.21,1.25.42,2.5.62,3.76.14.82.27,1.65.4,2.48.03.18.06.35.08.53.12.72.23,1.45.34,2.18.12.83.25,1.66.37,2.49A680.531,680.531,0,0,1,691.91,747.74Z" transform="translate(-239.57 -239.56)"/><path class="cls-1" d="M735.585,563.1a25.549,25.549,0,0,0-7.76,6.47A25.964,25.964,0,0,1,735.585,563.1Z" transform="translate(-239.57 -239.56)"/><path class="cls-2" d="M535.155,562.12a12.39,12.39,0,0,1,1.84.95A10.388,10.388,0,0,0,535.155,562.12Z" transform="translate(-239.57 -239.56)"/><path class="cls-2" d="M647.825,563.08a19.383,19.383,0,0,1,2.34,1.3A18.233,18.233,0,0,0,647.825,563.08Z" transform="translate(-239.57 -239.56)"/><path class="cls-2" d="M650.87,564.86c.47.33.93.68,1.39,1.07C651.8,565.55,651.34,565.19,650.87,564.86Z" transform="translate(-239.57 -239.56)"/><path class="cls-2" d="M653.64,567.15c.23.22.46.44.68.67-.45-.45-.91-.89-1.37-1.3Q653.295,566.82,653.64,567.15Z" transform="translate(-239.57 -239.56)"/><path class="cls-2" d="M655.01,568.53a.265.265,0,0,1,.05.06l-.06-.06S655.01,568.52,655.01,568.53Z" transform="translate(-239.57 -239.56)"/><path class="cls-2" d="M656.56,570.29c.16.18.31.37.46.56-.23-.27-.45-.54-.67-.8v-.01C656.43,570.12,656.49,570.21,656.56,570.29Z" transform="translate(-239.57 -239.56)"/><path class="cls-2" d="M657.57,571.55a1.431,1.431,0,0,0,.11.15c-.18-.23-.36-.45-.52-.67C657.3,571.2,657.44,571.37,657.57,571.55Z" transform="translate(-239.57 -239.56)"/><path class="cls-2" d="M659.85,574.77c.37.54.72,1.1,1.07,1.68-.2-.33-.41-.66-.63-.98-.21-.34-.43-.67-.64-.99-.44-.65-.87-1.28-1.31-1.88a1.526,1.526,0,0,0-.11-.16q.285.36.54.75c.15.21.3.43.46.64a.351.351,0,0,0,.05.08c.12.18.24.37.37.55A3.284,3.284,0,0,1,659.85,574.77Z" transform="translate(-239.57 -239.56)"/><path class="cls-2" d="M662.22,578.63a1.511,1.511,0,0,1,.09.18,1.505,1.505,0,0,0-.1-.17c-.42-.74-.85-1.45-1.27-2.15a.076.076,0,0,1-.02-.04c.01,0,.01.01.02.02.17.28.34.56.51.85.25.43.51.86.76,1.3Z" transform="translate(-239.57 -239.56)"/><path class="cls-2" d="M691.91,747.74c-.01.01-.01.01-.02.01a682.555,682.555,0,0,0-6.65-87.15c-5.18-35.29-13-63.68-22.4-80.83-.12-.22-.24-.43-.35-.64.12.2.23.41.35.62a1.91,1.91,0,0,1,.15.28c.17.31.33.62.5.93q.51.93.99,1.92c.16.32.32.65.49.99.3.62.61,1.26.91,1.91a.379.379,0,0,0,.06.13c.19.43.39.85.58,1.29,1.24,2.76,2.44,5.73,3.61,8.88.15.41.3.82.45,1.24.2.56.4,1.12.6,1.69.17.48.34.98.51,1.47q1.095,3.225,2.15,6.68c.35,1.12.68,2.26,1.01,3.41.36,1.22.71,2.45,1.05,3.71.17.61.33,1.22.49,1.84.3,1.11.59,2.24.88,3.38q1.305,5.13,2.5,10.62c.28,1.25.55,2.51.81,3.79.15.69.29,1.39.43,2.1.29,1.4.57,2.83.84,4.27.15.77.3,1.55.44,2.34.2,1.07.39,2.13.59,3.21s.38,2.16.57,3.26c0,.03.01.05.01.07.21,1.25.42,2.5.62,3.76.14.82.27,1.65.4,2.48.03.18.06.35.08.53.12.72.23,1.45.34,2.18.12.83.25,1.66.37,2.49A680.531,680.531,0,0,1,691.91,747.74Z" transform="translate(-239.57 -239.56)"/><path class="cls-2" d="M351.98,759.97q-3.9-.33-7.74-.9c-15.09-116.02-50.7-197.54-92.22-197.59.43,0,.86.01,1.29.02a.019.019,0,0,1,.03,0C307.87,562.95,351.85,651.2,351.98,759.97Z" transform="translate(-239.57 -239.56)"/><path class="cls-2" d="M471.98,760.42H459.06c-10.99-45.91-27.99-75.37-47.08-75.37s-36.09,29.46-47.08,75.37h-2.36q-5.34,0-10.56-.45c.12-67.49,26.94-122.12,60-122.12C445.12,637.85,471.97,692.72,471.98,760.42Z" transform="translate(-239.57 -239.56)"/><path class="cls-2" d="M531.95,561.48c-25.01.07-46.44,82.21-55.44,198.94h-4.53C471.98,650.58,498.82,561.53,531.95,561.48Z" transform="translate(-239.57 -239.56)"/><path class="cls-2" d="M351.985,684.44c0-.51,0-1.01.02-1.52,0-.55-.01-1.1-.02-1.64Z" transform="translate(-239.57 -239.56)"/><path class="cls-2" d="M352.015,684.45c0-24.3,9.05-45.92,23.13-59.79l-.39.36c-.23.23-.46.47-.68.7q-.735.75-1.44,1.53c-1.14,1.24-2.23,2.54-3.28,3.88-.31.39-.62.8-.93,1.2l-.33.45c-.37.5-.74,1.01-1.1,1.53a76.462,76.462,0,0,0-6.14,10.47c-.45.92-.89,1.86-1.31,2.82s-.83,1.92-1.21,2.9c-.13.32-.26.64-.38.96-.32.84-.63,1.68-.92,2.54-.24.68-.47,1.36-.69,2.06a87.581,87.581,0,0,0-2.8,11.19c-.09.47-.17.95-.25,1.42q-.57,3.405-.9,6.92c-.03.36-.06.73-.09,1.1-.1,1.18-.17,2.38-.22,3.58-.02.43-.04.85-.05,1.28-.01.45-.02.91-.03,1.37C352.015,683.43,352.015,683.94,352.015,684.45Z" transform="translate(-239.57 -239.56)"/><path class="cls-2" d="M375.145,624.66c.35-.34.69-.67,1.04-1a1.059,1.059,0,0,0-.12.1,1.315,1.315,0,0,0-.21.2c-.13.12-.27.25-.4.38a1.888,1.888,0,0,0-.2.2C375.215,624.58,375.185,624.62,375.145,624.66Z" transform="translate(-239.57 -239.56)"/><path class="cls-2" d="M376.185,623.66q1.05-.99,2.13-1.92c-.21.18-.43.36-.64.55-.36.3-.71.62-1.05.95C376.475,623.38,376.325,623.52,376.185,623.66Z" transform="translate(-239.57 -239.56)"/><path class="cls-2" d="M378.315,621.74c.68-.57,1.36-1.13,2.05-1.68-.43.32-.84.66-1.26,1l-.51.42C378.505,621.57,378.405,621.65,378.315,621.74Z" transform="translate(-239.57 -239.56)"/><path class="cls-2" d="M381.645,619.09c.75-.56,1.51-1.1,2.29-1.62-.37.24-.75.49-1.11.75-.27.18-.54.38-.81.58C381.885,618.9,381.765,618.99,381.645,619.09Z" transform="translate(-239.57 -239.56)"/><path class="cls-2" d="M386.285,615.97c.4-.23.8-.47,1.2-.69-.09.04-.17.09-.26.14C386.915,615.6,386.6,615.78,386.285,615.97Z" transform="translate(-239.57 -239.56)"/><path class="cls-2" d="M389.205,614.35c.62-.33,1.26-.64,1.89-.95-.11.05-.21.1-.32.15-.29.15-.59.29-.88.43C389.665,614.1,389.435,614.23,389.205,614.35Z" transform="translate(-239.57 -239.56)"/><path class="cls-2" d="M391.315,613.3q1.17-.54,2.37-1.02c-.38.14-.75.3-1.13.46C392.135,612.92,391.725,613.11,391.315,613.3Z" transform="translate(-239.57 -239.56)"/><path class="cls-2" d="M395.4,611.62c.25-.09.51-.18.76-.26-.24.07-.48.15-.71.24A.076.076,0,0,0,395.4,611.62Z" transform="translate(-239.57 -239.56)"/><path class="cls-2" d="M397.555,610.89q.66-.21,1.32-.39c-.33.09-.65.18-.97.28C397.785,610.82,397.675,610.85,397.555,610.89Z" transform="translate(-239.57 -239.56)"/><path class="cls-2" d="M423.355,610.04c.15.03.3.07.45.11-.02-.01-.03-.01-.05-.02l-.26-.06A.7.7,0,0,0,423.355,610.04Z" transform="translate(-239.57 -239.56)"/><path class="cls-2" d="M424.075,610.22c.35.09.7.18,1.05.28-.27-.08-.53-.15-.8-.22A2.268,2.268,0,0,0,424.075,610.22Z" transform="translate(-239.57 -239.56)"/><path class="cls-2" d="M429.305,611.88c.34.13.67.26,1.01.4-.1-.05-.2-.09-.3-.13C429.785,612.06,429.545,611.96,429.305,611.88Z" transform="translate(-239.57 -239.56)"/><path class="cls-2" d="M430.315,612.28c.85.34,1.69.71,2.52,1.09C432.005,612.98,431.165,612.61,430.315,612.28Z" transform="translate(-239.57 -239.56)"/><path class="cls-2" d="M432.835,613.37c.62.3,1.24.6,1.86.92-.2-.12-.41-.22-.62-.32C433.665,613.76,433.245,613.56,432.835,613.37Z" transform="translate(-239.57 -239.56)"/><path class="cls-2" d="M435.305,614.61c.81.43,1.61.89,2.41,1.36-.19-.11-.37-.23-.55-.33C436.545,615.28,435.935,614.93,435.305,614.61Z" transform="translate(-239.57 -239.56)"/><path class="cls-2" d="M439.945,617.39c.43.29.86.58,1.28.87-.13-.11-.27-.2-.41-.3-.36-.25-.72-.49-1.09-.73-.08-.05-.16-.11-.24-.16-.58-.38-1.17-.75-1.77-1.1.4.24.79.49,1.18.74C439.255,616.93,439.605,617.16,439.945,617.39Z" transform="translate(-239.57 -239.56)"/><path class="cls-2" d="M442.715,619.35c.07.06.14.11.21.16-.01-.02-.03-.03-.04-.04C442.825,619.43,442.775,619.39,442.715,619.35Z" transform="translate(-239.57 -239.56)"/><path class="cls-2" d="M446,622.02c.26.22.51.44.76.67-.22-.21-.44-.41-.65-.6-.14-.12-.28-.24-.42-.35-.09-.07-.18-.15-.27-.23C445.615,621.68,445.805,621.85,446,622.02Z" transform="translate(-239.57 -239.56)"/><path class="cls-2" d="M446.755,622.69c.36.32.71.64,1.06.97-.05-.06-.11-.11-.16-.16q-.225-.225-.45-.42Z" transform="translate(-239.57 -239.56)"/><path class="cls-2" d="M449.225,625.03l.31.31c-.06-.06-.12-.12-.18-.19s-.12-.13-.18-.19c-.11-.11-.22-.21-.32-.3-.34-.34-.69-.67-1.04-1,.45.42.88.84,1.31,1.28A.9.9,0,0,1,449.225,625.03Z" transform="translate(-239.57 -239.56)"/><path class="cls-2" d="M449.875,625.69c.33.35.67.7,1,1.05a2.848,2.848,0,0,0-.23-.26C450.4,626.21,450.145,625.95,449.875,625.69Z" transform="translate(-239.57 -239.56)"/><path class="cls-2" d="M464.145,646.98c.21.45.41.91.61,1.37-.09-.22-.19-.44-.28-.65-.44-1.04-.92-2.06-1.41-3.07q-.255-.525-.51-1.02c-.17-.34-.35-.67-.52-1.01-.35-.68-.71-1.34-1.08-1.99-.17-.31-.35-.61-.53-.92s-.35-.6-.53-.9c-.07-.13-.15-.25-.23-.38-.16-.25-.31-.51-.47-.76s-.31-.51-.48-.76c-.22-.35-.44-.69-.67-1.03-.29-.45-.59-.89-.89-1.32s-.59-.84-.89-1.25c-.09-.14-.2-.28-.3-.42-.37-.5-.75-1-1.13-1.49-.41-.53-.83-1.05-1.24-1.56-.04-.05-.08-.09-.11-.13-.46-.55-.93-1.1-1.4-1.63q-.345-.4-.72-.81c-.16-.17-.32-.33-.49-.5.9.96,1.77,1.95,2.62,2.98.23.28.46.56.68.85a68.138,68.138,0,0,1,4.02,5.54c.33.49.64.98.95,1.48s.62,1.01.92,1.52c.2.32.39.65.57.98.25.42.48.85.72,1.28C462.345,643.19,463.285,645.06,464.145,646.98Z" transform="translate(-239.57 -239.56)"/><path class="cls-2" d="M471.985,684.44v-2.27c-.01-.58-.03-1.15-.06-1.72-.02-.48-.04-.96-.07-1.43-.01-.22-.02-.43-.04-.64-.04-.73-.09-1.45-.16-2.16-.03-.41-.07-.81-.1-1.21-.05-.45-.1-.91-.15-1.36-.06-.56-.13-1.11-.2-1.67-.02-.14-.04-.28-.06-.41-.08-.67-.18-1.33-.29-1.99-.41-2.59-.92-5.14-1.53-7.62-.1-.44-.22-.87-.33-1.31a87.327,87.327,0,0,0-2.72-8.57c-.13-.36-.27-.73-.42-1.09a6.435,6.435,0,0,0-.24-.61,5,5,0,0,0-.21-.48c-.18-.44-.36-.86-.54-1.29.34.81.67,1.62.99,2.45.2.49.38.98.57,1.48.11.32.23.65.34.97a1.176,1.176,0,0,1,.07.2c.09.23.17.47.25.71s.16.47.23.7c.19.54.36,1.08.53,1.62q.765,2.46,1.4,5.01c.09.34.17.69.25,1.04q.84,3.54,1.4,7.22c.05.34.11.68.15,1.03.04.24.07.48.1.73q.15,1.1.27,2.19c.06.57.12,1.15.17,1.72.04.39.07.78.1,1.17.06.77.11,1.53.16,2.3l.06,1.32c.01.42.03.84.04,1.26C471.975,682.63,471.985,683.53,471.985,684.44Z" transform="translate(-239.57 -239.56)"/><path class="cls-3" d="M352.015,684.45c0-24.3,9.05-45.92,23.13-59.79l-.39.36c-.23.23-.46.47-.68.7q-.735.75-1.44,1.53c-1.14,1.24-2.23,2.54-3.28,3.88-.31.39-.62.8-.93,1.2l-.33.45c-.37.5-.74,1.01-1.1,1.53a76.462,76.462,0,0,0-6.14,10.47c-.45.92-.89,1.86-1.31,2.82s-.83,1.92-1.21,2.9c-.13.32-.26.64-.38.96-.32.84-.63,1.68-.92,2.54-.24.68-.47,1.36-.69,2.06a87.581,87.581,0,0,0-2.8,11.19c-.09.47-.17.95-.25,1.42q-.57,3.405-.9,6.92c-.03.36-.06.73-.09,1.1-.1,1.18-.17,2.38-.22,3.58-.02.43-.04.85-.05,1.28-.01.45-.02.91-.03,1.37C352.015,683.43,352.015,683.94,352.015,684.45Z" transform="translate(-239.57 -239.56)"/><path class="cls-3" d="M375.145,624.66c.35-.34.69-.67,1.04-1a1.059,1.059,0,0,0-.12.1,1.315,1.315,0,0,0-.21.2c-.13.12-.27.25-.4.38a1.888,1.888,0,0,0-.2.2C375.215,624.58,375.185,624.62,375.145,624.66Z" transform="translate(-239.57 -239.56)"/><path class="cls-3" d="M376.185,623.66q1.05-.99,2.13-1.92c-.21.18-.43.36-.64.55-.36.3-.71.62-1.05.95C376.475,623.38,376.325,623.52,376.185,623.66Z" transform="translate(-239.57 -239.56)"/><path class="cls-3" d="M378.315,621.74c.68-.57,1.36-1.13,2.05-1.68-.43.32-.84.66-1.26,1l-.51.42C378.505,621.57,378.405,621.65,378.315,621.74Z" transform="translate(-239.57 -239.56)"/><path class="cls-3" d="M381.645,619.09c.75-.56,1.51-1.1,2.29-1.62-.37.24-.75.49-1.11.75-.27.18-.54.38-.81.58C381.885,618.9,381.765,618.99,381.645,619.09Z" transform="translate(-239.57 -239.56)"/><path class="cls-3" d="M386.285,615.97c.4-.23.8-.47,1.2-.69-.09.04-.17.09-.26.14C386.915,615.6,386.6,615.78,386.285,615.97Z" transform="translate(-239.57 -239.56)"/><path class="cls-3" d="M389.205,614.35c.62-.33,1.26-.64,1.89-.95-.11.05-.21.1-.32.15-.29.15-.59.29-.88.43C389.665,614.1,389.435,614.23,389.205,614.35Z" transform="translate(-239.57 -239.56)"/><path class="cls-3" d="M391.315,613.3q1.17-.54,2.37-1.02c-.38.14-.75.3-1.13.46C392.135,612.92,391.725,613.11,391.315,613.3Z" transform="translate(-239.57 -239.56)"/><path class="cls-3" d="M395.4,611.62c.25-.09.51-.18.76-.26-.24.07-.48.15-.71.24A.076.076,0,0,0,395.4,611.62Z" transform="translate(-239.57 -239.56)"/><path class="cls-3" d="M397.555,610.89q.66-.21,1.32-.39c-.33.09-.65.18-.97.28C397.785,610.82,397.675,610.85,397.555,610.89Z" transform="translate(-239.57 -239.56)"/><path class="cls-3" d="M429.305,611.88c.34.13.67.26,1.01.4-.1-.05-.2-.09-.3-.13C429.785,612.06,429.545,611.96,429.305,611.88Z" transform="translate(-239.57 -239.56)"/><path class="cls-3" d="M438.9,616.71c.36.22.71.45,1.05.68-.15-.11-.31-.21-.46-.31C439.285,616.95,439.1,616.83,438.9,616.71Z" transform="translate(-239.57 -239.56)"/><path class="cls-3" d="M449.225,625.03l.31.31c-.06-.06-.12-.12-.18-.19A1.538,1.538,0,0,1,449.225,625.03Z" transform="translate(-239.57 -239.56)"/><path class="cls-3" d="M464.145,646.98c.21.45.41.91.61,1.37-.09-.22-.19-.44-.28-.65Z" transform="translate(-239.57 -239.56)"/><path class="cls-3" d="M464.865,648.61c.34.81.67,1.62.99,2.45-.14-.39-.3-.78-.45-1.16C465.225,649.46,465.045,649.04,464.865,648.61Z" transform="translate(-239.57 -239.56)"/><path class="cls-3" d="M531.955,561.48c-33.11.07-59.94,55.09-59.94,122.97q0-1.14-.03-2.28v2.27c0-.91-.01-1.81-.04-2.71-.01-.42-.03-.84-.04-1.26l-.06-1.32c-.05-.77-.1-1.53-.16-2.3-.03-.39-.06-.78-.1-1.17-.05-.57-.11-1.15-.17-1.72q-.12-1.1-.27-2.19c-.03-.25-.06-.49-.1-.73-.04-.35-.1-.69-.15-1.03q-.555-3.675-1.4-7.22c-.08-.35-.16-.7-.25-1.04q-.63-2.55-1.4-5.01c-.17-.54-.34-1.09-.53-1.62-.07-.23-.14-.47-.23-.7s-.16-.48-.25-.71a1.176,1.176,0,0,0-.07-.2c-.11-.32-.23-.65-.34-.97-.19-.5-.37-.99-.57-1.48-.32-.83-.65-1.64-.99-2.45-.04-.09-.08-.18-.11-.26-.2-.46-.4-.92-.61-1.37-.86-1.92-1.8-3.79-2.79-5.6-.24-.43-.47-.86-.72-1.28-.18-.33-.37-.66-.57-.98-.3-.51-.6-1.02-.92-1.52s-.62-.99-.95-1.48a68.138,68.138,0,0,0-4.02-5.54c-.22-.29-.45-.57-.68-.85-.85-1.03-1.72-2.02-2.62-2.98v-.01c-.33-.35-.67-.7-1-1.05-.12-.12-.23-.23-.34-.35l-.31-.31a.9.9,0,0,0-.1-.09c-.43-.44-.86-.86-1.31-1.28-.35-.33-.7-.65-1.06-.97-.25-.23-.5-.45-.76-.67-.19-.17-.38-.34-.58-.51-.55-.46-1.1-.91-1.66-1.35-.22-.18-.44-.35-.67-.52l-.16-.13c-.07-.05-.14-.1-.21-.16-.49-.37-.99-.73-1.49-1.09-.42-.29-.85-.58-1.28-.87-.34-.23-.69-.46-1.05-.68-.39-.25-.78-.5-1.18-.74-.8-.47-1.6-.93-2.41-1.36-.21-.11-.41-.21-.61-.32-.62-.32-1.24-.62-1.86-.92-.83-.38-1.67-.75-2.52-1.09-.34-.14-.67-.27-1.01-.4-.14-.06-.28-.11-.42-.16-.1-.03-.21-.07-.31-.11-.15-.06-.31-.11-.46-.16a.114.114,0,0,0-.08-.03c-.06-.02-.13-.05-.19-.07a.169.169,0,0,0-.1-.03c-.86-.3-1.73-.57-2.61-.82h-.01c-.35-.1-.7-.19-1.05-.28a2.681,2.681,0,0,0-.27-.07c-.15-.04-.3-.08-.45-.11-.3-.08-.61-.15-.91-.22-.07-.01-.14-.03-.21-.04-.37-.08-.74-.16-1.11-.23a48.289,48.289,0,0,0-18.25,0c-.41.08-.81.16-1.22.25s-.81.19-1.21.29a.865.865,0,0,0-.23.06.292.292,0,0,0-.09.02c-.42.1-.84.21-1.25.33q-.66.18-1.32.39c-.13.04-.27.09-.41.13-.33.11-.66.22-.99.34-.25.08-.51.17-.76.26-.57.21-1.14.43-1.7.65a.01.01,0,0,1-.01.01q-1.2.48-2.37,1.02a.01.01,0,0,1-.01.01.37.37,0,0,0-.11.05.488.488,0,0,1-.07.03.037.037,0,0,0-.03.01c-.63.31-1.27.62-1.89.95a.161.161,0,0,0-.07.04c-.41.22-.8.43-1.2.65a4.915,4.915,0,0,0-.45.24c-.4.22-.8.46-1.2.69-.79.48-1.58.98-2.35,1.5s-1.54,1.06-2.29,1.62c-.43.32-.86.64-1.28.97-.69.55-1.37,1.11-2.05,1.68q-1.08.93-2.13,1.92c-.35.33-.69.66-1.04,1-14.08,13.87-23.13,35.49-23.13,59.79,0-.51,0-1.02-.01-1.53-.02.51-.02,1.01-.02,1.52v-3.16q-.06-2.745-.21-5.46c-.01-.24-.03-.49-.04-.73q-.18-2.88-.46-5.72c-.11-1.1-.23-2.2-.37-3.29-.1-.82-.2-1.63-.32-2.45-.16-1.17-.33-2.32-.52-3.47-.09-.54-.18-1.09-.28-1.63-.08-.5-.17-.99-.26-1.48-.88-4.78-2-9.46-3.32-14.02-.17-.59-.35-1.19-.54-1.78-.65-2.16-1.36-4.28-2.11-6.38-.21-.61-.44-1.21-.67-1.81-.18-.52-.38-1.03-.58-1.54-.29-.77-.6-1.53-.91-2.29a.031.031,0,0,0-.01-.02c-.54-1.31-1.09-2.6-1.66-3.88-.19-.43-.38-.86-.58-1.28q-2.235-4.86-4.8-9.42c-.44-.79-.9-1.58-1.36-2.36s-.92-1.55-1.4-2.31c-.36-.59-.73-1.17-1.11-1.75-.61-.97-1.25-1.93-1.89-2.87-.48-.7-.97-1.39-1.46-2.07-.29-.42-.59-.82-.89-1.23-.32-.45-.66-.9-.99-1.34-1.02-1.34-2.05-2.65-3.12-3.93-.34-.42-.69-.84-1.05-1.25-1.03-1.22-2.08-2.4-3.17-3.56-.36-.41-.74-.81-1.12-1.2-.49-.52-.99-1.03-1.49-1.53q-.81-.825-1.65-1.62a2.284,2.284,0,0,0-.22-.22c-.36-.34-.72-.69-1.09-1.02-.38-.36-.76-.71-1.15-1.06-.57-.52-1.14-1.03-1.72-1.52-.37-.32-.74-.64-1.11-.94-.25-.22-.5-.43-.76-.64-.58-.48-1.17-.95-1.76-1.41-.44-.35-.88-.69-1.33-1.03s-.89-.68-1.34-1a.1.1,0,0,0-.06-.05c-.53-.39-1.07-.78-1.62-1.16-.37-.26-.73-.51-1.1-.76-.34-.23-.68-.46-1.02-.68-.37-.25-.75-.5-1.13-.74q-.405-.27-.81-.51c-.43-.28-.86-.54-1.3-.81q-.51-.315-1.02-.6c-.56-.34-1.13-.66-1.71-.98-.66-.37-1.32-.73-1.99-1.08a1.864,1.864,0,0,0-.34-.18q-.87-.465-1.77-.9a2.246,2.246,0,0,0-.38-.19c-.7-.34-1.4-.67-2.11-.99,0-.02-.01-.02-.02-.01-.61-.29-1.23-.56-1.85-.82a6.354,6.354,0,0,0-.67-.28c-.66-.29-1.32-.55-1.99-.81-.76-.3-1.53-.59-2.3-.86q-1.035-.375-2.07-.72c-.15-.05-.3-.1-.45-.14-.72-.23-1.43-.45-2.15-.66-.77-.23-1.54-.44-2.32-.64a.193.193,0,0,0-.1-.03c-.77-.2-1.55-.39-2.33-.57-.8-.19-1.61-.36-2.41-.52q-1.125-.225-2.25-.42a2.568,2.568,0,0,0-.4-.06q-.975-.165-1.95-.3a4.013,4.013,0,0,0-.5-.07c-.72-.1-1.43-.18-2.15-.26a.5.5,0,0,0-.17-.02c-.72-.08-1.44-.14-2.17-.2a2.581,2.581,0,0,0-.48-.03c-.74-.06-1.48-.11-2.23-.14a.03.03,0,0,0-.04,0c-.82-.04-1.64-.07-2.46-.08,54.61,1.45,98.64,89.96,98.64,198.94,0-67.71,26.86-122.59,60-122.59s60,54.88,60,122.59C471.985,650.59,498.825,561.53,531.955,561.48Z" transform="translate(-239.57 -239.56)"/><path class="cls-3" d="M352.005,682.92c0-.55-.01-1.1-.02-1.64v3.16C351.985,683.93,351.985,683.43,352.005,682.92Z" transform="translate(-239.57 -239.56)"/><path class="cls-3" d="M425.125,610.5h.01c-.27-.08-.54-.15-.81-.22l-.57-.15-.26-.06c.1.02.21.05.31.08a2.681,2.681,0,0,1,.27.07C424.425,610.31,424.775,610.4,425.125,610.5Z" transform="translate(-239.57 -239.56)"/><path class="cls-3" d="M425.135,610.5c.88.25,1.75.52,2.61.82C426.885,611.02,426.015,610.74,425.135,610.5Z" transform="translate(-239.57 -239.56)"/><path class="cls-3" d="M429.305,611.88c.34.13.67.26,1.01.4-.1-.05-.2-.09-.3-.13C429.785,612.06,429.545,611.96,429.305,611.88Z" transform="translate(-239.57 -239.56)"/><path class="cls-3" d="M430.315,612.28c.85.34,1.69.71,2.52,1.09C432.005,612.98,431.165,612.61,430.315,612.28Z" transform="translate(-239.57 -239.56)"/><path class="cls-3" d="M432.835,613.37c.62.3,1.24.6,1.86.92-.2-.12-.41-.22-.62-.32C433.665,613.76,433.245,613.56,432.835,613.37Z" transform="translate(-239.57 -239.56)"/><path class="cls-3" d="M435.305,614.61c.81.43,1.61.89,2.41,1.36-.19-.11-.37-.23-.55-.33C436.545,615.28,435.935,614.93,435.305,614.61Z" transform="translate(-239.57 -239.56)"/><path class="cls-3" d="M439.945,617.39c.43.29.86.58,1.28.87-.13-.11-.27-.2-.41-.3-.36-.25-.72-.49-1.09-.73a1.576,1.576,0,0,0-.24-.15v-.01c-.58-.38-1.17-.75-1.77-1.1.4.24.79.49,1.18.74C439.255,616.93,439.605,617.16,439.945,617.39Z" transform="translate(-239.57 -239.56)"/><path class="cls-3" d="M471.985,684.44v-2.27c-.01-.58-.03-1.15-.06-1.72-.02-.48-.04-.96-.07-1.43-.01-.22-.02-.43-.04-.64-.04-.73-.09-1.45-.16-2.16-.03-.41-.07-.81-.1-1.21-.05-.45-.1-.91-.15-1.36-.06-.56-.13-1.11-.2-1.67-.02-.14-.04-.28-.06-.41-.08-.67-.18-1.33-.29-1.99-.41-2.59-.92-5.14-1.53-7.62-.1-.44-.22-.87-.33-1.31a87.327,87.327,0,0,0-2.72-8.57c-.13-.36-.27-.73-.42-1.09a6.435,6.435,0,0,0-.24-.61c-.515-1.3-1.071-2.569-1.647-3.822q-.44-.972-.9-1.928-.255-.525-.51-1.02c-.17-.34-.35-.67-.52-1.01-.35-.68-.71-1.34-1.08-1.99-.17-.31-.35-.61-.53-.92s-.35-.6-.53-.9c-.07-.13-.15-.25-.23-.38-.16-.25-.31-.51-.47-.76s-.31-.51-.48-.76c-.22-.35-.44-.69-.67-1.03-.29-.45-.59-.89-.89-1.32s-.58-.84-.89-1.25c-.09-.14-.2-.28-.3-.42-.37-.5-.75-1-1.13-1.49-.41-.53-.83-1.05-1.24-1.56-.04-.05-.08-.09-.11-.13-.46-.55-.93-1.1-1.4-1.63q-.345-.4-.72-.81c-.23-.26-.47-.51-.72-.77-.48-.52-.97-1.03-1.47-1.52-.5-.51-1.01-.99-1.52-1.46q-.225-.225-.45-.42c-.36-.34-.73-.67-1.1-.99-1.05-.92-2.12-1.8-3.22-2.62-.55-.42-1.1-.83-1.66-1.21.5.36,1,.72,1.49,1.09.07.06.14.11.21.16a1.01,1.01,0,0,1,.16.13c.22.17.45.34.67.52.56.44,1.11.89,1.66,1.35.09.08.18.16.27.23.1.09.21.18.31.28.26.22.51.44.76.67.36.32.71.64,1.06.97s.7.66,1.04,1c.09.09.19.19.27.28a.9.9,0,0,1,.1.09l.31.31c.11.12.22.23.34.35.33.35.67.7,1,1.05v.01c.9.96,1.77,1.95,2.62,2.98.23.28.46.56.68.85a68.138,68.138,0,0,1,4.02,5.54c.32.49.64.98.95,1.48s.62,1.01.92,1.52c.2.32.39.65.57.98.25.42.48.85.72,1.28.99,1.81,1.93,3.68,2.79,5.6.21.45.41.91.61,1.37.03.08.07.17.11.26.34.81.67,1.62.99,2.45.2.49.38.98.57,1.48.11.32.23.64.34.97a1.176,1.176,0,0,1,.07.2c.09.23.17.47.25.71s.16.47.23.7c.19.54.36,1.08.53,1.62q.765,2.46,1.4,5.01c.09.35.17.69.25,1.04q.84,3.54,1.4,7.22c.05.34.11.69.15,1.03.04.24.07.48.1.73q.15,1.1.27,2.19c.06.57.12,1.15.17,1.72.04.39.07.78.1,1.17.06.76.11,1.53.16,2.3l.06,1.32c.02.42.03.84.04,1.26C471.975,682.63,471.985,683.53,471.985,684.44Z" transform="translate(-239.57 -239.56)"/><path class="cls-1" d="M383.935,617.47c.77-.52,1.56-1.02,2.35-1.5-1.17.69-2.33,1.45-3.46,2.25-.27.18-.54.38-.81.58-.99.71-1.96,1.47-2.91,2.26l-.51.42c-.31.27-.62.53-.92.81-.36.3-.71.62-1.05.95-.19.16-.38.34-.56.52a1.315,1.315,0,0,0-.21.2c-.13.12-.27.25-.4.38a1.888,1.888,0,0,0-.2.2c-.17.15-.34.32-.5.48-.23.23-.46.47-.68.7q-.735.75-1.44,1.53c-1.14,1.24-2.23,2.54-3.28,3.88-.31.39-.62.8-.93,1.2l-.33.45c-.37.5-.74,1.01-1.1,1.53a76.462,76.462,0,0,0-6.14,10.47c-.45.92-.89,1.86-1.31,2.82s-.83,1.92-1.21,2.9c-.13.32-.26.64-.38.96-.32.84-.63,1.68-.92,2.54-.24.68-.47,1.36-.69,2.06a87.581,87.581,0,0,0-2.8,11.19c-.09.47-.17.95-.25,1.42q-.57,3.405-.9,6.92c-.03.36-.06.73-.09,1.1-.1,1.18-.17,2.38-.22,3.58-.02.43-.04.85-.05,1.28-.01.45-.02.91-.03,1.37.01.51.01,1.02.01,1.53,0-24.3,9.05-45.92,23.13-59.79.35-.34.69-.67,1.04-1q1.05-.99,2.13-1.92c.68-.57,1.36-1.13,2.05-1.68.42-.33.85-.65,1.28-.97C382.4,618.53,383.155,617.99,383.935,617.47Z" transform="translate(-239.57 -239.56)"/><path class="cls-1" d="M389.263,614.321c.6-.319,1.221-.621,1.832-.921-.11.05-.21.1-.32.15-.29.15-.59.29-.88.43-.23.12-.46.25-.69.37a.168.168,0,0,0-.067.038C389.18,614.366,389.221,614.342,389.263,614.321Z" transform="translate(-239.57 -239.56)"/><path class="cls-1" d="M389.135,614.39l0,0c-.64.335-1.282.667-1.913,1.032-.31.18-.63.36-.94.55.4-.23.8-.47,1.2-.69a4.915,4.915,0,0,1,.45-.24C388.335,614.81,388.735,614.59,389.135,614.39Z" transform="translate(-239.57 -239.56)"/><path class="cls-1" d="M393.685,612.28a.01.01,0,0,0,.01-.01c-.38.15-.76.31-1.14.47-.42.18-.83.37-1.24.56Q392.485,612.76,393.685,612.28Z" transform="translate(-239.57 -239.56)"/><path class="cls-1" d="M396.155,611.36c.33-.12.66-.23.99-.34-.57.18-1.14.37-1.7.58a.076.076,0,0,0-.05.02C395.645,611.53,395.905,611.44,396.155,611.36Z" transform="translate(-239.57 -239.56)"/><path class="cls-1" d="M397.581,610.882q.646-.205,1.294-.382c-.33.09-.65.18-.97.28-.12.04-.23.07-.35.11s-.27.09-.41.13Z" transform="translate(-239.57 -239.56)"/><path class="cls-2" d="M642.01,561.48v.27a12.324,12.324,0,0,0-1.72.12,8.112,8.112,0,0,0-.86.14,14.912,14.912,0,0,0-2.43.72,17.047,17.047,0,0,0-2.28,1.11c-.26.15-.51.3-.76.46-.44.28-.87.59-1.31.91-.33.24-.65.5-.97.77s-.65.55-.97.85c-.64.59-1.28,1.22-1.92,1.91v.01l-.6.66c-.8.91-1.59,1.89-2.36,2.94v.01c-.36.49-.72.99-1.07,1.51-.18.25-.35.51-.53.78-.01.01,0,.01,0,.01-.18.26-.35.53-.53.8-.01.01,0,.01,0,.01-.18.27-.35.55-.53.83-.35.56-.7,1.14-1.04,1.74-9.86,16.92-18.06,46.04-23.41,82.56-5.14,28.69-9.29,62.48-12.19,99.82H578.2c-6.46-100.57-20.61-175.49-37.73-194.33-.28-.32-.57-.62-.87-.91-.28-.28-.57-.54-.86-.79s-.58-.49-.87-.7-.58-.42-.87-.61c0-.01,0-.01-.01-.01a10.388,10.388,0,0,0-1.84-.95,8.531,8.531,0,0,0-.93-.32,8.086,8.086,0,0,0-.95-.21,6.6,6.6,0,0,0-1.25-.11h15.29c12.8.03,23.77,50.09,28.46,121.44v.14c1.56,23.62,2.42,49.58,2.43,76.82.03-53.23,3.97-101.55,10.34-137.14,5.35-36.53,15.32-61.09,26.74-61.09v-.17Z" transform="translate(-239.57 -239.56)"/><path class="cls-2" d="M622.13,578.04c-9.84,16.93-18.04,46.04-23.38,82.56-5.13,28.68-9.3,62.47-12.19,99.82h-.03c2.9-37.34,7.05-71.13,12.19-99.82C604.07,624.08,612.27,594.96,622.13,578.04Z" transform="translate(-239.57 -239.56)"/><path class="cls-2" d="M625.835,572.35c.79-1.05,1.57-2.03,2.36-2.94C627.4,570.32,626.605,571.3,625.835,572.35Z" transform="translate(-239.57 -239.56)"/><path class="cls-2" d="M632.655,565.21a23.449,23.449,0,0,0-1.94,1.62C631.365,566.24,632.005,565.7,632.655,565.21Z" transform="translate(-239.57 -239.56)"/><path class="cls-3" d="M575.775,682.92c-.13-67.22-8.62-121.44-19.09-121.44H547.3C560.105,561.48,571.085,611.55,575.775,682.92Z" transform="translate(-239.57 -239.56)"/><path class="cls-3" d="M615.285,561.65v-.17H598.7v.1c-7.05,0-13.21,15.18-16.52,37.76-3.89,21.74-6.31,51.14-6.4,83.58v.14c1.56,23.62,2.42,49.58,2.43,76.82.03-53.23,3.97-101.55,10.34-137.14C593.9,586.21,603.865,561.65,615.285,561.65Z" transform="translate(-239.57 -239.56)"/><path class="cls-2" d="M741.98,561.48a13.765,13.765,0,0,0-2.22.19c-.29.05-.58.11-.86.18-.06.02-.12.03-.18.05l-.11.03a5.084,5.084,0,0,0-.52.15,2.394,2.394,0,0,0-.43.14.235.235,0,0,0-.08.02l-.15.06a7.438,7.438,0,0,0-.85.33c-.33.14-.67.29-1,.47s-.66.35-.99.54v.01c-.02.01-.03.01-.05.02a1.48,1.48,0,0,0-.13.08c-.24.14-.49.29-.73.46a.558.558,0,0,0-.08.05v.01c-.08.05-.15.1-.22.15-.22.14-.45.3-.67.47a.647.647,0,0,0-.09.08.879.879,0,0,1-.1.06c-.06.05-.12.09-.19.15a4.971,4.971,0,0,0-.46.37c-.02,0-.03.02-.05.04a2.2,2.2,0,0,0-.18.14v.01a.392.392,0,0,1-.1.08.187.187,0,0,0-.07.06c-.23.19-.46.39-.7.61-.3.27-.6.56-.9.86a1.137,1.137,0,0,0-.15.16c-.13.12-.26.25-.38.38-.2.2-.39.4-.58.61-.31.34-.63.7-.94,1.07-.52.6-1.03,1.25-1.54,1.91-.09.12-.17.25-.26.37-.43.57-.86,1.16-1.28,1.78-.09.12-.17.25-.25.37-.45.67-.9,1.36-1.34,2.08-.04.06-.08.13-.12.19-14.9,24.27-26.19,76.24-29.79,139.78-.59,10.25-.97,20.8-1.13,31.59a1.244,1.244,0,0,1-.2.1,680.531,680.531,0,0,0-6.64-87.14c-.12-.83-.25-1.66-.37-2.49-.11-.73-.22-1.46-.34-2.18-.02-.18-.05-.35-.08-.53-.13-.83-.26-1.66-.4-2.48-.2-1.26-.41-2.51-.62-3.76,0-.02-.01-.04-.01-.07-.19-1.1-.38-2.18-.57-3.26s-.39-2.14-.59-3.21c-.14-.79-.29-1.57-.44-2.34-.27-1.44-.55-2.87-.84-4.27-.14-.71-.28-1.41-.43-2.1-.26-1.28-.53-2.54-.81-3.79q-1.185-5.49-2.5-10.62c-.29-1.14-.58-2.27-.88-3.38-.16-.62-.32-1.23-.49-1.84-.34-1.26-.69-2.49-1.05-3.71-.33-1.15-.66-2.29-1.01-3.41q-1.05-3.45-2.15-6.68-.255-.75-.51-1.47c-.2-.57-.4-1.13-.6-1.69-.15-.42-.3-.83-.45-1.24-1.17-3.15-2.37-6.12-3.61-8.88-.19-.44-.39-.87-.58-1.29a.379.379,0,0,1-.06-.13c-.3-.65-.61-1.29-.91-1.91-.17-.34-.33-.67-.49-.99q-.48-.99-.99-1.92c-.17-.31-.33-.62-.5-.93-.05-.08-.1-.17-.15-.26v-.02c-.12-.21-.23-.42-.35-.62a2.016,2.016,0,0,0-.18-.32,1.505,1.505,0,0,0-.1-.17l.01-.01-.01-.01c-.25-.44-.51-.87-.76-1.3-.16-.28-.33-.56-.51-.83v-.02c-.01-.01-.01-.02-.02-.02-.2-.33-.41-.66-.63-.98-.14-.24-.29-.47-.44-.7-.06-.1-.13-.19-.2-.29v-.02c-.13-.18-.25-.37-.37-.55a.351.351,0,0,1-.05-.08c-.16-.21-.31-.43-.46-.64s-.28-.4-.43-.59a1.526,1.526,0,0,0-.11-.16c-.18-.25-.37-.49-.55-.73v-.01a1.431,1.431,0,0,1-.11-.15c-.13-.18-.27-.35-.41-.52l-.14-.17v-.01c-.15-.19-.3-.38-.46-.56a2.253,2.253,0,0,0-.21-.24v-.01c-.22-.26-.45-.52-.67-.77-.2-.23-.41-.46-.62-.68a.265.265,0,0,0-.05-.06c0-.01-.01,0-.01,0v-.01c-.22-.24-.45-.47-.68-.7s-.45-.45-.68-.67-.46-.43-.69-.63-.46-.4-.69-.59c-.46-.39-.92-.74-1.39-1.07-.23-.17-.47-.33-.7-.48h-.01c-.39-.25-.77-.49-1.16-.7-.09-.05-.19-.1-.28-.15a.3.3,0,0,0-.08-.04c-.08-.05-.16-.09-.23-.13h-.01c-.19-.1-.39-.19-.58-.28a13.952,13.952,0,0,0-2.38-.87h-.02a8.259,8.259,0,0,0-.86-.2,12.828,12.828,0,0,0-2.55-.26v-.27h22.71v.17c11.45,0,21.45,24.63,26.82,61.28a432.177,432.177,0,0,1,4.18,61.52c0-9.33.26-18.42.76-27.15.4-7.09.96-13.94,1.66-20.5v-.06c4.69-44.22,15.72-75.26,28.57-75.26Z" transform="translate(-239.57 -239.56)"/><path class="cls-2" d="M735.585,563.1a25.549,25.549,0,0,0-7.76,6.47A25.964,25.964,0,0,1,735.585,563.1Z" transform="translate(-239.57 -239.56)"/><path class="cls-3" d="M698.145,636.8v-.06a266.193,266.193,0,0,0-2.58-37.28c-3.32-22.65-9.5-37.88-16.58-37.88v-.1h-14.26v.17c11.45,0,21.45,24.63,26.82,61.28a432.177,432.177,0,0,1,4.18,61.52c0-9.33.26-18.42.76-27.15C696.885,650.21,697.445,643.36,698.145,636.8Z" transform="translate(-239.57 -239.56)"/><path class="cls-3" d="M726.715,561.48h-9.41c-9.13,0-16.77,25.32-18.69,59.22-.3,5.17-.46,10.54-.47,16.04C702.835,592.52,713.865,561.48,726.715,561.48Z" transform="translate(-239.57 -239.56)"/></g></g></svg>