<svg xmlns="http://www.w3.org/2000/svg" viewBox="0 0 444.837 100"><defs><style>.cls-1{fill:#366ce1;}</style></defs><title>netflix</title><g id="Слой_2" data-name="Слой 2"><g id="Work_space" data-name="Work space"><g id="netflix"><polygon class="cls-1" points="100 0 100 100 80 100 20 30.59 20 100 0 100 0 0 20 0 80 69.41 80 0 100 0"/><path class="cls-1" d="M348.86,95.65c-.27.15-.54.29-.82.44a35.188,35.188,0,0,1-4.81,2.03c-.27.1-.55.19-.83.27-.55.18-1.1.34-1.66.48-.58.15-1.17.28-1.76.4-.29.06-.59.12-.88.17a35.943,35.943,0,0,1-3.77.47c-.24.02-.48.03-.71.04s-.47.02-.7.03c-.38.01-.76.02-1.14.02a35.713,35.713,0,0,1-35.71-35.71V0h14.28V64.29a21.422,21.422,0,0,0,21.43,21.42c.37,0,.73-.01,1.1-.03.33-.01.67-.04,1-.07a.487.487,0,0,1,.12-.01c.35-.04.7-.08,1.04-.14.37-.05.74-.12,1.1-.2.22-.04.43-.09.65-.14l.47-.12c.25-.06.49-.13.74-.21Z"/><path class="cls-1" d="M176.707,71.429a35.7,35.7,0,0,0,0-14.286,35.714,35.714,0,0,0-69.986,0,35.744,35.744,0,0,0,0,14.286,35.7,35.7,0,0,0,59.05,19.242q-5.688-4.553-11.385-9.107a21.424,21.424,0,0,1-32.872-10.135ZM141.714,42.857a21.412,21.412,0,0,1,20.2,14.286h-40.4A21.414,21.414,0,0,1,141.714,42.857Z"/><path class="cls-1" d="M253.429,64.286a35.715,35.715,0,0,1-71.429,0V0h14.286V35.721a35.523,35.523,0,0,1,21.428-7.15V42.857a21.429,21.429,0,1,0,21.429,21.429Z"/><path class="cls-1" d="M367.36,28.57V67.38a35.66,35.66,0,0,1-14.28,25.57,35.118,35.118,0,0,1-4.22,2.7L338,84.79a21.415,21.415,0,0,0,15.08-18.16V28.57Z"/><path class="cls-1" d="M367.49,64.29c0,1.04-.04,2.07-.13,3.09V64.29Z"/><path class="cls-1" d="M310.43,35.714a35.715,35.715,0,0,0-71.429,0V100h14.286V64.279a35.523,35.523,0,0,0,21.428,7.15V57.143a21.429,21.429,0,1,1,21.429-21.429Z"/><polygon class="cls-1" points="444.837 38.671 419.223 64.286 444.837 89.9 444.837 100 434.737 100 409.123 74.386 383.508 100 373.408 100 373.408 89.893 399.016 64.286 373.408 38.679 373.408 28.571 383.516 28.571 409.123 54.179 434.73 28.571 444.837 28.571 444.837 38.671"/><rect class="cls-1" x="353" y="9.64" width="14.36" height="14.36"/></g></g></g></svg>