<svg xmlns="http://www.w3.org/2000/svg" viewBox="0 0 860 240"><defs><style>.cls-1{fill:#366ce1;}.cls-2{fill:#121221;}</style></defs><title>nvidia</title><g id="Слой_2" data-name="Слой 2"><g id="Work_space" data-name="Work space"><g id="nvidia"><polygon class="cls-1" points="280 90 280 150 300 150 300 170 240 170 240 150 260 150 260 90 240 90 240 70 300 70 300 90 280 90"/><polygon class="cls-1" points="480 90 480 150 500 150 500 170 440 170 440 150 460 150 460 90 440 90 440 70 500 70 500 90 480 90"/><polygon class="cls-1" points="100 70 100 170 80 170 20 100.59 20 170 0 170 0 70 20 70 80 139.41 80 70 100 70"/><path class="cls-1" d="M370,70H320V170h50a50,50,0,0,0,0-100Zm0,80H340V90h30a30,30,0,0,1,0,60Z"/><path class="cls-1" d="M580.77,71.95,579.99,70H560.01l-.78,1.94L520,170h21.55l11.2-28h34.5l11.2,28H620ZM560.75,122,570,98.87,579.25,122Z"/><polygon class="cls-1" points="219.98 70 180.76 168.07 179.99 170 159.99 170 159.22 168.07 120 70 141.54 70 169.99 141.14 198.45 70 219.98 70"/><rect class="cls-1" x="590" y="130" width="160" height="20" transform="translate(530 810) rotate(-90)"/><rect class="cls-1" x="660" y="60" width="80" height="20"/><rect class="cls-1" x="700" y="160" width="40" height="20"/><rect class="cls-1" x="670" y="130" width="80" height="20" transform="translate(570 850) rotate(-90)"/><rect class="cls-1" x="700" y="100" width="40" height="20"/><rect class="cls-1" x="660" y="200" width="80" height="20"/><rect class="cls-1" x="640" y="20" width="100" height="20"/><polygon class="cls-2" points="840 20 840 220 740 220 740 200 820 200 820 40 740 40 740 20 840 20"/><polygon class="cls-2" points="800 60 800 180 740 180 740 160 780 160 780 80 740 80 740 60 800 60"/><rect class="cls-2" x="740" y="100" width="20" height="40"/><polygon class="cls-1" points="780 80 780 160 740 160 740 140 760 140 760 100 740 100 740 80 780 80"/><polygon class="cls-1" points="820 40 820 200 740 200 740 180 800 180 800 60 740 60 740 40 820 40"/><polygon class="cls-1" points="860 0 860 240 740 240 740 220 840 220 840 20 740 20 740 0 860 0"/></g></g></g></svg>