<svg xmlns="http://www.w3.org/2000/svg" viewBox="0 0 710 120.71"><defs><style>.cls-1{fill:#121221;}.cls-2{fill:#366ce1;}</style></defs><title>OnBase</title><g id="Слой_2" data-name="Слой 2"><g id="Complete"><g id="OnBase"><path class="cls-1" d="M695.352,14.64a50,50,0,1,0-70.709,70.71L660,120.71l35.349-35.36A49.991,49.991,0,0,0,695.352,14.64ZM681.213,71.21,660,92.42l-10-10-11.22-11.21a30.015,30.015,0,0,1,0-42.43A29.646,29.646,0,0,1,650,21.71a30,30,0,0,1,31.21,49.5Z"/><path class="cls-2" d="M670,29.29V80L660,90,650,80V29.29A30.1,30.1,0,0,1,670,29.29Z"/><polygon class="cls-2" points="210 20 210 120 190 120 130 50.59 130 120 110 120 110 20 130 20 190 89.41 190 20 210 20"/><path class="cls-1" d="M340,50a30,30,0,0,0-30-30H240V120h70a29.991,29.991,0,0,0,22.35-50A29.862,29.862,0,0,0,340,50ZM260,40h50a10,10,0,0,1,0,20H260Zm50,60H260V80h50a10,10,0,0,1,0,20Z"/><path class="cls-2" d="M50,20a50,50,0,1,0,50,50A50.005,50.005,0,0,0,50,20Zm0,80A30,30,0,1,1,80,70,30,30,0,0,1,50,100Z"/><path class="cls-1" d="M408.744,52.1c-36.381-22.857-74.736,13.626-55.692,50.072A35.532,35.532,0,0,0,365.735,114.9c15.616,8.212,31.278,5.864,42.265-2.4V120h15V77.989A30.559,30.559,0,0,0,408.744,52.1Zm-9.673,48.871c-22.314,13.575-45.621-9.732-32.046-32.046a14.686,14.686,0,0,1,4.9-4.9c22.314-13.575,45.621,9.732,32.046,32.046A14.686,14.686,0,0,1,399.071,100.975Z"/><path class="cls-1" d="M587.242,90a37.483,37.483,0,0,0,0-15,37.5,37.5,0,0,0-73.484,0,37.483,37.483,0,0,0,0,15,37.49,37.49,0,0,0,62,20.2q-5.974-4.781-11.955-9.562A22.495,22.495,0,0,1,529.29,90ZM550.5,60a22.485,22.485,0,0,1,21.21,15H529.29A22.485,22.485,0,0,1,550.5,60Z"/><path class="cls-1" d="M505.5,82.5a36.842,36.842,0,0,1-.758,7.5,37.492,37.492,0,0,1-63.254,19.012l10.6-10.605A22.493,22.493,0,0,0,489.21,90H431.258a37.483,37.483,0,0,1,0-15,37.493,37.493,0,0,1,63.254-19.013l-10.6,10.6A22.494,22.494,0,0,0,446.79,75h57.952A36.835,36.835,0,0,1,505.5,82.5Z"/></g></g></g></svg>