<svg id="Main" xmlns="http://www.w3.org/2000/svg" viewBox="0 0 620 620"><defs><style>.cls-1{fill:#366ce1;}.cls-2{fill:#121221;}</style></defs><title>Pascal</title><circle class="cls-1" cx="65" cy="105" r="5"/><circle class="cls-1" cx="65" cy="115" r="5"/><circle class="cls-1" cx="65" cy="125" r="5"/><circle class="cls-1" cx="65" cy="135" r="5"/><circle class="cls-1" cx="65" cy="145" r="5"/><circle class="cls-1" cx="65" cy="155" r="5"/><circle class="cls-1" cx="75" cy="105" r="5"/><circle class="cls-1" cx="75" cy="115" r="5"/><circle class="cls-1" cx="75" cy="125" r="5"/><circle class="cls-1" cx="75" cy="135" r="5"/><circle class="cls-1" cx="65" cy="65" r="5"/><circle class="cls-1" cx="65" cy="75" r="5"/><circle class="cls-1" cx="65" cy="85" r="5"/><circle class="cls-1" cx="65" cy="95" r="5"/><circle class="cls-1" cx="75" cy="65" r="5"/><circle class="cls-1" cx="75" cy="75" r="5"/><circle class="cls-1" cx="75" cy="85" r="5"/><circle class="cls-1" cx="75" cy="95" r="5"/><circle class="cls-1" cx="75" cy="145" r="5"/><circle class="cls-1" cx="75" cy="155" r="5"/><circle class="cls-1" cx="85" cy="65" r="5"/><circle class="cls-1" cx="85" cy="75" r="5"/><circle class="cls-1" cx="95" cy="65" r="5"/><circle class="cls-1" cx="95" cy="75" r="5"/><circle class="cls-1" cx="125" cy="75" r="5"/><circle class="cls-1" cx="125" cy="85" r="5"/><circle class="cls-1" cx="135" cy="85" r="5"/><circle class="cls-1" cx="85" cy="115" r="5"/><circle class="cls-1" cx="85" cy="125" r="5"/><circle class="cls-1" cx="95" cy="115" r="5"/><circle class="cls-1" cx="95" cy="125" r="5"/><circle class="cls-1" cx="105" cy="115" r="5"/><circle class="cls-1" cx="105" cy="125" r="5"/><circle class="cls-1" cx="115" cy="115" r="5"/><circle class="cls-1" cx="125" cy="115" r="5"/><circle class="cls-1" cx="115" cy="105" r="5"/><circle class="cls-1" cx="115" cy="85" r="5"/><circle class="cls-1" cx="115" cy="125" r="5"/><circle class="cls-1" cx="125" cy="95" r="5"/><circle class="cls-1" cx="125" cy="105" r="5"/><circle class="cls-1" cx="135" cy="95" r="5"/><circle class="cls-1" cx="135" cy="105" r="5"/><circle class="cls-1" cx="105" cy="65" r="5"/><circle class="cls-1" cx="105" cy="75" r="5"/><circle class="cls-1" cx="115" cy="65" r="5"/><circle class="cls-1" cx="115" cy="75" r="5"/><circle class="cls-1" cx="275" cy="85" r="5"/><circle class="cls-1" cx="275" cy="95" r="5"/><circle class="cls-1" cx="265" cy="95" r="5"/><circle class="cls-1" cx="285" cy="75" r="5"/><circle class="cls-1" cx="315" cy="75" r="5"/><circle class="cls-1" cx="335" cy="95" r="5"/><circle class="cls-1" cx="255" cy="105" r="5"/><circle class="cls-1" cx="255" cy="115" r="5"/><circle class="cls-1" cx="255" cy="125" r="5"/><circle class="cls-1" cx="255" cy="135" r="5"/><circle class="cls-1" cx="255" cy="145" r="5"/><circle class="cls-1" cx="255" cy="155" r="5"/><circle class="cls-1" cx="285" cy="85" r="5"/><circle class="cls-1" cx="285" cy="95" r="5"/><circle class="cls-1" cx="295" cy="65" r="5"/><circle class="cls-1" cx="295" cy="75" r="5"/><circle class="cls-1" cx="305" cy="65" r="5"/><circle class="cls-1" cx="305" cy="75" r="5"/><circle class="cls-1" cx="265" cy="105" r="5"/><circle class="cls-1" cx="265" cy="115" r="5"/><circle class="cls-1" cx="265" cy="125" r="5"/><circle class="cls-1" cx="265" cy="135" r="5"/><circle class="cls-1" cx="265" cy="145" r="5"/><circle class="cls-1" cx="265" cy="155" r="5"/><circle class="cls-1" cx="325" cy="125" r="5"/><circle class="cls-1" cx="315" cy="125" r="5"/><circle class="cls-1" cx="305" cy="125" r="5"/><circle class="cls-1" cx="295" cy="125" r="5"/><circle class="cls-1" cx="285" cy="125" r="5"/><circle class="cls-1" cx="275" cy="125" r="5"/><circle class="cls-1" cx="325" cy="135" r="5"/><circle class="cls-1" cx="315" cy="135" r="5"/><circle class="cls-1" cx="305" cy="135" r="5"/><circle class="cls-1" cx="295" cy="135" r="5"/><circle class="cls-1" cx="285" cy="135" r="5"/><circle class="cls-1" cx="275" cy="135" r="5"/><circle class="cls-1" cx="325" cy="85" r="5"/><circle class="cls-1" cx="325" cy="95" r="5"/><circle class="cls-1" cx="345" cy="105" r="5"/><circle class="cls-1" cx="345" cy="115" r="5"/><circle class="cls-1" cx="345" cy="125" r="5"/><circle class="cls-1" cx="345" cy="135" r="5"/><circle class="cls-1" cx="345" cy="145" r="5"/><circle class="cls-1" cx="345" cy="155" r="5"/><circle class="cls-1" cx="315" cy="85" r="5"/><circle class="cls-1" cx="315" cy="95" r="5"/><circle class="cls-1" cx="275" cy="105" r="5"/><circle class="cls-1" cx="295" cy="85" r="5"/><circle class="cls-1" cx="305" cy="85" r="5"/><circle class="cls-1" cx="325" cy="105" r="5"/><circle class="cls-1" cx="335" cy="105" r="5"/><circle class="cls-1" cx="335" cy="115" r="5"/><circle class="cls-1" cx="335" cy="125" r="5"/><circle class="cls-1" cx="335" cy="135" r="5"/><circle class="cls-1" cx="335" cy="145" r="5"/><circle class="cls-1" cx="335" cy="155" r="5"/><circle class="cls-1" cx="535" cy="65" r="5"/><circle class="cls-1" cx="525" cy="65" r="5"/><circle class="cls-1" cx="515" cy="65" r="5"/><circle class="cls-1" cx="505" cy="65" r="5"/><circle class="cls-1" cx="495" cy="65" r="5"/><circle class="cls-1" cx="485" cy="65" r="5"/><circle class="cls-1" cx="535" cy="75" r="5"/><circle class="cls-1" cx="525" cy="75" r="5"/><circle class="cls-1" cx="515" cy="75" r="5"/><circle class="cls-1" cx="505" cy="75" r="5"/><circle class="cls-1" cx="495" cy="75" r="5"/><circle class="cls-1" cx="485" cy="75" r="5"/><circle class="cls-1" cx="535" cy="105" r="5"/><circle class="cls-1" cx="525" cy="105" r="5"/><circle class="cls-1" cx="515" cy="105" r="5"/><circle class="cls-1" cx="505" cy="105" r="5"/><circle class="cls-1" cx="495" cy="105" r="5"/><circle class="cls-1" cx="485" cy="105" r="5"/><circle class="cls-1" cx="535" cy="115" r="5"/><circle class="cls-1" cx="525" cy="115" r="5"/><circle class="cls-1" cx="515" cy="115" r="5"/><circle class="cls-1" cx="505" cy="115" r="5"/><circle class="cls-1" cx="495" cy="115" r="5"/><circle class="cls-1" cx="485" cy="115" r="5"/><circle class="cls-1" cx="535" cy="145" r="5"/><circle class="cls-1" cx="525" cy="145" r="5"/><circle class="cls-1" cx="515" cy="145" r="5"/><circle class="cls-1" cx="505" cy="145" r="5"/><circle class="cls-1" cx="495" cy="145" r="5"/><circle class="cls-1" cx="485" cy="145" r="5"/><circle class="cls-1" cx="535" cy="155" r="5"/><circle class="cls-1" cx="525" cy="155" r="5"/><circle class="cls-1" cx="515" cy="155" r="5"/><circle class="cls-1" cx="505" cy="155" r="5"/><circle class="cls-1" cx="495" cy="155" r="5"/><circle class="cls-1" cx="485" cy="155" r="5"/><circle class="cls-1" cx="475" cy="85" r="5"/><circle class="cls-1" cx="465" cy="85" r="5"/><circle class="cls-1" cx="475" cy="95" r="5"/><circle class="cls-1" cx="475" cy="105" r="5"/><circle class="cls-1" cx="475" cy="75" r="5"/><circle class="cls-1" cx="545" cy="75" r="5"/><circle class="cls-1" cx="545" cy="115" r="5"/><circle class="cls-1" cx="545" cy="145" r="5"/><circle class="cls-1" cx="474.999" cy="144.999" r="5"/><circle class="cls-1" cx="465" cy="95" r="5"/><circle class="cls-1" cx="555" cy="125" r="5"/><circle class="cls-1" cx="545" cy="125" r="5"/><circle class="cls-1" cx="555" cy="135" r="5"/><circle class="cls-1" cx="545" cy="135" r="5"/><circle class="cls-1" cx="65" cy="485" r="5"/><circle class="cls-1" cx="55" cy="485" r="5"/><circle class="cls-1" cx="65" cy="495" r="5"/><circle class="cls-1" cx="55" cy="495" r="5"/><circle class="cls-1" cx="65" cy="505" r="5"/><circle class="cls-1" cx="55" cy="505" r="5"/><circle class="cls-1" cx="65" cy="515" r="5"/><circle class="cls-1" cx="55" cy="515" r="5"/><circle class="cls-1" cx="65" cy="525" r="5"/><circle class="cls-1" cx="55" cy="525" r="5"/><circle class="cls-1" cx="65" cy="535" r="5"/><circle class="cls-1" cx="55" cy="535" r="5"/><circle class="cls-1" cx="145" cy="525" r="5"/><circle class="cls-1" cx="135" cy="525" r="5"/><circle class="cls-1" cx="145" cy="535" r="5"/><circle class="cls-1" cx="135" cy="535" r="5"/><circle class="cls-1" cx="135" cy="545" r="5"/><circle class="cls-1" cx="65" cy="545" r="5"/><circle class="cls-1" cx="65" cy="475" r="5"/><circle class="cls-1" cx="135" cy="475" r="5"/><circle class="cls-1" cx="125" cy="485" r="5"/><circle class="cls-1" cx="75" cy="485" r="5"/><circle class="cls-1" cx="75" cy="535" r="5"/><circle class="cls-1" cx="125" cy="535" r="5"/><circle class="cls-1" cx="85" cy="465" r="5"/><circle class="cls-1" cx="75" cy="465" r="5"/><circle class="cls-1" cx="85" cy="475" r="5"/><circle class="cls-1" cx="75" cy="475" r="5"/><circle class="cls-1" cx="105" cy="465" r="5"/><circle class="cls-1" cx="95" cy="465" r="5"/><circle class="cls-1" cx="105" cy="475" r="5"/><circle class="cls-1" cx="95" cy="475" r="5"/><circle class="cls-1" cx="125" cy="465" r="5"/><circle class="cls-1" cx="115" cy="465" r="5"/><circle class="cls-1" cx="125" cy="475" r="5"/><circle class="cls-1" cx="115" cy="475" r="5"/><circle class="cls-1" cx="85" cy="545" r="5"/><circle class="cls-1" cx="75" cy="545" r="5"/><circle class="cls-1" cx="85" cy="555" r="5"/><circle class="cls-1" cx="75" cy="555" r="5"/><circle class="cls-1" cx="105" cy="545" r="5"/><circle class="cls-1" cx="95" cy="545" r="5"/><circle class="cls-1" cx="105" cy="555" r="5"/><circle class="cls-1" cx="95" cy="555" r="5"/><circle class="cls-1" cx="125" cy="545" r="5"/><circle class="cls-1" cx="115" cy="545" r="5"/><circle class="cls-1" cx="125" cy="555" r="5"/><circle class="cls-1" cx="115" cy="555" r="5"/><circle class="cls-1" cx="145" cy="485" r="5"/><circle class="cls-1" cx="135" cy="485" r="5"/><circle class="cls-1" cx="145" cy="495" r="5"/><circle class="cls-1" cx="135" cy="495" r="5"/><circle class="cls-1" cx="545" cy="545" r="5"/><circle class="cls-1" cx="535" cy="545" r="5"/><circle class="cls-1" cx="525" cy="545" r="5"/><circle class="cls-1" cx="515" cy="545" r="5"/><circle class="cls-1" cx="505" cy="545" r="5"/><circle class="cls-1" cx="495" cy="545" r="5"/><circle class="cls-1" cx="545" cy="555" r="5"/><circle class="cls-1" cx="535" cy="555" r="5"/><circle class="cls-1" cx="525" cy="555" r="5"/><circle class="cls-1" cx="515" cy="555" r="5"/><circle class="cls-1" cx="505" cy="555" r="5"/><circle class="cls-1" cx="495" cy="555" r="5"/><circle class="cls-1" cx="485" cy="465" r="5"/><circle class="cls-1" cx="485" cy="475" r="5"/><circle class="cls-1" cx="485" cy="485" r="5"/><circle class="cls-1" cx="485" cy="495" r="5"/><circle class="cls-1" cx="485" cy="505" r="5"/><circle class="cls-1" cx="485" cy="515" r="5"/><circle class="cls-1" cx="475" cy="465" r="5"/><circle class="cls-1" cx="475" cy="475" r="5"/><circle class="cls-1" cx="475" cy="485" r="5"/><circle class="cls-1" cx="475" cy="495" r="5"/><circle class="cls-1" cx="475" cy="505" r="5"/><circle class="cls-1" cx="475" cy="515" r="5"/><circle class="cls-1" cx="485" cy="525" r="5"/><circle class="cls-1" cx="485" cy="535" r="5"/><circle class="cls-1" cx="485" cy="545" r="5"/><circle class="cls-1" cx="485" cy="555" r="5"/><circle class="cls-1" cx="475" cy="525" r="5"/><circle class="cls-1" cx="475" cy="535" r="5"/><circle class="cls-1" cx="475" cy="545" r="5"/><circle class="cls-1" cx="475" cy="555" r="5"/><circle class="cls-1" cx="275" cy="485" r="5"/><circle class="cls-1" cx="275" cy="495" r="5"/><circle class="cls-1" cx="265" cy="495" r="5"/><circle class="cls-1" cx="285" cy="475" r="5"/><circle class="cls-1" cx="315" cy="475" r="5"/><circle class="cls-1" cx="335" cy="495" r="5"/><circle class="cls-1" cx="255" cy="505" r="5"/><circle class="cls-1" cx="255" cy="515" r="5"/><circle class="cls-1" cx="285" cy="485" r="5"/><circle class="cls-1" cx="285" cy="495" r="5"/><circle class="cls-1" cx="295" cy="475" r="5"/><circle class="cls-1" cx="305" cy="475" r="5"/><circle class="cls-1" cx="265" cy="505" r="5"/><circle class="cls-1" cx="265" cy="515" r="5"/><circle class="cls-1" cx="325" cy="485" r="5"/><circle class="cls-1" cx="325" cy="495" r="5"/><circle class="cls-1" cx="345" cy="505" r="5"/><circle class="cls-1" cx="345" cy="515" r="5"/><circle class="cls-1" cx="315" cy="485" r="5"/><circle class="cls-1" cx="315" cy="495" r="5"/><circle class="cls-1" cx="275" cy="505" r="5"/><circle class="cls-1" cx="295" cy="485" r="5"/><circle class="cls-1" cx="305" cy="485" r="5"/><circle class="cls-1" cx="325" cy="505" r="5"/><circle class="cls-1" cx="335" cy="505" r="5"/><circle class="cls-1" cx="335" cy="515" r="5"/><circle class="cls-1" cx="275" cy="485" r="5"/><circle class="cls-1" cx="275" cy="495" r="5"/><circle class="cls-1" cx="255" cy="505" r="5"/><circle class="cls-1" cx="255" cy="515" r="5"/><circle class="cls-1" cx="255" cy="525" r="5"/><circle class="cls-1" cx="255" cy="535" r="5"/><circle class="cls-1" cx="255" cy="545" r="5"/><circle class="cls-1" cx="255" cy="555" r="5"/><circle class="cls-1" cx="285" cy="485" r="5"/><circle class="cls-1" cx="285" cy="495" r="5"/><circle class="cls-1" cx="295" cy="465" r="5"/><circle class="cls-1" cx="295" cy="475" r="5"/><circle class="cls-1" cx="305" cy="465" r="5"/><circle class="cls-1" cx="305" cy="475" r="5"/><circle class="cls-1" cx="265" cy="505" r="5"/><circle class="cls-1" cx="265" cy="515" r="5"/><circle class="cls-1" cx="265" cy="525" r="5"/><circle class="cls-1" cx="265" cy="535" r="5"/><circle class="cls-1" cx="265" cy="545" r="5"/><circle class="cls-1" cx="265" cy="555" r="5"/><circle class="cls-1" cx="325" cy="525" r="5"/><circle class="cls-1" cx="315" cy="525" r="5"/><circle class="cls-1" cx="305" cy="525" r="5"/><circle class="cls-1" cx="295" cy="525" r="5"/><circle class="cls-1" cx="285" cy="525" r="5"/><circle class="cls-1" cx="275" cy="525" r="5"/><circle class="cls-1" cx="325" cy="535" r="5"/><circle class="cls-1" cx="315" cy="535" r="5"/><circle class="cls-1" cx="305" cy="535" r="5"/><circle class="cls-1" cx="295" cy="535" r="5"/><circle class="cls-1" cx="285" cy="535" r="5"/><circle class="cls-1" cx="275" cy="535" r="5"/><circle class="cls-1" cx="325" cy="485" r="5"/><circle class="cls-1" cx="325" cy="495" r="5"/><circle class="cls-1" cx="345" cy="505" r="5"/><circle class="cls-1" cx="345" cy="515" r="5"/><circle class="cls-1" cx="345" cy="525" r="5"/><circle class="cls-1" cx="345" cy="535" r="5"/><circle class="cls-1" cx="345" cy="545" r="5"/><circle class="cls-1" cx="345" cy="555" r="5"/><circle class="cls-1" cx="315" cy="485" r="5"/><circle class="cls-1" cx="315" cy="495" r="5"/><circle class="cls-1" cx="335" cy="505" r="5"/><circle class="cls-1" cx="335" cy="515" r="5"/><circle class="cls-1" cx="335" cy="525" r="5"/><circle class="cls-1" cx="335" cy="535" r="5"/><circle class="cls-1" cx="335" cy="545" r="5"/><circle class="cls-1" cx="335" cy="555" r="5"/><circle class="cls-1" cx="95" cy="305" r="5"/><circle class="cls-1" cx="95" cy="315" r="5"/><circle class="cls-1" cx="105" cy="305" r="5"/><circle class="cls-1" cx="105" cy="315" r="5"/><circle class="cls-1" cx="95" cy="325" r="5"/><circle class="cls-1" cx="105" cy="325" r="5"/><circle class="cls-1" cx="95" cy="295" r="5"/><circle class="cls-1" cx="105" cy="295" r="5"/><circle class="cls-1" cx="115" cy="305" r="5"/><circle class="cls-1" cx="115" cy="315" r="5"/><circle class="cls-1" cx="85" cy="305" r="5"/><circle class="cls-1" cx="85" cy="315" r="5"/><circle class="cls-1" cx="505" cy="305" r="5"/><circle class="cls-1" cx="505" cy="315" r="5"/><circle class="cls-1" cx="515" cy="305" r="5"/><circle class="cls-1" cx="515" cy="315" r="5"/><circle class="cls-1" cx="505" cy="325" r="5"/><circle class="cls-1" cx="515" cy="325" r="5"/><circle class="cls-1" cx="505" cy="295" r="5"/><circle class="cls-1" cx="515" cy="295" r="5"/><circle class="cls-1" cx="525" cy="305" r="5"/><circle class="cls-1" cx="525" cy="315" r="5"/><circle class="cls-1" cx="495" cy="305" r="5"/><circle class="cls-1" cx="495" cy="315" r="5"/><circle class="cls-1" cx="295" cy="325" r="5"/><circle class="cls-1" cx="305" cy="325" r="5"/><circle class="cls-1" cx="295" cy="295" r="5"/><circle class="cls-1" cx="305" cy="295" r="5"/><circle class="cls-1" cx="315" cy="305" r="5"/><circle class="cls-1" cx="315" cy="315" r="5"/><circle class="cls-1" cx="285" cy="305" r="5"/><circle class="cls-1" cx="285" cy="315" r="5"/><circle class="cls-2" cx="615" cy="465" r="5"/><circle class="cls-2" cx="615" cy="475" r="5"/><circle class="cls-2" cx="615" cy="485" r="5"/><circle class="cls-2" cx="615" cy="495" r="5"/><circle class="cls-2" cx="615" cy="505" r="5"/><circle class="cls-2" cx="615" cy="515" r="5"/><circle class="cls-2" cx="615" cy="525" r="5"/><circle class="cls-2" cx="615" cy="535" r="5"/><circle class="cls-2" cx="615" cy="545" r="5"/><circle class="cls-2" cx="615" cy="555" r="5"/><circle class="cls-2" cx="615" cy="365" r="5"/><circle class="cls-2" cx="615" cy="375" r="5"/><circle class="cls-2" cx="615" cy="385" r="5"/><circle class="cls-2" cx="615" cy="395" r="5"/><circle class="cls-2" cx="615" cy="405" r="5"/><circle class="cls-2" cx="615" cy="415" r="5"/><circle class="cls-2" cx="615" cy="425" r="5"/><circle class="cls-2" cx="615" cy="435" r="5"/><circle class="cls-2" cx="615" cy="445" r="5"/><circle class="cls-2" cx="615" cy="455" r="5"/><circle class="cls-2" cx="615" cy="265" r="5"/><circle class="cls-2" cx="615" cy="275" r="5"/><circle class="cls-2" cx="615" cy="285" r="5"/><circle class="cls-2" cx="615" cy="295" r="5"/><circle class="cls-2" cx="615" cy="305" r="5"/><circle class="cls-2" cx="615" cy="315" r="5"/><circle class="cls-2" cx="615" cy="325" r="5"/><circle class="cls-2" cx="615" cy="335" r="5"/><circle class="cls-2" cx="615" cy="345" r="5"/><circle class="cls-2" cx="615" cy="355" r="5"/><circle class="cls-2" cx="615" cy="175" r="5"/><circle class="cls-2" cx="615" cy="185" r="5"/><circle class="cls-2" cx="615" cy="195" r="5"/><circle class="cls-2" cx="615" cy="205" r="5"/><circle class="cls-2" cx="615" cy="215" r="5"/><circle class="cls-2" cx="615" cy="225" r="5"/><circle class="cls-2" cx="615" cy="235" r="5"/><circle class="cls-2" cx="615" cy="245" r="5"/><circle class="cls-2" cx="615" cy="255" r="5"/><circle class="cls-2" cx="615" cy="265" r="5"/><circle class="cls-2" cx="615" cy="75" r="5"/><circle class="cls-2" cx="615" cy="85" r="5"/><circle class="cls-2" cx="615" cy="95" r="5"/><circle class="cls-2" cx="615" cy="105" r="5"/><circle class="cls-2" cx="615" cy="115" r="5"/><circle class="cls-2" cx="615" cy="125" r="5"/><circle class="cls-2" cx="615" cy="135" r="5"/><circle class="cls-2" cx="615" cy="145" r="5"/><circle class="cls-2" cx="615" cy="155" r="5"/><circle class="cls-2" cx="615" cy="165" r="5"/><circle class="cls-2" cx="615" cy="565" r="5"/><circle class="cls-2" cx="615" cy="575" r="5"/><circle class="cls-2" cx="615" cy="585" r="5"/><circle class="cls-2" cx="615" cy="595" r="5"/><circle class="cls-2" cx="615" cy="605" r="5"/><circle class="cls-2" cx="615" cy="615" r="5"/><circle class="cls-2" cx="615" cy="15" r="5"/><circle class="cls-2" cx="615" cy="25" r="5"/><circle class="cls-2" cx="615" cy="35" r="5"/><circle class="cls-2" cx="615" cy="5" r="5"/><circle class="cls-2" cx="615" cy="45" r="5"/><circle class="cls-2" cx="615" cy="55" r="5"/><circle class="cls-2" cx="615" cy="65" r="5"/><circle class="cls-2" cx="5" cy="465" r="5"/><circle class="cls-2" cx="5" cy="475" r="5"/><circle class="cls-2" cx="5" cy="485" r="5"/><circle class="cls-2" cx="5" cy="495" r="5"/><circle class="cls-2" cx="5" cy="505" r="5"/><circle class="cls-2" cx="5" cy="515" r="5"/><circle class="cls-2" cx="5" cy="525" r="5"/><circle class="cls-2" cx="5" cy="535" r="5"/><circle class="cls-2" cx="5" cy="545" r="5"/><circle class="cls-2" cx="5" cy="555" r="5"/><circle class="cls-2" cx="5" cy="365" r="5"/><circle class="cls-2" cx="5" cy="375" r="5"/><circle class="cls-2" cx="5" cy="385" r="5"/><circle class="cls-2" cx="5" cy="395" r="5"/><circle class="cls-2" cx="5" cy="405" r="5"/><circle class="cls-2" cx="5" cy="415" r="5"/><circle class="cls-2" cx="5" cy="425" r="5"/><circle class="cls-2" cx="5" cy="435" r="5"/><circle class="cls-2" cx="5" cy="445" r="5"/><circle class="cls-2" cx="5" cy="455" r="5"/><circle class="cls-2" cx="5" cy="265" r="5"/><circle class="cls-2" cx="5" cy="275" r="5"/><circle class="cls-2" cx="5" cy="285" r="5"/><circle class="cls-2" cx="5" cy="295" r="5"/><circle class="cls-2" cx="5" cy="305" r="5"/><circle class="cls-2" cx="5" cy="315" r="5"/><circle class="cls-2" cx="5" cy="325" r="5"/><circle class="cls-2" cx="5" cy="335" r="5"/><circle class="cls-2" cx="5" cy="345" r="5"/><circle class="cls-2" cx="5" cy="355" r="5"/><circle class="cls-2" cx="5" cy="175" r="5"/><circle class="cls-2" cx="5" cy="185" r="5"/><circle class="cls-2" cx="5" cy="195" r="5"/><circle class="cls-2" cx="5" cy="205" r="5"/><circle class="cls-2" cx="5" cy="215" r="5"/><circle class="cls-2" cx="5" cy="225" r="5"/><circle class="cls-2" cx="5" cy="235" r="5"/><circle class="cls-2" cx="5" cy="245" r="5"/><circle class="cls-2" cx="5" cy="255" r="5"/><circle class="cls-2" cx="5" cy="265" r="5"/><circle class="cls-2" cx="5" cy="75" r="5"/><circle class="cls-2" cx="5" cy="85" r="5"/><circle class="cls-2" cx="5" cy="95" r="5"/><circle class="cls-2" cx="5" cy="105" r="5"/><circle class="cls-2" cx="5" cy="115" r="5"/><circle class="cls-2" cx="5" cy="125" r="5"/><circle class="cls-2" cx="5" cy="135" r="5"/><circle class="cls-2" cx="5" cy="145" r="5"/><circle class="cls-2" cx="5" cy="155" r="5"/><circle class="cls-2" cx="5" cy="165" r="5"/><circle class="cls-2" cx="5" cy="565" r="5"/><circle class="cls-2" cx="5" cy="575" r="5"/><circle class="cls-2" cx="5" cy="585" r="5"/><circle class="cls-2" cx="5" cy="595" r="5"/><circle class="cls-2" cx="5" cy="605" r="5"/><circle class="cls-2" cx="5" cy="15" r="5"/><circle class="cls-2" cx="5" cy="25" r="5"/><circle class="cls-2" cx="5" cy="35" r="5"/><circle class="cls-2" cx="5" cy="45" r="5"/><circle class="cls-2" cx="5" cy="55" r="5"/><circle class="cls-2" cx="5" cy="65" r="5"/><circle class="cls-2" cx="135" cy="615" r="5"/><circle class="cls-2" cx="125" cy="615" r="5"/><circle class="cls-2" cx="115" cy="615" r="5"/><circle class="cls-2" cx="105" cy="615" r="5"/><circle class="cls-2" cx="95" cy="615" r="5"/><circle class="cls-2" cx="85" cy="615" r="5"/><circle class="cls-2" cx="75" cy="615" r="5"/><circle class="cls-2" cx="65" cy="615" r="5"/><circle class="cls-2" cx="55" cy="615" r="5"/><circle class="cls-2" cx="45" cy="615" r="5"/><circle class="cls-2" cx="235" cy="615" r="5"/><circle class="cls-2" cx="225" cy="615" r="5"/><circle class="cls-2" cx="215" cy="615" r="5"/><circle class="cls-2" cx="205" cy="615" r="5"/><circle class="cls-2" cx="195" cy="615" r="5"/><circle class="cls-2" cx="185" cy="615" r="5"/><circle class="cls-2" cx="175" cy="615" r="5"/><circle class="cls-2" cx="165" cy="615" r="5"/><circle class="cls-2" cx="155" cy="615" r="5"/><circle class="cls-2" cx="145" cy="615" r="5"/><circle class="cls-2" cx="335" cy="615" r="5"/><circle class="cls-2" cx="325" cy="615" r="5"/><circle class="cls-2" cx="315" cy="615" r="5"/><circle class="cls-2" cx="305" cy="615" r="5"/><circle class="cls-2" cx="295" cy="615" r="5"/><circle class="cls-2" cx="285" cy="615" r="5"/><circle class="cls-2" cx="275" cy="615" r="5"/><circle class="cls-2" cx="265" cy="615" r="5"/><circle class="cls-2" cx="255" cy="615" r="5"/><circle class="cls-2" cx="245" cy="615" r="5"/><circle class="cls-2" cx="425" cy="615" r="5"/><circle class="cls-2" cx="415" cy="615" r="5"/><circle class="cls-2" cx="405" cy="615" r="5"/><circle class="cls-2" cx="395" cy="615" r="5"/><circle class="cls-2" cx="385" cy="615" r="5"/><circle class="cls-2" cx="375" cy="615" r="5"/><circle class="cls-2" cx="365" cy="615" r="5"/><circle class="cls-2" cx="355" cy="615" r="5"/><circle class="cls-2" cx="345" cy="615" r="5"/><circle class="cls-2" cx="335" cy="615" r="5"/><circle class="cls-2" cx="525" cy="615" r="5"/><circle class="cls-2" cx="515" cy="615" r="5"/><circle class="cls-2" cx="505" cy="615" r="5"/><circle class="cls-2" cx="495" cy="615" r="5"/><circle class="cls-2" cx="485" cy="615" r="5"/><circle class="cls-2" cx="475" cy="615" r="5"/><circle class="cls-2" cx="465" cy="615" r="5"/><circle class="cls-2" cx="455" cy="615" r="5"/><circle class="cls-2" cx="445" cy="615" r="5"/><circle class="cls-2" cx="435" cy="615" r="5"/><circle class="cls-2" cx="35" cy="615" r="5"/><circle class="cls-2" cx="25" cy="615" r="5"/><circle class="cls-2" cx="15" cy="615" r="5"/><circle class="cls-2" cx="5" cy="615" r="5"/><circle class="cls-2" cx="585" cy="615" r="5"/><circle class="cls-2" cx="595" cy="615" r="5"/><circle class="cls-2" cx="605" cy="615" r="5"/><circle class="cls-2" cx="575" cy="615" r="5"/><circle class="cls-2" cx="565" cy="615" r="5"/><circle class="cls-2" cx="555" cy="615" r="5"/><circle class="cls-2" cx="545" cy="615" r="5"/><circle class="cls-2" cx="535" cy="615" r="5"/><circle class="cls-2" cx="135" cy="405" r="5"/><circle class="cls-2" cx="125" cy="405" r="5"/><circle class="cls-2" cx="115" cy="405" r="5"/><circle class="cls-2" cx="105" cy="405" r="5"/><circle class="cls-2" cx="95" cy="405" r="5"/><circle class="cls-2" cx="85" cy="405" r="5"/><circle class="cls-2" cx="75" cy="405" r="5"/><circle class="cls-2" cx="65" cy="405" r="5"/><circle class="cls-2" cx="55" cy="405" r="5"/><circle class="cls-2" cx="45" cy="405" r="5"/><circle class="cls-2" cx="235" cy="405" r="5"/><circle class="cls-2" cx="225" cy="405" r="5"/><circle class="cls-2" cx="215" cy="405" r="5"/><circle class="cls-2" cx="205" cy="405" r="5"/><circle class="cls-2" cx="195" cy="405" r="5"/><circle class="cls-2" cx="185" cy="405" r="5"/><circle class="cls-2" cx="175" cy="405" r="5"/><circle class="cls-2" cx="165" cy="405" r="5"/><circle class="cls-2" cx="155" cy="405" r="5"/><circle class="cls-2" cx="145" cy="405" r="5"/><circle class="cls-2" cx="335" cy="405" r="5"/><circle class="cls-2" cx="325" cy="405" r="5"/><circle class="cls-2" cx="315" cy="405" r="5"/><circle class="cls-2" cx="305" cy="405" r="5"/><circle class="cls-2" cx="295" cy="405" r="5"/><circle class="cls-2" cx="285" cy="405" r="5"/><circle class="cls-2" cx="275" cy="405" r="5"/><circle class="cls-2" cx="265" cy="405" r="5"/><circle class="cls-2" cx="255" cy="405" r="5"/><circle class="cls-2" cx="245" cy="405" r="5"/><circle class="cls-2" cx="425" cy="405" r="5"/><circle class="cls-2" cx="415" cy="405" r="5"/><circle class="cls-2" cx="405" cy="405" r="5"/><circle class="cls-2" cx="395" cy="405" r="5"/><circle class="cls-2" cx="385" cy="405" r="5"/><circle class="cls-2" cx="375" cy="405" r="5"/><circle class="cls-2" cx="365" cy="405" r="5"/><circle class="cls-2" cx="355" cy="405" r="5"/><circle class="cls-2" cx="345" cy="405" r="5"/><circle class="cls-2" cx="335" cy="405" r="5"/><circle class="cls-2" cx="525" cy="405" r="5"/><circle class="cls-2" cx="515" cy="405" r="5"/><circle class="cls-2" cx="505" cy="405" r="5"/><circle class="cls-2" cx="495" cy="405" r="5"/><circle class="cls-2" cx="485" cy="405" r="5"/><circle class="cls-2" cx="475" cy="405" r="5"/><circle class="cls-2" cx="465" cy="405" r="5"/><circle class="cls-2" cx="455" cy="405" r="5"/><circle class="cls-2" cx="445" cy="405" r="5"/><circle class="cls-2" cx="435" cy="405" r="5"/><circle class="cls-2" cx="35" cy="405" r="5"/><circle class="cls-2" cx="25" cy="405" r="5"/><circle class="cls-2" cx="15" cy="405" r="5"/><circle class="cls-2" cx="5" cy="405" r="5"/><circle class="cls-2" cx="585" cy="405" r="5"/><circle class="cls-2" cx="595" cy="405" r="5"/><circle class="cls-2" cx="605" cy="405" r="5"/><circle class="cls-2" cx="575" cy="405" r="5"/><circle class="cls-2" cx="565" cy="405" r="5"/><circle class="cls-2" cx="555" cy="405" r="5"/><circle class="cls-2" cx="545" cy="405" r="5"/><circle class="cls-2" cx="535" cy="405" r="5"/><circle class="cls-2" cx="135" cy="215" r="5"/><circle class="cls-2" cx="125" cy="215" r="5"/><circle class="cls-2" cx="115" cy="215" r="5"/><circle class="cls-2" cx="105" cy="215" r="5"/><circle class="cls-2" cx="95" cy="215" r="5"/><circle class="cls-2" cx="85" cy="215" r="5"/><circle class="cls-2" cx="75" cy="215" r="5"/><circle class="cls-2" cx="65" cy="215" r="5"/><circle class="cls-2" cx="55" cy="215" r="5"/><circle class="cls-2" cx="45" cy="215" r="5"/><circle class="cls-2" cx="235" cy="215" r="5"/><circle class="cls-2" cx="225" cy="215" r="5"/><circle class="cls-2" cx="215" cy="215" r="5"/><circle class="cls-2" cx="205" cy="215" r="5"/><circle class="cls-2" cx="195" cy="215" r="5"/><circle class="cls-2" cx="185" cy="215" r="5"/><circle class="cls-2" cx="175" cy="215" r="5"/><circle class="cls-2" cx="165" cy="215" r="5"/><circle class="cls-2" cx="155" cy="215" r="5"/><circle class="cls-2" cx="145" cy="215" r="5"/><circle class="cls-2" cx="335" cy="215" r="5"/><circle class="cls-2" cx="325" cy="215" r="5"/><circle class="cls-2" cx="315" cy="215" r="5"/><circle class="cls-2" cx="305" cy="215" r="5"/><circle class="cls-2" cx="295" cy="215" r="5"/><circle class="cls-2" cx="285" cy="215" r="5"/><circle class="cls-2" cx="275" cy="215" r="5"/><circle class="cls-2" cx="265" cy="215" r="5"/><circle class="cls-2" cx="255" cy="215" r="5"/><circle class="cls-2" cx="245" cy="215" r="5"/><circle class="cls-2" cx="425" cy="215" r="5"/><circle class="cls-2" cx="415" cy="215" r="5"/><circle class="cls-2" cx="405" cy="215" r="5"/><circle class="cls-2" cx="395" cy="215" r="5"/><circle class="cls-2" cx="385" cy="215" r="5"/><circle class="cls-2" cx="375" cy="215" r="5"/><circle class="cls-2" cx="365" cy="215" r="5"/><circle class="cls-2" cx="355" cy="215" r="5"/><circle class="cls-2" cx="345" cy="215" r="5"/><circle class="cls-2" cx="335" cy="215" r="5"/><circle class="cls-2" cx="525" cy="215" r="5"/><circle class="cls-2" cx="515" cy="215" r="5"/><circle class="cls-2" cx="505" cy="215" r="5"/><circle class="cls-2" cx="495" cy="215" r="5"/><circle class="cls-2" cx="485" cy="215" r="5"/><circle class="cls-2" cx="475" cy="215" r="5"/><circle class="cls-2" cx="465" cy="215" r="5"/><circle class="cls-2" cx="455" cy="215" r="5"/><circle class="cls-2" cx="445" cy="215" r="5"/><circle class="cls-2" cx="435" cy="215" r="5"/><circle class="cls-2" cx="35" cy="215" r="5"/><circle class="cls-2" cx="25" cy="215" r="5"/><circle class="cls-2" cx="15" cy="215" r="5"/><circle class="cls-2" cx="5" cy="215" r="5"/><circle class="cls-2" cx="585" cy="215" r="5"/><circle class="cls-2" cx="595" cy="215" r="5"/><circle class="cls-2" cx="605" cy="215" r="5"/><circle class="cls-2" cx="575" cy="215" r="5"/><circle class="cls-2" cx="565" cy="215" r="5"/><circle class="cls-2" cx="555" cy="215" r="5"/><circle class="cls-2" cx="545" cy="215" r="5"/><circle class="cls-2" cx="535" cy="215" r="5"/><circle class="cls-2" cx="195" cy="145" r="5"/><circle class="cls-2" cx="195" cy="135" r="5"/><circle class="cls-2" cx="195" cy="125" r="5"/><circle class="cls-2" cx="195" cy="115" r="5"/><circle class="cls-2" cx="195" cy="105" r="5"/><circle class="cls-2" cx="195" cy="95" r="5"/><circle class="cls-2" cx="195" cy="85" r="5"/><circle class="cls-2" cx="195" cy="75" r="5"/><circle class="cls-2" cx="195" cy="65" r="5"/><circle class="cls-2" cx="195" cy="55" r="5"/><circle class="cls-2" cx="195" cy="245" r="5"/><circle class="cls-2" cx="195" cy="235" r="5"/><circle class="cls-2" cx="195" cy="225" r="5"/><circle class="cls-2" cx="195" cy="215" r="5"/><circle class="cls-2" cx="195" cy="205" r="5"/><circle class="cls-2" cx="195" cy="195" r="5"/><circle class="cls-2" cx="195" cy="185" r="5"/><circle class="cls-2" cx="195" cy="175" r="5"/><circle class="cls-2" cx="195" cy="165" r="5"/><circle class="cls-2" cx="195" cy="155" r="5"/><circle class="cls-2" cx="195" cy="345" r="5"/><circle class="cls-2" cx="195" cy="335" r="5"/><circle class="cls-2" cx="195" cy="325" r="5"/><circle class="cls-2" cx="195" cy="315" r="5"/><circle class="cls-2" cx="195" cy="305" r="5"/><circle class="cls-2" cx="195" cy="295" r="5"/><circle class="cls-2" cx="195" cy="285" r="5"/><circle class="cls-2" cx="195" cy="275" r="5"/><circle class="cls-2" cx="195" cy="265" r="5"/><circle class="cls-2" cx="195" cy="255" r="5"/><circle class="cls-2" cx="195" cy="435" r="5"/><circle class="cls-2" cx="195" cy="425" r="5"/><circle class="cls-2" cx="195" cy="415" r="5"/><circle class="cls-2" cx="195" cy="405" r="5"/><circle class="cls-2" cx="195" cy="395" r="5"/><circle class="cls-2" cx="195" cy="385" r="5"/><circle class="cls-2" cx="195" cy="375" r="5"/><circle class="cls-2" cx="195" cy="365" r="5"/><circle class="cls-2" cx="195" cy="355" r="5"/><circle class="cls-2" cx="195" cy="345" r="5"/><circle class="cls-2" cx="195" cy="535" r="5"/><circle class="cls-2" cx="195" cy="525" r="5"/><circle class="cls-2" cx="195" cy="515" r="5"/><circle class="cls-2" cx="195" cy="505" r="5"/><circle class="cls-2" cx="195" cy="495" r="5"/><circle class="cls-2" cx="195" cy="485" r="5"/><circle class="cls-2" cx="195" cy="475" r="5"/><circle class="cls-2" cx="195" cy="465" r="5"/><circle class="cls-2" cx="195" cy="455" r="5"/><circle class="cls-2" cx="195" cy="445" r="5"/><circle class="cls-2" cx="195" cy="45" r="5"/><circle class="cls-2" cx="195" cy="35" r="5"/><circle class="cls-2" cx="195" cy="25" r="5"/><circle class="cls-2" cx="195" cy="15" r="5"/><circle class="cls-2" cx="195" cy="595" r="5"/><circle class="cls-2" cx="195" cy="605" r="5"/><circle class="cls-2" cx="195" cy="615" r="5"/><circle class="cls-2" cx="195" cy="585" r="5"/><circle class="cls-2" cx="195" cy="575" r="5"/><circle class="cls-2" cx="195" cy="565" r="5"/><circle class="cls-2" cx="195" cy="555" r="5"/><circle class="cls-2" cx="195" cy="545" r="5"/><circle class="cls-2" cx="405" cy="145" r="5"/><circle class="cls-2" cx="405" cy="135" r="5"/><circle class="cls-2" cx="405" cy="125" r="5"/><circle class="cls-2" cx="405" cy="115" r="5"/><circle class="cls-2" cx="405" cy="105" r="5"/><circle class="cls-2" cx="405" cy="95" r="5"/><circle class="cls-2" cx="405" cy="85" r="5"/><circle class="cls-2" cx="405" cy="75" r="5"/><circle class="cls-2" cx="405" cy="65" r="5"/><circle class="cls-2" cx="405" cy="55" r="5"/><circle class="cls-2" cx="405" cy="245" r="5"/><circle class="cls-2" cx="405" cy="235" r="5"/><circle class="cls-2" cx="405" cy="225" r="5"/><circle class="cls-2" cx="405" cy="215" r="5"/><circle class="cls-2" cx="405" cy="205" r="5"/><circle class="cls-2" cx="405" cy="195" r="5"/><circle class="cls-2" cx="405" cy="185" r="5"/><circle class="cls-2" cx="405" cy="175" r="5"/><circle class="cls-2" cx="405" cy="165" r="5"/><circle class="cls-2" cx="405" cy="155" r="5"/><circle class="cls-2" cx="405" cy="345" r="5"/><circle class="cls-2" cx="405" cy="335" r="5"/><circle class="cls-2" cx="405" cy="325" r="5"/><circle class="cls-2" cx="405" cy="315" r="5"/><circle class="cls-2" cx="405" cy="305" r="5"/><circle class="cls-2" cx="405" cy="295" r="5"/><circle class="cls-2" cx="405" cy="285" r="5"/><circle class="cls-2" cx="405" cy="275" r="5"/><circle class="cls-2" cx="405" cy="265" r="5"/><circle class="cls-2" cx="405" cy="255" r="5"/><circle class="cls-2" cx="405" cy="435" r="5"/><circle class="cls-2" cx="405" cy="425" r="5"/><circle class="cls-2" cx="405" cy="415" r="5"/><circle class="cls-2" cx="405" cy="405" r="5"/><circle class="cls-2" cx="405" cy="395" r="5"/><circle class="cls-2" cx="405" cy="385" r="5"/><circle class="cls-2" cx="405" cy="375" r="5"/><circle class="cls-2" cx="405" cy="365" r="5"/><circle class="cls-2" cx="405" cy="355" r="5"/><circle class="cls-2" cx="405" cy="345" r="5"/><circle class="cls-2" cx="405" cy="535" r="5"/><circle class="cls-2" cx="405" cy="525" r="5"/><circle class="cls-2" cx="405" cy="515" r="5"/><circle class="cls-2" cx="405" cy="505" r="5"/><circle class="cls-2" cx="405" cy="495" r="5"/><circle class="cls-2" cx="405" cy="485" r="5"/><circle class="cls-2" cx="405" cy="475" r="5"/><circle class="cls-2" cx="405" cy="465" r="5"/><circle class="cls-2" cx="405" cy="455" r="5"/><circle class="cls-2" cx="405" cy="445" r="5"/><circle class="cls-2" cx="405" cy="45" r="5"/><circle class="cls-2" cx="405" cy="35" r="5"/><circle class="cls-2" cx="405" cy="25" r="5"/><circle class="cls-2" cx="405" cy="15" r="5"/><circle class="cls-2" cx="405" cy="595" r="5"/><circle class="cls-2" cx="405" cy="605" r="5"/><circle class="cls-2" cx="405" cy="615" r="5"/><circle class="cls-2" cx="405" cy="585" r="5"/><circle class="cls-2" cx="405" cy="575" r="5"/><circle class="cls-2" cx="405" cy="565" r="5"/><circle class="cls-2" cx="405" cy="555" r="5"/><circle class="cls-2" cx="405" cy="545" r="5"/><circle class="cls-2" cx="135" cy="5" r="5"/><circle class="cls-2" cx="125" cy="5" r="5"/><circle class="cls-2" cx="115" cy="5" r="5"/><circle class="cls-2" cx="105" cy="5" r="5"/><circle class="cls-2" cx="95" cy="5" r="5"/><circle class="cls-2" cx="85" cy="5" r="5"/><circle class="cls-2" cx="75" cy="5" r="5"/><circle class="cls-2" cx="65" cy="5" r="5"/><circle class="cls-2" cx="55" cy="5" r="5"/><circle class="cls-2" cx="45" cy="5" r="5"/><circle class="cls-2" cx="235" cy="5" r="5"/><circle class="cls-2" cx="225" cy="5" r="5"/><circle class="cls-2" cx="215" cy="5" r="5"/><circle class="cls-2" cx="205" cy="5" r="5"/><circle class="cls-2" cx="195" cy="5" r="5"/><circle class="cls-2" cx="185" cy="5" r="5"/><circle class="cls-2" cx="175" cy="5" r="5"/><circle class="cls-2" cx="165" cy="5" r="5"/><circle class="cls-2" cx="155" cy="5" r="5"/><circle class="cls-2" cx="145" cy="5" r="5"/><circle class="cls-2" cx="335" cy="5" r="5"/><circle class="cls-2" cx="325" cy="5" r="5"/><circle class="cls-2" cx="315" cy="5" r="5"/><circle class="cls-2" cx="305" cy="5" r="5"/><circle class="cls-2" cx="295" cy="5" r="5"/><circle class="cls-2" cx="285" cy="5" r="5"/><circle class="cls-2" cx="275" cy="5" r="5"/><circle class="cls-2" cx="265" cy="5" r="5"/><circle class="cls-2" cx="255" cy="5" r="5"/><circle class="cls-2" cx="245" cy="5" r="5"/><circle class="cls-2" cx="425" cy="5" r="5"/><circle class="cls-2" cx="415" cy="5" r="5"/><circle class="cls-2" cx="405" cy="5" r="5"/><circle class="cls-2" cx="395" cy="5" r="5"/><circle class="cls-2" cx="385" cy="5" r="5"/><circle class="cls-2" cx="375" cy="5" r="5"/><circle class="cls-2" cx="365" cy="5" r="5"/><circle class="cls-2" cx="355" cy="5" r="5"/><circle class="cls-2" cx="345" cy="5" r="5"/><circle class="cls-2" cx="335" cy="5" r="5"/><circle class="cls-2" cx="525" cy="5" r="5"/><circle class="cls-2" cx="515" cy="5" r="5"/><circle class="cls-2" cx="505" cy="5" r="5"/><circle class="cls-2" cx="495" cy="5" r="5"/><circle class="cls-2" cx="485" cy="5" r="5"/><circle class="cls-2" cx="475" cy="5" r="5"/><circle class="cls-2" cx="465" cy="5" r="5"/><circle class="cls-2" cx="455" cy="5" r="5"/><circle class="cls-2" cx="445" cy="5" r="5"/><circle class="cls-2" cx="435" cy="5" r="5"/><circle class="cls-2" cx="35" cy="5" r="5"/><circle class="cls-2" cx="25" cy="5" r="5"/><circle class="cls-2" cx="15" cy="5" r="5"/><circle class="cls-2" cx="5" cy="5" r="5"/><circle class="cls-2" cx="585" cy="5" r="5"/><circle class="cls-2" cx="575" cy="5" r="5"/><circle class="cls-2" cx="565" cy="5" r="5"/><circle class="cls-2" cx="555" cy="5" r="5"/><circle class="cls-2" cx="595" cy="5" r="5"/><circle class="cls-2" cx="605" cy="5" r="5"/><circle class="cls-2" cx="545" cy="5" r="5"/><circle class="cls-2" cx="535" cy="5" r="5"/></svg>