<svg id="Main" xmlns="http://www.w3.org/2000/svg" viewBox="0 0 519.49 294.412"><defs><style>.cls-1,.cls-2{fill:#366ce1;}.cls-1,.cls-3{stroke:#e1e0e0;stroke-miterlimit:10;}.cls-1{stroke-width:18.035px;}.cls-3{fill:#121221;stroke-width:2.632px;}</style></defs><title>php</title><ellipse class="cls-1" cx="260.673" cy="147.206" rx="240.883" ry="138.188"/><ellipse class="cls-2" cx="259.745" cy="146.947" rx="259.745" ry="99.926"/><path class="cls-3" d="M432.938,461.878l-30.883.008H373.409a2.63,2.63,0,0,0-2.595,2.2L351.137,584.236a1,1,0,0,0,.991,1.167h28.317a1.625,1.625,0,0,0,1.6-1.362l7.506-45.823h39.435a26.2,26.2,0,0,0,25.852-21.937l3.949-23.936a26.2,26.2,0,0,0-25.852-30.467Zm-7.214,44.029-.384,2.342a18.022,18.022,0,0,1-17.785,15.109H395.081a2.629,2.629,0,0,1-2.6-3.054l6.826-41.69a2.629,2.629,0,0,1,2.595-2.2h7.434a18.023,18.023,0,0,1,17.786,20.936Z" transform="translate(-240.255 -353.053)"/><path class="cls-3" d="M622.669,461.882l-30.88.007H563.144a2.63,2.63,0,0,0-2.6,2.2L540.871,584.24a1,1,0,0,0,.991,1.167h28.317a1.624,1.624,0,0,0,1.6-1.362l7.507-45.824h39.43a26.2,26.2,0,0,0,25.853-21.936l3.949-23.936a26.2,26.2,0,0,0-25.852-30.467Zm-5.962,36.387-1.636,9.984a18.023,18.023,0,0,1-17.785,15.109H584.812a2.63,2.63,0,0,1-2.6-3.055l6.829-41.69a2.63,2.63,0,0,1,2.595-2.2h7.431a18.023,18.023,0,0,1,17.785,20.939Z" transform="translate(-240.255 -353.053)"/><path class="cls-3" d="M553,495.643l-6.732,41.1a1.626,1.626,0,0,1-1.6,1.362H516.347a1,1,0,0,1-.991-1.168l6.5-39.369a18.023,18.023,0,0,0-17.781-20.959h-7.3a2.63,2.63,0,0,0-2.6,2.2l-9.489,57.932a1.624,1.624,0,0,1-1.6,1.363H454.766a1,1,0,0,1-.991-1.167l19.816-120.989a1.625,1.625,0,0,1,1.6-1.362h28.316a1,1,0,0,1,.991,1.167l-7.534,46.011,27.252,0A29.16,29.16,0,0,1,553,495.643Z" transform="translate(-240.255 -353.053)"/></svg>