<svg xmlns="http://www.w3.org/2000/svg" viewBox="0 0 890 260"><defs><style>.cls-1{fill:#121221;}.cls-2{fill:#366ce1;}</style></defs><title>restream</title><g id="Слой_2" data-name="Слой 2"><g id="Complete"><g id="restream"><path class="cls-1" d="M510,80a19.994,19.994,0,0,1-20,20V90a10,10,0,1,0-10-10,50,50,0,1,1-50-50,10,10,0,1,0-10-10H410a19.993,19.993,0,1,1,20,20,40,40,0,1,0,40,40,20,20,0,0,1,40,0Z"/><path class="cls-2" d="M490,90v10a80,80,0,0,1-80-80h10A70,70,0,0,0,490,90Z"/><polygon class="cls-1" points="120 170 120 205 210 205 210 215 120 215 120 250 210 250 210 260 110 260 110 160 210 160 210 170 120 170"/><polygon class="cls-1" points="560.02 170 560.02 205 650.02 205 650.02 215 560.02 215 560.02 250 650.02 250 650.02 260 550.02 260 550.02 160 650.02 160 650.02 170 560.02 170"/><path class="cls-1" d="M739.72,215l-4.51-10L715.5,161.27l.01-.01-.49-1.08h-.01l-.08-.18h-9.84l-.08.18v.02l-.47,1.05h-.01L684.81,205l-4.51,10-20.28,45h10.97l20.28-45h37.48l20.28,45H760Zm-19.71-2.96-.02-.04h.02ZM695.78,205l14.23-31.58L724.25,205Z"/><path class="cls-1" d="M800,160.07v-.03l.01-.04h9.97l20.01,78.98Q840,199.49,850.01,160H860l.01.01q15,50,29.99,99.99H879.56l-24.18-80.57-20.24,79.9-.14.56-.03.11H825l-.17-.66L804.6,179.51,780.45,260H770.01Q785.006,210.035,800,160.07Z"/><path class="cls-1" d="M86.57,215A29.994,29.994,0,0,0,70,160H0V260H10V220H70a19.994,19.994,0,0,1,20,20v20h10V240A29.923,29.923,0,0,0,86.57,215ZM60,212.04l-.02-.04H60ZM70,210H10V170H70a20,20,0,0,1,0,40Z"/><path class="cls-1" d="M526.57,215A29.994,29.994,0,0,0,510,160H440V260h10V220h60a19.994,19.994,0,0,1,20,20v20h10V240A29.923,29.923,0,0,0,526.57,215ZM500,212.04l-.02-.04H500ZM510,210H450V170h60a20,20,0,0,1,0,40Z"/><path class="cls-1" d="M230,187.5A17.506,17.506,0,0,0,247.5,205h45a27.5,27.5,0,0,1,7.5,53.95,26.911,26.911,0,0,1-7.5,1.05H220V250h72.5a17.5,17.5,0,0,0,0-35h-45a27.5,27.5,0,0,1-7.5-53.95,26.911,26.911,0,0,1,7.5-1.05H320v10H247.5A17.506,17.506,0,0,0,230,187.5Z"/><polygon class="cls-1" points="430 160 430 170 385 170 385 260 375 260 375 170 330 170 330 160 430 160"/></g></g></g></svg>