<svg xmlns="http://www.w3.org/2000/svg" viewBox="0 0 1090 320"><defs><style>.cls-1{fill:#121221;}.cls-2,.cls-3,.cls-4{fill:#366ce1;}.cls-3{opacity:0.62;}.cls-4{opacity:0.38;}</style></defs><title>sentinel one</title><g id="Слой_2" data-name="Слой 2"><g id="Work_space" data-name="Work space"><g id="sentinel_one" data-name="sentinel one"><polygon class="cls-1" points="478 70 478 130 498 130 498 150 438 150 438 130 458 130 458 70 438 70 438 50 498 50 498 70 478 70"/><polygon class="cls-1" points="320 50 320 150 300 150 240 80.59 240 150 220 150 220 50 240 50 300 119.41 300 50 320 50"/><polygon class="cls-1" points="606 50 606 150 586 150 526 80.59 526 150 506 150 506 50 526 50 586 119.41 586 50 606 50"/><path class="cls-1" d="M20,80A10,10,0,0,0,30,90H70a30,30,0,0,1,0,60H0V130H70a10,10,0,0,0,0-20H30a30,30,0,0,1,0-60h70V70H30A10,10,0,0,0,20,80Z"/><polygon class="cls-1" points="130 70 130 90 210 90 210 110 130 110 130 130 210 130 210 150 110 150 110 50 210 50 210 70 130 70"/><polygon class="cls-1" points="636 70 636 90 716 90 716 110 636 110 636 130 716 130 716 150 616 150 616 50 716 50 716 70 636 70"/><polygon class="cls-1" points="826 130 826 150 726 150 726 50 746 50 746 130 826 130"/><polygon class="cls-1" points="430 50 430 70 390 70 390 150 370 150 370 70 330 70 330 50 430 50"/><path class="cls-1" d="M560,170a50,50,0,1,0,50,50A50.005,50.005,0,0,0,560,170Zm0,90a40,40,0,1,1,40-40A40,40,0,0,1,560,260Z"/><polygon class="cls-1" points="740 180 740 215 830 215 830 225 740 225 740 260 830 260 830 270 730 270 730 170 830 170 830 180 740 180"/><polygon class="cls-1" points="720 170 720 270 710.07 270 710 269.92 630 184.59 630 270 620 270 620 170 630.02 170 710 255.3 710 170 720 170"/><rect class="cls-2" x="940" y="30" width="90" height="250"/><path class="cls-3" d="M1030,70h60a0,0,0,0,1,0,0V260a60,60,0,0,1-60,60h0a0,0,0,0,1,0,0V70A0,0,0,0,1,1030,70Z"/><path class="cls-3" d="M880,70h60a0,0,0,0,1,0,0V320a0,0,0,0,1,0,0h0a60,60,0,0,1-60-60V70A0,0,0,0,1,880,70Z"/><path class="cls-4" d="M1060,0h0a30,30,0,0,1,30,30V250a0,0,0,0,1,0,0h-30a0,0,0,0,1,0,0V0A0,0,0,0,1,1060,0Z"/><path class="cls-4" d="M910,0h0a0,0,0,0,1,0,0V250a0,0,0,0,1,0,0H880a0,0,0,0,1,0,0V30A30,30,0,0,1,910,0Z"/></g></g></g></svg>