<svg xmlns="http://www.w3.org/2000/svg" viewBox="0 0 990 100"><defs><style>.cls-1{fill:#366ce1;}.cls-2,.cls-3,.cls-4,.cls-5,.cls-6,.cls-7,.cls-8{fill:#121221;}.cls-2{opacity:0.4;}.cls-3{opacity:0.1;}.cls-4{opacity:0.2;}.cls-5{opacity:0.5;}.cls-6{opacity:0.6;}.cls-7{opacity:0.7;}.cls-8{opacity:0.3;}</style></defs><title>whats app</title><g id="Слой_2" data-name="Слой 2"><g id="Work_space" data-name="Work space"><g id="whats_app" data-name="whats app"><path class="cls-1" d="M460,30a10,10,0,0,0,10,10h40a30,30,0,0,1,0,60H440V80h70a10,10,0,0,0,0-20H470a30,30,0,0,1,0-60h70V20H470A10,10,0,0,0,460,30Z"/><path class="cls-2" d="M460,30a10,10,0,0,0,10,10h40a30,30,0,0,1,0,60H440V80h70a10,10,0,0,0,0-20H470a30,30,0,0,1,0-60h70V20H470A10,10,0,0,0,460,30Z"/><polygon class="cls-1" points="229.88 0 229.88 100 209.88 100 209.88 60 149.88 60 149.88 100 129.88 100 129.88 0 149.88 0 149.88 40 209.88 40 209.88 0 229.88 0"/><polygon class="cls-3" points="230 0 230 100 210 100 210 60 150 60 150 100 130 100 130 0 150 0 150 40 210 40 210 0 230 0"/><path class="cls-1" d="M300.77,1.95,299.99,0H280.01l-.78,1.94L240,100h21.55l11.2-28h34.5l11.2,28H340ZM280.75,52,290,28.87,299.25,52Z"/><path class="cls-4" d="M300.77,1.95,299.99,0H280.01l-.78,1.94L240,100h21.55l11.2-28h34.5l11.2,28H340ZM280.75,52,290,28.87,299.25,52Z"/><path class="cls-1" d="M730.65,1.95,729.87,0H709.89l-.78,1.94L669.88,100h21.55l11.2-28h34.5l11.2,28h21.55ZM710.63,52l9.25-23.13L729.13,52Z"/><path class="cls-5" d="M730.77,1.95,729.99,0H710.01l-.78,1.94L670,100h21.55l11.2-28h34.5l11.2,28H770ZM710.75,52,720,28.87,729.25,52Z"/><path class="cls-1" d="M849.88,0h-70V100h20V60h50a30,30,0,0,0,0-60Zm0,40h-50V20h50a10,10,0,0,1,0,20Z"/><path class="cls-6" d="M850,0H780V100h20V60h50a30,30,0,0,0,0-60Zm0,40H800V20h50a10,10,0,0,1,0,20Z"/><path class="cls-1" d="M960,0H890V100h20V60h50a30,30,0,0,0,0-60Zm0,40H910V20h50a10,10,0,0,1,0,20Z"/><path class="cls-7" d="M960,0H890V100h20V60h50a30,30,0,0,0,0-60Zm0,40H910V20h50a10,10,0,0,1,0,20Z"/><polygon class="cls-1" points="430 0 430 20 390 20 390 100 370 100 370 20 330 20 330 0 430 0"/><polygon class="cls-8" points="430 0 430 20 390 20 390 100 370 100 370 20 330 20 330 0 430 0"/><path class="cls-1" d="M99.26,0,84.8,57.86,70.24,1.15,69.94,0H55.03L55,.11V0H49.88l-.29,1.16L35.05,57.75,20.62,0H0V.02L24.61,98.43,25,100H44.86l.38-1.5L59.91,41.37l14.7,57.24.35,1.39H89.99l.01-.04V100h4.87l.37-1.46L119.88,0ZM80,50.99v.04l-.02-.04Zm0,47.53-.19.61.19-.64Z"/><polygon class="cls-1" points="80 51.03 79.98 50.99 80 50.99 80 51.03"/><polygon class="cls-1" points="80 98.52 79.81 99.13 80 98.49 80 98.52"/><polygon class="cls-1" points="80 98.52 79.81 99.13 80 98.49 80 98.52"/></g></g></g></svg>