<svg xmlns="http://www.w3.org/2000/svg" viewBox="0 0 239.98 140.66"><defs><style>.cls-1{fill:#121221;}.cls-2{fill:#366ce1;}</style></defs><title>wix</title><g id="Слой_2" data-name="Слой 2"><g id="Complete"><g id="wix"><polygon class="cls-1" points="0 140.66 0 40.66 20 40.66 20 110.07 36.8 90.61 50.01 75.3 63.22 90.61 80 110.04 80 40.66 100 40.66 100 140.66 80 140.66 80 140.65 50.01 105.91 20.02 140.66 0 140.66"/><polygon class="cls-1" points="202.48 90.69 239.93 140.66 214.94 140.66 189.99 107.36 165.03 140.66 140.05 140.66 177.49 90.69 140 40.66 164.98 40.66 189.99 74.02 214.99 40.66 239.98 40.66 202.48 90.69"/><rect class="cls-1" x="110" y="40.66" width="20" height="100"/><path class="cls-2" d="M136.14,11.72,124.99,10.1,120,0l-4.99,10.1-11.15,1.62,8.07,7.87-1.9,11.1L120,25.45l9.97,5.24-1.9-11.1Zm-19.61,5.36a1.735,1.735,0,1,1,1.73-1.73A1.739,1.739,0,0,1,116.53,17.08Zm6.94,0a1.735,1.735,0,1,1,1.74-1.73A1.731,1.731,0,0,1,123.47,17.08Z"/></g></g></g></svg>