<svg xmlns="http://www.w3.org/2000/svg" viewBox="0 0 82.51 35.28"><defs><style>.cls-1{fill:#3e50a2;}.cls-2{fill:#22275a;}.cls-3{fill:#262867;}.cls-4{fill:#231f20;}</style></defs><title>logo</title><g id="Слой_2" data-name="Слой 2"><g id="logo"><path class="cls-1" d="M39.62.59l-.2.7a4.753,4.753,0,0,1,2.47.54,1.5,1.5,0,0,1,.64,1.13,17.577,17.577,0,0,1-.8,3.18L36.86,21.87a6.179,6.179,0,0,1-1.63,3.02,4.766,4.766,0,0,1-2.88.69l-.22.7h-2.4l.2-.7a2.743,2.743,0,0,1-1.84-.68,2.674,2.674,0,0,1-.55-1.88c0-.23.02-.89.06-1.99L28.51,0H27.6L8.27,21.73a20.921,20.921,0,0,1-3.24,3.13,4.776,4.776,0,0,1-1.93.72c.58.25,1.16.48,1.73.7a53.917,53.917,0,0,0,17.94,3.81c10.02.33,16.28-2.44,24.31-3.81H45.75l.22-.7a7.861,7.861,0,0,1-2.29-.24,1.7,1.7,0,0,1-.87-.6,1.671,1.671,0,0,1-.28-1.04,5.079,5.079,0,0,1,.1-.93l.49-1.61,2.45-8.01a22.907,22.907,0,0,1,4.43.33,2.548,2.548,0,0,1,1.31.96,3.049,3.049,0,0,1,.52,1.87,8.65,8.65,0,0,1-.2,1.58h.8L55.55,7.75h-.78a7.187,7.187,0,0,1-2.06,2.55,6.517,6.517,0,0,1-2.73,1.2,27.43,27.43,0,0,1-4.01.23l3.02-9.7h3.44a11.511,11.511,0,0,1,4.28.58,3.839,3.839,0,0,1,1.92,1.61,7.49,7.49,0,0,1,.7,3.15h.75L61.91.59ZM21.75,21.28a7.276,7.276,0,0,1-.57,2.92,2.429,2.429,0,0,1-1.02,1.11,10.81,10.81,0,0,1-2.01.27l-.23.7H11.04v-.7a3.155,3.155,0,0,1-1.7-.45,1.081,1.081,0,0,1-.51-.84,2.119,2.119,0,0,1,.2-.87,6.461,6.461,0,0,1,.83-1.27l1.93-2.18L13.48,18h8.45Zm.18-4.83H14.87l7.58-8.38Z"/><path class="cls-2" d="M79.48,26.28h.02l1.5-3.6C80.49,23.88,79.99,25.08,79.48,26.28Z"/><path class="cls-3" d="M82.51,19.08l-5.49,7.2c-.71.93-1.43,1.86-2.14,2.8a56.159,56.159,0,0,0-10.33-2.8,54.023,54.023,0,0,0-6.62-.7,4.625,4.625,0,0,0,2.85-.71,6.872,6.872,0,0,0,1.66-3.19L67.51,5.17a7.8,7.8,0,0,0,.42-2.14,1.427,1.427,0,0,0-.61-1.21,4.606,4.606,0,0,0-2.37-.53l.22-.7h13.1l-.22.7a4.586,4.586,0,0,0-2.83.8,6.469,6.469,0,0,0-1.66,3.08l-4.63,15.1a18.774,18.774,0,0,0-.88,3.51.913.913,0,0,0,.45.71,2.518,2.518,0,0,0,1.46.33,15.163,15.163,0,0,0,6.45-1.44,13.775,13.775,0,0,0,5.26-4.3Z"/><path class="cls-4" d="M75.69,35.28H2.9v-.05Q39.29,35.26,75.69,35.28Z"/><path class="cls-2" d="M82.51,19.08c-.5,1.2-1,2.4-1.51,3.6s-1.01,2.4-1.52,3.6c-.01.01-.01.03-.02.04q-1.89,4.485-3.77,8.96Q39.3,35.25,2.9,35.23H0q1.545-4.815,3.1-9.65c.58.25,1.16.48,1.73.7a53.917,53.917,0,0,0,17.94,3.81c10.02.33,16.28-2.44,24.31-3.81a49.947,49.947,0,0,1,10.85-.7,54.023,54.023,0,0,1,6.62.7,56.159,56.159,0,0,1,10.33,2.8c.71-.94,1.43-1.87,2.14-2.8Z"/></g></g></svg>