<svg xmlns="http://www.w3.org/2000/svg" viewBox="0 0 117.483 72"><defs><style>.cls-1{fill:#1c1d20;}.cls-2,.cls-3,.cls-4{fill:#e1e0e0;}.cls-3{opacity:0.38;}.cls-4{opacity:0.62;}</style></defs><title>paint</title><g id="Слой_2" data-name="Слой 2"><g id="project"><g id="paint"><path class="cls-1" d="M90,0V57.6L63,36q-6.495,3.72-13,7.43L27,27,0,49.5V0Z"/><path class="cls-1" d="M108.121,72c-4.85,0-9.98-19.14-9-36a83.516,83.516,0,0,1,1.96-13.59c1.63,2.49,4.07,4.59,7.04,4.59s5.41-2.1,7.04-4.59A83.516,83.516,0,0,1,117.121,36C118.1,52.86,112.971,72,108.121,72Z"/><path class="cls-1" d="M117.121,18a15.263,15.263,0,0,1-1.96,4.41c-1.63,2.49-4.07,4.59-7.04,4.59s-5.41-2.1-7.04-4.59A15.263,15.263,0,0,1,99.121,18c-1.56-6.15,2.01-13.37,9-18C115.111,4.63,118.681,11.85,117.121,18Z"/><path class="cls-1" d="M50,43.43Q24.995,57.71,0,72V49.5L27,27Z"/><path class="cls-1" d="M90,57.6V72H0Q25.005,57.72,50,43.43,56.5,39.71,63,36Z"/><circle class="cls-2" cx="45" cy="18" r="9"/><path class="cls-3" d="M50,43.43Q24.995,57.71,0,72V49.5L27,27Z"/><path class="cls-4" d="M90,57.6V72H0Q25.005,57.72,50,43.43,56.5,39.71,63,36Z"/><path class="cls-4" d="M117.121,18a15.263,15.263,0,0,1-1.96,4.41c-1.63,2.49-4.07,4.59-7.04,4.59s-5.41-2.1-7.04-4.59A15.263,15.263,0,0,1,99.121,18c-1.56-6.15,2.01-13.37,9-18C115.111,4.63,118.681,11.85,117.121,18Z"/></g></g></g></svg>