<svg id="Слой_1" data-name="Слой 1" xmlns="http://www.w3.org/2000/svg" viewBox="0 0 293 293"><defs><style>.cls-1,.cls-4{fill:#1e1d20;}.cls-1,.cls-2{stroke:#e01f26;}.cls-1,.cls-2,.cls-3,.cls-4{stroke-miterlimit:10;stroke-width:5px;}.cls-2,.cls-3{fill:#cccccc;}.cls-3{stroke:#1e1d20;}.cls-4{stroke:#cccccc;}</style></defs><title>har</title><path class="cls-1" d="M648,504a72.006,72.006,0,0,1-72,72,144,144,0,0,1,0-288,72,72,0,0,0,0,144A72.006,72.006,0,0,1,648,504Z" transform="translate(-429.5 -285.5)"/><path class="cls-2" d="M720,432A144,144,0,0,1,576,576a72,72,0,0,0,0-144,72,72,0,0,1,0-144A144,144,0,0,1,720,432Z" transform="translate(-429.5 -285.5)"/><circle class="cls-3" cx="146.5" cy="218.5" r="36"/><circle class="cls-4" cx="146.5" cy="74.5" r="36"/></svg>