<svg id="Слой_1" data-name="Слой 1" xmlns="http://www.w3.org/2000/svg" viewBox="0 0 365 310"><defs><style>.cls-1{fill:#cccccc;stroke:#1e1d20;}.cls-1,.cls-2,.cls-3,.cls-4{stroke-miterlimit:10;}.cls-1,.cls-2{stroke-width:5px;}.cls-2,.cls-4{fill:#e01f26;}.cls-2,.cls-3,.cls-4{stroke:#cccccc;}.cls-3{fill:#1e1d20;}</style></defs><title>pea</title><circle class="cls-1" cx="254.471" cy="135.471" r="108"/><circle class="cls-1" cx="168.5" cy="235.5" r="72"/><circle class="cls-1" cx="110.524" cy="131.405" r="108"/><circle class="cls-2" cx="190.83" cy="110.524" r="108"/><circle class="cls-1" cx="236.5" cy="182.5" r="36"/><path class="cls-3" d="M584.81,522.96c-.39.11-.78.24-1.16.37A13.466,13.466,0,0,1,589.5,522q.42,0,.84.03A23.789,23.789,0,0,0,584.81,522.96Z" transform="translate(-294.5 -222.5)"/><path class="cls-3" d="M567.65,438.956v.01a23.827,23.827,0,0,0-9.97-1.59c-.58.03-1.16.08-1.73.16a23.712,23.712,0,0,0-9.16,3.15,8.154,8.154,0,0,1-10.98-2.47l-.04-.08a24.077,24.077,0,0,1,30.63-.3c.27.22.48.41.61.52a.474.474,0,0,1,.13.12l.02.02C567.33,438.646,567.49,438.806,567.65,438.956Z" transform="translate(-294.5 -222.5)"/><path class="cls-4" d="M547.714,470.035a17.747,17.747,0,0,0,5.054,5.634,17.991,17.991,0,0,1-17.553-26.441c.242.3.5.59.765.88a17.856,17.856,0,0,0,10.22,5.522A17.926,17.926,0,0,0,547.714,470.035Z" transform="translate(-294.5 -222.5)"/><path class="cls-4" d="M541.524,446.281a17.719,17.719,0,0,1-4.31,6.114A17.967,17.967,0,0,1,522,456.941,17.958,17.958,0,0,1,537.436,444.5a16.584,16.584,0,0,1,4.088,1.779Z" transform="translate(-294.5 -222.5)"/><path class="cls-4" d="M573.568,441.457a17.239,17.239,0,0,0-2.54-3.514,17.973,17.973,0,0,0-29.779,5.223,17.858,17.858,0,0,0,3.1,5.63c.242.3.5.59.765.881a18,18,0,0,0,3.976,3.233,17.843,17.843,0,0,0-.611,12.5,17.989,17.989,0,1,1,25.094-23.957Z" transform="translate(-294.5 -222.5)"/><path class="cls-3" d="M571.1,439.13c-.02.34-.05,1.01-.15,1.85-.04.35-.08.64-.12.86a24.741,24.741,0,0,0-3.4-4.1v-.01a.071.071,0,0,1-.03-.06c-.15-.14-.31-.28-.46-.4l-.02-.02a.474.474,0,0,0-.13-.12c-.13-.11-.34-.3-.61-.52a25.087,25.087,0,0,0-2.44-1.85,23.96,23.96,0,0,0-28.66,1.75,24.556,24.556,0,0,1-2.81-6.22c-.14-.51-.28-1-.38-1.51a.292.292,0,0,1-.02-.09,9.388,9.388,0,0,1-.22-1.58,13.481,13.481,0,0,1,7.62-11.32c.38-.13.77-.26,1.16-.37a23.956,23.956,0,0,1,29.72,16.33,22.621,22.621,0,0,1,.93,5.7C571.11,438.32,571.1,439.13,571.1,439.13Z" transform="translate(-294.5 -222.5)"/></svg>