<svg xmlns="http://www.w3.org/2000/svg" viewBox="0 0 366 351.855"><defs><style>.cls-1,.cls-2{fill:#1d1e20;}.cls-1{opacity:0.62;}.cls-2{opacity:0.85;}.cls-3{fill:none;}</style></defs><title>Portfolio</title><g id="Слой_2" data-name="Слой 2"><g id="Слой_1-2" data-name="Слой 1"><g id="Portfolio"><path class="cls-1" d="M355.62,299.89A12.357,12.357,0,0,1,354,300H12a12.32,12.32,0,0,1-1.83-.14L57,201a12.035,12.035,0,0,1,12-12H315a12.035,12.035,0,0,1,12,12Z"/><path class="cls-1" d="M.29,290.62A11.886,11.886,0,0,1,0,288C.1,288.87.19,289.75.29,290.62Z"/><path class="cls-1" d="M366,288q0,.42-.03.84l-.01.03a28.68,28.68,0,0,0-2.39,6.35,27.145,27.145,0,0,0-.58,6.7L360,315a12.035,12.035,0,0,1-12,12H216.23c1.73-5.26,1.84-9.99-.23-12-2.02-1.97-6.25-1.45-9,0-4.52,2.37-4.53,7.21-5.93,12H158.92c-1.4-4.77-1.43-9.57-5.92-12-2.77-1.5-7-1.95-9,0-2.07,2.01-1.96,6.74-.23,12H15A12.035,12.035,0,0,1,3,315Q1.65,302.805.29,290.62C.19,289.75.1,288.87,0,288L57,165a12.019,12.019,0,0,1,6-10.38V177a12.035,12.035,0,0,0,12,12H69a12.035,12.035,0,0,0-12,12L10.17,299.86A12.32,12.32,0,0,0,12,300H354a12.357,12.357,0,0,0,1.62-.11L327,201a12.035,12.035,0,0,0-12-12h-3a12.035,12.035,0,0,0,12-12V157.08a11.98,11.98,0,0,1,3,7.92Z"/><rect class="cls-2" x="63" width="261" height="189" rx="12"/><path class="cls-1" d="M355.62,299.89A12.357,12.357,0,0,1,354,300H12a12.32,12.32,0,0,1-1.83-.14L57,201a12.035,12.035,0,0,1,12-12H315a12.035,12.035,0,0,1,12,12Z"/><path class="cls-1" d="M365.96,288.87v.03a11.318,11.318,0,0,1-.8,3.49,11.908,11.908,0,0,1-1.59,2.83A28.68,28.68,0,0,1,365.96,288.87Z"/><path class="cls-3" d="M72,180H306"/><path class="cls-3" d="M72,198H306.173"/><path class="cls-3" d="M72,216H306.173"/><path class="cls-1" d="M360,315l2.99-13.08A24.982,24.982,0,0,1,360,315Z"/><path class="cls-1" d="M365.96,288.87v.03l-.8,3.49-2.17,9.53a27.145,27.145,0,0,1,.58-6.7A28.68,28.68,0,0,1,365.96,288.87Z"/><path class="cls-2" d="M216.23,327A38.018,38.018,0,0,1,207,342c-13.61,13.14-40.39,13.14-54,0a38.018,38.018,0,0,1-9.23-15c-1.73-5.26-1.84-9.99.23-12,2-1.95,6.23-1.5,9,0,4.49,2.43,4.52,7.23,5.92,12a15.487,15.487,0,0,0,3.08,6c7.64,8.85,28.36,8.85,36,0a15.461,15.461,0,0,0,3.07-6c1.4-4.79,1.41-9.63,5.93-12,2.75-1.45,6.98-1.97,9,0C218.07,317.01,217.96,321.74,216.23,327Z"/><path class="cls-1" d="M54,243l-9,36H324l-9-36Z"/><path class="cls-3" d="M90,108h63"/><path class="cls-3" d="M234,108h63"/><path class="cls-1" d="M76,36H310.173"/></g></g></g></svg>