<svg xmlns="http://www.w3.org/2000/svg" viewBox="0 0 452.5 437"><defs><style>.a,.f{fill:#e01f26;}.a,.b,.e{stroke:#1d1e20;stroke-miterlimit:10;}.a,.b{stroke-width:5px;}.b,.c,.e{fill:#e1e0e0;}.d{fill:#1d1e20;}.e{stroke-width:10px;}</style></defs><title>his</title><path class="a" d="M576,504l216-.148A216,216,0,0,1,575.855,720Z" transform="translate(-342 -285.5)"/><path class="b" d="M576,504H360c0-118.494,97.506-216,216-216s216,97.506,216,216S694.494,720,576,720c-111.486,0-205.589-86.314-215.2-197.385Z" transform="translate(-342 -285.5)"/><circle class="c" cx="233.788" cy="218.519" r="213.635"/><path class="d" d="M378,488c-1.11,1.89-2.378,3.622-3.637,5.363-1.277,1.723-2.613,3.387-3.978,5.022s-2.776,3.224-4.212,4.788-2.913,3.087-4.406,4.594L360,509.549l-1.77-1.782c-1.5-1.5-2.972-3.028-4.41-4.59s-2.849-3.151-4.213-4.787-2.7-3.3-3.979-5.021S343.116,489.884,342,488c1.884,1.116,3.64,2.36,5.369,3.631s3.387,2.613,5.021,3.979,3.221,2.779,4.787,4.213,3.085,2.915,4.59,4.41h-3.534c1.507-1.493,3.031-2.969,4.594-4.406s3.154-2.846,4.788-4.212,3.3-2.7,5.022-3.978C374.378,490.378,376.11,489.11,378,488Z" transform="translate(-342 -285.5)"/><circle class="d" cx="18.36" cy="234.14" r="2.36"/><path class="b" d="M576,504V315" transform="translate(-342 -285.5)"/><path class="e" d="M639,567l-63.64-63.64" transform="translate(-342 -285.5)"/><path class="d" d="M558,333c1.11-1.89,2.378-3.622,3.637-5.363,1.277-1.723,2.613-3.387,3.978-5.022s2.776-3.224,4.212-4.788,2.913-3.087,4.406-4.594L576,311.451l1.77,1.782c1.495,1.5,2.972,3.028,4.41,4.59s2.849,3.151,4.213,4.787,2.7,3.3,3.979,5.021S592.884,331.116,594,333c-1.884-1.116-3.64-2.36-5.369-3.631s-3.387-2.613-5.021-3.979-3.221-2.779-4.787-4.213-3.085-2.915-4.59-4.41h3.534c-1.507,1.493-3.031,2.969-4.594,4.406s-3.154,2.846-4.788,4.212-3.3,2.7-5.022,3.978C561.622,330.622,559.89,331.89,558,333Z" transform="translate(-342 -285.5)"/><path class="d" d="M639,541.544a37.447,37.447,0,0,1,2.445,6.364,60.62,60.62,0,0,1,1.473,6.364A73.506,73.506,0,0,1,644,567l.014,5H639a72.515,72.515,0,0,1-12.728-1.067,59.644,59.644,0,0,1-6.364-1.475A37.184,37.184,0,0,1,613.544,567a37.184,37.184,0,0,1,6.364-2.457,59.644,59.644,0,0,1,6.364-1.475A72.515,72.515,0,0,1,639,562l-5,5a73.506,73.506,0,0,1,1.081-12.728,60.62,60.62,0,0,1,1.473-6.364A37.447,37.447,0,0,1,639,541.544Z" transform="translate(-342 -285.5)"/><circle class="f" cx="233.923" cy="218.654" r="17.077"/></svg>