<svg id="Слой_1" data-name="Слой 1" xmlns="http://www.w3.org/2000/svg" viewBox="0 0 509 617"><defs><style>.cls-1,.cls-3,.cls-5,.cls-7,.cls-9{fill:#e1e0e0;}.cls-1,.cls-10,.cls-2,.cls-3,.cls-4,.cls-5,.cls-6,.cls-7,.cls-8,.cls-9{stroke:#1d1e20;stroke-miterlimit:10;}.cls-1,.cls-2{stroke-width:5px;}.cls-10,.cls-2,.cls-4,.cls-6,.cls-8{fill:#e01f26;}.cls-3,.cls-4{stroke-width:3px;}.cls-5,.cls-6{stroke-width:2px;}.cls-10,.cls-9{stroke-width:0.5px;}</style></defs><title>pla</title><circle class="cls-1" cx="254.5" cy="362.5" r="252"/><path class="cls-1" d="M576,216a35.825,35.825,0,0,1-2.65,13.57l-.01.03-.75,1.7L540,306l-32.43-74.35-.02-.04-1.04-2.39A36,36,0,1,1,576,216Z" transform="translate(-285.5 -177.5)"/><circle class="cls-2" cx="254.5" cy="38.5" r="27"/><circle class="cls-1" cx="335.5" cy="254.5" r="117"/><circle class="cls-1" cx="307" cy="298" r="64.5"/><path class="cls-3" d="M639,384.75a22.4,22.4,0,0,1-1.656,8.481l-.006.019-.469,1.062L616.5,441l-20.269-46.469-.012-.025-.65-1.494A22.5,22.5,0,1,1,639,384.75Z" transform="translate(-285.5 -177.5)"/><circle class="cls-4" cx="331" cy="207.25" r="16.875"/><path class="cls-5" d="M594,389.25a13.44,13.44,0,0,1-.994,5.089l0,.011-.282.637L580.5,423l-12.161-27.881-.008-.015-.39-.9A13.5,13.5,0,1,1,594,389.25Z" transform="translate(-285.5 -177.5)"/><circle class="cls-6" cx="295" cy="211.75" r="10.125"/><rect class="cls-5" x="272.5" y="245.5" width="45" height="108"/><rect class="cls-5" x="272.5" y="245.5" width="45" height="18"/><rect class="cls-5" x="272.5" y="263.5" width="45" height="18"/><rect class="cls-5" x="272.5" y="281.5" width="45" height="18"/><rect class="cls-5" x="272.5" y="299.5" width="45" height="18"/><rect class="cls-5" x="272.5" y="317.5" width="45" height="18"/><rect class="cls-7" x="272.5" y="299.5" width="9" height="18"/><rect class="cls-7" x="281.5" y="299.5" width="18" height="18"/><rect class="cls-7" x="308.5" y="299.5" width="9" height="18"/><rect class="cls-7" x="299.5" y="299.5" width="9" height="18"/><path class="cls-7" d="M594,454.5a8.951,8.951,0,0,1-.663,3.393l0,.007-.187.425L585,477l-8.107-18.588-.006-.01-.259-.6A9,9,0,1,1,594,454.5Z" transform="translate(-285.5 -177.5)"/><circle class="cls-8" cx="299.5" cy="277" r="6.75"/><path class="cls-9" d="M566.554,466.044a4.473,4.473,0,0,1-.332,1.7v0l-.093.212-4.074,9.338L558,468l0,0-.129-.3a4.5,4.5,0,1,1,8.686-1.652Z" transform="translate(-285.5 -177.5)"/><circle class="cls-10" cx="276.554" cy="288.544" r="3.375"/></svg>