<svg xmlns="http://www.w3.org/2000/svg" viewBox="0 0 329 436.96"><defs><style>.a{fill:#df1f26;}.a,.b{stroke:#e1e0e0;stroke-miterlimit:10;stroke-width:5px;}.b{fill:#230f10;}</style></defs><title>int</title><path class="a" d="M693,504.04C693,622.4,597.79,718.51,479.79,720c1.82-.05,3.64-.14,5.44-.27.9-.07,1.8-.15,2.69-.24.95-.09,1.89-.2,2.83-.32,1.72-.22,3.43-.47,5.12-.78.87-.15,1.75-.31,2.61-.49.49-.09.97-.2,1.44-.31.49-.1.98-.21,1.47-.32.79-.18,1.57-.37,2.35-.57.54-.14,1.08-.28,1.62-.43.56-.15,1.12-.3,1.68-.47.7-.2,1.39-.4,2.07-.62s1.38-.43,2.06-.66,1.37-.46,2.04-.71c.6-.2,1.19-.42,1.77-.64.48-.18.96-.36,1.44-.55,1.04-.41,2.08-.83,3.1-1.28.63-.26,1.25-.53,1.87-.82a1.472,1.472,0,0,0,.22-.1q1.035-.465,2.07-.96c.18-.08.35-.17.52-.26.62-.29,1.23-.59,1.83-.91.17-.08.33-.16.49-.25.63-.32,1.25-.65,1.87-.99a2.148,2.148,0,0,0,.26-.14c.67-.36,1.34-.74,2-1.12.11-.06.21-.12.31-.18.69-.39,1.37-.79,2.04-1.21s1.36-.83,2.03-1.26c.19-.12.38-.24.57-.37.52-.33,1.04-.67,1.55-1.02.62-.41,1.23-.83,1.84-1.26.44-.31.87-.62,1.3-.93.49-.35.98-.71,1.46-1.08.55-.4,1.09-.82,1.63-1.24.38-.3.76-.6,1.13-.9q.825-.645,1.62-1.32c.39-.32.77-.64,1.15-.98.49-.41.98-.84,1.46-1.27.5-.44.99-.89,1.48-1.34.28-.25.56-.52.84-.78.33-.31.66-.63.99-.95q1.32-1.26,2.58-2.58c.43-.44.85-.88,1.27-1.33q.165-.165.3-.33c.4-.42.78-.84,1.17-1.27.3-.33.59-.66.88-1l.81-.93c.29-.33.57-.67.85-1.01.26-.3.51-.6.75-.91.3-.35.58-.7.86-1.06.24-.3.47-.6.71-.9.37-.47.74-.95,1.1-1.44.38-.5.76-1.01,1.12-1.52.35-.48.7-.96,1.04-1.45.42-.59.83-1.19,1.24-1.8q.465-.69.9-1.38c.2-.29.39-.59.58-.89.39-.61.78-1.23,1.15-1.86.46-.74.9-1.49,1.33-2.24.41-.7.8-1.41,1.19-2.13.05-.09.1-.18.14-.27.4-.72.78-1.44,1.15-2.17a.037.037,0,0,0,.01-.03c.38-.73.75-1.46,1.1-2.2a2,2,0,0,0,.1-.21q.555-1.14,1.08-2.31c.34-.74.67-1.49.98-2.24a2.443,2.443,0,0,0,.1-.24c.33-.76.64-1.52.94-2.29.01-.03.03-.06.04-.09.29-.75.58-1.51.86-2.27.03-.08.06-.16.1-.25.19-.54.39-1.08.57-1.63.12-.34.24-.69.36-1.04.25-.75.5-1.51.73-2.28.27-.84.52-1.69.76-2.55.19-.64.36-1.28.53-1.93.29-1.07.55-2.15.8-3.24.12-.5.23-1,.33-1.51.11-.47.21-.95.31-1.44.16-.77.3-1.55.44-2.32.1-.52.18-1.03.26-1.55.08-.46.15-.91.22-1.37.13-.82.24-1.63.34-2.45.12-.9.22-1.8.31-2.71.03-.3.06-.6.08-.9.15-1.55.27-3.11.34-4.67q.03-.39.03-.78c.08-1.55.11-3.12.11-4.69a108,108,0,0,0-108-108,108,108,0,0,1-108-108c0-1.57.03-3.13.11-4.69q0-.39.03-.78c.07-1.57.19-3.13.34-4.67.02-.3.05-.6.08-.9.09-.91.19-1.81.31-2.71.1-.82.21-1.64.34-2.45.06-.46.14-.91.22-1.37.08-.52.17-1.03.26-1.55.14-.78.28-1.55.44-2.32.09-.48.19-.96.31-1.44.1-.51.21-1.01.33-1.51.25-1.09.51-2.17.8-3.24.17-.65.35-1.29.53-1.93.24-.86.49-1.71.76-2.55.23-.77.48-1.52.73-2.28.12-.35.24-.7.36-1.04.19-.55.38-1.09.57-1.63.04-.09.07-.17.1-.25.28-.76.57-1.52.86-2.27.01-.03.03-.06.04-.09.3-.77.61-1.53.94-2.29a2.443,2.443,0,0,1,.1-.24c.32-.75.64-1.5.98-2.24q.525-1.17,1.08-2.31a2,2,0,0,1,.1-.21c.35-.74.72-1.47,1.1-2.2-.01-.01,0-.02.01-.03.37-.72.75-1.45,1.15-2.17.04-.09.09-.18.14-.27.39-.71.78-1.42,1.19-2.13.43-.75.87-1.5,1.33-2.24.38-.63.76-1.25,1.15-1.86.19-.3.38-.6.58-.89q.45-.705.9-1.38c.41-.61.82-1.21,1.24-1.8.34-.49.68-.97,1.04-1.45.36-.51.74-1.02,1.12-1.52.36-.48.73-.96,1.1-1.44.23-.3.47-.6.71-.9.28-.36.57-.71.86-1.06.24-.31.5-.61.75-.91.28-.34.56-.68.85-1.01.27-.31.53-.62.81-.93.29-.34.59-.67.88-1,.39-.43.77-.85,1.17-1.27l.3-.33c.41-.45.84-.89,1.27-1.33.26-.28.53-.56.81-.83.3-.31.6-.61.91-.91.28-.29.57-.57.86-.84.33-.32.65-.64.99-.95l.84-.78c.49-.46.98-.9,1.48-1.34.48-.43.97-.86,1.46-1.27.38-.33.76-.66,1.15-.98q.795-.675,1.62-1.32c.37-.31.75-.61,1.13-.9.54-.42,1.08-.84,1.63-1.24a2.553,2.553,0,0,1,.28-.21c.39-.3.78-.58,1.18-.87.43-.32.86-.63,1.3-.93.6-.42,1.22-.85,1.84-1.26.51-.34,1.03-.69,1.55-1.02.18-.13.38-.25.57-.37.67-.43,1.35-.85,2.03-1.26s1.36-.82,2.04-1.21a2.479,2.479,0,0,1,.31-.18c.66-.38,1.33-.76,2-1.12.09-.05.17-.1.26-.14.62-.34,1.25-.67,1.87-.99.16-.09.33-.17.49-.25.61-.31,1.22-.62,1.83-.91.17-.09.34-.17.52-.26q1.02-.5,2.07-.96a1.472,1.472,0,0,1,.22-.1c.62-.28,1.24-.56,1.87-.82,1.02-.45,2.06-.87,3.1-1.28.48-.19.96-.37,1.44-.55.58-.22,1.17-.44,1.77-.64.67-.25,1.36-.48,2.04-.71s1.36-.45,2.06-.66c.68-.22,1.38-.43,2.07-.62.55-.17,1.11-.32,1.68-.47.54-.15,1.08-.29,1.62-.43.78-.2,1.56-.39,2.35-.57.49-.12.98-.23,1.47-.32.48-.11.96-.21,1.44-.31.87-.18,1.74-.34,2.61-.49,1.69-.3,3.4-.56,5.12-.78.93-.12,1.88-.23,2.83-.32.9-.09,1.79-.17,2.69-.24,1.8-.14,3.62-.23,5.44-.27.93-.03,1.86-.04,2.79-.04s1.86.01,2.79.04C597.79,289.57,693,385.68,693,504.04Z" transform="translate(-366.5 -285.54)"/><circle class="b" cx="101.5" cy="110.46" r="36"/></svg>