<svg xmlns="http://www.w3.org/2000/svg" viewBox="0 0 317.5 267.667"><defs><style>.a{fill:#e01f26;stroke:#1d1e20;}.a,.b{stroke-miterlimit:10;stroke-width:5px;}.b{fill:none;stroke:#cccccc;}</style></defs><title>hea</title><path class="a" d="M647.92,464.562a71.73,71.73,0,0,1-9.47,39.287,70.983,70.983,0,0,1-4.76,7.23C590.46,568.719,547.23,599.36,504,657c-43.23-57.64-86.46-88.281-129.69-145.921a70.983,70.983,0,0,1-4.76-7.23,72.01,72.01,0,0,1,60.626-107.827c32.15-.8,53.942,20.517,56.31,23.009A74.568,74.568,0,0,1,504,450a74.568,74.568,0,0,1,17.514-30.968c2.368-2.492,24.16-23.805,56.31-23.009A72.232,72.232,0,0,1,647.92,464.562Z" transform="translate(-357.5 -393.5)"/><path class="b" d="M360,513h90l9-9,9,9,9-9,9,9,9-9,9,9h54l18-27,9,45,9-27h9l9-18,9,27,9-9h45" transform="translate(-357.5 -393.5)"/></svg>