<svg id="Слой_1" data-name="Слой 1" xmlns="http://www.w3.org/2000/svg" viewBox="0 0 257 273.7"><defs><style>.cls-1{fill:#e01f26;}.cls-1,.cls-2{stroke:#1d1e20;stroke-miterlimit:10;stroke-width:5px;}.cls-2{fill:#cccccc;}</style></defs><title>peo</title><circle class="cls-1" cx="128.5" cy="45.31" r="42.81"/><path class="cls-2" d="M500,451.27c-41,0-77.342,10.939-71.35,57.08h142.7C577.342,462.209,541,451.27,500,451.27Z" transform="translate(-371.5 -363.15)"/><circle class="cls-1" cx="45.31" cy="228.39" r="42.81"/><path class="cls-2" d="M447.081,561.269c28.989,28.988,62.424,46.954,90.814,10.09l-100.9-100.9C400.127,498.845,418.093,532.28,447.081,561.269Z" transform="translate(-371.5 -363.15)"/><circle class="cls-1" cx="211.69" cy="228.39" r="42.81"/><path class="cls-2" d="M552.919,561.269c28.988-28.989,46.954-62.424,10.09-90.814l-100.9,100.9C490.5,608.223,523.93,590.257,552.919,561.269Z" transform="translate(-371.5 -363.15)"/></svg>