<svg xmlns="http://www.w3.org/2000/svg" viewBox="0 0 830 100"><defs><style>.cls-1{fill:#121221;}</style></defs><title>designer</title><g id="Слой_2" data-name="Слой 2"><g id="Work_space" data-name="Work space"><g id="designer"><polygon class="cls-1" points="370 20 370 80 390 80 390 100 330 100 330 80 350 80 350 20 330 20 330 0 390 0 390 20 370 20"/><polygon class="cls-1" points="610 0 610 100 590 100 530 30.59 530 100 510 100 510 0 530 0 590 69.41 590 0 610 0"/><path class="cls-1" d="M50,0H0V100H50A50,50,0,0,0,50,0Zm0,80H20V20H50a30,30,0,0,1,0,60Z"/><path class="cls-1" d="M240,30a10,10,0,0,0,10,10h40a30,30,0,0,1,0,60H220V80h70a10,10,0,0,0,0-20H250a30,30,0,0,1,0-60h70V20H250A10,10,0,0,0,240,30Z"/><polygon class="cls-1" points="640 20 640 40 720 40 720 60 640 60 640 80 720 80 720 100 620 100 620 0 720 0 720 20 640 20"/><polygon class="cls-1" points="130 20 130 40 210 40 210 60 130 60 130 80 210 80 210 100 110 100 110 0 210 0 210 20 130 20"/><path class="cls-1" d="M830,30A30,30,0,0,0,800,0H730V100h20V60h50a10,10,0,0,1,10,10v30h20V70a29.862,29.862,0,0,0-7.65-20A29.862,29.862,0,0,0,830,30ZM750,40V20h50a10,10,0,0,1,0,20Z"/><path class="cls-1" d="M500,40V50a49.16,49.16,0,0,1-1.01,10,50.013,50.013,0,1,1-13.64-45.35L471.21,28.79A30,30,0,1,0,478.28,60H450V40Z"/></g></g></g></svg>