<svg xmlns="http://www.w3.org/2000/svg" viewBox="0 0 300 300"><defs><style>.cls-1{fill:#121221;}.cls-2{fill:#366ce1;}</style></defs><title>documents</title><g id="Слой_2" data-name="Слой 2"><g id="Work_space" data-name="Work space"><g id="documents"><g id="documents-2" data-name="documents"><circle class="cls-1" cx="150" cy="150" r="150"/><rect class="cls-2" x="75" y="55" width="150" height="190" rx="10"/><path class="cls-1" d="M105,85h90a10,10,0,0,1,10,10v0a0,0,0,0,1,0,0H95a0,0,0,0,1,0,0v0A10,10,0,0,1,105,85Z"/><rect class="cls-1" x="95" y="115" width="110" height="10"/><rect class="cls-1" x="95" y="145" width="110" height="10"/><rect class="cls-1" x="95" y="175" width="110" height="10"/><path class="cls-1" d="M95,205H205a0,0,0,0,1,0,0v0a10,10,0,0,1-10,10H105a10,10,0,0,1-10-10v0A0,0,0,0,1,95,205Z"/></g><path class="cls-1" d="M190,160a50,50,0,1,0,50,50A50.005,50.005,0,0,0,190,160Zm0,80a30,30,0,1,1,30-30A30,30,0,0,1,190,240Z"/><circle class="cls-2" cx="190" cy="210" r="30"/></g></g></g></svg>