<svg xmlns="http://www.w3.org/2000/svg" viewBox="0 0 750 100"><defs><style>.cls-1{fill:#121221;}</style></defs><title>manager</title><g id="Слой_2" data-name="Слой 2"><g id="Work_space" data-name="Work space"><g id="manager"><polygon class="cls-1" points="320 0 320 100 300 100 240 30.59 240 100 220 100 220 0 240 0 300 69.41 300 0 320 0"/><polygon class="cls-1" points="100 0 100 100 80 100 80 30.59 63.2 50.05 49.99 65.36 36.78 50.05 20 30.62 20 100 0 100 0 0 20 0 20 0.01 49.99 34.75 79.98 0 100 0"/><polygon class="cls-1" points="560 20 560 40 640 40 640 60 560 60 560 80 640 80 640 100 540 100 540 0 640 0 640 20 560 20"/><path class="cls-1" d="M750,30A30,30,0,0,0,720,0H650V100h20V60h50a10,10,0,0,1,10,10v30h20V70a29.862,29.862,0,0,0-7.65-20A29.862,29.862,0,0,0,750,30ZM670,40V20h50a10,10,0,0,1,0,20Z"/><path class="cls-1" d="M170.77,1.95,169.99,0H150.01l-.78,1.94L110,100h21.55l11.2-28h34.5l11.2,28H210ZM150.75,52,160,28.87,169.25,52Z"/><path class="cls-1" d="M390.77,1.95,389.99,0H370.01l-.78,1.94L330,100h21.55l11.2-28h34.5l11.2,28H430ZM370.75,52,380,28.87,389.25,52Z"/><path class="cls-1" d="M530,40V50a49.16,49.16,0,0,1-1.01,10,50.013,50.013,0,1,1-13.64-45.35L501.21,28.79A30,30,0,1,0,508.28,60H480V40Z"/></g></g></g></svg>