<svg xmlns="http://www.w3.org/2000/svg" viewBox="0 0 1090 100"><defs><style>.cls-1{fill:#121221;}</style></defs><title>programmer</title><g id="Слой_2" data-name="Слой 2"><g id="Work_space" data-name="Work space"><g id="programmer"><polygon class="cls-1" points="760 0 760 100 740 100 740 30.59 723.2 50.05 709.99 65.36 696.78 50.05 680 30.62 680 100 660 100 660 0 680 0 680 0.01 709.99 34.75 739.98 0 760 0"/><polygon class="cls-1" points="870 0 870 100 850 100 850 30.59 833.2 50.05 819.99 65.36 806.78 50.05 790 30.62 790 100 770 100 770 0 790 0 790 0.01 819.99 34.75 849.98 0 870 0"/><polygon class="cls-1" points="900 20 900 40 980 40 980 60 900 60 900 80 980 80 980 100 880 100 880 0 980 0 980 20 900 20"/><path class="cls-1" d="M1090,30a30,30,0,0,0-30-30H990V100h20V60h50a10,10,0,0,1,10,10v30h20V70a29.862,29.862,0,0,0-7.65-20A29.862,29.862,0,0,0,1090,30Zm-80,10V20h50a10,10,0,0,1,0,20Z"/><path class="cls-1" d="M210,30A30,30,0,0,0,180,0H110V100h20V60h50a10,10,0,0,1,10,10v30h20V70a29.862,29.862,0,0,0-7.65-20A29.862,29.862,0,0,0,210,30ZM130,40V20h50a10,10,0,0,1,0,20Z"/><path class="cls-1" d="M540,30A30,30,0,0,0,510,0H440V100h20V60h50a10,10,0,0,1,10,10v30h20V70a29.862,29.862,0,0,0-7.65-20A29.862,29.862,0,0,0,540,30ZM460,40V20h50a10,10,0,0,1,0,20Z"/><path class="cls-1" d="M270,0a50,50,0,1,0,50,50A50.005,50.005,0,0,0,270,0Zm0,80a30,30,0,1,1,30-30A30,30,0,0,1,270,80Z"/><path class="cls-1" d="M610.77,1.95,609.99,0H590.01l-.78,1.94L550,100h21.55l11.2-28h34.5l11.2,28H650ZM590.75,52,600,28.87,609.25,52Z"/><path class="cls-1" d="M430,40V50a49.16,49.16,0,0,1-1.01,10,50.013,50.013,0,1,1-13.64-45.35L401.21,28.79A30,30,0,1,0,408.28,60H380V40Z"/><path class="cls-1" d="M70,0H0V100H20V60H70A30,30,0,0,0,70,0Zm0,40H20V20H70a10,10,0,0,1,0,20Z"/></g></g></g></svg>