<svg xmlns="http://www.w3.org/2000/svg" viewBox="0 0 870 100"><defs><style>.cls-1{fill:#121221;}</style></defs><title>projects</title><g id="Слой_2" data-name="Слой 2"><g id="Work_space" data-name="Work space"><g id="projects"><path class="cls-1" d="M629.29,60H650a50,50,0,1,1,0-20H629.29a30,30,0,1,0,0,20Z"/><path class="cls-1" d="M790,30a10,10,0,0,0,10,10h40a30,30,0,0,1,0,60H770V80h70a10,10,0,0,0,0-20H800a30,30,0,0,1,0-60h70V20H800A10,10,0,0,0,790,30Z"/><polygon class="cls-1" points="460 20 460 40 540 40 540 60 460 60 460 80 540 80 540 100 440 100 440 0 540 0 540 20 460 20"/><path class="cls-1" d="M210,30A30,30,0,0,0,180,0H110V100h20V60h50a10,10,0,0,1,10,10v30h20V70a29.862,29.862,0,0,0-7.65-20A29.862,29.862,0,0,0,210,30ZM130,40V20h50a10,10,0,0,1,0,20Z"/><path class="cls-1" d="M270,0a50,50,0,1,0,50,50A50.005,50.005,0,0,0,270,0Zm0,80a30,30,0,1,1,30-30A30,30,0,0,1,270,80Z"/><path class="cls-1" d="M70,0H0V100H20V60H70A30,30,0,0,0,70,0Zm0,40H20V20H70a10,10,0,0,1,0,20Z"/><polygon class="cls-1" points="760 0 760 20 720 20 720 100 700 100 700 20 660 20 660 0 760 0"/><path class="cls-1" d="M430,0V50a49.992,49.992,0,0,1-85.35,35.35l14.14-14.14A30,30,0,0,0,410,50V20H330V0Z"/></g></g></g></svg>