<svg xmlns="http://www.w3.org/2000/svg" viewBox="0 0 1417.393 433.282"><defs><style>.cls-1{fill:#121221;}.cls-2,.cls-3,.cls-4,.cls-5,.cls-6{fill:#366ce1;}.cls-3{opacity:0.3;}.cls-4{opacity:0.12;}.cls-5{opacity:0.65;}.cls-6{opacity:0.47;}.cls-7{opacity:0.83;}</style></defs><title>q</title><g id="Слой_2" data-name="Слой 2"><g id="Patterns"><g id="q"><polygon class="cls-1" points="980 113.282 980 213.282 960 213.282 900 143.872 900 213.282 880 213.282 880 113.282 900 113.282 960 182.692 960 113.282 980 113.282"/><path class="cls-1" d="M50,113.282H0v100H50a50,50,0,0,0,0-100Zm0,80H20v-60H50a30,30,0,0,1,0,60Z"/><polygon class="cls-1" points="392.83 159.742 390 163.282 390.05 163.282 390.05 213.282 370.05 213.282 370.05 163.282 367.22 159.742 330.05 113.282 355.66 113.282 380.02 143.732 404.38 113.282 430 113.282 392.83 159.742"/><path class="cls-1" d="M650,113.282v50a50,50,0,1,1-100,0v-50h20v50a30,30,0,1,0,60,0v-50Z"/><path class="cls-1" d="M1040,113.282a50,50,0,1,0,50,50A50.005,50.005,0,0,0,1040,113.282Zm0,80a30,30,0,1,1,30-30A30,30,0,0,1,1040,193.282Z"/><path class="cls-1" d="M490,113.282a50,50,0,1,0,50,50A50.005,50.005,0,0,0,490,113.282Zm0,80a30,30,0,1,1,30-30A30,30,0,0,1,490,193.282Z"/><path class="cls-1" d="M160,113.282a50,50,0,1,0,50,50A50.005,50.005,0,0,0,160,113.282Zm0,80a30,30,0,1,1,30-30A30,30,0,0,1,160,193.282Z"/><polygon class="cls-1" points="870 213.272 870 213.282 840.13 213.282 799.51 176.712 790 185.282 790 213.282 770 213.282 770 113.282 790 113.282 790 158.372 799.51 149.802 840.07 113.282 869.97 113.282 814.46 163.262 870 213.272"/><path class="cls-1" d="M1189.38,113.282l-14.46,57.86-14.56-56.71-.3-1.15h-14.91l-.03.11v-.11H1140l-.29,1.16-14.54,56.59-14.43-57.75h-20.62v.02l24.61,98.41.39,1.57h19.86l.38-1.5,14.67-57.13,14.7,57.24.35,1.39h15.03l.01-.04v.04h4.87l.37-1.46,24.64-98.54Zm-19.26,50.99v.04l-.02-.04Zm0,47.53-.19.61.19-.64Z"/><polygon class="cls-1" points="1170.12 164.312 1170.1 164.272 1170.12 164.272 1170.12 164.312"/><polygon class="cls-1" points="1170.12 211.802 1169.93 212.412 1170.12 211.772 1170.12 211.802"/><polygon class="cls-1" points="1170.12 211.802 1169.93 212.412 1170.12 211.772 1170.12 211.802"/><polygon class="cls-1" points="980 223.282 980 323.282 960 323.282 960 283.282 900 283.282 900 323.282 880 323.282 880 223.282 900 223.282 900 263.282 960 263.282 960 223.282 980 223.282"/><path class="cls-1" d="M1040,223.282a50,50,0,1,0,50,50A50.005,50.005,0,0,0,1040,223.282Zm0,80a30,30,0,1,1,30-30A30,30,0,0,1,1040,303.282Z"/><path class="cls-1" d="M1189.38,223.282l-14.46,57.86-14.56-56.71-.3-1.15h-14.91l-.03.11v-.11H1140l-.29,1.16-14.54,56.59-14.43-57.75h-20.62v.02l24.61,98.41.39,1.57h19.86l.38-1.5,14.67-57.13,14.7,57.24.35,1.39h15.03l.01-.04v.04h4.87l.37-1.46,24.64-98.54Zm-19.26,50.99v.04l-.02-.04Zm0,47.53-.19.61.19-.64Z"/><polygon class="cls-1" points="1170.12 274.312 1170.1 274.272 1170.12 274.272 1170.12 274.312"/><polygon class="cls-1" points="1170.12 321.802 1169.93 322.412 1170.12 321.772 1170.12 321.802"/><polygon class="cls-1" points="1170.12 321.802 1169.93 322.412 1170.12 321.772 1170.12 321.802"/><polygon class="cls-1" points="1170 353.282 1170 413.282 1150 413.282 1150 433.282 1210 433.282 1210 413.282 1190 413.282 1190 353.282 1210 353.282 1210 333.282 1150 333.282 1150 353.282 1170 353.282"/><polygon class="cls-2" points="1170 353.282 1170 413.282 1150 413.282 1150 433.282 1210 433.282 1210 413.282 1190 413.282 1190 353.282 1210 353.282 1210 333.282 1150 333.282 1150 353.282 1170 353.282"/><polygon class="cls-1" points="770 353.282 770 413.282 750 413.282 750 433.282 810 433.282 810 413.282 790 413.282 790 353.282 810 353.282 810 333.282 750 333.282 750 353.282 770 353.282"/><polygon class="cls-3" points="770 353.282 770 413.282 750 413.282 750 433.282 810 433.282 810 413.282 790 413.282 790 353.282 810 353.282 810 333.282 750 333.282 750 353.282 770 353.282"/><polygon class="cls-1" points="640 333.282 640 433.282 660 433.282 720 363.872 720 433.282 740 433.282 740 333.282 720 333.282 660 402.692 660 333.282 640 333.282"/><polygon class="cls-4" points="640 333.282 640 433.282 660 433.282 720 363.872 720 433.282 740 433.282 740 333.282 720 333.282 660 402.692 660 333.282 640 333.282"/><polygon class="cls-1" points="610 353.282 610 373.282 530 373.282 530 393.282 610 393.282 610 413.282 530 413.282 530 433.282 630 433.282 630 333.282 530 333.282 530 353.282 610 353.282"/><path class="cls-1" d="M910,433.282h21.55l11.2-28h34.5l11.2,28H1010l-39.23-98.06-.78-1.94H950.01l-.78,1.95Zm40.75-48,9.25-23.13,9.25,23.13Z"/><path class="cls-5" d="M910,433.282h21.55l11.2-28h34.5l11.2,28H1010l-39.23-98.06-.78-1.94H950.01l-.78,1.95Zm40.75-48,9.25-23.13,9.25,23.13Z"/><path class="cls-1" d="M810,373.282v10a49.16,49.16,0,0,0,1.01,10,50.013,50.013,0,1,0,13.64-45.35l14.14,14.14a30,30,0,1,1-7.07,31.21H860v-20Z"/><path class="cls-6" d="M810,373.282v10a49.16,49.16,0,0,0,1.01,10,50.013,50.013,0,1,0,13.64-45.35l14.14,14.14a30,30,0,1,1-7.07,31.21H860v-20Z"/><path class="cls-1" d="M1140,433.282l-24.64-98.54-.37-1.46h-4.87v.04l-.01-.04h-15.03l-.35,1.39-14.7,57.24-14.67-57.13-.38-1.5h-19.86l-.39,1.57-24.61,98.41v.02h20.62l14.43-57.75,14.54,56.59.29,1.16h5.12v-.11l.03.11h14.91l.3-1.15,14.56-56.71,14.46,57.86Zm-39.9-50.99.02-.04v.04Zm.02-47.5-.19-.64.19.61Z"/><polygon class="cls-1" points="1100.12 382.252 1100.1 382.292 1100.12 382.292 1100.12 382.252"/><polygon class="cls-1" points="1100.12 334.762 1099.93 334.152 1100.12 334.792 1100.12 334.762"/><polygon class="cls-1" points="1100.12 334.762 1099.93 334.152 1100.12 334.792 1100.12 334.762"/><g class="cls-7"><path class="cls-2" d="M1140,433.282l-24.64-98.54-.37-1.46h-4.87v.04l-.01-.04h-15.03l-.35,1.39-14.7,57.24-14.67-57.13-.38-1.5h-19.86l-.39,1.57-24.61,98.41v.02h20.62l14.43-57.75,14.54,56.59.29,1.16h5.12v-.11l.03.11h14.91l.3-1.15,14.56-56.71,14.46,57.86Zm-39.9-50.99.02-.04v.04Zm.02-47.5-.19-.64.19.61Z"/><polygon class="cls-2" points="1100.12 382.252 1100.1 382.292 1100.12 382.292 1100.12 382.252"/><polygon class="cls-2" points="1100.12 334.762 1099.93 334.152 1100.12 334.792 1100.12 334.762"/><polygon class="cls-2" points="1100.12 334.762 1099.93 334.152 1100.12 334.792 1100.12 334.762"/></g><path class="cls-1" d="M50,333.282a50,50,0,1,0,50,50A50.005,50.005,0,0,0,50,333.282Zm0,80a30,30,0,1,1,30-30A30,30,0,0,1,50,413.282Z"/><polygon class="cls-1" points="200 333.282 200 353.282 160 353.282 160 433.282 140 433.282 140 353.282 100 353.282 100 333.282 200 333.282"/><circle class="cls-2" cx="1257.763" cy="410.477" r="22.804"/><path class="cls-1" d="M1417.393,114.022a114,114,0,0,1-114.022,114.021,22.812,22.812,0,0,0-22.8,22.8V364.869h-45.609V250.847a68.458,68.458,0,0,1,68.413-68.413A68.413,68.413,0,1,0,1255,65.654c-10.8,10.8-7.92,17.305-17.158,28.656-6.147,7.552-15.006,14.278-27.845,18.972h-20.62a114.008,114.008,0,0,1,228.013.74Z"/></g></g></g></svg>