<svg xmlns="http://www.w3.org/2000/svg" viewBox="0 0 430 100"><defs><style>.cls-1{fill:#121221;}</style></defs><title>teamlist</title><g id="Слой_2" data-name="Слой 2"><g id="Work_space" data-name="Work space"><g id="teamlist"><polygon class="cls-1" points="430 0 430 100 410 100 410 30.59 393.2 50.05 379.99 65.36 366.78 50.05 350 30.62 350 100 330 100 330 0 350 0 350 0.01 379.99 34.75 409.98 0 430 0"/><polygon class="cls-1" points="130 20 130 40 210 40 210 60 130 60 130 80 210 80 210 100 110 100 110 0 210 0 210 20 130 20"/><path class="cls-1" d="M280.77,1.95,279.99,0H260.01l-.78,1.94L220,100h21.55l11.2-28h34.5l11.2,28H320ZM260.75,52,270,28.87,279.25,52Z"/><polygon class="cls-1" points="100 0 100 20 60 20 60 100 40 100 40 20 0 20 0 0 100 0"/></g></g></g></svg>