<svg xmlns="http://www.w3.org/2000/svg" viewBox="0 0 340 430"><defs><style>.cls-1{fill:#366ce1;}.cls-2{fill:#121221;}.cls-3{fill:#e1e0e0;}</style></defs><title>cel</title><g id="Слой_2" data-name="Слой 2"><g id="Слой_3" data-name="Слой 3"><g id="cel"><path class="cls-1" d="M340,17V260L170,430H17A17,17,0,0,1,0,413V17A17,17,0,0,1,17,0H323A17,17,0,0,1,340,17Z"/><path class="cls-2" d="M170,430V277a17,17,0,0,1,17-17H340Z"/><path class="cls-2" d="M227.523,69.438c-32.671-29.4-83.041-28.78-115.031,1.36a85.006,85.006,0,0,0-8.5,114.52l-64.06,64.06a10,10,0,1,0,14.14,14.14l59.85-59.84,4.21-4.21a84.362,84.362,0,0,0,35.211,16.44,85.346,85.346,0,0,0,12.709,1.66c2.24.13,4.49.16,6.731.11h.039a86.279,86.279,0,0,0,13.771-1.46,84.469,84.469,0,0,0,43.829-22.99c.15-.14.291-.28.43-.42A85.025,85.025,0,0,0,227.523,69.438Zm-7.281,112.77a69.753,69.753,0,0,1-49.459,20.5c-.861,0-1.721-.02-2.591-.05a70.049,70.049,0,1,1,52.05-20.45Z"/><circle class="cls-3" cx="170" cy="112.788" r="35"/><path class="cls-3" d="M229.742,170.4a69.887,69.887,0,0,1-58.959,32.31c-.861,0-1.721-.02-2.591-.05a70.086,70.086,0,0,1-57.919-34.67A35.018,35.018,0,0,1,142,147.788h55A35,35,0,0,1,229.742,170.4Z"/></g></g></g></svg>