<svg xmlns="http://www.w3.org/2000/svg" viewBox="0 0 1166.339 300"><defs><style>.cls-1{fill:#366ce1;}.cls-2,.cls-3,.cls-4{fill:#121221;}.cls-3{opacity:0.38;}.cls-4{opacity:0.62;}</style></defs><title>engineer</title><g id="Слой_2" data-name="Слой 2"><g id="Слой_2-2" data-name="Слой 2"><g id="engineer"><polygon class="cls-1" points="706.339 120 706.339 180 726.339 180 726.339 200 666.339 200 666.339 180 686.339 180 686.339 120 666.339 120 666.339 100 726.339 100 726.339 120 706.339 120"/><polygon class="cls-1" points="836.339 100 836.339 200 816.339 200 756.339 130.59 756.339 200 736.339 200 736.339 100 756.339 100 816.339 169.41 816.339 100 836.339 100"/><polygon class="cls-1" points="546.339 100 546.339 200 526.339 200 466.339 130.59 466.339 200 446.339 200 446.339 100 466.339 100 526.339 169.41 526.339 100 546.339 100"/><polygon class="cls-1" points="356.339 120 356.339 140 436.339 140 436.339 160 356.339 160 356.339 180 436.339 180 436.339 200 336.339 200 336.339 100 436.339 100 436.339 120 356.339 120"/><polygon class="cls-1" points="866.339 120 866.339 140 946.339 140 946.339 160 866.339 160 866.339 180 946.339 180 946.339 200 846.339 200 846.339 100 946.339 100 946.339 120 866.339 120"/><polygon class="cls-2" points="976.339 120 976.339 140 1056.339 140 1056.339 160 976.339 160 976.339 180 1056.339 180 1056.339 200 956.339 200 956.339 100 1056.339 100 1056.339 120 976.339 120"/><path class="cls-2" d="M1166.339,130a30,30,0,0,0-30-30h-70V200h20V160h50a10,10,0,0,1,10,10v30h20V170a29.862,29.862,0,0,0-7.65-20A29.862,29.862,0,0,0,1166.339,130Zm-80,10V120h50a10,10,0,0,1,0,20Z"/><path class="cls-1" d="M656.339,140v10a49.16,49.16,0,0,1-1.01,10,50.013,50.013,0,1,1-13.64-45.35l-14.14,14.14a30,30,0,1,0,7.07,31.21h-28.28V140Z"/><path class="cls-1" d="M233.169,150q0-4.264-.4-8.43l46.064-26.595a15,15,0,0,0,5.491-20.491l-22.5-38.969a15,15,0,0,0-20.49-5.491L195.279,76.612a89.583,89.583,0,0,0-14.61-8.452V15a15,15,0,0,0-15-15h-45a15,15,0,0,0-15,15V68.16a89.625,89.625,0,0,0-14.61,8.452L45,50.024a15,15,0,0,0-20.49,5.491L2.012,94.484A15,15,0,0,0,7.5,114.975l46.064,26.6q-.395,4.163-.4,8.43t.4,8.43L7.5,185.025a15,15,0,0,0-5.491,20.491l22.5,38.969A15,15,0,0,0,45,249.976l46.057-26.589a89.63,89.63,0,0,0,14.61,8.453V285a15,15,0,0,0,15,15h45a15,15,0,0,0,15-15V231.84a89.588,89.588,0,0,0,14.61-8.453l46.058,26.589a15,15,0,0,0,20.49-5.491l22.5-38.969a15,15,0,0,0-5.491-20.491L232.772,158.43Q233.165,154.267,233.169,150Zm-24.337,36.27c-.023.037-.038.068-.06.1a.008.008,0,0,1-.008.008l-1.26,2.182c-.06.113-.127.217-.195.33a75.024,75.024,0,0,1-128.28,0c-.067-.113-.135-.217-.195-.33q-.653-1.08-1.26-2.182a.007.007,0,0,1-.007-.008,75.094,75.094,0,0,1,0-72.75.007.007,0,0,1,.007-.008q.608-1.1,1.26-2.182c.06-.113.128-.218.195-.33a75.024,75.024,0,0,1,128.28,0c.068.112.135.217.195.33l1.26,2.182a.008.008,0,0,1,.008.008c.022.037.037.067.06.105a75.115,75.115,0,0,1,0,72.54Z"/><path class="cls-1" d="M208.832,113.73c-.023-.038-.038-.068-.06-.105a.008.008,0,0,0-.008-.008l-1.26-2.182c-.06-.113-.127-.218-.195-.33a75.024,75.024,0,0,0-128.28,0c-.067.112-.135.217-.195.33q-.653,1.08-1.26,2.182a.007.007,0,0,0-.007.008,75.094,75.094,0,0,0,0,72.75.007.007,0,0,0,.007.008q.608,1.1,1.26,2.182c.06.113.128.217.195.33a75.024,75.024,0,0,0,128.28,0c.068-.113.135-.217.195-.33l1.26-2.182a.008.008,0,0,0,.008-.008c.022-.037.037-.068.06-.1a75.115,75.115,0,0,0,0-72.54ZM195.7,179.018c-.015.029-.03.052-.045.082a.007.007,0,0,1-.007.007l-1.013,1.748c-.045.09-.1.172-.15.262a60.026,60.026,0,0,1-102.63,0c-.052-.09-.105-.172-.15-.262l-1.012-1.748s-.008,0-.008-.007a60.1,60.1,0,0,1,0-58.2c0-.007.008-.007.008-.007l1.012-1.748c.045-.09.1-.172.15-.262a60.026,60.026,0,0,1,102.63,0c.053.09.1.172.15.262l1.013,1.748a.007.007,0,0,1,.007.007c.015.03.03.052.045.082a60.1,60.1,0,0,1,0,58.036Z"/><path class="cls-1" d="M195.7,120.982c-.015-.03-.03-.052-.045-.082a.007.007,0,0,0-.007-.007l-1.013-1.748c-.045-.09-.1-.172-.15-.262a60.026,60.026,0,0,0-102.63,0c-.052.09-.105.172-.15.262l-1.012,1.748s-.008,0-.008.007a60.1,60.1,0,0,0,0,58.2c0,.007.008.007.008.007l1.012,1.748c.045.09.1.172.15.262a60.026,60.026,0,0,0,102.63,0c.053-.09.1-.172.15-.262l1.013-1.748a.007.007,0,0,0,.007-.007c.015-.03.03-.053.045-.082a60.1,60.1,0,0,0,0-58.036Zm-13.132,50.783a.285.285,0,0,1-.038.06v.007l-.765,1.313a1.3,1.3,0,0,1-.112.195,45.015,45.015,0,0,1-76.965,0,1.306,1.306,0,0,1-.113-.195l-.765-1.313v-.007a45.048,45.048,0,0,1,0-43.65v-.007l.765-1.313a1.258,1.258,0,0,1,.113-.2,45.015,45.015,0,0,1,76.965,0,1.25,1.25,0,0,1,.112.2l.765,1.313v.007a.285.285,0,0,1,.038.06,45.082,45.082,0,0,1,0,43.53Z"/><path class="cls-3" d="M208.832,113.73c-.023-.038-.038-.068-.06-.105a.008.008,0,0,0-.008-.008l-1.26-2.182c-.06-.113-.127-.218-.195-.33a75.024,75.024,0,0,0-128.28,0c-.067.112-.135.217-.195.33q-.653,1.08-1.26,2.182a.007.007,0,0,0-.007.008,75.094,75.094,0,0,0,0,72.75.007.007,0,0,0,.007.008q.608,1.1,1.26,2.182c.06.113.128.217.195.33a75.024,75.024,0,0,0,128.28,0c.068-.113.135-.217.195-.33l1.26-2.182a.008.008,0,0,0,.008-.008c.022-.037.037-.068.06-.1a75.115,75.115,0,0,0,0-72.54ZM195.7,179.018c-.015.029-.03.052-.045.082a.007.007,0,0,1-.007.007l-1.013,1.748c-.045.09-.1.172-.15.262a60.026,60.026,0,0,1-102.63,0c-.052-.09-.105-.172-.15-.262l-1.012-1.748s-.008,0-.008-.007a60.1,60.1,0,0,1,0-58.2c0-.007.008-.007.008-.007l1.012-1.748c.045-.09.1-.172.15-.262a60.026,60.026,0,0,1,102.63,0c.053.09.1.172.15.262l1.013,1.748a.007.007,0,0,1,.007.007c.015.03.03.052.045.082a60.1,60.1,0,0,1,0,58.036Z"/><path class="cls-4" d="M195.7,120.982c-.015-.03-.03-.052-.045-.082a.007.007,0,0,0-.007-.007l-1.013-1.748c-.045-.09-.1-.172-.15-.262a60.026,60.026,0,0,0-102.63,0c-.052.09-.105.172-.15.262l-1.012,1.748s-.008,0-.008.007a60.1,60.1,0,0,0,0,58.2c0,.007.008.007.008.007l1.012,1.748c.045.09.1.172.15.262a60.026,60.026,0,0,0,102.63,0c.053-.09.1-.172.15-.262l1.013-1.748a.007.007,0,0,0,.007-.007c.015-.03.03-.053.045-.082a60.1,60.1,0,0,0,0-58.036Zm-13.132,50.783a.285.285,0,0,1-.038.06v.007l-.765,1.313a1.3,1.3,0,0,1-.112.195,45.015,45.015,0,0,1-76.965,0,1.306,1.306,0,0,1-.113-.195l-.765-1.313v-.007a45.048,45.048,0,0,1,0-43.65v-.007l.765-1.313a1.258,1.258,0,0,1,.113-.2,45.015,45.015,0,0,1,76.965,0,1.25,1.25,0,0,1,.112.2l.765,1.313v.007a.285.285,0,0,1,.038.06,45.082,45.082,0,0,1,0,43.53Z"/></g></g></g></svg>