<svg xmlns="http://www.w3.org/2000/svg" viewBox="0 0 649.816 300"><defs><style>.cls-1{fill:#121221;}.cls-2{fill:#366ce1;}</style></defs><title>pdf</title><g id="Слой_2" data-name="Слой 2"><g id="Слой_3" data-name="Слой 3"><g id="pdf"><polygon class="cls-1" points="569.816 120 569.816 140 629.816 140 629.816 160 569.816 160 569.816 200 549.816 200 549.816 100 649.816 100 649.816 120 569.816 120"/><path class="cls-1" d="M488.507,100h-50V200h50a50,50,0,0,0,0-100Zm0,80h-30V120h30a30,30,0,0,1,0,60Z"/><path class="cls-1" d="M397.2,100h-70V200h20V160h50a30,30,0,0,0,0-60Zm0,40h-50V120h50a10,10,0,0,1,0,20Z"/><path class="cls-1" d="M150,0A150,150,0,1,0,300,150,150,150,0,0,0,150,0Zm0,280A130,130,0,1,1,280,150,130,130,0,0,1,150,280Z"/><path class="cls-2" d="M220,135v60a20,20,0,0,1-20,20H100a20,20,0,0,1-20-20V135a20,20,0,0,1,20-20h0v80H200V115h0A20,20,0,0,1,220,135Z"/><path class="cls-2" d="M180,145l-30,30-30-30h20V85a10,10,0,0,1,10-10h0a10,10,0,0,1,10,10v60Z"/></g></g></g></svg>