<svg xmlns="http://www.w3.org/2000/svg" viewBox="0 0 1427 300"><defs><style>.cls-1{fill:#366ce1;}.cls-2,.cls-3,.cls-4{fill:#121221;}.cls-3{opacity:0.62;}.cls-4{opacity:0.38;}</style></defs><title>psychologist</title><g id="Слой_2" data-name="Слой 2"><g id="Слой_2-2" data-name="Слой 2"><g id="psychologist"><path class="cls-1" d="M807,170a50,50,0,1,0,50,50A50.005,50.005,0,0,0,807,170Zm0,90a40,40,0,1,1,40-40A40,40,0,0,1,807,260Z"/><path class="cls-1" d="M1017,170a50,50,0,1,0,50,50A50.005,50.005,0,0,0,1017,170Zm0,90a40,40,0,1,1,40-40A40,40,0,0,1,1017,260Z"/><path class="cls-1" d="M625.28,248.28l7.07,7.07a50,50,0,1,1,0-70.7l-7.07,7.07a40,40,0,1,0,0,56.56Z"/><path class="cls-1" d="M287,170H217V270h10V230h60a30,30,0,0,0,0-60Zm0,50H227V180h60a20,20,0,0,1,0,40Z"/><polygon class="cls-1" points="967 260 967 270 867 270 867 170 877 170 877 260 967 260"/><path class="cls-1" d="M337,197.5A17.506,17.506,0,0,0,354.5,215h45a27.5,27.5,0,0,1,7.5,53.95,26.911,26.911,0,0,1-7.5,1.05H327V260h72.5a17.5,17.5,0,0,0,0-35h-45a27.5,27.5,0,0,1-7.5-53.95,26.911,26.911,0,0,1,7.5-1.05H427v10H354.5A17.506,17.506,0,0,0,337,197.5Z"/><path class="cls-2" d="M1227,197.5a17.506,17.506,0,0,0,17.5,17.5h45a27.5,27.5,0,0,1,7.5,53.95,26.911,26.911,0,0,1-7.5,1.05H1217V260h72.5a17.5,17.5,0,0,0,0-35h-45a27.5,27.5,0,0,1-7.5-53.95,26.911,26.911,0,0,1,7.5-1.05H1317v10h-72.5A17.506,17.506,0,0,0,1227,197.5Z"/><polygon class="cls-2" points="1197 180 1197 260 1207 260 1207 270 1177 270 1177 260 1187 260 1187 180 1177 180 1177 170 1207 170 1207 180 1197 180"/><polygon class="cls-1" points="737 225 657 225 657 270 647 270 647 170 657 170 657 215 737 215 737 170 747 170 747 270 737 270 737 225"/><polygon class="cls-1" points="537 170 493.74 218.16 492.01 220.09 492.01 270 482.01 270 482.01 220.06 480.3 218.16 437.04 170 450.49 170 487.02 210.68 523.56 170 537 170"/><path class="cls-1" d="M1177,220a48.521,48.521,0,0,1-.25,5,50.016,50.016,0,1,1-14.4-40.35l-7.07,7.07A39.992,39.992,0,1,0,1166.69,225H1127V215h49.75A48.521,48.521,0,0,1,1177,220Z"/><polygon class="cls-2" points="1427 170 1427 180 1382 180 1382 270 1372 270 1372 180 1327 180 1327 170 1427 170"/><circle class="cls-2" cx="125" cy="258.333" r="41.667"/><path class="cls-1" d="M250,83.333a83.332,83.332,0,0,1-83.333,83.334H83.333A83.334,83.334,0,1,1,125,11.15,83.353,83.353,0,0,1,250,83.333Z"/><path class="cls-1" d="M166.667,166.667A82.924,82.924,0,0,0,125,177.817a82.924,82.924,0,0,0-41.667-11.15Z"/><path class="cls-3" d="M166.667,166.667A82.924,82.924,0,0,0,125,177.817a82.924,82.924,0,0,0-41.667-11.15Z"/><path class="cls-1" d="M166.667,166.667v25A16.667,16.667,0,0,1,150,208.333H100a16.667,16.667,0,0,1-16.667-16.666v-25A82.924,82.924,0,0,1,125,177.817,82.924,82.924,0,0,1,166.667,166.667Z"/><path class="cls-4" d="M166.667,166.667v25A16.667,16.667,0,0,1,150,208.333H100a16.667,16.667,0,0,1-16.667-16.666v-25A82.924,82.924,0,0,1,125,177.817,82.924,82.924,0,0,1,166.667,166.667Z"/></g></g></g></svg>