<svg xmlns="http://www.w3.org/2000/svg" viewBox="0 0 1287.894 300"><defs><style>.cls-1,.cls-4{fill:#366ce1;}.cls-2,.cls-3{fill:#121221;}.cls-3{opacity:0.62;}.cls-4{opacity:0.38;}</style></defs><title>researcher-developer</title><g id="Слой_2" data-name="Слой 2"><g id="Слой_2-2" data-name="Слой 2"><g id="researcher_developer" data-name="researcher/developer"><path class="cls-1" d="M257.894,200h-50V300h50a50,50,0,0,0,0-100Zm0,80h-30V220h30a30,30,0,0,1,0,60Z"/><polygon class="cls-1" points="337.894 220 337.894 240 417.894 240 417.894 260 337.894 260 337.894 280 417.894 280 417.894 300 317.894 300 317.894 200 417.894 200 417.894 220 337.894 220"/><polygon class="cls-1" points="557.894 220 557.894 240 637.894 240 637.894 260 557.894 260 557.894 280 637.894 280 637.894 300 537.894 300 537.894 200 637.894 200 637.894 220 557.894 220"/><polygon class="cls-2" points="997.894 220 997.894 240 1077.894 240 1077.894 260 997.894 260 997.894 280 1077.894 280 1077.894 300 977.894 300 977.894 200 1077.894 200 1077.894 220 997.894 220"/><polygon class="cls-1" points="747.894 280 747.894 300 647.894 300 647.894 200 667.894 200 667.894 280 747.894 280"/><polygon class="cls-1" points="527.894 200 488.674 298.07 487.904 300 467.904 300 467.134 298.07 427.914 200 449.454 200 477.904 271.14 506.364 200 527.894 200"/><path class="cls-2" d="M1187.894,230a30,30,0,0,0-30-30h-70V300h20V260h50a10,10,0,0,1,10,10v30h20V270a29.862,29.862,0,0,0-7.65-20A29.862,29.862,0,0,0,1187.894,230Zm-80,10V220h50a10,10,0,0,1,0,20Z"/><path class="cls-1" d="M807.894,200a50,50,0,1,0,50,50A50.005,50.005,0,0,0,807.894,200Zm0,80a30,30,0,1,1,30-30A30,30,0,0,1,807.894,280Z"/><path class="cls-1" d="M937.894,200h-70V300h20V260h50a30,30,0,0,0,0-60Zm0,40h-50V220h50a10,10,0,0,1,0,20Z"/><path class="cls-1" d="M946.174,168.28l7.07,7.07a50,50,0,1,1,0-70.7l-7.07,7.07a40,40,0,1,0,0,56.56Z"/><polygon class="cls-1" points="327.894 100 327.894 135 417.894 135 417.894 145 327.894 145 327.894 180 417.894 180 417.894 190 317.894 190 317.894 90 417.894 90 417.894 100 327.894 100"/><polygon class="cls-1" points="547.894 100 547.894 135 637.894 135 637.894 145 547.894 145 547.894 180 637.894 180 637.894 190 537.894 190 537.894 90 637.894 90 637.894 100 547.894 100"/><polygon class="cls-2" points="1087.894 100 1087.894 135 1177.894 135 1177.894 145 1087.894 145 1087.894 180 1177.894 180 1177.894 190 1077.894 190 1077.894 90 1177.894 90 1177.894 100 1087.894 100"/><path class="cls-1" d="M727.594,145l-4.51-10-19.71-43.73.01-.01-.49-1.08h-.01L702.8,90h-9.84l-.08.18v.02l-.47,1.05h-.01L672.684,135l-4.51,10-20.28,45h10.97l20.28-45h37.48l20.28,45h10.97Zm-19.71-2.96-.02-.04h.02ZM683.654,135l14.23-31.58L712.124,135Z"/><path class="cls-1" d="M844.464,145a29.994,29.994,0,0,0-16.57-55h-70V190h10V150h60a19.994,19.994,0,0,1,20,20v20h10V170A29.923,29.923,0,0,0,844.464,145Zm-26.57-2.96-.02-.04h.02Zm10-2.04h-60V100h60a20,20,0,0,1,0,40Z"/><path class="cls-2" d="M1274.464,145a29.994,29.994,0,0,0-16.57-55h-70V190h10V150h60a19.994,19.994,0,0,1,20,20v20h10V170A29.923,29.923,0,0,0,1274.464,145Zm-26.57-2.96-.02-.04h.02Zm10-2.04h-60V100h60a20,20,0,0,1,0,40Z"/><path class="cls-1" d="M294.464,145a29.994,29.994,0,0,0-16.57-55h-70V190h10V150h60a19.994,19.994,0,0,1,20,20v20h10V170A29.923,29.923,0,0,0,294.464,145Zm-26.57-2.96-.02-.04h.02Zm10-2.04h-60V100h60a20,20,0,0,1,0,40Z"/><path class="cls-1" d="M437.894,117.5a17.506,17.506,0,0,0,17.5,17.5h45a27.5,27.5,0,0,1,7.5,53.95,26.911,26.911,0,0,1-7.5,1.05h-72.5V180h72.5a17.5,17.5,0,0,0,0-35h-45a27.5,27.5,0,0,1-7.5-53.95,26.911,26.911,0,0,1,7.5-1.05h72.5v10h-72.5A17.506,17.506,0,0,0,437.894,117.5Z"/><polygon class="cls-1" points="1057.894 145 977.894 145 977.894 190 967.894 190 967.894 90 977.894 90 977.894 135 1057.894 135 1057.894 90 1067.894 90 1067.894 190 1057.894 190 1057.894 145"/><path class="cls-2" d="M81.391,300h28.571a14.286,14.286,0,0,0,14.286-14.286V200H67.105v85.714A14.286,14.286,0,0,0,81.391,300Z"/><path class="cls-1" d="M189.159,221,107.791,90.811a14.286,14.286,0,0,0-24.229,0L2.194,221a14.286,14.286,0,0,0,12.115,21.857H177.044A14.286,14.286,0,0,0,189.159,221Z"/><path class="cls-3" d="M117.105,192.857v50h-7.143v-50a7.143,7.143,0,0,1-14.286,0,7.143,7.143,0,1,1-14.285,0v50H74.248v-50a7.143,7.143,0,0,1,14.286,0,7.143,7.143,0,1,1,14.285,0,7.143,7.143,0,0,1,14.286,0Z"/><circle class="cls-4" cx="95.676" cy="7.143" r="7.143"/><circle class="cls-4" cx="70.676" cy="32.143" r="10.714"/><circle class="cls-4" cx="127.819" cy="67.857" r="17.857"/></g></g></g></svg>