<svg xmlns="http://www.w3.org/2000/svg" viewBox="0 0 108 135"><defs><style>.cls-1{fill:#e1e0e0;}.cls-2,.cls-3,.cls-4{fill:#1c1d20;}.cls-2{opacity:0.38;}.cls-3{opacity:0.62;}</style></defs><title>event</title><g id="Слой_2" data-name="Слой 2"><g id="project"><g id="event"><path class="cls-1" d="M0,45H108a0,0,0,0,1,0,0v80a10,10,0,0,1-10,10H10A10,10,0,0,1,0,125V45A0,0,0,0,1,0,45Z"/><path class="cls-1" d="M10,9H98a10,10,0,0,1,10,10V45a0,0,0,0,1,0,0H0a0,0,0,0,1,0,0V19A10,10,0,0,1,10,9Z"/><path class="cls-2" d="M10,9H98a10,10,0,0,1,10,10V45a0,0,0,0,1,0,0H0a0,0,0,0,1,0,0V19A10,10,0,0,1,10,9Z"/><path class="cls-3" d="M0,45H108a0,0,0,0,1,0,0v80a10,10,0,0,1-10,10H10A10,10,0,0,1,0,125V45A0,0,0,0,1,0,45Z"/><rect class="cls-1" x="72" width="18" height="27" rx="5"/><rect class="cls-1" x="18" width="18" height="27" rx="5"/><polygon class="cls-4" points="54 54 65.125 76.541 90 80.156 72 97.701 76.249 122.476 54 110.779 31.751 122.476 36 97.701 18 80.156 42.875 76.541 54 54"/></g></g></g></svg>