<svg id="Слой_1" data-name="Слой 1" xmlns="http://www.w3.org/2000/svg" viewBox="0 0 675.846 405.695"><defs><style>.cls-1{fill:#e1e0e0;}.cls-1,.cls-2{stroke:#1d1e20;stroke-miterlimit:10;stroke-width:5px;}.cls-2{fill:none;}.cls-3{fill:#df1f26;}</style></defs><title>air</title><path class="cls-1" d="M719.793,418.4c-18.434-2.622-49.551-5.063-87.431-3.349A524.516,524.516,0,0,0,439.2,457.355a108.065,108.065,0,0,0-89.131,44.15c-17.94-20.069-45.253-43.41-79.226-43.825-25.495-.312-46.434,12.384-46.733,11.683-.428-1.026,45.37-27.456,105.15-46.733,102.449-33.038,192.177-27.768,257.032-23.367A908.211,908.211,0,0,1,719.793,418.4Z" transform="translate(-69.5 -393.5)"/><path class="cls-2" d="M738.174,422.63c-.13.091-.259.182-.4.285a10.161,10.161,0,0,1-2,.221c-13.267.636-80.537-4.414-172.848,11.177A869.5,869.5,0,0,0,445.3,462.963a78.488,78.488,0,0,1-8.386,23.574,68.136,68.136,0,0,1-14.189,17.876C401.6,523.34,369.787,527.754,340.942,516.1c.766-1.48,1.791-3.375,3.116-5.6,2.8-1.986,5.66-4.024,8.567-6.088-.83-.961-1.687-1.934-2.557-2.908a108.065,108.065,0,0,1,89.131-44.15,524.516,524.516,0,0,1,193.163-42.306c37.88-1.714,69,.727,87.431,3.349.012,0,.025.013.038,0Q728.867,420.384,738.174,422.63Z" transform="translate(-69.5 -393.5)"/><path class="cls-1" d="M737.772,422.915a133.125,133.125,0,0,0-34.648,34.765c-25,37.114-23.288,77.784-23.366,93.466-.636,120.039-114.8,251.373-128.517,245.349-3.31-1.454-.4-10.722,0-23.366,1.974-61.779-57.936-134.371-116.833-151.883-94.271-28.04-150.48,95.608-257.032,70.1-64.4-15.409-108.953-76.163-105.15-81.783,2.752-4.064,29.338,22.782,70.1,23.366,31.493.455,51.874-15.045,128.516-70.1,17.11-12.293,42.242-30.3,73.216-52.328-1.325,2.22-2.35,4.115-3.116,5.6,28.845,11.658,60.662,7.244,81.783-11.683a68.136,68.136,0,0,0,14.189-17.876,78.488,78.488,0,0,0,8.386-23.574,853.438,853.438,0,0,1,292.472-40.048Z" transform="translate(-69.5 -393.5)"/><path class="cls-3" d="M726.491,422.63c0,.117-.143.207-.39.285a9.419,9.419,0,0,1-1.921.221c-12.774.636-77.551-4.414-166.448,11.177a809.525,809.525,0,0,0-112.38,28.365c-.013.09-.039.194-.052.285a78.488,78.488,0,0,1-8.386,23.574,68.136,68.136,0,0,1-14.189,17.876C401.6,523.34,369.787,527.754,340.942,516.1c.766-1.48,1.791-3.375,3.116-5.6,1.57-2.622,3.557-5.686,6.01-9a108.065,108.065,0,0,1,89.131-44.15c1.817.026,3.466.1,4.907.195,23.652-10.71,64.92-26.028,113.626-34.92a507.244,507.244,0,0,1,66.868-7.581c36.477-1.714,66.439.727,84.184,3.349.013,0,.026.013.039,0C720.117,420.072,726.491,421.825,726.491,422.63Z" transform="translate(-69.5 -393.5)"/></svg>