<svg id="Слой_1" data-name="Слой 1" xmlns="http://www.w3.org/2000/svg" xmlns:xlink="http://www.w3.org/1999/xlink" viewBox="0 0 509 518.001"><defs><style>.cls-1{stroke:#df1f26;stroke-width:3px;fill:url(#Безымянный_градиент_5);}.cls-1,.cls-4,.cls-5,.cls-6{stroke-miterlimit:10;}.cls-2,.cls-5,.cls-6{fill:#1d1e20;}.cls-3{fill:#df1f26;}.cls-4{fill:#e1e0e0;}.cls-4,.cls-5,.cls-6{stroke:#1e1d20;stroke-width:5px;}.cls-4,.cls-6{opacity:0.83;}</style><radialGradient id="Безымянный_градиент_5" cx="640.88" cy="677.5" r="29.336" gradientTransform="translate(-344.304 -211.499) scale(1.167 1)" gradientUnits="userSpaceOnUse"><stop offset="0" stop-color="#e1e0e0"/><stop offset="1" stop-color="#1d1e20"/></radialGradient></defs><title>car</title><circle class="cls-1" cx="403.389" cy="466.001" r="31.5"/><path class="cls-2" d="M752.193,610c.7,64.614-112.824,90-252,90s-252-16.383-252-81c0-62.4-9.389-90,134.611-99,33.185-2.074,144,9,216,18,91.074,11.384,153,36,153.389,72" transform="translate(-245.304 -211.499)"/><path class="cls-3" d="M526.682,511a8.993,8.993,0,0,1-8.932-10.168c2.716-19.864,18.876-34.617,35.807-34.832,21.637-.274,38.507,23.276,36,45-1.333,11.546-8.067,21.963-18.021,28.731a40.259,40.259,0,0,0-17.979,33.194V574a9,9,0,0,1-9,9h0a9,9,0,0,1-9-9V561.863c0-15.105,8.969-28.5,22.568-35.08,7.107-3.437,12.129-9.294,13.432-15.781,2.38-11.849-7.335-27.347-18-27-7.369.241-15.435,8.052-17.519,19.658A8.964,8.964,0,0,1,527.2,511Z" transform="translate(-245.304 -211.499)"/><circle class="cls-3" cx="299.253" cy="389.503" r="9"/><path class="cls-3" d="M355.789,511a8.993,8.993,0,0,0,8.932-10.168C362,480.97,345.844,466.217,328.914,466c-21.637-.274-38.507,23.276-36,45,1.332,11.546,8.067,21.963,18.021,28.731a40.261,40.261,0,0,1,17.979,33.194V574a9,9,0,0,0,9,9h0a9,9,0,0,0,9-9V561.863c0-15.105-8.97-28.5-22.568-35.08-7.108-3.437-12.129-9.294-13.432-15.781-2.38-11.849,7.334-27.347,18-27,7.369.241,15.435,8.052,17.519,19.658a8.964,8.964,0,0,0,8.84,7.342Z" transform="translate(-245.304 -211.499)"/><circle class="cls-3" cx="92.61" cy="389.503" r="9"/><path class="cls-4" d="M751.8,574c0,64.617-162,72-252,72-72,0-252-7.383-252-72s67.824-162,207-162,297,97.383,297,162" transform="translate(-245.304 -211.499)"/><circle class="cls-5" cx="335.889" cy="479.501" r="36"/><ellipse class="cls-5" cx="61.389" cy="461.501" rx="31.5" ry="36"/><path class="cls-3" d="M464.193,673c-26.15,17.06-66.98,12.14-90-9-34.54-31.71-18.65-90.39-9-126,7.37-27.21,24.32-71.13,44.88-93.68a1.8,1.8,0,0,1,.19-.2,284.374,284.374,0,0,0,42.45,3.86c.9.01,1.73.02,2.48.02,1.77,0,3.76-.02,5.92-.07,17.64,26.87,27.41,77.58,30.08,108.07C494.683,595.82,499.433,650.01,464.193,673Z" transform="translate(-245.304 -211.499)"/><path class="cls-3" d="M461.113,447.93c-2.16.05-4.15.07-5.92.07-.75,0-1.58-.01-2.48-.02a284.374,284.374,0,0,1-42.45-3.86c8.5-9.28,17.62-14.88,26.93-14.12,7.68.63,14.52,5.52,20.54,13.18C458.893,444.66,460.023,446.25,461.113,447.93Z" transform="translate(-245.304 -211.499)"/><path class="cls-5" d="M527.193,430c0,13.64-42.88,17.39-66.08,17.93-2.16.05-4.15.07-5.92.07-.75,0-1.58-.01-2.48-.02a284.374,284.374,0,0,1-42.45-3.86c-.14-.02-.28-.05-.42-.08-14.57-2.69-26.65-7.07-26.65-14.04,0-4.97,4.43-9.63,11.54-13.63,14.19-8,39.05-13.37,60.46-13.37a155.189,155.189,0,0,1,27.21,2.54C506.2,409.85,527.193,419.18,527.193,430Z" transform="translate(-245.304 -211.499)"/><path class="cls-6" d="M403.583,223.88c26.15-16.37,66.97-11.65,90,8.63,34.54,30.41,18.64,86.69,9,120.84a318.563,318.563,0,0,1-20.18,52.19c-7.18,14.45-15.57,28.05-24.67,37.64a65.885,65.885,0,0,1-5.02,4.8,284.374,284.374,0,0,1-42.45-3.86,1.8,1.8,0,0,0-.19.2c-.08-.1-.16-.19-.23-.28-5.81-7.18-10.84-16.83-15.11-27.67-10.21-25.86-16.16-58.46-18.15-80.28-3.49-38.19-8.24-90.17,27-112.21" transform="translate(-245.304 -211.499)"/></svg>