<svg id="Слой_1" data-name="Слой 1" xmlns="http://www.w3.org/2000/svg" viewBox="0 0 534.67 484.87"><defs><style>.cls-1,.cls-3{fill:#1d1e20;}.cls-2{fill:#df1f26;}.cls-3,.cls-5{stroke:#1d1e20;stroke-miterlimit:10;stroke-width:5px;opacity:0.88;}.cls-4{fill:#230f10;}.cls-5{fill:#e1e0e0;}</style></defs><title>com</title><ellipse class="cls-1" cx="267.335" cy="416.431" rx="264.835" ry="65.934"/><path class="cls-2" d="M587.57,268.35v350.7c0,20.94-32.96,37.91-73.62,37.91s-73.63-16.97-73.63-37.91V268.35c0,20.94,32.96,37.91,73.63,37.91S587.57,289.29,587.57,268.35Z" transform="translate(-247.8 -202.62)"/><path class="cls-3" d="M779.97,271.05c0,36.42-118.57,65.94-264.84,65.94S250.3,307.47,250.3,271.05s118.57-65.93,264.83-65.93S779.97,234.64,779.97,271.05Z" transform="translate(-247.8 -202.62)"/><path class="cls-4" d="M587.57,268.35c0,20.94-32.96,37.91-73.62,37.91s-73.63-16.97-73.63-37.91,32.96-37.91,73.63-37.91S587.57,247.41,587.57,268.35Z" transform="translate(-247.8 -202.62)"/><path class="cls-5" d="M779.97,271.05v348c0,36.42-118.57,65.94-264.84,65.94S250.3,655.47,250.3,619.05v-348c0,36.42,118.57,65.94,264.83,65.94S779.97,307.47,779.97,271.05Z" transform="translate(-247.8 -202.62)"/></svg>