<svg id="Слой_1" data-name="Слой 1" xmlns="http://www.w3.org/2000/svg" viewBox="0 0 360 346"><defs><style>.cls-1{fill:#1d1e20;}.cls-2{fill:#e1e0e0;}.cls-3{fill:#df1f26;}</style></defs><title>gla</title><path class="cls-1" d="M588.64,336.31A179.2,179.2,0,0,1,611.88,352a16.647,16.647,0,0,1,.12,2c0,6.31-3.61,12.11-9.65,16.71-5.37,4.09-12.68,7.22-21.09,8.9a138.62,138.62,0,0,0-21.37-12.63q9.705-10.335,19.39-20.69Q583.975,341.295,588.64,336.31Z" transform="translate(-320 -327)"/><path class="cls-1" d="M421.57,330.95q7.545,7.11,15.1,14.21,8.58,8.085,17.17,16.16a139.02,139.02,0,0,0-33.02,16.81,48.042,48.042,0,0,1-15.17-7.42c-6.04-4.6-9.65-10.4-9.65-16.71a18,18,0,0,1,3.35-10.24A179.672,179.672,0,0,1,421.57,330.95Z" transform="translate(-320 -327)"/><path class="cls-2" d="M567,327c23.73,0,43.17,11.02,44.88,25a16.647,16.647,0,0,1,.12,2c0,6.31-3.61,12.11-9.65,16.71-5.37,4.09-12.68,7.22-21.09,8.9A72.609,72.609,0,0,1,567,381c-14.34,0-27.11-4.02-35.35-10.29-6.04-4.6-9.65-10.4-9.65-16.71C522,339.09,542.15,327,567,327Z" transform="translate(-320 -327)"/><path class="cls-2" d="M441,327c24.85,0,45,12.09,45,27,0,6.31-3.61,12.11-9.65,16.71C468.11,376.98,455.34,381,441,381a69.965,69.965,0,0,1-20.18-2.87,48.042,48.042,0,0,1-15.17-7.42c-6.04-4.6-9.65-10.4-9.65-16.71a18,18,0,0,1,3.35-10.24C406.07,333.93,422.19,327,441,327Z" transform="translate(-320 -327)"/><path class="cls-3" d="M441,345c19.88,0,36,9.67,36,21.6a13.283,13.283,0,0,1-.65,4.11c-3.2,9.97-17.81,17.49-35.35,17.49-9.91,0-18.88-2.4-25.39-6.29q2.55-1.95,5.21-3.78a48.042,48.042,0,0,1-15.17-7.42,13.283,13.283,0,0,1-.65-4.11c0-11.05,13.83-20.16,31.67-21.44C438.09,345.05,439.53,345,441,345Z" transform="translate(-320 -327)"/><path class="cls-1" d="M612,354a16.647,16.647,0,0,0-.12-2,179.989,179.989,0,1,1-212.53-8.24A18,18,0,0,0,396,354c0,6.31,3.61,12.11,9.65,16.71a48.042,48.042,0,0,0,15.17,7.42q-2.655,1.83-5.21,3.78a139.516,139.516,0,1,0,171.88,2.45q-3.045-2.475-6.23-4.75c8.41-1.68,15.72-4.81,21.09-8.9C608.39,366.11,612,360.31,612,354Z" transform="translate(-320 -327)"/><path class="cls-3" d="M567,345a58.172,58.172,0,0,1,12.28,1.29C593.11,349.3,603,357.26,603,366.6a13.283,13.283,0,0,1-.65,4.11c-5.37,4.09-12.68,7.22-21.09,8.9q3.18,2.28,6.23,4.75A53.841,53.841,0,0,1,567,388.2c-17.54,0-32.15-7.52-35.35-17.49a13.283,13.283,0,0,1-.65-4.11C531,354.67,547.12,345,567,345Z" transform="translate(-320 -327)"/></svg>