<svg id="Слой_1" data-name="Слой 1" xmlns="http://www.w3.org/2000/svg" viewBox="0 0 384 472.5"><defs><style>.cls-1{fill:#e1e0e0;stroke:#1d1e20;stroke-miterlimit:10;stroke-width:5px;}.cls-2{fill:#230f10;}.cls-3{fill:#df1f26;}</style></defs><title>ibo</title><path class="cls-1" d="M738,659.619h0" transform="translate(-354 -294.5)"/><rect class="cls-1" x="141.5" y="2.5" width="92" height="85" rx="33.5"/><rect class="cls-1" x="98.25" y="83.5" width="178.5" height="153" rx="33.5"/><rect class="cls-1" x="144.75" y="231.5" width="85.5" height="116" rx="33.5"/><rect class="cls-1" x="63" y="294.5" width="249" height="67" rx="33.5"/><polyline class="cls-2" points="375 472.5 0 472.5 0 438 375 438"/><path class="cls-3" d="M729,732.5l-40.993-74.3A24.568,24.568,0,0,0,666.5,645.5H424.452a35.343,35.343,0,0,0-30.643,17.732L354,732.5H729" transform="translate(-354 -294.5)"/><path class="cls-1" d="M662.5,607l63,126" transform="translate(-354 -294.5)"/></svg>