<svg id="Слой_1" data-name="Слой 1" xmlns="http://www.w3.org/2000/svg" viewBox="0 0 425.5 666"><defs><style>.cls-1{fill:#e1e0e0;stroke:#1d1e20;stroke-width:5px;}.cls-1,.cls-2{stroke-miterlimit:10;}.cls-2{fill:none;stroke:#df1f26;stroke-width:38px;}.cls-3{fill:#1d1e20;}</style></defs><title>SBo</title><rect class="cls-1" x="2.5" y="3.438" width="399.525" height="623.648"/><line class="cls-2" x1="2.5" y1="75.547" x2="388.382" y2="75.547"/><line class="cls-2" x1="2.5" y1="346.445" x2="402.025" y2="346.445"/><line class="cls-2" x1="2.5" y1="627.086" x2="388.382" y2="627.086"/><polygon class="cls-3" points="119.435 256.795 132.525 219.928 121.955 234.905 119.435 139.861 116.916 234.905 106.343 219.928 119.435 256.795"/><polygon class="cls-3" points="253.907 139.861 240.817 176.728 251.388 161.751 253.907 256.795 256.427 161.751 266.999 176.728 253.907 139.861"/><polygon class="cls-3" points="128.205 536.073 141.295 499.205 130.725 514.183 128.205 419.139 125.686 514.183 115.113 499.205 128.205 536.073"/><polygon class="cls-3" points="262.677 419.139 249.587 456.006 260.158 441.029 262.677 536.073 265.197 441.029 275.769 456.006 262.677 419.139"/><rect class="cls-3" x="362.5" width="63" height="666" rx="31.5"/></svg>