<svg id="Слой_1" data-name="Слой 1" xmlns="http://www.w3.org/2000/svg" viewBox="0 0 441.785 286.619"><defs><style>.cls-1,.cls-5{fill:#e1e0e0;stroke:#1d1e20;stroke-width:5px;}.cls-1,.cls-4,.cls-5{stroke-miterlimit:10;}.cls-2{fill:#1d1e20;}.cls-3{fill:#df1f26;}.cls-4{fill:none;stroke:#df1f26;stroke-width:3px;}.cls-5{opacity:0.88;}</style></defs><title>spi</title><path class="cls-1" d="M738,659.619h0" transform="translate(-296.215 -375.5)"/><path class="cls-2" d="M608,528.959a48.955,48.955,0,0,1-1.749,12.955c-10.661,39.113-68.868,69.017-139.073,69.017-77.779,0-140.822-36.7-140.822-81.972s63.043-81.971,140.822-81.971S608,483.691,608,528.959Z" transform="translate(-296.215 -375.5)"/><path class="cls-2" d="M706.4,473.948c-29.158,10.455-99.468,30.56-100.151,59.7-.637,27.158,61.409,48.325,95.75,63.528" transform="translate(-296.215 -375.5)"/><path class="cls-3" d="M606.247,541.914v50.167A37.416,37.416,0,0,1,568.831,629.5H356.9a30.548,30.548,0,0,1-30.547-30.547V528.959c0,45.268,63.043,81.972,140.822,81.972C537.379,610.931,595.586,581.027,606.247,541.914Z" transform="translate(-296.215 -375.5)"/><line class="cls-4" x1="162.736" y1="2.5" x2="162.736" y2="256.462"/><line class="cls-4" x1="208.958" y1="2.5" x2="208.958" y2="256.462"/><line class="cls-4" x1="255.693" y1="2.5" x2="255.693" y2="256.462"/><line class="cls-4" x1="119.082" y1="2.5" x2="119.082" y2="256.462"/><line class="cls-4" x1="75.942" y1="4.247" x2="75.942" y2="258.209"/><path class="cls-5" d="M551.49,632.059H368.979c-38.806,1.65-70.264-32.046-70.264-73.612V453.262c0-41.566,31.458-75.262,70.264-75.262H551.49c38.806,0,70.264,33.7,70.264,75.262V558.447C621.754,600.013,590.3,633.709,551.49,632.059Z" transform="translate(-296.215 -375.5)"/></svg>