<svg xmlns="http://www.w3.org/2000/svg" viewBox="0 0 109 100"><defs><style>.cls-1{fill:#1d1e20;stroke:#231f20;}.cls-1,.cls-2{stroke-miterlimit:10;}.cls-2,.cls-3{fill:#ccc555;}.cls-2{stroke:#fff;stroke-width:3px;}</style></defs><title>Achievement</title><g id="Слой_2" data-name="Слой 2"><g id="Слой_1-2" data-name="Слой 1"><g id="Achievement"><path class="cls-1" d="M108.5,52.447V99.5H.5V52.447C.5,33,17.58,17.211,38.75,17c-.32-.788-.64-1.568-.96-2.356.44-.816.89-1.632,1.33-2.447Q42.315,6.353,45.5.5h18q3.195,5.844,6.38,11.7c.44.815.89,1.631,1.33,2.447-.32.788-.64,1.568-.96,2.356C91.42,17.211,108.5,33,108.5,52.447Z"/><path class="cls-2" d="M54.63,45.5v36"/><path class="cls-2" d="M72.63,63.5h-36"/><path class="cls-3" d="M76.23,47.3a27,27,0,1,1-43.2,0Q25.89,33.035,18.76,18.77c.7-.49,1.41-.96,2.12-1.4,2.44-1.21,4.87-2.43,7.31-3.65a56.838,56.838,0,0,1,8.83-2.65l.9,3.57c.32,1.29.64,2.57.96,3.86q2.52,10.11,5.05,20.21a27.008,27.008,0,0,1,21.4,0Q67.85,28.6,70.38,18.5c.32-1.29.64-2.57.96-3.86l.9-3.57a56.838,56.838,0,0,1,8.83,2.65c2.44,1.22,4.87,2.44,7.31,3.65.71.44,1.42.91,2.12,1.4Q83.36,33.035,76.23,47.3Z"/></g></g></g></svg>