<svg id="Слой_1" data-name="Слой 1" xmlns="http://www.w3.org/2000/svg" viewBox="0 0 248 143.536"><defs><style>.cls-1{fill:#e1e0e0;stroke:#1e1d20;}.cls-1,.cls-2{stroke-miterlimit:10;stroke-width:5px;}.cls-2{fill:none;stroke:#df1f26;}</style></defs><title>bed</title><path class="cls-1" d="M504,495c0,3,.06,5.95.18,8.82L504,504v9H314.23c-1.85,20.97-6.85,36-12.73,36-7.46,0-13.5-24.18-13.5-54,0-23.5,3.75-43.5,9-50.92,1.4-1.99,2.92-3.08,4.5-3.08h216C510.04,441,504,465.18,504,495Z" transform="translate(-285.5 -438.5)"/><rect class="cls-1" x="2.5" y="65.5" width="216" height="72"/><path class="cls-1" d="M531,495v54l-27,27V504l.18-.18c-.12-2.87-.18-5.82-.18-8.82,0-29.82,6.04-54,13.5-54,1.58,0,3.09,1.08,4.5,3.07,3.9,5.5,6.97,17.96,8.29,33.64C530.75,483.14,531,488.95,531,495Z" transform="translate(-285.5 -438.5)"/><line class="cls-2" x1="218.5" y1="56.5" x2="2.5" y2="56.5"/><line class="cls-2" x1="218.5" y1="47.5" x2="2.5" y2="47.5"/><line class="cls-2" x1="219.5" y1="38.5" x2="3.5" y2="38.5"/><line class="cls-2" x1="220.5" y1="29.5" x2="4.5" y2="29.5"/><line class="cls-2" x1="221.5" y1="20.5" x2="5.5" y2="20.5"/><line class="cls-2" x1="224.5" y1="11.5" x2="8.5" y2="11.5"/></svg>