<svg id="Слой_1" data-name="Слой 1" xmlns="http://www.w3.org/2000/svg" viewBox="0 0 227.5 236.52"><defs><style>.cls-1,.cls-4{fill:#df1f26;}.cls-1{stroke:#1d1e20;stroke-miterlimit:10;stroke-width:5px;}.cls-2{fill:#230f10;}.cls-3{fill:#1d1e20;}</style></defs><title>clo</title><ellipse class="cls-1" cx="56.5" cy="38.5" rx="54" ry="36"/><path class="cls-1" d="M540,468V612c0,19.88-24.18,36-54,36s-54-16.12-54-36V468c0,19.88,24.18,36,54,36S540,487.88,540,468Z" transform="translate(-429.5 -429.5)"/><path class="cls-2" d="M522,459v9c0,9.94-16.12,18-36,18s-36-8.06-36-18v-9h4.82c6.23-5.38,17.86-9,31.18-9s24.95,3.62,31.18,9Z" transform="translate(-429.5 -429.5)"/><ellipse class="cls-3" cx="56.5" cy="29.5" rx="36" ry="18"/><path class="cls-4" d="M432,477c3.96,9.9,9.987,18.992,18.159,25.532a45.651,45.651,0,0,0,13.532,7.475,66.312,66.312,0,0,0,15.168,3.416,102.153,102.153,0,0,0,31.166-1.716A110.267,110.267,0,0,0,539.5,501.441c4.635-2.365,9.118-5.335,14.449-7.468a24.343,24.343,0,0,1,8.633-1.807,20.979,20.979,0,0,1,8.772,1.772A24.2,24.2,0,0,1,578.53,499c2.009,1.969,3.725,3.971,5.567,5.717a27.046,27.046,0,0,0,5.944,4.423,27.957,27.957,0,0,0,6.936,2.58,22.513,22.513,0,0,0,7.36.371c2.5-.256,5.122-.894,7.921-1.163a25.249,25.249,0,0,1,8.457.553,27.077,27.077,0,0,1,7.753,3.156,40.111,40.111,0,0,1,11.772,11.282A74.807,74.807,0,0,1,648,540a84.492,84.492,0,0,0-8.855-13.231,39.165,39.165,0,0,0-11.869-9.986,23.541,23.541,0,0,0-14.62-2.6c-2.5.379-5.072,1.089-7.866,1.492a26.346,26.346,0,0,1-8.569-.124,31.961,31.961,0,0,1-8.125-2.692,30.707,30.707,0,0,1-6.986-4.936c-2.073-1.886-3.885-3.9-5.731-5.628a19.547,19.547,0,0,0-5.9-4.006,17,17,0,0,0-6.814-1.293,19.467,19.467,0,0,0-6.933,1.528c-4.6,1.855-9.073,4.823-13.918,7.348a112.811,112.811,0,0,1-47.12,12.255c-2.722.119-5.453.08-8.179-.033-2.725-.174-5.448-.393-8.152-.813a72.022,72.022,0,0,1-8.044-1.629,55.875,55.875,0,0,1-7.8-2.6,48,48,0,0,1-13.945-8.663A58.758,58.758,0,0,1,432,477Z" transform="translate(-429.5 -429.5)"/><path class="cls-3" d="M441,612a85.282,85.282,0,0,0,21.529,11.461,76.277,76.277,0,0,0,11.6,3l2.948.467c.988.115,1.981.188,2.969.285l1.483.148,1.491.045,2.98.094a75.629,75.629,0,0,0,23.491-4.056l2.833-1.038c.937-.368,1.845-.8,2.787-1.171s1.843-.825,2.755-1.266,1.839-.864,2.709-1.386l2.685-1.469,2.6-1.632,1.316-.812,1.255-.9c.852-.586,1.694-1.191,2.568-1.771-.674.791-1.379,1.557-2.074,2.343l-1.067,1.156-1.143,1.075c-.764.72-1.54,1.432-2.337,2.122l-2.484,1.958a58.812,58.812,0,0,1-10.968,6.419A62.31,62.31,0,0,1,486,632.5a63.943,63.943,0,0,1-12.781-1.395,59.31,59.31,0,0,1-12.147-4.04A56.669,56.669,0,0,1,441,612Z" transform="translate(-429.5 -429.5)"/><path class="cls-3" d="M557.924,666.02l90-126h0c4.667-8.2,9.763-17.509,9-18-.88-.565-9.348,10.69-27,36C612.52,582.973,588.012,618.973,557.924,666.02Z" transform="translate(-429.5 -429.5)"/></svg>