<svg id="Слой_1" data-name="Слой 1" xmlns="http://www.w3.org/2000/svg" viewBox="0 0 386.977 483.6"><defs><style>.cls-1{fill:#cccccc;stroke:#1d1e20;stroke-miterlimit:10;stroke-width:5px;}.cls-2{fill:#df1f26;}.cls-3{fill:#1d1e20;}.cls-4{fill:#230f10;}</style></defs><title>tch</title><path class="cls-1" d="M437,639a413.657,413.657,0,0,0,27-216,76.5,76.5,0,0,1,72,0,413.657,413.657,0,0,0,27,216c-3.79,3.98-26.46,27-63,27C494.5,666,462.2,665.46,437,639Z" transform="translate(-306.511 -209.4)"/><path class="cls-2" d="M653,403.2a61.241,61.241,0,0,1-72.431,60.169A40.807,40.807,0,0,1,500,454.2a40.807,40.807,0,0,1-80.569,9.169,61.2,61.2,0,0,1-53.3-104.607v-.011a81.643,81.643,0,0,1,93.749-116,40.806,40.806,0,0,1,80.24,0,81.631,81.631,0,0,1,93.749,116v.011A60.989,60.989,0,0,1,653,403.2Z" transform="translate(-306.511 -209.4)"/><path class="cls-3" d="M312.9,693H654.857a6.381,6.381,0,0,0,4.512-1.869l32.238-32.238A6.381,6.381,0,0,0,687.1,648H345.143a6.381,6.381,0,0,0-4.512,1.869l-32.238,32.238A6.381,6.381,0,0,0,312.9,693Z" transform="translate(-306.511 -209.4)"/><rect class="cls-4" x="26.989" y="420.6" width="324" height="45"/><path class="cls-4" d="M657.5,675l9-9V612l-9,9Z" transform="translate(-306.511 -209.4)"/><path class="cls-3" d="M312.9,648H654.857a6.381,6.381,0,0,0,4.512-1.869l32.238-32.238A6.381,6.381,0,0,0,687.1,603H345.143a6.381,6.381,0,0,0-4.512,1.869l-32.238,32.238A6.381,6.381,0,0,0,312.9,648Z" transform="translate(-306.511 -209.4)"/></svg>