<svg xmlns="http://www.w3.org/2000/svg" viewBox="0 0 820.838 860"><defs><style>.cls-1{fill:#366ce1;}.cls-2,.cls-3,.cls-5{fill:#121221;}.cls-2{opacity:0.38;}.cls-3{opacity:0.62;}.cls-4{fill:none;stroke:#1c1e20;stroke-miterlimit:10;stroke-width:3.3px;}</style></defs><title>wish</title><g id="Слой_2" data-name="Слой 2"><g id="Слой_3" data-name="Слой 3"><g id="wish"><path class="cls-1" d="M668.419,430q0-12.224-1.14-24.166L799.331,329.6a43,43,0,0,0,15.739-58.74l-64.5-111.713a43,43,0,0,0-58.737-15.74L559.8,219.622a256.917,256.917,0,0,0-41.882-24.23V43a43,43,0,0,0-43-43h-129a43,43,0,0,0-43,43V195.392a256.959,256.959,0,0,0-41.882,24.23L129.005,143.4a43,43,0,0,0-58.737,15.74L5.768,270.855A43,43,0,0,0,21.507,329.6l132.052,76.239q-1.129,11.932-1.14,24.166t1.14,24.166L21.507,530.405a43,43,0,0,0-15.739,58.74l64.5,111.713a43,43,0,0,0,58.737,15.74l132.032-76.221a256.964,256.964,0,0,0,41.882,24.231V817a43,43,0,0,0,43,43h129a43,43,0,0,0,43-43V664.608A256.922,256.922,0,0,0,559.8,640.377L691.833,716.6a43,43,0,0,0,58.737-15.74l64.5-111.713a43,43,0,0,0-15.739-58.74L667.279,454.166Q668.409,442.234,668.419,430ZM598.652,533.974c-.065.107-.108.194-.173.3a.021.021,0,0,1-.021.022l-3.612,6.256c-.172.323-.365.623-.559.946a215.07,215.07,0,0,1-367.736,0c-.193-.323-.387-.623-.559-.946q-1.87-3.1-3.612-6.256a.021.021,0,0,1-.021-.022,215.275,215.275,0,0,1,0-208.55.021.021,0,0,1,.021-.022q1.742-3.159,3.612-6.256c.172-.323.366-.624.559-.946a215.07,215.07,0,0,1,367.736,0c.194.322.387.623.559.946l3.612,6.256a.021.021,0,0,1,.021.022c.065.107.108.193.173.3a215.322,215.322,0,0,1,0,207.948Z"/><path class="cls-1" d="M598.652,326.026c-.065-.108-.108-.194-.173-.3a.021.021,0,0,0-.021-.022l-3.612-6.256c-.172-.323-.365-.624-.559-.946a215.07,215.07,0,0,0-367.736,0c-.193.322-.387.623-.559.946q-1.87,3.1-3.612,6.256a.021.021,0,0,0-.021.022,215.275,215.275,0,0,0,0,208.55.021.021,0,0,0,.021.022q1.742,3.159,3.612,6.256c.172.323.366.623.559.946a215.07,215.07,0,0,0,367.736,0c.194-.323.387-.623.559-.946l3.612-6.256a.021.021,0,0,0,.021-.022c.065-.107.108-.194.173-.3a215.322,215.322,0,0,0,0-207.948ZM561.005,513.184c-.043.085-.086.15-.129.236a.021.021,0,0,1-.022.021l-2.9,5.01c-.129.258-.279.494-.43.752a172.075,172.075,0,0,1-294.206,0c-.15-.258-.3-.494-.43-.752l-2.9-5.01a.021.021,0,0,1-.022-.021,172.283,172.283,0,0,1,0-166.84.021.021,0,0,1,.022-.021l2.9-5.01c.129-.258.28-.494.43-.752a172.075,172.075,0,0,1,294.206,0c.151.258.3.494.43.752l2.9,5.01a.021.021,0,0,1,.022.021c.043.086.086.15.129.236a172.274,172.274,0,0,1,0,166.368Z"/><path class="cls-1" d="M561.005,346.816c-.043-.086-.086-.15-.129-.236a.021.021,0,0,0-.022-.021l-2.9-5.01c-.129-.258-.279-.494-.43-.752a172.075,172.075,0,0,0-294.206,0c-.15.258-.3.494-.43.752l-2.9,5.01a.021.021,0,0,0-.022.021,172.283,172.283,0,0,0,0,166.84.021.021,0,0,0,.022.021l2.9,5.01c.129.258.28.494.43.752a172.075,172.075,0,0,0,294.206,0c.151-.258.3-.494.43-.752l2.9-5.01a.021.021,0,0,0,.022-.021c.043-.086.086-.151.129-.236a172.274,172.274,0,0,0,0-166.368ZM523.359,492.393a.775.775,0,0,1-.108.172v.021l-2.193,3.763a3.728,3.728,0,0,1-.322.559,129.044,129.044,0,0,1-220.633,0,3.736,3.736,0,0,1-.323-.559l-2.193-3.763v-.021a129.137,129.137,0,0,1,0-125.13v-.021l2.193-3.763a3.687,3.687,0,0,1,.323-.559,129.044,129.044,0,0,1,220.633,0,3.679,3.679,0,0,1,.322.559l2.193,3.763v.021a.775.775,0,0,1,.108.172,129.228,129.228,0,0,1,0,124.786Z"/><path class="cls-2" d="M598.652,326.026c-.065-.108-.108-.194-.173-.3a.021.021,0,0,0-.021-.022l-3.612-6.256c-.172-.323-.365-.624-.559-.946a215.07,215.07,0,0,0-367.736,0c-.193.322-.387.623-.559.946q-1.87,3.1-3.612,6.256a.021.021,0,0,0-.021.022,215.275,215.275,0,0,0,0,208.55.021.021,0,0,0,.021.022q1.742,3.159,3.612,6.256c.172.323.366.623.559.946a215.07,215.07,0,0,0,367.736,0c.194-.323.387-.623.559-.946l3.612-6.256a.021.021,0,0,0,.021-.022c.065-.107.108-.194.173-.3a215.322,215.322,0,0,0,0-207.948ZM561.005,513.184c-.043.085-.086.15-.129.236a.021.021,0,0,1-.022.021l-2.9,5.01c-.129.258-.279.494-.43.752a172.075,172.075,0,0,1-294.206,0c-.15-.258-.3-.494-.43-.752l-2.9-5.01a.021.021,0,0,1-.022-.021,172.283,172.283,0,0,1,0-166.84.021.021,0,0,1,.022-.021l2.9-5.01c.129-.258.28-.494.43-.752a172.075,172.075,0,0,1,294.206,0c.151.258.3.494.43.752l2.9,5.01a.021.021,0,0,1,.022.021c.043.086.086.15.129.236a172.274,172.274,0,0,1,0,166.368Z"/><path class="cls-3" d="M561.005,346.816c-.043-.086-.086-.15-.129-.236a.021.021,0,0,0-.022-.021l-2.9-5.01c-.129-.258-.279-.494-.43-.752a172.075,172.075,0,0,0-294.206,0c-.15.258-.3.494-.43.752l-2.9,5.01a.021.021,0,0,0-.022.021,172.283,172.283,0,0,0,0,166.84.021.021,0,0,0,.022.021l2.9,5.01c.129.258.28.494.43.752a172.075,172.075,0,0,0,294.206,0c.151-.258.3-.494.43-.752l2.9-5.01a.021.021,0,0,0,.022-.021c.043-.086.086-.151.129-.236a172.274,172.274,0,0,0,0-166.368ZM523.359,492.393a.775.775,0,0,1-.108.172v.021l-2.193,3.763a3.728,3.728,0,0,1-.322.559,129.044,129.044,0,0,1-220.633,0,3.736,3.736,0,0,1-.323-.559l-2.193-3.763v-.021a129.137,129.137,0,0,1,0-125.13v-.021l2.193-3.763a3.687,3.687,0,0,1,.323-.559,129.044,129.044,0,0,1,220.633,0,3.679,3.679,0,0,1,.322.559l2.193,3.763v.021a.775.775,0,0,1,.108.172,129.228,129.228,0,0,1,0,124.786Z"/><circle class="cls-4" cx="410.419" cy="430" r="66"/><circle class="cls-4" cx="410.419" cy="430" r="99"/><circle class="cls-4" cx="410.419" cy="430" r="165"/><path class="cls-4" d="M311.419,430h198"/><path class="cls-4" d="M410.419,331V529"/><path class="cls-4" d="M364.219,383.8l92.4,92.4"/><path class="cls-4" d="M456.619,383.8l-92.4,92.4"/><circle class="cls-5" cx="460.744" cy="480.325" r="4.125"/><circle class="cls-5" cx="360.094" cy="480.325" r="4.125"/><circle class="cls-5" cx="460.744" cy="379.689" r="4.125"/><circle class="cls-5" cx="360.094" cy="379.675" r="4.125"/><circle class="cls-5" cx="410.419" cy="538.024" r="8.25"/><circle class="cls-5" cx="410.419" cy="321.576" r="8.25"/><circle class="cls-5" cx="302.195" cy="430" r="8.25"/><circle class="cls-5" cx="518.643" cy="430" r="8.25"/><path class="cls-4" d="M492.919,572.894l-49.495-85.727"/><path class="cls-4" d="M377.47,372.407l-49.495-85.728"/><path class="cls-4" d="M553.4,512.7,467.668,463.2"/><path class="cls-4" d="M353.17,396.8,267.443,347.3"/><path class="cls-4" d="M480.423,500l46.669,46.669"/><path class="cls-4" d="M293.945,313.63,340.614,360.3"/><path class="cls-4" d="M267.312,512.5l85.727-49.495"/><path class="cls-4" d="M467.8,397.051l85.727-49.495"/><path class="cls-4" d="M327.507,572.976,377,487.249"/><path class="cls-4" d="M443.41,372.751q24.747-42.864,49.495-85.727"/><path class="cls-4" d="M340.2,500l-46.669,46.669"/><path class="cls-4" d="M526.576,313.526,479.907,360.2"/><circle class="cls-5" cx="492.919" cy="572.894" r="16.5"/><circle class="cls-5" cx="527.092" cy="546.673" r="16.5"/><circle class="cls-5" cx="553.396" cy="512.551" r="16.5"/><circle class="cls-5" cx="327.992" cy="287.216" r="16.5"/><circle class="cls-5" cx="293.819" cy="313.437" r="16.5"/><circle class="cls-5" cx="267.515" cy="347.559" r="16.5"/><circle class="cls-5" cx="267.58" cy="512.464" r="16.5"/><circle class="cls-5" cx="293.801" cy="546.636" r="16.5"/><circle class="cls-5" cx="327.923" cy="572.94" r="16.5"/><circle class="cls-5" cx="553.258" cy="347.536" r="16.5"/><circle class="cls-5" cx="527.037" cy="313.364" r="16.5"/><circle class="cls-5" cx="492.915" cy="287.06" r="16.5"/><circle class="cls-1" cx="410.419" cy="430" r="33"/></g></g></g></svg>