<svg xmlns="http://www.w3.org/2000/svg" viewBox="0 0 90 289.54"><defs><style>.cls-1{fill:#1d1e20;}</style></defs><title>Critic</title><g id="Слой_2" data-name="Слой 2"><g id="Слой_1-2" data-name="Слой 1"><g id="Critic"><path class="cls-1" d="M90,185.27a13.493,13.493,0,0,1-13.5,13.5h-63a13.5,13.5,0,1,1,0-27h63A13.493,13.493,0,0,1,90,185.27Z"/><path class="cls-1" d="M90,158.27a13.493,13.493,0,0,1-13.5,13.5h-63a13.5,13.5,0,1,1,0-27h63A13.493,13.493,0,0,1,90,158.27Z"/><path class="cls-1" d="M90,131.27a13.493,13.493,0,0,1-13.5,13.5h-63a13.5,13.5,0,1,1,0-27h63A13.493,13.493,0,0,1,90,131.27Z"/><path class="cls-1" d="M90,104.27a13.493,13.493,0,0,1-13.5,13.5h-63a13.5,13.5,0,1,1,0-27h63A13.493,13.493,0,0,1,90,104.27Z"/><path class="cls-1" d="M36,13.5V90H13.5a13.374,13.374,0,0,0-4.5.77V13.5A13.5,13.5,0,0,1,35.23,9,13.374,13.374,0,0,1,36,13.5Z"/><path class="cls-1" d="M81,198.77v77.27a13.5,13.5,0,1,1-27,0v-76.5H76.5A13.374,13.374,0,0,0,81,198.77Z"/></g></g></g></svg>