<svg id="Слой_1" data-name="Слой 1" xmlns="http://www.w3.org/2000/svg" viewBox="0 0 898.615 450.824"><defs><style>.cls-1{fill:#12121f;}.cls-2,.cls-4{fill:#e1e0e0;}.cls-2{stroke:#1d1e20;stroke-miterlimit:10;stroke-width:5px;}.cls-3{fill:#1d1e20;}</style></defs><title>wor</title><path class="cls-1" d="M719.473,541.133,536.316,724.327a34.407,34.407,0,0,1-47.381-.36l-91.6-91.6L306.605,723.1c-.36.431-.756.827-1.151,1.223a32.421,32.421,0,0,1-45.8,0L76.5,541.133a32.359,32.359,0,1,1,45.762-45.762L282.536,655.647l91.921-91.92a32.31,32.31,0,0,1,45.762,0L512.787,656.3,673.711,495.371a32.359,32.359,0,1,1,45.762,45.762Z" transform="translate(-67 -285.982)"/><path class="cls-2" d="M495.087,384.167c-1.007-52.454-44.431-95.266-97.1-95.266s-96.094,42.812-97.065,95.266c-.036.611-.072,1.259-.072,1.871a16.239,16.239,0,0,0,.072,1.87c.971,52.455,44.395,95.267,97.065,95.267s96.094-42.812,97.1-95.267c.036-.611.036-1.259.036-1.87S495.087,384.778,495.087,384.167Zm-97.1,34.25a32.379,32.379,0,1,1,32.379-32.379A32.521,32.521,0,0,1,397.986,418.417Z" transform="translate(-67 -285.982)"/><path class="cls-3" d="M892.684,301.988c-.85,3.376,1.1,7.41-.652,16.985-.415,2.266-.805,3.579-1.132,4.88-.938,3.735-4.9,19.519,1.8,32.493,1.856,3.595,5.4,10.484,12.3,12.636,14.142,4.41,30.028-14.9,33.876-19.583,6.268-7.621,15.106-18.366,13.216-32.884-.257-1.976-2.056-14.293-12.6-21.871C922.313,282.306,895.137,292.251,892.684,301.988Z" transform="translate(-67 -285.982)"/><path class="cls-3" d="M892.132,318.4a57.231,57.231,0,0,1-7.608,15.267c-2.992,4.229-5.878,7.012-4.9,9.4,1.021,2.5,5.582,2.788,6.742,2.861.92.058,6.2.389,7.356-2.452a4.728,4.728,0,0,0-.613-3.882" transform="translate(-67 -285.982)"/><path class="cls-4" d="M902,317.275a8.506,8.506,0,0,0-6.719,2.334,8.134,8.134,0,0,0,4.243,3.041c4.3,1.242,7.838-1.914,8.063-2.121A8.393,8.393,0,0,0,902,317.275Z" transform="translate(-67 -285.982)"/><path class="cls-1" d="M891.8,301.646c4.142-.2,17.27-.317,29.3,8.73,18.4,13.835,17.865,36.789,17.775,39.023-1.345,4.578-4.7,18.25,2.243,31.456,2.39,4.542,9.093,14.914,14,13.721,12.39-3.012,20.167-80.93-14.395-101.8-1.287-.777-21.155-12.392-37.327-3.388A29.917,29.917,0,0,0,891.8,301.646Z" transform="translate(-67 -285.982)"/><path class="cls-3" d="M909.449,369.628c-13.328,1.684-20.881,14.822-22.269,17.364-7.26,13.291-2.192,22.86,1.881,54.968,4.365,34.4.619,39.737,6.911,68.7A275.72,275.72,0,0,0,903.729,539l21.248,2.656c2.231-6.624,5.5-16.961,8.671-29.83,2.06-8.369,5.083-21.9,10.577-87.687,1.436-17.2,1.9-24.36-2.29-32.855C936.611,380.5,923.89,367.8,909.449,369.628Z" transform="translate(-67 -285.982)"/><path class="cls-3" d="M812.007,465.092c-1.019,3.12,4.789,9.125,11.424,10.815,7.494,1.909,12.435-2.608,22.5-5.638,7.4-2.226,11.523-1.83,26.859-1.859,35.244-.067,52.972-.207,58.134-5.422,3.117-3.148,3.771-15.634,4.951-40.477,1.288-27.119.518-35.09-5.021-42.363-1.206-1.583-8.445-11.088-17.732-10.114-8.718.915-13.675,10.48-13.882,10.892-4.063,8.117-1.4,16.052,7.992,46.465,2.993,9.687,5.307,17.243,6.3,20.486a270.628,270.628,0,0,0-43.428,6.389c-15.358,3.581-18.652,5.849-31.554,7.3C822.655,463.353,813.168,461.538,812.007,465.092Z" transform="translate(-67 -285.982)"/><path class="cls-1" d="M872.73,483.835l12.8,12.8V555.11l-129.109.03V496.5l12.567-12.566Z" transform="translate(-67 -285.982)"/><path class="cls-1" d="M802.391,483.9a17.678,17.678,0,0,1,5.721-10.281c6.242-5.269,16.487-5.46,22.678,0a17.1,17.1,0,0,1,5.312,10.249l8.99-.008a26.484,26.484,0,0,0-9.807-15.349c-8.951-6.532-21.239-5.87-29.829-.409a28.349,28.349,0,0,0-11.6,15.805Z" transform="translate(-67 -285.982)"/><path class="cls-3" d="M903.729,539a283.1,283.1,0,0,0-16.65,180.781c-1.251.279-3.229.751-5.62,1.464-9.052,2.7-9.723,4.593-15.119,5.312-4.943.658-6.839-.6-8.99,1.226-2.038,1.732-3.334,5.413-2.043,7.355,2.3,3.462,10.773-1.69,28.195-3.269,11.433-1.035,16.855.362,19.205-3.269,2.262-3.492-.04-8.981-2.043-12.667a732.929,732.929,0,0,1,24.313-174.277Z" transform="translate(-67 -285.982)"/><path class="cls-3" d="M924.977,541.655,903.729,539A399.734,399.734,0,0,0,937.44,721.244c-6.968,5.7-12.519,6.917-16.345,6.947-2.876.022-6.4-.575-8.581,1.634-1.295,1.314-2.114,3.779-1.226,5.312,1.588,2.74,8.131,1.646,17.98,0,11.1-1.854,8.778-3,15.936-3.677,3.12-.294,6-.3,7.764-2.452,2.027-2.468,1.3-6.193,1.226-6.538a9.1,9.1,0,0,0-2.452-4.5q-7.493-37.342-13.893-77.638C932.471,606.171,928.25,573.227,924.977,541.655Z" transform="translate(-67 -285.982)"/><path class="cls-3" d="M864.324,410.276c30.548-1.775,45.822-2.662,52.9-8.958,8.45-7.516,14.339-20.426,10.348-26.215-2.84-4.119-10.3-4.078-14.1-4.058-6.907.038-11.857,2.11-17.3,4.371h0c-18.3,6.861-27.615,10.321-35.959,11.757-6.513,1.121-10.942,1.834-16.6.377a32.517,32.517,0,0,1-12.636-6.789c-20.1-16.111-31.361-30.879-31.361-30.879a189.929,189.929,0,0,1-16.628-25.943,9.953,9.953,0,0,0,5.3-2.122c1.468-1.2,3.074-3.3,2.546-4.1-.343-.523-1.458-.3-3.536.071-2.471.447-4.978.711-7.426,1.273-4.12.947-5.444-1.478-13.918-3.576a49.9,49.9,0,0,0-16.846-1.186c-.788.083-6.306.684-6.318,1.6-.008.552,1.973.958,4.95,1.6,6.449,1.4,11.97,2.705,14.475,3.4a51.081,51.081,0,0,1,10.822,4.392c5.429,11.872,10.574,21.468,14.5,28.376,11.035,19.435,18.49,28.346,20.808,31.055a82.956,82.956,0,0,0,18.907,16.927,61.406,61.406,0,0,0,8.2,4.526C846.627,411.143,857.067,410.7,864.324,410.276Z" transform="translate(-67 -285.982)"/><path class="cls-1" d="M894.042,300.233a2.375,2.375,0,1,0-2.36,4.112" transform="translate(-67 -285.982)"/><path class="cls-1" d="M895.972,510.657l36.76-.014c3.826,14.49,8.706,33.563,14.039,56.072,10.414,43.954,10.746,51.174,6.605,58.095-13.154,21.988-62.476,25.962-77.893,6.4-7.8-9.892-3.449-29.3,5.567-67.7C886.216,541.516,891.733,523.45,895.972,510.657Z" transform="translate(-67 -285.982)"/></svg>