<svg id="Слой_1" data-name="Слой 1" xmlns="http://www.w3.org/2000/svg" viewBox="0 0 504 576"><defs><style>.cls-1{fill:#df1f26;}.cls-2{fill:#1d1e20;}.cls-3{fill:#cccccc;stroke:#1e1d20;stroke-miterlimit:10;stroke-width:5px;}</style></defs><title>psy</title><circle class="cls-1" cx="252" cy="72" r="72"/><rect class="cls-2" y="144" width="216" height="72" rx="36"/><rect class="cls-3" x="237.088" y="309.088" width="216" height="72" rx="36" transform="translate(129.088 -358.94) rotate(45)"/><rect class="cls-2" x="504" y="362.823" width="216" height="72" rx="36" transform="translate(1008 581.647) rotate(-180)"/><rect class="cls-3" x="482.912" y="311.912" width="216" height="72" rx="36" transform="translate(1038.76 -39.915) rotate(135)"/><rect class="cls-2" x="315" y="648" width="216" height="72" rx="36" transform="translate(-477 891) rotate(-90)"/><rect class="cls-3" x="264.088" y="626.912" width="216" height="72" rx="36" transform="translate(-575.767 241.269) rotate(-45)"/><rect class="cls-2" x="405" y="648" width="216" height="72" rx="36" transform="translate(-387 981) rotate(-90)"/><rect class="cls-3" x="455.912" y="626.912" width="216" height="72" rx="36" transform="translate(277.908 1314.407) rotate(-135)"/><rect class="cls-2" x="180" y="144" width="144" height="252" rx="72"/></svg>