<svg xmlns="http://www.w3.org/2000/svg" viewBox="0 0 140 240"><defs><style>.cls-1,.cls-2,.cls-3{fill:#555ccc;}.cls-2{opacity:0.62;}.cls-3{opacity:0.38;}.cls-4{fill:#1c1c20;}</style></defs><title>click</title><g id="Слой_2" data-name="Слой 2"><g id="Слой_3" data-name="Слой 3"><g id="click"><path class="cls-1" d="M70,40a30,30,0,1,0,30,30A30,30,0,0,0,70,40Zm0,50A20,20,0,1,1,90,70,19.994,19.994,0,0,1,70,90Z"/><path class="cls-2" d="M70,20a50,50,0,1,0,50,50A50.005,50.005,0,0,0,70,20Zm0,90a40,40,0,1,1,40-40A40,40,0,0,1,70,110Z"/><path class="cls-3" d="M70,0a70,70,0,1,0,70,70A70,70,0,0,0,70,0Zm0,130a60,60,0,1,1,60-60A60,60,0,0,1,70,130Z"/><path class="cls-4" d="M82.41,202.07Q86.205,221.03,90,240q-10-5-20-10Q60,235,50,240q3.8-18.975,7.59-37.93Q33.8,206.03,10,210,40,140,70,70q30,70.005,60,140Q106.21,206.04,82.41,202.07Z"/></g></g></g></svg>