<svg id="Слой_1" data-name="Слой 1" xmlns="http://www.w3.org/2000/svg" viewBox="0 0 221 221"><defs><style>.cls-1{fill:#cccccc;stroke:#1d1e20;stroke-miterlimit:10;stroke-width:5px;}.cls-2{fill:#cc1111;}</style></defs><title>pdf</title><circle class="cls-1" cx="110.5" cy="110.5" r="108"/><path class="cls-2" d="M468.99,481.48a27.106,27.106,0,0,0-26.47-26.46A4.52,4.52,0,0,0,442,455H424a9,9,0,0,0-9,9v72a9,9,0,0,0,18,0V509h9c.17,0,.35,0,.52-.01a27.122,27.122,0,0,0,26.47-26.47c.01-.17.01-.35.01-.52S469,481.65,468.99,481.48ZM442,491h-9V473h9a9,9,0,0,1,0,18Z" transform="translate(-389.5 -389.5)"/><path class="cls-2" d="M524.99,481.48a27.122,27.122,0,0,0-26.47-26.47c-.17-.01-.35-.01-.52-.01H480a9,9,0,0,0-9,9v72a9,9,0,0,0,9,9h18c.17,0,.35,0,.52-.01a27.122,27.122,0,0,0,26.47-26.47c.01-.17.01-.35.01-.52V482C525,481.83,525,481.65,524.99,481.48ZM498,527h-9V473h9a9.039,9.039,0,0,1,9,9v36A9.039,9.039,0,0,1,498,527Z" transform="translate(-389.5 -389.5)"/><path class="cls-2" d="M585,464a9,9,0,0,1-9,9H549v18h9a9,9,0,0,1,0,18h-9v27a9,9,0,0,1-18,0V464a9,9,0,0,1,9-9h36A9,9,0,0,1,585,464Z" transform="translate(-389.5 -389.5)"/></svg>