<svg id="Main" xmlns="http://www.w3.org/2000/svg" viewBox="0 0 540 300"><defs><style>.cls-1{fill:#121221;}.cls-2{fill:#e1dfdf;}</style></defs><title>hashcat</title><g id="hashcat"><rect class="cls-1" width="40" height="200"/><rect class="cls-1" x="90" width="40" height="200"/><polygon class="cls-1" points="230 0 213.92 80.39 206.08 119.61 190 200 150 200 190 0 230 0"/><polygon class="cls-1" points="270 200 230 200 213.92 119.61 206.08 80.39 190 0 230 0 270 200"/><rect class="cls-1" x="40" y="80" width="50" height="40"/><rect class="cls-1" x="410" width="40" height="200"/><rect class="cls-1" x="500" width="40" height="200"/><rect class="cls-1" x="450" y="80" width="50" height="40"/><path class="cls-2" d="M460,300a19.993,19.993,0,0,1-16.08,19.61,19.9,19.9,0,0,1-7.84,0,20,20,0,0,1,0-39.22,19.9,19.9,0,0,1,7.84,0A19.993,19.993,0,0,1,460,300Z" transform="translate(-230 -200)"/><path class="cls-1" d="M454.4,294.568a9.994,9.994,0,0,1-13.254,11.746A16.538,16.538,0,0,0,454.4,294.568Z" transform="translate(-230 -200)"/><path class="cls-1" d="M425.64,294.568a9.994,9.994,0,0,0,13.254,11.746,16.538,16.538,0,0,1-13.254-11.746Z" transform="translate(-230 -200)"/><path class="cls-2" d="M445.9,281.9c.817-4.542,8.028-6.679,11.155-7.605a26.958,26.958,0,0,1,9.634-1.014,14.28,14.28,0,0,0-6.76,5.915c-3.387,6.231.695,12.588-1.522,14.028C455.634,295.027,444.815,287.947,445.9,281.9Z" transform="translate(-230 -200)"/><path class="cls-2" d="M435.008,281.9c-.816-4.542-8.028-6.679-11.155-7.605a26.958,26.958,0,0,0-9.634-1.014,14.277,14.277,0,0,1,6.761,5.915c3.387,6.231-.7,12.588,1.521,14.028C425.275,295.027,436.1,287.947,435.008,281.9Z" transform="translate(-230 -200)"/><path class="cls-2" d="M460,400H420l16.08-80.39a19.9,19.9,0,0,0,7.84,0Z" transform="translate(-230 -200)"/><path class="cls-1" d="M607.27,300A67.015,67.015,0,0,1,620,340c0,33.14-22.39,60-50,60s-50-26.86-50-60h30a20,20,0,1,0,20-20c-14.81,0-28.11-7.73-37.27-20A67.015,67.015,0,0,1,520,260c0-33.14,22.39-60,50-60s50,26.86,50,60H590a20,20,0,1,0-20,20C584.81,280,598.11,287.73,607.27,300Z" transform="translate(-230 -200)"/><rect class="cls-1" x="185" y="240" width="10" height="50"/><rect class="cls-1" x="185" y="290" width="50" height="10"/><rect class="cls-1" x="185" y="230" width="50" height="10"/><rect class="cls-1" x="245" y="240" width="10" height="60"/><rect class="cls-1" x="325" y="240" width="10" height="60"/><rect class="cls-1" x="285" y="240" width="10" height="60"/><rect class="cls-1" x="245" y="230" width="50" height="10"/><rect class="cls-1" x="305" y="230" width="50" height="10"/><rect class="cls-1" x="245" y="270" width="50" height="10"/><rect class="cls-1" x="225" y="230" width="10" height="30"/><rect class="cls-1" x="225" y="270" width="10" height="30"/></g></svg>