<svg xmlns="http://www.w3.org/2000/svg" viewBox="0 0 300 300"><defs><style>.a{fill:#df1f26;}.b{fill:#230f10;}.c{fill:#cccccc;}.d{fill:none;stroke:#fff;stroke-miterlimit:10;}</style></defs><title>sound</title><circle class="a" cx="150" cy="150" r="150"/><path class="b" d="M479.71,500.72a20.72,20.72,0,1,1,41.43,0Z" transform="translate(-350 -350)"/><path class="c" d="M443.7,500.72H557.16a4.71,4.71,0,0,1,3.44,7.94,66,66,0,0,0-4.92,5.87c-12,16.17-13.63,33.53-13.81,41.44v27.62a41.44,41.44,0,0,1-82.88,0V556c-.19-7.91-1.77-25.27-13.82-41.44a67.66,67.66,0,0,0-4.91-5.87A4.71,4.71,0,0,1,443.7,500.72Z" transform="translate(-350 -350)"/><path class="c" d="M479.57,580c-2.3-.74-4.61-1.46-6.92-2.23-2.24-.93-4.51-1.8-6.74-2.79l-3.25-1.67-1.63-.83-.82-.42-.78-.48-3.12-1.92a34.45,34.45,0,0,1-3.07-2A87,87,0,0,1,432.34,547a84.31,84.31,0,0,1-12.68-26.83l-.82-3.66c-.24-1.23-.6-2.44-.73-3.68l-.49-3.73a31.13,31.13,0,0,1-.35-3.74l-.16-3.76c0-.63-.07-1.26-.06-1.88l.05-1.89,0-1.88.15-1.88c.08-1.25.18-2.51.36-3.75,2.33-20,12.43-38.89,27.28-52.57a83.06,83.06,0,0,1,25.62-16.08,79.84,79.84,0,0,1,59.55.28,82.63,82.63,0,0,1,25.49,16.26,88.21,88.21,0,0,1,18.15,24,85.8,85.8,0,0,1,5.71,14,81.84,81.84,0,0,1,3,14.77c.27,2.5.45,5,.48,7.52.06,1.26,0,2.52-.07,3.77l-.17,3.76a14.6,14.6,0,0,1-.17,1.87l-.25,1.87-.49,3.73c-.52,2.44-1,4.9-1.66,7.31a84.69,84.69,0,0,1-13,26.71A86.71,86.71,0,0,1,546.05,568c-1,.75-2,1.33-3.09,2l-3.14,1.89c-1,.65-2.17,1.12-3.25,1.69l-3.27,1.63c-2.25,1-4.53,1.81-6.78,2.72L519.57,580A88.41,88.41,0,0,0,564,545.28a80.31,80.31,0,0,0,11.1-25.77,75.41,75.41,0,0,0,1.23-27.75,80.71,80.71,0,0,0-25.81-48,76.89,76.89,0,0,0-23.28-14.58A73,73,0,0,0,500.31,424a73.76,73.76,0,0,0-26.92,4.9A77.79,77.79,0,0,0,450,443.32a80.62,80.62,0,0,0-26.19,47.81,77.29,77.29,0,0,0,.92,27.78,80.46,80.46,0,0,0,10.85,25.88A88.56,88.56,0,0,0,479.57,580Z" transform="translate(-350 -350)"/><path class="c" d="M490,600a100.82,100.82,0,0,1-18.75-3.32,102.65,102.65,0,0,1-17.89-6.86,103.57,103.57,0,0,1-50.88-56.34,99.26,99.26,0,0,1-6.23-38.62,100,100,0,0,1,9.12-38.24,107,107,0,0,1,22.73-32.21,104.39,104.39,0,0,1,33.06-21.66,101.45,101.45,0,0,1,77.73,0A104.6,104.6,0,0,1,572,424.41a107.06,107.06,0,0,1,22.71,32.23,100.11,100.11,0,0,1,9.1,38.26,99.82,99.82,0,0,1-6.23,38.62,103.45,103.45,0,0,1-50.88,56.35,102.18,102.18,0,0,1-17.9,6.84A100.19,100.19,0,0,1,510,600a106.68,106.68,0,0,0,18.3-4.73,100.91,100.91,0,0,0,17.05-7.85,102.42,102.42,0,0,0,28.27-24c15.79-19,24.06-43.87,22.35-68.15a93.53,93.53,0,0,0-3-17.93,96.43,96.43,0,0,0-6.25-17A98.8,98.8,0,0,0,535.2,411.8a94.57,94.57,0,0,0-70.35,0A97.84,97.84,0,0,0,404,495.26c-1.71,24.28,6.58,49.13,22.37,68.16a103.47,103.47,0,0,0,45.32,31.83A107,107,0,0,0,490,600Z" transform="translate(-350 -350)"/><path class="d" d="M650,410" transform="translate(-350 -350)"/><path class="c" d="M510,620a125.07,125.07,0,0,0,43.46-14.71,122.84,122.84,0,0,0,34.78-29.07,117,117,0,0,0,26.41-61.15,112.87,112.87,0,0,0-3.53-44.16,116.35,116.35,0,0,0-34.92-55.64,116.16,116.16,0,0,0-37.72-22.54,111.67,111.67,0,0,0-43.31-6.61,113.07,113.07,0,0,0-42.6,10.3,115.62,115.62,0,0,0-65.79,83.89,114.73,114.73,0,0,0-2,22.14c.06,29.77,12.34,59.43,33.55,81a119.92,119.92,0,0,0,37.07,26,117.81,117.81,0,0,0,21.73,7.36A122.13,122.13,0,0,0,500,620a116.28,116.28,0,0,1-23.25-1.39,119.22,119.22,0,0,1-22.64-6.06,122.34,122.34,0,0,1-39.94-24.88,124.41,124.41,0,0,1-27.79-38.49,121.49,121.49,0,0,1-11-46.53,124.66,124.66,0,0,1,1.49-24.09,122.05,122.05,0,0,1,6.28-23.35,126,126,0,0,1,64.44-69.54,124.34,124.34,0,0,1,47.07-11.53,123,123,0,0,1,47.88,7.48,125.26,125.26,0,0,1,41.26,25.24,128.4,128.4,0,0,1,28.71,38.74,120.3,120.3,0,0,1,11.87,46.58,120.06,120.06,0,0,1-7.1,47.3A123.29,123.29,0,0,1,533,616.35,119.13,119.13,0,0,1,510,620Z" transform="translate(-350 -350)"/></svg>