<svg id="Слой_1" data-name="Слой 1" xmlns="http://www.w3.org/2000/svg" viewBox="0 0 867.071 862.071"><defs><style>.cls-1{fill:#df1f26;}.cls-1,.cls-2,.cls-3{stroke:#1d1e20;stroke-miterlimit:10;stroke-width:5px;}.cls-2{fill:#cccccc;}.cls-3{fill:#230f10;}</style></defs><title>bui</title><polygon class="cls-1" points="505.036 75.036 362.036 75.036 433.536 3.536 505.036 75.036"/><polygon class="cls-1" points="577.036 147.036 290.036 147.036 362.036 75.036 505.036 75.036 577.036 147.036"/><polygon class="cls-1" points="649.036 219.036 218.036 219.036 290.036 147.036 577.036 147.036 649.036 219.036"/><polygon class="cls-2" points="721.036 291.036 146.036 291.036 218.036 219.036 649.036 219.036 721.036 291.036"/><polygon class="cls-2" points="793.036 363.036 74.036 363.036 146.036 291.036 721.036 291.036 793.036 363.036"/><polygon class="cls-2" points="861.036 431.036 6.036 431.036 74.036 363.036 793.036 363.036 861.036 431.036"/><polygon class="cls-3" points="861.036 431.036 785.036 507.036 82.036 507.036 6.036 431.036 861.036 431.036"/><polygon class="cls-3" points="785.036 507.036 713.036 579.036 154.036 579.036 82.036 507.036 785.036 507.036"/><polygon class="cls-3" points="713.036 579.036 641.036 651.036 226.036 651.036 154.036 579.036 713.036 579.036"/><polygon class="cls-3" points="641.036 651.036 569.036 723.036 298.036 723.036 226.036 651.036 641.036 651.036"/><polygon class="cls-3" points="569.036 723.036 497.036 795.036 370.036 795.036 298.036 723.036 569.036 723.036"/><polygon class="cls-3" points="497.036 795.036 433.536 858.536 370.036 795.036 497.036 795.036"/></svg>