<svg id="Слой_1" data-name="Слой 1" xmlns="http://www.w3.org/2000/svg" viewBox="0 0 648.5 536"><defs><style>.cls-1{fill:#df1f26;}.cls-1,.cls-2{stroke:#1d1e20;stroke-miterlimit:10;stroke-width:5px;}.cls-2{fill:#cccccc;}</style></defs><title>pro</title><rect class="cls-1" x="639.145" y="262.906" width="45" height="288" rx="22.5" transform="translate(-297.339 363.041) rotate(-45)"/><rect class="cls-1" x="634.099" y="359.364" width="36" height="216" rx="18" transform="translate(-342.885 373.998) rotate(-45)"/><rect class="cls-1" x="532.275" y="461.187" width="36" height="216" rx="18" transform="translate(-444.708 331.822) rotate(-45)"/><rect class="cls-1" x="643.099" y="533.187" width="18" height="72" rx="9" transform="translate(-414.885 403.822) rotate(-45)"/><path class="cls-2" d="M433.315,233.627,212.439,474.769a25.966,25.966,0,0,0,0,34.448L433.315,750.358a21.011,21.011,0,0,0,31.554,0h0a25.966,25.966,0,0,0,0-34.448L275.546,509.217a25.966,25.966,0,0,1,0-34.448L464.869,268.076a25.968,25.968,0,0,0,0-34.449h0A21.013,21.013,0,0,0,433.315,233.627Z" transform="translate(-203.404 -223.993)"/><path class="cls-2" d="M621.993,750.358,842.869,509.217a25.968,25.968,0,0,0,0-34.449L621.993,233.627a21.011,21.011,0,0,0-31.554,0h0a25.968,25.968,0,0,0,0,34.449L779.762,474.768a25.968,25.968,0,0,1,0,34.449L590.439,715.91a25.966,25.966,0,0,0,0,34.448h0A21.011,21.011,0,0,0,621.993,750.358Z" transform="translate(-203.404 -223.993)"/><rect class="cls-1" x="418.644" y="554.579" width="288" height="45" rx="22.5" transform="translate(-446.666 342.88) rotate(-45)"/><rect class="cls-1" x="376.093" y="550.851" width="144" height="27" rx="13.5" transform="translate(-471.217 258.152) rotate(-45)"/><rect class="cls-1" x="331.545" y="509.127" width="144" height="27" rx="13.5" transform="translate(-454.761 214.431) rotate(-45)"/><rect class="cls-1" x="635.417" y="449.458" width="27" height="144" rx="13.5" transform="translate(-382.067 387.592) rotate(-45)"/><rect class="cls-1" x="467.318" y="434.733" width="45" height="288" rx="22.5" transform="translate(-469.166 291.868) rotate(-45)"/><rect class="cls-1" x="394.187" y="549.533" width="216" height="36" rx="18" transform="translate(-457.623 297.334) rotate(-45)"/><rect class="cls-1" x="590.869" y="494.005" width="27" height="144" rx="13.5" transform="translate(-426.615 369.14) rotate(-45)"/><rect class="cls-1" x="246.817" y="382.752" width="288" height="45" rx="22.5" transform="translate(-375.493 171.053) rotate(-45)"/><rect class="cls-1" x="292.363" y="447.71" width="216" height="36" rx="18" transform="translate(-415.447 195.51) rotate(-45)"/><rect class="cls-1" x="364.363" y="558.533" width="72" height="18" rx="9" transform="translate(-487.447 225.334) rotate(-45)"/></svg>