<svg id="Слой_1" data-name="Слой 1" xmlns="http://www.w3.org/2000/svg" viewBox="0 0 734 734"><defs><style>.cls-1,.cls-4{fill:#cccccc;}.cls-1,.cls-2{stroke:#230f10;}.cls-1,.cls-2,.cls-3,.cls-4{stroke-miterlimit:10;stroke-width:5px;}.cls-2,.cls-3{fill:none;}.cls-3{stroke:#df1f26;}.cls-4{stroke:#1d1e20;}.cls-5{fill:#df1f26;}</style></defs><title>soc</title><circle class="cls-1" cx="367.5" cy="367.5" r="216"/><path class="cls-2" d="M360.5,666.5a288.035,288.035,0,0,1,279,0" transform="translate(-133 -133)"/><path class="cls-2" d="M639.5,333.5a288.035,288.035,0,0,1-279,0" transform="translate(-133 -133)"/><path class="cls-2" d="M333.5,360.5a288.035,288.035,0,0,1,0,279" transform="translate(-133 -133)"/><path class="cls-2" d="M666.5,639.5a288.035,288.035,0,0,1,0-279" transform="translate(-133 -133)"/><path class="cls-2" d="M594.535,693.5c-12.636-31.738-37.085-103.271-36-199.742,1-89.383,23.429-155.7,36-187.258" transform="translate(-133 -133)"/><path class="cls-2" d="M405.465,306.5c12.636,31.738,37.085,103.271,36,199.742-1,89.383-23.429,155.7-36,187.258" transform="translate(-133 -133)"/><path class="cls-2" d="M306.5,594.57c31.738-12.636,103.271-37.085,199.742-36,89.383,1,155.7,23.429,187.258,36" transform="translate(-133 -133)"/><path class="cls-2" d="M693.5,405.5c-31.738,12.635-103.271,37.085-199.742,36-89.383-1-155.7-23.429-187.258-36" transform="translate(-133 -133)"/><path class="cls-2" d="M284.5,500.5h432" transform="translate(-133 -133)"/><path class="cls-2" d="M500.5,284.5v432" transform="translate(-133 -133)"/><circle class="cls-3" cx="367.5" cy="367.5" r="216"/><circle class="cls-4" cx="599.431" cy="599.785" r="36"/><path class="cls-5" d="M757.887,656.417a110.7,110.7,0,0,0-20.7.788,99.087,99.087,0,0,0-19.943,4.66A87.444,87.444,0,0,0,662.182,717.6a113.132,113.132,0,0,0-4.793,19.95,116.02,116.02,0,0,0-1.326,20.691,87.815,87.815,0,0,1-1.116-20.944c.22-3.511.623-7.016,1.179-10.5a98.853,98.853,0,0,1,2.331-10.353,89.068,89.068,0,0,1,8.185-19.674A86.917,86.917,0,0,1,679.573,679.7a85.026,85.026,0,0,1,8.068-7.064l4.3-3.2c1.5-.976,3.019-1.915,4.544-2.845a86.449,86.449,0,0,1,19.584-8.43,87.844,87.844,0,0,1,20.9-3.386A84.979,84.979,0,0,1,757.887,656.417Z" transform="translate(-133 -133)"/><path class="cls-5" d="M617.88,796.424A127.29,127.29,0,0,1,604.545,757.3a131.756,131.756,0,0,1-.266-41.626A132.523,132.523,0,0,1,756.943,604.892a127.261,127.261,0,0,1,39.128,13.341,139.018,139.018,0,0,0-39.48-10.911,136.055,136.055,0,0,0-40.636,1.152A133.375,133.375,0,0,0,608.113,716.307a136.069,136.069,0,0,0-1.151,40.638A138.9,138.9,0,0,0,617.88,796.424Z" transform="translate(-133 -133)"/><path class="cls-5" d="M636.972,777.332a104.773,104.773,0,0,1-5.82-61.4,108.422,108.422,0,0,1,10.7-29.593A107.995,107.995,0,0,1,685.986,642.2a108.494,108.494,0,0,1,29.594-10.7,104.724,104.724,0,0,1,61.4,5.826,114.978,114.978,0,0,0-60.553-2.018,111.157,111.157,0,0,0-28.165,11.046,109.7,109.7,0,0,0-42.267,42.258,111.174,111.174,0,0,0-11.047,28.167A114.88,114.88,0,0,0,636.972,777.332Z" transform="translate(-133 -133)"/><circle class="cls-4" cx="134.862" cy="135.215" r="36"/><path class="cls-5" d="M242.406,344.583a110.7,110.7,0,0,0,20.7-.788,99.087,99.087,0,0,0,19.943-4.66A87.444,87.444,0,0,0,338.111,283.4a113.132,113.132,0,0,0,4.793-19.95,115.927,115.927,0,0,0,1.325-20.691,87.815,87.815,0,0,1,1.117,20.944c-.22,3.511-.623,7.016-1.179,10.5a99.107,99.107,0,0,1-2.331,10.353,89.068,89.068,0,0,1-8.185,19.674A86.917,86.917,0,0,1,320.72,321.3a85.15,85.15,0,0,1-8.068,7.064l-4.3,3.2c-1.5.976-3.019,1.915-4.544,2.845a86.468,86.468,0,0,1-19.584,8.43,87.844,87.844,0,0,1-20.9,3.386A84.979,84.979,0,0,1,242.406,344.583Z" transform="translate(-133 -133)"/><path class="cls-5" d="M382.413,204.576a127.29,127.29,0,0,1,13.335,39.129,131.762,131.762,0,0,1,.266,41.627A132.523,132.523,0,0,1,243.35,396.108a127.252,127.252,0,0,1-39.128-13.341,139.018,139.018,0,0,0,39.48,10.911,136.055,136.055,0,0,0,40.636-1.152A133.375,133.375,0,0,0,392.18,284.693a136.069,136.069,0,0,0,1.151-40.638A138.933,138.933,0,0,0,382.413,204.576Z" transform="translate(-133 -133)"/><path class="cls-5" d="M363.321,223.668a104.773,104.773,0,0,1,5.82,61.4,108.455,108.455,0,0,1-10.7,29.593A107.995,107.995,0,0,1,314.307,358.8a108.506,108.506,0,0,1-29.594,10.7,104.723,104.723,0,0,1-61.4-5.826,114.978,114.978,0,0,0,60.553,2.018,111.157,111.157,0,0,0,28.165-11.046A109.7,109.7,0,0,0,354.3,312.389a111.174,111.174,0,0,0,11.047-28.167A114.88,114.88,0,0,0,363.321,223.668Z" transform="translate(-133 -133)"/><circle class="cls-4" cx="135.569" cy="599.785" r="36"/><path class="cls-5" d="M344.936,758.24a110.708,110.708,0,0,0-.788-20.705,99.119,99.119,0,0,0-4.66-19.943,87.435,87.435,0,0,0-55.733-55.056,113.078,113.078,0,0,0-19.951-4.794,116.107,116.107,0,0,0-20.691-1.325,87.875,87.875,0,0,1,20.945-1.117c3.511.221,7.015.624,10.5,1.179a99.054,99.054,0,0,1,10.353,2.332A89.028,89.028,0,0,1,304.59,667a86.908,86.908,0,0,1,17.063,12.931,85.139,85.139,0,0,1,7.064,8.067l3.2,4.3c.976,1.5,1.914,3.02,2.844,4.544a86.471,86.471,0,0,1,8.431,19.584,87.9,87.9,0,0,1,3.386,20.9A84.976,84.976,0,0,1,344.936,758.24Z" transform="translate(-133 -133)"/><path class="cls-5" d="M204.929,618.233A127.288,127.288,0,0,1,244.058,604.9a131.733,131.733,0,0,1,41.627-.267A132.529,132.529,0,0,1,396.729,715.667a131.745,131.745,0,0,1-.268,41.629,127.225,127.225,0,0,1-13.341,39.128,138.979,138.979,0,0,0,10.912-39.48,136.114,136.114,0,0,0-1.152-40.635A133.377,133.377,0,0,0,285.046,608.466a136.134,136.134,0,0,0-40.638-1.151A138.984,138.984,0,0,0,204.929,618.233Z" transform="translate(-133 -133)"/><path class="cls-5" d="M224.021,637.325a104.782,104.782,0,0,1,61.4-5.819,108.452,108.452,0,0,1,29.593,10.7,107.995,107.995,0,0,1,44.141,44.132,108.475,108.475,0,0,1,10.7,29.594,104.714,104.714,0,0,1-5.827,61.4,114.954,114.954,0,0,0,2.018-60.552A111.112,111.112,0,0,0,355,688.614a109.706,109.706,0,0,0-42.257-42.267A111.269,111.269,0,0,0,284.575,635.3,114.89,114.89,0,0,0,224.021,637.325Z" transform="translate(-133 -133)"/><circle class="cls-4" cx="600.138" cy="135.215" r="36"/><path class="cls-5" d="M656.771,242.76a110.708,110.708,0,0,0,.788,20.7,99.119,99.119,0,0,0,4.66,19.943,87.434,87.434,0,0,0,55.734,55.056,113.046,113.046,0,0,0,19.95,4.794,116.107,116.107,0,0,0,20.691,1.325,87.875,87.875,0,0,1-20.945,1.117c-3.511-.221-7.015-.624-10.5-1.179a99.112,99.112,0,0,1-10.353-2.332A89.028,89.028,0,0,1,697.117,334a86.937,86.937,0,0,1-17.063-12.931,85.139,85.139,0,0,1-7.064-8.067l-3.2-4.3c-.976-1.5-1.914-3.02-2.844-4.544a86.471,86.471,0,0,1-8.431-19.584,87.953,87.953,0,0,1-3.386-20.9A84.972,84.972,0,0,1,656.771,242.76Z" transform="translate(-133 -133)"/><path class="cls-5" d="M796.778,382.767A127.288,127.288,0,0,1,757.649,396.1a131.733,131.733,0,0,1-41.627.267A132.529,132.529,0,0,1,604.978,285.333a131.745,131.745,0,0,1,.268-41.629,127.225,127.225,0,0,1,13.341-39.128,138.979,138.979,0,0,0-10.912,39.48,136.114,136.114,0,0,0,1.152,40.635A133.377,133.377,0,0,0,716.661,392.534a136.135,136.135,0,0,0,40.638,1.151A138.984,138.984,0,0,0,796.778,382.767Z" transform="translate(-133 -133)"/><path class="cls-5" d="M777.686,363.675a104.782,104.782,0,0,1-61.4,5.819,108.452,108.452,0,0,1-29.593-10.7,107.995,107.995,0,0,1-44.141-44.132,108.508,108.508,0,0,1-10.7-29.594,104.714,104.714,0,0,1,5.827-61.4,114.954,114.954,0,0,0-2.018,60.552,111.15,111.15,0,0,0,11.046,28.166,109.7,109.7,0,0,0,42.258,42.267A111.248,111.248,0,0,0,717.132,365.7,114.89,114.89,0,0,0,777.686,363.675Z" transform="translate(-133 -133)"/><circle class="cls-4" cx="366.5" cy="695.5" r="36"/><path class="cls-5" d="M571.5,792.5a110.684,110.684,0,0,0-15.2-14.083,99.062,99.062,0,0,0-17.4-10.807,87.439,87.439,0,0,0-78.34.479,113.039,113.039,0,0,0-17.5,10.717A116.052,116.052,0,0,0,427.5,792.5a87.851,87.851,0,0,1,14.021-15.6c2.638-2.327,5.4-4.52,8.261-6.594a99,99,0,0,1,8.969-5.672,89.029,89.029,0,0,1,19.7-8.124,86.9,86.9,0,0,1,21.209-2.922,84.977,84.977,0,0,1,10.7.71l5.3.775c1.748.368,3.489.782,5.224,1.2a86.438,86.438,0,0,1,19.81,7.887,87.883,87.883,0,0,1,17.174,12.386A84.983,84.983,0,0,1,571.5,792.5Z" transform="translate(-133 -133)"/><path class="cls-5" d="M373.5,792.5a127.278,127.278,0,0,1,18.239-37.1,131.745,131.745,0,0,1,29.247-29.623,132.528,132.528,0,0,1,157.033-.006A131.754,131.754,0,0,1,607.266,755.4,127.223,127.223,0,0,1,625.5,792.5a138.993,138.993,0,0,0-20.2-35.632,136.1,136.1,0,0,0-29.548-27.919,133.377,133.377,0,0,0-152.506-.006A136.066,136.066,0,0,0,393.7,756.864,138.941,138.941,0,0,0,373.5,792.5Z" transform="translate(-133 -133)"/><path class="cls-5" d="M400.5,792.5a104.769,104.769,0,0,1,39.3-47.529,108.418,108.418,0,0,1,28.492-13.358,107.979,107.979,0,0,1,62.418-.007A108.509,108.509,0,0,1,559.2,744.964,104.723,104.723,0,0,1,598.5,792.5a114.962,114.962,0,0,0-41.39-44.244,111.117,111.117,0,0,0-27.727-12.105,109.71,109.71,0,0,0-59.768-.007,111.223,111.223,0,0,0-27.729,12.106A114.881,114.881,0,0,0,400.5,792.5Z" transform="translate(-133 -133)"/><circle class="cls-4" cx="366.5" cy="38.5" r="36"/><path class="cls-5" d="M427.5,207.5a110.684,110.684,0,0,0,15.2,14.083,99.062,99.062,0,0,0,17.4,10.807,87.439,87.439,0,0,0,78.34-.479,113.039,113.039,0,0,0,17.5-10.717A116.052,116.052,0,0,0,571.5,207.5a87.851,87.851,0,0,1-14.021,15.6c-2.638,2.327-5.4,4.52-8.261,6.594a99,99,0,0,1-8.969,5.672,89.029,89.029,0,0,1-19.7,8.124,86.9,86.9,0,0,1-21.209,2.922,84.977,84.977,0,0,1-10.7-.71l-5.305-.775c-1.748-.368-3.489-.782-5.224-1.2a86.438,86.438,0,0,1-19.81-7.887,87.883,87.883,0,0,1-17.174-12.386A84.983,84.983,0,0,1,427.5,207.5Z" transform="translate(-133 -133)"/><path class="cls-5" d="M625.5,207.5a127.278,127.278,0,0,1-18.239,37.1,131.745,131.745,0,0,1-29.247,29.623,132.528,132.528,0,0,1-157.033.006A131.734,131.734,0,0,1,391.734,244.6,127.223,127.223,0,0,1,373.5,207.5a138.993,138.993,0,0,0,20.2,35.632,136.1,136.1,0,0,0,29.548,27.919,133.377,133.377,0,0,0,152.506.006A136.066,136.066,0,0,0,605.3,243.136,138.941,138.941,0,0,0,625.5,207.5Z" transform="translate(-133 -133)"/><path class="cls-5" d="M598.5,207.5a104.769,104.769,0,0,1-39.3,47.529,108.418,108.418,0,0,1-28.492,13.358,107.979,107.979,0,0,1-62.418.007A108.509,108.509,0,0,1,439.8,255.036,104.723,104.723,0,0,1,400.5,207.5a114.962,114.962,0,0,0,41.39,44.244,111.117,111.117,0,0,0,27.727,12.1,109.71,109.71,0,0,0,59.768.007,111.223,111.223,0,0,0,27.729-12.106A114.881,114.881,0,0,0,598.5,207.5Z" transform="translate(-133 -133)"/><circle class="cls-4" cx="38.5" cy="367.5" r="36"/><path class="cls-5" d="M207.5,572.5a110.684,110.684,0,0,0,14.083-15.2,99.062,99.062,0,0,0,10.807-17.4,87.439,87.439,0,0,0-.479-78.34,113.039,113.039,0,0,0-10.717-17.5A116.052,116.052,0,0,0,207.5,428.5a87.851,87.851,0,0,1,15.6,14.021c2.327,2.638,4.52,5.4,6.594,8.261a99,99,0,0,1,5.672,8.969,89.029,89.029,0,0,1,8.124,19.7,86.9,86.9,0,0,1,2.922,21.209,84.977,84.977,0,0,1-.71,10.7l-.775,5.3c-.368,1.748-.782,3.489-1.2,5.224a86.438,86.438,0,0,1-7.887,19.81,87.883,87.883,0,0,1-12.386,17.174A84.983,84.983,0,0,1,207.5,572.5Z" transform="translate(-133 -133)"/><path class="cls-5" d="M207.5,374.5a127.278,127.278,0,0,1,37.1,18.239,131.745,131.745,0,0,1,29.623,29.247,132.528,132.528,0,0,1,.006,157.033A131.734,131.734,0,0,1,244.6,608.266,127.223,127.223,0,0,1,207.5,626.5a138.993,138.993,0,0,0,35.632-20.2,136.1,136.1,0,0,0,27.919-29.548,133.377,133.377,0,0,0,.006-152.506A136.066,136.066,0,0,0,243.136,394.7,138.941,138.941,0,0,0,207.5,374.5Z" transform="translate(-133 -133)"/><path class="cls-5" d="M207.5,401.5a104.769,104.769,0,0,1,47.529,39.3,108.418,108.418,0,0,1,13.358,28.492,107.979,107.979,0,0,1,.007,62.418A108.509,108.509,0,0,1,255.036,560.2,104.723,104.723,0,0,1,207.5,599.5a114.962,114.962,0,0,0,44.244-41.39,111.117,111.117,0,0,0,12.1-27.727,109.71,109.71,0,0,0,.007-59.768,111.223,111.223,0,0,0-12.106-27.729A114.881,114.881,0,0,0,207.5,401.5Z" transform="translate(-133 -133)"/><circle class="cls-4" cx="695.5" cy="367.5" r="36"/><path class="cls-5" d="M792.5,428.5a110.684,110.684,0,0,0-14.083,15.2,99.062,99.062,0,0,0-10.807,17.4,87.439,87.439,0,0,0,.479,78.34,113.039,113.039,0,0,0,10.717,17.5A116.052,116.052,0,0,0,792.5,572.5a87.851,87.851,0,0,1-15.6-14.021c-2.327-2.638-4.52-5.4-6.594-8.261a99,99,0,0,1-5.672-8.969,89.029,89.029,0,0,1-8.124-19.7,86.9,86.9,0,0,1-2.922-21.209,84.977,84.977,0,0,1,.71-10.7l.775-5.305c.368-1.748.782-3.489,1.2-5.224a86.438,86.438,0,0,1,7.887-19.81,87.883,87.883,0,0,1,12.386-17.174A84.983,84.983,0,0,1,792.5,428.5Z" transform="translate(-133 -133)"/><path class="cls-5" d="M792.5,626.5a127.278,127.278,0,0,1-37.1-18.239,131.745,131.745,0,0,1-29.623-29.247,132.528,132.528,0,0,1-.006-157.033A131.754,131.754,0,0,1,755.4,392.734,127.223,127.223,0,0,1,792.5,374.5a138.993,138.993,0,0,0-35.632,20.2,136.1,136.1,0,0,0-27.919,29.548,133.377,133.377,0,0,0-.006,152.506A136.066,136.066,0,0,0,756.864,606.3,138.941,138.941,0,0,0,792.5,626.5Z" transform="translate(-133 -133)"/><path class="cls-5" d="M792.5,599.5a104.769,104.769,0,0,1-47.529-39.3,108.418,108.418,0,0,1-13.358-28.492,107.979,107.979,0,0,1-.007-62.418A108.509,108.509,0,0,1,744.964,440.8,104.723,104.723,0,0,1,792.5,401.5a114.962,114.962,0,0,0-44.244,41.39,111.117,111.117,0,0,0-12.105,27.727,109.71,109.71,0,0,0-.007,59.768,111.223,111.223,0,0,0,12.106,27.729A114.881,114.881,0,0,0,792.5,599.5Z" transform="translate(-133 -133)"/></svg>