<svg xmlns="http://www.w3.org/2000/svg" viewBox="0 0 297.063 162.655"><defs><style>.cls-1,.cls-2{fill:#131422;}.cls-1{stroke:#131422;stroke-miterlimit:10;}.cls-3{fill:#366ce1;}</style></defs><title>analytic</title><g id="Слой_2" data-name="Слой 2"><g id="Слой_1-2" data-name="Слой 1"><g id="analytic"><circle class="cls-1" cx="80.804" cy="54.5" r="54"/><path class="cls-2" d="M161.7,162.345l-161.69.31L0,156.865a54.024,54.024,0,0,1,53.6-48.313l54-.1a54.016,54.016,0,0,1,54.1,53.9Z"/><path class="cls-2" d="M297.063,108.293H188.907L80.8,54.5,188.907.137H297.063Z"/><path class="cls-3" d="M296.925,45.093q-26.955,22.545-53.91,45.1-5.415-3.585-10.82-7.18Z"/><path class="cls-3" d="M232.2,83.013l-43.15,25.28q13.47-18.015,26.93-36.05Q224.075,77.628,232.2,83.013Z"/><path class="cls-3" d="M242.505,54.643a23.05,23.05,0,0,1-22.55-22.46,23.051,23.051,0,0,1,22.9-22.99l.09,45a33.59,33.59,0,0,0,8.83-22.57,33.536,33.536,0,0,0-8.92-22.43,23.057,23.057,0,0,1,22.99,22.02C266.235,44.093,255.265,54.853,242.505,54.643Z"/></g></g></g></svg>