<svg id="Слой_1" data-name="Слой 1" xmlns="http://www.w3.org/2000/svg" viewBox="0 0 720 720"><defs><style>.cls-1{fill:#313131;}.cls-2{fill:#cccccb;stroke:#313131;stroke-miterlimit:10;}</style></defs><title>3</title><circle class="cls-1" cx="360" cy="360" r="360"/><rect class="cls-2" x="284" y="360" width="432" height="288" rx="28" transform="translate(864 -140) rotate(90)"/><path class="cls-1" d="M388.49,326.11a1.74,1.74,0,0,1,.68-.81,7.77,7.77,0,0,1,1.27-.71,12.48,12.48,0,0,1,1.64-.62c.6-.19,1.19-.34,1.77-.47s1.13-.22,1.66-.29a10.32,10.32,0,0,1,1.28-.11,6.08,6.08,0,0,1,.61,0,3.31,3.31,0,0,1,.64.13,6.23,6.23,0,0,1,.8.23,1.27,1.27,0,0,1,.62.48,1.6,1.6,0,0,1,.36,1.24,8.88,8.88,0,0,1-.27,1.42,8.48,8.48,0,0,1-1.31,2.9,24.51,24.51,0,0,1-2,2.44c-.5.53-1,1-1.4,1.47s-.88.86-1.33,1.24-.94.74-1.44,1.08a16.25,16.25,0,0,1-1.75,1c-.23,1.47-.39,2.76-.47,3.86s-.13,2.05-.15,2.84a9.13,9.13,0,0,1-.14,1.42,11.73,11.73,0,0,1-.42,1.65,7.68,7.68,0,0,1-.72,1.5,2.81,2.81,0,0,1-1,1,1.72,1.72,0,0,1-.59.2,4.21,4.21,0,0,1-.62.05,2,2,0,0,1-.62-.17,5,5,0,0,1-.48-.3,1.78,1.78,0,0,1-.31-.29c-.07-.1-.13-.16-.17-.21a2,2,0,0,1-.34-.75c0-.24-.07-.44-.09-.61a4.09,4.09,0,0,1,0-.7,1,1,0,0,1,.28-.63.82.82,0,0,1,.48-.34,3.1,3.1,0,0,0,.69-.31,4.3,4.3,0,0,0,.58-.51,2.5,2.5,0,0,0,.35-.52v-3.07c0-.8,0-1.57.07-2.31a14.35,14.35,0,0,1,.31-2.27,26,26,0,0,1,.41-3.37c.22-1.12.47-2.23.76-3.33.11-.37.18-.71.24-1a9.19,9.19,0,0,0,.1-1,3.75,3.75,0,0,0,0-.86A1.07,1.07,0,0,1,388.49,326.11Zm2.17,8.46a.14.14,0,0,0,.07-.06.18.18,0,0,1,.08-.06,2,2,0,0,0,.36-.33l.25-.32c.09-.13.22-.29.38-.49s.42-.45.75-.79.73-.75,1-1,.53-.53.75-.75a7.33,7.33,0,0,0,.61-.66,7.25,7.25,0,0,0,.54-.84,3.69,3.69,0,0,0,.34-.67,6.28,6.28,0,0,0,.34-1.1c.07-.35.12-.72.16-1.11a.91.91,0,0,0-.28-.87.56.56,0,0,0-.4-.13,3.16,3.16,0,0,0-.67.1c-.3.06-.61.14-.93.23a8.18,8.18,0,0,0-.88.31.89.89,0,0,0-.7.67,1.54,1.54,0,0,1-.2.37,1.05,1.05,0,0,1-.33.31l-.29.15c0,.19-.08.43-.13.72s-.09.61-.15,1-.16.88-.22,1.21-.12.62-.17.86-.09.49-.12.72-.07.46-.11.71a5.83,5.83,0,0,0-.08.82C390.63,333.82,390.64,334.18,390.66,334.57Z" transform="translate(-140 -144)"/><path class="cls-1" d="M397.26,345.48c-.06-.14.11-.39.51-.74a6.94,6.94,0,0,1,1.38-.93l.23-.11a1,1,0,0,0,.2-.11,19.08,19.08,0,0,1,2.8-4.9c.47-.64.93-1.23,1.39-1.78a9.8,9.8,0,0,1,1.44-1.44,8.28,8.28,0,0,1,1.69-1.05,7.7,7.7,0,0,1,2.17-.62l.73-.11a4.7,4.7,0,0,1,.63-.05,2.54,2.54,0,0,1,1.18.25l.28.14a2.23,2.23,0,0,1,.47.31,2.67,2.67,0,0,1,.45.49,1.71,1.71,0,0,1,.26.67,1.17,1.17,0,0,1,0,.33,2.17,2.17,0,0,1-.14.45l-.36.69c-.16.28-.38.63-.67,1-.49.73-.91,1.31-1.25,1.75a8.14,8.14,0,0,1-1.07,1.17,7.68,7.68,0,0,1-1.32.93c-.51.29-1.17.64-2,1.05-.37.17-.73.32-1.08.46s-.83.34-1.43.56a2.84,2.84,0,0,1-.68.25,2.31,2.31,0,0,0,.49,1.38,2.72,2.72,0,0,0,1.07.76,4.79,4.79,0,0,0,1.38.31c.5,0,1,.06,1.43.06a11.12,11.12,0,0,0,1.38-.11l2.56-.29.48,0,1.22-.1.67,0,.45,0q.24,0,.24.06c0,.07,0,.15-.17.27a4.27,4.27,0,0,1-.51.37c-.2.13-.41.26-.62.37s-.36.2-.46.27c-.52.26-1.22.57-2.09.93s-1.8.68-2.75,1-1.87.59-2.77.81a9.72,9.72,0,0,1-2.25.32,4.26,4.26,0,0,1-1.09-.15,5.12,5.12,0,0,1-1.06-.43,4,4,0,0,1-.93-.69,2.25,2.25,0,0,1-.61-.9,2.4,2.4,0,0,1-.23-.91,8.29,8.29,0,0,1,0-1.07,2.74,2.74,0,0,0,.07-.43c0-.19.05-.4.09-.62l-.33.06-.32.06a6.7,6.7,0,0,1-.93.16A.32.32,0,0,1,397.26,345.48Zm6-2.73a12.45,12.45,0,0,0,1.32-.6l1.72-.88a17.06,17.06,0,0,0,1.54-.95,6.29,6.29,0,0,0,1.19-1.13,3.14,3.14,0,0,0,.67-1.19,1.52,1.52,0,0,0,0-.48,1.07,1.07,0,0,0-.45-.56,1.65,1.65,0,0,0-.66-.28l-.11,0h-.11a1.82,1.82,0,0,0-1,.31,5.15,5.15,0,0,0-1,.77,10.36,10.36,0,0,0-.9,1c-.29.38-.57.76-.84,1.13a13.64,13.64,0,0,0-.85,1.38A7.38,7.38,0,0,0,403.27,342.75Z" transform="translate(-140 -144)"/><path class="cls-1" d="M418,333.3l.26-.3a1.09,1.09,0,0,1,.17-.13,1.32,1.32,0,0,1,.3-.1,1.14,1.14,0,0,0,.26-.09l.19,0h.43a.75.75,0,0,1,.54.51,11.93,11.93,0,0,1,.45,1.16c.27.73.48,1.29.62,1.69a9.05,9.05,0,0,0,.44,1,7.62,7.62,0,0,0,.48.84,1.59,1.59,0,0,1,.23.68c0,.14,0,.29.05.43s.06.24.17.28a.17.17,0,0,0,.12,0,.64.64,0,0,0,.28-.06,1,1,0,0,0,.19-.12.75.75,0,0,0,.26-.27l.39-.63.31-.56a2.1,2.1,0,0,1,.18-.28l.14-.15a5.71,5.71,0,0,1,.42-.44,6.66,6.66,0,0,0,.51-.48,4,4,0,0,1,.33-.29c.2-.19.37-.33.49-.44l.41-.31L427,335l.57-.37.57-.32a1.73,1.73,0,0,1,.39-.17,2.84,2.84,0,0,1,.9-.13,3,3,0,0,1,.42,0,1.1,1.1,0,0,1,.42.19,1.47,1.47,0,0,1,.23.19,1,1,0,0,1,.26.4.9.9,0,0,1,0,.51c0,.15-.09.32-.15.48a1.53,1.53,0,0,1-1.27,1.09h-.16l-.15,0a.75.75,0,0,1-.28-.07.29.29,0,0,1-.17-.17,2.16,2.16,0,0,0-.23-.35,1,1,0,0,0-.47-.41,1.34,1.34,0,0,0-.64.19,2.91,2.91,0,0,0-.54.4,4,4,0,0,0-.71,1,5.07,5.07,0,0,1-.34.57,12.47,12.47,0,0,0-.84,2.34,11.28,11.28,0,0,0-.34,2.47c0,.78,0,1.4,0,1.84a7.81,7.81,0,0,0,.09,1.23,2.48,2.48,0,0,1,.09.54,1.07,1.07,0,0,1-.18.7,4.68,4.68,0,0,1-.5.49l-.35.3-.61.48c-.27.2-.47.35-.6.43a4.23,4.23,0,0,1-.42.22.7.7,0,0,1-.23.06h-.14c-.09,0-.14,0-.16,0s-.13-.18-.09-.36.08-.38.12-.63a3.71,3.71,0,0,0,0-.58c0-.19,0-.46-.08-.79a5.31,5.31,0,0,0-.26-1.33l-.33-.87a6.5,6.5,0,0,0-.34-.66c-.1-.18-.19-.33-.26-.47a2.42,2.42,0,0,1-.19-.4,1.42,1.42,0,0,1-.08-.48,2.58,2.58,0,0,1,0-.47,1.79,1.79,0,0,0-.05-.46,1,1,0,0,0-.09-.28,1.17,1.17,0,0,0-.16-.25l-.2-.29c-.07-.12-.17-.27-.29-.45-.23-.35-.4-.63-.5-.82a3,3,0,0,1-.22-.58,2.33,2.33,0,0,1,0-.62.7.7,0,0,0-.12-.46.53.53,0,0,0-.29-.25.75.75,0,0,1-.36-.25,1.29,1.29,0,0,1-.31-.43c-.06-.15-.11-.29-.16-.44a1.22,1.22,0,0,1-.09-.4v-.3c0-.09,0-.19,0-.29a1.83,1.83,0,0,0-.11-.37c-.09-.21-.16-.37-.22-.48a.39.39,0,0,1,0-.33.38.38,0,0,1,.15-.09l.25-.09a1.52,1.52,0,0,0,.27-.22Z" transform="translate(-140 -144)"/><path class="cls-1" d="M440.23,339a.88.88,0,0,0,.37.67l1,.76c.19.15.39.32.62.53s.44.36.7.6.53.51.82.82.69.75.9,1a2.5,2.5,0,0,1,.46.83c0,.15.1.43.17.84a2.06,2.06,0,0,1-.23,1.3,2.08,2.08,0,0,1-.9.89,7.63,7.63,0,0,1-1.08.41,3,3,0,0,1-.52.13,2.6,2.6,0,0,1-.4,0l-.49,0-.8.12a2.34,2.34,0,0,0-.32.07l-.31.1a4.61,4.61,0,0,1-.59.19l-1.19.36a9,9,0,0,0-1.13.34c-.28.1-.44.24-.48.4a.51.51,0,0,0,.1.3.56.56,0,0,1,.11.38.76.76,0,0,1-.15.48,1.42,1.42,0,0,1-.22.24.93.93,0,0,1-.51.26,5.4,5.4,0,0,1-.79.05h-.27l-.23,0a2.24,2.24,0,0,1-.8-.16,2.5,2.5,0,0,1-.58-.42.89.89,0,0,1-.32-.66.85.85,0,0,1,.45-.73,9.08,9.08,0,0,1,.85-.51,5.67,5.67,0,0,1,.59-.24l.52-.14.61-.12c.22,0,.49-.1.82-.19.77-.2,1.36-.39,1.8-.55a1.84,1.84,0,0,0,1-.81,1.39,1.39,0,0,0,.19-.88c-.05-.28-.08-.46-.1-.55a1.71,1.71,0,0,0-.42-.8c-.19-.21-.5-.52-.91-.93-.25-.27-.43-.48-.56-.64l-.31-.4-.26-.36a4.2,4.2,0,0,0-.45-.49,4.82,4.82,0,0,0-.7-.65l-.51-.39-.43-.34a4.07,4.07,0,0,1-.5-.51,10.53,10.53,0,0,1-.79-1.1,2,2,0,0,1-.29-1.29,1.93,1.93,0,0,1,.38-1,7,7,0,0,1,.58-.65,3.29,3.29,0,0,1,.91-.64,5.87,5.87,0,0,1,1.18-.43,9.59,9.59,0,0,1,1.27-.27,8.11,8.11,0,0,1,1.13-.09,3.73,3.73,0,0,1,1.74.43l.31.17a2.71,2.71,0,0,1,.49.38,2.8,2.8,0,0,1,.45.52.93.93,0,0,1,.17.64,1,1,0,0,1-.17.45,3.65,3.65,0,0,1-.29.37,3,3,0,0,1-.28.26l-.16.13a1.62,1.62,0,0,1-.46.23.69.69,0,0,0-.37.29s-.09.12-.2.3A.94.94,0,0,0,440.23,339Z" transform="translate(-140 -144)"/><path class="cls-1" d="M452.41,337.3l.29-.26.17-.18a2.77,2.77,0,0,1,.84-1.07,8.71,8.71,0,0,1,1.47-1,9.93,9.93,0,0,1,1.69-.71,4.85,4.85,0,0,1,1.46-.28,3.76,3.76,0,0,1,1,.15,3.21,3.21,0,0,1,1.27.76,6.26,6.26,0,0,1,.62.7,3.36,3.36,0,0,1,.56,1.16,7.18,7.18,0,0,1,.19,1.16,6.58,6.58,0,0,1,0,1,6.84,6.84,0,0,1-.11.73,7.35,7.35,0,0,1-1,2.54,14.55,14.55,0,0,1-1.77,2.42,19.14,19.14,0,0,1-4.52,3.72c-.58.33-1,.57-1.37.73a3.38,3.38,0,0,1-1,.29,4.61,4.61,0,0,1-2.34-.62,4.46,4.46,0,0,1-1.72-1.7,3.66,3.66,0,0,1-.23-.58c0-.17-.11-.37-.17-.6a5.93,5.93,0,0,1-.23-1.44,5.87,5.87,0,0,1,0-.89,1.77,1.77,0,0,1,0-.37l.06-.23c0-.07,0-.18.08-.31a4.3,4.3,0,0,0,.08-.57c0-.38.07-.67.09-.89a1.17,1.17,0,0,1,.25-.6,1.24,1.24,0,0,1,.29-.28l.39-.25a6.27,6.27,0,0,0,.84-.6c.18-.18.35-.34.49-.5l.45-.45a2.41,2.41,0,0,1,.67-.4l.59-.27A3.72,3.72,0,0,0,452.41,337.3Zm2,1.39a1.23,1.23,0,0,1-.66.83,2.28,2.28,0,0,1-1.07.32,4.48,4.48,0,0,0-1.1.17,1.89,1.89,0,0,0-.95.54,3.92,3.92,0,0,0-.2.45,3,3,0,0,0,0,1.29,13.25,13.25,0,0,0,.3,1.69,3.23,3.23,0,0,0,.91,1.53,3,3,0,0,0,.3.28,2.85,2.85,0,0,0,.49.37,3.15,3.15,0,0,0,.69.33,2.43,2.43,0,0,0,.82.14,2.34,2.34,0,0,0,1.24-.34,5.6,5.6,0,0,0,1.76-1.78c.21-.34.39-.64.53-.89l.36-.68a6,6,0,0,0,.35-.91,7.11,7.11,0,0,0,.24-1.1,5,5,0,0,0,0-1.28l-.09-.54a3.84,3.84,0,0,0-.22-.74,3.37,3.37,0,0,0-.42-.76,2,2,0,0,0-.7-.62l-.41-.2a1.73,1.73,0,0,0-.79-.17,1.1,1.1,0,0,0-.81.32,1.36,1.36,0,0,0-.37.79,1.24,1.24,0,0,0,0,.5.43.43,0,0,1-.08.37S454.43,338.65,454.39,338.69Z" transform="translate(-140 -144)"/><path class="cls-1" d="M466.51,335.78a6.48,6.48,0,0,1,.76-.82,2.21,2.21,0,0,1,1-.58,2.92,2.92,0,0,1,.45.05.45.45,0,0,1,.35.23.2.2,0,0,1,0,.25,1.59,1.59,0,0,0-.18.37,1.11,1.11,0,0,0-.08.69,1.19,1.19,0,0,1-.05.68,1,1,0,0,1-.21.45,1.45,1.45,0,0,0-.31.51,1.08,1.08,0,0,0-.11.34c0,.08,0,.18,0,.28s0,.22,0,.35a4,4,0,0,1-.11.58c-.09.31-.16.59-.22.85a2.74,2.74,0,0,0,0,.92c0,.24.08.39.19.43s.23-.05.4-.28a7.15,7.15,0,0,1,.62-.74,6.68,6.68,0,0,1,.71-.58c.37-.28.78-.56,1.21-.85l1.21-.79a2.75,2.75,0,0,1,.74-.39c.23-.06.44-.11.62-.14a2.41,2.41,0,0,0,.69-.26l.34-.2a.46.46,0,0,1,.24-.08h.07s.07.05.1.14a3.89,3.89,0,0,1,.11.76v.67a1.79,1.79,0,0,1-.09.54c0,.14-.07.24-.09.29l-.1.24a2.18,2.18,0,0,0-.09.77,4.1,4.1,0,0,0,.09.59.53.53,0,0,1,0,.25.42.42,0,0,0,0,.14,4.33,4.33,0,0,0,0,.46c0,.24.09.67.17,1.29s.18,1.27.23,1.64a3.48,3.48,0,0,0,.18.78,4.65,4.65,0,0,0,.51.82,5,5,0,0,0,1.07,1,4.66,4.66,0,0,1,0,.49,1.47,1.47,0,0,1-.33.71,1.55,1.55,0,0,1-.85.7,3.29,3.29,0,0,1-1.1.17,2,2,0,0,1-.9-.35,2.91,2.91,0,0,1-.68-.72,4.71,4.71,0,0,1-.46-.85c-.13-.29-.23-.54-.31-.74a6.8,6.8,0,0,1-.5-2.11q-.06-1-.06-1.8a16.85,16.85,0,0,1,.11-1.77c.05-.41,0-.66-.21-.74l0,0h-.08a.86.86,0,0,0-.43.15,2.86,2.86,0,0,0-.48.38,5.28,5.28,0,0,0-.41.41,3.39,3.39,0,0,1-.23.27,7.07,7.07,0,0,0-.79,1.16,10,10,0,0,0-.76,1.91,12.37,12.37,0,0,0-.34,1.5c-.06.4-.12.74-.17,1a3.81,3.81,0,0,1-.2.73,1.57,1.57,0,0,1-.47.59,3.33,3.33,0,0,1-.68.45,2.68,2.68,0,0,1-.65.23,2.87,2.87,0,0,1-.71.16h-.28a2.85,2.85,0,0,1-.53,0,24.43,24.43,0,0,1,0-3c0-.68.08-1.5.19-2.46s.24-1.95.43-2.95.41-2,.68-2.88A9.41,9.41,0,0,1,466.51,335.78Z" transform="translate(-140 -144)"/><path class="cls-1" d="M388,384.76l.67-1.1c.19-.32.36-.6.51-.82a3.38,3.38,0,0,1,.59-.72,13.85,13.85,0,0,1,1.36-1.14l1.61-1.14a15.62,15.62,0,0,1,1.45-.88,6.51,6.51,0,0,1,1.41-.57,5.19,5.19,0,0,1,1.48-.2,4.85,4.85,0,0,1,1.63.23,2.6,2.6,0,0,1,1.1.7,3.69,3.69,0,0,1,.72,1.16,9.73,9.73,0,0,1,.46,1.59,11,11,0,0,1,.11,1.18,4.7,4.7,0,0,1-.33,1.86,2.93,2.93,0,0,1-.18.42l-.19.33c-.06.1-.13.21-.2.34a3.88,3.88,0,0,0-.23.49,5.87,5.87,0,0,0-.45,1.57c-.05.44-.1.8-.14,1.07a6.48,6.48,0,0,1-.23,1.18,9.73,9.73,0,0,1-.47,1.19c-.2.42-.43.88-.71,1.36s-.61,1-1,1.66c-.21.37-.42.72-.63,1s-.46.65-.72,1-.55.71-.87,1.1l-1.1,1.37c-.37.43-.78.89-1.22,1.38a15.43,15.43,0,0,1-1.44,1.36,10.07,10.07,0,0,1-1.63,1.09,4.34,4.34,0,0,1-1.75.51h-.26l-.3,0a2.55,2.55,0,0,1-1.49-.4,2.67,2.67,0,0,1-.85-1,4.53,4.53,0,0,1-.4-1.38,12.58,12.58,0,0,1-.14-1.47q-.06-1.55-.06-2.43c0-.59,0-1.16.06-1.69s.09-1.12.14-1.49a4,4,0,0,1,.32-1.09l.28-.52c.08-.15.17-.28.25-.41s.17-.25.26-.4a2.66,2.66,0,0,0,.27-.56,3.17,3.17,0,0,0,.2-.63c0-.18.06-.35.08-.51s0-.34,0-.53a3.5,3.5,0,0,1,.14-.71c0-.07.06-.16.11-.28s.14-.31.26-.56.3-.57.53-1S387.6,385.4,388,384.76Zm3.41.28v0l-.2.06-.2,0a3.76,3.76,0,0,0-.78.51,2.7,2.7,0,0,0-.52.79,6.4,6.4,0,0,0-.45,1.1,6.53,6.53,0,0,0-.17.64c-.11.66-.17,1.2-.21,1.61s-.06.78-.1,1.09a4.43,4.43,0,0,1-.1.72c0,.18-.08.34-.12.5s-.08.33-.13.53-.09.47-.15.82a12.12,12.12,0,0,0-.23,2.85c0,.72.1,1.2.14,1.43.1.51.22,1,.35,1.47a1.13,1.13,0,0,0,.73.85s.08,0,.19,0A1.43,1.43,0,0,0,390,400a4.67,4.67,0,0,0,1-.63,8.76,8.76,0,0,0,1.31-1.38,15.09,15.09,0,0,0,1-1.54l.93-1.58c.27-.45.51-.87.71-1.25s.39-.75.55-1.09.29-.68.41-1c.07-.2.11-.35.14-.45a3.19,3.19,0,0,0,.1-.35c0-.15.08-.34.15-.58l.33-1.07c.24-.86.46-1.56.63-2.07s.32-.93.42-1.24a5,5,0,0,0,.2-.78,3.23,3.23,0,0,0,0-.71,5.41,5.41,0,0,0-.2-1.12,5.13,5.13,0,0,0-.47-1.1,3.75,3.75,0,0,0-.68-.88,1.78,1.78,0,0,0-.91-.47,1.62,1.62,0,0,0-.35,0,2.51,2.51,0,0,0-1,.24,3.57,3.57,0,0,0-.87.51,4.12,4.12,0,0,0-.35.31,1.67,1.67,0,0,0-.36.46,1.37,1.37,0,0,0-.16.56c0,.17,0,.33,0,.48s0,.31,0,.45a1.18,1.18,0,0,1-.08.5,2.13,2.13,0,0,1-.4.52A2.08,2.08,0,0,1,391.4,385Z" transform="translate(-140 -144)"/><path class="cls-1" d="M402.38,387.3l.26-.3a1.09,1.09,0,0,1,.17-.13,1.25,1.25,0,0,1,.29-.1,1.22,1.22,0,0,0,.27-.09l.18,0H404a.79.79,0,0,1,.54.51c.13.3.28.69.45,1.16l.62,1.69a9.17,9.17,0,0,0,.43,1q.32.58.48.84a1.59,1.59,0,0,1,.24.68c0,.14,0,.29,0,.43a.29.29,0,0,0,.17.28.19.19,0,0,0,.13,0,.67.67,0,0,0,.28-.06.7.7,0,0,0,.18-.12.87.87,0,0,0,.27-.27c.07-.11.2-.32.38-.63s.27-.48.31-.56a2.33,2.33,0,0,1,.19-.28l.14-.15a5.71,5.71,0,0,1,.42-.44l.51-.48a4,4,0,0,1,.32-.29l.5-.44.4-.31a3.35,3.35,0,0,0,.42-.28l.57-.37.58-.32a1.42,1.42,0,0,1,.39-.17,2.73,2.73,0,0,1,.89-.13,2.77,2.77,0,0,1,.42,0,1,1,0,0,1,.42.19,1.11,1.11,0,0,1,.23.19.89.89,0,0,1,.27.4.9.9,0,0,1,0,.51,3.38,3.38,0,0,1-.16.48,1.52,1.52,0,0,1-1.27,1.09h-.15l-.16,0a.85.85,0,0,1-.28-.07.31.31,0,0,1-.17-.17,2.16,2.16,0,0,0-.23-.35,1,1,0,0,0-.46-.41,1.34,1.34,0,0,0-.64.19,2.37,2.37,0,0,0-.54.4,4.33,4.33,0,0,0-.72,1,3.79,3.79,0,0,1-.34.57,11.79,11.79,0,0,0-.83,2.34,11.28,11.28,0,0,0-.34,2.47c0,.78,0,1.4,0,1.84a7.75,7.75,0,0,0,.1,1.23,2.48,2.48,0,0,1,.09.54,1.08,1.08,0,0,1-.19.7,4.31,4.31,0,0,1-.49.49l-.36.3-.6.48c-.27.2-.47.35-.61.43a2.78,2.78,0,0,1-.42.22.7.7,0,0,1-.23.06H406a.24.24,0,0,1-.15,0c-.11-.06-.14-.18-.1-.36a5.28,5.28,0,0,0,.13-.63,3.72,3.72,0,0,0,0-.58c0-.19,0-.46-.07-.79a4.88,4.88,0,0,0-.27-1.33c-.13-.37-.24-.66-.32-.87s-.24-.49-.34-.66-.19-.33-.27-.47a3.52,3.52,0,0,1-.18-.4,1.42,1.42,0,0,1-.08-.48,2.8,2.8,0,0,1,0-.47,1.69,1.69,0,0,0,0-.46.77.77,0,0,0-.1-.28,1.65,1.65,0,0,0-.15-.25l-.2-.29q-.11-.18-.3-.45c-.22-.35-.39-.63-.49-.82a2.08,2.08,0,0,1-.22-.58,2.33,2.33,0,0,1,0-.62.7.7,0,0,0-.12-.46.58.58,0,0,0-.3-.25.86.86,0,0,1-.36-.25,1.65,1.65,0,0,1-.31-.43,3.81,3.81,0,0,1-.15-.44,1.22,1.22,0,0,1-.09-.4v-.3c0-.09,0-.19,0-.29a1.35,1.35,0,0,0-.11-.37,4.12,4.12,0,0,0-.21-.48.36.36,0,0,1,0-.33.51.51,0,0,1,.16-.09l.25-.09a1.43,1.43,0,0,0,.26-.22C401.87,387.84,402.06,387.63,402.38,387.3Z" transform="translate(-140 -144)"/><path class="cls-1" d="M428.29,390.62a.71.71,0,0,1,0,.45,1.36,1.36,0,0,1-.26.41,1.39,1.39,0,0,1-.41.31.86.86,0,0,1-.45.13.57.57,0,0,1-.37-.14,2.49,2.49,0,0,1-.31-.33l-.35-.4a1.43,1.43,0,0,0-.55-.34,2.58,2.58,0,0,0-.93-.19,3.23,3.23,0,0,0-1.11.19l-.69.25a4.28,4.28,0,0,0-.91.57,4.84,4.84,0,0,0-.81.82,4.93,4.93,0,0,0-.58,1,2.59,2.59,0,0,0-.24,1.06,2.7,2.7,0,0,0,.28,1.24c.19.35.35.64.5.87a8.42,8.42,0,0,0,1.08,1.17,2.13,2.13,0,0,0,1.49.56,1.92,1.92,0,0,0,.92-.21,1.69,1.69,0,0,1,.88-.22h.2a.53.53,0,0,1,.23.06,1.57,1.57,0,0,1,.75.47,3,3,0,0,1,.49.71,3.3,3.3,0,0,1,.27.71c.05.23.08.39.1.5a4.81,4.81,0,0,1,.16,1.19c0,.51,0,1.05,0,1.63s-.05,1.17-.09,1.77-.1,1.13-.16,1.61-.13.87-.2,1.18-.14.46-.2.46-.12-.17-.17-.5-.11-.74-.16-1.24-.1-1-.17-1.64-.14-1.17-.24-1.72a11,11,0,0,0-.38-1.46,1.74,1.74,0,0,0-.56-.88,2.63,2.63,0,0,0-.68-.36,2.06,2.06,0,0,0-.4-.1,3.31,3.31,0,0,0-.93-.13l-.33,0h-.29a2.38,2.38,0,0,1-.39,0h-.42c-.37,0-.74,0-1.11,0a4,4,0,0,1-1-.2,2.69,2.69,0,0,1-1-.66,4,4,0,0,1-.7-1,5.69,5.69,0,0,1-.42-1.13,4.91,4.91,0,0,1-.14-1.06,3.57,3.57,0,0,1,.25-1.66,14,14,0,0,1,.62-1.28,8.48,8.48,0,0,1,1.71-2.11,7,7,0,0,1,2.32-1.43,6.11,6.11,0,0,1,.81-.21l.4-.07a4,4,0,0,1,.84-.06,8.41,8.41,0,0,1,.94.08,7.9,7.9,0,0,1,1.23.25,5.25,5.25,0,0,1,1.1.42A1,1,0,0,1,428.29,390.62Zm-1.33-1a.41.41,0,0,1,.2-.13l.22,0,.28-.06a1.79,1.79,0,0,0,.41-.17,2.33,2.33,0,0,0,.58-.45,1.59,1.59,0,0,1,.6-.38l.28-.1a1.11,1.11,0,0,1,.34-.06c.11,0,.17,0,.19.06s.08.22,0,.41-.17.35-.25.49a3.63,3.63,0,0,0-.16.39c0,.09,0,.23-.07.4s-.08.43-.14.76-.18.81-.34,1.43-.27,1.05-.36,1.36-.17.55-.23.71a4.3,4.3,0,0,0-.14.44c0,.12-.07.31-.11.56s0,.46-.05.63,0,.37,0,.58,0,.45,0,.74,0,.65,0,1.08c0,.17,0,.53,0,1.09s0,1.21,0,2,0,1.55,0,2.4,0,1.65,0,2.42-.07,1.71-.11,2.53a24.11,24.11,0,0,1-.26,2.71c-.06.41-.14.8-.23,1.18a3,3,0,0,1-.54,1.08,2.82,2.82,0,0,1-1.23,1.13,3.56,3.56,0,0,1-1.63.42,3.85,3.85,0,0,1-.94-.11l-.73-.2a2.21,2.21,0,0,1-.37-.14,4,4,0,0,1-.48-.29l-.9-.64-1.63-1.16a13.08,13.08,0,0,1-1.16-.87,1.32,1.32,0,0,1-.45-.74c0-.13-.05-.33-.08-.61s-.05-.57-.06-.87a6.07,6.07,0,0,1,0-.86,1.61,1.61,0,0,1,.2-.67,9.66,9.66,0,0,1,.9-1.13,7.87,7.87,0,0,1,2.5-1.83,4,4,0,0,1,1.38-.39h.18l.28,0c.21,0,.32,0,.34.09a.46.46,0,0,1,0,.1.62.62,0,0,1-.13.17,3.79,3.79,0,0,1-.35.28l-.69.45c-.37.24-.69.44-1,.58l-.71.38a3.35,3.35,0,0,0-.54.32,3.3,3.3,0,0,0-.48.45.9.9,0,0,0-.16.51c0,.24,0,.49,0,.76s0,.53,0,.79,0,.45,0,.58a1.51,1.51,0,0,0,.51,1,6.77,6.77,0,0,0,1.18.92,13.08,13.08,0,0,0,1.37.75c.46.22.82.38,1.07.48l1.14.4a2.1,2.1,0,0,0,.72.16,1.1,1.1,0,0,0,.31-.06,1.26,1.26,0,0,0,.52-.9c.11-.48.22-1.17.34-2.08.07-.52.12-1,.16-1.57a13.17,13.17,0,0,0,0-1.78q0-.12,0-.6c0-.32,0-.7-.06-1.12s0-.88-.08-1.36-.06-.95-.08-1.38-.05-.81-.08-1.13,0-.54,0-.64c0-.41-.08-.73-.11-1s-.06-.39-.08-.5a4.53,4.53,0,0,0-.29-.88c-.12-.24-.23-.44-.33-.62a4,4,0,0,1-.25-.51,1.28,1.28,0,0,1-.06-.56.76.76,0,0,1,.05-.29,1.79,1.79,0,0,1,.12-.24l.2-.31a2,2,0,0,0,.25-.55,2.87,2.87,0,0,0,.2-.58c0-.15.06-.32.1-.49s.06-.39.1-.64.11-.57.19-1a5.18,5.18,0,0,1,.17-.65l.12-.36a1.44,1.44,0,0,0,.08-.25,1.12,1.12,0,0,0,0-.29,4,4,0,0,0,0-1.26A.68.68,0,0,1,427,389.66Z" transform="translate(-140 -144)"/><path class="cls-1" d="M440.57,392.32a.74.74,0,0,0-.16-.31l-.15-.15a1.06,1.06,0,0,0-.34-.16l-.25-.08a1,1,0,0,0-.25,0h-.09a1.56,1.56,0,0,0-.79.38,9.47,9.47,0,0,0-1,.92q-.51.53-1,1.08a7,7,0,0,0-.63.9,3.68,3.68,0,0,0-.41,1.21,8.91,8.91,0,0,0-.06.93c0,.37,0,.7,0,1a1.78,1.78,0,0,0,.26.85,4.47,4.47,0,0,0,.39.54,1.74,1.74,0,0,0,.91.58l.22,0a2,2,0,0,0,.46.05,2.3,2.3,0,0,0,.45-.05,1.23,1.23,0,0,0,.48-.2,2,2,0,0,0,.42-.34q.27-.24.54-.51l.52-.51c.15-.17.26-.29.32-.37a1.64,1.64,0,0,0,.25-.58c.06-.23.15-.56.28-1s.16-.61.19-.7.07-.25.15-.48a3.54,3.54,0,0,1,.17-.48l.14-.31.12-.28a2.13,2.13,0,0,0,.13-.42l.23-.79a1.72,1.72,0,0,0,.08-.36,5.88,5.88,0,0,0,.17-1.25,8.44,8.44,0,0,0,0-.95l.75-.32.8-.42.62-.4L445,389a5.71,5.71,0,0,1,.33,1.1,3.5,3.5,0,0,1,0,.83,3.71,3.71,0,0,1-.18,1.1c-.13.38-.31.9-.56,1.56l-.25.62c-.06.15-.11.26-.16.36a1.52,1.52,0,0,0-.09.25l-.09.29q-.06.35-.12.93a3.53,3.53,0,0,0,.12,1.3,2.79,2.79,0,0,0,.36.82,11.83,11.83,0,0,0,.65,1,10.62,10.62,0,0,0,.74,1,4.54,4.54,0,0,0,.64.66,1.4,1.4,0,0,1,.24.17l.39.29a4,4,0,0,1,.37.3c.12.09.17.16.17.2s0,.22-.18.35-.45.39-.84.76a3.84,3.84,0,0,0-.48.44,4.29,4.29,0,0,1-.45.4,4.09,4.09,0,0,1-.65.5,1.8,1.8,0,0,1-.37.06,1.75,1.75,0,0,1-.85-.23,4.87,4.87,0,0,1-.73-.49,2.67,2.67,0,0,1-.65-.52q-.37-.37-.75-.81c-.25-.29-.48-.58-.71-.87l-.56-.71-1,1a10.58,10.58,0,0,1-1.16.94,6.83,6.83,0,0,1-1.29.72,3.61,3.61,0,0,1-1.38.27,4.07,4.07,0,0,1-1-.12,7.76,7.76,0,0,1-.77-.34,2.53,2.53,0,0,1-1-1,2.61,2.61,0,0,1-.41-1.18,8.15,8.15,0,0,1,0-1A6.54,6.54,0,0,1,433,398c.35-.81.77-1.65,1.24-2.52s1-1.68,1.47-2.46a18.08,18.08,0,0,1,1.29-1.78,9.4,9.4,0,0,1,.9-1,16.87,16.87,0,0,1,1.33-1.12,1.47,1.47,0,0,1,.37,0h.27a1.82,1.82,0,0,1,.29.08l.41.22a1.18,1.18,0,0,1,.46.5,1.3,1.3,0,0,1,.17.55,2,2,0,0,1,0,.44,3,3,0,0,1-.19.71A1.8,1.8,0,0,1,440.57,392.32Z" transform="translate(-140 -144)"/><path class="cls-1" d="M452.19,389.78A6.48,6.48,0,0,1,453,389a2.21,2.21,0,0,1,.95-.58,2.92,2.92,0,0,1,.45.05.45.45,0,0,1,.35.23.23.23,0,0,1,0,.25,1.59,1.59,0,0,0-.18.37,1.11,1.11,0,0,0-.08.69,1.28,1.28,0,0,1-.05.68.89.89,0,0,1-.22.45,1.84,1.84,0,0,0-.31.51,1.32,1.32,0,0,0-.1.34c0,.08,0,.18,0,.28s0,.22,0,.35a3.7,3.7,0,0,1-.1.58c-.09.31-.16.59-.22.85a2.74,2.74,0,0,0,0,.92c0,.24.08.39.18.43s.24-.05.41-.28a7.15,7.15,0,0,1,.62-.74,6.68,6.68,0,0,1,.71-.58c.37-.28.77-.56,1.21-.85l1.21-.79a2.75,2.75,0,0,1,.74-.39c.23-.06.44-.11.62-.14a2.36,2.36,0,0,0,.68-.26l.34-.2a.52.52,0,0,1,.25-.08h.06c.05,0,.08.05.11.14a5,5,0,0,1,.11.76v.67a1.79,1.79,0,0,1-.09.54c0,.14-.07.24-.09.29a1.58,1.58,0,0,0-.1.24,2.18,2.18,0,0,0-.09.77,4.1,4.1,0,0,0,.09.59.74.74,0,0,1,.05.25.33.33,0,0,0,0,.14c0,.07,0,.22.05.46s.09.67.17,1.29.18,1.27.23,1.64a3.61,3.61,0,0,0,.17.78,6.26,6.26,0,0,0,.51.82,5.57,5.57,0,0,0,1.07,1,4,4,0,0,1,0,.49,1.47,1.47,0,0,1-.33.71,1.55,1.55,0,0,1-.85.7,3.29,3.29,0,0,1-1.1.17,2,2,0,0,1-.9-.35,2.74,2.74,0,0,1-.68-.72,5.49,5.49,0,0,1-.47-.85c-.12-.29-.22-.54-.31-.74a6.77,6.77,0,0,1-.49-2.11q-.06-1-.06-1.8c0-.76.05-1.35.1-1.77s0-.66-.2-.74l0,0h-.08a.89.89,0,0,0-.44.15,4,4,0,0,0-.48.38,5,5,0,0,0-.4.41,3.39,3.39,0,0,1-.23.27,7.07,7.07,0,0,0-.79,1.16,10,10,0,0,0-.76,1.91,12.37,12.37,0,0,0-.34,1.5c-.06.4-.12.74-.17,1a3.81,3.81,0,0,1-.2.73,1.57,1.57,0,0,1-.47.59,3.33,3.33,0,0,1-.68.45,5.88,5.88,0,0,1-1.37.39h-.27a2.85,2.85,0,0,1-.53,0,24.43,24.43,0,0,1,0-3q0-1,.18-2.46c.11-1,.25-1.95.44-2.95a27.56,27.56,0,0,1,.68-2.88A9.41,9.41,0,0,1,452.19,389.78Z" transform="translate(-140 -144)"/><path class="cls-1" d="M466.54,391.05a9.89,9.89,0,0,1,.83-1q.45-.48.63-.48a.12.12,0,0,1,.09,0,.26.26,0,0,1,.07.2,4.75,4.75,0,0,1-.16.73c-.08.36-.15.64-.2.87a7.09,7.09,0,0,1-.23.78,8.44,8.44,0,0,0-.42,1.84,9.93,9.93,0,0,0,0,2.5,8.75,8.75,0,0,0,.25,1.08,7.19,7.19,0,0,0,.5,1.26,4.53,4.53,0,0,0,.74,1.07,1.54,1.54,0,0,0,1,.52h.06a1,1,0,0,0,.42-.07.93.93,0,0,1,.42-.08,1.57,1.57,0,0,1,.64.17.71.71,0,0,1,.42.45,1.28,1.28,0,0,1-.39,1,4,4,0,0,1-1.07.93,2.31,2.31,0,0,1-.67.3,2.83,2.83,0,0,1-.63.07,2.5,2.5,0,0,1-.73-.09l-.45-.15a3,3,0,0,1-1-.61,6.3,6.3,0,0,1-.7-.79,4.28,4.28,0,0,1-.46-.76,4.63,4.63,0,0,1-.24-.54,7,7,0,0,1-.49-2.65,16.4,16.4,0,0,1,.18-2.19,7.57,7.57,0,0,1,.13-.76,8.68,8.68,0,0,1,.28-1.08,10.12,10.12,0,0,1,.48-1.27A6.83,6.83,0,0,1,466.54,391.05Zm1.06-5.15s.11-.2.28-.48a1.28,1.28,0,0,1,.8-.57,1.26,1.26,0,0,1,.47-.06,1.36,1.36,0,0,1,.29,0,.56.56,0,0,1,.27.15.49.49,0,0,1,.14.24,4.39,4.39,0,0,1,.07.69c0,.44.07.77.08,1a1.44,1.44,0,0,1-.08.61.69.69,0,0,0-.09.15,1.23,1.23,0,0,1-.19.27,1.84,1.84,0,0,1-.29.26.65.65,0,0,1-.39.12,1.19,1.19,0,0,1-.68-.21,1.17,1.17,0,0,1-.48-.45c-.09-.18-.16-.32-.2-.42a2.47,2.47,0,0,1-.11-.53A1.69,1.69,0,0,1,467.6,385.9Z" transform="translate(-140 -144)"/><path class="cls-1" d="M480.93,393a.88.88,0,0,0,.37.67l1,.76c.19.15.39.32.62.53s.44.36.7.6.53.51.82.82.69.75.9,1a2.33,2.33,0,0,1,.46.83,7.27,7.27,0,0,1,.17.84,2,2,0,0,1-.23,1.3,2,2,0,0,1-.9.89,7.63,7.63,0,0,1-1.08.41,3.17,3.17,0,0,1-.51.13,2.83,2.83,0,0,1-.41,0l-.49,0c-.2,0-.46.06-.79.12a2.22,2.22,0,0,0-.33.07l-.31.1a4.13,4.13,0,0,1-.59.19l-1.19.36a9.52,9.52,0,0,0-1.13.34c-.28.1-.44.24-.48.4a.47.47,0,0,0,.11.3.61.61,0,0,1,.1.38.76.76,0,0,1-.15.48,1.09,1.09,0,0,1-.22.24.9.9,0,0,1-.51.26,5.4,5.4,0,0,1-.79.05h-.26l-.24,0a2.33,2.33,0,0,1-.8-.16,2.5,2.5,0,0,1-.58-.42.89.89,0,0,1-.32-.66.85.85,0,0,1,.45-.73,9.08,9.08,0,0,1,.85-.51,5.67,5.67,0,0,1,.59-.24l.53-.14.6-.12c.22,0,.49-.1.82-.19.77-.2,1.37-.39,1.8-.55a1.77,1.77,0,0,0,1-.81,1.39,1.39,0,0,0,.19-.88,4,4,0,0,0-.1-.55,1.79,1.79,0,0,0-.41-.8c-.2-.21-.5-.52-.92-.93-.25-.27-.43-.48-.56-.64l-.31-.4-.26-.36a4.2,4.2,0,0,0-.45-.49,4.82,4.82,0,0,0-.7-.65l-.51-.39-.43-.34a4.07,4.07,0,0,1-.5-.51,10.53,10.53,0,0,1-.79-1.1,2,2,0,0,1-.29-1.29,1.93,1.93,0,0,1,.38-1,7,7,0,0,1,.58-.65,3.44,3.44,0,0,1,.91-.64,6.11,6.11,0,0,1,1.18-.43,9.59,9.59,0,0,1,1.27-.27,8.11,8.11,0,0,1,1.13-.09,3.73,3.73,0,0,1,1.74.43l.31.17a3.15,3.15,0,0,1,.5.38,3.18,3.18,0,0,1,.44.52.94.94,0,0,1,.18.64,1.09,1.09,0,0,1-.18.45,3.65,3.65,0,0,1-.29.37,2.1,2.1,0,0,1-.28.26l-.15.13a1.66,1.66,0,0,1-.47.23.73.73,0,0,0-.37.29s-.09.12-.2.3A.94.94,0,0,0,480.93,393Z" transform="translate(-140 -144)"/><path class="cls-1" d="M496.4,392.32a.74.74,0,0,0-.16-.31l-.15-.15a1.06,1.06,0,0,0-.34-.16l-.25-.08a1,1,0,0,0-.25,0h-.09a1.56,1.56,0,0,0-.79.38,9.47,9.47,0,0,0-1,.92q-.51.53-1,1.08a7,7,0,0,0-.63.9,3.68,3.68,0,0,0-.41,1.21,8.91,8.91,0,0,0-.06.93c0,.37,0,.7,0,1a1.78,1.78,0,0,0,.26.85,4.47,4.47,0,0,0,.39.54,1.74,1.74,0,0,0,.91.58l.22,0a2,2,0,0,0,.46.05A2.3,2.3,0,0,0,494,400a1.23,1.23,0,0,0,.48-.2,2,2,0,0,0,.42-.34q.27-.24.54-.51l.52-.51c.15-.17.26-.29.32-.37a1.64,1.64,0,0,0,.25-.58c.06-.23.16-.56.28-1s.16-.61.19-.7.07-.25.15-.48a3.54,3.54,0,0,1,.17-.48l.14-.31.12-.28a1.61,1.61,0,0,0,.13-.42l.23-.79a1.72,1.72,0,0,0,.08-.36,5.88,5.88,0,0,0,.17-1.25,8.44,8.44,0,0,0,0-.95l.75-.32c.25-.12.51-.26.8-.42l.62-.4.53-.38a6.53,6.53,0,0,1,.33,1.1,3.5,3.5,0,0,1,0,.83A3.71,3.71,0,0,1,501,392c-.13.38-.31.9-.56,1.56l-.25.62c-.06.15-.11.26-.16.36a1.52,1.52,0,0,0-.09.25l-.09.29c0,.23-.08.54-.13.93a3.55,3.55,0,0,0,.13,1.3,3,3,0,0,0,.35.82c.2.35.42.69.66,1a10.62,10.62,0,0,0,.74,1,4.54,4.54,0,0,0,.64.66,1.4,1.4,0,0,1,.24.17l.39.29a4,4,0,0,1,.37.3c.12.09.17.16.17.2s0,.22-.18.35-.45.39-.84.76a3.84,3.84,0,0,0-.48.44,4.29,4.29,0,0,1-.45.4,4.09,4.09,0,0,1-.65.5,1.8,1.8,0,0,1-.37.06,1.75,1.75,0,0,1-.85-.23,4.87,4.87,0,0,1-.73-.49,2.67,2.67,0,0,1-.65-.52q-.37-.37-.75-.81c-.25-.29-.48-.58-.71-.87l-.56-.71-1,1a10.58,10.58,0,0,1-1.16.94,6.83,6.83,0,0,1-1.29.72,3.6,3.6,0,0,1-1.37.27,4.09,4.09,0,0,1-1-.12,7.76,7.76,0,0,1-.77-.34,2.53,2.53,0,0,1-1-1,2.61,2.61,0,0,1-.41-1.18,8.15,8.15,0,0,1,0-1,6.54,6.54,0,0,1,.59-1.92c.35-.81.77-1.65,1.24-2.52s1-1.68,1.47-2.46a18.08,18.08,0,0,1,1.29-1.78,9.4,9.4,0,0,1,.9-1,16.87,16.87,0,0,1,1.33-1.12,1.47,1.47,0,0,1,.37,0h.27a1.82,1.82,0,0,1,.29.08l.41.22a1.18,1.18,0,0,1,.46.5,1.3,1.3,0,0,1,.17.55,2,2,0,0,1,0,.44,3,3,0,0,1-.19.71A1.8,1.8,0,0,1,496.4,392.32Z" transform="translate(-140 -144)"/><path class="cls-1" d="M509.51,386.25a2.17,2.17,0,0,0,.22-.78,8.28,8.28,0,0,0,0-.87c0-.31,0-.66,0-1.07a8.58,8.58,0,0,1,0-1.41c0-.53.09-1,.15-1.36a4,4,0,0,1,.3-1,3.2,3.2,0,0,1,.57-.89,8.39,8.39,0,0,1,1-.91,4.11,4.11,0,0,1,.43-.22l.59-.22.59-.17a1.84,1.84,0,0,1,.47-.07.37.37,0,0,1,.25.09.77.77,0,0,1,0,.63,12.8,12.8,0,0,0-.23,1.51c0,.35-.07.63-.08.85s0,.41,0,.57l0,.5a3.71,3.71,0,0,1-.11.62l-.12.7c0,.23-.09.47-.13.69s-.1.41-.14.53a.55.55,0,0,0,0,.34c0,.13.16.19.37.19l.19,0h1.3a2.94,2.94,0,0,1,.53.08,1.49,1.49,0,0,1,.54.19l.37.24a2.17,2.17,0,0,0,.34.22,1,1,0,0,0,.45.09,1.28,1.28,0,0,0,.58-.12.85.85,0,0,1,.32-.12s0,0,.09.06a.42.42,0,0,1,0,.31,2.55,2.55,0,0,1-.17.48,4.26,4.26,0,0,1-.31.53,2.63,2.63,0,0,1-.43.45,1.34,1.34,0,0,1-.53.18l-1.12.06-.91.05c-.24,0-.43,0-.58,0a1.28,1.28,0,0,0-.34.09.54.54,0,0,0-.21.19,1.45,1.45,0,0,0-.31.77c-.05.31-.09.69-.13,1.15s0,.63,0,.9,0,.54.06.83.07.62.11,1,.09.79.15,1.29c.11.82.18,1.47.23,1.95s.09.94.11,1.39,0,1,0,1.38,0,.67-.06.92a3.51,3.51,0,0,0,0,.65,2,2,0,0,0,.16.59,1.92,1.92,0,0,0,.49.74,2.82,2.82,0,0,0,.64.44,3.1,3.1,0,0,0,.6.21l.41.1a2.18,2.18,0,0,0,.52.06,2.75,2.75,0,0,0,.67-.09,1.64,1.64,0,0,0,.7-.44,4.47,4.47,0,0,0,.49-.73c.23-.38.55-.95,1-1.72.09-.12.18-.28.3-.48a4,4,0,0,1,.39-.56,2.56,2.56,0,0,1,.48-.45.92.92,0,0,1,.54-.18.45.45,0,0,1,.25.09,1.2,1.2,0,0,1,.41.84,4,4,0,0,1,0,1.08,2.7,2.7,0,0,1-.19.7,4.31,4.31,0,0,1-1,1.38,3.19,3.19,0,0,1-.45.45c-.15.13-.32.26-.49.39l-.62.42-.89.57-1,.7-.49.34-.24.15-.2.11a8.36,8.36,0,0,1-1.47.57,6,6,0,0,1-1.6.18l-1-.14a2.1,2.1,0,0,1-.92-.48,3.43,3.43,0,0,1-1-1.35c-.21-.53-.35-.94-.44-1.23a5.17,5.17,0,0,1-.12-1c0-.29,0-.59.05-.9s.06-.66.11-1a10.31,10.31,0,0,0,0-1.41,9.43,9.43,0,0,0-.13-1.33c-.06-.33-.13-.63-.2-.9l-.22-.87a8.41,8.41,0,0,1-.14-1.3,14.89,14.89,0,0,1,.05-1.81c.05-.55.11-1,.16-1.43s.08-.73.11-1a.56.56,0,0,0-.13-.49q-.12-.09-1.77,1.14l-.59.38a2.1,2.1,0,0,1-.8.28,1.8,1.8,0,0,1-.37.06c-.17,0-.27,0-.31-.16a.87.87,0,0,1,.06-.42,3.07,3.07,0,0,1,.29-.57,6.57,6.57,0,0,1,.48-.63,3.18,3.18,0,0,1,.62-.55l.45-.25.39-.18c.13-.06.25-.14.39-.22a3.48,3.48,0,0,0,.48-.37,3.72,3.72,0,0,1,.36-.39A1.68,1.68,0,0,0,509.51,386.25Z" transform="translate(-140 -144)"/><path class="cls-1" d="M526,391.05a9.78,9.78,0,0,1,.82-1c.3-.32.52-.48.64-.48a.12.12,0,0,1,.09,0,.3.3,0,0,1,.06.2,4.25,4.25,0,0,1-.15.73c-.08.36-.15.64-.2.87a5.57,5.57,0,0,1-.24.78,9.17,9.17,0,0,0-.41,1.84,9.48,9.48,0,0,0,0,2.5,8.75,8.75,0,0,0,.25,1.08,6.48,6.48,0,0,0,.5,1.26,4.53,4.53,0,0,0,.74,1.07,1.54,1.54,0,0,0,1,.52h.06a1,1,0,0,0,.42-.07.88.88,0,0,1,.42-.08,1.49,1.49,0,0,1,.63.17.66.66,0,0,1,.42.45,1.26,1.26,0,0,1-.38,1,4,4,0,0,1-1.07.93,2.31,2.31,0,0,1-.67.3,2.85,2.85,0,0,1-.64.07,2.43,2.43,0,0,1-.72-.09l-.45-.15a2.77,2.77,0,0,1-1-.61,5.59,5.59,0,0,1-.7-.79,5.09,5.09,0,0,1-.47-.76c-.11-.24-.19-.42-.23-.54a7,7,0,0,1-.5-2.65,16.25,16.25,0,0,1,.19-2.19c0-.18.06-.44.12-.76s.16-.68.28-1.08.29-.83.48-1.27A7.49,7.49,0,0,1,526,391.05Zm1.06-5.15s.11-.2.28-.48a1.28,1.28,0,0,1,.8-.57,1.22,1.22,0,0,1,.47-.06,1.36,1.36,0,0,1,.29,0,.54.54,0,0,1,.26.15.38.38,0,0,1,.14.24,4,4,0,0,1,.08.69c0,.44.07.77.08,1a1.61,1.61,0,0,1-.08.61.69.69,0,0,0-.09.15,1.7,1.7,0,0,1-.19.27,1.84,1.84,0,0,1-.29.26.69.69,0,0,1-.39.12,1.52,1.52,0,0,1-1.16-.66,3.56,3.56,0,0,1-.2-.42,2,2,0,0,1-.11-.53A1.69,1.69,0,0,1,527.09,385.9Z" transform="translate(-140 -144)"/><path class="cls-1" d="M538.21,391.3a3.12,3.12,0,0,0,.3-.26l.17-.18a2.59,2.59,0,0,1,.84-1.07,8.32,8.32,0,0,1,1.47-1,9.93,9.93,0,0,1,1.69-.71,4.8,4.8,0,0,1,1.46-.28,3.89,3.89,0,0,1,1,.15,3.28,3.28,0,0,1,1.27.76,7.54,7.54,0,0,1,.62.7,3.55,3.55,0,0,1,.56,1.16,6.18,6.18,0,0,1,.18,1.16,6.68,6.68,0,0,1,0,1,6.84,6.84,0,0,1-.11.73,7.78,7.78,0,0,1-1,2.54,15.14,15.14,0,0,1-1.77,2.42,18.46,18.46,0,0,1-2.22,2.11,17.69,17.69,0,0,1-2.31,1.61c-.57.33-1,.57-1.36.73a3.38,3.38,0,0,1-1,.29,4.61,4.61,0,0,1-2.34-.62,4.39,4.39,0,0,1-1.72-1.7,3.78,3.78,0,0,1-.24-.58c-.05-.17-.1-.37-.17-.6a6.46,6.46,0,0,1-.23-1.44,7,7,0,0,1,0-.89,1.77,1.77,0,0,1,0-.37l.06-.23c0-.07.05-.18.08-.31a4.62,4.62,0,0,0,.07-.57c.05-.38.08-.67.1-.89a1.09,1.09,0,0,1,.25-.6,1.24,1.24,0,0,1,.29-.28l.39-.25a5.48,5.48,0,0,0,.83-.6c.19-.18.36-.34.5-.5l.45-.45a2.41,2.41,0,0,1,.67-.4l.59-.27A3.29,3.29,0,0,0,538.21,391.3Zm2,1.39a1.22,1.22,0,0,1-.67.83,2.25,2.25,0,0,1-1.07.32,4.55,4.55,0,0,0-1.1.17,1.86,1.86,0,0,0-.94.54,3.92,3.92,0,0,0-.2.45,2.88,2.88,0,0,0,0,1.29,13.25,13.25,0,0,0,.29,1.69,3.25,3.25,0,0,0,.92,1.53c.06.07.16.16.29.28a3,3,0,0,0,.5.37,3.07,3.07,0,0,0,.68.33,2.48,2.48,0,0,0,.82.14,2.29,2.29,0,0,0,1.24-.34,5.28,5.28,0,0,0,1-.81,5.68,5.68,0,0,0,.76-1c.21-.34.38-.64.53-.89s.22-.41.35-.68A5.08,5.08,0,0,0,544,396a7.12,7.12,0,0,0,.23-1.1,5,5,0,0,0,0-1.28c0-.12,0-.3-.1-.54a3.78,3.78,0,0,0-.21-.74,4.39,4.39,0,0,0-.42-.76,2.1,2.1,0,0,0-.7-.62l-.42-.2a1.73,1.73,0,0,0-.79-.17,1.06,1.06,0,0,0-.8.32,1.43,1.43,0,0,0-.38.79,1.21,1.21,0,0,0,0,.5.46.46,0,0,1-.08.37S540.24,392.65,540.2,392.69Z" transform="translate(-140 -144)"/><path class="cls-1" d="M552.32,389.78a6.48,6.48,0,0,1,.76-.82,2.21,2.21,0,0,1,.95-.58,2.69,2.69,0,0,1,.44.05.46.46,0,0,1,.36.23.23.23,0,0,1,0,.25,2.05,2.05,0,0,0-.19.37,1.1,1.1,0,0,0-.07.69,1.28,1.28,0,0,1,0,.68.89.89,0,0,1-.22.45,1.84,1.84,0,0,0-.31.51,1.43,1.43,0,0,0-.11.34c0,.08,0,.18,0,.28s0,.22,0,.35a3,3,0,0,1-.11.58c-.08.31-.15.59-.21.85a2.5,2.5,0,0,0,0,.92c0,.24.08.39.18.43s.24-.05.41-.28a8.42,8.42,0,0,1,.61-.74,8.7,8.7,0,0,1,.72-.58c.37-.28.77-.56,1.21-.85l1.21-.79a2.75,2.75,0,0,1,.74-.39c.23-.06.43-.11.62-.14a2.36,2.36,0,0,0,.68-.26l.34-.2a.52.52,0,0,1,.25-.08h.06s.08.05.11.14a5,5,0,0,1,.11.76v.67a1.79,1.79,0,0,1-.09.54,2.86,2.86,0,0,1-.1.29l-.09.24a2.18,2.18,0,0,0-.09.77,4.1,4.1,0,0,0,.09.59.74.74,0,0,1,.05.25.33.33,0,0,0,0,.14c0,.07,0,.22,0,.46s.09.67.17,1.29.18,1.27.23,1.64a3.61,3.61,0,0,0,.17.78,6.26,6.26,0,0,0,.51.82,5.57,5.57,0,0,0,1.07,1,4,4,0,0,1,0,.49,1.47,1.47,0,0,1-.33.71,1.58,1.58,0,0,1-.85.7,3.29,3.29,0,0,1-1.1.17,2,2,0,0,1-.9-.35,2.74,2.74,0,0,1-.68-.72,5.49,5.49,0,0,1-.47-.85l-.31-.74a6.77,6.77,0,0,1-.49-2.11c-.05-.68-.07-1.28-.07-1.8,0-.76.06-1.35.11-1.77s0-.66-.2-.74l0,0h-.07a.89.89,0,0,0-.44.15,4,4,0,0,0-.48.38,5,5,0,0,0-.4.41,3.39,3.39,0,0,1-.23.27,6.5,6.5,0,0,0-.79,1.16,9.42,9.42,0,0,0-.76,1.91,12.37,12.37,0,0,0-.34,1.5c-.07.4-.12.74-.17,1a3.77,3.77,0,0,1-.21.73,1.44,1.44,0,0,1-.46.59,3.62,3.62,0,0,1-.68.45,5.88,5.88,0,0,1-1.37.39h-.28a2.79,2.79,0,0,1-.52,0,24.43,24.43,0,0,1,0-3q0-1,.18-2.46c.11-1,.25-1.95.44-2.95a27.56,27.56,0,0,1,.68-2.88A9.41,9.41,0,0,1,552.32,389.78Z" transform="translate(-140 -144)"/><path class="cls-1" d="M388.49,434.11a1.74,1.74,0,0,1,.68-.81,7.77,7.77,0,0,1,1.27-.71,12.48,12.48,0,0,1,1.64-.62c.6-.19,1.19-.34,1.77-.47s1.13-.22,1.66-.29a10.32,10.32,0,0,1,1.28-.11,6.08,6.08,0,0,1,.61,0,3.31,3.31,0,0,1,.64.13,6.23,6.23,0,0,1,.8.23,1.27,1.27,0,0,1,.62.48,1.6,1.6,0,0,1,.36,1.24,8.88,8.88,0,0,1-.27,1.42,8.48,8.48,0,0,1-1.31,2.9,24.51,24.51,0,0,1-2,2.44c-.5.53-1,1-1.4,1.47s-.88.86-1.33,1.24-.94.74-1.44,1.08a16.25,16.25,0,0,1-1.75,1c-.23,1.47-.39,2.76-.47,3.86s-.13,2.05-.15,2.84a9.13,9.13,0,0,1-.14,1.42,11.73,11.73,0,0,1-.42,1.65,7.68,7.68,0,0,1-.72,1.5,2.81,2.81,0,0,1-1,1,1.72,1.72,0,0,1-.59.2,4.21,4.21,0,0,1-.62.05,2,2,0,0,1-.62-.17,5,5,0,0,1-.48-.3,1.78,1.78,0,0,1-.31-.29c-.07-.1-.13-.16-.17-.21a2,2,0,0,1-.34-.75c0-.24-.07-.44-.09-.61a4.09,4.09,0,0,1,0-.7,1,1,0,0,1,.28-.63.82.82,0,0,1,.48-.34,3.1,3.1,0,0,0,.69-.31,4.3,4.3,0,0,0,.58-.51,2.5,2.5,0,0,0,.35-.52v-3.07c0-.8,0-1.57.07-2.31a14.35,14.35,0,0,1,.31-2.27,26,26,0,0,1,.41-3.37c.22-1.12.47-2.23.76-3.33.11-.37.18-.71.24-1a9.19,9.19,0,0,0,.1-1,3.75,3.75,0,0,0,0-.86A1.07,1.07,0,0,1,388.49,434.11Zm2.17,8.46a.14.14,0,0,0,.07-.06.18.18,0,0,1,.08-.06,2,2,0,0,0,.36-.33l.25-.32c.09-.13.22-.29.38-.49s.42-.45.75-.79.73-.75,1-1,.53-.53.75-.75a7.33,7.33,0,0,0,.61-.66,7.25,7.25,0,0,0,.54-.84,3.69,3.69,0,0,0,.34-.67,6.28,6.28,0,0,0,.34-1.1c.07-.35.12-.72.16-1.11a.91.91,0,0,0-.28-.87.56.56,0,0,0-.4-.13,3.16,3.16,0,0,0-.67.1c-.3.06-.61.14-.93.23a8.18,8.18,0,0,0-.88.31.89.89,0,0,0-.7.67,1.54,1.54,0,0,1-.2.37,1.05,1.05,0,0,1-.33.31l-.29.15c0,.19-.08.43-.13.72s-.09.61-.15,1-.16.88-.22,1.21-.12.62-.17.86-.09.49-.12.72-.07.46-.11.71a5.83,5.83,0,0,0-.08.82C390.63,441.82,390.64,442.18,390.66,442.57Z" transform="translate(-140 -144)"/><path class="cls-1" d="M397.54,449.86a1.11,1.11,0,0,1-.16.24c-.06.09-.1.12-.12.1s0-.09,0-.2.09-.25.16-.41l.18-.46a2.37,2.37,0,0,1,.19-.39,10.44,10.44,0,0,1,1-1.75c.32-.45.6-.82.83-1.13s.34-.5.66-1l1.41-2.22a1.68,1.68,0,0,0,.19-.31c.06-.1.13-.22.22-.35s.17-.29.28-.45c.28-1.06.59-2.1.92-3.12s.71-2,1.12-3l.34-.68a5.28,5.28,0,0,1,.81-1.15,2.15,2.15,0,0,1,.56-.53.76.76,0,0,1,.37-.12.57.57,0,0,1,.56.43,1.69,1.69,0,0,1,0,1.06c-.12.41-.26.83-.43,1.27a5.47,5.47,0,0,1-.43,1c-.23.45-.44.85-.62,1.18s-.35.61-.5.83a7.26,7.26,0,0,1-.4.68l-.39.61-.33.51a1.14,1.14,0,0,0-.07.33,1.59,1.59,0,0,1-.08.35c-.08.42-.16.8-.22,1.15s-.11.73-.15,1.15-.09.95-.14,1.69a13.46,13.46,0,0,0,.08,2.49,9.69,9.69,0,0,0,.34,1.61c.16.58.4,1.37.71,2.36.17.54.3,1.09.42,1.66a6.21,6.21,0,0,0,.51,1.56l.23.64a1.33,1.33,0,0,1,.05.79,1.07,1.07,0,0,1-.16.32,2.44,2.44,0,0,1-.31.39c-.35.4-.61.58-.77.56a.59.59,0,0,1-.39-.32c-.09-.18-.18-.34-.26-.49-.29-.68-.51-1.18-.67-1.5s-.27-.56-.36-.73-.15-.31-.2-.43-.13-.34-.23-.65-.26-.91-.4-1.49a16.65,16.65,0,0,1-.37-2,15.63,15.63,0,0,1-.1-3.22c.09-.93.17-1.66.25-2.2,0-.13.05-.26.08-.4s.06-.3.11-.47c-.11.19-.19.33-.25.42l-.17.26c0,.09-.11.18-.17.3s-.16.26-.28.45c-.31.49-.55.86-.73,1.11s-.32.46-.45.62l-.37.5a7.24,7.24,0,0,0-.47.71C398.87,448,398.41,448.66,397.54,449.86Zm7.22-12.62c.25-.48.49-.95.71-1.43.09-.16.19-.37.3-.62s.16-.38.14-.4-.06.07-.19.28-.25.42-.37.65-.16.36-.25.57Z" transform="translate(-140 -144)"/><path class="cls-1" d="M417.6,446.32a.88.88,0,0,0-.16-.31l-.15-.15a1.16,1.16,0,0,0-.35-.16l-.24-.08a1,1,0,0,0-.25,0h-.09a1.62,1.62,0,0,0-.8.38,9.41,9.41,0,0,0-1,.92q-.51.53-1,1.08a7,7,0,0,0-.63.9,3.47,3.47,0,0,0-.41,1.21,8.91,8.91,0,0,0-.06.93,8.16,8.16,0,0,0,0,1,1.78,1.78,0,0,0,.26.85,4.47,4.47,0,0,0,.39.54,1.74,1.74,0,0,0,.91.58l.22,0a2,2,0,0,0,.46.05,2.3,2.3,0,0,0,.45-.05,1.23,1.23,0,0,0,.48-.2,2,2,0,0,0,.42-.34q.27-.24.54-.51l.52-.51c.15-.17.26-.29.32-.37a1.84,1.84,0,0,0,.25-.58c.06-.23.15-.56.28-1s.16-.61.18-.7.08-.25.16-.48a3.54,3.54,0,0,1,.17-.48l.14-.31.12-.28a2.13,2.13,0,0,0,.13-.42l.23-.79a1.72,1.72,0,0,0,.08-.36,5.88,5.88,0,0,0,.17-1.25,8.44,8.44,0,0,0,0-.95l.75-.32.8-.42.62-.4L422,443a5.61,5.61,0,0,1,.32,1.1,3.09,3.09,0,0,1,0,.83,3.44,3.44,0,0,1-.19,1.1c-.12.38-.31.9-.55,1.56l-.25.62c-.06.15-.12.26-.16.36a1.52,1.52,0,0,0-.09.25l-.09.29c0,.23-.09.54-.13.93a3.55,3.55,0,0,0,.13,1.3,3,3,0,0,0,.35.82c.2.35.42.69.66,1a10.62,10.62,0,0,0,.74,1,5.21,5.21,0,0,0,.63.66,1.07,1.07,0,0,1,.25.17l.39.29c.13.1.26.2.37.3s.17.16.17.2,0,.22-.18.35-.45.39-.84.76a3.84,3.84,0,0,0-.48.44,4.29,4.29,0,0,1-.45.4,4.09,4.09,0,0,1-.65.5,1.52,1.52,0,0,1-1.23-.17,5.3,5.3,0,0,1-.72-.49,2.89,2.89,0,0,1-.66-.52c-.24-.25-.49-.52-.74-.81s-.49-.58-.71-.87-.42-.52-.56-.71l-1,1a10.58,10.58,0,0,1-1.16.94,6.83,6.83,0,0,1-1.29.72,3.61,3.61,0,0,1-1.38.27,4.07,4.07,0,0,1-1-.12,7.76,7.76,0,0,1-.77-.34,2.49,2.49,0,0,1-1-1,2.71,2.71,0,0,1-.4-1.18,8.15,8.15,0,0,1,0-1A6.54,6.54,0,0,1,410,452c.35-.81.77-1.65,1.24-2.52s1-1.68,1.47-2.46a18.08,18.08,0,0,1,1.29-1.78,9.4,9.4,0,0,1,.9-1,15.22,15.22,0,0,1,1.33-1.12,1.47,1.47,0,0,1,.37,0h.27a1.82,1.82,0,0,1,.29.08l.4.22a1.14,1.14,0,0,1,.47.5,1.3,1.3,0,0,1,.17.55,1.47,1.47,0,0,1,0,.44,3,3,0,0,1-.18.71A1.8,1.8,0,0,1,417.6,446.32Z" transform="translate(-140 -144)"/><path class="cls-1" d="M434.21,446.94a.61.61,0,0,1,.06-.37,4.78,4.78,0,0,0,.25-.56c.1-.23.18-.41.22-.54a.55.55,0,0,0,0-.36.52.52,0,0,0-.31-.38,1.08,1.08,0,0,0-1.21.18,5.67,5.67,0,0,0-.87.92l-.84,1a7.58,7.58,0,0,0-.62.89,8.76,8.76,0,0,0-.43.87,4.44,4.44,0,0,0-.28,1c0,.16-.06.37-.11.62a5,5,0,0,0-.09.82,4.53,4.53,0,0,0,0,.9,2.65,2.65,0,0,0,.28.88,1.8,1.8,0,0,0,1,1,12.09,12.09,0,0,0,1.42.39,4.63,4.63,0,0,0,.55.1,4.27,4.27,0,0,0,.76.05,5.88,5.88,0,0,0,1.13-.12,5.71,5.71,0,0,0,1.32-.47A14.87,14.87,0,0,0,438,453a2.5,2.5,0,0,1,1.41-.47l.2,0h.23a1.66,1.66,0,0,0,.5-.09,2,2,0,0,0,.46-.22.7.7,0,0,1,.37-.12h.08l.08,0,.22.11a.44.44,0,0,1,.21.29.75.75,0,0,1-.23.65,9.94,9.94,0,0,1-.73.75q-.35.33-.54.54a2.31,2.31,0,0,1-.48.36,1.91,1.91,0,0,1-.51.24c-.16,0-.31.08-.45.1l-.48.06a5.31,5.31,0,0,0-.64.12,2,2,0,0,0-.43.14,3.07,3.07,0,0,0-.31.17l-.39.23a4.17,4.17,0,0,1-.67.33,14.48,14.48,0,0,1-1.51.54c-.62.2-1.27.39-1.94.56s-1.33.32-2,.44a10,10,0,0,1-1.64.17,1.26,1.26,0,0,1-.44-.07,1.45,1.45,0,0,1-.31-.18,2.49,2.49,0,0,1-.73-1.21c-.13-.5-.23-.9-.29-1.21a6.91,6.91,0,0,1-.08-1.95,9.88,9.88,0,0,1,.27-1.46,10.49,10.49,0,0,1,1-2.74,14.78,14.78,0,0,1,1.7-2.56,15.7,15.7,0,0,1,2.19-2.2,11.86,11.86,0,0,1,2.49-1.61c.4-.19.74-.35,1-.47a2.24,2.24,0,0,1,.79-.19.72.72,0,0,1,.56.25,1.8,1.8,0,0,1,.37,1.21,4.79,4.79,0,0,1-.15,1.3,2.63,2.63,0,0,1-.5,1.13,8.3,8.3,0,0,1-.65.73l-.53.42a1.21,1.21,0,0,1-.77.33C434.5,447.44,434.31,447.27,434.21,446.94Z" transform="translate(-140 -144)"/><path class="cls-1" d="M444,453.48c-.06-.14.11-.39.51-.74a6.94,6.94,0,0,1,1.38-.93l.23-.11.2-.11a18.75,18.75,0,0,1,2.79-4.9c.48-.64.94-1.23,1.4-1.78a9.8,9.8,0,0,1,1.44-1.44,8,8,0,0,1,1.69-1.05,7.7,7.7,0,0,1,2.17-.62l.73-.11a4.58,4.58,0,0,1,.63-.05,2.54,2.54,0,0,1,1.18.25l.28.14a2.18,2.18,0,0,1,.46.31,2.12,2.12,0,0,1,.45.49,1.58,1.58,0,0,1,.27.67,1.19,1.19,0,0,1,0,.33,1.38,1.38,0,0,1-.14.45c-.08.18-.2.41-.35.69s-.38.63-.67,1c-.5.73-.91,1.31-1.25,1.75a8.76,8.76,0,0,1-1.07,1.17,8.54,8.54,0,0,1-1.32.93c-.51.29-1.18.64-2,1.05-.37.17-.74.32-1.09.46s-.82.34-1.42.56a2.84,2.84,0,0,1-.68.25,2.31,2.31,0,0,0,.49,1.38,2.72,2.72,0,0,0,1.07.76,4.64,4.64,0,0,0,1.38.31c.5,0,1,.06,1.43.06a11.12,11.12,0,0,0,1.38-.11l2.55-.29.48,0,1.23-.1.66,0,.45,0c.17,0,.25,0,.25.06s0,.15-.17.27a4.27,4.27,0,0,1-.51.37c-.21.13-.41.26-.62.37s-.36.2-.46.27q-.78.39-2.1.93c-.88.35-1.79.68-2.74,1s-1.88.59-2.78.81a9.58,9.58,0,0,1-2.24.32,4.2,4.2,0,0,1-1.09-.15,5.21,5.21,0,0,1-1.07-.43,4.49,4.49,0,0,1-.93-.69,3,3,0,0,1-.83-1.81,8.29,8.29,0,0,1,0-1.07c0-.1,0-.25.06-.43s.06-.4.1-.62l-.33.06-.32.06a6.7,6.7,0,0,1-.93.16A.32.32,0,0,1,444,453.48Zm6-2.73q.62-.24,1.32-.6l1.72-.88a15.5,15.5,0,0,0,1.53-.95,6,6,0,0,0,1.2-1.13,3.07,3.07,0,0,0,.66-1.19,1.67,1.67,0,0,0,0-.48A1.07,1.07,0,0,0,456,445a1.69,1.69,0,0,0-.67-.28l-.11,0h-.1a1.86,1.86,0,0,0-1,.31,5.15,5.15,0,0,0-1,.77,10.36,10.36,0,0,0-.9,1c-.29.38-.56.76-.83,1.13a16,16,0,0,0-.86,1.38A8,8,0,0,0,450,450.75Z" transform="translate(-140 -144)"/><path class="cls-1" d="M388,492.76l.67-1.1c.19-.32.36-.6.51-.82a3.38,3.38,0,0,1,.59-.72,13.85,13.85,0,0,1,1.36-1.14l1.61-1.14a15.62,15.62,0,0,1,1.45-.88,6.51,6.51,0,0,1,1.41-.57,5.19,5.19,0,0,1,1.48-.2,4.85,4.85,0,0,1,1.63.23,2.6,2.6,0,0,1,1.1.7,3.69,3.69,0,0,1,.72,1.16,9.73,9.73,0,0,1,.46,1.59,11,11,0,0,1,.11,1.18,4.7,4.7,0,0,1-.33,1.86,2.93,2.93,0,0,1-.18.42l-.19.33c-.06.1-.13.21-.2.34a3.88,3.88,0,0,0-.23.49,5.87,5.87,0,0,0-.45,1.57c-.05.44-.1.8-.14,1.07a6.48,6.48,0,0,1-.23,1.18,9.73,9.73,0,0,1-.47,1.19c-.2.42-.43.88-.71,1.36s-.61,1-1,1.66c-.21.37-.42.72-.63,1s-.46.65-.72,1-.55.71-.87,1.1l-1.1,1.37c-.37.43-.78.89-1.22,1.38a15.43,15.43,0,0,1-1.44,1.36,10.07,10.07,0,0,1-1.63,1.09,4.34,4.34,0,0,1-1.75.51h-.26l-.3,0a2.55,2.55,0,0,1-1.49-.4,2.67,2.67,0,0,1-.85-1,4.53,4.53,0,0,1-.4-1.38,12.58,12.58,0,0,1-.14-1.47q-.06-1.55-.06-2.43c0-.59,0-1.15.06-1.69s.09-1.12.14-1.49a4,4,0,0,1,.32-1.09l.28-.52c.08-.15.17-.28.25-.41s.17-.25.26-.4a2.66,2.66,0,0,0,.27-.56,3.17,3.17,0,0,0,.2-.63c0-.18.06-.35.08-.51s0-.34,0-.53a3.5,3.5,0,0,1,.14-.71c0-.07.06-.16.11-.28s.14-.31.26-.56.3-.57.53-1S387.6,493.4,388,492.76Zm3.41.28v0l-.2.06-.2,0a3.76,3.76,0,0,0-.78.51,2.7,2.7,0,0,0-.52.79,6.4,6.4,0,0,0-.45,1.1,6.53,6.53,0,0,0-.17.64c-.11.66-.17,1.2-.21,1.61s-.06.78-.1,1.09a4.43,4.43,0,0,1-.1.72c0,.18-.08.34-.12.5s-.08.33-.13.53-.09.47-.15.82a12.12,12.12,0,0,0-.23,2.85c0,.72.1,1.2.14,1.43.1.51.22,1,.35,1.47a1.13,1.13,0,0,0,.73.85s.08,0,.19,0A1.43,1.43,0,0,0,390,508a4.67,4.67,0,0,0,1-.63,8.76,8.76,0,0,0,1.31-1.38,15.09,15.09,0,0,0,1-1.54l.93-1.58c.27-.45.51-.87.71-1.25s.39-.75.55-1.09.29-.68.41-1c.07-.2.11-.35.14-.45a3.19,3.19,0,0,0,.1-.35c0-.15.08-.34.15-.58l.33-1.07c.24-.86.46-1.56.63-2.07s.32-.93.42-1.24a5,5,0,0,0,.2-.78,3.23,3.23,0,0,0,0-.71,5.41,5.41,0,0,0-.2-1.12,5.13,5.13,0,0,0-.47-1.1,3.75,3.75,0,0,0-.68-.88,1.78,1.78,0,0,0-.91-.47,1.62,1.62,0,0,0-.35,0,2.51,2.51,0,0,0-1,.24,3.57,3.57,0,0,0-.87.51,4.12,4.12,0,0,0-.35.31,1.67,1.67,0,0,0-.36.46,1.37,1.37,0,0,0-.16.56c0,.17,0,.33,0,.48s0,.31,0,.45a1.18,1.18,0,0,1-.08.5,2.13,2.13,0,0,1-.4.52A2.08,2.08,0,0,1,391.4,493Z" transform="translate(-140 -144)"/><path class="cls-1" d="M406.09,499.24a4.14,4.14,0,0,1,.93-.64,2.53,2.53,0,0,1,1.09-.26,2,2,0,0,1,.95.21,2.27,2.27,0,0,1,.63.56,3.23,3.23,0,0,1,.42.78,8.6,8.6,0,0,1,.29.9,9.44,9.44,0,0,1,.33,1.33,5.51,5.51,0,0,1,0,2,4.32,4.32,0,0,1-.6,1.66c-.32.53-.78,1.23-1.38,2.09s-1.16,1.62-1.63,2.17a6.65,6.65,0,0,1-1.72,1.46c-.29.17-.6.34-.94.51a2.21,2.21,0,0,1-1,.27,1.44,1.44,0,0,1-1.23-.58,5.89,5.89,0,0,1-.69-1.22,5.65,5.65,0,0,1-.31-1.37,11.58,11.58,0,0,1,0-2.23,31.07,31.07,0,0,1,.62-4.4c.31-1.45.67-2.88,1.08-4.31.23-.78.41-1.42.56-1.9a13.18,13.18,0,0,1,.53-1.48l.48-1a14.62,14.62,0,0,1,1.1-1.89c.22-.33.4-.58.54-.76s.27-.34.4-.5.29-.33.47-.54a10.8,10.8,0,0,0,.66-.9c.29-.41.55-.77.76-1.08a11.86,11.86,0,0,1,.86-1.06,4.33,4.33,0,0,1,.88-.76,2.36,2.36,0,0,1,.67-.26,1.9,1.9,0,0,1,.55-.06,1.61,1.61,0,0,1,.52.08,1.1,1.1,0,0,1,.48.32,1.34,1.34,0,0,1,.34.81,4.82,4.82,0,0,1,0,.93,7.31,7.31,0,0,1-.17.91c-.1.36-.21.73-.33,1.1s-.26.73-.4,1.07a8.63,8.63,0,0,1-.41.85,5.59,5.59,0,0,1-.51.92c-.17.26-.38.53-.6.82s-.51.74-.85,1.16a14.12,14.12,0,0,1-.95,1.07l-.67.79-.57.73q-.29.38-.54.78C406.46,498.58,406.28,498.89,406.09,499.24Zm-2,4.21a8.43,8.43,0,0,1-.26,1.07,7,7,0,0,0-.22.73,3.25,3.25,0,0,0-.09.59,2.72,2.72,0,0,0,0,.62,5.26,5.26,0,0,0,.59,1.47,1.67,1.67,0,0,0,1.21.89h.19a1.38,1.38,0,0,0,.74-.21,2.59,2.59,0,0,0,.61-.48,5.44,5.44,0,0,0,.45-.55c.12-.19.21-.32.28-.41a4.27,4.27,0,0,0,.44-1.05,5.59,5.59,0,0,0,.19-1,4,4,0,0,0,0-.76c0-.22-.05-.37-.07-.45s-.05-.21-.1-.45a6.15,6.15,0,0,0-.24-.78,3,3,0,0,0-.42-.77,1.08,1.08,0,0,0-.66-.45,1,1,0,0,0-.28,0,1.62,1.62,0,0,0-.75.2,3.27,3.27,0,0,0-.69.5,3.84,3.84,0,0,0-.58.63A5.48,5.48,0,0,0,404.11,503.45Zm.09-.49-.09.46a1.21,1.21,0,0,0,.08-.28c0-.08,0-.16,0-.25Zm.78-5.58a2.22,2.22,0,0,0-.09.37c0,.12-.05.24-.07.34a8.94,8.94,0,0,1,.69-.73c.26-.26.61-.58,1-1s.54-.5.76-.71a6.09,6.09,0,0,0,.73-.84,4.47,4.47,0,0,0,.51-.68l.35-.59a3.63,3.63,0,0,0,.39-.63c.18-.32.38-.73.61-1.23s.49-1.07.62-1.41a1,1,0,0,0,0-.79.59.59,0,0,0-.31-.31,1.23,1.23,0,0,0-.47-.09,1.8,1.8,0,0,0-.37.06.87.87,0,0,0-.4.31l-.5.71c-.14.23-.29.48-.43.75l-.5.77c-.18.29-.39.61-.62,1s-.42.62-.51.75a5.28,5.28,0,0,0-.33.53c-.22.55-.43,1.12-.62,1.69S405.12,496.78,405,497.38Z" transform="translate(-140 -144)"/><path class="cls-1" d="M417.29,503.14a1.73,1.73,0,0,1,.46-.43,1.92,1.92,0,0,1,.71-.28.89.89,0,0,1,.31-.06h.31a3.06,3.06,0,0,1,.65.06,2.61,2.61,0,0,0,.53.06,1.45,1.45,0,0,0,.59-.12.56.56,0,0,0,.22-.14,1,1,0,0,1,.18-.17.43.43,0,0,1,.07-.22c.08-.27.17-.53.27-.79a2.86,2.86,0,0,1,.41-.7,1.86,1.86,0,0,1,.59-.49,1.62,1.62,0,0,1,.83-.19,1.88,1.88,0,0,1,1.09.4,2.06,2.06,0,0,1,.62.72c0,.06.05.17.09.34a.85.85,0,0,1-.08.39,1.89,1.89,0,0,1-.24.37c-.12.13-.25.29-.41.48a8,8,0,0,0-.51.71c-.1.14-.21.33-.34.54a5.93,5.93,0,0,0-.37.82,7.15,7.15,0,0,0-.23.7,10.82,10.82,0,0,0-.27,1.23c0,.29-.06.53-.07.74s0,.41,0,.6v.62c0,.22,0,.49,0,.8a10.9,10.9,0,0,1-.17,1.34q-.14.76-.39,2.16c-.1.56-.21,1.08-.31,1.56a14.51,14.51,0,0,1-.37,1.41c-.15.46-.31.92-.5,1.38a14.51,14.51,0,0,1-.68,1.48c-.37.72-.68,1.29-.93,1.72a4.1,4.1,0,0,1-.9,1.07,3.53,3.53,0,0,1-1,.6,5.75,5.75,0,0,1-.87.26l-.28,0-.27,0-.39,0a.63.63,0,0,1-.36-.19l-.15-.17a.71.71,0,0,1-.16-.3.59.59,0,0,1,.12-.52.53.53,0,0,1,.44-.19l.17,0h.17l.12,0h.38l.48,0,.54-.09a1.52,1.52,0,0,0,.79-.67,13.65,13.65,0,0,0,.76-1.41,12.66,12.66,0,0,0,.7-1.53,12.87,12.87,0,0,0,.6-2.25,14.9,14.9,0,0,0,.12-1.63c0-.67,0-1.6,0-2.8v-1.54c0-.34,0-.61,0-.82s0-.37,0-.51,0-.33,0-.57,0-.38.06-.81.11-1,.22-1.64h-2l-.39,0a2.1,2.1,0,0,1-.4,0,3.47,3.47,0,0,1-.49-.19.56.56,0,0,1-.32-.4.66.66,0,0,1,.05-.48A1.9,1.9,0,0,1,417.29,503.14Zm5.79-8.15a1.38,1.38,0,0,1,.31-.25l.51-.22a2,2,0,0,1,.55-.06.8.8,0,0,1,.31.05.46.46,0,0,0,.21.05h.1a.72.72,0,0,0,.42-.3.33.33,0,0,1,.29-.2.43.43,0,0,1,.36.31,3.26,3.26,0,0,1,.11.31,1.22,1.22,0,0,1,.06.29.68.68,0,0,1-.13.48.49.49,0,0,1-.21.25,3.24,3.24,0,0,1-.31.13l-.42.15a2.92,2.92,0,0,0-.55.31l-.44.36a.9.9,0,0,1-.45.17h-.08l-.11,0a.51.51,0,0,1-.4-.16.36.36,0,0,1-.19-.26q0-.17-.06-.42a2.1,2.1,0,0,1-.06-.51A.88.88,0,0,1,423.08,495Z" transform="translate(-140 -144)"/><path class="cls-1" d="M428.57,507.48c-.06-.14.11-.39.51-.74a6.94,6.94,0,0,1,1.38-.93l.23-.11a1.39,1.39,0,0,0,.21-.11,18.75,18.75,0,0,1,2.79-4.9c.47-.64.94-1.23,1.39-1.78a9.8,9.8,0,0,1,1.44-1.44,8.28,8.28,0,0,1,1.69-1.05,7.7,7.7,0,0,1,2.17-.62l.73-.11a4.7,4.7,0,0,1,.63-.05,2.54,2.54,0,0,1,1.18.25l.28.14a2.23,2.23,0,0,1,.47.31,2.67,2.67,0,0,1,.45.49,1.71,1.71,0,0,1,.26.67,1.17,1.17,0,0,1,0,.33,2.17,2.17,0,0,1-.14.45l-.36.69c-.16.28-.38.63-.67,1-.49.73-.91,1.31-1.25,1.75a8.14,8.14,0,0,1-1.07,1.17,7.68,7.68,0,0,1-1.32.93c-.51.28-1.17.64-2,1.05l-1.08.47c-.36.14-.83.33-1.43.55a2.84,2.84,0,0,1-.68.25,2.31,2.31,0,0,0,.49,1.38,2.72,2.72,0,0,0,1.07.76,4.79,4.79,0,0,0,1.38.31c.5,0,1,.06,1.43.06a11.12,11.12,0,0,0,1.38-.11l2.56-.29.48,0,1.22-.1.67,0,.45,0q.24,0,.24.06c0,.07,0,.15-.17.27a4.27,4.27,0,0,1-.51.37c-.2.13-.41.26-.62.37s-.36.2-.46.27c-.52.26-1.22.57-2.09.93s-1.8.68-2.75,1-1.87.59-2.77.81a9.72,9.72,0,0,1-2.25.32,4.26,4.26,0,0,1-1.09-.15,5.12,5.12,0,0,1-1.06-.43,4,4,0,0,1-.93-.69,2.33,2.33,0,0,1-.61-.9,2.4,2.4,0,0,1-.23-.91,8.29,8.29,0,0,1,0-1.07,2.74,2.74,0,0,0,.07-.43c0-.19.05-.4.09-.62l-.33.06-.32.06a6.7,6.7,0,0,1-.93.16A.32.32,0,0,1,428.57,507.48Zm6-2.73a12.45,12.45,0,0,0,1.32-.6l1.72-.88a17.06,17.06,0,0,0,1.54-.95,6.29,6.29,0,0,0,1.19-1.13A3.14,3.14,0,0,0,441,500a1.52,1.52,0,0,0,0-.48,1.07,1.07,0,0,0-.45-.56,1.65,1.65,0,0,0-.66-.28l-.11,0h-.11a1.82,1.82,0,0,0-1,.31,5.15,5.15,0,0,0-1,.77,10.36,10.36,0,0,0-.9,1c-.29.38-.57.76-.84,1.13a13.64,13.64,0,0,0-.85,1.38A7.38,7.38,0,0,0,434.58,504.75Z" transform="translate(-140 -144)"/><path class="cls-1" d="M455.35,500.94a.55.55,0,0,1,.07-.37c.06-.12.14-.31.24-.56a4.09,4.09,0,0,0,.22-.54.55.55,0,0,0,0-.36.5.5,0,0,0-.31-.38,1.1,1.1,0,0,0-.5-.11,1.15,1.15,0,0,0-.71.29,5.67,5.67,0,0,0-.87.92l-.83,1a5.76,5.76,0,0,0-.62.89,8.88,8.88,0,0,0-.44.87,5.05,5.05,0,0,0-.28,1c0,.16-.05.37-.1.62a4.09,4.09,0,0,0-.1.82,5.43,5.43,0,0,0,.05.9,2.65,2.65,0,0,0,.28.88,1.86,1.86,0,0,0,1,1,11.75,11.75,0,0,0,1.43.39,4.08,4.08,0,0,0,.54.1,4.33,4.33,0,0,0,.76.05,5.8,5.8,0,0,0,1.13-.12,5.71,5.71,0,0,0,1.32-.47,14.87,14.87,0,0,0,1.44-.83,2.5,2.5,0,0,1,1.41-.47l.2,0h.23a1.66,1.66,0,0,0,.5-.09,2.06,2.06,0,0,0,.47-.22.65.65,0,0,1,.37-.12h.07l.08,0,.22.11a.48.48,0,0,1,.22.29.76.76,0,0,1-.24.65,9.64,9.64,0,0,1-.72.75l-.55.54a2.31,2.31,0,0,1-.48.36,1.66,1.66,0,0,1-.51.24,2.42,2.42,0,0,1-.45.1l-.48.06a5.31,5.31,0,0,0-.64.12,2,2,0,0,0-.43.14l-.31.17-.39.23a4,4,0,0,1-.66.33,15.68,15.68,0,0,1-1.52.54c-.62.2-1.27.39-1.94.56s-1.33.32-2,.44a10,10,0,0,1-1.64.17,1.16,1.16,0,0,1-.43-.07,1.09,1.09,0,0,1-.31-.18,2.31,2.31,0,0,1-.73-1.21c-.14-.5-.24-.9-.3-1.21a6.91,6.91,0,0,1-.08-1.95,11.39,11.39,0,0,1,.27-1.46,10.86,10.86,0,0,1,1-2.74,14.83,14.83,0,0,1,1.71-2.56,16.19,16.19,0,0,1,2.18-2.2,11.92,11.92,0,0,1,2.5-1.61c.39-.19.74-.35,1-.47a2.15,2.15,0,0,1,.79-.19.71.71,0,0,1,.55.25,1.81,1.81,0,0,1,.38,1.21,4.75,4.75,0,0,1-.16,1.3,2.52,2.52,0,0,1-.5,1.13,7,7,0,0,1-.65.73l-.52.42a1.25,1.25,0,0,1-.78.33C455.64,501.44,455.46,501.27,455.35,500.94Z" transform="translate(-140 -144)"/><path class="cls-1" d="M468.93,494.25a2,2,0,0,0,.22-.78,8.28,8.28,0,0,0,0-.87c0-.31,0-.66,0-1.07a11.58,11.58,0,0,1,0-1.41c0-.53.09-1,.15-1.36a4.49,4.49,0,0,1,.3-1,3.2,3.2,0,0,1,.57-.89,8.39,8.39,0,0,1,1-.91,4.44,4.44,0,0,1,.44-.22c.18-.08.38-.15.59-.22l.59-.17a1.77,1.77,0,0,1,.46-.07.35.35,0,0,1,.25.09.76.76,0,0,1,.05.63,12.22,12.22,0,0,0-.24,1.51c0,.35-.06.63-.07.85s0,.41,0,.57l0,.5a2.91,2.91,0,0,1-.11.62l-.12.7c0,.23-.08.47-.12.69l-.14.53a.56.56,0,0,0,0,.34c0,.13.17.19.37.19l.19,0h1.3a2.94,2.94,0,0,1,.53.08,1.36,1.36,0,0,1,.54.19,4,4,0,0,1,.37.24,2.25,2.25,0,0,0,.35.22.93.93,0,0,0,.44.09,1.28,1.28,0,0,0,.58-.12.85.85,0,0,1,.32-.12.18.18,0,0,1,.1.06.44.44,0,0,1,0,.31,2.55,2.55,0,0,1-.17.48,3.3,3.3,0,0,1-.31.53,2.29,2.29,0,0,1-.43.45,1.29,1.29,0,0,1-.53.18l-1.11.06-.92.05c-.24,0-.43,0-.57,0a1.09,1.09,0,0,0-.34.09.5.5,0,0,0-.22.19,1.45,1.45,0,0,0-.31.77c0,.31-.08.69-.12,1.15a7,7,0,0,0,0,.9c0,.27,0,.54.06.83s.07.62.11,1,.09.79.15,1.29q.17,1.23.24,1.95c0,.47.09.94.11,1.39s0,1,0,1.38,0,.67-.07.92a3.51,3.51,0,0,0,0,.65,2.49,2.49,0,0,0,.16.59,1.92,1.92,0,0,0,.49.74,2.82,2.82,0,0,0,.64.44,3,3,0,0,0,.61.21l.4.1a2.18,2.18,0,0,0,.52.06,2.75,2.75,0,0,0,.67-.09,1.64,1.64,0,0,0,.7-.44,4.3,4.3,0,0,0,.5-.73c.22-.38.54-.95,1-1.72.08-.12.18-.28.29-.48a4,4,0,0,1,.39-.56,2.22,2.22,0,0,1,.48-.44.89.89,0,0,1,.54-.19.43.43,0,0,1,.25.09,1.17,1.17,0,0,1,.42.84,4.36,4.36,0,0,1,0,1.08,3,3,0,0,1-.18.7,4.67,4.67,0,0,1-1,1.38,4.77,4.77,0,0,1-.45.45c-.16.14-.32.26-.5.39l-.62.42-.88.57-1,.7-.49.34-.23.15-.21.11a8.07,8.07,0,0,1-1.47.57,5.9,5.9,0,0,1-1.59.18l-1-.14a2.1,2.1,0,0,1-.92-.48,3.43,3.43,0,0,1-1-1.35c-.2-.53-.35-.94-.43-1.23a5.26,5.26,0,0,1-.13-1c0-.29,0-.59.05-.9s.07-.66.11-1a10.31,10.31,0,0,0,0-1.41,9.68,9.68,0,0,0-.12-1.33c-.07-.33-.13-.63-.21-.9s-.14-.56-.21-.87a7.32,7.32,0,0,1-.14-1.3,15,15,0,0,1,0-1.81c.06-.55.11-1,.16-1.43s.09-.73.11-1,0-.41-.13-.49-.67.32-1.76,1.14l-.59.38a2.22,2.22,0,0,1-.81.28,1.71,1.71,0,0,1-.37.06c-.17,0-.27,0-.31-.16a.87.87,0,0,1,.06-.42,2.64,2.64,0,0,1,.3-.57,4.39,4.39,0,0,1,.48-.63,2.69,2.69,0,0,1,.62-.55c.16-.1.31-.18.45-.25l.38-.18a3.84,3.84,0,0,0,.39-.22,2.59,2.59,0,0,0,.48-.37l.36-.39A1.68,1.68,0,0,0,468.93,494.25Z" transform="translate(-140 -144)"/><path class="cls-1" d="M388.49,542.11a1.74,1.74,0,0,1,.68-.81,7.77,7.77,0,0,1,1.27-.71,12.48,12.48,0,0,1,1.64-.62c.6-.19,1.19-.34,1.77-.47s1.13-.22,1.66-.29a10.32,10.32,0,0,1,1.28-.11,6.08,6.08,0,0,1,.61,0,3.31,3.31,0,0,1,.64.13,5,5,0,0,1,.8.23,1.27,1.27,0,0,1,.62.48,1.6,1.6,0,0,1,.36,1.24,8.88,8.88,0,0,1-.27,1.42,8.48,8.48,0,0,1-1.31,2.9,24.51,24.51,0,0,1-2,2.44c-.5.53-1,1-1.4,1.47s-.88.86-1.33,1.24-.94.74-1.44,1.08a14.73,14.73,0,0,1-1.75,1c-.23,1.47-.39,2.76-.47,3.86s-.13,2-.15,2.84a9.13,9.13,0,0,1-.14,1.42,11.73,11.73,0,0,1-.42,1.65,7.68,7.68,0,0,1-.72,1.5,2.81,2.81,0,0,1-1,1,1.72,1.72,0,0,1-.59.2,4.21,4.21,0,0,1-.62,0,1.58,1.58,0,0,1-.62-.16,5,5,0,0,1-.48-.3,1.78,1.78,0,0,1-.31-.29c-.07-.1-.13-.16-.17-.21a2,2,0,0,1-.34-.75c0-.24-.07-.44-.09-.61a4.09,4.09,0,0,1,0-.7,1,1,0,0,1,.28-.63.82.82,0,0,1,.48-.34,3.1,3.1,0,0,0,.69-.31,3.74,3.74,0,0,0,.58-.52,2.22,2.22,0,0,0,.35-.51v-3.07c0-.8,0-1.57.07-2.31a14.35,14.35,0,0,1,.31-2.27,26,26,0,0,1,.41-3.37c.22-1.12.47-2.23.76-3.33.11-.37.18-.71.24-1a9.19,9.19,0,0,0,.1-1,3.75,3.75,0,0,0,0-.86A1.07,1.07,0,0,1,388.49,542.11Zm2.17,8.46a.14.14,0,0,0,.07-.06.18.18,0,0,1,.08-.06,2,2,0,0,0,.36-.33l.25-.33.38-.48c.17-.19.42-.45.75-.79s.73-.75,1-1l.75-.75a6.19,6.19,0,0,0,.61-.66,7.25,7.25,0,0,0,.54-.84,3.69,3.69,0,0,0,.34-.67,6.28,6.28,0,0,0,.34-1.1c.07-.35.12-.72.16-1.11a.91.91,0,0,0-.28-.87.56.56,0,0,0-.4-.13,3.16,3.16,0,0,0-.67.1c-.3.06-.61.14-.93.23a8.18,8.18,0,0,0-.88.31.89.89,0,0,0-.7.67,1.54,1.54,0,0,1-.2.37,1.05,1.05,0,0,1-.33.31l-.29.15c0,.19-.08.43-.13.71s-.09.62-.15,1-.16.87-.22,1.2-.12.63-.17.87-.09.49-.12.72-.07.46-.11.71a5.83,5.83,0,0,0-.08.82C390.63,549.82,390.64,550.18,390.66,550.57Z" transform="translate(-140 -144)"/><path class="cls-1" d="M398.5,549.3l.26-.3a1.09,1.09,0,0,1,.17-.13,1.5,1.5,0,0,1,.3-.1,1.14,1.14,0,0,0,.26-.09l.19,0h.43a.75.75,0,0,1,.54.51,11.93,11.93,0,0,1,.45,1.16c.27.73.48,1.29.62,1.69a9.05,9.05,0,0,0,.44,1,7.62,7.62,0,0,0,.48.84,1.59,1.59,0,0,1,.23.68c0,.14,0,.29.05.43s.06.24.17.28a.17.17,0,0,0,.12,0,.64.64,0,0,0,.28-.06.78.78,0,0,0,.19-.12.75.75,0,0,0,.26-.27l.39-.63.31-.56a2.1,2.1,0,0,1,.18-.28l.14-.15a5.71,5.71,0,0,1,.42-.44,6.66,6.66,0,0,0,.51-.48l.33-.29.49-.44.41-.31.42-.28.57-.37.57-.32a1.73,1.73,0,0,1,.39-.17,2.84,2.84,0,0,1,.9-.13l.42,0a1.43,1.43,0,0,1,.65.38,1,1,0,0,1,.26.4.82.82,0,0,1,0,.51c0,.15-.09.32-.15.48a1.53,1.53,0,0,1-1.27,1.09h-.16l-.15,0a.8.8,0,0,1-.28-.07.31.31,0,0,1-.17-.17,2.16,2.16,0,0,0-.23-.35,1,1,0,0,0-.47-.41,1.28,1.28,0,0,0-.63.19,2.69,2.69,0,0,0-.55.4,4.28,4.28,0,0,0-.71,1,5.07,5.07,0,0,1-.34.57,12.47,12.47,0,0,0-.84,2.34,11.28,11.28,0,0,0-.34,2.47c0,.78,0,1.4,0,1.84a7.81,7.81,0,0,0,.09,1.23,3.1,3.1,0,0,1,.1.54,1.15,1.15,0,0,1-.19.7,4.68,4.68,0,0,1-.5.49l-.35.3-.61.48c-.27.2-.47.35-.6.43a4.23,4.23,0,0,1-.42.22.7.7,0,0,1-.23.06h-.14a.28.28,0,0,1-.16,0q-.15-.09-.09-.36t.12-.63a3.71,3.71,0,0,0,0-.58c0-.19,0-.46-.08-.79a5.31,5.31,0,0,0-.26-1.33c-.14-.37-.24-.66-.33-.87a4.94,4.94,0,0,0-.34-.66c-.1-.18-.19-.33-.26-.47a3.62,3.62,0,0,1-.19-.4,1.42,1.42,0,0,1-.08-.48,2.58,2.58,0,0,1,0-.47,1.79,1.79,0,0,0-.05-.46,1,1,0,0,0-.09-.28,1.17,1.17,0,0,0-.16-.25l-.2-.29c-.07-.12-.17-.27-.29-.45-.23-.35-.39-.63-.5-.82a2.4,2.4,0,0,1-.21-.58,2,2,0,0,1,0-.62.64.64,0,0,0-.12-.46.53.53,0,0,0-.29-.25.75.75,0,0,1-.36-.25,1.29,1.29,0,0,1-.31-.43c-.06-.15-.11-.29-.16-.44a1.22,1.22,0,0,1-.09-.4v-.3c0-.09,0-.19,0-.29a1.35,1.35,0,0,0-.11-.37c-.09-.21-.16-.37-.22-.48a.39.39,0,0,1,0-.33.38.38,0,0,1,.15-.09l.25-.09a1.52,1.52,0,0,0,.27-.22Z" transform="translate(-140 -144)"/><path class="cls-1" d="M418.53,553.3l.29-.26.17-.18a2.59,2.59,0,0,1,.84-1.07,8.32,8.32,0,0,1,1.47-1,9.93,9.93,0,0,1,1.69-.71,4.8,4.8,0,0,1,1.46-.28,3.76,3.76,0,0,1,1,.15,3.21,3.21,0,0,1,1.27.76,6.26,6.26,0,0,1,.62.7,3.55,3.55,0,0,1,.56,1.16,6.18,6.18,0,0,1,.18,1.16,6.7,6.7,0,0,1,0,1,6.84,6.84,0,0,1-.11.73,7.78,7.78,0,0,1-1,2.54,15.14,15.14,0,0,1-1.77,2.42,19.68,19.68,0,0,1-4.52,3.72c-.58.33-1,.57-1.37.73a3.38,3.38,0,0,1-1,.29,4.61,4.61,0,0,1-2.34-.62,4.39,4.39,0,0,1-1.72-1.7,2.9,2.9,0,0,1-.23-.58c-.06-.17-.11-.37-.18-.6a6.46,6.46,0,0,1-.23-1.44,6.78,6.78,0,0,1,0-.88,1.81,1.81,0,0,1,0-.38l.06-.23c0-.07,0-.18.08-.31s.05-.33.08-.57.07-.67.09-.89a1.09,1.09,0,0,1,.25-.6,1.24,1.24,0,0,1,.29-.28l.39-.25a6.27,6.27,0,0,0,.84-.6c.18-.18.35-.34.49-.5l.45-.45a2.41,2.41,0,0,1,.67-.4l.59-.27A3.72,3.72,0,0,0,418.53,553.3Zm2,1.39a1.22,1.22,0,0,1-.67.83,2.25,2.25,0,0,1-1.07.32,4.55,4.55,0,0,0-1.1.17,1.86,1.86,0,0,0-.94.54,3.92,3.92,0,0,0-.2.45,2.88,2.88,0,0,0,0,1.29,11.7,11.7,0,0,0,.3,1.69,3.15,3.15,0,0,0,.91,1.53c.06.07.16.16.29.28a3,3,0,0,0,.5.37,3.07,3.07,0,0,0,.68.33,2.48,2.48,0,0,0,.82.14,2.29,2.29,0,0,0,1.24-.34,5,5,0,0,0,1-.81,5.68,5.68,0,0,0,.76-1c.21-.34.38-.64.53-.89s.22-.41.35-.68a5.08,5.08,0,0,0,.36-.91,7.12,7.12,0,0,0,.23-1.1,5,5,0,0,0,0-1.28c0-.12-.05-.3-.1-.54a4,4,0,0,0-.21-.74,4.39,4.39,0,0,0-.42-.76,2.1,2.1,0,0,0-.7-.62l-.42-.2a1.7,1.7,0,0,0-.79-.17,1,1,0,0,0-.8.32,1.36,1.36,0,0,0-.37.79,1.09,1.09,0,0,0,0,.5.46.46,0,0,1-.08.37S420.55,554.65,420.51,554.69Z" transform="translate(-140 -144)"/><path class="cls-1" d="M440.54,556.34a17.89,17.89,0,0,1-.87,2.63c.2-.31.39-.58.54-.8a1.18,1.18,0,0,1,.36-.41s-.09.19-.25.5l-.64,1.19c-.26.49-.55,1-.88,1.6l-1,1.69c-.31.55-.62,1-.92,1.52s-.54.81-.72,1a4.36,4.36,0,0,1-.66.69c-.1.12-.19.23-.27.31a9.24,9.24,0,0,1-1.09,1l-.53.4a6,6,0,0,1-.6.42c-.24.16-.5.32-.79.48a2.71,2.71,0,0,1-1.12.47.48.48,0,0,1-.35-.14,1.19,1.19,0,0,1-.24-.36,2.15,2.15,0,0,1-.14-.45,2,2,0,0,1,0-.39,3.26,3.26,0,0,1-.05-.91c0-.26.07-.5.11-.73.1-.6.16-1.07.19-1.41s0-.62,0-.84a3,3,0,0,1,0-.55,4.27,4.27,0,0,1,.17-.58c.07-.18.22-.53.47-1s.52-1,.82-1.61.6-1.1.9-1.61a10.33,10.33,0,0,1,.67-1,9.54,9.54,0,0,1,1-1,8.62,8.62,0,0,1,1.21-.93,7.12,7.12,0,0,1,1.35-.68,3.83,3.83,0,0,1,1.41-.26,1.69,1.69,0,0,1,1.3.54A2.2,2.2,0,0,1,440.54,556.34Zm-3.38,6.13a1.12,1.12,0,0,1,0-.27,1.75,1.75,0,0,0,0-.32,3.24,3.24,0,0,1,.19-1c.14-.47.31-1,.5-1.45s.35-.95.51-1.34a2.31,2.31,0,0,0,.2-.62,1.59,1.59,0,0,0-.36-.54l-.38-.36-.45-.29a1,1,0,0,0-.52-.14,1,1,0,0,0-.62.22c-.18.14-.39.33-.62.55s-.23.26-.4.47a4.44,4.44,0,0,0-.49.84c-.07.14-.2.45-.41.93s-.42,1-.65,1.56-.43,1.11-.62,1.61a5.82,5.82,0,0,0-.31,1.07q-.09.78-.12,1.29a2.51,2.51,0,0,0,.15,1,4.3,4.3,0,0,0,.22.49.8.8,0,0,0,.4.41h.06l.07,0a1.15,1.15,0,0,0,.59-.31,10.09,10.09,0,0,0,.76-.73l.71-.81.45-.57c.14-.21.31-.46.51-.74S436.89,562.83,437.16,562.47ZM442.27,540a.3.3,0,0,1,.25.12,1.43,1.43,0,0,1,.17.58,5,5,0,0,1,0,.88c0,.33-.06.67-.1,1s-.09.65-.15.94a4.9,4.9,0,0,1-.2.75c-.08.18-.15.36-.24.54s-.16.36-.23.56a5.07,5.07,0,0,0-.2.76,10.85,10.85,0,0,0-.19,1.49q0,.68-.06,1.2c0,.5,0,1,0,1.57s-.06,1.16-.1,1.84-.09,1.46-.14,2.31-.12,1.85-.2,3c-.07.81-.12,1.52-.16,2.14s-.07,1.18-.09,1.68,0,.95,0,1.38a9.49,9.49,0,0,0,.15,1.28c0,.13.08.29.13.48a3.06,3.06,0,0,0,.17.59,5.69,5.69,0,0,0,.23.55.62.62,0,0,0,.31.31h.06l.06,0a.64.64,0,0,0,.24-.05.53.53,0,0,1,.2,0,.25.25,0,0,1,.21.13,1.12,1.12,0,0,1,.08.42,2.9,2.9,0,0,1,0,.51,8,8,0,0,1-.39.74,6,6,0,0,1-.61.82,3.62,3.62,0,0,1-.72.65,1.39,1.39,0,0,1-.79.27.9.9,0,0,1-.52-.17,2.33,2.33,0,0,1-.41-.42,2.37,2.37,0,0,1-.31-.53,2.85,2.85,0,0,1-.19-.49,5.82,5.82,0,0,1-.22-1.79c0-.59.05-1.09.1-1.5.06-.64.09-1.18.1-1.63s0-.85,0-1.21,0-.71,0-1.07,0-.76,0-1.24,0-1,0-1.69.06-1.46.12-2.43c0-.56.08-1,.11-1.35s.06-.66.08-1,0-.62.08-1,0-.78.07-1.32.07-.93.08-1.38a14.67,14.67,0,0,1,.14-1.56,19.44,19.44,0,0,1,.45-2.54,19.69,19.69,0,0,1,.79-2.48c.06-.15.16-.37.29-.67s.29-.59.45-.88a5.15,5.15,0,0,1,.55-.78A.79.79,0,0,1,442.27,540Z" transform="translate(-140 -144)"/><path class="cls-1" d="M445,552.86a2.85,2.85,0,0,1,.36-1,1.21,1.21,0,0,1,.91-.46.81.81,0,0,1,.36,0,.29.29,0,0,0,.26-.1.62.62,0,0,0,.26-.38c0-.16.09-.24.17-.24s.16.06.24.24.14.34.2.51c.1.35.18.66.23.93a4.15,4.15,0,0,1,.08.52,9.57,9.57,0,0,1,.09,1,5.61,5.61,0,0,0,.06.76c0,.23.08.41.11.55a3.35,3.35,0,0,0,.13.43l.18.57q.11.35.27,1a8.94,8.94,0,0,1,.21.89,4.91,4.91,0,0,0,.14.6,3.16,3.16,0,0,0,.16.44,2.72,2.72,0,0,0,.2.37,1.53,1.53,0,0,0,.35.4.87.87,0,0,0,.52.16.76.76,0,0,0,.38-.3c.12-.15.29-.41.52-.76s.46-.76.6-1l.29-.47c.07-.09.11-.16.14-.2a.57.57,0,0,0,.08-.19,5.44,5.44,0,0,0,.22-.76c0-.21.07-.42.09-.62a4.79,4.79,0,0,1,.11-.6,3.92,3.92,0,0,1,.26-.71,2.92,2.92,0,0,1,.69-1.06,3.06,3.06,0,0,1,1.11-.49,1.9,1.9,0,0,1,.62-.13.47.47,0,0,1,.19,0,1,1,0,0,1,.23.78,8.55,8.55,0,0,0,.08,1.27,4.21,4.21,0,0,0,.43,1.39c.21.4.49.88.84,1.46a4.18,4.18,0,0,0,.4.54,3.57,3.57,0,0,0,.39.39l.6.57c.25.24.6.63,1.06,1.17s.83,1,1.07,1.22a1.46,1.46,0,0,0,.85.48,1.86,1.86,0,0,0,.45.06.26.26,0,0,1,.26.22.73.73,0,0,1-.08.51q-.14.33-.48,1.23c-.16.41-.27.69-.32.83a.45.45,0,0,1-.2.28l-.05,0h-.05a.49.49,0,0,1-.32-.15l-.48-.4a2,2,0,0,0-.58-.28l-.48-.13a5.4,5.4,0,0,1-1.78-1.16c-.65-.59-1.28-1.19-1.9-1.81-.42-.42-.74-.74-1-1a1,1,0,0,0-.7-.35.3.3,0,0,0-.18,0,1,1,0,0,0-.5.34c-.17.18-.35.4-.56.65a3.06,3.06,0,0,0-.32.48c-.08.13-.14.26-.21.37l-.17.34a1.93,1.93,0,0,1-.23.36,2.79,2.79,0,0,1-2.23,1.08,2.37,2.37,0,0,1-1-.21,2.88,2.88,0,0,1-.8-.58,3.67,3.67,0,0,1-.62-.79c-.18-.29-.35-.59-.52-.9a6.34,6.34,0,0,1-.38-.76,12,12,0,0,1-.55-1.47c0-.19-.09-.42-.17-.7s-.14-.61-.2-1-.07-.6-.08-.81,0-.4,0-.57v-.55a4.15,4.15,0,0,0-.09-.74c-.07-.41-.13-.73-.19-1A1.88,1.88,0,0,1,445,552.86Z" transform="translate(-140 -144)"/><path class="cls-1" d="M472.06,554.94a.61.61,0,0,1,.06-.37,4.78,4.78,0,0,0,.25-.56c.1-.23.18-.41.22-.54a.55.55,0,0,0,0-.36.56.56,0,0,0-.31-.39,1.27,1.27,0,0,0-.5-.1,1.13,1.13,0,0,0-.71.29,5.67,5.67,0,0,0-.87.92l-.84,1a7.58,7.58,0,0,0-.62.89,8.76,8.76,0,0,0-.43.87,4.44,4.44,0,0,0-.28,1c0,.16-.06.37-.11.62a5,5,0,0,0-.09.82,4.53,4.53,0,0,0,.05.9,2.65,2.65,0,0,0,.28.88,1.8,1.8,0,0,0,1,1,12.09,12.09,0,0,0,1.42.39,4.63,4.63,0,0,0,.55.1,4.27,4.27,0,0,0,.76,0,5.88,5.88,0,0,0,1.13-.12,5.71,5.71,0,0,0,1.32-.47,14.87,14.87,0,0,0,1.44-.83,2.5,2.5,0,0,1,1.41-.47l.2,0h.23a1.66,1.66,0,0,0,.5-.09,2,2,0,0,0,.46-.22.7.7,0,0,1,.37-.12h.08l.08,0,.22.11a.44.44,0,0,1,.21.29.75.75,0,0,1-.23.65,9.94,9.94,0,0,1-.73.75l-.54.54a2.31,2.31,0,0,1-.48.36,1.91,1.91,0,0,1-.51.24,2.84,2.84,0,0,1-.45.1l-.48.06a5.31,5.31,0,0,0-.64.12,2,2,0,0,0-.43.14,3.07,3.07,0,0,0-.31.17l-.39.23a4.17,4.17,0,0,1-.67.33,14.48,14.48,0,0,1-1.51.54c-.62.2-1.27.39-1.94.56s-1.33.32-2,.44a10,10,0,0,1-1.64.17,1.26,1.26,0,0,1-.44-.07,1.45,1.45,0,0,1-.31-.18,2.45,2.45,0,0,1-.73-1.21c-.13-.5-.23-.9-.29-1.21a6.91,6.91,0,0,1-.08-2,9.88,9.88,0,0,1,.27-1.46,10.49,10.49,0,0,1,1-2.74,14.78,14.78,0,0,1,1.7-2.56,15.7,15.7,0,0,1,2.19-2.2,11.86,11.86,0,0,1,2.49-1.61c.4-.19.74-.35,1-.47a2.24,2.24,0,0,1,.79-.19.72.72,0,0,1,.56.25,1.8,1.8,0,0,1,.37,1.21,4.79,4.79,0,0,1-.15,1.3,2.63,2.63,0,0,1-.5,1.13,8.3,8.3,0,0,1-.65.73l-.53.42a1.21,1.21,0,0,1-.77.33C472.35,555.44,472.16,555.27,472.06,554.94Z" transform="translate(-140 -144)"/><path class="cls-1" d="M485.64,548.25a2.17,2.17,0,0,0,.22-.78,8.28,8.28,0,0,0,0-.87c0-.31,0-.66,0-1.07a8.58,8.58,0,0,1,0-1.41c0-.53.09-1,.15-1.36a3.92,3.92,0,0,1,.3-1,3.2,3.2,0,0,1,.57-.89,8.39,8.39,0,0,1,1-.91,3.54,3.54,0,0,1,.44-.22c.18-.08.38-.15.58-.22l.59-.17a1.84,1.84,0,0,1,.47-.07.37.37,0,0,1,.25.09.77.77,0,0,1,0,.63,12.8,12.8,0,0,0-.23,1.51c0,.35-.07.63-.08.85s0,.41,0,.57l0,.5a3.71,3.71,0,0,1-.11.62l-.12.7c0,.23-.08.47-.13.69s-.1.41-.13.53a.49.49,0,0,0,0,.34c0,.13.17.19.37.19l.19,0h1.3a2.94,2.94,0,0,1,.53.08,1.42,1.42,0,0,1,.54.19l.37.24a2.77,2.77,0,0,0,.34.22,1,1,0,0,0,.45.1,1.27,1.27,0,0,0,.58-.13.85.85,0,0,1,.32-.12s.05,0,.09.06,0,.16,0,.31a2.55,2.55,0,0,1-.17.48,4.26,4.26,0,0,1-.31.53,2.29,2.29,0,0,1-.43.45,1.34,1.34,0,0,1-.53.18c-.19,0-.56,0-1.12.06l-.91,0c-.24,0-.43,0-.58.05a1.28,1.28,0,0,0-.34.09.54.54,0,0,0-.21.19,1.45,1.45,0,0,0-.31.77c-.05.31-.09.69-.13,1.15s0,.63,0,.9,0,.54.06.83.07.62.11,1,.09.79.15,1.29c.11.82.18,1.47.24,2s.08.94.1,1.39,0,1,0,1.38,0,.67-.06.92a3.51,3.51,0,0,0,0,.65,2.09,2.09,0,0,0,.16.59,1.92,1.92,0,0,0,.49.74,2.82,2.82,0,0,0,.64.44,2.88,2.88,0,0,0,.6.21l.41.1a2.18,2.18,0,0,0,.52.06,2.75,2.75,0,0,0,.67-.09,1.64,1.64,0,0,0,.7-.44,4.47,4.47,0,0,0,.49-.73c.23-.38.55-1,1-1.72.09-.12.18-.28.3-.48a4,4,0,0,1,.39-.56,2.22,2.22,0,0,1,.48-.44.87.87,0,0,1,.54-.19.45.45,0,0,1,.25.09,1.2,1.2,0,0,1,.41.84,4,4,0,0,1,0,1.08,2.7,2.7,0,0,1-.19.7,4.31,4.31,0,0,1-1,1.38,3.19,3.19,0,0,1-.45.45c-.15.14-.32.26-.49.39l-.62.42-.89.57-1,.7-.49.34-.24.15-.2.11a8.36,8.36,0,0,1-1.47.57,6,6,0,0,1-1.6.18l-1-.14a2.1,2.1,0,0,1-.92-.48,3.43,3.43,0,0,1-1-1.35,12.7,12.7,0,0,1-.43-1.23,4.58,4.58,0,0,1-.13-1c0-.29,0-.59.05-.9s.07-.66.11-1a10.31,10.31,0,0,0,0-1.41,8.14,8.14,0,0,0-.13-1.33c-.06-.33-.13-.63-.2-.9l-.22-.87a7.49,7.49,0,0,1-.13-1.3,13.21,13.21,0,0,1,0-1.81c.05-.55.11-1,.16-1.43s.08-.73.11-1a.56.56,0,0,0-.13-.49c-.08-.06-.67.32-1.77,1.15l-.58.37a2.22,2.22,0,0,1-.81.28,1.8,1.8,0,0,1-.37.06c-.17,0-.27-.05-.31-.16a.87.87,0,0,1,.06-.42,3.07,3.07,0,0,1,.29-.57c.14-.21.3-.42.48-.64a3.48,3.48,0,0,1,.62-.54l.45-.25.39-.18c.13-.06.25-.14.39-.22A3.48,3.48,0,0,0,485,549a5.13,5.13,0,0,1,.36-.39A1.68,1.68,0,0,0,485.64,548.25Z" transform="translate(-140 -144)"/><path class="cls-1" d="M469.22,660.48c-.06-.14.11-.39.51-.74a6.94,6.94,0,0,1,1.38-.93l.23-.11.2-.11a18.75,18.75,0,0,1,2.79-4.9c.48-.64.94-1.23,1.4-1.78a9.8,9.8,0,0,1,1.44-1.44,7.8,7.8,0,0,1,3.86-1.68l.73-.1a4.58,4.58,0,0,1,.63-.05,2.54,2.54,0,0,1,1.18.25l.28.14a2.18,2.18,0,0,1,.46.31,2.12,2.12,0,0,1,.45.49,1.58,1.58,0,0,1,.27.67,1.19,1.19,0,0,1,0,.33,1.38,1.38,0,0,1-.14.45c-.08.18-.2.41-.35.69s-.38.63-.67,1c-.5.73-.91,1.31-1.25,1.75a8.76,8.76,0,0,1-1.07,1.17,8.54,8.54,0,0,1-1.32.93c-.51.28-1.18.64-2,1-.37.17-.74.32-1.09.47s-.82.33-1.42.55a2.84,2.84,0,0,1-.68.25,2.31,2.31,0,0,0,.49,1.38,2.72,2.72,0,0,0,1.07.76,4.64,4.64,0,0,0,1.38.31c.5,0,1,.06,1.43.06a11.12,11.12,0,0,0,1.38-.11l2.55-.29.48,0,1.23-.1.66,0,.45,0c.17,0,.25,0,.25.06s0,.15-.17.27a4.27,4.27,0,0,1-.51.37c-.21.13-.41.26-.62.37s-.36.2-.46.27q-.78.39-2.1.93c-.88.35-1.79.68-2.74,1s-1.88.59-2.78.81a9.58,9.58,0,0,1-2.24.32,4.2,4.2,0,0,1-1.09-.15,5.21,5.21,0,0,1-1.07-.43,4.49,4.49,0,0,1-.93-.69,2.3,2.3,0,0,1-.6-.9,2.23,2.23,0,0,1-.23-.91,8.29,8.29,0,0,1,0-1.07c0-.1,0-.25.06-.43s.06-.4.1-.62l-.33.06-.32.06a6.7,6.7,0,0,1-.93.16A.32.32,0,0,1,469.22,660.48Zm6-2.73q.61-.24,1.32-.6l1.72-.88a15.5,15.5,0,0,0,1.53-.95,6,6,0,0,0,1.2-1.13,3.07,3.07,0,0,0,.66-1.19,1.67,1.67,0,0,0,0-.48,1.07,1.07,0,0,0-.45-.56,1.69,1.69,0,0,0-.67-.28l-.11,0h-.1a1.86,1.86,0,0,0-1,.31,5.15,5.15,0,0,0-1,.77,10.36,10.36,0,0,0-.9,1c-.29.38-.56.76-.83,1.13a16,16,0,0,0-.86,1.38A8,8,0,0,0,475.23,657.75Z" transform="translate(-140 -144)"/><path class="cls-1" d="M492.5,647.25a2.4,2.4,0,0,0,.22-.78,8.28,8.28,0,0,0,0-.87c0-.31,0-.66-.05-1.07a10,10,0,0,1,0-1.41c0-.53.09-1,.15-1.36a3.92,3.92,0,0,1,.3-1,3.2,3.2,0,0,1,.57-.89,8.39,8.39,0,0,1,1-.91,4.11,4.11,0,0,1,.43-.22l.59-.22.59-.17a1.84,1.84,0,0,1,.47-.07.32.32,0,0,1,.24.09.73.73,0,0,1,.05.63,12.8,12.8,0,0,0-.23,1.51c0,.35-.07.63-.08.85s0,.41,0,.57l0,.5a3.71,3.71,0,0,1-.11.62l-.12.7c0,.23-.09.47-.13.69l-.14.53a.55.55,0,0,0,0,.34c0,.13.16.19.37.19l.19,0h1.3a3.08,3.08,0,0,1,.53.08,1.49,1.49,0,0,1,.54.19l.37.24a2.17,2.17,0,0,0,.34.22,1,1,0,0,0,.45.1,1.27,1.27,0,0,0,.58-.13.85.85,0,0,1,.32-.12s.05,0,.09.06a.42.42,0,0,1,0,.31,2.55,2.55,0,0,1-.17.48,4.26,4.26,0,0,1-.31.53,2.34,2.34,0,0,1-.44.45,1.24,1.24,0,0,1-.52.18c-.19,0-.56,0-1.12.06l-.91,0c-.24,0-.43,0-.58.05a1.18,1.18,0,0,0-.34.09.54.54,0,0,0-.21.19,1.45,1.45,0,0,0-.31.77c-.05.31-.09.69-.13,1.15s0,.63,0,.9,0,.54.06.83.06.62.11,1,.09.79.15,1.29c.1.82.18,1.47.23,2s.09.94.11,1.39,0,1,0,1.38,0,.67-.06.92a3.51,3.51,0,0,0,0,.65,2.44,2.44,0,0,0,.15.59,1.93,1.93,0,0,0,.5.74,2.82,2.82,0,0,0,.64.44,2.88,2.88,0,0,0,.6.21l.4.1a2.33,2.33,0,0,0,.53.06,2.75,2.75,0,0,0,.67-.09,1.55,1.55,0,0,0,.69-.44,3.76,3.76,0,0,0,.5-.73c.23-.38.55-1,1-1.72.09-.12.18-.28.3-.48a5,5,0,0,1,.38-.56,2.54,2.54,0,0,1,.49-.44.87.87,0,0,1,.54-.19.45.45,0,0,1,.25.09,1.2,1.2,0,0,1,.41.84,4.38,4.38,0,0,1,0,1.08,2.7,2.7,0,0,1-.19.7,4.31,4.31,0,0,1-1,1.38,3.19,3.19,0,0,1-.45.45c-.15.14-.32.26-.49.39l-.62.42-.89.57-1,.7-.5.34-.23.15-.2.11a8.36,8.36,0,0,1-1.47.57,6,6,0,0,1-1.6.18l-1-.14a2.12,2.12,0,0,1-.91-.48,3.34,3.34,0,0,1-1-1.35c-.21-.53-.35-.94-.44-1.23a5.17,5.17,0,0,1-.12-1c0-.29,0-.59.05-.9s.06-.66.11-1a10.31,10.31,0,0,0,0-1.41,9.43,9.43,0,0,0-.13-1.33c-.06-.33-.13-.63-.2-.9l-.22-.87a7.32,7.32,0,0,1-.14-1.3,14.89,14.89,0,0,1,.05-1.81c.05-.55.1-1,.16-1.43s.08-.73.1-1a.56.56,0,0,0-.12-.49c-.08-.06-.67.32-1.77,1.15l-.59.37a2.1,2.1,0,0,1-.8.28,1.8,1.8,0,0,1-.37.06c-.17,0-.27-.05-.31-.16a.87.87,0,0,1,.06-.42,3.07,3.07,0,0,1,.29-.57c.14-.21.3-.42.48-.64a3.48,3.48,0,0,1,.62-.54l.45-.25.39-.18.39-.22a3.48,3.48,0,0,0,.48-.37c.14-.17.26-.29.35-.39A1.41,1.41,0,0,0,492.5,647.25Z" transform="translate(-140 -144)"/><path class="cls-1" d="M514.54,653.94a.61.61,0,0,1,.06-.37c.06-.12.15-.31.25-.56s.17-.41.22-.54a.55.55,0,0,0,0-.36.59.59,0,0,0-.31-.39,1.27,1.27,0,0,0-.5-.1,1.13,1.13,0,0,0-.71.29,5.67,5.67,0,0,0-.87.92l-.84,1a6.55,6.55,0,0,0-.62.89,8.76,8.76,0,0,0-.43.87,4,4,0,0,0-.28,1c0,.16-.06.37-.11.62a5,5,0,0,0-.09.82,5.43,5.43,0,0,0,0,.9,3.22,3.22,0,0,0,.28.88,1.85,1.85,0,0,0,1,1,12.09,12.09,0,0,0,1.42.39,4.63,4.63,0,0,0,.55.1,4.15,4.15,0,0,0,.75,0,5.9,5.9,0,0,0,1.14-.12,5.49,5.49,0,0,0,1.31-.47,13.91,13.91,0,0,0,1.45-.83,2.5,2.5,0,0,1,1.41-.47l.2,0h.23a1.71,1.71,0,0,0,.5-.09,2,2,0,0,0,.46-.22.68.68,0,0,1,.37-.12h.08l.08,0,.21.11a.42.42,0,0,1,.22.29.78.78,0,0,1-.23.65,9.94,9.94,0,0,1-.73.75l-.54.54a3,3,0,0,1-.48.36,1.91,1.91,0,0,1-.51.24,2.84,2.84,0,0,1-.45.1l-.48.06a5.31,5.31,0,0,0-.64.12,1.8,1.8,0,0,0-.43.14,3.07,3.07,0,0,0-.31.17l-.39.23a4.64,4.64,0,0,1-.67.33,14.77,14.77,0,0,1-1.52.54c-.62.2-1.26.39-1.93.56s-1.33.32-2,.44a10,10,0,0,1-1.65.17,1.2,1.2,0,0,1-.43-.07,1.24,1.24,0,0,1-.31-.18,2.45,2.45,0,0,1-.73-1.21c-.13-.5-.23-.9-.29-1.21a6.56,6.56,0,0,1-.08-2,11.58,11.58,0,0,1,.26-1.46,10.89,10.89,0,0,1,1-2.74,14.78,14.78,0,0,1,1.7-2.56,15.7,15.7,0,0,1,2.19-2.2,11.61,11.61,0,0,1,2.49-1.61c.39-.19.74-.35,1-.47a2.2,2.2,0,0,1,.79-.19.73.73,0,0,1,.56.25,1.8,1.8,0,0,1,.37,1.21,4.79,4.79,0,0,1-.15,1.3,2.63,2.63,0,0,1-.5,1.13,8.3,8.3,0,0,1-.65.73l-.53.42a1.23,1.23,0,0,1-.77.33C514.83,654.44,514.64,654.27,514.54,653.94Z" transform="translate(-140 -144)"/><path class="cls-1" d="M527.25,661.69a.31.31,0,0,1,0,.19c0,.06,0,.19-.07.4a.92.92,0,0,1-.1.37.87.87,0,0,0,0,.47c0,.1.17.2.4.31a1.2,1.2,0,0,0,.46.12l.13-.06a2,2,0,0,0,.28-.22,1.84,1.84,0,0,0,.28-.28,1.5,1.5,0,0,1,.31-.28,1,1,0,0,1,.34-.24l.14-.07a.53.53,0,0,1,.2,0l.09,0h.09a1.1,1.1,0,0,1,.55.38,1.46,1.46,0,0,1,.32.55v.1s0,.09,0,.21a3.89,3.89,0,0,0,.06.52.57.57,0,0,1,0,.26.7.7,0,0,1-.12.28l-.25.31a7.08,7.08,0,0,1-.85.68,2.56,2.56,0,0,1-1,.47.44.44,0,0,1-.23,0,.24.24,0,0,0-.17,0,.41.41,0,0,0-.2.14.41.41,0,0,1-.17.14,1.1,1.1,0,0,1-.31.06,4.59,4.59,0,0,1-.87-.09,5,5,0,0,1-.88-.28,3.2,3.2,0,0,1-.75-.48,1.94,1.94,0,0,1-.48-.73c0-.11-.08-.2-.12-.3a.79.79,0,0,1-.06-.32,2,2,0,0,1,.12-.59,2.22,2.22,0,0,1,.22-.59,2.11,2.11,0,0,1,.46-.46,4.16,4.16,0,0,1,.5-.39,1.14,1.14,0,0,0,.25-.23,1,1,0,0,0,.2-.28.69.69,0,0,1,.23-.28.87.87,0,0,1,.4-.25l.06,0h.1C527.13,661.29,527.25,661.42,527.25,661.69Z" transform="translate(-140 -144)"/></svg>