<svg id="Слой_1" data-name="Слой 1" xmlns="http://www.w3.org/2000/svg" viewBox="0 0 492.195 313.505"><defs><style>.cls-1,.cls-2{fill:none;stroke-miterlimit:10;stroke-width:5px;}.cls-1{stroke:#1d1e20;}.cls-2{stroke:#495aa8;}.cls-3{fill:#df1f26;}</style></defs><title>coo</title><line class="cls-1" x1="76.905" y1="236.599" x2="415.29" y2="236.599"/><line class="cls-1" x1="246.098" y1="239.013" x2="246.098" y2="4.421"/><line class="cls-1" x1="269.182" y1="213.886" x2="246.098" y2="238.013"/><line class="cls-1" x1="270.224" y1="258.095" x2="246.098" y2="235.01"/><line class="cls-1" x1="223.14" y1="259.095" x2="246.224" y2="234.968"/><line class="cls-1" x1="222.098" y1="214.886" x2="246.224" y2="237.971"/><path class="cls-1" d="M476.9,460.339l23.084-24.127,22.7,23.8" transform="translate(-253.902 -432.593)"/><rect class="cls-2" x="295.098" y="206.407" width="18" height="18"/><rect class="cls-2" x="286.098" y="197.407" width="18" height="18"/><rect class="cls-2" x="277.098" y="188.407" width="18" height="18"/><rect class="cls-2" x="268.098" y="179.407" width="18" height="18"/><rect class="cls-2" x="259.098" y="170.407" width="18" height="18"/><rect class="cls-2" x="250.098" y="161.407" width="18" height="18"/><rect class="cls-2" x="304.098" y="215.407" width="18" height="18"/><rect class="cls-2" x="313.098" y="224.407" width="18" height="18"/><rect class="cls-2" x="241.098" y="152.407" width="18" height="18"/><rect class="cls-2" x="432" y="639" width="18" height="18" transform="translate(835.098 -225.593) rotate(90)"/><rect class="cls-2" x="441" y="630" width="18" height="18" transform="translate(835.098 -243.593) rotate(90)"/><rect class="cls-2" x="450" y="621" width="18" height="18" transform="translate(835.098 -261.593) rotate(90)"/><rect class="cls-2" x="459" y="612" width="18" height="18" transform="translate(835.098 -279.593) rotate(90)"/><rect class="cls-2" x="468" y="603" width="18" height="18" transform="translate(835.098 -297.593) rotate(90)"/><rect class="cls-2" x="477" y="594" width="18" height="18" transform="translate(835.098 -315.593) rotate(90)"/><rect class="cls-2" x="423" y="648" width="18" height="18" transform="translate(835.098 -207.593) rotate(90)"/><rect class="cls-2" x="414" y="657" width="18" height="18" transform="translate(835.098 -189.593) rotate(90)"/><rect class="cls-2" x="486" y="585" width="18" height="18" transform="translate(835.098 -333.593) rotate(90)"/><rect class="cls-2" x="237.098" y="141.407" width="18" height="18"/><circle class="cls-3" cx="76.905" cy="236.599" r="76.905"/><circle class="cls-3" cx="415.29" cy="236.599" r="76.905"/></svg>