<svg xmlns="http://www.w3.org/2000/svg" viewBox="0 0 869 869"><defs><style>.a{fill:#cccccc;stroke:#1d1e20;}.a,.b,.c{stroke-miterlimit:10;stroke-width:5px;}.b{fill:#230f10;}.b,.c{stroke:#cccccc;}.c{fill:#df1f26;}</style></defs><title>peo</title><circle class="a" cx="433.844" cy="45.7" r="43.2"/><path class="a" d="M503.344,158.4c-41.369,0-78.046,11.038-72,57.6h144C581.39,169.438,544.713,158.4,503.344,158.4Z" transform="translate(-69.5 -69.5)"/><circle class="a" cx="435.156" cy="823.3" r="43.2"/><path class="a" d="M504.656,849.6c41.369,0,78.046-11.038,72-57.6h-144C426.61,838.562,463.287,849.6,504.656,849.6Z" transform="translate(-69.5 -69.5)"/><circle class="a" cx="823.3" cy="435.156" r="43.2"/><path class="a" d="M849.6,504.656c0-41.369-11.038-78.046-57.6-72v144C838.562,582.7,849.6,546.025,849.6,504.656Z" transform="translate(-69.5 -69.5)"/><circle class="a" cx="45.7" cy="436.468" r="43.2"/><path class="a" d="M158.4,505.968c0,41.369,11.038,78.046,57.6,72v-144C169.438,427.921,158.4,464.6,158.4,505.968Z" transform="translate(-69.5 -69.5)"/><circle class="a" cx="706.3" cy="155.526" r="43.2"/><path class="a" d="M745.253,255.573c-29.253-29.252-62.992-47.382-91.641-10.182L755.435,347.214C792.635,318.566,774.506,284.826,745.253,255.573Z" transform="translate(-69.5 -69.5)"/><circle class="a" cx="157.381" cy="706.3" r="43.2"/><path class="a" d="M257.428,745.253c29.253,29.253,62.993,47.382,91.641,10.182L247.246,653.612C210.047,682.261,228.176,716,257.428,745.253Z" transform="translate(-69.5 -69.5)"/><circle class="a" cx="706.3" cy="706.3" r="43.2"/><path class="a" d="M745.253,745.253c29.253-29.253,47.382-62.992,10.182-91.641L653.612,755.435C682.261,792.635,716,774.506,745.253,745.253Z" transform="translate(-69.5 -69.5)"/><circle class="a" cx="155.526" cy="157.381" r="43.2"/><path class="a" d="M255.573,257.428c-29.252,29.253-47.382,62.993-10.182,91.641L347.214,247.246C318.566,210.047,284.826,228.176,255.573,257.428Z" transform="translate(-69.5 -69.5)"/><path class="b" d="M725.42,725.42A318.416,318.416,0,0,1,504,818.96V504Z" transform="translate(-69.5 -69.5)"/><path class="b" d="M504,504V818.96c-1.5.03-3,.04-4.5.04a318.4,318.4,0,0,1-221.37-89.13Z" transform="translate(-69.5 -69.5)"/><path class="b" d="M504,504,278.13,729.87A318.5,318.5,0,0,1,180.04,504Z" transform="translate(-69.5 -69.5)"/><path class="c" d="M504,504H180.04c-.03-1.5-.04-3-.04-4.5a318.508,318.508,0,0,1,93.58-225.92Z" transform="translate(-69.5 -69.5)"/><path class="c" d="M504,180.04V504L273.58,273.58A318.508,318.508,0,0,1,499.5,180C501,180,502.5,180.01,504,180.04Z" transform="translate(-69.5 -69.5)"/><path class="c" d="M729.87,278.13,504,504V180.04A318.5,318.5,0,0,1,729.87,278.13Z" transform="translate(-69.5 -69.5)"/><path class="c" d="M819,499.5c0,1.5-.01,3-.04,4.5H504L729.87,278.13A318.4,318.4,0,0,1,819,499.5Z" transform="translate(-69.5 -69.5)"/><path class="b" d="M818.96,504a318.416,318.416,0,0,1-93.54,221.42L504,504Z" transform="translate(-69.5 -69.5)"/><circle class="c" cx="435.156" cy="535.3" r="43.2"/><path class="c" d="M504.656,561.6c41.369,0,78.046-11.038,72-57.6h-144C426.61,550.562,463.287,561.6,504.656,561.6Z" transform="translate(-69.5 -69.5)"/><circle class="b" cx="435.156" cy="333.7" r="43.2"/><path class="b" d="M504.656,446.4c-41.369,0-78.046,11.038-72,57.6h144C582.7,457.438,546.025,446.4,504.656,446.4Z" transform="translate(-69.5 -69.5)"/></svg>